<svg xmlns="http://www.w3.org/2000/svg" viewBox="0 0 24 24"><g><path d="M7.799 5.698c.589 0 1.12.051 1.606.156q.722.155 1.241.507.516.351.804.938c.188.387.281.871.281 1.443q0 .93-.421 1.551-.424.62-1.255 1.014 1.133.328 1.689 1.146.559.822.557 1.975 0 .935-.359 1.612a3.14 3.14 0 0 1-.973 1.114q-.613.432-1.399.637A6.1 6.1 0 0 1 7.963 18H2V5.698zm-.35 4.97q.721 0 1.192-.345.465-.344.463-1.119 0-.43-.152-.707a1.1 1.1 0 0 0-.416-.427 1.7 1.7 0 0 0-.596-.216 3.6 3.6 0 0 0-.697-.06H4.709v2.874zm.151 5.237q.401.001.759-.077c.243-.053.457-.137.637-.261.182-.12.332-.283.441-.491q.164-.31.163-.798-.002-.948-.533-1.357c-.356-.27-.83-.404-1.413-.404H4.709v3.388zm8.562-.041q.552.538 1.583.538.74 0 1.277-.374c.354-.248.571-.514.654-.79h2.155c-.347 1.072-.872 1.838-1.589 2.299-.708.463-1.572.693-2.58.693q-1.05 0-1.899-.337a4 4 0 0 1-1.439-.958 4.4 4.4 0 0 1-.904-1.484 5.4 5.4 0 0 1-.32-1.899q0-1 .329-1.863a4.4 4.4 0 0 1 .933-1.492q.607-.63 1.444-.994a4.6 4.6 0 0 1 1.857-.363q1.131-.001 1.98.44a3.94 3.94 0 0 1 1.389 1.181 4.8 4.8 0 0 1 .783 1.69q.24.947.171 1.983h-6.428c-.001.706.237 1.372.604 1.73m2.811-4.68c-.291-.321-.783-.496-1.384-.496q-.585 0-.973.2a2 2 0 0 0-.621.491 1.8 1.8 0 0 0-.328.628 2.7 2.7 0 0 0-.111.587h3.98c-.058-.625-.271-1.085-.563-1.41m-3.916-3.446h4.985V6.524h-4.985z"/></g></svg>