<svg xmlns="http://www.w3.org/2000/svg" viewBox="0 0 24 24"><g><path d="M14.722 14.019a.654.654 0 0 1-.654.654H9.977a.654.654 0 0 1 0-1.308h4.091c.361 0 .654.293.654.654m-4.741-3.321h2.038a.692.692 0 0 0 0-1.384H9.981a.692.692 0 0 0 0 1.384M21 5v14a2 2 0 0 1-2 2H5a2 2 0 0 1-2-2V5a2 2 0 0 1 2-2h14a2 2 0 0 1 2 2m-3.456 6.39a.72.72 0 0 0-.72-.72h-.607l-.013.001a.72.72 0 0 1-.718-.668l-.001-.008a3.6 3.6 0 0 0-3.599-3.599H10.07a3.6 3.6 0 0 0-3.599 3.599v3.947a3.6 3.6 0 0 0 3.599 3.599h3.874a3.6 3.6 0 0 0 3.599-3.599z"/></g></svg>