<svg xmlns="http://www.w3.org/2000/svg" viewBox="0 0 24 24"><g><path d="M12 4.622c2.403 0 2.688.009 3.637.052.877.04 1.354.187 1.671.31.42.163.72.358 1.035.673s.51.615.673 1.035c.123.317.27.794.31 1.671.043.949.052 1.234.052 3.637s-.009 2.688-.052 3.637c-.04.877-.187 1.354-.31 1.671-.163.42-.358.72-.673 1.035s-.615.51-1.035.673c-.317.123-.794.27-1.671.31-.949.043-1.233.052-3.637.052s-2.688-.009-3.637-.052c-.877-.04-1.354-.187-1.671-.31a2.8 2.8 0 0 1-1.035-.673 2.8 2.8 0 0 1-.673-1.035c-.123-.317-.27-.794-.31-1.671-.043-.949-.052-1.234-.052-3.637s.009-2.688.052-3.637c.04-.877.187-1.354.31-1.671.163-.42.358-.72.673-1.035s.615-.51 1.035-.673c.317-.123.794-.27 1.671-.31.949-.043 1.234-.052 3.637-.052M12 3c-2.444 0-2.751.01-3.711.054-.958.044-1.612.196-2.184.418a4.4 4.4 0 0 0-1.594 1.039c-.5.5-.808 1.002-1.038 1.594-.223.572-.375 1.226-.419 2.184C3.01 9.249 3 9.556 3 12s.01 2.751.054 3.711c.044.958.196 1.612.418 2.185.23.592.538 1.094 1.038 1.594s1.002.808 1.594 1.038c.572.222 1.227.375 2.185.418.96.044 1.267.054 3.711.054s2.751-.01 3.711-.054c.958-.044 1.612-.196 2.185-.418a4.4 4.4 0 0 0 1.594-1.038c.5-.5.808-1.002 1.038-1.594.222-.572.375-1.227.418-2.185.044-.96.054-1.267.054-3.711s-.01-2.751-.054-3.711c-.044-.958-.196-1.612-.418-2.185A4.4 4.4 0 0 0 19.49 4.51c-.5-.5-1.002-.808-1.594-1.038-.572-.222-1.227-.375-2.185-.418C14.751 3.01 14.444 3 12 3m0 4.378a4.622 4.622 0 1 0 0 9.244 4.622 4.622 0 0 0 0-9.244M12 15a3 3 0 1 1 0-6 3 3 0 0 1 0 6m4.804-8.884a1.08 1.08 0 1 0 .001 2.161 1.08 1.08 0 0 0-.001-2.161"/></g></svg>