<svg xmlns="http://www.w3.org/2000/svg" viewBox="0 0 24 24"><g><path d="M19 2H5C3.3 2 2 3.3 2 5v11c0 1.7 1.3 3 3 3h4l6 3-1-3h5c1.7 0 3-1.3 3-3V5c0-1.7-1.3-3-3-3m-1.6 4.5c-.4.8-.8 2.1-1 3.9-.3 1.8-.4 3.1-.3 4.1 0 .3 0 .5-.1.7s-.3.4-.6.4-.6-.1-.9-.4c-1-1-1.8-2.6-2.4-4.6-.7 1.4-1.2 2.4-1.6 3.1-.6 1.2-1.2 1.8-1.6 1.9-.3 0-.5-.2-.8-.7-.5-1.4-1.1-4.2-1.7-8.2 0-.3 0-.5.2-.7.1-.2.4-.3.7-.4.5 0 .9.2.9.8.3 2.3.7 4.2 1.1 5.7l2.4-4.5c.2-.4.4-.6.8-.6q.75 0 .9.9c.3 1.4.6 2.6 1 3.7.3-2.7.8-4.7 1.4-5.9.2-.3.4-.5.7-.5.2 0 .5.1.7.2q.3.3.3.6c0 .3 0 .4-.1.5"/></g></svg>