<svg xmlns="http://www.w3.org/2000/svg" height="32" viewBox="0 0 118 32"><path fill="#00BE28" d="M16 0C7.2 0 0 7.2 0 16s7.2 16 16 16 16-7.2 16-16S24.8 0 16 0zm-1 19H7l8-16v16zm2 10V13h8l-8 16z"/><path d="M41.3 26.6c-.5-.7-.9-1.4-1.3-2.1 2.3-1.4 3-2.5 3-4.6V8h-3V6h6v13.4c0 3.4-1 5.4-4.7 7.2zM65 18.4c0 1.1.8 1.3 1.4 1.3.5 0 2-.2 2.6-.4v2.1c-.9.3-2.5.5-3.7.5-1.5 0-3.2-.5-3.2-3.1V12H60v-2h2.1V7.1H65V10h4v2h-4v6.4zM71 10h3v1.3c1.1-.8 1.9-1.3 3.3-1.3 2.5 0 4.5 1.8 4.5 5.6s-2.2 6.3-5.8 6.3c-.9 0-1.3-.1-2-.3V28h-3V10zm5.5 2.3c-.8 0-1.6.4-2.5 1.2v5.9c.6.1.9.2 1.8.2 2 0 3.2-1.3 3.2-3.9 0-2.3-.9-3.4-2.5-3.4zM93 22h-3v-1.5c-.9.7-1.9 1.5-3.5 1.5-1.5 0-3.1-1.1-3.1-3.2 0-2.9 2.5-3.4 4.2-3.7l2.4-.3v-.3c0-1.5-.5-2.3-2-2.3-.7 0-2.3.5-3.7 1.1L84 11c1.2-.4 3-1 4.4-1 2.7 0 4.6 1.4 4.6 4.7V22zm-3-5.6l-2.2.4c-.7.1-1.4.5-1.4 1.6 0 .9.5 1.4 1.3 1.4s1.5-.5 2.3-1v-2.4zM104.5 21.3c-1.1.4-2.2.6-3.5.6-4.2 0-5.9-2.4-5.9-5.9 0-3.7 2.3-6 6.1-6 1.4 0 2.3.2 3.2.5V13c-.8-.3-2-.6-3.2-.6-1.7 0-3.2.9-3.2 3.6 0 2.9 1.5 3.8 3.3 3.8.9 0 1.9-.2 3.2-.7v2.2zM110 15.2c.2-.3.2-.8 3.8-5.2h3.7l-4.6 5.7 5 6.3h-3.7l-4.2-5.8V22h-3V6h3v9.2zM58.5 21.3c-1.5.5-2.7.6-4.2.6-3.6 0-5.8-1.8-5.8-6 0-3.1 1.9-5.9 5.5-5.9s4.9 2.5 4.9 4.9c0 .8 0 1.5-.1 2h-7.3c.1 2.5 1.5 2.8 3.6 2.8 1.1 0 2.2-.3 3.4-.7v2.3zM56 15c0-1.4-.5-2.9-2-2.9-1.4 0-2.3 1.3-2.4 2.9H56z"/></svg>
