<svg xmlns="http://www.w3.org/2000/svg" height="32" viewBox="0 0 118 32" fill-rule="evenodd" clip-rule="evenodd" stroke-linejoin="round" stroke-miterlimit="1.414"><path d="M16.833 28.831V13.323h7.991l-7.991 15.508zm-1.625-10.153H7.217l7.991-15.507v15.507zM16.021 0C7.173 0 0 7.163 0 16s7.173 16 16.021 16 16.02-7.163 16.02-16-7.172-16-16.02-16M41.364 26.578c-.454-.692-.884-1.408-1.315-2.077 2.272-1.361 3.013-2.483 3.013-4.561V7.953h-2.654V5.661h5.666v13.682c0 3.487-.98 5.42-4.71 7.235M65.083 18.388c0 1.146.837 1.29 1.387 1.29s1.351-.192 1.948-.359v2.149a8.917 8.917 0 0 1-2.977.478c-1.482 0-3.179-.549-3.179-3.104v-6.304h-1.553v-2.173h1.553V7.141h2.821v3.2h3.55v2.197h-3.55v5.85zM76.628 12.347c-.837 0-1.865.382-2.845 1.241v5.898c.621.12 1.243.215 2.103.215 1.985 0 3.133-1.265 3.133-3.868 0-2.436-.813-3.486-2.391-3.486m-5.666 15.305V10.327h2.701v1.041c1.076-.836 2.271-1.337 3.73-1.337 2.534 0 4.543 1.766 4.543 5.587 0 3.797-2.2 6.304-5.834 6.304-.885 0-1.578-.12-2.319-.263v5.993h-2.821zM90.183 16.379l-2.319.358c-.693.095-1.434.513-1.434 1.563 0 .926.526 1.449 1.291 1.449.813 0 1.721-.501 2.462-1.027v-2.343zm2.822 5.28h-2.63v-1.241h-.072c-.933.716-2.056 1.456-3.73 1.456-1.482 0-3.06-1.074-3.06-3.224 0-2.896 2.487-3.442 4.208-3.68l2.462-.334v-.331c0-1.528-.622-2.03-2.056-2.03-.693 0-2.343.215-3.705.764l-.24-2.268c1.22-.43 2.893-.74 4.304-.74 2.749 0 4.519 1.098 4.519 4.369v7.259zM104.611 21.301c-1.148.383-2.187.645-3.526.645-4.231 0-5.905-2.412-5.905-5.922 0-3.701 2.319-5.993 6.073-5.993 1.411 0 2.258.239 3.215.549v2.388c-.813-.311-2.02-.645-3.167-.645-1.722 0-3.18.908-3.18 3.558 0 2.913 1.458 3.772 3.323 3.772.884 0 1.876-.19 3.167-.692v2.34zM109.943 15.212c.239-.263.43-.549 3.968-4.871h3.658l-4.59 5.373L118 21.659h-3.682l-4.375-5.372v5.372h-2.821V5.661h2.821v9.551zM56.037 14.735c0-1.385-.455-2.579-1.961-2.579-1.411 0-2.271 1.003-2.438 2.579h4.399zm2.558 6.566c-1.47.451-2.731.645-4.189.645-3.606 0-5.828-1.791-5.828-6.018 0-3.08 1.888-5.897 5.522-5.897 3.61 0 4.877 2.507 4.877 4.895 0 .788-.048 1.218-.096 1.671h-7.267c.071 2.483 1.478 3.057 3.581 3.057 1.148 0 2.216-.262 3.4-.695v2.342z" fill="#636d75" fill-rule="nonzero"/></svg>
