<?xml version="1.0" encoding="iso-8859-1"?>
<!-- Generator: Adobe Illustrator 19.2.0, SVG Export Plug-In . SVG Version: 6.00 Build 0)  -->
<svg version="1.1" xmlns="http://www.w3.org/2000/svg" xmlns:xlink="http://www.w3.org/1999/xlink" x="0px" y="0px"
	 viewBox="0 0 24 24" style="enable-background:new 0 0 24 24;" xml:space="preserve">
<g id="amazon">
	<g>
		<path style="fill:#010101;" d="M13.582,8.182C11.934,8.367,9.78,8.49,8.238,9.166c-1.781,0.769-3.03,2.337-3.03,4.644
			c0,2.953,1.86,4.429,4.253,4.429c2.02,0,3.125-0.477,4.685-2.065c0.516,0.747,0.685,1.109,1.629,1.894
			c0.212,0.114,0.483,0.103,0.672-0.066l0.006,0.006c0.567-0.505,1.599-1.401,2.18-1.888c0.231-0.188,0.19-0.496,0.009-0.754
			c-0.52-0.718-1.072-1.303-1.072-2.634V8.305c0-1.876,0.133-3.599-1.249-4.891C15.23,2.369,13.422,2,12.04,2
			C9.336,2,6.318,3.01,5.686,6.351C5.618,6.706,5.877,6.893,6.109,6.945l2.754,0.298C9.121,7.23,9.308,6.977,9.357,6.72
			c0.236-1.151,1.2-1.706,2.284-1.706c0.584,0,1.249,0.215,1.595,0.738c0.398,0.584,0.346,1.384,0.346,2.061V8.182z M13.049,14.088
			c-0.451,0.8-1.169,1.291-1.967,1.291c-1.09,0-1.728-0.83-1.728-2.061c0-2.42,2.171-2.86,4.227-2.86v0.615
			C13.582,12.181,13.608,13.104,13.049,14.088z"/>
		<path style="fill:#010101;" d="M20.341,18.789c-2.639,1.119-5.506,1.66-8.115,1.66c-3.868,0-7.611-1.061-10.639-2.823
			c-0.265-0.154-0.461,0.118-0.241,0.317C4.152,20.478,7.861,22,11.979,22c2.938,0,6.35-0.924,8.704-2.661
			C21.072,19.051,20.739,18.62,20.341,18.789z"/>
		<path style="fill:#010101;" d="M22.666,17.454c-0.256-0.317-2.464-0.59-3.811,0.356c-0.207,0.146-0.171,0.347,0.059,0.319
			c0.759-0.091,2.448-0.294,2.749,0.092c0.301,0.386-0.335,1.974-0.619,2.684c-0.086,0.215,0.099,0.302,0.293,0.139
			C22.599,19.986,22.925,17.773,22.666,17.454z"/>
	</g>
</g>
<g id="Layer_1">
</g>
</svg>
