<?xml version="1.0" encoding="iso-8859-1"?>
<!-- Generator: Adobe Illustrator 19.2.0, SVG Export Plug-In . SVG Version: 6.00 Build 0)  -->
<svg version="1.1" xmlns="http://www.w3.org/2000/svg" xmlns:xlink="http://www.w3.org/1999/xlink" x="0px" y="0px"
	 viewBox="0 0 24 24" style="enable-background:new 0 0 24 24;" xml:space="preserve">
<g id="digg">
	<path d="M22,11c0-1.105-0.895-2-2-2h-8c0,0,1.316-2.017,1-5c-0.281-2.656-1.125-4-3-4S8.375,3.344,8,5s-2,6-4,6H2v10.5c0,0,1,0,2,0
		c2,0,2.5,2.5,6,2.5c0.106,0,0.487,0,1,0c1.046,0,2.689,0,4,0h2c1.105,0,2-0.895,2-2s-0.895-2-2-2h1c1.105,0,2-0.895,2-2
		s-0.895-2-2-2h1c1.105,0,2-0.895,2-2c0-0.415-0.126-0.8-0.343-1.12C21.437,12.608,22,11.873,22,11z"/>
</g>
<g id="Layer_1">
</g>
</svg>
