<?xml version="1.0" encoding="iso-8859-1"?>
<!-- Generator: Adobe Illustrator 19.2.0, SVG Export Plug-In . SVG Version: 6.00 Build 0)  -->
<svg version="1.1" xmlns="http://www.w3.org/2000/svg" xmlns:xlink="http://www.w3.org/1999/xlink" x="0px" y="0px"
	 viewBox="0 0 24 24" style="enable-background:new 0 0 24 24;" xml:space="preserve">
<g id="dribbble">
	<path d="M12,20.75c-2.031,0-3.906-0.625-5.312-1.875c1.406-2.656,4.062-4.688,6.875-5.625c1.406,3.125,1.875,5.312,2.031,6.719
		C14.5,20.438,13.25,20.75,12,20.75z M17,19.188c-0.625-3.281-1.719-5.938-1.875-6.25c2.031-0.312,3.75-0.312,5.625,0
		C20.438,15.438,19.031,17.781,17,19.188z M3.25,11.375c3.281,0.312,5.469,0,9.062-1.094c0.312,0.625,0.625,1.25,0.781,1.719
		c-2.812,0.938-5.938,2.969-7.656,5.781C4.031,16.219,3.25,14.188,3.25,12C3.25,11.844,3.25,11.688,3.25,11.375z M19.188,7
		c0.938,1.25,1.406,2.812,1.562,4.531c-1.406-0.312-4.062-0.469-6.094,0c-0.312-0.625-0.469-1.094-0.938-1.719
		C15.594,8.875,17.625,8.25,19.188,7z M8.562,3.875c1.25,1.719,2.188,3.281,3.125,5.156c-1.406,0.469-5.312,1.25-8.125,0.938
		C4.188,7.156,6.062,4.969,8.562,3.875z M12,3.25c2.5,0,4.688,1.094,6.25,2.656c-1.406,1.25-3.906,2.031-5.156,2.5
		c-1.094-1.875-1.719-2.969-2.969-5C10.75,3.406,11.375,3.25,12,3.25z M12,2C6.531,2,2,6.531,2,12s4.531,10,10,10s10-4.531,10-10
		S17.469,2,12,2z"/>
</g>
<g id="Layer_1">
</g>
</svg>
