<?xml version="1.0" encoding="iso-8859-1"?>
<!-- Generator: Adobe Illustrator 19.2.1, SVG Export Plug-In . SVG Version: 6.00 Build 0)  -->
<svg version="1.1" xmlns="http://www.w3.org/2000/svg" xmlns:xlink="http://www.w3.org/1999/xlink" x="0px" y="0px"
	 viewBox="0 0 24 24" style="enable-background:new 0 0 24 24;" xml:space="preserve">
<g id="google-plus-alt">
	<path d="M8,11h6.61c0.06,0.35,0.11,0.7,0.11,1.16c0,4-2.68,6.84-6.72,6.84c-3.87,0-7-3.13-7-7s3.13-7,7-7
		c1.89,0,3.47,0.69,4.69,1.83l-1.9,1.83C10.27,8.16,9.36,7.58,8,7.58c-2.39,0-4.34,1.98-4.34,4.42S5.61,16.42,8,16.42
		c2.77,0,3.81-1.99,3.97-3.02H8V11L8,11z M23,11h-2V9h-2v2h-2v2h2v2h2v-2h2"/>
</g>
<g id="Layer_1">
</g>
</svg>
