<?xml version="1.0" encoding="iso-8859-1"?>
<!-- Generator: Adobe Illustrator 19.2.1, SVG Export Plug-In . SVG Version: 6.00 Build 0)  -->
<svg version="1.1" xmlns="http://www.w3.org/2000/svg" xmlns:xlink="http://www.w3.org/1999/xlink" x="0px" y="0px"
	 viewBox="0 0 24 24" style="enable-background:new 0 0 24 24;" xml:space="preserve">
<g id="instagram">
	<path style="fill-rule:evenodd;clip-rule:evenodd;" d="M18.924,10.615h-1.567c0.114,0.443,0.182,0.906,0.182,1.385
		c0,3.059-2.479,5.539-5.538,5.539c-3.059,0-5.538-2.479-5.538-5.539c0-0.479,0.068-0.942,0.182-1.385H5.076v7.616
		c0,0.382,0.31,0.692,0.693,0.692H18.23c0.383,0,0.693-0.31,0.693-0.692V10.615z M18.924,5.769c0-0.382-0.31-0.692-0.693-0.692
		h-2.076c-0.382,0-0.692,0.31-0.692,0.692v2.077c0,0.382,0.31,0.692,0.692,0.692h2.076c0.383,0,0.693-0.31,0.693-0.692V5.769z
		 M12,8.538c-1.912,0-3.462,1.549-3.462,3.461c0,1.912,1.55,3.462,3.462,3.462s3.462-1.55,3.462-3.462
		C15.462,10.088,13.912,8.538,12,8.538 M18.924,21H5.076C3.93,21,3,20.07,3,18.922V5.077C3,3.93,3.93,3,5.076,3h13.847
		C20.07,3,21,3.93,21,5.077v13.846C21,20.07,20.07,21,18.924,21"/>
</g>
<g id="Layer_1">
</g>
</svg>
