<?xml version="1.0" encoding="iso-8859-1"?>
<!-- Generator: Adobe Illustrator 19.1.0, SVG Export Plug-In . SVG Version: 6.00 Build 0)  -->
<svg version="1.1" xmlns="http://www.w3.org/2000/svg" xmlns:xlink="http://www.w3.org/1999/xlink" x="0px" y="0px"
	 viewBox="0 0 24 24" style="enable-background:new 0 0 24 24;" xml:space="preserve">
<g id="blogger">
	<rect style="fill:none;" width="24" height="24"/>
	<g>
		<path d="M21,19c0,1.105-0.895,2-2,2H5c-1.105,0-2-0.895-2-2V5c0-1.105,0.895-2,2-2h14c1.105,0,2,0.895,2,2V19z"/>
		<path style="fill:#FFFFFF;" d="M16.824,10.67h-0.607l-0.013,0.001c-0.38,0-0.692-0.295-0.718-0.668l-0.001-0.008
			c0-1.988-1.611-3.599-3.599-3.599h-1.816c-1.988,0-3.599,1.611-3.599,3.599v3.947c0,1.987,1.611,3.599,3.599,3.599h3.874
			c1.988,0,3.599-1.611,3.599-3.599l0.001-2.552C17.544,10.992,17.222,10.67,16.824,10.67z M9.981,9.314h2.038
			c0.382,0,0.692,0.31,0.692,0.692c0,0.382-0.31,0.692-0.692,0.692H9.981c-0.382,0-0.692-0.31-0.692-0.692
			C9.289,9.624,9.599,9.314,9.981,9.314z M14.068,14.674H9.977c-0.361,0-0.654-0.293-0.654-0.654s0.293-0.654,0.654-0.654h4.091
			c0.361,0,0.654,0.293,0.654,0.654S14.429,14.674,14.068,14.674z"/>
	</g>
</g>
<g id="Layer_1">
</g>
</svg>
