<?xml version="1.0" encoding="iso-8859-1"?>
<!-- Generator: Adobe Illustrator 19.2.0, SVG Export Plug-In . SVG Version: 6.00 Build 0)  -->
<svg version="1.1" xmlns="http://www.w3.org/2000/svg" xmlns:xlink="http://www.w3.org/1999/xlink" x="0px" y="0px"
	 viewBox="0 0 24 24" style="enable-background:new 0 0 24 24;" xml:space="preserve">
<g id="stumbleupon">
	<path id="icon" d="M13.058,9.618l1.367,0.625l2.037-0.597V8.258C16.39,5.895,14.423,4,12,4C9.585,4,7.625,5.882,7.538,8.232v6.343
		c0,0.573-0.473,1.038-1.058,1.038s-1.058-0.467-1.058-1.038v-2.69H2c0,0,0,2.693,0,2.723C2,17.035,4.002,19,6.472,19
		c2.447,0,4.432-1.93,4.465-4.328l0.005-6.263c0-0.575,0.475-1.04,1.058-1.04s1.058,0.465,1.058,1.04V9.618z M18.578,11.885v2.813
		c0,0.577-0.473,1.042-1.058,1.042c-0.587,0-1.06-0.465-1.06-1.042V11.94l-2.035,0.597l-1.367-0.625v2.738
		c0.022,2.405,2.015,4.35,4.47,4.35C19.998,19,22,17.035,22,14.608c0-0.03,0-2.723,0-2.723H18.578z"/>
</g>
<g id="Layer_1">
</g>
</svg>
