<?xml version="1.0" encoding="iso-8859-1"?>
<!-- Generator: Adobe Illustrator 19.1.0, SVG Export Plug-In . SVG Version: 6.00 Build 0)  -->
<svg version="1.1" xmlns="http://www.w3.org/2000/svg" xmlns:xlink="http://www.w3.org/1999/xlink" x="0px" y="0px"
	 viewBox="0 0 24 24" style="enable-background:new 0 0 24 24;" xml:space="preserve">
<g id="google-plus">
	<rect style="fill:none;" width="24" height="24"/>
	<path d="M19,3H5C3.895,3,3,3.895,3,5v14c0,1.105,0.895,2,2,2h14c1.105,0,2-0.895,2-2V5C21,3.895,20.105,3,19,3z M10.081,16.05
		c-2.236,0-4.05-1.814-4.05-4.05s1.814-4.05,4.05-4.05c1.094,0,2.009,0.401,2.709,1.057l-1.15,1.118
		c-0.292-0.275-0.802-0.599-1.559-0.599c-1.341,0-2.434,1.114-2.434,2.479c0,1.365,1.094,2.479,2.434,2.479
		c1.551,0,2.122-1.073,2.227-1.709h-2.232v-0.004v-1.507h3.791c0.057,0.255,0.101,0.494,0.101,0.83
		C13.969,14.406,12.418,16.05,10.081,16.05z M19,12.75h-1.25V14h-1.5v-1.25H15v-1.5h1.25V10h1.5v1.25H19V12.75z"/>
</g>
<g id="Layer_1">
</g>
</svg>
