<?xml version="1.0" encoding="iso-8859-1"?>
<!-- Generator: Adobe Illustrator 19.2.0, SVG Export Plug-In . SVG Version: 6.00 Build 0)  -->
<svg version="1.1" xmlns="http://www.w3.org/2000/svg" xmlns:xlink="http://www.w3.org/1999/xlink" x="0px" y="0px"
	 viewBox="0 0 24 24" style="enable-background:new 0 0 24 24;" xml:space="preserve">
<g id="whatsapp">
	<path d="M12.144,2c-5.384,0-9.749,4.365-9.749,9.749c0,2.673,1.415,5.06,1.415,5.06L2.107,22l5.341-1.708
		c0,0,1.983,1.204,4.696,1.204c5.384,0,9.749-4.365,9.749-9.749C21.893,6.365,17.528,2,12.144,2z M12.144,19.938
		c-2.506,0-4.512-1.355-4.512-1.355l-3.079,1.005l0.999-2.981c0,0-1.596-2.209-1.596-4.857c0-4.523,3.666-8.189,8.189-8.189
		s8.189,3.666,8.189,8.189C20.333,16.271,16.667,19.938,12.144,19.938z M16.936,13.81c0,0-1.597-0.774-1.925-0.924
		c-0.329-0.15-0.495,0.095-0.495,0.095s-0.484,0.613-0.64,0.812c-0.156,0.2-0.245,0.378-0.651,0.244
		c-0.406-0.132-1.221-0.571-1.886-1.169c-0.666-0.596-1.175-1.385-1.32-1.625c-0.144-0.239,0.023-0.389,0.023-0.389
		s0.421-0.486,0.624-0.746c0.201-0.26,0.076-0.55,0.028-0.668c-0.049-0.117-0.696-1.639-0.79-1.854c-0.095-0.215-0.3-0.25-0.3-0.25
		s-0.631,0-0.767,0c-0.137,0-0.401,0.167-0.401,0.167C7.643,8.01,7.509,9.189,7.487,9.444c-0.024,0.254-0.046,0.794,0.37,1.704
		c0.416,0.91,1.434,2.144,2.691,3.316s3.184,1.676,3.767,1.839c0.582,0.163,1.814-0.126,2.392-0.751
		c0.579-0.625,0.445-1.274,0.434-1.491C17.131,13.844,16.936,13.81,16.936,13.81z"/>
</g>
<g id="Layer_1">
</g>
</svg>
