<?xml version="1.0" encoding="iso-8859-1"?>
<!-- Generator: Adobe Illustrator 19.2.0, SVG Export Plug-In . SVG Version: 6.00 Build 0)  -->
<svg version="1.1" xmlns="http://www.w3.org/2000/svg" xmlns:xlink="http://www.w3.org/1999/xlink" x="0px" y="0px"
	 viewBox="0 0 24 24" style="enable-background:new 0 0 24 24;" xml:space="preserve">
<g id="skype">
	<path d="M21.43,14.151c0.146-0.657,0.222-1.344,0.222-2.047c0-5.269-4.272-9.542-9.542-9.542c-0.558,0-1.103,0.052-1.629,0.141
		C9.626,2.164,8.618,1.854,7.534,1.854C4.479,1.854,2,4.332,2,7.388c0,1.02,0.278,1.979,0.76,2.796
		c-0.126,0.622-0.196,1.261-0.196,1.921c0,5.269,4.273,9.54,9.542,9.54c0.594,0,1.178-0.057,1.75-0.157
		c0.778,0.416,1.665,0.658,2.612,0.658c3.054,0,5.533-2.48,5.533-5.534C22.004,15.724,21.797,14.895,21.43,14.151z M17.006,16.664
		c-0.446,0.628-1.09,1.12-1.944,1.471c-0.833,0.348-1.838,0.523-2.979,0.523c-1.368,0-2.518-0.241-3.416-0.715
		c-0.639-0.348-1.174-0.818-1.571-1.394c-0.407-0.584-0.61-1.17-0.61-1.723c0-0.351,0.133-0.654,0.4-0.902
		c0.261-0.249,0.597-0.367,0.994-0.367c0.33,0,0.609,0.096,0.844,0.291c0.223,0.184,0.406,0.461,0.558,0.816
		c0.172,0.388,0.355,0.715,0.551,0.971c0.184,0.246,0.455,0.457,0.799,0.615c0.342,0.164,0.812,0.245,1.389,0.245
		c0.786,0,1.434-0.168,1.922-0.497c0.474-0.323,0.703-0.713,0.703-1.193c0-0.375-0.119-0.673-0.37-0.907
		c-0.257-0.242-0.602-0.43-1.019-0.558c-0.436-0.133-1.019-0.28-1.747-0.43c-0.99-0.212-1.834-0.462-2.499-0.748
		c-0.684-0.293-1.238-0.697-1.635-1.197C6.963,10.451,6.762,9.81,6.762,9.049c0-0.722,0.215-1.37,0.645-1.928
		C7.833,6.563,8.46,6.133,9.259,5.834c0.791-0.293,1.729-0.442,2.802-0.442c0.849,0,1.596,0.1,2.228,0.29
		c0.625,0.197,1.157,0.464,1.574,0.787c0.42,0.33,0.732,0.678,0.928,1.045c0.183,0.367,0.286,0.729,0.286,1.084
		c0,0.344-0.132,0.654-0.393,0.919C16.422,9.79,16.095,9.93,15.699,9.93c-0.355,0-0.629-0.088-0.815-0.254
		c-0.178-0.158-0.364-0.406-0.574-0.761c-0.241-0.449-0.525-0.812-0.855-1.057c-0.319-0.242-0.857-0.37-1.592-0.37
		c-0.684,0-1.242,0.141-1.654,0.407c-0.4,0.261-0.591,0.558-0.591,0.912c0,0.215,0.064,0.4,0.19,0.558
		c0.135,0.164,0.323,0.31,0.571,0.43c0.254,0.126,0.507,0.229,0.768,0.299c0.265,0.077,0.71,0.184,1.319,0.325
		c0.773,0.164,1.484,0.348,2.112,0.551c0.633,0.203,1.184,0.457,1.628,0.748c0.458,0.299,0.819,0.678,1.078,1.135
		c0.259,0.458,0.387,1.02,0.387,1.68C17.67,15.321,17.447,16.035,17.006,16.664z"/>
</g>
<g id="Layer_1">
</g>
</svg>
