<?xml version="1.0" encoding="iso-8859-1"?>
<!-- Generator: Adobe Illustrator 19.2.0, SVG Export Plug-In . SVG Version: 6.00 Build 0)  -->
<svg version="1.1" xmlns="http://www.w3.org/2000/svg" xmlns:xlink="http://www.w3.org/1999/xlink" x="0px" y="0px"
	 viewBox="0 0 24 24" style="enable-background:new 0 0 24 24;" xml:space="preserve">
<g id="instagram">
	<g>
		<path style="fill-rule:evenodd;clip-rule:evenodd;" d="M5.31,3H18.69C19.96,3,21,4.04,21,5.31V18.69C21,19.96,19.96,21,18.69,21
			H5.31C4.04,21,3,19.96,3,18.69V5.31C3,4.04,4.04,3,5.31,3L5.31,3z M16.112,5c-0.446,0-0.81,0.365-0.81,0.81v1.94
			c0,0.446,0.365,0.81,0.81,0.81h2.035c0.446,0,0.81-0.365,0.81-0.81V5.81c0-0.446-0.365-0.81-0.81-0.81H16.112L16.112,5z
			 M18.966,10.612h-1.584c0.15,0.49,0.231,1.008,0.231,1.544c0,2.994-2.505,5.421-5.595,5.421c-3.09,0-5.595-2.427-5.595-5.421
			c0-0.537,0.081-1.055,0.231-1.544H5v7.604c0,0.394,0.322,0.716,0.716,0.716H18.25c0.394,0,0.716-0.322,0.716-0.716V10.612
			L18.966,10.612z M12.017,8.458c-1.997,0-3.615,1.568-3.615,3.503c0,1.935,1.619,3.503,3.615,3.503
			c1.997,0,3.615-1.568,3.615-3.503C15.632,10.026,14.014,8.458,12.017,8.458z"/>
	</g>
</g>
<g id="Layer_1">
</g>
</svg>
