<?xml version="1.0" encoding="iso-8859-1"?>
<!-- Generator: Adobe Illustrator 19.1.0, SVG Export Plug-In . SVG Version: 6.00 Build 0)  -->
<svg version="1.1" xmlns="http://www.w3.org/2000/svg" xmlns:xlink="http://www.w3.org/1999/xlink" x="0px" y="0px"
	 viewBox="0 0 24 24" style="enable-background:new 0 0 24 24;" xml:space="preserve">
<g id="google-plus-alt">
	<rect style="fill:none;" width="24" height="24"/>
	<g>
		<path d="M8.268,21c4.114,0,6.36-2.256,6.36-4.471c0-1.627-0.956-2.429-2.009-3.301l-0.862-0.658
			c-0.263-0.213-0.622-0.496-0.622-1.014c0-0.519,0.359-0.85,0.67-1.156c1.005-0.777,2.009-1.603,2.009-3.346
			c0-1.792-1.09-2.657-1.64-3.105h1.418l1.549-0.947L10.154,3c-1.293,0-3.036,0.133-4.4,1.241C4.727,5.113,4.389,6.394,4.389,7.478
			c0,1.837,1.436,3.7,3.971,3.7c0.24,0,0.502-0.023,0.766-0.047c-0.119,0.282-0.24,0.519-0.24,0.919c0,0.73,0.383,1.177,0.718,1.602
			c-1.076,0.072-3.087,0.189-4.569,1.084c-1.413,0.826-1.843,2.027-1.843,2.876C3.193,19.357,4.799,21,8.268,21z M9.486,10.577
			c-2.058,0-2.991-2.617-2.991-4.195c0-0.614,0.119-1.308,0.525-1.803C7.404,4.107,8.073,3.86,8.696,3.86
			c1.985,0,3.013,2.64,3.013,4.337c0,0.424-0.048,1.118-0.598,1.662C10.728,10.236,10.083,10.577,9.486,10.577z M7.353,14.69
			c1.005-0.33,2.297-0.378,2.513-0.378c0.238,0,0.358,0,0.549,0.024c1.82,1.273,2.609,1.908,2.609,3.112
			c0,1.459-1.221,2.545-3.517,2.545c-2.559,0-4.21-1.203-4.21-2.876C5.296,15.444,6.826,14.879,7.353,14.69z"/>
		<polygon points="15.141,12.158 17.509,12.158 17.509,14.527 18.72,14.527 18.72,12.158 21.088,12.158 21.088,11.001 18.72,11.001 
			18.72,8.632 17.509,8.632 17.509,11.001 15.141,11.001 		"/>
	</g>
</g>
<g id="Layer_1">
</g>
</svg>
