<?xml version="1.0" encoding="iso-8859-1"?>
<!-- Generator: Adobe Illustrator 19.1.0, SVG Export Plug-In . SVG Version: 6.00 Build 0)  -->
<svg version="1.1" xmlns="http://www.w3.org/2000/svg" xmlns:xlink="http://www.w3.org/1999/xlink" x="0px" y="0px"
	 viewBox="0 0 24 24" style="enable-background:new 0 0 24 24;" xml:space="preserve">
<g id="google-plus">
	<rect style="fill:none;" width="24" height="24"/>
	<path d="M12.73,15.639c0,0.975-0.816,1.7-2.349,1.7c-1.709,0-2.812-0.803-2.812-1.921c0-1.118,1.022-1.495,1.374-1.621
		c0.671-0.221,1.534-0.252,1.678-0.252c0.159,0,0.239,0,0.366,0.016C12.203,14.411,12.73,14.835,12.73,15.639z M11.853,9.46
		c0-1.133-0.687-2.897-2.013-2.897c-0.416,0-0.863,0.165-1.119,0.48C8.449,7.374,8.37,7.838,8.37,8.248
		c0,1.054,0.623,2.802,1.998,2.802c0.399,0,0.83-0.228,1.086-0.48C11.821,10.207,11.853,9.743,11.853,9.46z M21,3.95v16.1
		c0,0.525-0.425,0.95-0.95,0.95H3.95C3.425,21,3,20.575,3,20.05V3.95C3,3.425,3.425,3,3.95,3h16.1C20.575,3,21,3.425,21,3.95z
		 M13.802,15.025c0-1.086-0.639-1.622-1.342-2.205l-0.576-0.44c-0.176-0.142-0.415-0.331-0.415-0.677
		c0-0.347,0.24-0.568,0.447-0.772c0.671-0.519,1.342-1.071,1.342-2.235c0-1.197-0.728-1.775-1.095-2.074h0.947l1.035-0.633
		l-3.331-0.001c-0.863,0-2.027,0.089-2.938,0.829C7.189,7.4,6.964,8.255,6.964,8.98c0,1.227,0.959,2.471,2.652,2.471
		c0.16,0,0.335-0.016,0.511-0.031c-0.08,0.189-0.16,0.346-0.16,0.614c0,0.488,0.255,0.786,0.48,1.07
		c-0.719,0.048-2.062,0.126-3.051,0.724c-0.944,0.552-1.231,1.354-1.231,1.921c0,1.165,1.072,2.263,3.39,2.263
		C12.302,18.011,13.802,16.504,13.802,15.025z M18.117,11.332h-1.582V9.751h-0.809v1.582h-1.582v0.773h1.582v1.582h0.809v-1.582
		h1.582V11.332z"/>
</g>
<g id="Layer_1">
</g>
</svg>
