<?xml version="1.0" encoding="iso-8859-1"?>
<!-- Generator: Adobe Illustrator 19.1.0, SVG Export Plug-In . SVG Version: 6.00 Build 0)  -->
<svg version="1.1" xmlns="http://www.w3.org/2000/svg" xmlns:xlink="http://www.w3.org/1999/xlink" x="0px" y="0px"
	 viewBox="0 0 24 24" style="enable-background:new 0 0 24 24;" xml:space="preserve">
<g id="wordpress">
	<rect style="fill:none;" width="24" height="24"/>
	<path d="M12,2C6.486,2,2,6.486,2,12c0,5.514,4.486,10,10,10c5.514,0,10-4.486,10-10C22,6.486,17.514,2,12,2z M3.009,12
		c0-1.304,0.28-2.541,0.779-3.659l4.289,11.751C5.077,18.634,3.009,15.558,3.009,12z M12,20.991c-0.882,0-1.734-0.129-2.54-0.366
		l2.698-7.839l2.763,7.571c0.018,0.044,0.041,0.085,0.064,0.124C14.051,20.81,13.047,20.991,12,20.991z M13.239,7.784
		c0.541-0.028,1.029-0.085,1.029-0.085c0.484-0.057,0.427-0.769-0.057-0.741c0,0-1.456,0.114-2.396,0.114
		c-0.883,0-2.368-0.114-2.368-0.114C8.962,6.93,8.905,7.67,9.389,7.699c0,0,0.459,0.057,0.943,0.085l1.401,3.838l-1.968,5.901
		L6.491,7.784C7.033,7.756,7.52,7.699,7.52,7.699C8.004,7.642,7.947,6.93,7.463,6.958c0,0-1.456,0.114-2.396,0.114
		c-0.169,0-0.368-0.004-0.579-0.011C6.096,4.621,8.859,3.009,12,3.009c2.341,0,4.472,0.895,6.071,2.361
		c-0.039-0.002-0.077-0.007-0.116-0.007c-0.883,0-1.51,0.769-1.51,1.596c0,0.741,0.428,1.368,0.883,2.109
		c0.342,0.599,0.741,1.368,0.741,2.48c0,0.769-0.296,1.662-0.684,2.906l-0.897,2.996L13.239,7.784z M19.889,7.686
		c0.702,1.281,1.101,2.75,1.101,4.313c0,3.317-1.798,6.213-4.47,7.771l2.746-7.94c0.513-1.283,0.684-2.308,0.684-3.22
		C19.95,8.28,19.928,7.973,19.889,7.686z"/>
</g>
<g id="Layer_1">
</g>
</svg>
