<?xml version="1.0" encoding="iso-8859-1"?>
<!-- Generator: Adobe Illustrator 19.2.0, SVG Export Plug-In . SVG Version: 6.00 Build 0)  -->
<svg version="1.1" xmlns="http://www.w3.org/2000/svg" xmlns:xlink="http://www.w3.org/1999/xlink" x="0px" y="0px"
	 viewBox="0 0 24 24" style="enable-background:new 0 0 24 24;" xml:space="preserve">
<g id="blogger">
	<g>
		<path d="M14.068,13.365H9.977c-0.361,0-0.654,0.293-0.654,0.654s0.293,0.654,0.654,0.654h4.091c0.361,0,0.654-0.293,0.654-0.654
			S14.429,13.365,14.068,13.365z"/>
		<path d="M9.981,10.698h2.038c0.382,0,0.692-0.31,0.692-0.692c0-0.382-0.31-0.692-0.692-0.692H9.981
			c-0.382,0-0.692,0.31-0.692,0.692C9.289,10.388,9.599,10.698,9.981,10.698z"/>
		<path d="M19,3H5C3.895,3,3,3.895,3,5v14c0,1.105,0.895,2,2,2h14c1.105,0,2-0.895,2-2V5C21,3.895,20.105,3,19,3z M17.543,13.941
			c0,1.987-1.611,3.599-3.599,3.599h-3.874c-1.988,0-3.599-1.611-3.599-3.599V9.995c0-1.988,1.611-3.599,3.599-3.599h1.816
			c1.988,0,3.599,1.611,3.599,3.599l0.001,0.008c0.026,0.374,0.338,0.668,0.718,0.668l0.013-0.001h0.607
			c0.398,0,0.72,0.322,0.72,0.72L17.543,13.941z"/>
	</g>
</g>
<g id="Layer_1">
</g>
</svg>
