<?xml version="1.0" encoding="iso-8859-1"?>
<!-- Generator: Adobe Illustrator 19.1.0, SVG Export Plug-In . SVG Version: 6.00 Build 0)  -->
<svg version="1.1" xmlns="http://www.w3.org/2000/svg" xmlns:xlink="http://www.w3.org/1999/xlink" x="0px" y="0px"
	 viewBox="0 0 24 24" style="enable-background:new 0 0 24 24;" xml:space="preserve">
<g id="pocket">
	<rect style="fill:none;" width="24" height="24"/>
	<path d="M21.927,4.827c-0.26-0.714-0.945-1.194-1.705-1.194h-0.01h-1.721H3.839c-0.747,0-1.429,0.47-1.695,1.17
		C2.066,5.01,2.026,5.226,2.026,5.446v6.035l0.069,1.2c0.29,2.73,1.707,5.115,3.899,6.778c0.039,0.03,0.079,0.059,0.119,0.089
		l0.025,0.018c1.175,0.859,2.491,1.441,3.91,1.727c0.655,0.132,1.325,0.2,1.991,0.2c0.615,0,1.232-0.057,1.839-0.17
		c0.073-0.014,0.145-0.028,0.219-0.044c0.02-0.004,0.042-0.012,0.064-0.023c1.359-0.297,2.621-0.864,3.753-1.691l0.025-0.018
		c0.04-0.029,0.08-0.058,0.119-0.089c2.192-1.664,3.609-4.049,3.898-6.778l0.069-1.2V5.446C22.026,5.238,22,5.031,21.927,4.827z
		 M17.692,11.113l-4.704,4.512c-0.266,0.254-0.608,0.382-0.949,0.382c-0.342,0-0.684-0.128-0.949-0.382l-4.705-4.512
		c-0.547-0.524-0.565-1.392-0.04-1.939c0.524-0.547,1.392-0.565,1.939-0.04l3.756,3.601l3.755-3.601
		c0.547-0.524,1.415-0.506,1.939,0.04C18.256,9.721,18.238,10.589,17.692,11.113z"/>
</g>
<g id="Layer_1">
</g>
</svg>
