<?xml version="1.0" encoding="iso-8859-1"?>
<!-- Generator: Adobe Illustrator 19.1.0, SVG Export Plug-In . SVG Version: 6.00 Build 0)  -->
<svg version="1.1" xmlns="http://www.w3.org/2000/svg" xmlns:xlink="http://www.w3.org/1999/xlink" x="0px" y="0px"
	 viewBox="0 0 24 24" style="enable-background:new 0 0 24 24;" xml:space="preserve">
<g id="tumblr">
	<rect style="fill:none;" width="24" height="24"/>
	<g>
		<path d="M19,21H5c-1.105,0-2-0.895-2-2V5c0-1.105,0.895-2,2-2h14c1.105,0,2,0.895,2,2v14C21,20.105,20.105,21,19,21z"/>
		<path style="fill:#FFFFFF;" d="M14.835,15.006c-0.209,0.099-0.608,0.186-0.906,0.194c-0.899,0.024-1.073-0.631-1.081-1.107v-3.495
			h2.254v-1.7h-2.246v-2.86c0,0-1.618,0-1.645,0c-0.027,0-0.074,0.024-0.081,0.084c-0.096,0.875-0.506,2.411-2.209,3.025v1.45h1.136
			v3.668c0,1.256,0.927,3.04,3.372,2.998c0.825-0.014,1.741-0.36,1.944-0.658L14.835,15.006z"/>
	</g>
</g>
<g id="Layer_1">
</g>
</svg>
