<?xml version="1.0" encoding="iso-8859-1"?>
<!-- Generator: Adobe Illustrator 19.1.0, SVG Export Plug-In . SVG Version: 6.00 Build 0)  -->
<svg version="1.1" xmlns="http://www.w3.org/2000/svg" xmlns:xlink="http://www.w3.org/1999/xlink" x="0px" y="0px"
	 viewBox="0 0 24 24" style="enable-background:new 0 0 24 24;" xml:space="preserve">
<g id="google-plus-alt">
	<rect style="fill:none;" width="24" height="24"/>
	<g id="Page-1" sketch:type="MSPage">
		<g>
			<path id="Shape_3_" sketch:type="MSShapeGroup" d="M8,11v2.4h3.97c-0.16,1.03-1.2,3.02-3.97,3.02c-2.39,0-4.34-1.98-4.34-4.42
				S5.61,7.58,8,7.58c1.36,0,2.27,0.58,2.79,1.08l1.9-1.83C11.47,5.69,9.89,5,8,5c-3.87,0-7,3.13-7,7s3.13,7,7,7
				c4.04,0,6.72-2.84,6.72-6.84c0-0.46-0.05-0.81-0.11-1.16H8L8,11z"/>
			<path id="Shape_2_" sketch:type="MSShapeGroup" d="M23,11h-2V9h-2v2h-2v2h2v2h2v-2h2"/>
		</g>
	</g>
</g>
<g id="Layer_1">
</g>
</svg>
