<?xml version="1.0" encoding="utf-8"?>
<!-- Generator: Adobe Illustrator 19.2.1, SVG Export Plug-In . SVG Version: 6.00 Build 0)  -->
<svg version="1.1" id="Layer_1" xmlns="http://www.w3.org/2000/svg" xmlns:xlink="http://www.w3.org/1999/xlink" x="0px" y="0px"
	 viewBox="0 0 24 24" style="enable-background:new 0 0 24 24;" xml:space="preserve">
<g>
	<path style="fill:#231F20;" d="M20.9,7.2L20.9,7.2L20.9,7.2l-5.4-2.7h-0.1h-0.1c-0.2,0-0.4,0.1-0.5,0.3l-3.1,5.1l3.9,6.4L20.9,7.2
		C21,7.2,21,7.2,20.9,7.2z"/>
	<polygon style="fill:#231F20;" points="9.9,8.6 9.9,14.4 15,16.9 	"/>
	<path style="fill:#231F20;" d="M15.8,17.3l4.2,2.1c0.6,0.3,1,0.1,1-0.4V8.8L15.8,17.3z"/>
	<path style="fill:#231F20;" d="M9,7.2L3.7,4.5c-0.1,0-0.2-0.1-0.3-0.1C3.2,4.5,3,4.6,3,4.9v11.4c0,0.3,0.2,0.7,0.5,0.8l4.7,2.3
		c0.1,0.1,0.2,0.1,0.3,0.1C8.8,19.6,9,19.4,9,19V7.2L9,7.2z"/>
</g>
</svg>
