<?xml version="1.0" encoding="iso-8859-1"?>
<!-- Generator: Adobe Illustrator 19.2.1, SVG Export Plug-In . SVG Version: 6.00 Build 0)  -->
<svg version="1.1" xmlns="http://www.w3.org/2000/svg" xmlns:xlink="http://www.w3.org/1999/xlink" x="0px" y="0px"
	 viewBox="0 0 24 24" style="enable-background:new 0 0 24 24;" xml:space="preserve">
<g id="path">
	<path d="M19,3H5C3.895,3,3,3.895,3,5v14c0,1.105,0.895,2,2,2h14c1.105,0,2-0.895,2-2V5C21,3.895,20.105,3,19,3z M14.92,14.191
		c-0.383,0.191-0.868,0.338-1.309,0.338c-0.485,0-1-0.015-1.456-0.235v1c0,1.294-0.559,2.073-1.912,2.073
		c-0.383,0-1.118-0.118-1.338-0.47v-1.589c0.206,0.235,0.529,0.397,0.853,0.397c0.353,0,0.559-0.205,0.559-0.559v-5.5h1.839v3.235
		c0.309,0.103,0.618,0.147,0.941,0.147c1.177,0,2.162-0.794,2.162-2.03c0-1.927-1.662-2.676-3.368-2.676
		c-1.589,0-3.236,0.926-3.236,2.691c0,0.544,0.118,0.985,0.5,1.383l-1.339,1.147c-0.735-0.809-0.912-1.456-0.912-2.53
		c0-2.794,2.324-4.382,4.927-4.382c2.633,0,5.265,1.353,5.265,4.294C17.096,12.397,16.228,13.574,14.92,14.191z"/>
</g>
<g id="Layer_1">
</g>
</svg>
