<?xml version="1.0" encoding="iso-8859-1"?>
<!-- Generator: Adobe Illustrator 19.2.0, SVG Export Plug-In . SVG Version: 6.00 Build 0)  -->
<svg version="1.1" id="Layer_1" xmlns="http://www.w3.org/2000/svg" xmlns:xlink="http://www.w3.org/1999/xlink" x="0px" y="0px"
	 viewBox="0 0 24 24" style="enable-background:new 0 0 24 24;" xml:space="preserve">
<path d="M7,12c0-2.757,2.243-5,5-5c1.523,0,2.945,0.685,3.902,1.879c0.344,0.431,0.973,0.501,1.405,0.155
	c0.432-0.345,0.501-0.975,0.155-1.405C16.125,5.958,14.134,5,12,5c-3.521,0-6.442,2.612-6.929,6H2v2h5V12z M17,11v1
	c0,2.757-2.243,5-5,5c-1.523,0-2.946-0.685-3.902-1.879c-0.346-0.432-0.976-0.503-1.406-0.155c-0.431,0.345-0.501,0.975-0.156,1.405
	C7.875,18.042,9.866,19,12,19c3.521,0,6.442-2.612,6.929-6H22v-2H17z M10,12c0,1.105,0.895,2,2,2s2-0.895,2-2s-0.895-2-2-2
	S10,10.895,10,12z"/>
</svg>
