<?xml version="1.0" encoding="iso-8859-1"?>
<!-- Generator: Adobe Illustrator 19.2.0, SVG Export Plug-In . SVG Version: 6.00 Build 0)  -->
<svg version="1.1" xmlns="http://www.w3.org/2000/svg" xmlns:xlink="http://www.w3.org/1999/xlink" x="0px" y="0px"
	 viewBox="0 0 24 24" style="enable-background:new 0 0 24 24;" xml:space="preserve">
<g id="spotify">
	<path d="M12,2C6.429,2,2,6.429,2,12s4.429,10,10,10s10-4.429,10-10S17.571,2,12,2z M16,16.714c-0.143,0-0.286,0-0.429-0.143
		c-1.429-0.857-3.286-1.286-5.143-1.286c-1,0-2.143,0.143-3.143,0.286c-0.143,0-0.429,0.143-0.429,0.143
		c-0.429,0-0.571-0.286-0.571-0.571c0-0.429,0.286-0.571,0.571-0.714c1.143-0.286,2.286-0.571,3.571-0.571
		c2.143,0,4.143,0.571,5.857,1.571c0.286,0.143,0.429,0.286,0.429,0.714C16.714,16.429,16.429,16.714,16,16.714z M17.143,14.143
		c-0.286,0-0.286-0.143-0.571-0.143c-1.571-1-3.857-1.571-6.286-1.571C9,12.429,7.857,12.571,7,12.857
		C6.857,12.857,6.714,13,6.571,13c-0.429-0.143-0.857-0.571-0.857-1s0.143-0.714,0.571-0.857c1.143-0.286,2.286-0.571,4-0.571
		c2.571,0,5.143,0.714,7.143,1.857c0.286,0.143,0.429,0.429,0.429,0.857C17.857,13.714,17.571,14.143,17.143,14.143z M18.429,11
		c-0.143,0-0.286,0-0.571-0.143C16,9.714,13.286,9.143,10.571,9.143c-1.429,0-2.714,0.143-4,0.429C6.429,9.571,6.286,9.714,6,9.714
		c-0.571,0-1-0.429-1-1s0.286-0.857,0.714-1c1.429-0.429,3-0.571,4.714-0.571c3,0,6,0.571,8.286,2C19,9.286,19.286,9.571,19.286,10
		C19.286,10.571,18.857,11,18.429,11z"/>
</g>
<g id="Layer_1">
</g>
</svg>
