<?xml version="1.0" encoding="utf-8"?>
<!-- Generator: Adobe Illustrator 17.1.0, SVG Export Plug-In . SVG Version: 6.00 Build 0)  -->
<!DOCTYPE svg PUBLIC "-//W3C//DTD SVG 1.1//EN" "http://www.w3.org/Graphics/SVG/1.1/DTD/svg11.dtd">
<svg version="1.1" id="Layer_1" xmlns="http://www.w3.org/2000/svg" xmlns:xlink="http://www.w3.org/1999/xlink" x="0px" y="0px"
	 viewBox="0 0 24 24" enable-background="new 0 0 24 24" xml:space="preserve">
<path fill="#010101" d="M19,3H5C3.9,3,3,3.9,3,5v14c0,1.1,0.9,2,2,2h14c1.1,0,2-0.9,2-2V5C21,3.9,20.1,3,19,3z M16.5,9.7
	c0,0.1,0,0.2,0,0.3c0,3-2.3,6.6-6.6,6.6c-1.3,0-2.5-0.4-3.5-1c0.2,0,0.4,0,0.5,0c1.1,0,2.1-0.4,2.9-1c-1,0-1.9-0.7-2.2-1.6
	c0.1,0,0.3,0,0.4,0c0.2,0,0.4,0,0.6-0.1c-1.1-0.2-1.8-1.1-1.8-2.3c0,0,0,0,0,0c0.3,0.2,0.7,0.3,1,0.3c-0.6-0.4-1-1.1-1-1.9
	c0-0.4,0.1-0.8,0.3-1.2c1.1,1.4,2.8,2.3,4.7,2.4c0-0.2-0.1-0.3-0.1-0.5c0-1.3,1-2.3,2.3-2.3c0.7,0,1.3,0.3,1.7,0.7
	c0.5-0.1,1-0.3,1.5-0.6c-0.2,0.5-0.5,1-1,1.3c0.5-0.1,0.9-0.2,1.3-0.4C17.3,9,16.9,9.4,16.5,9.7z"/>
</svg>
