<?xml version="1.0" encoding="iso-8859-1"?>
<!-- Generator: Adobe Illustrator 19.2.0, SVG Export Plug-In . SVG Version: 6.00 Build 0)  -->
<svg version="1.1" xmlns="http://www.w3.org/2000/svg" xmlns:xlink="http://www.w3.org/1999/xlink" x="0px" y="0px"
	 viewBox="0 0 24 24" style="enable-background:new 0 0 24 24;" xml:space="preserve">
<g id="vimeo">
	<g id="Shape_1">
		<g>
			<path d="M19.438,3.004c-2.908-0.093-4.882,1.533-5.914,4.883c0.532-0.225,1.051-0.342,1.555-0.342
				c1.068,0,1.537,0.595,1.413,1.783c-0.063,0.718-0.534,1.767-1.413,3.142c-0.882,1.375-1.542,2.064-1.981,2.064
				c-0.565,0-1.084-1.059-1.555-3.18c-0.159-0.622-0.441-2.212-0.849-4.769c-0.378-2.368-1.383-3.477-3.018-3.321
				C6.985,3.328,5.947,3.95,4.566,5.134C3.559,6.036,2.538,6.939,1.501,7.842L2.49,9.104C3.43,8.45,3.981,8.124,4.138,8.124
				c0.72,0,1.395,1.12,2.023,3.358c0.564,2.053,1.129,4.105,1.695,6.158C8.701,19.88,9.737,21,10.961,21
				c1.975,0,4.391-1.84,7.246-5.516c2.761-3.522,4.189-6.293,4.282-8.319C22.613,4.454,21.596,3.067,19.438,3.004z"/>
		</g>
	</g>
</g>
<g id="Layer_1">
</g>
</svg>
