<svg xmlns="http://www.w3.org/2000/svg" version="1.1" x="0" y="0" viewBox="0 0 262 310.9" enable-background="new 0 0 262 310.9" xml:space="preserve"><path fill="#71B144" d="M131 0L0 38.1v122.7c0 29.3 7.7 58.1 23.4 82.8 25.3 39.8 62.9 58.9 106.9 67.3 44-8.4 82.2-27.5 107.5-67.3 15.7-24.7 24.2-53.6 24.2-82.8V38.1L131 0zM130.2 230.7c-42.4 0-76.9-34.4-76.9-76.9 0-42.4 34.4-76.9 76.9-76.9 42.4 0 76.9 34.4 76.9 76.9C207 196.3 172.6 230.7 130.2 230.7z"/><path fill="#71B144" d="M126.6 171.8l-24.1-6.1c-6.1-1.6-9.1-8.5-5.9-14l30-52.1V171.8z"/><path fill="#71B144" d="M133.8 135.9l24.1 6.1c6.1 1.6 9.1 8.5 5.9 14l-30 52.1V135.9z"/></svg>