<svg xmlns="http://www.w3.org/2000/svg" xmlns:xlink="http://www.w3.org/1999/xlink" version="1.1" id="Layer_1" x="0" y="0" viewBox="0 0 1125.1 53" enable-background="new 0 0 1125.1 53" xml:space="preserve">
  <defs>
    <path id="SVGID_1_" d="M0 53h1125.1l0-25.6 -0.6 0c-11.5 0.1-22.3 2.4-31.7 6.4 -11.5-15.1-33.3-25.4-58.2-25.4 -18.4 0-35 5.5-47.1 14.5 -6.5-3-14.1-4.7-22.2-4.7 -17.2 0-31.9 7.6-38.7 18.6 -4.3-1.1-8.9-1.7-13.7-1.7 -13.8 0-26 4.9-33.8 12.5 -7.1-3.9-15.8-6.2-25.2-6.2 -7.9 0-15.3 1.6-21.7 4.4 -12-13.7-32.6-22.7-56-22.7 -6.4 0-12.6 0.7-18.5 1.9 -12.3-10.2-30-16.7-49.8-16.7 -24.4 0-45.8 9.8-57.5 24.5 -9.1-3.5-19.5-5.5-30.5-5.5 -17.2 0-32.8 4.8-44.6 12.8 -8.9-3.2-18.8-5.1-29.3-5.1 -7.5 0-14.7 0.9-21.5 2.6 -10.6-17.3-33.9-29.4-60.9-29.4 -7.4 0-14.5 0.9-21.2 2.6C434.5 4.3 423 0 410.2 0c-12.8 0-24.4 4.3-32.2 11 -6.7-1.7-13.8-2.6-21.2-2.6 -18.8 0-35.7 5.8-47.9 15.1 -2.7-0.3-5.5-0.4-8.3-0.4 -22.9 0-43.2 8.7-55.2 21.9 -12.1-13.2-32.3-21.9-55.2-21.9 -2.1 0-4.1 0.1-6.1 0.2C172.1 9.3 151.2 0 127.4 0c-16.9 0-32.3 4.7-44 12.4 -6.1-2.5-13.1-4-20.6-4 -18.6 0-34.4 8.9-40.2 21.4C16 28.3 9.1 27.4 1.9 27.4H1.4L0 53z"/>
  </defs>
  <use xlink:href="#SVGID_1_" overflow="visible" fill-rule="evenodd" clip-rule="evenodd" fill="#F4F4F4"/>
  <clipPath id="SVGID_2_">
    <use xlink:href="#SVGID_1_" overflow="visible"/>
  </clipPath>
  <rect x="-5" y="-5" clip-path="url(#SVGID_2_)" fill="#F4F4F4" width="1135.1" height="63"/>
</svg>
