<svg xmlns="http://www.w3.org/2000/svg" xmlns:xlink="http://www.w3.org/1999/xlink" version="1.1" id="Layer_1" x="0" y="0" viewBox="0 0 136 94.5" enable-background="new 0 0 136 94.5" xml:space="preserve">
  <defs>
    <path id="SVGID_1_" d="M32.5 5c0-2.8 2.2-5 5-5 2.8 0 5 2.2 5 5 0 2.8-2.2 5-5 5C34.7 10 32.5 7.8 32.5 5"/>
  </defs>
  <use xlink:href="#SVGID_1_" overflow="visible" fill-rule="evenodd" clip-rule="evenodd" fill="#F4F4F4"/>
  <clipPath id="SVGID_2_">
    <use xlink:href="#SVGID_1_" overflow="visible"/>
  </clipPath>
  <g clip-path="url(#SVGID_2_)">
    <defs>
      <rect id="SVGID_3_" x="-288.7" y="-626.3" width="1200" height="3706"/>
    </defs>
    <use xlink:href="#SVGID_3_" overflow="visible" fill="#F4F4F4"/>
    <clipPath id="SVGID_4_">
      <use xlink:href="#SVGID_3_" overflow="visible"/>
    </clipPath>
    <rect x="27.5" y="-5" clip-path="url(#SVGID_4_)" fill="#F4F4F4" width="20" height="20"/>
  </g>
  <defs>
    <polyline id="SVGID_5_" points="6 91.9 12 94.5 9.4 88.5 12 82.5 6 85.1 0 82.5 2.6 88.5 0 94.5 6 91.9 "/>
  </defs>
  <use xlink:href="#SVGID_5_" overflow="visible" fill-rule="evenodd" clip-rule="evenodd" fill="#F4F4F4"/>
  <clipPath id="SVGID_6_">
    <use xlink:href="#SVGID_5_" overflow="visible"/>
  </clipPath>
  <g clip-path="url(#SVGID_6_)">
    <defs>
      <rect id="SVGID_7_" x="-288.7" y="-626.3" width="1200" height="3706"/>
    </defs>
    <use xlink:href="#SVGID_7_" overflow="visible" fill="#F4F4F4"/>
    <clipPath id="SVGID_8_">
      <use xlink:href="#SVGID_7_" overflow="visible"/>
    </clipPath>
    <rect x="-5" y="77.5" clip-path="url(#SVGID_8_)" fill="#F4F4F4" width="22" height="22"/>
  </g>
  <defs>
    <polyline id="SVGID_9_" points="127.2 35.7 136 32.2 127.2 28.7 123.6 19.8 120.1 28.7 111.3 32.2 120.1 35.7 123.6 44.6 127.2 35.7 "/>
  </defs>
  <use xlink:href="#SVGID_9_" overflow="visible" fill-rule="evenodd" clip-rule="evenodd" fill="#F4F4F4"/>
  <clipPath id="SVGID_10_">
    <use xlink:href="#SVGID_9_" overflow="visible"/>
  </clipPath>
  <g clip-path="url(#SVGID_10_)">
    <defs>
      <rect id="SVGID_11_" x="-288.7" y="-626.3" width="1200" height="3706"/>
    </defs>
    <use xlink:href="#SVGID_11_" overflow="visible" fill="#F4F4F4"/>
    <clipPath id="SVGID_12_">
      <use xlink:href="#SVGID_11_" overflow="visible"/>
    </clipPath>
    <rect x="106.3" y="14.8" clip-path="url(#SVGID_12_)" fill="#F4F4F4" width="34.8" height="34.8"/>
  </g>
  <defs>
    <path id="SVGID_13_" d="M684.3 72.7c0-2.8 2.2-5 5-5s5 2.2 5 5c0 2.8-2.2 5-5 5S684.3 75.4 684.3 72.7"/>
  </defs>
  <use xlink:href="#SVGID_13_" overflow="visible" fill-rule="evenodd" clip-rule="evenodd" fill="#F4F4F4"/>
  <clipPath id="SVGID_14_">
    <use xlink:href="#SVGID_13_" overflow="visible"/>
  </clipPath>
  <g clip-path="url(#SVGID_14_)">
    <defs>
      <rect id="SVGID_15_" x="-288.7" y="-626.3" width="1200" height="3706"/>
    </defs>
    <use xlink:href="#SVGID_15_" overflow="visible" fill="#F4F4F4"/>
    <clipPath id="SVGID_16_">
      <use xlink:href="#SVGID_15_" overflow="visible"/>
    </clipPath>
    <rect x="679.3" y="62.7" clip-path="url(#SVGID_16_)" fill="#F4F4F4" width="20" height="20"/>
  </g>
  <defs>
    <polyline id="SVGID_17_" points="785.7 17.4 794.5 13.8 785.7 10.3 782.1 1.5 778.6 10.3 769.8 13.8 778.6 17.4 782.1 26.2 785.7 17.4 "/>
  </defs>
  <use xlink:href="#SVGID_17_" overflow="visible" fill-rule="evenodd" clip-rule="evenodd" fill="#F4F4F4"/>
  <clipPath id="SVGID_18_">
    <use xlink:href="#SVGID_17_" overflow="visible"/>
  </clipPath>
  <g clip-path="url(#SVGID_18_)">
    <defs>
      <rect id="SVGID_19_" x="-288.7" y="-626.3" width="1200" height="3706"/>
    </defs>
    <use xlink:href="#SVGID_19_" overflow="visible" fill="#F4F4F4"/>
    <clipPath id="SVGID_20_">
      <use xlink:href="#SVGID_19_" overflow="visible"/>
    </clipPath>
    <rect x="764.8" y="-3.5" clip-path="url(#SVGID_20_)" fill="#F4F4F4" width="34.8" height="34.8"/>
  </g>
  <defs>
    <path id="SVGID_21_" d="M32.5 5c0-2.8 2.2-5 5-5 2.8 0 5 2.2 5 5 0 2.8-2.2 5-5 5C34.7 10 32.5 7.8 32.5 5"/>
  </defs>
  <use xlink:href="#SVGID_21_" overflow="visible" fill-rule="evenodd" clip-rule="evenodd" fill="#F4F4F4"/>
  <clipPath id="SVGID_22_">
    <use xlink:href="#SVGID_21_" overflow="visible"/>
  </clipPath>
  <g clip-path="url(#SVGID_22_)">
    <defs>
      <rect id="SVGID_23_" x="-288.7" y="-626.3" width="1200" height="3706"/>
    </defs>
    <use xlink:href="#SVGID_23_" overflow="visible" fill="#F4F4F4"/>
    <clipPath id="SVGID_24_">
      <use xlink:href="#SVGID_23_" overflow="visible"/>
    </clipPath>
    <rect x="27.5" y="-5" clip-path="url(#SVGID_24_)" fill="#F4F4F4" width="20" height="20"/>
  </g>
  <defs>
    <polyline id="SVGID_25_" points="6 91.9 12 94.5 9.4 88.5 12 82.5 6 85.1 0 82.5 2.6 88.5 0 94.5 6 91.9 "/>
  </defs>
  <use xlink:href="#SVGID_25_" overflow="visible" fill-rule="evenodd" clip-rule="evenodd" fill="#F4F4F4"/>
  <clipPath id="SVGID_26_">
    <use xlink:href="#SVGID_25_" overflow="visible"/>
  </clipPath>
  <g clip-path="url(#SVGID_26_)">
    <defs>
      <rect id="SVGID_27_" x="-288.7" y="-626.3" width="1200" height="3706"/>
    </defs>
    <use xlink:href="#SVGID_27_" overflow="visible" fill="#F4F4F4"/>
    <clipPath id="SVGID_28_">
      <use xlink:href="#SVGID_27_" overflow="visible"/>
    </clipPath>
    <rect x="-5" y="77.5" clip-path="url(#SVGID_28_)" fill="#F4F4F4" width="22" height="22"/>
  </g>
  <defs>
    <polyline id="SVGID_29_" points="127.2 35.7 136 32.2 127.2 28.7 123.6 19.8 120.1 28.7 111.3 32.2 120.1 35.7 123.6 44.6 127.2 35.7 "/>
  </defs>
  <use xlink:href="#SVGID_29_" overflow="visible" fill-rule="evenodd" clip-rule="evenodd" fill="#F4F4F4"/>
  <clipPath id="SVGID_30_">
    <use xlink:href="#SVGID_29_" overflow="visible"/>
  </clipPath>
  <g clip-path="url(#SVGID_30_)">
    <defs>
      <rect id="SVGID_31_" x="-288.7" y="-626.3" width="1200" height="3706"/>
    </defs>
    <use xlink:href="#SVGID_31_" overflow="visible" fill="#F4F4F4"/>
    <clipPath id="SVGID_32_">
      <use xlink:href="#SVGID_31_" overflow="visible"/>
    </clipPath>
    <rect x="106.3" y="14.8" clip-path="url(#SVGID_32_)" fill="#F4F4F4" width="34.8" height="34.8"/>
  </g>
  <defs>
    <path id="SVGID_33_" d="M684.3 72.7c0-2.8 2.2-5 5-5s5 2.2 5 5c0 2.8-2.2 5-5 5S684.3 75.4 684.3 72.7"/>
  </defs>
  <use xlink:href="#SVGID_33_" overflow="visible" fill-rule="evenodd" clip-rule="evenodd" fill="#F4F4F4"/>
  <clipPath id="SVGID_34_">
    <use xlink:href="#SVGID_33_" overflow="visible"/>
  </clipPath>
  <g clip-path="url(#SVGID_34_)">
    <defs>
      <rect id="SVGID_35_" x="-288.7" y="-626.3" width="1200" height="3706"/>
    </defs>
    <use xlink:href="#SVGID_35_" overflow="visible" fill="#F4F4F4"/>
    <clipPath id="SVGID_36_">
      <use xlink:href="#SVGID_35_" overflow="visible"/>
    </clipPath>
    <rect x="679.3" y="62.7" clip-path="url(#SVGID_36_)" fill="#F4F4F4" width="20" height="20"/>
  </g>
  <defs>
    <polyline id="SVGID_37_" points="785.7 17.4 794.5 13.8 785.7 10.3 782.1 1.5 778.6 10.3 769.8 13.8 778.6 17.4 782.1 26.2 785.7 17.4 "/>
  </defs>
  <use xlink:href="#SVGID_37_" overflow="visible" fill-rule="evenodd" clip-rule="evenodd" fill="#F4F4F4"/>
  <clipPath id="SVGID_38_">
    <use xlink:href="#SVGID_37_" overflow="visible"/>
  </clipPath>
  <g clip-path="url(#SVGID_38_)">
    <defs>
      <rect id="SVGID_39_" x="-288.7" y="-626.3" width="1200" height="3706"/>
    </defs>
    <use xlink:href="#SVGID_39_" overflow="visible" fill="#F4F4F4"/>
    <clipPath id="SVGID_40_">
      <use xlink:href="#SVGID_39_" overflow="visible"/>
    </clipPath>
    <rect x="764.8" y="-3.5" clip-path="url(#SVGID_40_)" fill="#F4F4F4" width="34.8" height="34.8"/>
  </g>
</svg>
