<svg xmlns="http://www.w3.org/2000/svg" xmlns:xlink="http://www.w3.org/1999/xlink" version="1.1" id="Layer_1" x="0" y="0" viewBox="0 0 110.2 76.2" enable-background="new 0 0 110.2 76.2" xml:space="preserve">
  <defs>
    <path id="SVGID_1_" d="M-651.8 3.5c0-2.8 2.2-5 5-5 2.8 0 5 2.2 5 5 0 2.8-2.2 5-5 5C-649.6 8.5-651.8 6.3-651.8 3.5"/>
  </defs>
  <use xlink:href="#SVGID_1_" overflow="visible" fill-rule="evenodd" clip-rule="evenodd" fill="#F4F4F4"/>
  <clipPath id="SVGID_2_">
    <use xlink:href="#SVGID_1_" overflow="visible"/>
  </clipPath>
  <g clip-path="url(#SVGID_2_)">
    <defs>
      <rect id="SVGID_3_" x="-973" y="-627.8" width="1200" height="3706"/>
    </defs>
    <use xlink:href="#SVGID_3_" overflow="visible" fill="#F4F4F4"/>
    <clipPath id="SVGID_4_">
      <use xlink:href="#SVGID_3_" overflow="visible"/>
    </clipPath>
    <rect x="-656.8" y="-6.5" clip-path="url(#SVGID_4_)" fill="#F4F4F4" width="20" height="20"/>
  </g>
  <defs>
    <polyline id="SVGID_5_" points="-678.3 90.5 -672.3 93 -674.9 87.1 -672.3 81.1 -678.3 83.6 -684.3 81.1 -681.7 87.1 -684.3 93 -678.3 90.5 "/>
  </defs>
  <use xlink:href="#SVGID_5_" overflow="visible" fill-rule="evenodd" clip-rule="evenodd" fill="#F4F4F4"/>
  <clipPath id="SVGID_6_">
    <use xlink:href="#SVGID_5_" overflow="visible"/>
  </clipPath>
  <g clip-path="url(#SVGID_6_)">
    <defs>
      <rect id="SVGID_7_" x="-973" y="-627.8" width="1200" height="3706"/>
    </defs>
    <use xlink:href="#SVGID_7_" overflow="visible" fill="#F4F4F4"/>
    <clipPath id="SVGID_8_">
      <use xlink:href="#SVGID_7_" overflow="visible"/>
    </clipPath>
    <rect x="-689.3" y="76.1" clip-path="url(#SVGID_8_)" fill="#F4F4F4" width="22" height="22"/>
  </g>
  <defs>
    <polyline id="SVGID_9_" points="-557.1 34.3 -548.3 30.8 -557.1 27.2 -560.6 18.4 -564.2 27.2 -573 30.8 -564.2 34.3 -560.6 43.1 -557.1 34.3 "/>
  </defs>
  <use xlink:href="#SVGID_9_" overflow="visible" fill-rule="evenodd" clip-rule="evenodd" fill="#F4F4F4"/>
  <clipPath id="SVGID_10_">
    <use xlink:href="#SVGID_9_" overflow="visible"/>
  </clipPath>
  <g clip-path="url(#SVGID_10_)">
    <defs>
      <rect id="SVGID_11_" x="-973" y="-627.8" width="1200" height="3706"/>
    </defs>
    <use xlink:href="#SVGID_11_" overflow="visible" fill="#F4F4F4"/>
    <clipPath id="SVGID_12_">
      <use xlink:href="#SVGID_11_" overflow="visible"/>
    </clipPath>
    <rect x="-578" y="13.4" clip-path="url(#SVGID_12_)" fill="#F4F4F4" width="34.8" height="34.8"/>
  </g>
  <defs>
    <path id="SVGID_13_" d="M0 71.2c0-2.8 2.2-5 5-5s5 2.2 5 5c0 2.8-2.2 5-5 5S0 74 0 71.2"/>
  </defs>
  <use xlink:href="#SVGID_13_" overflow="visible" fill-rule="evenodd" clip-rule="evenodd" fill="#F4F4F4"/>
  <clipPath id="SVGID_14_">
    <use xlink:href="#SVGID_13_" overflow="visible"/>
  </clipPath>
  <g clip-path="url(#SVGID_14_)">
    <defs>
      <rect id="SVGID_15_" x="-973" y="-627.8" width="1200" height="3706"/>
    </defs>
    <use xlink:href="#SVGID_15_" overflow="visible" fill="#F4F4F4"/>
    <clipPath id="SVGID_16_">
      <use xlink:href="#SVGID_15_" overflow="visible"/>
    </clipPath>
    <rect x="-5" y="61.2" clip-path="url(#SVGID_16_)" fill="#F4F4F4" width="20" height="20"/>
  </g>
  <defs>
    <polyline id="SVGID_17_" points="101.4 15.9 110.2 12.4 101.4 8.9 97.9 0 94.3 8.9 85.5 12.4 94.3 15.9 97.9 24.8 101.4 15.9 "/>
  </defs>
  <use xlink:href="#SVGID_17_" overflow="visible" fill-rule="evenodd" clip-rule="evenodd" fill="#F4F4F4"/>
  <clipPath id="SVGID_18_">
    <use xlink:href="#SVGID_17_" overflow="visible"/>
  </clipPath>
  <g clip-path="url(#SVGID_18_)">
    <defs>
      <rect id="SVGID_19_" x="-973" y="-627.8" width="1200" height="3706"/>
    </defs>
    <use xlink:href="#SVGID_19_" overflow="visible" fill="#F4F4F4"/>
    <clipPath id="SVGID_20_">
      <use xlink:href="#SVGID_19_" overflow="visible"/>
    </clipPath>
    <rect x="80.5" y="-5" clip-path="url(#SVGID_20_)" fill="#F4F4F4" width="34.8" height="34.8"/>
  </g>
  <defs>
    <path id="SVGID_21_" d="M-651.8 3.5c0-2.8 2.2-5 5-5 2.8 0 5 2.2 5 5 0 2.8-2.2 5-5 5C-649.6 8.5-651.8 6.3-651.8 3.5"/>
  </defs>
  <use xlink:href="#SVGID_21_" overflow="visible" fill-rule="evenodd" clip-rule="evenodd" fill="#F4F4F4"/>
  <clipPath id="SVGID_22_">
    <use xlink:href="#SVGID_21_" overflow="visible"/>
  </clipPath>
  <g clip-path="url(#SVGID_22_)">
    <defs>
      <rect id="SVGID_23_" x="-973" y="-627.8" width="1200" height="3706"/>
    </defs>
    <use xlink:href="#SVGID_23_" overflow="visible" fill="#F4F4F4"/>
    <clipPath id="SVGID_24_">
      <use xlink:href="#SVGID_23_" overflow="visible"/>
    </clipPath>
    <rect x="-656.8" y="-6.5" clip-path="url(#SVGID_24_)" fill="#F4F4F4" width="20" height="20"/>
  </g>
  <defs>
    <polyline id="SVGID_25_" points="-678.3 90.5 -672.3 93 -674.9 87.1 -672.3 81.1 -678.3 83.6 -684.3 81.1 -681.7 87.1 -684.3 93 -678.3 90.5 "/>
  </defs>
  <use xlink:href="#SVGID_25_" overflow="visible" fill-rule="evenodd" clip-rule="evenodd" fill="#F4F4F4"/>
  <clipPath id="SVGID_26_">
    <use xlink:href="#SVGID_25_" overflow="visible"/>
  </clipPath>
  <g clip-path="url(#SVGID_26_)">
    <defs>
      <rect id="SVGID_27_" x="-973" y="-627.8" width="1200" height="3706"/>
    </defs>
    <use xlink:href="#SVGID_27_" overflow="visible" fill="#F4F4F4"/>
    <clipPath id="SVGID_28_">
      <use xlink:href="#SVGID_27_" overflow="visible"/>
    </clipPath>
    <rect x="-689.3" y="76.1" clip-path="url(#SVGID_28_)" fill="#F4F4F4" width="22" height="22"/>
  </g>
  <defs>
    <polyline id="SVGID_29_" points="-557.1 34.3 -548.3 30.8 -557.1 27.2 -560.6 18.4 -564.2 27.2 -573 30.8 -564.2 34.3 -560.6 43.1 -557.1 34.3 "/>
  </defs>
  <use xlink:href="#SVGID_29_" overflow="visible" fill-rule="evenodd" clip-rule="evenodd" fill="#F4F4F4"/>
  <clipPath id="SVGID_30_">
    <use xlink:href="#SVGID_29_" overflow="visible"/>
  </clipPath>
  <g clip-path="url(#SVGID_30_)">
    <defs>
      <rect id="SVGID_31_" x="-973" y="-627.8" width="1200" height="3706"/>
    </defs>
    <use xlink:href="#SVGID_31_" overflow="visible" fill="#F4F4F4"/>
    <clipPath id="SVGID_32_">
      <use xlink:href="#SVGID_31_" overflow="visible"/>
    </clipPath>
    <rect x="-578" y="13.4" clip-path="url(#SVGID_32_)" fill="#F4F4F4" width="34.8" height="34.8"/>
  </g>
  <defs>
    <path id="SVGID_33_" d="M0 71.2c0-2.8 2.2-5 5-5s5 2.2 5 5c0 2.8-2.2 5-5 5S0 74 0 71.2"/>
  </defs>
  <use xlink:href="#SVGID_33_" overflow="visible" fill-rule="evenodd" clip-rule="evenodd" fill="#F4F4F4"/>
  <clipPath id="SVGID_34_">
    <use xlink:href="#SVGID_33_" overflow="visible"/>
  </clipPath>
  <g clip-path="url(#SVGID_34_)">
    <defs>
      <rect id="SVGID_35_" x="-973" y="-627.8" width="1200" height="3706"/>
    </defs>
    <use xlink:href="#SVGID_35_" overflow="visible" fill="#F4F4F4"/>
    <clipPath id="SVGID_36_">
      <use xlink:href="#SVGID_35_" overflow="visible"/>
    </clipPath>
    <rect x="-5" y="61.2" clip-path="url(#SVGID_36_)" fill="#F4F4F4" width="20" height="20"/>
  </g>
  <defs>
    <polyline id="SVGID_37_" points="101.4 15.9 110.2 12.4 101.4 8.9 97.9 0 94.3 8.9 85.5 12.4 94.3 15.9 97.9 24.8 101.4 15.9 "/>
  </defs>
  <use xlink:href="#SVGID_37_" overflow="visible" fill-rule="evenodd" clip-rule="evenodd" fill="#F4F4F4"/>
  <clipPath id="SVGID_38_">
    <use xlink:href="#SVGID_37_" overflow="visible"/>
  </clipPath>
  <g clip-path="url(#SVGID_38_)">
    <defs>
      <rect id="SVGID_39_" x="-973" y="-627.8" width="1200" height="3706"/>
    </defs>
    <use xlink:href="#SVGID_39_" overflow="visible" fill="#F4F4F4"/>
    <clipPath id="SVGID_40_">
      <use xlink:href="#SVGID_39_" overflow="visible"/>
    </clipPath>
    <rect x="80.5" y="-5" clip-path="url(#SVGID_40_)" fill="#F4F4F4" width="34.8" height="34.8"/>
  </g>
</svg>
