<svg width="177" height="7" fill="none" xmlns="http://www.w3.org/2000/svg">
    <g clip-path="url(#footer-automattic_svg__clip0)" fill="#000" fill-opacity="0.8">
        <path d="M59.878 7c-2.38 0-3.909-1.668-3.909-3.39v-.22c0-1.76 1.548-3.39 3.909-3.39 2.379 0 3.927 1.63 3.927 3.39v.22c0 1.722-1.548 3.39-3.927 3.39zm2.662-3.592c0-1.264-.944-2.382-2.662-2.382-1.719 0-2.644 1.118-2.644 2.382v.165c0 1.265.944 2.4 2.644 2.4 1.7 0 2.662-1.135 2.662-2.4v-.165zM33.045 6.743l-.887-1.612H28.21l-.85 1.612H26.04L29.646.238h1.039l3.682 6.505h-1.322zm-2.889-5.24l-1.454 2.73h2.965l-1.511-2.73zM40.107 7c-2.398 0-3.53-1.264-3.53-2.969V.238h1.245v3.83c0 1.21.813 1.924 2.36 1.924 1.587 0 2.248-.715 2.248-1.924V.238h1.265v3.793C43.695 5.644 42.638 7 40.107 7zM50.72 1.246v5.497h-1.266V1.246h-2.926V.238h7.118v1.008H50.72zm24.302 5.497V1.594l-.34.568-2.814 4.581h-.623l-2.776-4.58-.34-.569v5.15h-1.227V.237h1.737l2.644 4.471.321.55.321-.55L74.55.24h1.718v6.504h-1.246zm10.782 0l-.887-1.612H80.97l-.85 1.612h-1.322L82.425.238h1.039l3.682 6.505h-1.34zm-2.889-5.24l-1.454 2.73h2.965l-1.511-2.73zm9.31-.257v5.497h-1.266V1.246h-2.927V.238h7.12v1.008h-2.928zm9.233 0v5.497h-1.265V1.246h-2.927V.238h7.119v1.008h-2.927zm6.043 5.497v-5.9c.509 0 .698-.257.698-.623h.529v6.505l-1.227.018zm11.084-4.672c-.604-.532-1.492-1.045-2.682-1.045-1.793 0-2.794 1.191-2.794 2.437v.129c0 1.227 1.019 2.382 2.889 2.382 1.114 0 2.039-.513 2.625-1.045l.755.77c-.737.696-1.983 1.301-3.456 1.301-2.53 0-4.078-1.594-4.078-3.353v-.22c0-1.76 1.68-3.427 4.135-3.427 1.416 0 2.7.568 3.399 1.301l-.793.77zm-57.876.201c.226.147.283.44.15.66l-1.151 1.722a.501.501 0 01-.68.147.486.486 0 01-.151-.66l1.152-1.722a.485.485 0 01.68-.147zM7.081 6.725l-.887-1.63H2.209l-.868 1.63H0L3.663.147h1.058l3.72 6.578H7.08zM4.154 1.43L2.681 4.196h3.003L4.154 1.43zm11.481 5.296l-4.4-4.398-.434-.458v4.875H9.536V.147h1.227l4.268 4.398.434.476V.147h1.265v6.578h-1.095zM135.938 6.78l-.907-1.63h-3.984l-.868 1.63h-1.341L132.52.183h1.058l3.738 6.597h-1.378zm-2.927-5.314l-1.473 2.767h3.003l-1.53-2.767zm5.401 5.314V.183h1.284V6.78h-1.284zm9.063 0c-.34 0-.491-.458-.547-1.063l-.038-.678c-.038-.66-.321-.934-1.586-.934h-2.417V6.78h-1.265V.183h3.701c2.039 0 2.964.788 2.964 1.814 0 .715-.377 1.411-1.699 1.65 1.322.091 1.605.678 1.624 1.447l.019.55c.019.458.094.788.415 1.118v.018h-1.171zm-.472-4.618c0-.476-.396-.934-1.491-.934h-2.606v1.979h2.719c.944 0 1.378-.44 1.378-.953v-.092zm3.078 4.618V.183h1.284v5.57h5.325V6.78h-6.609zm7.912 0V.183h1.284V6.78h-1.284zm9.347 0l-4.418-4.416-.435-.458V6.78h-1.284V.183h1.228l4.286 4.416.434.477V.183h1.284V6.78h-1.095zm3.04 0V.183h6.175V1.21h-4.91v1.686h3.777v1.008h-3.777v1.85h4.91V6.78h-6.175z"></path>
    </g>
    <defs>
        <clipPath id="footer-automattic_svg__clip0">
            <path fill="#fff" d="M0 0h176.556v7H0z"></path>
        </clipPath>
    </defs>
</svg>
