<svg fill="none" height="36" viewBox="0 0 283 36" width="283" xmlns="http://www.w3.org/2000/svg"><path d="m149.377 15.281c.55.0799 1.043.2264 1.478.4394.444.2131.821.4882 1.132.8256.319.3284.563.7234.732 1.185.169.4527.253.972.253 1.5579 0 .4172-.062.8566-.186 1.3182-.125.4527-.333.8965-.626 1.3315-.284.4261-.662.8211-1.132 1.185-.462.364-1.039.6614-1.731.8922-.533.1775-1.123.3018-1.771.3728s-1.425.1065-2.33.1065h-4.607v-17.81566h4.447c.408 0 .777.00888 1.105.02663.338.00888.644.02663.919.05326.284.02663.546.06214.786.10653.239.0355.466.07989.679.13315.559.1509 1.065.35951 1.518.62581.461.25743.852.56811 1.171.93206.32.36395.564.77672.733 1.23831.177.46161.266.96311.266 1.50461 0 .435-.053.8522-.16 1.2516-.097.3995-.262.7679-.492 1.1052-.222.3373-.515.6391-.879.9054-.355.2663-.79.4882-1.305.6658zm-3.316-.8921c.426 0 .795-.0177 1.106-.0532.31-.0444.59-.1066.838-.1865.666-.2219 1.15-.5681 1.452-1.0385.31-.4705.466-1.0253.466-1.6644 0-.6569-.16-1.194-.48-1.61117-.319-.4172-.821-.72789-1.504-.93206-.337-.09764-.728-.16422-1.172-.19972-.444-.04439-.967-.06658-1.571-.06658h-2.437v5.75213zm-3.302 1.9573v6.1916h2.623c.622 0 1.199-.0266 1.731-.0799.533-.0621.986-.1554 1.358-.2796.409-.1332.755-.3018 1.039-.506.284-.213.51-.4438.679-.6924.178-.2574.302-.5282.373-.8122.08-.2841.12-.5726.12-.8655 0-.3373-.04-.6524-.12-.9454-.08-.3018-.213-.5681-.4-.7989-.177-.2397-.417-.4483-.719-.6258-.292-.1775-.661-.3151-1.105-.4128-.266-.0621-.572-.1065-.918-.1331-.338-.0266-.759-.04-1.265-.04z" fill="#000"/><path d="m165.226 18.1837c0-.7811-.098-1.4735-.293-2.0771-.187-.6125-.453-1.1274-.799-1.5446-.338-.4261-.741-.7456-1.212-.9587-.47-.2219-.985-.3329-1.544-.3329-.56 0-1.075.111-1.545.3329-.47.2131-.879.5326-1.225.9587-.337.4172-.604.9321-.799 1.5446-.186.6036-.28 1.296-.28 2.0771 0 .7723.094 1.4647.28 2.0772.195.6036.466 1.114.812 1.5312s.755.7368 1.225.9587c.471.2131.986.3196 1.545.3196s1.07-.1065 1.531-.3196c.471-.2219.874-.5415 1.212-.9587.346-.4172.612-.9276.799-1.5312.195-.6125.293-1.3049.293-2.0772zm2.157 0c0 .9942-.142 1.8997-.426 2.7163-.284.8167-.688 1.5179-1.212 2.1038-.515.577-1.141 1.0253-1.878 1.3448-.736.3196-1.562.4794-2.476.4794-.941 0-1.784-.1598-2.53-.4794-.737-.3195-1.367-.7678-1.891-1.3448-.515-.5859-.91-1.2871-1.185-2.1038-.275-.8166-.413-1.7221-.413-2.7163 0-1.003.142-1.9129.426-2.7296.285-.8166.684-1.5179 1.199-2.1038.524-.5858 1.154-1.0385 1.891-1.3581.745-.3196 1.575-.4794 2.49-.4794.932 0 1.77.1598 2.516.4794s1.376.7723 1.891 1.3581c.515.5859.91 1.2872 1.185 2.1038.275.8167.413 1.7266.413 2.7296z" fill="#000"/><path d="m179.357 18.1837c0-.7811-.098-1.4735-.293-2.0771-.187-.6125-.453-1.1274-.799-1.5446-.337-.4261-.741-.7456-1.212-.9587-.47-.2219-.985-.3329-1.544-.3329-.56 0-1.074.111-1.545.3329-.47.2131-.879.5326-1.225.9587-.337.4172-.604.9321-.799 1.5446-.186.6036-.279 1.296-.279 2.0771 0 .7723.093 1.4647.279 2.0772.195.6036.466 1.114.812 1.5312.347.4172.755.7368 1.225.9587.471.2131.986.3196 1.545.3196s1.07-.1065 1.531-.3196c.471-.2219.875-.5415 1.212-.9587.346-.4172.612-.9276.799-1.5312.195-.6125.293-1.3049.293-2.0772zm2.157 0c0 .9942-.142 1.8997-.426 2.7163-.284.8167-.688 1.5179-1.212 2.1038-.515.577-1.141 1.0253-1.877 1.3448-.737.3196-1.563.4794-2.477.4794-.941 0-1.784-.1598-2.53-.4794-.737-.3195-1.367-.7678-1.891-1.3448-.515-.5859-.91-1.2871-1.185-2.1038-.275-.8166-.412-1.7221-.412-2.7163 0-1.003.142-1.9129.426-2.7296.284-.8166.683-1.5179 1.198-2.1038.524-.5858 1.154-1.0385 1.891-1.3581.745-.3196 1.575-.4794 2.49-.4794.932 0 1.771.1598 2.516.4794.746.3196 1.376.7723 1.891 1.3581.515.5859.91 1.2872 1.185 2.1038.275.8167.413 1.7266.413 2.7296z" fill="#000"/><path d="m185.698 15.2145c0 .3461.076.6302.227.8521s.35.4039.599.5459c.257.1332.55.2442.879.3329.337.0888.683.1687 1.038.2397.489.1065.95.2264 1.385.3595.435.1243.835.3151 1.199.5726.372.2574.67.608.892 1.0519.23.4349.346 1.003.346 1.7043 0 .6391-.124 1.2072-.373 1.7043-.249.4883-.599.901-1.052 1.2383-.453.3285-.994.577-1.624.7457-.631.1775-1.323.2663-2.078.2663-.461 0-.883-.0266-1.264-.0799-.373-.0444-.706-.1065-.999-.1864-.284-.071-.528-.1465-.732-.2264-.205-.0799-.373-.1553-.506-.2263v-1.731c.532.213 1.06.3817 1.584.506s1.101.1864 1.731.1864c.497 0 .945-.0444 1.345-.1332.399-.0887.741-.2174 1.025-.3861.293-.1775.515-.395.666-.6524.16-.2663.24-.5726.24-.9188 0-.3551-.071-.648-.213-.8788s-.333-.4216-.573-.5725-.519-.2752-.839-.3729c-.311-.0976-.639-.1864-.985-.2663-.453-.0976-.914-.213-1.385-.3462-.462-.1331-.883-.3195-1.265-.5592s-.692-.5637-.932-.972c-.231-.4172-.346-.9498-.346-1.5978 0-.6658.12-1.2428.359-1.731.24-.4882.564-.8921.972-1.2117.409-.3195.884-.5592 1.425-.719.542-.1598 1.114-.2397 1.718-.2397.701 0 1.349.0666 1.944.1998.603.1331 1.149.3018 1.638.5059v1.7576c-.533-.2041-1.075-.3683-1.625-.4926-.541-.1332-1.101-.2042-1.678-.2131-.488 0-.905.0489-1.251.1465-.346.0977-.63.2352-.852.4128-.222.1686-.387.3728-.493.6125-.098.2308-.147.4882-.147.7723z" fill="#000"/><path d="m201.654 24.5217c-.178.0711-.449.1376-.812.1998-.364.0621-.799.0976-1.305.1065-.666 0-1.243-.0843-1.731-.253-.489-.1598-.897-.3906-1.225-.6924-.32-.3107-.56-.6835-.719-1.1185-.16-.4349-.24-.9187-.24-1.4513v-7.6962h-2.437v-1.7709h2.437v-3.46192h2.064v3.46192h3.781v1.7709h-3.781v7.3766c0 .293.04.5637.12.8123.088.2485.222.466.399.6524.187.1775.422.3196.706.4261.284.0976.626.1464 1.025.1464.275 0 .564-.0221.866-.0665.31-.0444.594-.1021.852-.1731z" fill="#000"/><path d="m18.0007 36c9.9414 0 18.0006-8.0592 18.0006-18.0007 0-9.94139-8.0592-17.9993-18.0006-17.9993-9.94146 0-18.0007 8.05924-18.0007 18.0007 0 9.9414 8.05924 17.9993 18.0007 17.9993z" fill="#069e08"/><path d="m18.8938 14.9774v17.4502l9.0003-17.4502z" fill="#fff"/><path d="m17.073 20.9892v-17.41681l-8.9657 17.41681z" fill="#fff"/><g fill="#000"><path d="m46.4773 29.8856c-.5158-.7904-.9957-1.5796-1.4769-2.3354 2.542-1.5462 3.4004-2.7819 3.4004-5.1187v-13.50045h-2.9885v-2.57534h6.3556v15.38939c0 3.9163-1.133 6.1144-5.2906 8.1405z"/><path d="m73.101 20.68c0 1.305.9278 1.4423 1.5463 1.4423s1.5116-.2066 2.1981-.4119v2.4047c-.9624.3093-1.9582.5492-3.3325.5492-1.6489 0-3.5724-.6185-3.5724-3.5044v-7.0768h-1.7515v-2.4394h1.7515v-3.60574h3.1605v3.60704h3.9843v2.4394h-3.9843z"/><path d="m79.6967 31.088v-19.4776h3.0232v1.1677c1.2023-.9278 2.542-1.5116 4.1909-1.5116 2.8512 0 5.1187 1.9928 5.1187 6.2863 0 4.2603-2.4727 7.0769-6.561 7.0769-.9957 0-1.7862-.1373-2.6113-.3093v6.7329h-3.1605zm6.389-17.2102c-.9278 0-2.0955.4466-3.1952 1.409v6.6303c.6865.1372 1.409.2399 2.37.2399 2.2328 0 3.5045-1.409 3.5045-4.3629 0-2.7139-.9278-3.9163-2.6793-3.9163z"/><path d="m104.464 24.3551h-2.954v-1.409h-.07c-1.03.7905-2.3017 1.6489-4.1906 1.6489-1.6489 0-3.4351-1.2023-3.4351-3.6417 0-3.2631 2.782-3.8816 4.7401-4.1562l2.7816-.3773v-.3772c0-1.7182-.686-2.2674-2.3017-2.2674-.7904 0-2.6446.2399-4.1562.8584l-.2746-2.542c1.3743-.4812 3.2631-.8238 4.844-.8238 3.0915 0 5.0845 1.237 5.0845 4.9121v8.1752zm-3.161-5.9425-2.6113.4119c-.7904.1027-1.6142.5839-1.6142 1.7516 0 1.0304.5838 1.6142 1.4423 1.6142.9277 0 1.9232-.5492 2.7822-1.1677v-2.61z"/><path d="m117.517 23.9432c-1.305.4466-2.472.7212-3.951.7212-4.74 0-6.63-2.714-6.63-6.6637 0-4.1562 2.611-6.7329 6.836-6.7329 1.579 0 2.542.2746 3.607.6185v2.6793c-.928-.3439-2.268-.7211-3.573-.7211-1.923 0-3.572 1.0304-3.572 3.9843 0 3.2631 1.649 4.2602 3.744 4.2602.996 0 2.096-.2066 3.573-.7904v2.6446z"/><path d="m123.495 17.1076c.274-.3093.481-.6185 4.465-5.4626h4.122l-5.153 6.0464 5.633 6.6983h-4.122l-4.912-6.0464v6.0464h-3.159v-18.03399h3.16v10.75189z"/><path d="m65.8176 23.9432c-1.649.5159-3.0579.7211-4.7068.7211-4.0536 0-6.561-2.0261-6.561-6.7675 0-3.4698 2.1301-6.6303 6.2171-6.6303 4.0536 0 5.4625 2.8166 5.4625 5.4959 0 .8931-.0693 1.3743-.1026 1.8888h-8.1752c.0693 2.782 1.6489 3.4351 4.0189 3.4351 1.305 0 2.4727-.3092 3.8137-.7904v2.6446h.0334zm-2.8846-7.3861c0-1.5463-.5159-2.8859-2.1981-2.8859-1.5796 0-2.542 1.133-2.7487 2.8859z"/></g></svg>