<svg fill="none" height="400" viewBox="0 0 513 400" width="513" xmlns="http://www.w3.org/2000/svg" xmlns:xlink="http://www.w3.org/1999/xlink"><filter id="a" color-interpolation-filters="sRGB" filterUnits="userSpaceOnUse" height="1126.51" width="819.537" x="-19.4263" y="-215.362"><feFlood flood-opacity="0" result="BackgroundImageFix"/><feBlend in="SourceGraphic" in2="BackgroundImageFix" mode="normal" result="shape"/><feGaussianBlur result="effect1_foregroundBlur_2285_9948" stdDeviation="42.2297"/></filter><g filter="url(#a)"><path d="m505.462-126.766c25.079 6.8 43.826 27.9401 66.959 40.5144 27.98 15.2089 66.296 13.851 84.338 41.724 17.634 27.2438 9.154 65.3473 6.479 98.5828-2.487 30.8884-12.751 59.3098-21.563 88.7858-9.616 32.166-10.749 69.954-32.95 93.555-22.254 23.658-56.263 26.857-86.692 33.633-29.351 6.537-58.955 10.105-88.599 5.403-30.44-4.827-61.171-13.163-85.94-33.083-24.827-19.967-42.517-48.983-54.613-79.957-11.69-29.934-11.943-62.7413-13.799-95.2218-1.901-33.2666-10.597-68.70362 2.717-98.6958 13.289-29.9367 42.969-46.3355 69.186-63.277 23.65-15.2824 49.372-25.1954 76.372-30.7824 25.907-5.361 52.514-8.12 78.105-1.181z" fill="#f5e6b3" opacity=".7"/><path d="m274.015 156.173c21.071 12.959 33.152 37.211 47.96 58.074 14.041 19.784 30.222 38.171 37.252 61.986 7.129 24.146 9.046 50.51 3.208 75.065-5.695 23.956-21.444 42.887-35.805 62.047-13.737 18.329-30.665 32.254-46.77 48.125-20.104 19.813-33.949 51.536-60.475 57.566-25.983 5.907-50.312-15.356-74.675-26.842-24.163-11.391-53.758-16.864-68.4958-40.653-14.8433-23.959-7.4522-56.207-9.3794-85.046-1.6142-24.155-2.5122-47.567-1.0978-71.736 1.5449-26.401-3.3661-55.439 9.8385-77.629 13.2176-22.212 39.8625-28.54 61.0425-41.486 21.375-13.065 40.588-32.042 64.887-35.486 24.766-3.509 50.756 2.637 72.51 16.015z" fill="#ced9f2" opacity=".7"/><path d="m549.377 206.234c45.325 17.391 61.523 77.069 90.573 118.794 26.746 38.415 64.845 70.049 73.79 117.279 8.945 47.233-15.896 92.393-25.149 139.556-10.47 53.368-1.165 114.749-33.006 156.863-32.514 43.006-87.588 54.572-137.157 68.204-51.268 14.099-104.957 29.167-155.512 12.283-50.943-17.013-96.58-55.578-123.742-105.546-25.625-47.142-15.664-105.49-20.615-160.02-4.426-48.743-16.278-96.309-7.011-144.236 9.919-51.293 24.151-106.52 61.802-139.126 37.334-32.331 90.619-22.434 137.254-33.255 46.972-10.9 93.472-48.177 138.773-30.796z" fill="#069e08" fill-opacity=".11"/></g></svg>