<svg enable-background="new 0 0 935 38.2" viewBox="0 0 935 38.2"><path d="m317.1 38.2c-12.6 0-20.7-9.1-20.7-18.5v-1.2c0-9.6 8.2-18.5 20.7-18.5 12.6 0 20.8 8.9 20.8 18.5v1.2c-0 9.4-8.2 18.5-20.8 18.5zm14.1-19.6c0-6.9-5-13-14.1-13s-14 6.1-14 13v.9c0 6.9 5 13.1 14 13.1s14.1-6.2 14.1-13.1zm-156.2 18.2-4.7-8.8h-20.9l-4.5 8.8h-7l19.1-35.5h5.5l19.5 35.5zm-15.3-28.6-7.7 14.9h15.7zm52.7 30c-12.7 0-18.7-6.9-18.7-16.2v-20.7h6.6v20.9c0 6.6 4.3 10.5 12.5 10.5 8.4 0 11.9-3.9 11.9-10.5v-20.9h6.7v20.7c0 8.8-5.6 16.2-19 16.2zm56.2-31.4v30h-6.7v-30h-15.5v-5.5h37.7v5.5zm128.7 30v-28.1l-1.8 3.1-14.9 25h-3.3l-14.7-25-1.8-3.1v28.1h-6.5v-35.5h9.2l14 24.4 1.7 3 1.7-3 13.9-24.4h9.1v35.5zm57.1 0-4.7-8.8h-20.9l-4.5 8.8h-7l19.2-35.5h5.5l19.5 35.5zm-15.3-28.6-7.7 14.9h15.7zm49.3-1.4v30h-6.7v-30h-15.5v-5.5h37.7v5.5zm48.9 0v30h-6.7v-30h-15.5v-5.5h37.7v5.5zm32 30v-32.2c2.7 0 3.7-1.4 3.7-3.4h2.8v35.5zm58.7-25.5c-3.2-2.9-7.9-5.7-14.2-5.7-9.5 0-14.8 6.5-14.8 13.3v.7c0 6.7 5.4 13 15.3 13 5.9 0 10.8-2.8 13.9-5.7l4 4.2c-3.9 3.8-10.5 7.1-18.3 7.1-13.4 0-21.6-8.7-21.6-18.3v-1.2c0-9.6 8.9-18.7 21.9-18.7 7.5 0 14.3 3.1 18 7.1zm-306.5 1.1c1.2.8 1.5 2.4.8 3.6l-6.1 9.4c-.8 1.2-2.4 1.6-3.6.8-1.2-.8-1.5-2.4-.8-3.6l6.1-9.4c.8-1.3 2.4-1.6 3.6-.8z"/><path d="m37.5 36.7-4.7-8.9h-21.1l-4.6 8.9h-7.1l19.4-35.9h5.6l19.7 35.9zm-15.5-28.9-7.8 15.1h15.9zm60.8 28.9-23.3-24-2.3-2.5v26.6h-6.7v-36h6.5l22.6 24 2.3 2.6v-26.6h6.7v35.9z"/><path d="m719.9 37-4.8-8.9h-21.1l-4.6 8.9h-7.1l19.5-36h5.6l19.8 36zm-15.5-29-7.8 15.1h15.9zm28.6 29v-36h6.8v36zm48 0c-1.8 0-2.6-2.5-2.9-5.8l-.2-3.7c-.2-3.6-1.7-5.1-8.4-5.1h-12.8v14.6h-6.7v-36h19.6c10.8 0 15.7 4.3 15.7 9.9 0 3.9-2 7.7-9 9 7 .5 8.5 3.7 8.6 7.9l.1 3c.1 2.5.5 4.3 2.2 6.1v.1zm-2.5-25.2c0-2.6-2.1-5.1-7.9-5.1h-13.8v10.8h14.4c5 0 7.3-2.4 7.3-5.2zm16.3 25.2v-36h6.8v30.4h28.2v5.6zm41.9 0v-36h6.8v36zm49.5 0-23.4-24.1-2.3-2.5v26.6h-6.8v-36h6.5l22.7 24.1 2.3 2.6v-26.7h6.8v36zm16.1 0v-36h32.7v5.6h-26v9.2h20v5.5h-20v10.1h26v5.6z"/></svg>