<svg viewBox="0 0 296 77" xmlns="http://www.w3.org/2000/svg" fill-rule="evenodd" clip-rule="evenodd" stroke-linejoin="round" stroke-miterlimit="1.414"><g fill-rule="nonzero"><path d="M35.021 58.24l8.033 2.826c.269-.346.539-.693.801-1.043l-8.834-3.109v1.326zM35.021 61.395l6.059 2.133c.285-.34.562-.686.841-1.031l-6.9-2.428v1.326zM35.021 64.549l3.939 1.387c.305-.334.606-.67.905-1.008l-4.844-1.705v1.326zM35.021 10.926l27.359 9.627c.119-.426.229-.828.329-1.209L35.021 9.6v1.326zM35.021 67.703l1.664.586c.329-.326.662-.649.984-.981l-2.648-.931v1.326z" fill="#fff"/><path d="M56.179 19.442h-2.154l-19.004-6.688v1.327l15.237 5.361h-5.197l-10.04-3.533v1.326l9.562 3.363-.638 1.606-8.924-3.141v1.324l8.461 2.979-.639 1.603-7.822-2.752v1.325l7.359 2.589-.639 1.604-6.72-2.363v1.324l6.258 2.203-.639 1.604-5.619-1.977v1.324l5.156 1.815-.639 1.603-4.517-1.588v1.325l4.054 1.427-.638 1.604-3.416-1.201v1.324l2.952 1.039-.638 1.605-2.314-.814v1.326l1.85.65-.638 1.604-1.212-.426v1.326l.749.264-.639 1.604-.11-.04v.319L24.995 19.442H13.861l3.75 9.424h.679c1.368 0 2.026 1.65 2.032 1.666l.121.301 10.431 25.72h8.291l.003-.007 5.745 2.021c.252-.352.505-.705.752-1.061l-6.027-2.121.649-1.599 6.381 2.244c.238-.358.468-.719.7-1.078l-6.61-2.326.65-1.6 6.909 2.43c.224-.364.444-.727.664-1.092l-7.103-2.498.649-1.602 7.346 2.586c.212-.367.429-.734.636-1.101l-7.512-2.645.649-1.599 7.704 2.71c.202-.373.401-.744.597-1.115l-7.831-2.756.65-1.599 7.985 2.808c.192-.377.374-.752.561-1.127l-8.075-2.841.649-1.602 8.185 2.881c.18-.379.362-.76.538-1.137l-8.253-2.904.649-1.6 8.32 2.928c.172-.383.342-.766.508-1.146l-8.357-2.942.648-1.601 8.393 2.953c.164-.389.321-.772.478-1.157l-8.4-2.957.648-1.599 8.398 2.955c.155-.391.309-.781.457-1.164l-8.384-2.951.004-.01c.004-.012.379-.951 1.148-1.414l7.844 2.76c.148-.397.287-.786.428-1.174l-6.527-2.297.638-1.604 6.465 2.274c.139-.401.275-.793.406-1.182l-6.408-2.256.639-1.603 6.311 2.22c.132-.402.261-.802.382-1.189l-6.231-2.193.638-1.606 6.101 2.149c.124-.412.244-.815.356-1.202l-5.995-2.109.266-.664zM35.021 7.772l28.121 9.895c.116-.463.217-.881.297-1.221l-28.418-10v1.326z" fill="#fff"/><path d="M64.865 16.947a110.138 110.138 0 0 1-1.054 4.107c-.145.528-.3 1.079-.469 1.664a172.487 172.487 0 0 1-.864 2.852c-.122.389-.248.785-.38 1.191a123.902 123.902 0 0 1-.944 2.823A178.303 178.303 0 0 1 59.543 34c-.148.381-.306.775-.459 1.164a130.907 130.907 0 0 1-1.805 4.347c-.167.383-.329.764-.502 1.151-.232.519-.477 1.047-.722 1.574a123.099 123.099 0 0 1-1.289 2.701c-.184.373-.378.75-.567 1.125-.262.516-.522 1.031-.793 1.549-.195.371-.4.744-.602 1.115a96.792 96.792 0 0 1-.839 1.534c-.205.367-.419.736-.631 1.103a90.604 90.604 0 0 1-1.553 2.607c-.308.502-.623 1-.941 1.498-.232.36-.461.721-.699 1.081-.327.494-.663.984-1.001 1.476-.244.356-.484.713-.735 1.067-.347.488-.706.97-1.064 1.453-.26.351-.515.705-.781 1.052-.369.481-.75.955-1.131 1.43-.277.346-.553.69-.835 1.031a76.74 76.74 0 0 1-1.198 1.409c-.297.339-.597.673-.9 1.007-.42.465-.838.93-1.27 1.383-.318.332-.648.656-.973.983a64.535 64.535 0 0 1-3.232 3.064C12.109 51.787 4.842 15.459 4.842 15.459L35.021 4.842l30.176 10.617s-.108.535-.332 1.488m1.354-4.391L36.043 1.939a3.034 3.034 0 0 0-2.043 0L3.82 12.556a3.096 3.096 0 0 0-1.996 3.506c.307 1.526 7.75 37.592 31.168 58.155 1.123.986 2.937.986 4.059 0C60.469 53.654 67.91 17.588 68.215 16.062c.298-1.492-.559-3-1.996-3.506" fill="#fff"/><path d="M63.142 17.666L35.021 7.771V6.445l28.418 10c-.08.34-.181.758-.297 1.221m-.762 2.887l-27.359-9.627V9.6l27.688 9.744c-.1.381-.211.783-.329 1.209m-.828 2.863l-6.1-2.148-.639 1.605 6.231 2.193c-.121.387-.25.788-.381 1.19l-6.312-2.221-.639 1.604 6.409 2.256c-.132.388-.268.781-.407 1.181l-6.465-2.273-.638 1.603 6.527 2.297c-.141.389-.28.777-.428 1.174l-7.843-2.76c-.77.463-1.145 1.403-1.149 1.414l-.004.01 8.384 2.951c-.147.383-.302.774-.457 1.164l-8.397-2.955-.649 1.6 8.401 2.957c-.158.385-.315.767-.479 1.156l-8.393-2.953-.648 1.601 8.357 2.942c-.166.381-.336.764-.507 1.146l-8.321-2.927-.649 1.599 8.253 2.905c-.176.377-.358.757-.538 1.136l-8.185-2.881-.649 1.602 8.075 2.842c-.187.375-.369.75-.561 1.127l-7.985-2.809-.649 1.6 7.83 2.756c-.196.371-.395.742-.597 1.115l-7.704-2.711-.649 1.6 7.512 2.644c-.207.367-.424.734-.636 1.102l-7.346-2.586-.649 1.601 7.103 2.498c-.22.366-.44.729-.664 1.092l-6.909-2.43-.65 1.6 6.611 2.326c-.233.36-.463.721-.701 1.078l-6.38-2.244-.65 1.6 6.027 2.121c-.247.355-.5.709-.752 1.06l-5.745-2.021-.003.008h-8.291L20.443 30.832l-.121-.301c-.006-.015-.664-1.666-2.032-1.666h-.679l-3.75-9.424h11.135l10.025 25.174v-.318l.11.039.639-1.604-.749-.263v-1.326l1.212.425.638-1.603-1.85-.651v-1.326l2.314.815.638-1.606-2.952-1.039v-1.324l3.416 1.201.638-1.603-4.054-1.428V31.68l4.517 1.588.639-1.604-5.156-1.814v-1.325l5.619 1.977.639-1.604-6.258-2.203v-1.324l6.721 2.363.638-1.603-7.359-2.59v-1.324l7.822 2.752.639-1.604-8.461-2.978v-1.325l8.924 3.141.638-1.605-9.562-3.364v-1.326l10.04 3.533h5.197L35.021 14.08v-1.326l19.004 6.687h2.154l-.266.664 5.996 2.11c-.113.387-.233.789-.357 1.201m-18.498 37.65l-8.033-2.826v-1.326l8.834 3.109c-.262.35-.532.698-.801 1.043m-1.975 2.461l-6.058-2.132v-1.327l6.9 2.428c-.279.346-.556.691-.842 1.031m-2.119 2.409l-3.939-1.387v-1.326l4.844 1.705c-.299.338-.6.674-.905 1.008m-2.275 2.353l-1.664-.586v-1.326l2.648.932c-.322.332-.655.654-.984.98M4.841 15.459s7.268 36.328 30.18 56.445a64.06 64.06 0 0 0 3.231-3.064c.326-.326.656-.651.974-.983.432-.453.85-.918 1.27-1.382.302-.334.603-.668.9-1.008.404-.465.804-.934 1.197-1.408.282-.342.559-.686.836-1.032.381-.474.762-.949 1.131-1.429.266-.348.52-.702.78-1.053.359-.483.718-.965 1.065-1.453.251-.354.491-.711.735-1.067.338-.492.674-.982 1.001-1.476.237-.36.467-.721.698-1.08a91.233 91.233 0 0 0 1.606-2.59c.302-.504.597-1.01.888-1.516.212-.367.426-.736.631-1.103.287-.512.565-1.022.84-1.533.201-.372.406-.745.602-1.116.271-.517.531-1.033.793-1.549.189-.375.382-.751.567-1.125.258-.523.508-1.044.755-1.564.182-.381.358-.758.534-1.137.244-.527.489-1.054.722-1.574.173-.387.335-.767.502-1.15a126.539 126.539 0 0 0 1.804-4.348c.154-.389.312-.783.459-1.164a151.406 151.406 0 0 0 1.035-2.791c.198-.551.392-1.094.577-1.625a171.156 171.156 0 0 0 1.324-4.014 129.567 129.567 0 0 0 1.333-4.515c.116-.424.227-.828.327-1.209a110.042 110.042 0 0 0 .727-2.899c.223-.953.332-1.488.332-1.488L35.021 4.842 4.841 15.459z" fill="#af1e23"/><path d="M68.214 16.063c-.305 1.525-7.746 37.592-31.164 58.154-1.121.987-2.936.987-4.059 0C9.573 53.655 2.13 17.588 1.823 16.063c-.297-1.492.561-3 1.996-3.506L33.999 1.94a3.034 3.034 0 0 1 2.043 0l30.176 10.617a3.092 3.092 0 0 1 1.996 3.506m-1.41-5.172L36.628.274a4.857 4.857 0 0 0-3.215 0L3.234 10.891a4.868 4.868 0 0 0-3.141 5.52c.31 1.548 7.871 38.181 31.732 59.132a4.838 4.838 0 0 0 6.391 0c23.859-20.951 31.42-57.584 31.73-59.132a4.868 4.868 0 0 0-3.142-5.52" fill="#af1e23"/><path d="M80.882 26.809c-.896-2.266-3.057-2.896-3.057-2.896v-1.424h3.11c3.687 0 6.426-.211 6.426-.211l.21.211c-.63 1.265-.894 3.32-.316 4.847l7.377 19.703c.316.95.684 2.213.947 3.213l9.01-21.757c.947-2.37.314-3.793-2.529-4.582v-1.424h8.377l.209.843s-1.631 1.108-3.424 5.532l-12.115 29.24-2.11-.633-12.115-30.662zM119.759 52.256v-6.375l-1.527.264c-2.899.472-6.325 2.002-6.325 5.425 0 1.897 1.108 3.161 2.793 3.161 1.739 0 3.846-1.475 5.059-2.475m-1.791-8.166l1.791-.264c.053-1.422.053-4.215-.211-5.586-.369-1.738-1.266-3.002-2.951-3.002-3.318 0-5.373 5.321-5.373 5.321h-2.002l-1.002-4.268s4.059-3.107 10.379-3.107c5.215 0 6.533 2.054 6.533 7.533v12.012c0 1.632.211 2.476 1.369 2.476 1.266 0 2.635-1 2.635-1l.738 1.264s-2.529 2.793-6.008 2.793c-2.263 0-3.949-1.213-3.949-3.637V53.52s-2.74 4.742-7.849 4.742c-3.321 0-5.743-2.268-5.743-5.586 0-5.162 6.215-7.744 11.643-8.586M132.009 40.086c0-2.266-.053-3.584-1.58-3.584h-1.686v-1.58c6.797-1.211 8.957-2.002 8.957-2.002l.157.158s-.473 1.475-.473 5.531v11.012c0 3.899 1.369 4.899 3.371 4.899 2.477 0 5.322-1.844 6.584-3.161V40.086c0-2.266-.051-3.584-1.58-3.584h-1.527v-1.58c6.586-1.211 8.798-2.002 8.798-2.002l.159.158s-.475 1.475-.475 5.531v13.909c0 3.004 1.213 3.004 2.949 3.004h1.371l-.158 1.527c-6.322.58-9.537 1.055-9.537 1.055l-.156-.159s.422-1.529.422-2.845v-2.53c-1.055 1.582-4.532 5.692-9.326 5.692-3.741 0-6.27-2.002-6.27-7.061V40.086zM158.459 56.155c2.318-.264 3.162-1.529 3.162-3.426V26.073c0-2.213-.053-3.531-1.582-3.531h-2.105v-1.528c7.111-1.474 9.429-2.527 9.429-2.527l.159.156s-.528 1.949-.528 6.006v28.08c0 1.58-.264 2.846-.264 2.846l4.374.473-.211 1.423-12.434.317v-1.633zM173.521 40.19c0-1.527.156-3.424.156-3.424h-3.424v-1.844s2.372-.474 3.635-1.632l1.949-5.848 3.321.105.156.159s-.475 1.369-.475 5.214v.897h7.903l-.367 2.791h-6.901l-.58.58v12.645c0 3.054.736 4.793 3.529 4.793 2.317 0 4.637-1.159 4.637-1.159l.736 1.159s-3.212 3.636-8.166 3.636c-3.793 0-6.109-2.054-6.109-6.902V40.19zM189.464 55.994c2.213-.262 3.635-1.475 3.635-3.266v-24.97c0-2.53-.264-3.057-4.162-3.846v-1.424h13.802c6.164 0 13.12 2.055 13.12 9.537 0 7.955-7.534 11.59-13.7 10.957v-1.685c5.27-.264 7.377-3.688 7.377-7.85 0-5.953-4.267-8.588-9.166-8.588h-1.002l-.58.58v27.289c0 1.53-.263 2.688-.263 2.688l5.005.474-.211 1.581-13.855.316v-1.793zM218.169 56.155c2.264-.264 3.16-1.529 3.16-3.426V40.087c0-2.213-.053-3.532-1.58-3.532h-2.266v-1.527c5.637-1.053 9.43-2.582 9.43-2.582l.158.158s-.474 1.475-.632 6.586c.894-1.685 3.898-6.006 7.269-6.006 1.635 0 3.004 1.053 3.004 2.741 0 1.632-1.158 2.896-2.846 2.896-1.42 0-1.633-.947-2.896-.947-1.738 0-3.637 1.738-4.268 2.474v12.381c0 1.58-.263 2.846-.263 2.846l4.898.473-.209 1.423-12.959.317v-1.633zM241.851 42.719l10.01-1.316s-.317-6.006-4.582-6.006c-3.215 0-5.11 3.371-5.428 7.322m6.375-9.535c4.637 0 9.061 2.896 9.271 9.01 0 0-1.843.683-2.898.841l-12.273 1.791-.475.633c.369 4.479 2.688 8.746 8.377 8.746 4.057 0 6.586-2.371 6.586-2.371l.578 1.317s-2.793 5.111-9.219 5.111c-7.586 0-11.484-5.848-11.484-12.064 0-7.219 4.953-13.014 11.537-13.014M260.425 50.463h1.686c.316 4.479 3.423 5.848 5.847 5.848 2.319 0 3.899-1.264 3.899-3.319 0-5.425-11.643-4.898-11.643-12.802 0-4.266 3.318-7.006 8.746-7.006 3.108 0 6.848.949 6.848.949l-1.108 5.689h-1.683c-.106-4.214-3.268-4.689-4.531-4.689-2.477 0-3.582 1.475-3.582 3.16 0 5.481 11.589 4.373 11.589 12.697 0 4.743-3.742 7.272-8.798 7.272-2.739 0-8.061-.738-8.061-3.637 0-1.158.791-4.162.791-4.162M279.388 50.463h1.686c.316 4.479 3.425 5.848 5.849 5.848 2.317 0 3.897-1.264 3.897-3.319 0-5.425-11.643-4.898-11.643-12.802 0-4.266 3.32-7.006 8.746-7.006 3.108 0 6.848.949 6.848.949l-1.106 5.689h-1.685c-.106-4.214-3.268-4.689-4.531-4.689-2.475 0-3.582 1.475-3.582 3.16 0 5.481 11.589 4.373 11.589 12.697 0 4.743-3.74 7.272-8.798 7.272-2.739 0-8.059-.738-8.059-3.637 0-1.158.789-4.162.789-4.162" fill="#231f20"/></g></svg>
