<svg xmlns="http://www.w3.org/2000/svg" width="128" height="128" fill="none" viewBox="0 0 128 128"><g clip-path="url(#clip0_2891_12294)"><rect width="103.619" height="103.619" x="12.19" y="12.19" fill="#2C3338" rx="12.191"/><g style="mix-blend-mode:screen"><path fill="#fff" fill-rule="evenodd" d="M74.5118 44.6985V82.0994L52.4712 75.6431V87.3649H48.3387L48.3387 74.4326L40.832 72.2336C37.9279 71.3829 35.9419 68.7952 35.9419 65.8618V60.9361C35.9419 58.0027 37.9279 55.415 40.832 54.5643L74.5118 44.6985ZM70.3793 76.7148L52.4712 71.469L52.4712 55.3289L70.3793 50.0831V76.7148ZM48.3387 56.5395L48.3387 70.2584L42.0304 68.4105C40.8688 68.0703 40.0744 67.0352 40.0744 65.8618V60.9361C40.0744 59.7627 40.8688 58.7276 42.0304 58.3874L48.3387 56.5395ZM80.0218 65.3985H91.0418V61.4038H80.0218V65.3985ZM91.0408 76.7145L80.0208 74.0513V70.0565L91.0408 72.7197V76.7145ZM80.0218 56.742L91.0418 54.0788V50.0841L80.0218 52.7472V56.742Z" clip-rule="evenodd"/></g><path fill="#069E08" d="M104.642 46.7302C117.546 46.7302 128.007 36.2693 128.007 23.3651C128.007 10.4609 117.546 0 104.642 0C91.7378 0 81.2769 10.4609 81.2769 23.3651C81.2769 36.2693 91.7378 46.7302 104.642 46.7302Z"/><path fill="#fff" d="M105.801 19.4412V42.0928L117.483 19.4412H105.801Z"/><path fill="#fff" d="M103.439 27.2443V4.63721L91.8008 27.2443H103.439Z"/></g><defs><clipPath id="clip0_2891_12294"><rect width="128" height="128" fill="#fff"/></clipPath></defs></svg>