<svg fill="none" height="7" width="177" xmlns="http://www.w3.org/2000/svg" xmlns:xlink="http://www.w3.org/1999/xlink"><clipPath id="a"><path d="m0 0h176.556v7h-176.556z"/></clipPath><g clip-path="url(#a)" fill="#000" fill-opacity=".8"><path d="m59.878 7c-2.38 0-3.909-1.668-3.909-3.39v-.22c0-1.76 1.548-3.39 3.909-3.39 2.379 0 3.927 1.63 3.927 3.39v.22c0 1.722-1.548 3.39-3.927 3.39zm2.662-3.592c0-1.264-.944-2.382-2.662-2.382-1.719 0-2.644 1.118-2.644 2.382v.165c0 1.265.944 2.4 2.644 2.4s2.662-1.135 2.662-2.4zm-29.495 3.335-.887-1.612h-3.948l-.85 1.612h-1.32l3.606-6.505h1.039l3.682 6.505zm-2.889-5.24-1.454 2.73h2.965zm9.951 5.497c-2.398 0-3.53-1.264-3.53-2.969v-3.793h1.245v3.83c0 1.21.813 1.924 2.36 1.924 1.587 0 2.248-.715 2.248-1.924v-3.83h1.265v3.793c0 1.613-1.057 2.969-3.588 2.969zm10.613-5.754v5.497h-1.266v-5.497h-2.926v-1.008h7.118v1.008zm24.302 5.497v-5.149l-.34.568-2.814 4.581h-.623l-2.776-4.58-.34-.569v5.15h-1.227v-6.507h1.737l2.644 4.471.321.55.321-.55 2.625-4.468h1.718v6.504h-1.246zm10.782 0-.887-1.612h-3.947l-.85 1.612h-1.322l3.627-6.505h1.039l3.682 6.505h-1.34zm-2.889-5.24-1.454 2.73h2.965zm9.31-.257v5.497h-1.266v-5.497h-2.927v-1.008h7.12v1.008h-2.928zm9.233 0v5.497h-1.265v-5.497h-2.927v-1.008h7.119v1.008zm6.043 5.497v-5.9c.509 0 .698-.257.698-.623h.529v6.505zm11.084-4.672c-.604-.532-1.492-1.045-2.682-1.045-1.793 0-2.794 1.191-2.794 2.437v.129c0 1.227 1.019 2.382 2.889 2.382 1.114 0 2.039-.513 2.625-1.045l.755.77c-.737.696-1.983 1.301-3.456 1.301-2.53 0-4.078-1.594-4.078-3.353v-.22c0-1.76 1.68-3.427 4.135-3.427 1.416 0 2.7.568 3.399 1.301zm-57.876.201c.226.147.283.44.15.66l-1.151 1.722a.501.501 0 0 1 -.68.147.486.486 0 0 1 -.151-.66l1.152-1.722a.485.485 0 0 1 .68-.147zm-53.628 4.453-.887-1.63h-3.985l-.868 1.63h-1.341l3.663-6.578h1.058l3.72 6.578h-1.361zm-2.927-5.295-1.473 2.766h3.003zm11.481 5.296-4.4-4.398-.434-.458v4.875h-1.265v-6.598h1.227l4.268 4.398.434.476v-4.874h1.265v6.578h-1.095zm120.303.054-.907-1.63h-3.984l-.868 1.63h-1.341l3.682-6.597h1.058l3.738 6.597zm-2.927-5.314-1.473 2.767h3.003zm5.401 5.314v-6.597h1.284v6.597zm9.063 0c-.34 0-.491-.458-.547-1.063l-.038-.678c-.038-.66-.321-.934-1.586-.934h-2.417v2.675h-1.265v-6.597h3.701c2.039 0 2.964.788 2.964 1.814 0 .715-.377 1.411-1.699 1.65 1.322.091 1.605.678 1.624 1.447l.019.55c.019.458.094.788.415 1.118v.018zm-.472-4.618c0-.476-.396-.934-1.491-.934h-2.606v1.979h2.719c.944 0 1.378-.44 1.378-.953zm3.078 4.618v-6.597h1.284v5.57h5.325v1.027zm7.912 0v-6.597h1.284v6.597zm9.347 0-4.418-4.416-.435-.458v4.874h-1.284v-6.597h1.228l4.286 4.416.434.477v-4.893h1.284v6.597zm3.04 0v-6.597h6.175v1.027h-4.91v1.686h3.777v1.008h-3.777v1.85h4.91v1.026z"/></g></svg>