<svg xmlns="http://www.w3.org/2000/svg" width="176" height="32" fill="none">
	<path
		d="M131.517 10.878c0 .656-.149 1.257-.446 1.804-.3.547-.79 1-1.477 1.364v.045c.381.128.73.292 1.047.492a3.205 3.205 0 011.339 1.646c.126.347.188.735.188 1.164 0 .37-.059.766-.177 1.188a3.68 3.68 0 01-.624 1.228 4.8 4.8 0 01-1.19 1.091c-.495.332-1.121.596-1.876.792-.191.045-.398.087-.624.125-.225.037-.475.07-.75.096-.275.026-.58.045-.915.056-.336.01-.713.016-1.133.016h-4.45V6.852h5.32c1.137 0 2.053.113 2.747.34.52.165.969.382 1.35.65.381.268.697.566.944.894a3.513 3.513 0 01.727 2.142zm-5.756 2.206c.762 0 1.33-.075 1.705-.226.42-.173.719-.413.899-.718.178-.306.268-.651.268-1.035 0-.4-.103-.756-.31-1.069-.205-.313-.556-.545-1.051-.696a3.915 3.915 0 00-.72-.13c-.276-.027-.615-.04-1.02-.04h-2.3v3.914h2.529zm-2.529 2.318v4.265h1.83a17.1 17.1 0 001.26-.04c.35-.026.652-.07.904-.13.39-.083.713-.194.973-.334.259-.14.469-.298.63-.476.16-.176.274-.373.343-.588.07-.215.102-.442.102-.684 0-.422-.117-.791-.354-1.108-.236-.317-.606-.554-1.11-.713a4.023 4.023 0 00-.778-.146c-.298-.03-.679-.046-1.144-.046h-2.656zM144.904 16.511c0 .86-.13 1.644-.39 2.353a5.163 5.163 0 01-1.116 1.821 4.945 4.945 0 01-1.756 1.17c-.686.276-1.453.413-2.3.413-.87 0-1.65-.138-2.34-.413a4.87 4.87 0 01-1.757-1.17 5.104 5.104 0 01-1.104-1.821c-.255-.708-.383-1.494-.383-2.353 0-.86.13-1.643.389-2.353a5.152 5.152 0 011.116-1.82 4.942 4.942 0 011.756-1.171c.687-.276 1.453-.413 2.3-.413.87 0 1.65.138 2.34.413.691.276 1.276.665 1.757 1.17.48.505.848 1.112 1.104 1.821.255.71.384 1.494.384 2.353zm-2.804 0c0-.58-.069-1.093-.206-1.539a3.308 3.308 0 00-.573-1.12 2.328 2.328 0 00-.882-.678 2.753 2.753 0 00-1.12-.226 2.68 2.68 0 00-1.105.226c-.338.152-.63.378-.874.679a3.318 3.318 0 00-.573 1.12 5.241 5.241 0 00-.206 1.538c0 .58.07 1.093.206 1.539.137.444.33.816.578 1.114.248.298.542.524.881.678.339.155.71.232 1.116.232.404 0 .774-.077 1.11-.232a2.42 2.42 0 00.869-.678 3.25 3.25 0 00.573-1.114c.137-.446.206-.959.206-1.539zM157.476 16.511c0 .86-.129 1.644-.389 2.353a5.163 5.163 0 01-1.116 1.821 4.952 4.952 0 01-1.756 1.17c-.686.276-1.453.413-2.3.413-.87 0-1.65-.138-2.34-.413a4.87 4.87 0 01-1.757-1.17 5.104 5.104 0 01-1.104-1.821c-.255-.708-.383-1.494-.383-2.353 0-.86.13-1.643.389-2.353a5.152 5.152 0 011.116-1.82 4.942 4.942 0 011.756-1.171c.687-.276 1.453-.413 2.3-.413.87 0 1.65.138 2.34.413.691.276 1.276.665 1.757 1.17.48.505.848 1.112 1.104 1.821.255.71.383 1.494.383 2.353zm-2.804 0c0-.58-.07-1.093-.206-1.539a3.308 3.308 0 00-.573-1.12 2.334 2.334 0 00-.881-.678 2.753 2.753 0 00-1.122-.226 2.68 2.68 0 00-1.104.226c-.339.152-.631.378-.875.679a3.317 3.317 0 00-.572 1.12c-.137.444-.206.957-.206 1.538 0 .58.069 1.093.206 1.539.138.444.33.816.578 1.114.248.298.541.524.88.678.34.155.712.232 1.116.232a2.63 2.63 0 001.111-.232c.336-.154.625-.38.87-.678a3.25 3.25 0 00.572-1.114c.138-.446.206-.959.206-1.539zM164.359 18.806a.842.842 0 00-.2-.576 1.592 1.592 0 00-.532-.38 4.742 4.742 0 00-.762-.266 42.567 42.567 0 00-.898-.226 11.73 11.73 0 01-1.144-.367 3.471 3.471 0 01-.966-.548c-.28-.227-.5-.511-.664-.854-.164-.343-.247-.763-.247-1.261 0-.611.11-1.14.332-1.59.22-.448.52-.819.898-1.114a3.836 3.836 0 011.316-.656 5.718 5.718 0 011.585-.215 10.58 10.58 0 013.524.588v2.184a12.7 12.7 0 00-1.643-.418c-.286-.053-.57-.096-.853-.13a6.67 6.67 0 00-.801-.05c-.32 0-.591.029-.812.09-.222.06-.4.14-.538.242a.917.917 0 00-.39.763c0 .25.068.453.2.612.134.158.318.286.554.385.237.098.485.178.745.243l.755.187c.382.09.762.2 1.144.327.382.128.725.308 1.03.538.305.23.555.528.75.893.194.366.291.832.291 1.396 0 .62-.117 1.158-.355 1.618-.236.46-.566.842-.989 1.148-.423.305-.931.531-1.523.678-.59.147-1.24.22-1.95.22a9.935 9.935 0 01-1.893-.164c-.56-.109-1.025-.247-1.391-.412v-2.16a8.79 8.79 0 001.648.447c.503.08.973.119 1.408.119.335 0 .648-.024.938-.074.29-.048.539-.126.75-.232.21-.105.376-.239.497-.401a.928.928 0 00.186-.584zM176 21.973c-.306.09-.67.163-1.093.215a9.57 9.57 0 01-1.184.08c-.93 0-1.692-.149-2.282-.447-.592-.298-1.01-.726-1.254-1.284-.175-.4-.264-.942-.264-1.629v-5.677h-2.07v-2.206h2.07V7.96h2.713v3.066h3.203v2.206h-3.203v5.327c0 .423.064.736.194.94.228.347.682.52 1.361.52.312 0 .623-.024.933-.074.309-.049.6-.112.874-.187v2.215H176z"
		fill="#787C82"
	/>
	<path
		d="M39.777 26.842c-.46-.695-.887-1.388-1.316-2.052 2.265-1.359 3.03-2.445 3.03-4.498V8.429h-2.663V6.167h5.662v13.522c0 3.441-1.01 5.372-4.713 7.153zM63.494 18.753c0 1.146.826 1.267 1.377 1.267s1.347-.181 1.958-.362v2.113c-.857.272-1.744.483-2.968.483-1.47 0-3.183-.544-3.183-3.08v-6.218h-1.56v-2.143h1.56V7.645h2.816v3.169h3.55v2.143h-3.55v5.796zM69.37 27.898V10.783h2.693v1.026c1.07-.815 2.264-1.328 3.733-1.328 2.54 0 4.56 1.751 4.56 5.524 0 3.743-2.203 6.218-5.845 6.218-.887 0-1.59-.12-2.326-.272v5.916H69.37v.03zm5.691-15.122c-.826 0-1.867.392-2.846 1.238v5.826c.611.12 1.255.21 2.111.21 1.989 0 3.122-1.238 3.122-3.833 0-2.385-.827-3.441-2.387-3.441zM91.432 21.982h-2.631v-1.238h-.062c-.918.694-2.05 1.449-3.733 1.449-1.469 0-3.06-1.057-3.06-3.2 0-2.867 2.478-3.41 4.223-3.652l2.478-.332v-.331c0-1.51-.612-1.992-2.051-1.992-.704 0-2.356.21-3.703.754l-.244-2.234c1.224-.422 2.907-.724 4.315-.724 2.754 0 4.529 1.087 4.529 4.317v7.183h-.061zm-2.815-5.222l-2.327.362c-.704.09-1.438.513-1.438 1.54 0 .905.52 1.418 1.285 1.418.827 0 1.714-.483 2.478-1.026V16.76h.002zM103.061 21.62c-1.162.392-2.203.634-3.52.634-4.222 0-5.906-2.385-5.906-5.855 0-3.652 2.327-5.917 6.09-5.917 1.407 0 2.264.242 3.212.544v2.354c-.826-.302-2.02-.633-3.182-.633-1.714 0-3.182.905-3.182 3.5 0 2.868 1.468 3.744 3.335 3.744.887 0 1.867-.182 3.182-.695v2.324h-.029zM108.385 15.614c.246-.272.43-.544 3.978-4.8h3.672l-4.59 5.313 5.018 5.885h-3.672l-4.376-5.312v5.312h-2.814V6.166h2.816v9.448h-.032zM57.006 21.62a13.455 13.455 0 01-4.193.634c-3.611 0-5.845-1.78-5.845-5.947 0-3.049 1.898-5.826 5.539-5.826 3.61 0 4.866 2.475 4.866 4.83 0 .784-.062 1.207-.092 1.659H50c.061 2.444 1.469 3.018 3.58 3.018 1.162 0 2.203-.271 3.397-.694v2.324h.03v.002zm-2.57-6.49c0-1.359-.46-2.536-1.958-2.536-1.407 0-2.264.996-2.448 2.536h4.406z"
		fill="#000"
	/>
	<path
		d="M15.714 0C7.047 0 0 6.951 0 15.5S7.047 31 15.714 31c8.667 0 15.715-6.951 15.715-15.5S24.38 0 15.714 0zm-.81 18.073H7.078l7.828-15.026v15.026zm1.59 9.85V12.898h7.827l-7.827 15.027z"
		fill="#069E08"
	/>
</svg>
