<svg fill="none" height="50" viewBox="0 0 280 50" width="280" xmlns="http://www.w3.org/2000/svg">
	<path d="m207.34 21.2106c.764.1108 1.447.3141 2.051.6099.616.2957 1.14.6776 1.571 1.1458.444.4559.782 1.0042 1.017 1.6449.234.6284.351 1.3492.351 2.1624 0 .5791-.087 1.189-.259 1.8297-.173.6284-.462 1.2444-.869 1.8482-.394.5914-.918 1.1397-1.571 1.6449-.64.5051-1.441.9179-2.402 1.2383-.74.2464-1.559.4189-2.458.5174-.9.0986-1.978.1479-3.235.1479h-6.394v-24.72872h6.173c.566 0 1.078.01232 1.534.03696.468.01232.893.03697 1.275.07393.394.03696.758.08625 1.09.14785.333.04929.647.1109.943.18482.776.20946 1.478.49906 2.107.86866.64.3573 1.183.7885 1.626 1.2937.444.5052.783 1.0781 1.017 1.7188.246.6407.369 1.3369.369 2.0885 0 .6037-.074 1.1828-.222 1.7373-.135.5544-.363 1.0658-.683 1.534-.308.4682-.715.8871-1.22 1.2567-.493.3697-1.097.6777-1.811.9241zm-4.602-1.2383c.591 0 1.102-.0247 1.534-.074.431-.0616.819-.1478 1.164-.2587.924-.308 1.596-.7886 2.015-1.4416.431-.653.646-1.4231.646-2.3102 0-.9118-.221-1.6572-.665-2.2363s-1.14-1.0104-2.088-1.2938c-.469-.1355-1.011-.2279-1.627-.2772-.616-.0616-1.343-.0924-2.181-.0924h-3.382v7.9842zm-4.584 2.7168v8.5941h3.641c.863 0 1.663-.037 2.403-.1109.739-.0863 1.367-.2156 1.885-.3881.567-.1849 1.047-.419 1.441-.7024.395-.2957.709-.616.943-.961.246-.3573.419-.7331.518-1.1274.11-.3943.166-.7947.166-1.2013 0-.4682-.056-.9056-.166-1.3122-.111-.419-.296-.7886-.555-1.1089-.246-.3327-.579-.6223-.998-.8687-.407-.2464-.918-.4374-1.534-.5729-.37-.0863-.795-.1479-1.275-.1849-.468-.0369-1.054-.0554-1.756-.0554z" fill="#000"/>
	<path d="m229.338 25.2396c0-1.0843-.135-2.0453-.406-2.8832-.259-.8501-.629-1.5648-1.109-2.1439-.469-.5914-1.029-1.0349-1.682-1.3307-.653-.308-1.368-.462-2.144-.462s-1.491.154-2.144.462c-.653.2958-1.22.7393-1.7 1.3307-.468.5791-.838 1.2938-1.109 2.1439-.259.8379-.388 1.7989-.388 2.8832 0 1.0719.129 2.033.388 2.8832.271.8378.647 1.5463 1.127 2.1254.481.5791 1.048 1.0226 1.701 1.3307.653.2957 1.367.4435 2.143.4435.777 0 1.485-.1478 2.126-.4435.653-.3081 1.213-.7516 1.682-1.3307.48-.5791.85-1.2876 1.109-2.1254.271-.8502.406-1.8113.406-2.8832zm2.994 0c0 1.38-.197 2.6367-.591 3.7703-.394 1.1335-.955 2.1069-1.682 2.9201-.715.8009-1.583 1.4231-2.606 1.8667s-2.168.6653-3.438.6653c-1.306 0-2.476-.2217-3.511-.6653-1.023-.4436-1.898-1.0658-2.625-1.8667-.714-.8132-1.262-1.7866-1.644-2.9201-.382-1.1336-.573-2.3903-.573-3.7703 0-1.3923.197-2.6552.591-3.7888.394-1.1335.949-2.1069 1.663-2.9201.727-.8132 1.602-1.4416 2.625-1.8852 1.035-.4435 2.187-.6653 3.456-.6653 1.294 0 2.458.2218 3.493.6653 1.035.4436 1.91 1.072 2.624 1.8852.715.8132 1.263 1.7866 1.645 2.9201.382 1.1336.573 2.3965.573 3.7888z" fill="#000"/>
	<path d="m248.953 25.2396c0-1.0843-.136-2.0453-.407-2.8832-.259-.8501-.628-1.5648-1.109-2.1439-.468-.5914-1.029-1.0349-1.682-1.3307-.653-.308-1.367-.462-2.144-.462-.776 0-1.491.154-2.144.462-.653.2958-1.219.7393-1.7 1.3307-.468.5791-.838 1.2938-1.109 2.1439-.259.8379-.388 1.7989-.388 2.8832 0 1.0719.129 2.033.388 2.8832.271.8378.647 1.5463 1.128 2.1254.48.5791 1.047 1.0226 1.7 1.3307.653.2957 1.368.4435 2.144.4435s1.485-.1478 2.125-.4435c.653-.3081 1.214-.7516 1.682-1.3307.481-.5791.85-1.2876 1.109-2.1254.271-.8502.407-1.8113.407-2.8832zm2.994 0c0 1.38-.197 2.6367-.592 3.7703-.394 1.1335-.955 2.1069-1.682 2.9201-.714.8009-1.583 1.4231-2.606 1.8667-1.022.4436-2.168.6653-3.437.6653-1.306 0-2.477-.2217-3.512-.6653-1.022-.4436-1.897-1.0658-2.624-1.8667-.715-.8132-1.263-1.7866-1.645-2.9201-.382-1.1336-.573-2.3903-.573-3.7703 0-1.3923.197-2.6552.591-3.7888.395-1.1335.949-2.1069 1.664-2.9201.727-.8132 1.602-1.4416 2.624-1.8852 1.035-.4435 2.187-.6653 3.456-.6653 1.294 0 2.458.2218 3.493.6653 1.035.4436 1.91 1.072 2.625 1.8852.714.8132 1.263 1.7866 1.645 2.9201.382 1.1336.573 2.3965.573 3.7888z" fill="#000"/>
	<path d="m257.755 21.1181c0 .4806.105.8749.314 1.1829.21.308.487.5606.832.7577.357.1849.764.3389 1.22.4621.468.1232.949.2341 1.441.3327.678.1478 1.319.3142 1.923.499.603.1725 1.158.4374 1.663.7947.517.3573.93.844 1.238 1.4601.321.6037.481 1.3923.481 2.3656 0 .8872-.173 1.6757-.518 2.3657-.345.6777-.831 1.2506-1.46 1.7188-.628.4559-1.38.8009-2.255 1.035-.874.2464-1.835.3696-2.883.3696-.641 0-1.226-.0369-1.756-.1108-.517-.0617-.979-.1479-1.386-.2588-.394-.0986-.733-.2033-1.016-.3142-.284-.1109-.518-.2156-.703-.3142v-2.4026c.74.2957 1.473.5298 2.2.7023s1.528.2587 2.402.2587c.69 0 1.313-.0616 1.867-.1848.555-.1232 1.029-.3018 1.423-.536.407-.2464.715-.5482.924-.9056.222-.3696.333-.7947.333-1.2752 0-.4929-.099-.8995-.296-1.2198-.197-.3204-.462-.5853-.794-.7947-.333-.2095-.721-.382-1.165-.5175-.431-.1356-.887-.2588-1.367-.3697-.629-.1355-1.27-.2957-1.923-.4805-.64-.1848-1.226-.4436-1.755-.7762-.53-.3327-.961-.7824-1.294-1.3492-.32-.5791-.481-1.3184-.481-2.2178 0-.9241.167-1.725.499-2.4027.333-.6776.783-1.2383 1.35-1.6818.566-.4436 1.226-.7763 1.977-.998.752-.2218 1.546-.3327 2.384-.3327.974 0 1.873.0924 2.699.2772.837.1848 1.595.4189 2.273.7023v2.4396c-.739-.2834-1.491-.5113-2.255-.6838-.751-.1848-1.528-.2834-2.329-.2957-.677 0-1.256.0678-1.737.2033-.48.1355-.875.3265-1.183.5729-.308.2341-.536.5175-.684.8502-.135.3204-.203.6777-.203 1.0719z" fill="#000"/>
	<path d="m279.902 34.037c-.247.0985-.623.1909-1.128.2772-.505.0862-1.109.1355-1.811.1478-.924 0-1.725-.117-2.403-.3511-.677-.2218-1.244-.5421-1.7-.9611-.444-.4312-.776-.9487-.998-1.5524-.222-.6038-.333-1.2753-.333-2.0146v-10.6825h-3.382v-2.4581h3.382v-4.8052h2.865v4.8052h5.249v2.4581h-5.249v10.239c0 .4066.055.7824.166 1.1274.124.345.308.6468.555.9056.259.2464.585.4435.979.5914.395.1355.869.2033 1.423.2033.382 0 .783-.0308 1.202-.0924.431-.0616.825-.1417 1.183-.2403z" fill="#000"/><path d="m24.9855 49.9692c13.799 0 24.9855-11.1865 24.9855-24.9855 0-13.7991-11.1865-24.9837-24.9855-24.9837s-24.9855 11.1865-24.9855 24.9855 11.1865 24.9837 24.9855 24.9837z" fill="#069e08"/>
	<path d="m26.2256 20.7892v24.2213l12.4927-24.2213z" fill="#fff"/>
	<path d="m23.6976 29.1337v-24.17511l-12.4447 24.17511z" fill="#fff"/>
	<g fill="#000">
		<path d="m64.512 41.4821c-.7161-1.0972-1.3822-2.1925-2.0501-3.2416 3.5284-2.1462 4.72-3.8614 4.72-7.1048v-18.7392h-4.1483v-3.57462h8.8219v21.36092c0 5.436-1.5727 8.487-7.3435 11.2993z"/>
		<path d="m101.467 28.7045c0 1.8113 1.287 2.0019 2.146 2.0019.858 0 2.098-.2868 3.051-.5717v3.3378c-1.336.4293-2.718.7623-4.626.7623-2.2885 0-4.9584-.8585-4.9584-4.8643v-9.8228h-2.4312v-3.386h2.4312v-5.0048h4.3874v5.0067h5.53v3.3859h-5.53z"/>
		<path d="m110.621 43.151v-27.0355h4.196v1.6208c1.669-1.2878 3.529-2.0982 5.818-2.0982 3.957 0 7.104 2.7661 7.104 8.7257 0 5.9133-3.432 9.8229-9.106 9.8229-1.383 0-2.48-.1906-3.625-.4293v9.3455h-4.387zm8.868-23.8883c-1.288 0-2.908.6198-4.435 1.9557v9.2031c.953.1905 1.956.333 3.29.333 3.099 0 4.864-1.9557 4.864-6.0558 0-3.7671-1.288-5.436-3.719-5.436z"/>
		<path d="m144.998 33.8055h-4.1v-1.9557h-.096c-1.43 1.0972-3.195 2.2888-5.817 2.2888-2.289 0-4.768-1.6689-4.768-5.0549 0-4.5293 3.861-5.3878 6.579-5.769l3.862-.5236v-.5236c0-2.385-.953-3.1472-3.196-3.1472-1.097 0-3.671.333-5.769 1.1915l-.381-3.5284c1.908-.6679 4.529-1.1434 6.724-1.1434 4.291 0 7.057 1.717 7.057 6.8181v11.3474zm-4.387-8.2483-3.624.5717c-1.097.1425-2.241.8104-2.241 2.4312 0 1.4303.811 2.2407 2.002 2.2407 1.288 0 2.67-.7623 3.862-1.6208v-3.6228z"/>
		<path d="m163.118 33.2338c-1.812.6198-3.432 1.001-5.484 1.001-6.58 0-9.203-3.7671-9.203-9.2493 0-5.769 3.624-9.3455 9.488-9.3455 2.192 0 3.528.3811 5.006.8585v3.7189c-1.287-.4773-3.147-1.0009-4.958-1.0009-2.67 0-4.959 1.4302-4.959 5.5303 0 4.5294 2.289 5.9133 5.197 5.9133 1.383 0 2.909-.2867 4.959-1.0971v3.6708z"/>
		<path d="m171.415 23.7458c.381-.4292.668-.8585 6.198-7.5822h5.721l-7.153 8.3926 7.819 9.2974h-5.721l-6.818-8.3926v8.3926h-4.385v-25.03173h4.387v14.92393z"/>
		<path d="m91.3568 33.2338c-2.2887.716-4.2444 1.001-6.5332 1.001-5.6265 0-9.1068-2.8124-9.1068-9.3936 0-4.8162 2.9567-9.2031 8.6295-9.2031 5.6265 0 7.5822 3.9096 7.5822 7.6285 0 1.2397-.0962 1.9076-.1425 2.6218h-11.3474c.0962 3.8614 2.2887 4.768 5.5784 4.768 1.8114 0 3.4322-.4292 5.2935-1.0972v3.6709h.0463zm-4.0039-10.2521c0-2.1463-.716-4.0058-3.051-4.0058-2.1926 0-3.5284 1.5727-3.8152 4.0058z"/>
	</g>
</svg>
