<svg xmlns="http://www.w3.org/2000/svg" xmlns:xlink="http://www.w3.org/1999/xlink" version="1.1" x="0" y="0" viewBox="0 0 309.5 186.4" xml:space="preserve" enable-background="new 0 0 309.5 186.4"><style type="text/css">
	.st0{fill:#2A3D45;}
	.st1{fill:#629F43;}
	.st2{fill:#FFFFFF;}
	.st3{fill:#ABB2B5;}
	.st4{fill:#F0EFEF;}
	.st5{opacity:0.3;fill:#ABB2B5;}
	.st6{fill:#C4D8AC;}
</style><path class="st0" d="M294.5 155.2h-2c0-18.2-14.8-33.1-33.1-33.1s-33.1 14.8-33.1 33.1h-2c0-19.3 15.7-35.1 35.1-35.1S294.5 135.9 294.5 155.2z"/><path class="st1" d="M293.5 185.3L293.5 185.3v-30.1l0 0c8.3 0 15 6.7 15 15v0C308.5 178.6 301.8 185.3 293.5 185.3z"/><path class="st0" d="M293.5 186.3h-1v-32.1h1c8.8 0 16 7.2 16 16C309.5 179.1 302.3 186.3 293.5 186.3zM294.5 156.3v28c7.3-0.5 13-6.6 13-14S301.7 156.8 294.5 156.3z"/><rect x="270.1" y="184.3" class="st0" width="23.4" height="2"/><path class="st2" d="M271.9 185.3h-5.8c-1.3 0-2.3-1-2.3-2.3v0c0-1.3 1-2.3 2.3-2.3h5.8c1.3 0 2.3 1 2.3 2.3v0C274.2 184.3 273.2 185.3 271.9 185.3z"/><path class="st0" d="M271.9 186.3h-5.8c-1.8 0-3.3-1.5-3.3-3.3s1.5-3.3 3.3-3.3h5.8c1.8 0 3.3 1.5 3.3 3.3S273.8 186.3 271.9 186.3zM266.2 181.7c-0.7 0-1.3 0.6-1.3 1.3 0 0.7 0.6 1.3 1.3 1.3h5.8c0.7 0 1.3-0.6 1.3-1.3 0-0.7-0.6-1.3-1.3-1.3H266.2z"/><rect x="286" y="155.2" class="st2" width="7.5" height="30.1"/><path class="st0" d="M294.5 186.3H285v-32.1h9.5V186.3zM287 184.3h5.5v-28.1H287V184.3z"/><path class="st0" d="M270.6 79.5l-5.8-6h-19.1c-3.2 0-5.8-2.6-5.8-5.8V31c0-3.2 2.6-5.8 5.8-5.8h50.1c3.2 0 5.8 2.6 5.8 5.8v36.6c0 3.2-2.6 5.8-5.8 5.8h-19.5L270.6 79.5zM245.8 27.2c-2.1 0-3.8 1.7-3.8 3.8v36.6c0 2.1 1.7 3.8 3.8 3.8h20l4.9 5.1 4.9-5.1h20.4c2.1 0 3.8-1.7 3.8-3.8V31c0-2.1-1.7-3.8-3.8-3.8H245.8z"/><rect x="249.8" y="38.3" class="st3" width="42.1" height="2"/><rect x="249.8" y="47.4" class="st3" width="42.1" height="2"/><rect x="249.8" y="56.5" class="st3" width="42.1" height="2"/><rect x="256.6" y="26.2" class="st4" width="5.3" height="46.3"/><path class="st0" d="M51.5 83.4H39.6v-6.6c-1.1-0.3-2.1-0.8-3.1-1.3l-4.7 4.7 -8.4-8.4L28 67c-0.5-1-1-2.1-1.3-3.1h-6.6V52h6.6c0.3-1.1 0.8-2.1 1.3-3.1l-4.7-4.7 8.4-8.4 4.7 4.7c1-0.5 2.1-1 3.1-1.3v-6.6h11.9v6.6c1.1 0.3 2.1 0.8 3.1 1.3l4.7-4.7 8.4 8.4L63 48.9c0.5 1 1 2.1 1.3 3.1h6.6v11.9h-6.6C64 65 63.5 66 63 67l4.7 4.7 -8.4 8.4 -4.7-4.7c-1 0.5-2.1 1-3.1 1.3V83.4zM41.6 81.4h7.9v-6.1l0.7-0.2c1.4-0.4 2.8-1 4.1-1.7L55 73l4.3 4.3 5.6-5.6 -4.3-4.3 0.4-0.7c0.7-1.3 1.3-2.7 1.7-4.1l0.2-0.7h6.1V54h-6.1l-0.2-0.7c-0.4-1.4-1-2.8-1.7-4.1l-0.4-0.7 4.3-4.3 -5.6-5.6L55 42.9l-0.7-0.4c-1.3-0.7-2.7-1.3-4.1-1.7l-0.7-0.2v-6.1h-7.9v6.1l-0.7 0.2c-1.4 0.4-2.8 1-4.1 1.7l-0.7 0.4 -4.3-4.3 -5.6 5.6 4.3 4.3 -0.4 0.7c-0.7 1.3-1.3 2.7-1.7 4.1L28.2 54h-6.1v7.9h6.1l0.2 0.7c0.4 1.4 1 2.8 1.7 4.1l0.4 0.7 -4.3 4.3 5.6 5.6 4.3-4.3 0.7 0.4c1.3 0.7 2.7 1.3 4.1 1.7l0.7 0.2V81.4z"/><path class="st1" d="M26.5 24.2c0-0.7-0.1-1.4-0.2-2.1l3.1-2.6 -3.3-5.6 -3.8 1.4c-1.1-0.9-2.3-1.6-3.7-2.1l-0.7-3.9h-6.5l-0.7 3.9c-1.4 0.5-2.6 1.2-3.7 2.1l-3.8-1.4L0 19.5l3.1 2.6c-0.1 0.7-0.2 1.4-0.2 2.1 0 0.7 0.1 1.4 0.2 2.1L0 28.9l3.3 5.6L7 33.2c1.1 0.9 2.3 1.6 3.7 2.1l0.7 3.9h6.5l0.7-3.9c1.4-0.5 2.6-1.2 3.7-2.1l3.8 1.4 3.3-5.6 -3.1-2.6C26.4 25.7 26.5 24.9 26.5 24.2z"/><rect x="40.6" y="33.5" class="st4" width="6.2" height="48.8"/><path class="st0" d="M45.5 64.8c-3.8 0-6.8-3.1-6.8-6.8s3.1-6.8 6.8-6.8 6.8 3.1 6.8 6.8S49.3 64.8 45.5 64.8zM45.5 53.1c-2.7 0-4.8 2.2-4.8 4.8s2.2 4.8 4.8 4.8 4.8-2.2 4.8-4.8S48.2 53.1 45.5 53.1z"/><circle class="st2" cx="14.7" cy="24.2" r="3.6"/><path class="st2" d="M249.9 185.3H47V7.7C47 4 50.1 1 53.8 1h196.1c3.7 0 6.7 3 6.7 6.7v170.8C256.6 182.3 253.6 185.3 249.9 185.3z"/><path class="st0" d="M249.9 186.3H46V7.7C46 3.5 49.5 0 53.8 0h196.1c4.3 0 7.7 3.5 7.7 7.7v170.8C257.6 182.8 254.2 186.3 249.9 186.3zM48 184.3h201.9c3.2 0 5.7-2.6 5.7-5.7V7.7c0-3.2-2.6-5.7-5.7-5.7H53.8C50.6 2 48 4.6 48 7.7V184.3z"/><path class="st5" d="M53.8 179.3c-0.4 0-0.7-0.3-0.7-0.7V23.7h197.6v154.9c0 0.4-0.3 0.7-0.7 0.7H53.8z"/><rect x="65.7" y="153.5" class="st2" width="75.8" height="2"/><rect x="65.7" y="144.3" class="st2" width="75.8" height="2"/><rect x="65.7" y="135.2" class="st2" width="75.8" height="2"/><rect x="65.7" y="126.1" class="st2" width="75.8" height="2"/><rect x="65.7" y="162.6" class="st0" width="75.8" height="2"/><circle class="st0" cx="129.1" cy="136" r="2.5"/><circle class="st1" cx="115.4" cy="145" r="2.5"/><circle class="st6" cx="102.6" cy="126.8" r="2.5"/><path class="st2" d="M166.8 89.7c0-16.9 13.7-30.7 30.7-30.7s30.7 13.7 30.7 30.7"/><path class="st2" d="M232.7 89.7h-9c0-14.4-11.7-26.2-26.2-26.2s-26.2 11.7-26.2 26.2h-9c0-19.4 15.8-35.2 35.2-35.2C216.9 54.5 232.7 70.3 232.7 89.7z"/><rect x="159.6" y="89.7" class="st0" width="75.8" height="2"/><rect x="74.2" y="71.1" class="st2" width="15" height="19.7"/><rect x="96.1" y="45.8" class="st1" width="15" height="45"/><rect x="117.9" y="60.9" class="st2" width="15" height="29.8"/><rect x="47" y="16.7" class="st0" width="209.6" height="2"/><path class="st0" d="M55.2 10.8c-0.1 0-0.2 0-0.3 0 -0.1 0-0.2 0-0.3-0.1 -0.1 0-0.2-0.1-0.3-0.1 -0.1-0.1-0.2-0.1-0.2-0.2 -0.3-0.3-0.4-0.7-0.4-1.1 0-0.4 0.2-0.8 0.4-1.1 0.1-0.1 0.2-0.1 0.2-0.2C54.4 8 54.5 8 54.6 7.9c0.1 0 0.2-0.1 0.3-0.1 0.5-0.1 1 0.1 1.4 0.4 0.3 0.3 0.4 0.7 0.4 1.1 0 0.4-0.2 0.8-0.4 1.1C55.9 10.7 55.6 10.8 55.2 10.8z"/><path class="st0" d="M61.4 9.3c0-0.8 0.7-1.5 1.5-1.5l0 0c0.8 0 1.5 0.7 1.5 1.5l0 0c0 0.8-0.7 1.5-1.5 1.5l0 0C62 10.8 61.4 10.2 61.4 9.3z"/><path class="st0" d="M70.6 10.8c-0.1 0-0.2 0-0.3 0 -0.1 0-0.2 0-0.3-0.1 -0.1 0-0.2-0.1-0.3-0.1 -0.1-0.1-0.2-0.1-0.2-0.2 -0.1-0.1-0.1-0.2-0.2-0.2 -0.1-0.1-0.1-0.2-0.1-0.3s-0.1-0.2-0.1-0.3c0-0.1 0-0.2 0-0.3s0-0.2 0-0.3c0-0.1 0-0.2 0.1-0.3 0-0.1 0.1-0.2 0.1-0.3 0.1-0.1 0.1-0.2 0.2-0.2 0.1-0.1 0.1-0.1 0.2-0.2C69.8 8 69.9 8 70 7.9c0.1 0 0.2-0.1 0.3-0.1 0.2 0 0.4 0 0.6 0 0.1 0 0.2 0.1 0.3 0.1 0.1 0 0.2 0.1 0.2 0.1 0.1 0.1 0.2 0.1 0.2 0.2 0.1 0.1 0.1 0.1 0.2 0.2s0.1 0.2 0.1 0.3C72 8.9 72 8.9 72 9c0 0.1 0 0.2 0 0.3s0 0.2 0 0.3c0 0.1 0 0.2-0.1 0.3s-0.1 0.2-0.1 0.3c0 0.1-0.1 0.2-0.2 0.2C71.3 10.7 71 10.8 70.6 10.8z"/><rect x="65.7" y="89.7" class="st0" width="75.8" height="2"/><path class="st1" d="M213 62.8l-3 5.1c7.5 4.3 12.5 12.4 12.5 21.7h5.9C228.5 78.2 222.2 68.2 213 62.8z"/><path class="st4" d="M166.5 89.7h5.9c0-9.3 5-17.4 12.5-21.7l-3.2-5C172.6 68.4 166.5 78.3 166.5 89.7z"/><path class="st6" d="M197.5 58.7c-5.7 0-11.1 1.6-15.7 4.3l3.2 5c3.7-2.1 8-3.4 12.5-3.4 4.6 0 8.8 1.2 12.5 3.4l3-5.1C208.4 60.2 203.1 58.7 197.5 58.7z"/><rect x="197.3" y="80.6" transform="matrix(0.8186 -0.5744 0.5744 0.8186 -8.8839 135.045)" class="st0" width="24.2" height="2"/><path class="st0" d="M193.6 89.7c0-2.2 1.7-3.9 3.9-3.9 2.2 0 3.9 1.7 3.9 3.9"/><path class="st2" d="M179 159.7c-4.6 0-8.4-3.8-8.4-8.4v-1c0-4.6 3.8-8.4 8.4-8.4h1.5c-0.4-1-0.6-2-0.6-3.2 0-4.4 3.6-8.1 8.1-8.1 1.3 0 2.6 0.3 3.7 0.9 0-0.1 0-0.3 0-0.4 0-6.4 5.2-11.7 11.7-11.7s11.7 5.2 11.7 11.7c0 1.6-0.3 3.1-0.9 4.5 5.9 0.8 10.5 5.9 10.5 12v0c0 6.6-5.4 12.1-12.1 12.1H179z"/><rect x="197.3" y="147.7" class="st0" width="2" height="15.9"/><path class="st0" d="M192.2 148.4l6.1-8.6 6.1 8.6H192.2z"/><rect x="187.9" y="162.6" class="st0" width="20.9" height="2"/><path class="st4" d="M52.1 106.5c-2 0-5.1 0-5.1 0s-14.8 13.3-26 14.9c-0.8 3.8-1.2 7.7-1.2 11.7 0 22.9 13.1 42.6 32.3 52.2 19.1-9.6 32.3-29.4 32.3-52.2 0-4-0.4-7.9-1.2-11.7C71.3 119.7 60.5 114.3 52.1 106.5z"/><path class="st4" d="M52.1 186.4l-0.4-0.2c-20.2-10.2-32.8-30.5-32.8-53.1 0-4 0.4-8 1.2-11.9l0.1-0.7 0.7-0.1c10.8-1.6 25.3-14.5 25.5-14.7l0.3-0.3h5.8l0.3 0.3c8.5 7.9 19.1 13 30.5 14.7l0.7 0.1 0.1 0.7c0.8 3.9 1.2 7.9 1.2 11.9 0 22.6-12.6 43-32.8 53.1L52.1 186.4zM21.9 122.3c-0.7 3.6-1 7.2-1 10.8 0 21.7 12 41.2 31.3 51.1 19.3-9.9 31.3-29.4 31.3-51.1 0-3.6-0.3-7.2-1-10.8 -11.4-1.8-22-6.9-30.6-14.8h-4.3C45.3 109.4 32.4 120.3 21.9 122.3z"/><path class="st2" d="M47 106.5c-8.4 7.8-19.2 13.2-31.1 14.9 -0.8 3.8-1.2 7.7-1.2 11.7 0 22.9 11.5 42.6 30.6 52.2 19.1-9.6 33.9-29.4 33.9-52.2 0-4-0.4-7.9-1.2-11.7C66.1 119.7 55.4 114.3 47 106.5z"/><path class="st0" d="M53.1 145.2h-2v-9.6c0-2.2-1.8-4-4-4s-4 1.8-4 4v9.6h-2v-9.6c0-3.3 2.7-6 6-6s6 2.7 6 6V145.2z"/><rect x="37.7" y="138.3" class="st1" width="18.5" height="16.9"/><path class="st0" d="M48.9 145.2c0-1.1-0.9-1.9-1.9-1.9 -1.1 0-1.9 0.9-1.9 1.9 0 0.7 0.4 1.4 1 1.7v3.3h1.9v-3.3C48.5 146.6 48.9 145.9 48.9 145.2z"/><path class="st0" d="M45.3 186.4l-0.4-0.2c-19.5-9.8-31.2-29.7-31.2-53.1 0-4 0.4-8 1.2-11.9l0.1-0.7 0.7-0.1c11.4-1.7 22-6.8 30.5-14.7l0.7-0.6 0.7 0.6c8.5 7.9 19.1 13 30.5 14.7l0.7 0.1 0.1 0.7c0.8 3.9 1.2 7.9 1.2 11.9 0 21.8-13.5 42.6-34.5 53.1L45.3 186.4zM16.7 122.3c-0.7 3.6-1 7.2-1 10.8 0 22.5 11.1 41.6 29.6 51.1 20-10.2 32.9-30.2 32.9-51.1 0-3.6-0.3-7.2-1-10.8 -11.3-1.8-21.7-6.8-30.2-14.4C38.4 115.5 28 120.5 16.7 122.3z"/></svg>