<svg id="plan-business" xmlns="http://www.w3.org/2000/svg" viewBox="0 0 1495.1 1495.1"><style>.st1{fill:#c879cc}.st3{fill:#204a69}</style><path d="M747.5 0C334.7 0 0 334.7 0 747.5S334.7 1495 747.5 1495 1495 1160.3 1495 747.5 1160.4 0 747.5 0zM556.8 450.2V715H292c0-145.2 119.5-264.8 264.8-264.8zm632 215.8c-.4 0-.8-.1-1.2-.1l-39.7 58.9v41.8c.7 0 1.3.6 1.3 1.3.9 45.2 2.3 90.4 2.8 135.6 0 2.2-1.7 4-4 4h-.1c-61.5 1.1-122.9 1.7-184.4 2.1l-99.8.5c1.2-2.2 2.5-4.4 3.6-6.6l-3.6 6.6-84.5.3c-3.8 0-6.9-3.1-6.9-6.9 0 3.8 3.1 6.9 6.9 6.9l84.5-.3c-45.7 80.2-132.1 134.8-230.3 134.8-145.3 0-264.8-119.6-264.8-264.8h264.8l-6-264.8c2 0 4-.1 6-.1 49 0 97 13.7 138.5 39.6 2.4 1.5 4.8 3 7.2 4.6-2.4-1.6-4.7-3.1-7.1-4.6l.2-100.7c0-3.8 3.1-6.9 6.9-7l184.4.7 184.4 1.4h.1c2.7 0 4.8 2.2 4.8 4.8l-.8 94.4-1.4 94.4c-.1 1.3-1.1 2.4-2.5 2.5h-.2v55.9l28.6-42.3c-1.3-2.2-2-4.7-2-7.3 0-7.9 6.4-14.3 14.3-14.3s14.3 6.4 14.3 14.3-6.4 14.4-14.3 14.4z" fill="#f4e4f7"/><path class="st1" d="M556.8 450.2C411.5 450.2 292 569.8 292 715h264.8V450.2z"/><path d="M1087.2 815.9c0 6.7-4.6 12.5-11.1 13.9-7.7 1.8-15.4-3.1-17.2-10.8l-76.4-58.6c-4 3.4-9.6 4.3-14.5 2.3l-56.7 83.4c1.5 2.3 2.4 5.1 2.4 7.9 0 7.9-6.4 14.4-14.3 14.4S885 862 885 854.1s6.4-14.4 14.3-14.4h.4l59.5-87.5c-.1-.4-.2-.9-.2-1.4-.9-7.9 4.8-15 12.7-15.8s15 4.8 15.8 12.7l75.4 57.8c4.3-4.2 10.8-5.2 16.2-2.5l68.7-101.8v-55.9c-1.4 0-2.5-1.1-2.6-2.5l-1.4-94.4-.8-89.4-179.5 1.4-177.4.6.3 103.4c-2.4-1.7-4.8-3.4-7.3-5 2.4 1.6 4.8 3.3 7.2 5l.3 114.4-.6 217.8 84.6.3c-1.1 2.2-2.2 4.4-3.4 6.6 1.1-2.2 2.3-4.3 3.4-6.5l92.8.4c60.1.4 120.2.9 180.4 2 .5-43.8 1.8-87.6 2.7-131.5 0-.7.6-1.3 1.3-1.3v-41.8l-60.7 89.9c.1.3.1.8.1 1.2zm-3.1-142.2c-.1 1.2-1.1 2.2-2.4 2.4-39.5 4.5-79 4-118.4 4.8-19.7.1-39.5-.3-59.2-.8s-39.5-1.9-59.2-5.3c-.7-.1-1.2-.8-1.1-1.6.1-.6.5-1 1.1-1.1 19.7-3.5 39.5-4.7 59.2-5.3s39.5-.9 59.2-.8c39.5.8 79 .3 118.4 4.8 1.5.1 2.6 1.4 2.4 2.9zM843.9 535.9c.1-.5.5-.9 1-1 16.5-3.5 33.1-4.7 49.6-5.3s33.1-.9 49.6-.8c33.1.8 66.1.3 99.2 4.8 1.5.2 2.5 1.5 2.3 3-.2 1.2-1.1 2.1-2.3 2.3-33.1 4.5-66.1 4-99.2 4.8-16.5.1-33.1-.3-49.6-.8s-33.1-1.9-49.6-5.3c-.7-.3-1.2-1-1-1.7zm-5.3 67c.1-.6.5-1 1.1-1.1 20.2-3.5 40.3-4.7 60.5-5.3s40.3-.9 60.5-.8c40.3.8 80.7.3 121 4.8 1.5.2 2.5 1.5 2.4 2.9-.1 1.2-1.1 2.2-2.4 2.4-40.3 4.5-80.7 4-121 4.8-20.2.1-40.3-.3-60.5-.8s-40.3-1.9-60.5-5.3c-.7-.2-1.2-.9-1.1-1.6zm17.5 142.2c-5.5-.6-11-1.8-16.4-5.3-.7-.5-.9-1.4-.5-2.2.1-.2.3-.3.5-.5 5.5-3.5 11-4.7 16.4-5.3 5.5-.6 10.9-.9 16.4-.8 5.5.2 11 .5 16.4 1 5.6.5 11.2 1.8 16.4 3.8 1.5.6 2.1 2.3 1.5 3.7-.3.7-.8 1.2-1.5 1.5-5.3 2.1-10.8 3.4-16.4 3.8-5.5.5-11 .9-16.4 1-5.4.2-10.9-.1-16.4-.7z" fill="#fff"/><path class="st1" d="M771.5 678.8l.3-124a262.09 262.09 0 0 0-138.5-39.6c-2 0-4 0-6 .1l6 264.8H368.5c0 145.3 119.5 264.8 264.8 264.8 98.2 0 184.5-54.6 230.3-134.8l-84.5.3c-3.8 0-6.9-3-6.9-6.9v-.1l-.7-224.6z"/><path class="st3" d="M1149.1 767.8c0-.7-.6-1.3-1.3-1.3-.7 0-1.3.6-1.3 1.3-.9 43.8-2.2 87.7-2.7 131.5-60.1-1.1-120.2-1.6-180.4-2l-92.8-.4c-1.1 2.2-2.2 4.4-3.4 6.5l-3.6 6.6 99.8-.5c61.5-.5 122.9-1 184.4-2.1h.1c2.2 0 4-1.8 4-4-.5-45.2-1.9-90.4-2.8-135.6zM779 559.4c2.5 1.6 4.9 3.3 7.3 5L786 461l177.4-.6L1143 459l.8 89.4 1.4 94.4c.1 1.4 1.2 2.4 2.6 2.5h.2c1.3-.1 2.4-1.1 2.5-2.5l1.4-94.4.8-94.4c0-2.7-2.2-4.8-4.8-4.8h-.1l-184.4-1.4-184.4-.7c-3.8 0-6.9 3.1-6.9 7l-.2 100.7c2.4 1.5 4.8 3.1 7.1 4.6z"/><path class="st3" d="M870.6 896.9l-84.6-.3.5-217.8-.3-114.4c-2.4-1.7-4.8-3.3-7.2-5-2.4-1.6-4.8-3.1-7.2-4.6l-.3 124 .6 224.7v.1c0 3.8 3.1 6.9 6.9 6.9l84.5-.3 3.6-6.6c1.3-2.3 2.4-4.5 3.5-6.7zM843.9 535.9c-.2.7.3 1.4 1 1.6 16.5 3.5 33.1 4.8 49.6 5.3s33.1.9 49.6.8c33.1-.8 66.1-.3 99.2-4.8 1.2-.2 2.1-1.1 2.3-2.3.2-1.5-.8-2.8-2.3-3-33.1-4.5-66.2-4-99.2-4.8-16.5-.1-33.1.2-49.6.8s-33.1 1.9-49.6 5.3c-.5.1-.9.5-1 1.1zM838.6 602.9c-.1.7.4 1.4 1.1 1.6 20.2 3.5 40.3 4.8 60.5 5.3s40.4.9 60.5.8c40.3-.8 80.7-.3 121-4.8 1.2-.1 2.2-1.1 2.4-2.4.2-1.5-.9-2.8-2.4-2.9-40.3-4.5-80.6-4-121-4.8-20.2-.1-40.3.2-60.5.8s-40.4 1.9-60.5 5.3c-.6.1-1 .5-1.1 1.1zM963.3 680.8c39.4-.8 79-.3 118.4-4.8 1.2-.1 2.2-1.1 2.4-2.4.2-1.5-.9-2.8-2.4-2.9-39.4-4.5-79-4-118.4-4.8-19.7-.1-39.5.2-59.2.8s-39.5 1.9-59.2 5.3c-.6.1-1 .5-1.1 1.1-.1.7.4 1.4 1.1 1.6 19.7 3.5 39.5 4.8 59.2 5.3s39.5 1 59.2.8zM839.7 739.8c5.5 3.5 11 4.7 16.4 5.3 5.5.6 10.9.9 16.4.8 5.4-.1 11-.5 16.4-1 5.6-.5 11.2-1.8 16.4-3.8.7-.3 1.2-.8 1.5-1.5.6-1.5-.1-3.1-1.5-3.7-5.3-2.1-10.8-3.4-16.4-3.8-5.4-.5-11-.8-16.4-1-5.5 0-11 .2-16.4.8-5.4.6-10.9 1.8-16.4 5.3-.2.1-.4.3-.5.5-.4.7-.2 1.6.5 2.1zM1188.8 637.3c-7.9 0-14.3 6.4-14.4 14.3 0 2.6.7 5.1 2 7.3l-28.6 42.3-68.7 101.8c-5.4-2.6-11.8-1.6-16.2 2.5l-75.4-57.8c-.9-7.9-8-13.5-15.8-12.7s-13.5 8-12.7 15.8c.1.5.1.9.2 1.4l-59.5 87.5h-.4c-7.9 0-14.3 6.4-14.3 14.4 0 7.9 6.4 14.3 14.4 14.3 7.9 0 14.3-6.4 14.3-14.4 0-2.8-.8-5.5-2.4-7.9l56.7-83.4c4.9 2 10.5 1.1 14.5-2.3l76.4 58.6c1.8 7.7 9.5 12.6 17.2 10.8 6.5-1.5 11.1-7.3 11.1-13.9 0-.4 0-.8-.1-1.2l60.7-89.9 39.7-58.9c.4 0 .8.1 1.2.1 7.9 0 14.3-6.4 14.3-14.4.1-7.9-6.3-14.3-14.2-14.3z"/></svg>
