<svg id="plan-premium" xmlns="http://www.w3.org/2000/svg" viewBox="0 0 1498.3 1498.3"><style>.st0{fill:#d0f4e7}.st1{fill:#7bdebf}.st3{fill:#44d0a3}.st4{fill:#204a69}</style><path class="st0" d="M749.1 0C335.4 0 0 335.4 0 749.1s335.4 749.1 749.1 749.1 749.1-335.4 749.1-749.1S1162.9 0 749.1 0zm421.2 838.3l-.1 40.9c-.4 13.8.9 26.8-1.4 42.1-4.9 29.6-26.3 55.5-54.3 66-6.9 2.7-14.2 4.5-21.6 5.3-7.6.7-14.5.5-21.2.5l-31.2-.1c3.9 10.9 8.6 21.5 14.2 31.6 3.6 6.4 7.5 12.6 11.8 18.6 4.2 5.9 8.7 11.4 13.7 16.6l.2.2c1.9 1.9 2.5 4.6 1.6 7.1-1.3 3.6-5.2 5.4-8.7 4.2-67.5-23.9-134.3-49.6-199.6-79.1-85-.7-170-2-255-4.9v1.3c-28.3.4-56.4-14.9-71.1-39.4-7.6-12.2-11.8-26.1-12.3-40.4l-.1-12.5v-.1H335.4V445.7c0-6.8 5.5-12.3 12.3-12.3h620.8v239.8l72.5-.2 41-.1c15-.1 29.7 3.5 42.9 10.5 26.2 14.2 44.6 42.6 45.4 72.6.3 28 0 54.8 0 82.3z"/><path class="st1" d="M534.4 785.9c0-.1 0-.1 0 0v-5.7-.7c0-1.7 0-3.4-.1-5.2-.1-4.1-.1-8.1-.1-12.3v-.1h-72.7l120-177 69.6 89.7 62.1-.5 163.8-.8 91.2-.2h.1V433.4H347.7c-6.8 0-12.3 5.5-12.3 12.3v450.6h199.8l-.3-28.5-.5-81.9z"/><path class="st0" d="M590.3 680.1c-.2.1-.3.1-.5.2.5-.2 1-.4 1.5-.5-.3.1-.6.2-.8.3-.1-.1-.2-.1-.2 0zM593.2 679c-.2.1-.5.2-.7.2l1.8-.6c-.2 0-.3.1-.5.1-.2.2-.4.3-.6.3zM631.5 674.9l19.7-.2-16 .1zM534.4 779.4v0zM631.5 674.9c-6.8.1-13.6 0-21 .5 7.5-.5 14.2-.5 21-.5zM600 677.2c-1 .2-2 .5-3 .8-.1 0-.3.1-.4.1-.5.1-.9.3-1.4.4 2.2-.6 4.4-1.2 6.6-1.7-.3.1-.6.1-.8.2-.4 0-.7.1-1 .2zM534.3 761.9h4.7-4.7zM534.4 785.9c0-.1 0-.1 0 0 0-.1 0-.1 0 0zM587.4 681.1c-.1 0-.2.1-.3.1.1 0 .2 0 .3-.1zM534.4 774.3c-.1-4.1-.1-8.1-.1-12.3-.1 4.1 0 8.2.1 12.3zM603.1 676.5c-.1 0-.2 0-.3.1.6-.1 1.2-.2 1.7-.3-.1 0-.3 0-.4.1-.3 0-.7 0-1 .1zM606.5 675.9c-.2 0-.3.1-.5.1.5-.1 1-.2 1.5-.2h-.2c-.3 0-.6.1-.8.1z"/><path class="st1" d="M604.1 676.3c.1 0 .3 0 .4-.1.5-.1 1-.2 1.5-.2.2 0 .3-.1.5-.1-.8.1-1.6.3-2.4.4zM610.5 675.4c-1.1.1-2.1.3-3.2.4h.2c1-.2 2-.3 3-.4 7.5-.5 14.2-.5 21-.5h3.7-3.7c-6.9 0-13.6 0-21 .5zM596.9 677.9c1-.3 2-.5 3-.8-1 .3-2 .6-3 .8zM552.2 707.6c.1-.1.1-.2.2-.2l-.2.2zM589.3 680.4c-13.7 5.1-25.8 13.7-35.2 24.8-.4.5-.9 1.1-1.3 1.6 8.9-11.2 20.7-20.1 34.3-25.6.1 0 .2-.1.3-.1.7-.2 1.3-.5 1.9-.7.2-.1.3-.1.5-.2s.3-.1.5-.2c-.4.2-.7.3-1 .4zM590.4 680c.3-.1.5-.2.8-.3.4-.1.8-.3 1.2-.4.2-.1.5-.2.7-.2-.8.2-1.7.6-2.7.9zM600.9 677c.3-.1.6-.1.8-.2.4-.1.7-.2 1.1-.2.1 0 .2 0 .3-.1-.8.2-1.5.3-2.2.5zM593.8 678.9c.2-.1.3-.1.5-.1.3-.1.6-.2.8-.2.5-.1.9-.3 1.4-.4-.9.1-1.8.4-2.7.7z"/><path d="M1155.6 879.3l-.1-41-.3-81.6c-.6-24.9-15.8-48.4-37.5-60.3-11-5.9-23.3-8.9-35.8-8.8l-41-.1-72.6-.2h-.1l-91.2-.2-163.8-.8-53.4-.4-28.5-.2c-6.9-.1-13.8-.2-20 .2-6.4.6-12.6 2-18.6 4.2-12.1 4.4-22.8 11.8-31.2 21.6-8.4 9.8-14.1 21.6-16.6 34.2-.9 5.3-1.4 10.7-1.4 16.1H539h4.6c-.2 7.8.1 15.9-.1 23.9l-.5 81.9-.1 28.6v12.3c.2 13.1 3.8 25.9 10.5 37.2 13 22.8 38.8 37.5 65.2 37.7v1.3c85.5-2.9 170.9-4.2 256.4-4.9.8 0 1.6.2 2.4.5l.1.1c58.2 25.2 117.3 48.5 177 69.8l-.1-.1c-4.3-6-8.2-12.2-11.9-18.7-7.7-13.7-13.9-28.3-18.6-43.3-1-3.2.5-6.6 3.3-8.2.4-.2.8-.4 1.2-.5.7-.2 1.4-.3 2.1-.3l41-.1c6.9 0 13.7 0 19.7-.5 6.2-.7 12.2-2.2 18-4.5 2.9-1.1 5.8-2.4 8.5-3.9 19-10.4 33.1-29.7 36.5-51.2 2.2-11.9 1.1-26.3 1.4-39.8zm-187.2-62.6c3.4-1.6 7.1-2.5 11.1-2.5 14.1 0 25.5 11.4 25.5 25.5s-11.4 25.5-25.5 25.5c-4 0-7.7-.9-11.1-2.5-8.6-4.1-14.5-12.9-14.5-23s5.9-18.9 14.5-23zm-116.1-2.5c14.1 0 25.5 11.4 25.5 25.5s-11.4 25.5-25.5 25.5-25.5-11.4-25.5-25.5 11.4-25.5 25.5-25.5zm-127.2 0c14.1 0 25.5 11.4 25.5 25.5s-11.4 25.5-25.5 25.5-25.5-11.4-25.5-25.5 11.4-25.5 25.5-25.5z" fill="#fff"/><path class="st3" d="M593.2 679c.2-.1.4-.1.6-.2-.2.1-.4.2-.6.2zM635.2 674.8l16-.1zM590.3 680.1c.1 0 .1 0 .2-.1-.1 0-.2 0-.2.1zM596.5 678.1c.1 0 .3-.1.4-.1-.1 0-.2 0-.4.1zM600 677.2c.3-.1.6-.1.9-.2-.3 0-.6.1-.9.2zM534.3 761.7c0-.9 0-1.9.1-2.8-.1.9-.1 1.9-.1 2.8zM534.7 752.8c.2-2.9.6-5.7 1-8.6-.5 2.9-.8 5.8-1 8.6zM606.5 675.9c.3 0 .5-.1.8-.1-.3 0-.6.1-.8.1zM534.5 756.2c0-.9.1-1.8.2-2.7-.1.9-.2 1.8-.2 2.7zM603.1 676.5c.3-.1.7-.1 1-.2-.3.1-.7.1-1 .2z"/><path class="st3" d="M534.3 761.7c0-.9 0-1.9.1-2.8 0-.9.1-1.8.1-2.7 0-.9.1-1.8.2-2.7 0-.2 0-.5.1-.7.2-2.8.6-5.7 1-8.6v-.1c2.5-13.5 8.3-26 16.5-36.5.1-.1.1-.2.2-.2.1-.2.3-.3.4-.5.4-.5.9-1.1 1.3-1.6 9.4-11.2 21.5-19.7 35.2-24.8.3-.1.7-.2 1-.3.1 0 .1 0 .2-.1.9-.3 1.8-.6 2.8-.9.2-.1.4-.1.6-.2.9-.3 1.8-.5 2.7-.8.1 0 .3-.1.4-.1 1-.3 2-.5 3-.8.3-.1.6-.1.9-.2.7-.2 1.5-.3 2.2-.5.3-.1.7-.1 1-.2.8-.1 1.6-.3 2.3-.4.3 0 .5-.1.8-.1 1.1-.2 2.1-.3 3.2-.4 7.4-.5 14.2-.5 21-.5h3.7l16-.1-69.6-89.9-120 177h72.7v-.3z"/><path class="st4" d="M979.5 865.2c14.1 0 25.5-11.4 25.5-25.5s-11.4-25.5-25.5-25.5c-4 0-7.7.9-11.1 2.5-8.6 4.1-14.5 12.9-14.5 23s5.9 18.9 14.5 23c3.3 1.6 7.1 2.5 11.1 2.5z"/><circle class="st4" cx="852.3" cy="839.7" r="25.5"/><circle class="st4" cx="725.1" cy="839.7" r="25.5"/><path class="st4" d="M1170.3 838.3c-.1-27.5.3-54.3-.1-82.2-.8-30.1-19.2-58.4-45.4-72.6-13.2-7-27.9-10.6-42.9-10.5l-41 .1-72.5.2h-.1l-91.2.2-163.8.8-62.1.5-19.7.2c-6.8.1-13.5 0-21 .5-1 .1-2 .2-3 .4-.5.1-1 .1-1.5.2s-1 .2-1.5.2c-.6.1-1.2.2-1.7.3-.4.1-.7.1-1.1.2-2.2.5-4.4 1-6.6 1.7-.3.1-.6.2-.8.2l-1.8.6c-.4.1-.8.3-1.2.4-.5.2-1 .4-1.5.5-.1.1-.3.1-.4.2-.6.2-1.3.5-1.9.7-.1 0-.2.1-.3.1-13.6 5.5-25.4 14.4-34.3 25.6-.1.2-.3.3-.4.5-.1.1-.1.2-.2.2-8.2 10.5-14 23-16.5 36.5v.1c-.5 2.8-.8 5.7-1 8.6 0 .2 0 .5-.1.7-.1.9-.1 1.8-.2 2.7v.2c0 .8-.1 1.6-.1 2.4v.1c0 .9-.1 1.9-.1 2.8v.2h9.4c.1-5.4.5-10.8 1.4-16.1 2.5-12.6 8.2-24.4 16.6-34.2 8.4-9.8 19.1-17.2 31.2-21.6 6-2.2 12.2-3.6 18.6-4.2 6.2-.4 13.1-.3 20-.2l28.5.2 53.4.4 163.8.8 91.2.2h.1l72.6.2 41 .1c12.5-.1 24.8 2.9 35.8 8.8 21.7 11.9 36.9 35.4 37.5 60.3l.3 81.6.1 41c-.3 13.5.8 27.9-1.1 39.6-3.4 21.5-17.5 40.8-36.5 51.2-2.7 1.5-5.6 2.8-8.5 3.9-5.8 2.3-11.8 3.8-18 4.5-6 .6-12.7.5-19.7.5l-41 .1c-.7 0-1.4.1-2.1.3-.4.1-.9.3-1.2.5-2.9 1.6-4.3 5-3.3 8.2 4.6 15 10.9 29.6 18.6 43.3 3.6 6.4 7.6 12.7 11.9 18.7l.1.1c-59.7-21.3-118.8-44.6-177-69.8l-.1-.1c-.8-.3-1.6-.5-2.4-.5-85.5.7-170.9 2-256.4 4.9v-1.3c-26.5-.2-52.2-14.9-65.2-37.7-6.7-11.3-10.3-24.1-10.5-37.2V896l.1-28.6.5-81.9c.2-8-.1-16.1.1-23.9h-9.8v.1c-.1 4.1 0 8.2.1 12.3 0 1.7.1 3.4.1 5.2v6.5l.5 81.9.3 28.5v.1l.1 12.5c.5 14.3 4.7 28.2 12.3 40.4 14.7 24.6 42.8 39.8 71.1 39.4v-1.3c85 2.9 170 4.1 255 4.9 65.3 29.5 132 55.2 199.6 79.1 3.6 1.3 7.5-.6 8.7-4.2.9-2.5.3-5.2-1.6-7.1l-.2-.2c-5-5.2-9.6-10.7-13.7-16.6-4.3-6-8.2-12.2-11.8-18.6-5.6-10.1-10.4-20.7-14.2-31.6l31.2.1c6.7 0 13.6.2 21.2-.5 7.4-.8 14.7-2.6 21.6-5.3 28-10.5 49.4-36.4 54.3-66 2.3-15.3 1.1-28.4 1.4-42.1v-40.8z"/></svg>
