<svg width="200" height="200" viewBox="0 0 200 200" fill="none" xmlns="http://www.w3.org/2000/svg"><mask id="mask0" mask-type="alpha" maskUnits="userSpaceOnUse" x="0" y="0" width="200" height="200"><path d="M100 200C155.228 200 200 155.228 200 100C200 44.7715 155.228 0 100 0C44.7715 0 0 44.7715 0 100C0 155.228 44.7715 200 100 200Z" fill="white"/></mask><g mask="url(#mask0)"><path d="M100 200C155.228 200 200 155.228 200 100C200 44.7715 155.228 0 100 0C44.7715 0 0 44.7715 0 100C0 155.228 44.7715 200 100 200Z" fill="#DBAE17"/><path d="M72.2222 150H-2.77776C-4.31189 150 -5.55554 151.244 -5.55554 152.778C-5.55554 154.312 -4.31189 155.556 -2.77776 155.556H72.2222C73.7564 155.556 75 154.312 75 152.778C75 151.244 73.7564 150 72.2222 150Z" fill="#705B00"/><mask id="mask1" mask-type="alpha" maskUnits="userSpaceOnUse" x="-37" y="-37" width="274" height="274"><path d="M236.603 63.4181L63.3773 -36.6028L-36.6025 136.581L136.623 236.602L236.603 63.4181Z" fill="white"/></mask><g mask="url(#mask1)"><mask id="mask2" mask-type="alpha" maskUnits="userSpaceOnUse" x="73" y="-13" width="112" height="157"><path d="M99.6962 125.485C88.2952 136.799 79.2473 143.556 75 143.301C72.6556 139.75 73.9829 128.536 78.0811 113.005L74.1424 110.731C81.5521 80.6898 95.9501 40.3448 115.575 6.35304L126.686 -12.8918L184.422 20.4428L173.311 39.6877C153.686 73.6794 125.946 106.321 103.635 127.759L99.6962 125.485Z" fill="white"/></mask><g mask="url(#mask2)"><path d="M99.6968 125.484C88.2957 136.799 79.2478 143.556 75.0006 143.301C72.6561 139.75 73.9835 128.536 78.0818 113.005L74.1432 110.731C81.553 80.6897 95.9512 40.3448 115.576 6.35304L126.687 -12.8918L184.423 20.4424L173.312 39.6873C153.687 73.679 125.947 106.321 103.635 127.758L99.6968 125.484Z" fill="#705B00"/><path d="M206.047 116.322L32.8412 16.3209L2.28644 69.2435L175.492 169.245L206.047 116.322Z" fill="white"/></g></g></g></svg>