<?xml version="1.0" encoding="utf-8"?><svg version="1.1" id="plan-personal" xmlns="http://www.w3.org/2000/svg" xmlns:xlink="http://www.w3.org/1999/xlink" x="0px"
	 y="0px" viewBox="0 0 1498 1498" style="enable-background:new 0 0 1498 1498;" xml:space="preserve">
<style type="text/css">
	.st0{fill:#FFF2D2;}
	.st1{fill:#FCD56E;}
	.st2{fill:#FFFFFF;}
	.st3{fill:#204A69;}
</style>
<title>circle-plan-personal</title>
<path class="st0" d="M749,0C335.3,0,0,335.3,0,749s335.3,749,749,749s749-335.3,749-749S1162.7,0,749,0z M1155.7,1011.6
	c-59,4.4-118,6-177,7.3l-1.9,29.1c-1.1,11.6-5.5,22.6-12.7,31.7c-14,18.3-38.3,27.2-59.8,25.9l-61.4,0.2l-61.4,0.2
	c-21.3,1.4-46.2-7-60.4-25.5c-7.4-9.1-12-20.2-13.1-31.9c-0.7-9.8-0.8-18.5-1.2-27.5l-31.1-0.1l-96-1.4c-64-1.2-128-3.7-192-10.7
	c-1.5-0.2-2.5-1.5-2.4-2.9c0.1-0.6,0.3-1.1,0.7-1.5h-43.7V518.4c0-10.3,8.3-18.6,18.6-18.6h0h342.8l-3.9-34.1
	c-0.1-1.3,0.1-2.7,0.6-3.9l23.7-51.8c0,0,0,0,0,0c1.7-3.7,6.1-5.4,9.9-3.7c1,0.5,1.9,1.1,2.6,2l37.8,45.1c0.9,1.1,1.5,2.5,1.7,3.9
	l12.5,117.9c4,39.3,8.4,78.7,12,117.8l1.2,12.4l17.5,0.2c4.5,0,8.9,0.1,13.4,0.1l-0.3-15.8l-0.6-96.3l-0.2-48.3
	c-0.2-16.9,12.6-32.3,28.6-36.6l-11-12.1c-0.1,0.1-0.1,0.1-0.2,0.2c-0.7,0.5-1.7,0.4-2.3-0.1c-7.4-6.1-10.3-16.5-10.2-25.6
	c-0.2-9.4,2.1-18.2,4.5-26.7c5.2-17,13.1-32.6,20-48.1c0.4-0.9,1-1.7,1.7-2.4c3-2.7,7.6-2.6,10.3,0.4l0.2,0.2
	c16.6,17.9,28.5,41.2,30.2,66.4c0.8,12.5-1.1,25.7-8.2,37c-3.1,4.7-7.3,8.9-12.3,11.8c14.5,5.4,25.5,19.9,25.3,35.6l-0.2,48.3
	l-0.5,96.3l-0.3,17.1c9.7,0.2,19.5,0.4,29.2,0.6c1.4,0,2.6,1.2,2.6,2.6l52.2,0c0,0,0,0,0,0c0-0.7,0.7-1.3,1.4-1.2
	c0.7,0,1.3,0.7,1.2,1.4l0,0c-2.7,81.9-6.7,163.7-11.5,245.5l-2.2,38c58.5,1.3,117,2.9,175.5,7.3c2.9,0.2,5.1,2.8,4.9,5.7
	C1160.4,1009.3,1158.4,1011.4,1155.7,1011.6z"/>
<path class="st1" d="M387.7,1003.6L387.7,1003.6c64-6.9,128-9.3,192-10.6l96-1.4l30.1-0.1l-1.3-35.5c-2.9-81.9-6-163.7-8.1-245.6
	v-0.1c-0.1-3.1,2.4-5.7,5.5-5.8h0.2l25,0.2l-0.7-6l-22.7-198.9H360.9h0c-10.3,0-18.6,8.3-18.6,18.6v486.1h43.7
	C386.5,1004,387.1,1003.7,387.7,1003.6z"/>
<g>
	<path class="st2" d="M751,479.8l-1.1-0.7c-2.8-1.6-5.5-3.3-8.2-5c-2.9,3.2-6,6.1-9.3,8.9l-1.7,1.4c-2.1,1.7-5.1,1.5-7-0.4l-7.9-8.4
		l2.6,24.2l20.4,190.3l0.8,7.3l0.7,7.4l50.3,0.5l-2-15.7c-5-38.6-9.2-76.9-13.7-115.4L763,471.3c-1.3,2.4-2.7,4.6-4.3,6.8
		C756.9,480.6,753.6,481.3,751,479.8z"/>
	<path class="st2" d="M725.3,470.5c1.5-1.9,3-3.8,4.6-5.7c1.6-1.9,3.3-3.8,5-5.7c2.6-2.8,6.9-3.3,10-1.1c1.8,1.3,3.6,2.7,5.4,4.1
		c1.2,1,2.4,1.9,3.6,2.9c2.3-1.7,4.7-3.1,7.3-4.3c0.1,0,0.1-0.1,0.2-0.1l-20.6-24.3c-4.3,1.6-8.9,2.5-13.6,2.7L715,466l1.5,0.6
		L725.3,470.5z"/>
	<path class="st2" d="M894.2,689.8l-0.5-96.3l-0.3-48c0-12.5-11.3-23.3-23.7-23.1c-12.4-0.4-23.8,10.5-23.8,23.1l-0.3,48l-0.6,96.3
		l-0.3,16c16.5,0.2,33.1,0.6,49.6,0.9L894.2,689.8z"/>
	<path class="st2" d="M862.1,439.8c5.4,1,10.1,3.9,13.1,5.2c2.8,1.5,5.9,2.4,9,2.8c0.9,0.2,1.9,0.3,2.9,0.4
		c-3.7-12.6-10.1-24.4-18-35.2l0,0c-4.4,8.8-8.7,17.6-12.6,26.4C858.4,439.3,860.2,439.5,862.1,439.8z"/>
	<path class="st2" d="M849.2,496.6l11,12.1l0.9,1c0.2-0.2,0.6-0.4,0.9-0.4c3.3,0,6.5-0.7,9.4-1.8c6.6-2.6,11.9-7.8,14.6-14.7
		c4.2-9.3,4.9-20.2,3.8-30.7c-0.1-0.8-0.2-1.6-0.3-2.3c-1.6,0.7-3.3,1.1-5,1.3c-5.5,0.8-11.2-0.1-16.1-2.7
		c-4.6-2.7-7.1-4.9-10.1-6.2l-6-2.6c-2.9,7.1-5,14.5-6.4,22.1c-1.2,7.8-0.8,15.6,3.6,22.4C850.1,494.9,849.9,495.9,849.2,496.6z"/>
	<path class="st2" d="M939,710.2C939,710.2,939,710.2,939,710.2c0,1.5-1.2,2.7-2.6,2.7c-9.8,0.2-19.5,0.4-29.3,0.6
		c-2.1,0-4.2,0.1-6.3,0.1c-2.1,0-4.2,0.1-6.2,0.1c-16.6,0.3-33.3,0.7-49.9,0.9c-2,0-4,0.1-6,0.1c-2,0-4,0.1-6,0.1
		c-4.5,0-9,0.1-13.5,0.1l-16.6,0.2l-5.4,0.1l-5.4,0.1l-50.5,0.5l-2.6,0l-3.8,0l-6.4,0.1l-20.3,0.2c4,79.8,7.2,159.7,10.5,239.6
		l1.5,36l0.5,12.9l0.5,12.5c0.1,1.4,0.1,2.7,0.2,4.1c0.4,8.8,0.6,18.1,1.2,26.1c0.9,8.8,4.4,17.2,10.1,24c5.7,7,13.1,12.4,21.5,15.7
		c8.6,3.6,17,4.5,27.3,4.3l61.4,0.2l61.4,0.2c19.3,1.1,37.5-6.1,49.1-20.4c5.6-7,9.1-15.5,10-24.5l2-27.6l0.2-2.9l1.7-22.8l2.9-38.4
		c6.1-81.7,12.9-163.3,21-244.8L939,710.2z M756.8,775.1c0.1-0.7,0.8-1.2,1.6-1.1c0.5,0.1,0.9,0.4,1.1,0.9l0,0
		c4.5,14,6.7,28.2,8.3,42.5s2.9,28.5,3.8,42.8s1.5,28.6,2,42.9c0.3,7.7,0.3,15.4,0.2,23.1c0,1.1-0.1,2.3-0.1,3.4
		c0,1.1-0.1,2.3-0.1,3.4c-0.2,4.4-0.4,8.8-0.8,13.2c-0.2,1.5-1.5,2.5-2.9,2.4c-1.1-0.1-2.1-0.9-2.3-2c-0.9-4.1-1.8-8.3-2.5-12.4
		c-0.2-1.2-0.4-2.4-0.6-3.5c-0.2-1.2-0.4-2.4-0.6-3.5c-1.3-7.7-2.3-15.3-3.1-23.1c-1.5-14.2-2.8-28.5-4-42.8s-1.7-28.6-2.1-42.9
		S754.3,789.7,756.8,775.1z"/>
</g>
<g>
	<path class="st3" d="M1155.7,1001c-58.5-4.3-117-6-175.5-7.3l2.2-38c4.8-81.8,8.8-163.6,11.5-245.5l0,0c0-0.7-0.5-1.4-1.2-1.4
		c-0.7,0-1.4,0.5-1.4,1.2c0,0,0,0,0,0c-8.1,81.5-14.9,163.2-21,244.8l-2.9,38.4l-1.7,22.8l-0.2,2.9l-2,27.6c-0.9,9-4.4,17.4-10,24.5
		c-11.5,14.3-29.7,21.5-49.1,20.4l-61.4-0.2l-61.4-0.2c-10.3,0.1-18.7-0.7-27.3-4.3c-8.4-3.4-15.8-8.8-21.5-15.7
		c-5.6-6.8-9.1-15.2-10.1-24c-0.6-8-0.9-17.3-1.2-26.1c-0.1-1.4-0.1-2.8-0.2-4.1l-0.5-12.5l-0.5-12.9l-1.5-36
		c-3.3-79.9-6.5-159.8-10.5-239.6l20.3-0.2l6.4-0.1l3.8,0l2.6,0l50.5-0.5l5.4-0.1l5.4-0.1l16.6-0.2c4.5,0,9-0.1,13.5-0.1
		c2,0,4,0,6-0.1c2,0,4,0,6-0.1c16.6-0.2,33.3-0.6,49.9-0.9c2.1,0,4.2-0.1,6.2-0.1c2.1,0,4.2-0.1,6.3-0.1c9.8-0.2,19.5-0.4,29.3-0.6
		c1.5,0,2.6-1.2,2.6-2.6c0,0,0,0,0,0c0-1.4-1.2-2.6-2.6-2.6c-9.7-0.2-19.5-0.4-29.2-0.6l0.3-17.1l0.5-96.3l0.2-48.3
		c0.2-15.7-10.8-30.2-25.3-35.6c5-2.8,9.1-7.1,12.3-11.8c7.1-11.3,9-24.5,8.2-37c-1.7-25.2-13.6-48.5-30.2-66.4l-0.2-0.2
		c-2.7-3-7.3-3.1-10.3-0.4c-0.7,0.7-1.3,1.5-1.7,2.4c-6.9,15.5-14.8,31.1-20,48.1c-2.5,8.5-4.7,17.3-4.5,26.7
		c-0.1,9.1,2.8,19.5,10.2,25.6c0.7,0.5,1.6,0.6,2.3,0.1c0.1-0.1,0.2-0.1,0.2-0.2c0.7-0.7,0.8-1.7,0.3-2.5
		c-4.4-6.8-4.8-14.6-3.6-22.4c1.4-7.6,3.5-15,6.4-22.1l6,2.6c3,1.3,5.5,3.5,10.1,6.2c4.9,2.6,10.6,3.6,16.1,2.7
		c1.7-0.2,3.4-0.7,5-1.3c0.1,0.8,0.2,1.6,0.3,2.3c1.1,10.5,0.4,21.4-3.8,30.7c-2.7,6.8-8,12.1-14.6,14.7c-2.9,1.2-6.1,1.8-9.4,1.8
		c-0.4,0-0.7,0.2-0.9,0.4l-0.9-1c-16.1,4.3-28.8,19.7-28.6,36.6l0.2,48.3l0.6,96.3l0.3,15.8c-4.5,0-8.9-0.1-13.4-0.1l-17.5-0.2
		l-1.2-12.4c-3.6-39.1-8-78.5-12-117.8l-12.5-117.9c-0.2-1.4-0.7-2.8-1.7-3.9l-37.8-45.1c-0.7-0.9-1.6-1.5-2.6-2
		c-3.7-1.7-8.2-0.1-9.9,3.7c0,0,0,0,0,0l-23.7,51.8c-0.6,1.2-0.8,2.6-0.6,3.9l3.9,34.1l22.7,198.9l0.7,6l-25-0.2h-0.2
		c-3.1,0.1-5.6,2.7-5.5,5.8v0.1c2.1,81.9,5.2,163.8,8.1,245.6l1.3,35.5l-30.1,0.1l-96,1.4c-64,1.2-128,3.7-192,10.7v-0.1
		c-0.7,0.1-1.3,0.4-1.7,0.9c-0.4,0.4-0.6,0.9-0.7,1.5c-0.2,1.5,0.9,2.8,2.4,2.9c64,7,128,9.4,192,10.7l96,1.4l31.1,0.1
		c0.3,9.1,0.5,17.7,1.2,27.5c1.2,11.7,5.7,22.8,13.1,31.9c14.2,18.5,39,26.9,60.4,25.5l61.4-0.2l61.4-0.2
		c21.5,1.2,45.8-7.7,59.8-25.9c7.2-9.1,11.6-20.1,12.7-31.7l1.9-29.1c59-1.3,118-2.9,177-7.3c2.6-0.2,4.7-2.3,4.9-4.9
		C1160.8,1003.8,1158.7,1001.2,1155.7,1001z M761.4,460.7c-0.1,0-0.1,0.1-0.2,0.1c-2.6,1.2-5,2.6-7.3,4.3c-1.2-1-2.4-2-3.6-2.9
		c-1.8-1.4-3.6-2.8-5.4-4.1c-3.1-2.2-7.4-1.7-10,1.1c-1.7,1.9-3.4,3.7-5,5.7c-1.6,1.8-3.1,3.7-4.6,5.7l-8.8-3.9L715,466l12.3-26.9
		c4.6-0.2,9.2-1.1,13.6-2.7L761.4,460.7z M715.8,475.6l7.9,8.4c1.9,2,4.9,2.1,7,0.4l1.7-1.4c3.3-2.8,6.4-5.8,9.3-8.9
		c2.7,1.7,5.5,3.4,8.2,5l1.1,0.7c2.6,1.5,5.9,0.8,7.7-1.6c1.6-2.2,3-4.4,4.3-6.8l11.8,102.9c4.6,38.4,8.7,76.8,13.7,115.4l2,15.7
		l-50.3-0.5l-0.7-7.4l-0.8-7.3l-20.4-190.3L715.8,475.6z M845.1,689.8l0.6-96.3l0.3-48c0-12.5,11.4-23.5,23.8-23.1
		c12.3-0.2,23.7,10.6,23.7,23.1l0.3,48l0.5,96.3l0.3,16.9c-16.5-0.3-33.1-0.7-49.6-0.9L845.1,689.8z M884.2,447.8
		c-3.1-0.4-6.2-1.3-9-2.8c-3-1.4-7.7-4.2-13.1-5.2c-1.8-0.3-3.7-0.5-5.6-0.4c3.9-8.8,8.2-17.6,12.6-26.4l0,0
		c7.9,10.8,14.3,22.6,18,35.2C886.1,448.1,885.1,448,884.2,447.8z"/>
	<path class="st3" d="M767.7,817.5c-1.6-14.2-3.8-28.5-8.3-42.5l0,0c-0.2-0.5-0.6-0.9-1.1-0.9c-0.7-0.1-1.4,0.4-1.6,1.1
		c-2.5,14.5-2.8,28.9-2.4,43.2s1,28.6,2.1,42.9s2.5,28.5,4,42.8c0.8,7.7,1.8,15.4,3.1,23.1c0.2,1.2,0.4,2.4,0.6,3.5
		c0.2,1.2,0.4,2.4,0.6,3.5c0.8,4.2,1.6,8.3,2.5,12.4c0.3,1.1,1.2,1.9,2.3,2c1.5,0.2,2.8-0.9,2.9-2.4c0.3-4.4,0.6-8.8,0.8-13.2
		c0-1.1,0.1-2.3,0.1-3.4c0-1.1,0.1-2.3,0.1-3.4c0.2-7.7,0.1-15.4-0.2-23.1c-0.5-14.3-1.1-28.6-2-42.9S769.3,831.7,767.7,817.5z"/>
</g>
</svg>
