<svg xmlns="http://www.w3.org/2000/svg" xmlns:xlink="http://www.w3.org/1999/xlink" version="1.1" x="0" y="0" viewBox="0 0 157.6 145.2" xml:space="preserve" enable-background="new 0 0 157.6 145.2"><style type="text/css">
	.st0{opacity:0.3;fill:#ABB2B5;}
	.st1{fill:#2A3D45;}
	.st2{fill:#FFFFFF;}
	.st3{fill:#C4D8AC;}
	.st4{fill:#629F43;}
</style><path class="st0" d="M7.7 138.2c-0.4 0-0.7-0.3-0.7-0.7V23.7h143.6v113.8c0 0.4-0.3 0.7-0.7 0.7H7.7z"/><rect x="16.9" y="76.5" class="st1" width="123.8" height="2"/><rect x="22.9" y="63.2" class="st2" width="111.9" height="2"/><rect x="22.9" y="50" class="st2" width="111.9" height="2"/><rect x="22.9" y="36.8" class="st2" width="111.9" height="2"/><rect x="16.9" y="91.5" class="st3" width="56.1" height="8.9"/><path class="st1" d="M149.9 145.2H7.7c-4.3 0-7.7-3.5-7.7-7.7V7.7C0 3.5 3.5 0 7.7 0h142.1c4.3 0 7.7 3.5 7.7 7.7v129.7C157.6 141.7 154.1 145.2 149.9 145.2zM7.7 2C4.6 2 2 4.6 2 7.7v129.7c0 3.2 2.6 5.7 5.7 5.7h142.1c3.2 0 5.7-2.6 5.7-5.7V7.7c0-3.2-2.6-5.7-5.7-5.7H7.7z"/><rect x="1" y="16.7" class="st1" width="155.6" height="2"/><path class="st1" d="M10.8 10.8c-0.4 0-0.8-0.2-1.1-0.4 -0.3-0.3-0.4-0.7-0.4-1.1 0-0.4 0.2-0.8 0.4-1.1 0.4-0.3 0.9-0.5 1.4-0.4 0.1 0 0.2 0 0.3 0.1 0.1 0 0.2 0.1 0.2 0.1 0.1 0.1 0.2 0.1 0.2 0.2 0.3 0.3 0.4 0.7 0.4 1.1 0 0.4-0.2 0.8-0.4 1.1 -0.1 0.1-0.1 0.1-0.2 0.2 -0.1 0.1-0.2 0.1-0.2 0.1 -0.1 0-0.2 0.1-0.3 0.1C11 10.8 10.9 10.8 10.8 10.8z"/><path class="st1" d="M17 9.3c0-0.8 0.7-1.5 1.5-1.5l0 0c0.8 0 1.5 0.7 1.5 1.5l0 0c0 0.8-0.7 1.5-1.5 1.5l0 0C17.7 10.8 17 10.2 17 9.3z"/><path class="st1" d="M26.2 10.8c-0.4 0-0.8-0.2-1-0.4 -0.3-0.3-0.4-0.7-0.4-1.1s0.2-0.8 0.4-1.1c0.3-0.3 0.9-0.5 1.4-0.4 0.1 0 0.2 0 0.3 0.1C26.9 8 27 8 27.1 8.1c0.1 0.1 0.2 0.1 0.2 0.2 0.1 0.1 0.1 0.1 0.2 0.2 0.1 0.1 0.1 0.2 0.1 0.3 0 0.1 0.1 0.2 0.1 0.3 0 0.1 0 0.2 0 0.3s0 0.2 0 0.3c0 0.1 0 0.2-0.1 0.3 0 0.1-0.1 0.2-0.1 0.3 0 0.1-0.1 0.2-0.2 0.2 -0.1 0.1-0.1 0.1-0.2 0.2 -0.1 0.1-0.2 0.1-0.3 0.1 -0.1 0-0.2 0.1-0.3 0.1C26.4 10.8 26.3 10.8 26.2 10.8z"/><polygon class="st1" points="76.3 65.3 37 51.9 37.7 50.1 76.1 63.1 117.2 36.9 118.3 38.6 "/><circle class="st4" cx="37.3" cy="51" r="4.2"/><path class="st4" d="M37.3 55.7c-2.6 0-4.7-2.1-4.7-4.7s2.1-4.7 4.7-4.7 4.7 2.1 4.7 4.7S39.9 55.7 37.3 55.7zM37.3 47.3c-2 0-3.7 1.7-3.7 3.7 0 2 1.7 3.7 3.7 3.7 2 0 3.7-1.7 3.7-3.7C41.1 49 39.4 47.3 37.3 47.3z"/><circle class="st2" cx="76.2" cy="64.2" r="4.2"/><circle class="st4" cx="76.2" cy="64.2" r="4.2"/><path class="st4" d="M76.2 69c-2.6 0-4.7-2.1-4.7-4.7s2.1-4.7 4.7-4.7 4.7 2.1 4.7 4.7S78.8 69 76.2 69zM76.2 60.5c-2 0-3.7 1.7-3.7 3.7s1.7 3.7 3.7 3.7c2 0 3.7-1.7 3.7-3.7S78.2 60.5 76.2 60.5z"/><circle class="st4" cx="117.7" cy="37.8" r="4.2"/><path class="st4" d="M117.7 42.5c-2.6 0-4.7-2.1-4.7-4.7s2.1-4.7 4.7-4.7 4.7 2.1 4.7 4.7S120.3 42.5 117.7 42.5zM117.7 34c-2 0-3.7 1.7-3.7 3.7 0 2 1.7 3.7 3.7 3.7s3.7-1.7 3.7-3.7C121.5 35.7 119.8 34 117.7 34z"/><rect x="16.9" y="91.1" class="st2" width="56.1" height="34.4"/><rect x="16.9" y="99.4" class="st4" width="56.1" height="2"/><rect x="25.7" y="107.7" class="st1" width="38.5" height="2"/><rect x="25.7" y="116" class="st1" width="38.5" height="2"/><circle class="st4" cx="93.8" cy="96.9" r="2.5"/><circle class="st2" cx="93.8" cy="108.3" r="2.5"/><circle class="st4" cx="93.8" cy="119.8" r="2.5"/><rect x="103.1" y="95.9" class="st1" width="37.6" height="2"/><rect x="103.1" y="107.3" class="st1" width="37.6" height="2"/><rect x="103.1" y="118.8" class="st1" width="37.6" height="2"/></svg>