<?xml version="1.0" encoding="utf-8"?><svg version="1.1" id="plan-free-circle" xmlns="http://www.w3.org/2000/svg" xmlns:xlink="http://www.w3.org/1999/xlink" x="0px"
	 y="0px" viewBox="0 0 1492.8 1492.8" style="enable-background:new 0 0 1492.8 1492.8;" xml:space="preserve">
<style type="text/css">
	.st0{fill:#C2F4FF;}
	.st1{fill:#74DCFC;}
	.st2{fill:#FFFFFF;}
	.st3{fill:#204A69;}
</style>
<title>circle-plan-free</title>
<path class="st0" d="M746.4,0C334.2,0,0,334.2,0,746.4s334.2,746.4,746.4,746.4s746.4-334.2,746.4-746.4S1158.7,0,746.4,0z
	 M1072.5,897.7c-0.3,0.2-0.7,0.2-1,0.1l-9,36.5c1.1,0.3,2,1.3,2,2.5c0,1.5-1.1,2.7-2.6,2.7c-35.7,1.5-71.4,2.9-107.1,4.1
	c3.4,20.8,8.4,41.6,19,59.9c0,0,0,0,0,0c0.4,0.6,0.2,1.4-0.4,1.8c-0.3,0.2-0.7,0.2-1,0.1l-9,36.5c1.1,0.3,2,1.3,2,2.5
	c0,1.5-1.1,2.7-2.6,2.7c-50.2,2.1-100.4,4-150.6,5.3l-150.6,4.5c-1.4,0-2.7-0.4-3.8-1.2l-0.1-0.1c-23.7-18.1-37.8-44.8-46.7-71.6
	l-190-9.9l27.7-531.9l235.4,261.2c0-1.9,0-3.8,0.1-5.7c0.4-29.5,2.3-58.9,5.8-88.2c0.5-3.7,3.6-6.5,7.3-6.5h0.1l325.5,1.1h0.1
	c3.5,0,6.4,2.9,6.3,6.4c-0.5,48.6,1.9,97.2,7.2,145.5c2.6,24.1,6.6,48.1,11.9,71.8c5.3,23.6,12.4,47.1,24.4,68.1c0,0,0,0,0,0
	C1073.3,896.5,1073.1,897.3,1072.5,897.7z"/>
<path class="st0" d="M609.7,979.7c-8.7-28.6-12.6-58.1-14.2-87.6s-0.8-58.9,1.4-88.1c2.2-29.3,6-58.5,11.3-87.4c0.7-3.5,3.7-6,7.2-6
	h0.1l37.6,0.1l-37.6-0.1h-0.1c-3.5,0-6.6,2.5-7.2,6c-5.3,28.9-9.1,58.1-11.3,87.4c-2.2,29.3-3.1,58.7-1.4,88.1
	C597,921.5,600.9,951.1,609.7,979.7c0.4,1.4,0.9,2.8,1.4,4.3l7.1,0.4c0,0,0,0,0,0l-7.1-0.4C610.6,982.6,610.1,981.2,609.7,979.7z"/>
<path class="st1" d="M611.1,984c-0.5-1.4-0.9-2.8-1.4-4.3c-8.8-28.6-12.7-58.2-14.3-87.6c-1.7-29.5-0.8-58.9,1.4-88.1
	c2.2-29.3,6-58.5,11.3-87.4c0.7-3.5,3.7-6,7.2-6h0.1l37.6,0.1l31,0.1c0-2.4,0-4.9,0.1-7.3L448.8,442.2l-27.7,531.9L611.1,984
	C611.1,984,611.1,984,611.1,984L611.1,984z"/>
<g>
	<path class="st2" d="M948.5,943.8c-12.4,0.4-24.8,0.8-37.2,1.1l-150.7,4.6c-1.4,0-2.7-0.4-3.8-1.2l-0.1-0.1
		c-24.9-19.1-39.8-47.1-50-75c-9.9-28.3-15.5-57.6-18.7-87c-2.2-20.2-3.4-40.5-3.8-60.8l-62.5,0.2c-4.8,26.2-8.2,53-10.4,79.6
		c-2.3,28.7-3.2,57.6-1.9,86.3s5.1,57.2,13.2,84.4c0.9,3,1.9,6,3,9l-7.4-0.4c0,0,0,0,0,0l7.3,0.4c8.1,22.9,20.2,44.4,38.4,59.5
		l148.2-1.7c50.2-0.8,100.4-0.8,150.6-0.8c0.2,0,0.5,0,0.7,0.1l9-36.5c-0.3-0.1-0.6-0.3-0.8-0.5
		C959.4,986.4,953.2,965.1,948.5,943.8z"/>
	<path class="st2" d="M1070.7,897.3c-13.5-20.8-22.1-44.1-28.7-67.8s-11.1-47.9-14.8-72.2c-7-46.5-9.6-93.4-10.5-140.3l-312.5,1
		c-3.1,26.4-4.8,53.3-5.4,80c-0.1,4.3-0.2,8.6-0.2,12.9c0,2.4,0,4.8,0,7.2c0,0.5,0,0.9,0,1.4c0,0,0,0,0,0.1c0,1.9,0.1,3.8,0.1,5.8
		c0.3,19.8,1.4,39.6,3.4,59.3c3,28.6,8.3,57.1,17.5,84c9.2,26,22.7,50.9,43.4,68.2l148.2-1.7c11.8-0.2,23.6-0.3,35.4-0.4
		c1.1,0,2.3,0,3.4,0c1.1,0,2.3,0,3.4,0c36.1-0.3,72.2-0.4,108.3-0.4c0.2,0,0.5,0,0.7,0.1l9-36.5
		C1071.2,897.8,1070.9,897.6,1070.7,897.3z M935.4,794.6c-10.3,2.8-20.8,4.5-31.3,5.7c-14,1.7-28.1,2.5-42.1,2.8
		c-14.1,0.2-28.2-0.4-42.2-1.8c-14-1.6-28.3-3.7-41.3-11.1c-0.6-0.4-0.9-1.2-0.5-1.8c0.2-0.4,0.7-0.7,1.2-0.7l0.1,0
		c13.8,0.5,27.5,0,41.2,0.4s27.5,0.2,41.3,0.2c24.5,0.2,48.8-1.1,73.4-1.7c1.9,0,3.9-0.1,5.8-0.1c1.2,0,2.4-0.1,3.6-0.1
		c0.9,0,1.6,0.4,2.1,1c0.3,0.4,0.6,1,0.6,1.6c0,0.6-0.2,1.2-0.6,1.7c-0.3,0.4-0.7,0.7-1.2,0.9c-1.5,0.5-3,1-4.5,1.5
		C939.2,793.5,937.3,794.1,935.4,794.6z M969.4,715.1c-0.3,1.2-1.3,2-2.5,2.1c-6.5,0.3-13.1,0.5-19.6,0.6
		c-28.1,0.4-56.1-0.9-84.1-0.6c-17.2,0-34.4-0.1-51.5,0.3c-6.3,0.2-12.6,0.3-18.8,0.5c-10.8,0.4-21.5,0.9-32.4,2.1h-0.1
		c-0.7,0.1-1.4-0.4-1.5-1.2c0-0.3,0.1-0.6,0.2-0.9c0.1-0.2,0.3-0.3,0.5-0.4l0,0.1c5-2.7,10.1-4.8,15.4-6.6
		c11.7-3.8,23.9-5.6,35.8-6.8c17.4-1.6,34.9-2.2,52.4-2c34.8,1.2,69.7,2.4,104,9.6C968.8,712.3,969.7,713.7,969.4,715.1z"/>
</g>
<g>
	<path class="st3" d="M963.5,1041.9c-0.2-0.1-0.4-0.1-0.7-0.1c-50.2,0-100.4,0.1-150.6,0.8l-148.2,1.7
		c-18.2-15.2-30.2-36.7-38.4-59.5l-7.3-0.4l-7.1-0.4l0,0c0,0,0,0,0,0c9,26.8,23,53.5,46.7,71.6l0.1,0.1c1.1,0.8,2.4,1.3,3.8,1.2
		l150.6-4.5c50.2-1.3,100.4-3.3,150.6-5.3c1.5,0,2.6-1.2,2.6-2.7C965.4,1043.2,964.6,1042.2,963.5,1041.9z"/>
	<path class="st3" d="M1072.9,895.9C1072.9,895.9,1072.9,895.9,1072.9,895.9c-12-21-19.2-44.5-24.4-68.1
		c-5.3-23.7-9.3-47.6-11.9-71.8c-5.3-48.3-7.7-96.9-7.2-145.5c0-3.5-2.8-6.4-6.3-6.4h-0.1L697.4,603h-0.1c-3.7,0-6.9,2.8-7.3,6.5
		c-3.5,29.3-5.4,58.7-5.8,88.2c0,1.9,0,3.8-0.1,5.7c0,2.4,0,4.9-0.1,7.3l-31-0.1l-37.6-0.1h-0.1c-3.5,0-6.6,2.5-7.2,6
		c-5.3,28.9-9.1,58.1-11.3,87.4c-2.2,29.3-3,58.7-1.4,88.1s5.5,59,14.2,87.6c0.4,1.4,0.9,2.8,1.4,4.3l7.1,0.4l7.4,0.4
		c-1.1-3-2.1-6-3-9c-8.1-27.1-11.8-55.7-13.2-84.4s-0.4-57.5,1.9-86.3c2.2-26.7,5.7-53.4,10.4-79.6l62.5-0.2
		c0.4,20.3,1.7,40.6,3.8,60.8c3.3,29.4,8.8,58.7,18.7,87c10.2,27.9,25.1,55.9,50,75l0.1,0.1c1.1,0.8,2.4,1.3,3.8,1.2l150.7-4.6
		c12.4-0.3,24.8-0.7,37.2-1.1c4.7,21.3,10.9,42.7,23.1,61.1c0.2,0.3,0.5,0.5,0.8,0.5c0.3,0.1,0.7,0,1-0.1c0.6-0.4,0.8-1.2,0.4-1.8
		c0,0,0,0,0,0c-10.7-18.2-15.6-39-19-59.9c35.7-1.2,71.4-2.6,107.1-4.1c1.5,0,2.6-1.2,2.6-2.7c0-1.2-0.9-2.2-2-2.5
		c-0.2-0.1-0.4-0.1-0.7-0.1c-36.1,0-72.2,0.1-108.3,0.4c-1.1,0-2.3,0-3.4,0c-1.1,0-2.3,0-3.4,0c-11.8,0.1-23.6,0.2-35.4,0.4
		l-148.2,1.7c-20.7-17.2-34.1-42.2-43.4-68.2c-9.3-26.9-14.5-55.4-17.5-84c-2-19.7-3.1-39.5-3.4-59.3c0-1.9-0.1-3.8-0.1-5.8
		c0,0,0,0,0-0.1c0-0.5,0-0.9,0-1.4c0-2.4,0-4.8,0-7.2c0-4.3,0.1-8.6,0.2-12.9c0.6-26.7,2.3-53.6,5.4-80l312.5-1
		c0.9,46.9,3.5,93.8,10.5,140.3c3.7,24.3,8.2,48.5,14.8,72.2s15.2,47.1,28.7,67.8c0.2,0.3,0.5,0.4,0.8,0.5c0.3,0.1,0.7,0.1,1-0.1
		C1073.1,897.3,1073.3,896.5,1072.9,895.9z"/>
	<path class="st3" d="M969.4,715.1c0.3-1.4-0.6-2.8-2-3.1c-34.3-7.2-69.2-8.4-104-9.6c-17.5-0.2-35,0.4-52.4,2
		c-11.9,1.2-24.2,3-35.8,6.8c-5.3,1.7-10.4,3.9-15.4,6.6l0-0.1c-0.2,0.1-0.4,0.3-0.5,0.4c-0.2,0.3-0.3,0.6-0.2,0.9
		c0.1,0.7,0.7,1.3,1.5,1.2h0.1c10.9-1.1,21.6-1.7,32.4-2.1c6.3-0.2,12.5-0.4,18.8-0.5c17.1-0.4,34.3-0.3,51.5-0.3
		c28-0.3,55.9,1,84.1,0.6c6.5-0.1,13-0.3,19.6-0.6C968.1,717.2,969.2,716.3,969.4,715.1z"/>
	<path class="st3" d="M944.7,786.3c-1.2,0-2.4,0.1-3.6,0.1c-1.9,0-3.9,0.1-5.8,0.1c-24.6,0.6-48.9,1.8-73.4,1.7
		c-13.8,0-27.5,0.2-41.3-0.2s-27.4,0.1-41.2-0.4l-0.1,0c-0.5,0-1,0.2-1.2,0.7c-0.4,0.6-0.1,1.5,0.5,1.8c13,7.5,27.4,9.5,41.3,11.1
		c14,1.4,28.1,2,42.2,1.8c14.1-0.3,28.2-1.1,42.1-2.8c10.5-1.2,21-3,31.3-5.7c1.9-0.5,3.8-1.1,5.7-1.7c1.5-0.5,3-1,4.5-1.5
		c0.5-0.2,0.9-0.5,1.2-0.9c0.4-0.5,0.6-1,0.6-1.7c0-0.6-0.2-1.2-0.6-1.6C946.3,786.7,945.6,786.3,944.7,786.3z"/>
</g>
</svg>
