<svg xmlns="http://www.w3.org/2000/svg" xmlns:xlink="http://www.w3.org/1999/xlink" version="1.1" x="0" y="0" viewBox="0 0 235.8 159.5" xml:space="preserve" enable-background="new 0 0 235.8 159.5"><style type="text/css">
	.st0{fill:#F0EFEF;}
	.st1{fill:#FFFFFF;}
	.st2{fill:#2A3D45;}
	.st3{opacity:0.3;fill:#ABB2B5;}
	.st4{fill:#629F43;}
	.st5{fill:#C4D8AC;}
	.st6{display:none;}
	.st7{display:inline;fill:#F0EFEF;}
</style><rect x="200.1" y="91.3" class="st0" width="7.9" height="67.2"/><circle class="st1" cx="201.8" cy="125.4" r="7.9"/><path class="st2" d="M201.8 134.3c-4.9 0-8.9-4-8.9-8.9s4-8.9 8.9-8.9 8.9 4 8.9 8.9S206.7 134.3 201.8 134.3zM201.8 118.5c-3.8 0-6.9 3.1-6.9 6.9 0 3.8 3.1 6.9 6.9 6.9s6.9-3.1 6.9-6.9C208.6 121.6 205.6 118.5 201.8 118.5z"/><path class="st2" d="M209.5 159.5h-15.4v-8.9c-1.6-0.5-3.2-1.1-4.7-1.9l-6.3 6.3L172.3 144l6.3-6.3c-0.8-1.5-1.4-3.1-1.9-4.7h-8.9v-15.4h8.9c0.5-1.6 1.1-3.2 1.9-4.7l-6.3-6.3 10.9-10.9 6.3 6.3c1.5-0.8 3.1-1.4 4.7-1.9v-8.9h15.4v8.9c1.6 0.5 3.2 1.1 4.7 1.9l6.3-6.3 10.9 10.9 -6.3 6.3c0.8 1.5 1.4 3.1 1.9 4.7h8.9v15.4h-8.9c-0.5 1.6-1.1 3.2-1.9 4.7l6.3 6.3 -10.9 10.9 -6.3-6.3c-1.5 0.8-3.1 1.4-4.7 1.9V159.5zM196.1 157.5h11.4v-8.4l0.7-0.2c2-0.5 3.8-1.3 5.6-2.3l0.7-0.4 5.9 5.9 8.1-8.1 -5.9-5.9 0.4-0.7c1-1.8 1.8-3.7 2.3-5.6l0.2-0.7h8.4v-11.4h-8.4l-0.2-0.7c-0.5-2-1.3-3.8-2.3-5.6l-0.4-0.7 5.9-5.9 -8.1-8.1 -5.9 5.9 -0.7-0.4c-1.8-1-3.7-1.8-5.6-2.3l-0.7-0.2v-8.4h-11.4v8.4l-0.7 0.2c-2 0.5-3.8 1.3-5.6 2.3l-0.7 0.4 -5.9-5.9 -8.1 8.1 5.9 5.9 -0.4 0.7c-1 1.8-1.8 3.7-2.3 5.6l-0.2 0.7h-8.4v11.4h8.4l0.2 0.7c0.5 2 1.3 3.8 2.3 5.6l0.4 0.7 -5.9 5.9 8.1 8.1 5.9-5.9 0.7 0.4c1.8 1 3.6 1.8 5.6 2.3l0.7 0.2V157.5z"/><path class="st1" d="M34.3 17.7v134c0 3.7 3 6.7 6.7 6.7H195c3.7 0 6.7-3 6.7-6.7v-134H34.3z"/><path class="st3" d="M41.1 152.5c-0.4 0-0.7-0.3-0.7-0.7v-128h155.4v128c0 0.4-0.3 0.7-0.7 0.7H41.1z"/><path class="st0" d="M40.5 92.3h-6.4v66.2h6.4c18.3 0 33.1-14.8 33.1-33.1S58.8 92.3 40.5 92.3z"/><path class="st0" d="M40.5 159.5h-7.4V91.3h7.4c18.8 0 34.1 15.3 34.1 34.1S59.3 159.5 40.5 159.5zM35.1 157.5h5.4c17.7 0 32.1-14.4 32.1-32.1 0-17.7-14.4-32.1-32.1-32.1h-5.4V157.5z"/><rect x="54.4" y="130.6" class="st1" width="57.4" height="2"/><rect x="54.4" y="121.5" class="st1" width="57.4" height="2"/><rect x="54.4" y="112.4" class="st1" width="57.4" height="2"/><rect x="54.4" y="103.3" class="st1" width="57.4" height="2"/><rect x="54.4" y="139.7" class="st2" width="57.4" height="2"/><path class="st2" d="M195 159.5H36.9c-1.9 0-3.5-1.6-3.5-3.5V7.7c0-4.3 3.5-7.7 7.7-7.7H195c4.3 0 7.7 3.5 7.7 7.7v144C202.8 156 199.3 159.5 195 159.5zM41.1 2c-3.2 0-5.7 2.6-5.7 5.7v148.2c0 0.8 0.7 1.5 1.5 1.5H195c3.2 0 5.7-2.6 5.7-5.7V7.7c0-3.2-2.6-5.7-5.7-5.7H41.1z"/><circle class="st4" cx="133" cy="104.3" r="2.5"/><circle class="st1" cx="133" cy="115.7" r="2.5"/><circle class="st4" cx="133" cy="127.1" r="2.5"/><circle class="st1" cx="133" cy="138.6" r="2.5"/><rect x="142.3" y="103.3" class="st2" width="39.3" height="2"/><rect x="142.3" y="114.7" class="st2" width="39.3" height="2"/><rect x="142.3" y="126.1" class="st2" width="39.3" height="2"/><rect x="142.3" y="137.6" class="st2" width="39.3" height="2"/><rect x="34.3" y="16.7" class="st2" width="167.4" height="2"/><path class="st2" d="M42.5 10.8c-0.4 0-0.8-0.2-1.1-0.4 -0.1-0.1-0.1-0.1-0.2-0.2 -0.1-0.1-0.1-0.2-0.1-0.3C41 9.8 41 9.7 41 9.6c0-0.1 0-0.2 0-0.3 0-0.1 0-0.2 0-0.3 0-0.1 0-0.2 0.1-0.3 0-0.1 0.1-0.2 0.1-0.2 0-0.1 0.1-0.2 0.2-0.2 0.3-0.4 0.9-0.5 1.4-0.4 0.1 0 0.2 0 0.3 0.1 0.1 0 0.2 0.1 0.3 0.1 0.1 0.1 0.2 0.1 0.2 0.2 0.1 0.1 0.1 0.1 0.2 0.2 0.1 0.1 0.1 0.2 0.1 0.2 0 0.1 0.1 0.2 0.1 0.3 0 0.1 0 0.2 0 0.3 0 0.1 0 0.2 0 0.3 0 0.1 0 0.2-0.1 0.3 0 0.1-0.1 0.2-0.1 0.3 0 0.1-0.1 0.2-0.2 0.2 -0.1 0.1-0.1 0.1-0.2 0.2 -0.1 0.1-0.2 0.1-0.3 0.1 -0.1 0-0.2 0.1-0.3 0.1C42.7 10.8 42.6 10.8 42.5 10.8z"/><path class="st2" d="M48.7 9.3c0-0.8 0.7-1.5 1.5-1.5l0 0c0.8 0 1.5 0.7 1.5 1.5l0 0c0 0.8-0.7 1.5-1.5 1.5l0 0C49.3 10.8 48.7 10.2 48.7 9.3z"/><path class="st2" d="M57.9 10.8c-0.4 0-0.8-0.2-1.1-0.4 -0.1-0.1-0.1-0.1-0.2-0.2 -0.1-0.1-0.1-0.2-0.1-0.3 0-0.1-0.1-0.2-0.1-0.3 0-0.1 0-0.2 0-0.3 0-0.1 0-0.2 0-0.3 0-0.1 0-0.2 0.1-0.3 0-0.1 0.1-0.2 0.1-0.2 0.1-0.1 0.1-0.2 0.2-0.2 0.6-0.6 1.6-0.6 2.1 0 0.1 0.1 0.1 0.1 0.2 0.2 0 0.1 0.1 0.2 0.1 0.2 0 0.1 0.1 0.2 0.1 0.3 0 0.1 0 0.2 0 0.3 0 0.4-0.2 0.8-0.4 1.1C58.7 10.7 58.3 10.8 57.9 10.8z"/><path class="st1" d="M134.5 72c-4.6 0-8.4-3.8-8.4-8.4v-1c0-4.6 3.8-8.4 8.4-8.4h1.5c-0.4-1-0.6-2-0.6-3.2 0-4.4 3.6-8.1 8.1-8.1 1.3 0 2.6 0.3 3.7 0.9 0-0.1 0-0.3 0-0.4 0-6.4 5.2-11.7 11.7-11.7s11.7 5.2 11.7 11.7c0 1.6-0.3 3.1-0.9 4.5 5.9 0.8 10.5 5.9 10.5 12v0c0 6.6-5.4 12.1-12.1 12.1H134.5z"/><rect x="152.4" y="59.9" class="st4" width="3" height="18.9"/><path class="st4" d="M147.7 60.7l6.1-8.6 6.1 8.6H147.7z"/><circle class="st1" cx="34.1" cy="125.4" r="33.1"/><path class="st4" d="M48.8 100.6l-2.8 4.9c7.1 4.1 11.9 11.8 11.9 20.6h5.6C63.5 115.2 57.6 105.7 48.8 100.6z"/><path class="st5" d="M34.1 96.6c-5.4 0-10.4 1.5-14.8 4l2.9 4.8c3.5-2 7.6-3.2 11.9-3.2s8.4 1.2 11.9 3.2l2.8-4.9C44.5 98.1 39.5 96.6 34.1 96.6z"/><path class="st0" d="M4.7 126h5.6c0-8.8 4.8-16.5 11.9-20.6l-2.9-4.8C10.6 105.7 4.7 115.2 4.7 126z"/><g class="st6"><rect x="32.8" y="97.2" class="st7" width="3" height="5.9"/><rect x="25.7" y="98.1" transform="matrix(0.9659 -0.2588 0.2588 0.9659 -25.2222 10.4709)" class="st7" width="3" height="5.9"/><rect x="19" y="100.9" transform="matrix(0.866 -0.5 0.5 0.866 -49.166 24.1521)" class="st7" width="3" height="5.9"/><rect x="13.2" y="105.3" transform="matrix(0.7071 -0.7071 0.7071 0.7071 -72.2004 42.1182)" class="st7" width="3" height="5.9"/><rect x="8.8" y="111" transform="matrix(0.5 -0.866 0.866 0.5 -93.5201 65.9364)" class="st7" width="3" height="5.9"/><rect x="6.1" y="117.7" transform="matrix(0.2588 -0.9659 0.9659 0.2588 -110.9159 96.7328)" class="st7" width="3" height="5.9"/><rect x="3.7" y="126.3" class="st7" width="5.9" height="3"/><rect x="38.6" y="99.5" transform="matrix(0.2588 -0.9659 0.9659 0.2588 -66.8331 114.9997)" class="st7" width="5.9" height="3"/><rect x="45.3" y="102.3" transform="matrix(0.5001 -0.866 0.866 0.5001 -65.807 93.6435)" class="st7" width="5.9" height="3"/><rect x="51" y="106.7" transform="matrix(0.7071 -0.7071 0.7071 0.7071 -60.7247 69.8375)" class="st7" width="5.9" height="3"/><rect x="55.4" y="112.5" transform="matrix(0.866 -0.5001 0.5001 0.866 -49.1676 44.4461)" class="st7" width="5.9" height="3"/><rect x="58.2" y="119.1" transform="matrix(0.9659 -0.2588 0.2588 0.9659 -29.1416 19.927)" class="st7" width="5.9" height="3"/><rect x="59.1" y="126.3" class="st7" width="5.9" height="3"/></g><circle class="st2" cx="34.1" cy="125.4" r="2.3"/><path class="st2" d="M34.1 128.6c-1.8 0-3.3-1.5-3.3-3.3 0-1.8 1.5-3.3 3.3-3.3 1.8 0 3.3 1.5 3.3 3.3C37.4 127.2 35.9 128.6 34.1 128.6zM34.1 124.1c-0.7 0-1.3 0.6-1.3 1.3 0 0.7 0.6 1.3 1.3 1.3 0.7 0 1.3-0.6 1.3-1.3C35.4 124.6 34.8 124.1 34.1 124.1z"/><rect x="31.3" y="117.7" transform="matrix(0.7071 -0.7071 0.7071 0.7071 -72.0036 63.581)" class="st2" width="18.8" height="2"/><path class="st2" d="M34.1 159.5C15.3 159.5 0 144.2 0 125.4s15.3-34.1 34.1-34.1 34.1 15.3 34.1 34.1S52.9 159.5 34.1 159.5zM34.1 93.3C16.4 93.3 2 107.7 2 125.4c0 17.7 14.4 32.1 32.1 32.1 17.7 0 32.1-14.4 32.1-32.1C66.2 107.7 51.8 93.3 34.1 93.3z"/><circle class="st2" cx="104.5" cy="113.5" r="2.5"/><circle class="st4" cx="90.1" cy="122.5" r="2.5"/><circle class="st1" cx="77.3" cy="104.3" r="2.5"/><circle class="st5" cx="77.3" cy="104.3" r="2.5"/><rect x="60.6" y="58.1" class="st1" width="11.6" height="19.7"/><rect x="77.3" y="32.8" class="st4" width="11.6" height="45"/><rect x="94.1" y="48" class="st1" width="11.6" height="29.8"/><line class="st1" x1="111.8" y1="77.8" x2="54.4" y2="77.8"/><rect x="54.4" y="76.8" class="st2" width="57.4" height="2"/></svg>