<svg width="200" height="200" viewBox="0 0 200 200" fill="none" xmlns="http://www.w3.org/2000/svg"><mask id="mask0" mask-type="alpha" maskUnits="userSpaceOnUse" x="0" y="0" width="200" height="200"><path d="M100 200C155.228 200 200 155.228 200 100C200 44.7715 155.228 0 100 0C44.7715 0 0 44.7715 0 100C0 155.228 44.7715 200 100 200Z" fill="white"/></mask><g mask="url(#mask0)"><path d="M100 200C155.228 200 200 155.228 200 100C200 44.7715 155.228 0 100 0C44.7715 0 0 44.7715 0 100C0 155.228 44.7715 200 100 200Z" fill="#5198D9"/><mask id="mask1" mask-type="alpha" maskUnits="userSpaceOnUse" x="-12" y="147" width="92" height="9"><path d="M-11.1111 147.222H69.4445L78.2035 151.602C79.2326 152.116 79.6497 153.368 79.1352 154.397C78.782 155.103 78.0598 155.549 77.2701 155.548L-11.1111 155.477V147.222Z" fill="white"/></mask><g mask="url(#mask1)"><path d="M-11.1111 147.222H69.4445L78.2035 151.602C79.2326 152.116 79.6497 153.368 79.1352 154.397C78.782 155.103 78.0598 155.549 77.2701 155.548L-11.1111 155.477V147.222Z" fill="#135E96"/><path d="M100 147.222H-11.1111V150H100V147.222Z" fill="#C6DEF6"/></g><mask id="mask2" mask-type="alpha" maskUnits="userSpaceOnUse" x="-37" y="-37" width="274" height="274"><path d="M236.667 63.4617L63.4615 -36.5383L-36.5385 136.667L136.667 236.667L236.667 63.4617Z" fill="white"/></mask><g mask="url(#mask2)"><mask id="mask3" mask-type="alpha" maskUnits="userSpaceOnUse" x="70" y="-4" width="105" height="152"><path d="M78.767 146.775C95.5224 135.71 105.373 129.205 108.319 127.26C113.502 123.838 116.098 122.129 118.875 117.318C121.653 112.506 140.089 80.5744 174.183 21.5219L130.882 -3.47815C96.7878 55.5744 78.3519 87.5063 75.5741 92.3176C72.7964 97.1288 72.7702 100.321 72.398 106.521C72.1866 110.044 71.441 121.798 70.1613 141.784L70.1613 141.784C69.9652 144.846 72.2885 147.488 75.3505 147.684C76.5579 147.761 77.7574 147.442 78.767 146.775Z" fill="white"/></mask><g mask="url(#mask3)"><path d="M78.767 146.775C95.5224 135.71 105.373 129.205 108.319 127.26C113.502 123.838 116.098 122.129 118.875 117.318C121.653 112.506 140.089 80.5744 174.183 21.5219L130.882 -3.47815C96.7878 55.5744 78.3519 87.5063 75.5741 92.3176C72.7964 97.1288 72.7702 100.321 72.398 106.521C72.1866 110.044 71.441 121.798 70.1613 141.784C69.9652 144.846 72.2885 147.488 75.3505 147.684C76.5579 147.761 77.7574 147.442 78.767 146.775Z" fill="#135E96"/><path d="M189.226 23.2193L121.868 -15.6696L60.7571 90.178L128.115 129.067L189.226 23.2193Z" fill="#135E96"/><path d="M186.448 28.0306L119.09 -10.8583L66.3127 80.5555L133.67 119.444L186.448 28.0306Z" fill="#C6DEF6"/><path d="M122.221 61.5144C112.599 55.9588 126.901 31.187 144.543 0.629394C156.305 -19.7423 166.953 -38.1855 176.487 -54.7L195.732 -43.5889C186.198 -27.0744 175.55 -8.63122 163.788 11.7405C146.146 42.2981 131.844 67.0699 122.221 61.5144ZM84.6406 65.4773L137.564 96.0329L132.009 105.655L79.0851 75.0998L84.6406 65.4773Z" fill="#2271B1"/></g></g></g></svg>