<svg id="plan-free-circle" xmlns="http://www.w3.org/2000/svg" viewBox="0 0 1492.8 1492.8"><style>.st0{fill:#c2f4ff}.st2{fill:#fff}.st3{fill:#204a69}</style><path class="st0" d="M746.4 0C334.2 0 0 334.2 0 746.4s334.2 746.4 746.4 746.4 746.4-334.2 746.4-746.4S1158.7 0 746.4 0zm326.1 897.7c-.3.2-.7.2-1 .1l-9 36.5c1.1.3 2 1.3 2 2.5 0 1.5-1.1 2.7-2.6 2.7-35.7 1.5-71.4 2.9-107.1 4.1 3.4 20.8 8.4 41.6 19 59.9.4.6.2 1.4-.4 1.8-.3.2-.7.2-1 .1l-9 36.5c1.1.3 2 1.3 2 2.5 0 1.5-1.1 2.7-2.6 2.7-50.2 2.1-100.4 4-150.6 5.3l-150.6 4.5c-1.4 0-2.7-.4-3.8-1.2l-.1-.1c-23.7-18.1-37.8-44.8-46.7-71.6l-190-9.9 27.7-531.9 235.4 261.2c0-1.9 0-3.8.1-5.7.4-29.5 2.3-58.9 5.8-88.2.5-3.7 3.6-6.5 7.3-6.5h.1l325.5 1.1h.1c3.5 0 6.4 2.9 6.3 6.4-.5 48.6 1.9 97.2 7.2 145.5 2.6 24.1 6.6 48.1 11.9 71.8 5.3 23.6 12.4 47.1 24.4 68.1.5.6.3 1.4-.3 1.8z"/><path class="st0" d="M609.7 979.7c-8.7-28.6-12.6-58.1-14.2-87.6s-.8-58.9 1.4-88.1c2.2-29.3 6-58.5 11.3-87.4.7-3.5 3.7-6 7.2-6h.1l37.6.1-37.6-.1h-.1c-3.5 0-6.6 2.5-7.2 6-5.3 28.9-9.1 58.1-11.3 87.4-2.2 29.3-3.1 58.7-1.4 88.1 1.5 29.4 5.4 59 14.2 87.6.4 1.4.9 2.8 1.4 4.3l7.1.4-7.1-.4c-.5-1.4-1-2.8-1.4-4.3z"/><path d="M611.1 984c-.5-1.4-.9-2.8-1.4-4.3-8.8-28.6-12.7-58.2-14.3-87.6-1.7-29.5-.8-58.9 1.4-88.1 2.2-29.3 6-58.5 11.3-87.4.7-3.5 3.7-6 7.2-6h.1l37.6.1 31 .1c0-2.4 0-4.9.1-7.3L448.8 442.2l-27.7 531.9 190 9.9z" fill="#74dcfc"/><path class="st2" d="M948.5 943.8c-12.4.4-24.8.8-37.2 1.1l-150.7 4.6c-1.4 0-2.7-.4-3.8-1.2l-.1-.1c-24.9-19.1-39.8-47.1-50-75-9.9-28.3-15.5-57.6-18.7-87-2.2-20.2-3.4-40.5-3.8-60.8l-62.5.2c-4.8 26.2-8.2 53-10.4 79.6-2.3 28.7-3.2 57.6-1.9 86.3s5.1 57.2 13.2 84.4c.9 3 1.9 6 3 9l-7.4-.4 7.3.4c8.1 22.9 20.2 44.4 38.4 59.5l148.2-1.7c50.2-.8 100.4-.8 150.6-.8.2 0 .5 0 .7.1l9-36.5c-.3-.1-.6-.3-.8-.5-12.2-18.6-18.4-39.9-23.1-61.2z"/><path class="st2" d="M1070.7 897.3c-13.5-20.8-22.1-44.1-28.7-67.8s-11.1-47.9-14.8-72.2c-7-46.5-9.6-93.4-10.5-140.3l-312.5 1c-3.1 26.4-4.8 53.3-5.4 80-.1 4.3-.2 8.6-.2 12.9v8.7c0 1.9.1 3.8.1 5.8.3 19.8 1.4 39.6 3.4 59.3 3 28.6 8.3 57.1 17.5 84 9.2 26 22.7 50.9 43.4 68.2l148.2-1.7c11.8-.2 23.6-.3 35.4-.4h6.8c36.1-.3 72.2-.4 108.3-.4.2 0 .5 0 .7.1l9-36.5c-.2-.2-.5-.4-.7-.7zM935.4 794.6c-10.3 2.8-20.8 4.5-31.3 5.7-14 1.7-28.1 2.5-42.1 2.8-14.1.2-28.2-.4-42.2-1.8-14-1.6-28.3-3.7-41.3-11.1-.6-.4-.9-1.2-.5-1.8.2-.4.7-.7 1.2-.7h.1c13.8.5 27.5 0 41.2.4s27.5.2 41.3.2c24.5.2 48.8-1.1 73.4-1.7 1.9 0 3.9-.1 5.8-.1 1.2 0 2.4-.1 3.6-.1.9 0 1.6.4 2.1 1 .3.4.6 1 .6 1.6 0 .6-.2 1.2-.6 1.7-.3.4-.7.7-1.2.9l-4.5 1.5c-1.8.4-3.7 1-5.6 1.5zm34-79.5c-.3 1.2-1.3 2-2.5 2.1-6.5.3-13.1.5-19.6.6-28.1.4-56.1-.9-84.1-.6-17.2 0-34.4-.1-51.5.3-6.3.2-12.6.3-18.8.5-10.8.4-21.5.9-32.4 2.1h-.1c-.7.1-1.4-.4-1.5-1.2 0-.3.1-.6.2-.9.1-.2.3-.3.5-.4v.1c5-2.7 10.1-4.8 15.4-6.6 11.7-3.8 23.9-5.6 35.8-6.8 17.4-1.6 34.9-2.2 52.4-2 34.8 1.2 69.7 2.4 104 9.6 1.6.4 2.5 1.8 2.2 3.2z"/><g><path class="st3" d="M963.5 1041.9c-.2-.1-.4-.1-.7-.1-50.2 0-100.4.1-150.6.8l-148.2 1.7c-18.2-15.2-30.2-36.7-38.4-59.5l-7.3-.4-7.1-.4c9 26.8 23 53.5 46.7 71.6l.1.1c1.1.8 2.4 1.3 3.8 1.2l150.6-4.5c50.2-1.3 100.4-3.3 150.6-5.3 1.5 0 2.6-1.2 2.6-2.7-.2-1.2-1-2.2-2.1-2.5zM1072.9 895.9c-12-21-19.2-44.5-24.4-68.1-5.3-23.7-9.3-47.6-11.9-71.8-5.3-48.3-7.7-96.9-7.2-145.5 0-3.5-2.8-6.4-6.3-6.4h-.1L697.4 603h-.1c-3.7 0-6.9 2.8-7.3 6.5-3.5 29.3-5.4 58.7-5.8 88.2 0 1.9 0 3.8-.1 5.7 0 2.4 0 4.9-.1 7.3l-31-.1-37.6-.1h-.1c-3.5 0-6.6 2.5-7.2 6-5.3 28.9-9.1 58.1-11.3 87.4-2.2 29.3-3 58.7-1.4 88.1s5.5 59 14.2 87.6c.4 1.4.9 2.8 1.4 4.3l7.1.4 7.4.4c-1.1-3-2.1-6-3-9-8.1-27.1-11.8-55.7-13.2-84.4s-.4-57.5 1.9-86.3c2.2-26.7 5.7-53.4 10.4-79.6l62.5-.2c.4 20.3 1.7 40.6 3.8 60.8 3.3 29.4 8.8 58.7 18.7 87 10.2 27.9 25.1 55.9 50 75l.1.1c1.1.8 2.4 1.3 3.8 1.2l150.7-4.6c12.4-.3 24.8-.7 37.2-1.1 4.7 21.3 10.9 42.7 23.1 61.1.2.3.5.5.8.5.3.1.7 0 1-.1.6-.4.8-1.2.4-1.8-10.7-18.2-15.6-39-19-59.9 35.7-1.2 71.4-2.6 107.1-4.1 1.5 0 2.6-1.2 2.6-2.7 0-1.2-.9-2.2-2-2.5-.2-.1-.4-.1-.7-.1-36.1 0-72.2.1-108.3.4h-6.8c-11.8.1-23.6.2-35.4.4L763 936.5c-20.7-17.2-34.1-42.2-43.4-68.2-9.3-26.9-14.5-55.4-17.5-84-2-19.7-3.1-39.5-3.4-59.3 0-1.9-.1-3.8-.1-5.8v-.1-1.4-7.2c0-4.3.1-8.6.2-12.9.6-26.7 2.3-53.6 5.4-80l312.5-1c.9 46.9 3.5 93.8 10.5 140.3 3.7 24.3 8.2 48.5 14.8 72.2s15.2 47.1 28.7 67.8c.2.3.5.4.8.5.3.1.7.1 1-.1.6 0 .8-.8.4-1.4z"/><path class="st3" d="M969.4 715.1c.3-1.4-.6-2.8-2-3.1-34.3-7.2-69.2-8.4-104-9.6-17.5-.2-35 .4-52.4 2-11.9 1.2-24.2 3-35.8 6.8-5.3 1.7-10.4 3.9-15.4 6.6v-.1c-.2.1-.4.3-.5.4-.2.3-.3.6-.2.9.1.7.7 1.3 1.5 1.2h.1c10.9-1.1 21.6-1.7 32.4-2.1 6.3-.2 12.5-.4 18.8-.5 17.1-.4 34.3-.3 51.5-.3 28-.3 55.9 1 84.1.6 6.5-.1 13-.3 19.6-.6 1-.1 2.1-1 2.3-2.2zM944.7 786.3c-1.2 0-2.4.1-3.6.1-1.9 0-3.9.1-5.8.1-24.6.6-48.9 1.8-73.4 1.7-13.8 0-27.5.2-41.3-.2s-27.4.1-41.2-.4h-.1c-.5 0-1 .2-1.2.7-.4.6-.1 1.5.5 1.8 13 7.5 27.4 9.5 41.3 11.1 14 1.4 28.1 2 42.2 1.8 14.1-.3 28.2-1.1 42.1-2.8 10.5-1.2 21-3 31.3-5.7 1.9-.5 3.8-1.1 5.7-1.7l4.5-1.5c.5-.2.9-.5 1.2-.9.4-.5.6-1 .6-1.7 0-.6-.2-1.2-.6-1.6-.6-.4-1.3-.8-2.2-.8z"/></g></svg>
