<?xml version="1.0" encoding="utf-8"?><svg version="1.1" id="plan-business" xmlns="http://www.w3.org/2000/svg" xmlns:xlink="http://www.w3.org/1999/xlink" x="0px"
	 y="0px" viewBox="0 0 1495.1 1495.1" style="enable-background:new 0 0 1495.1 1495.1;" xml:space="preserve">
<style type="text/css">
	.st0{fill:#F4E4F7;}
	.st1{fill:#C879CC;}
	.st2{fill:#FFFFFF;}
	.st3{fill:#204A69;}
</style>
<title>circle-plan-business</title>
<path class="st0" d="M747.5,0C334.7,0,0,334.7,0,747.5s334.7,747.5,747.5,747.5s747.5-334.7,747.5-747.5S1160.4,0,747.5,0z
	 M556.8,450.2v264.8L292,715C292,569.8,411.5,450.2,556.8,450.2z M1188.8,666c-0.4,0-0.8-0.1-1.2-0.1l-39.7,58.9v41.8
	c0.7,0,1.3,0.6,1.3,1.3c0.9,45.2,2.3,90.4,2.8,135.6c0,0,0,0,0,0c0,2.2-1.7,4-4,4h-0.1c-61.5,1.1-122.9,1.7-184.4,2.1l-99.8,0.5
	c1.2-2.2,2.5-4.4,3.6-6.6h0c-1.2,2.2-2.4,4.4-3.6,6.6l-84.5,0.3c0,0,0,0,0,0c-3.8,0-6.9-3.1-6.9-6.9c0,0,0,0,0,0
	c0,3.8,3.1,6.9,6.9,6.9l84.5-0.3c-45.7,80.2-132.1,134.8-230.3,134.8c-145.3,0-264.8-119.6-264.8-264.8h264.8l-6-264.8
	c2,0,4-0.1,6-0.1c49,0,97,13.7,138.5,39.6l0,0c2.4,1.5,4.8,3,7.2,4.6v0c-2.4-1.6-4.7-3.1-7.1-4.6l0.2-100.7c0,0,0,0,0,0
	c0-3.8,3.1-6.9,6.9-7l184.4,0.7l184.4,1.4h0.1c2.7,0,4.8,2.2,4.8,4.8l-0.8,94.4l-1.4,94.4c-0.1,1.3-1.1,2.4-2.5,2.5
	c-0.1,0-0.1,0-0.2,0v55.9l28.6-42.3c-1.3-2.2-2-4.7-2-7.3c0-7.9,6.4-14.3,14.3-14.3l0,0c7.9,0,14.3,6.4,14.3,14.3
	C1203.1,659.5,1196.7,666,1188.8,666z"/>
<path class="st1" d="M556.8,450.2C411.5,450.2,292,569.8,292,715l264.8,0V450.2z"/>
<path class="st2" d="M1087.2,815.9c0,6.7-4.6,12.5-11.1,13.9c-7.7,1.8-15.4-3.1-17.2-10.8l-76.4-58.6c-4,3.4-9.6,4.3-14.5,2.3
	l-56.7,83.4c1.5,2.3,2.4,5.1,2.4,7.9c0,7.9-6.4,14.4-14.3,14.4c-7.9,0-14.4-6.4-14.4-14.3c0-7.9,6.4-14.4,14.3-14.4h0.4l59.5-87.5
	c-0.1-0.4-0.2-0.9-0.2-1.4c-0.9-7.9,4.8-15,12.7-15.8s15,4.8,15.8,12.7l75.4,57.8c4.3-4.2,10.8-5.2,16.2-2.5l68.7-101.8v-55.9
	c-1.4,0-2.5-1.1-2.6-2.5l-1.4-94.4L1143,459l-179.5,1.4l-177.4,0.6l0.3,103.4c-2.4-1.7-4.8-3.4-7.3-5v0c2.4,1.6,4.8,3.3,7.2,5
	l0.3,114.4L786,896.6l84.6,0.3c-1.1,2.2-2.2,4.4-3.4,6.6h0c1.1-2.2,2.3-4.3,3.4-6.5l92.8,0.4c60.1,0.4,120.2,0.9,180.4,2
	c0.5-43.8,1.8-87.6,2.7-131.5c0-0.7,0.6-1.3,1.3-1.3c0,0,0,0,0,0v-41.8l-60.7,89.9C1087.2,815,1087.2,815.5,1087.2,815.9z
	 M1084.1,673.7c-0.1,1.2-1.1,2.2-2.4,2.4c-39.5,4.5-79,4-118.4,4.8c-19.7,0.1-39.5-0.3-59.2-0.8s-39.5-1.9-59.2-5.3
	c-0.7-0.1-1.2-0.8-1.1-1.6c0.1-0.6,0.5-1,1.1-1.1l0,0c19.7-3.5,39.5-4.7,59.2-5.3s39.5-0.9,59.2-0.8c39.5,0.8,79,0.3,118.4,4.8
	C1083.2,670.9,1084.3,672.2,1084.1,673.7z M843.9,535.9c0.1-0.5,0.5-0.9,1-1l0,0c16.5-3.5,33.1-4.7,49.6-5.3s33.1-0.9,49.6-0.8
	c33.1,0.8,66.1,0.3,99.2,4.8c1.5,0.2,2.5,1.5,2.3,3c-0.2,1.2-1.1,2.1-2.3,2.3c-33.1,4.5-66.1,4-99.2,4.8
	c-16.5,0.1-33.1-0.3-49.6-0.8s-33.1-1.9-49.6-5.3C844.2,537.3,843.7,536.6,843.9,535.9z M838.6,602.9c0.1-0.6,0.5-1,1.1-1.1v0
	c20.2-3.5,40.3-4.7,60.5-5.3s40.3-0.9,60.5-0.8c40.3,0.8,80.7,0.3,121,4.8c1.5,0.2,2.5,1.5,2.4,2.9c-0.1,1.2-1.1,2.2-2.4,2.4
	c-40.3,4.5-80.7,4-121,4.8c-20.2,0.1-40.3-0.3-60.5-0.8s-40.3-1.9-60.5-5.3C839,604.3,838.5,603.6,838.6,602.9z M856.1,745.1
	c-5.5-0.6-11-1.8-16.4-5.3c-0.7-0.5-0.9-1.4-0.5-2.2c0,0,0,0,0,0c0.1-0.2,0.3-0.3,0.5-0.5c5.5-3.5,11-4.7,16.4-5.3
	c5.5-0.6,10.9-0.9,16.4-0.8c5.5,0.2,11,0.5,16.4,1c5.6,0.5,11.2,1.8,16.4,3.8c1.5,0.6,2.1,2.3,1.5,3.7c-0.3,0.7-0.8,1.2-1.5,1.5
	c-5.3,2.1-10.8,3.4-16.4,3.8c-5.5,0.5-11,0.9-16.4,1C867.1,746,861.6,745.7,856.1,745.1z"/>
<path class="st1" d="M771.5,678.8l0.3-124c0,0,0,0,0,0l0,0c-41.6-25.9-89.6-39.6-138.5-39.6c-2,0-4,0-6,0.1l6,264.8H368.5
	c0,145.3,119.5,264.8,264.8,264.8c98.2,0,184.5-54.6,230.3-134.8l-84.5,0.3c-3.8,0-6.9-3-6.9-6.9c0,0,0,0,0,0v-0.1L771.5,678.8z"/>
<path class="st3" d="M1149.1,767.8c0-0.7-0.6-1.3-1.3-1.3c0,0,0,0,0,0c-0.7,0-1.3,0.6-1.3,1.3c-0.9,43.8-2.2,87.7-2.7,131.5
	c-60.1-1.1-120.2-1.6-180.4-2l-92.8-0.4c-1.1,2.2-2.2,4.4-3.4,6.5c-1.2,2.2-2.4,4.4-3.6,6.6l99.8-0.5c61.5-0.5,122.9-1,184.4-2.1
	h0.1c2.2,0,4-1.8,4-4c0,0,0,0,0,0C1151.4,858.2,1150,813,1149.1,767.8z"/>
<path class="st3" d="M779,559.4c2.5,1.6,4.9,3.3,7.3,5l-0.3-103.4l177.4-0.6L1143,459l0.8,89.4l1.4,94.4c0.1,1.4,1.2,2.4,2.6,2.5
	c0.1,0,0.1,0,0.2,0c1.3-0.1,2.4-1.1,2.5-2.5l1.4-94.4l0.8-94.4c0-2.7-2.2-4.8-4.8-4.8h-0.1l-184.4-1.4l-184.4-0.7
	c-3.8,0-6.9,3.1-6.9,7c0,0,0,0,0,0l-0.2,100.7C774.3,556.3,776.7,557.9,779,559.4z"/>
<path class="st3" d="M870.6,896.9l-84.6-0.3l0.5-217.8l-0.3-114.4c-2.4-1.7-4.8-3.3-7.2-5c-2.4-1.6-4.8-3.1-7.2-4.6c0,0,0,0,0,0
	l-0.3,124l0.6,224.7v0.1c0,3.8,3.1,6.9,6.9,6.9c0,0,0,0,0,0l84.5-0.3c1.2-2.2,2.4-4.4,3.6-6.6C868.4,901.3,869.5,899.1,870.6,896.9z
	"/>
<path class="st3" d="M843.9,535.9c-0.2,0.7,0.3,1.4,1,1.6c16.5,3.5,33.1,4.8,49.6,5.3s33.1,0.9,49.6,0.8c33.1-0.8,66.1-0.3,99.2-4.8
	c1.2-0.2,2.1-1.1,2.3-2.3c0.2-1.5-0.8-2.8-2.3-3c-33.1-4.5-66.2-4-99.2-4.8c-16.5-0.1-33.1,0.2-49.6,0.8s-33.1,1.9-49.6,5.3l0,0
	C844.4,534.9,844,535.3,843.9,535.9z"/>
<path class="st3" d="M838.6,602.9c-0.1,0.7,0.4,1.4,1.1,1.6c20.2,3.5,40.3,4.8,60.5,5.3s40.4,0.9,60.5,0.8
	c40.3-0.8,80.7-0.3,121-4.8c1.2-0.1,2.2-1.1,2.4-2.4c0.2-1.5-0.9-2.8-2.4-2.9c-40.3-4.5-80.6-4-121-4.8c-20.2-0.1-40.3,0.2-60.5,0.8
	s-40.4,1.9-60.5,5.3v0C839.1,601.9,838.7,602.3,838.6,602.9z"/>
<path class="st3" d="M963.3,680.8c39.4-0.8,79-0.3,118.4-4.8c1.2-0.1,2.2-1.1,2.4-2.4c0.2-1.5-0.9-2.8-2.4-2.9
	c-39.4-4.5-79-4-118.4-4.8c-19.7-0.1-39.5,0.2-59.2,0.8s-39.5,1.9-59.2,5.3l0,0c-0.6,0.1-1,0.5-1.1,1.1c-0.1,0.7,0.4,1.4,1.1,1.6
	c19.7,3.5,39.5,4.8,59.2,5.3S943.6,681,963.3,680.8z"/>
<path class="st3" d="M839.7,739.8c5.5,3.5,11,4.7,16.4,5.3c5.5,0.6,10.9,0.9,16.4,0.8c5.4-0.1,11-0.5,16.4-1
	c5.6-0.5,11.2-1.8,16.4-3.8c0.7-0.3,1.2-0.8,1.5-1.5c0.6-1.5-0.1-3.1-1.5-3.7c-5.3-2.1-10.8-3.4-16.4-3.8c-5.4-0.5-11-0.8-16.4-1
	c-5.5,0-11,0.2-16.4,0.8c-5.4,0.6-10.9,1.8-16.4,5.3c-0.2,0.1-0.4,0.3-0.5,0.5c0,0,0,0,0,0C838.8,738.4,839,739.3,839.7,739.8z"/>
<path class="st3" d="M1188.8,637.3L1188.8,637.3c-7.9,0-14.3,6.4-14.4,14.3c0,2.6,0.7,5.1,2,7.3l-28.6,42.3L1079.1,803
	c-5.4-2.6-11.8-1.6-16.2,2.5l-75.4-57.8c-0.9-7.9-8-13.5-15.8-12.7s-13.5,8-12.7,15.8c0.1,0.5,0.1,0.9,0.2,1.4l-59.5,87.5h-0.4
	c-7.9,0-14.3,6.4-14.3,14.4c0,7.9,6.4,14.3,14.4,14.3c7.9,0,14.3-6.4,14.3-14.4c0-2.8-0.8-5.5-2.4-7.9l56.7-83.4
	c4.9,2,10.5,1.1,14.5-2.3l76.4,58.6c1.8,7.7,9.5,12.6,17.2,10.8c6.5-1.5,11.1-7.3,11.1-13.9c0-0.4,0-0.8-0.1-1.2l60.7-89.9
	l39.7-58.9c0.4,0,0.8,0.1,1.2,0.1c7.9,0,14.3-6.4,14.3-14.4C1203.1,643.7,1196.7,637.3,1188.8,637.3z"/>
</svg>
