<svg width="200" height="200" viewBox="0 0 200 200" fill="none" xmlns="http://www.w3.org/2000/svg"><mask id="mask0" mask-type="alpha" maskUnits="userSpaceOnUse" x="0" y="0" width="200" height="200"><path d="M100 200C155.228 200 200 155.228 200 100C200 44.7715 155.228 0 100 0C44.7715 0 0 44.7715 0 100C0 155.228 44.7715 200 100 200Z" fill="white"/></mask><g mask="url(#mask0)"><path d="M100 200C155.228 200 200 155.228 200 100C200 44.7715 155.228 0 100 0C44.7715 0 0 44.7715 0 100C0 155.228 44.7715 200 100 200Z" fill="#00BA37"/><path fill-rule="evenodd" clip-rule="evenodd" d="M-11.1111 150H77.7778L69.4445 155.556H-11.1111V150Z" fill="#007017"/><mask id="mask1" mask-type="alpha" maskUnits="userSpaceOnUse" x="-37" y="-37" width="274" height="274"><path d="M236.603 63.6243L63.5835 -36.6025L-36.6025 136.376L136.417 236.603L236.603 63.6243Z" fill="white"/></mask><g mask="url(#mask1)"><mask id="mask2" mask-type="alpha" maskUnits="userSpaceOnUse" x="64" y="-6" width="113" height="151"><path d="M92.9278 134.414L88.816 141.528C88.1519 142.677 87.8481 143.05 87.446 143.411C87.044 143.773 86.5981 144.03 86.0834 144.196C85.5687 144.362 85.0937 144.437 83.7672 144.434L68.7071 144.4C66.4075 144.395 64.5464 142.525 64.5503 140.223C64.5516 139.492 64.7445 138.775 65.1097 138.143L73.7044 123.274L68.8985 120.489C83.7225 94.8415 94.8794 68.139 102.369 40.3814L128.774 -5.30286L176.833 22.5467L150.428 68.2309C130.122 88.562 112.558 111.551 97.7337 137.199L92.9278 134.414Z" fill="white"/></mask><g mask="url(#mask2)"><path d="M92.9274 134.414L88.8155 141.528C88.1514 142.677 87.8476 143.05 87.4456 143.412C87.0436 143.773 86.5976 144.03 86.0829 144.196C85.5683 144.362 85.0932 144.437 83.7668 144.434L68.7068 144.4C66.4072 144.395 64.5462 142.525 64.5501 140.223C64.5513 139.493 64.7443 138.776 65.1095 138.144L73.7042 123.274L68.8984 120.489C83.7226 94.8418 94.8797 68.1393 102.37 40.3816L128.775 -5.30286L176.833 22.546L150.428 68.2305C130.122 88.5618 112.557 111.551 97.7332 137.199L92.9274 134.414Z" fill="#007017"/><path d="M155.901 81.0497L88.6087 42.0654L49.6545 109.328L116.947 148.312L155.901 81.0497Z" fill="white"/></g></g></g></svg>