<?xml version="1.0" encoding="utf-8"?><svg version="1.1" id="plan-premium" xmlns="http://www.w3.org/2000/svg" xmlns:xlink="http://www.w3.org/1999/xlink" x="0px"
	 y="0px" viewBox="0 0 1498.3 1498.3" style="enable-background:new 0 0 1498.3 1498.3;" xml:space="preserve">
<style type="text/css">
	.st0{fill:#D0F4E7;}
	.st1{fill:#7BDEBF;}
	.st2{fill:#FFFFFF;}
	.st3{fill:#44D0A3;}
	.st4{fill:#204A69;}
</style>
<path class="st0" d="M749.1,0C335.4,0,0,335.4,0,749.1s335.4,749.1,749.1,749.1s749.1-335.4,749.1-749.1S1162.9,0,749.1,0z
	 M1170.3,838.3l-0.1,40.9c-0.4,13.8,0.9,26.8-1.4,42.1c-4.9,29.6-26.3,55.5-54.3,66c-6.9,2.7-14.2,4.5-21.6,5.3
	c-7.6,0.7-14.5,0.5-21.2,0.5l-31.2-0.1c3.9,10.9,8.6,21.5,14.2,31.6c3.6,6.4,7.5,12.6,11.8,18.6c4.2,5.9,8.7,11.4,13.7,16.6l0.2,0.2
	c1.9,1.9,2.5,4.6,1.6,7.1c-1.3,3.6-5.2,5.4-8.7,4.2c-67.5-23.9-134.3-49.6-199.6-79.1c-85-0.7-170-2-255-4.9v1.3
	c-28.3,0.4-56.4-14.9-71.1-39.4c-7.6-12.2-11.8-26.1-12.3-40.4l-0.1-12.5l0-0.1H335.4V445.7c0-6.8,5.5-12.3,12.3-12.3h620.8v239.8
	l72.5-0.2l41-0.1c15-0.1,29.7,3.5,42.9,10.5c26.2,14.2,44.6,42.6,45.4,72.6C1170.6,784,1170.3,810.8,1170.3,838.3z"/>
<path class="st1" d="M534.4,785.9C534.4,785.9,534.4,785.9,534.4,785.9L534.4,785.9C534.4,785.8,534.4,785.8,534.4,785.9
	c0-2,0-3.9,0-5.7c0-0.2,0-0.5,0-0.7c0-1.7,0-3.4-0.1-5.2c-0.1-4.1-0.1-8.1-0.1-12.3c0,0,0,0,0-0.1h0c0,0,0,0,0,0h0c0,0,0,0,0,0
	h-72.7l120-177l69.6,89.7l62.1-0.5l163.8-0.8l91.2-0.2l0.1,0V433.4H347.7c-6.8,0-12.3,5.5-12.3,12.3v450.6h199.8l-0.3-28.5
	L534.4,785.9z"/>
<path class="st0" d="M590.3,680.1c-0.2,0.1-0.3,0.1-0.5,0.2c0.5-0.2,1-0.4,1.5-0.5c-0.3,0.1-0.6,0.2-0.8,0.3
	C590.4,680,590.3,680,590.3,680.1z"/>
<path class="st0" d="M593.2,679c-0.2,0.1-0.5,0.2-0.7,0.2c0.6-0.2,1.2-0.4,1.8-0.6c-0.2,0-0.3,0.1-0.5,0.1
	C593.6,678.9,593.4,679,593.2,679z"/>
<polygon class="st0" points="631.5,674.9 651.2,674.7 651.2,674.7 635.2,674.8 "/>
<path class="st0" d="M534.4,779.4c0,0.2,0,0.5,0,0.7C534.4,779.9,534.4,779.7,534.4,779.4z"/>
<path class="st0" d="M631.5,674.9c-6.8,0.1-13.6,0-21,0.5C618,674.9,624.7,674.9,631.5,674.9z"/>
<path class="st0" d="M600,677.2c-1,0.2-2,0.5-3,0.8c-0.1,0-0.3,0.1-0.4,0.1c-0.5,0.1-0.9,0.3-1.4,0.4c2.2-0.6,4.4-1.2,6.6-1.7
	c-0.3,0.1-0.6,0.1-0.8,0.2C600.6,677,600.3,677.1,600,677.2z"/>
<path class="st0" d="M534.3,761.9C534.3,761.9,534.3,761.9,534.3,761.9l4.7,0v0H534.3z"/>
<path class="st0" d="M534.4,785.9C534.4,785.8,534.4,785.8,534.4,785.9C534.4,785.8,534.4,785.8,534.4,785.9L534.4,785.9z"/>
<path class="st0" d="M587.4,681.1c-0.1,0-0.2,0.1-0.3,0.1C587.2,681.2,587.3,681.2,587.4,681.1z"/>
<path class="st0" d="M534.4,774.3c-0.1-4.1-0.1-8.1-0.1-12.3C534.2,766.1,534.3,770.2,534.4,774.3z"/>
<path class="st0" d="M603.1,676.5c-0.1,0-0.2,0-0.3,0.1c0.6-0.1,1.2-0.2,1.7-0.3c-0.1,0-0.3,0-0.4,0.1
	C603.8,676.4,603.4,676.4,603.1,676.5z"/>
<path class="st0" d="M606.5,675.9c-0.2,0-0.3,0.1-0.5,0.1c0.5-0.1,1-0.2,1.5-0.2c-0.1,0-0.1,0-0.2,0
	C607,675.8,606.7,675.9,606.5,675.9z"/>
<path class="st1" d="M604.1,676.3c0.1,0,0.3,0,0.4-0.1c0.5-0.1,1-0.2,1.5-0.2c0.2,0,0.3-0.1,0.5-0.1
	C605.7,676,604.9,676.2,604.1,676.3z"/>
<path class="st1" d="M610.5,675.4c-1.1,0.1-2.1,0.3-3.2,0.4c0.1,0,0.1,0,0.2,0C608.5,675.6,609.5,675.5,610.5,675.4
	c7.5-0.5,14.2-0.5,21-0.5l3.7,0l-3.7,0C624.6,674.9,617.9,674.9,610.5,675.4z"/>
<path class="st1" d="M596.9,677.9c1-0.3,2-0.5,3-0.8C598.9,677.4,597.9,677.7,596.9,677.9z"/>
<path class="st1" d="M552.2,707.6c0.1-0.1,0.1-0.2,0.2-0.2C552.4,707.4,552.3,707.5,552.2,707.6z"/>
<path class="st1" d="M589.3,680.4c-13.7,5.1-25.8,13.7-35.2,24.8c-0.4,0.5-0.9,1.1-1.3,1.6c8.9-11.2,20.7-20.1,34.3-25.6
	c0.1,0,0.2-0.1,0.3-0.1C588.1,680.9,588.7,680.6,589.3,680.4c0.2-0.1,0.3-0.1,0.5-0.2c0.2-0.1,0.3-0.1,0.5-0.2
	C589.9,680.2,589.6,680.3,589.3,680.4z"/>
<path class="st1" d="M590.4,680c0.3-0.1,0.5-0.2,0.8-0.3c0.4-0.1,0.8-0.3,1.2-0.4c0.2-0.1,0.5-0.2,0.7-0.2
	C592.3,679.3,591.4,679.7,590.4,680z"/>
<path class="st1" d="M600.9,677c0.3-0.1,0.6-0.1,0.8-0.2c0.4-0.1,0.7-0.2,1.1-0.2c0.1,0,0.2,0,0.3-0.1
	C602.3,676.7,601.6,676.8,600.9,677z"/>
<path class="st1" d="M593.8,678.9c0.2-0.1,0.3-0.1,0.5-0.1c0.3-0.1,0.6-0.2,0.8-0.2c0.5-0.1,0.9-0.3,1.4-0.4
	C595.6,678.3,594.7,678.6,593.8,678.9z"/>
<path class="st2" d="M1155.6,879.3l-0.1-41l-0.3-81.6c-0.6-24.9-15.8-48.4-37.5-60.3c-11-5.9-23.3-8.9-35.8-8.8l-41-0.1l-72.6-0.2
	l-0.1,0l-91.2-0.2l-163.8-0.8l-53.4-0.4l0,0l-28.5-0.2c-6.9-0.1-13.8-0.2-20,0.2c-6.4,0.6-12.6,2-18.6,4.2
	c-12.1,4.4-22.8,11.8-31.2,21.6c-8.4,9.8-14.1,21.6-16.6,34.2c-0.9,5.3-1.4,10.7-1.4,16.1H539v0h4.6c-0.2,7.8,0.1,15.9-0.1,23.9
	l-0.5,81.9l-0.1,28.6l0,12.3c0.2,13.1,3.8,25.9,10.5,37.2c13,22.8,38.8,37.5,65.2,37.7v1.3c85.5-2.9,170.9-4.2,256.4-4.9
	c0.8,0,1.6,0.2,2.4,0.5l0.1,0.1c58.2,25.2,117.3,48.5,177,69.8c0,0-0.1-0.1-0.1-0.1c-4.3-6-8.2-12.2-11.9-18.7
	c-7.7-13.7-13.9-28.3-18.6-43.3c-1-3.2,0.5-6.6,3.3-8.2c0.4-0.2,0.8-0.4,1.2-0.5c0.7-0.2,1.4-0.3,2.1-0.3l41-0.1
	c6.9,0,13.7,0,19.7-0.5c6.2-0.7,12.2-2.2,18-4.5c2.9-1.1,5.8-2.4,8.5-3.9c19-10.4,33.1-29.7,36.5-51.2
	C1156.4,907.2,1155.3,892.8,1155.6,879.3z M968.4,816.7c3.4-1.6,7.1-2.5,11.1-2.5c14.1,0,25.5,11.4,25.5,25.5s-11.4,25.5-25.5,25.5
	c-4,0-7.7-0.9-11.1-2.5c-8.6-4.1-14.5-12.9-14.5-23S959.8,820.8,968.4,816.7z M852.3,814.2c14.1,0,25.5,11.4,25.5,25.5
	s-11.4,25.5-25.5,25.5s-25.5-11.4-25.5-25.5S838.2,814.2,852.3,814.2z M725.1,814.2c14.1,0,25.5,11.4,25.5,25.5
	s-11.4,25.5-25.5,25.5s-25.5-11.4-25.5-25.5S711,814.2,725.1,814.2z"/>
<path class="st3" d="M593.2,679c0.2-0.1,0.4-0.1,0.6-0.2C593.6,678.9,593.4,679,593.2,679z"/>
<polygon class="st3" points="635.2,674.8 651.2,674.7 651.2,674.7 "/>
<path class="st3" d="M590.3,680.1c0.1,0,0.1,0,0.2-0.1C590.4,680,590.3,680,590.3,680.1z"/>
<path class="st3" d="M596.5,678.1c0.1,0,0.3-0.1,0.4-0.1C596.8,678,596.7,678,596.5,678.1z"/>
<path class="st3" d="M600,677.2c0.3-0.1,0.6-0.1,0.9-0.2C600.6,677,600.3,677.1,600,677.2z"/>
<path class="st3" d="M534.3,761.7c0-0.9,0-1.9,0.1-2.8C534.3,759.8,534.3,760.8,534.3,761.7z"/>
<path class="st3" d="M534.7,752.8c0.2-2.9,0.6-5.7,1-8.6C535.2,747.1,534.9,750,534.7,752.8z"/>
<path class="st3" d="M606.5,675.9c0.3,0,0.5-0.1,0.8-0.1C607,675.8,606.7,675.9,606.5,675.9z"/>
<path class="st3" d="M534.5,756.2c0-0.9,0.1-1.8,0.2-2.7C534.6,754.4,534.5,755.3,534.5,756.2z"/>
<path class="st3" d="M603.1,676.5c0.3-0.1,0.7-0.1,1-0.2C603.8,676.4,603.4,676.4,603.1,676.5z"/>
<path class="st3" d="M534.3,761.7c0-0.9,0-1.9,0.1-2.8c0-0.9,0.1-1.8,0.1-2.7c0-0.9,0.1-1.8,0.2-2.7c0-0.2,0-0.5,0.1-0.7
	c0.2-2.8,0.6-5.7,1-8.6c0,0,0-0.1,0-0.1c2.5-13.5,8.3-26,16.5-36.5c0.1-0.1,0.1-0.2,0.2-0.2c0.1-0.2,0.3-0.3,0.4-0.5
	c0.4-0.5,0.9-1.1,1.3-1.6c9.4-11.2,21.5-19.7,35.2-24.8c0.3-0.1,0.7-0.2,1-0.3c0.1,0,0.1,0,0.2-0.1c0.9-0.3,1.8-0.6,2.8-0.9
	c0.2-0.1,0.4-0.1,0.6-0.2c0.9-0.3,1.8-0.5,2.7-0.8c0.1,0,0.3-0.1,0.4-0.1c1-0.3,2-0.5,3-0.8c0.3-0.1,0.6-0.1,0.9-0.2
	c0.7-0.2,1.5-0.3,2.2-0.5c0.3-0.1,0.7-0.1,1-0.2c0.8-0.1,1.6-0.3,2.3-0.4c0.3,0,0.5-0.1,0.8-0.1c1.1-0.2,2.1-0.3,3.2-0.4
	c7.4-0.5,14.2-0.5,21-0.5l3.7,0l16-0.1l0,0l0,0L581.6,585l-120,177h72.7c0,0,0,0,0,0h0C534.3,761.8,534.3,761.8,534.3,761.7z"/>
<g>
	<path class="st4" d="M979.5,865.2c14.1,0,25.5-11.4,25.5-25.5s-11.4-25.5-25.5-25.5c-4,0-7.7,0.9-11.1,2.5
		c-8.6,4.1-14.5,12.9-14.5,23s5.9,18.9,14.5,23C971.7,864.3,975.5,865.2,979.5,865.2z"/>
	<circle class="st4" cx="852.3" cy="839.7" r="25.5"/>
	<circle class="st4" cx="725.1" cy="839.7" r="25.5"/>
	<path class="st4" d="M1170.3,838.3c-0.1-27.5,0.3-54.3-0.1-82.2c-0.8-30.1-19.2-58.4-45.4-72.6c-13.2-7-27.9-10.6-42.9-10.5
		l-41,0.1l-72.5,0.2l-0.1,0l-91.2,0.2l-163.8,0.8l-62.1,0.5l0,0l0,0l0,0l0,0l-19.7,0.2c-6.8,0.1-13.5,0-21,0.5c-1,0.1-2,0.2-3,0.4
		c-0.5,0.1-1,0.1-1.5,0.2c-0.5,0.1-1,0.2-1.5,0.2c-0.6,0.1-1.2,0.2-1.7,0.3c-0.4,0.1-0.7,0.1-1.1,0.2c-2.2,0.5-4.4,1-6.6,1.7
		c-0.3,0.1-0.6,0.2-0.8,0.2c-0.6,0.2-1.2,0.4-1.8,0.6c-0.4,0.1-0.8,0.3-1.2,0.4c-0.5,0.2-1,0.4-1.5,0.5c-0.1,0.1-0.3,0.1-0.4,0.2
		c-0.6,0.2-1.3,0.5-1.9,0.7c-0.1,0-0.2,0.1-0.3,0.1c-13.6,5.5-25.4,14.4-34.3,25.6c-0.1,0.2-0.3,0.3-0.4,0.5
		c-0.1,0.1-0.1,0.2-0.2,0.2c-8.2,10.5-14,23-16.5,36.5c0,0,0,0.1,0,0.1c-0.5,2.8-0.8,5.7-1,8.6c0,0.2,0,0.5-0.1,0.7
		c-0.1,0.9-0.1,1.8-0.2,2.7c0,0.1,0,0.1,0,0.2c0,0.8-0.1,1.6-0.1,2.4c0,0,0,0.1,0,0.1c0,0.9-0.1,1.9-0.1,2.8c0,0.1,0,0.1,0,0.2h0h0
		h4.7h4.7c0.1-5.4,0.5-10.8,1.4-16.1c2.5-12.6,8.2-24.4,16.6-34.2c8.4-9.8,19.1-17.2,31.2-21.6c6-2.2,12.2-3.6,18.6-4.2
		c6.2-0.4,13.1-0.3,20-0.2l28.5,0.2l0,0l53.4,0.4l163.8,0.8l91.2,0.2l0.1,0l72.6,0.2l41,0.1c12.5-0.1,24.8,2.9,35.8,8.8
		c21.7,11.9,36.9,35.4,37.5,60.3l0.3,81.6l0.1,41c-0.3,13.5,0.8,27.9-1.1,39.6c-3.4,21.5-17.5,40.8-36.5,51.2
		c-2.7,1.5-5.6,2.8-8.5,3.9c-5.8,2.3-11.8,3.8-18,4.5c-6,0.6-12.7,0.5-19.7,0.5l-41,0.1c-0.7,0-1.4,0.1-2.1,0.3
		c-0.4,0.1-0.9,0.3-1.2,0.5c-2.9,1.6-4.3,5-3.3,8.2c4.6,15,10.9,29.6,18.6,43.3c3.6,6.4,7.6,12.7,11.9,18.7c0,0,0.1,0.1,0.1,0.1
		c-59.7-21.3-118.8-44.6-177-69.8l-0.1-0.1c-0.8-0.3-1.6-0.5-2.4-0.5c-85.5,0.7-170.9,2-256.4,4.9v-1.3
		c-26.5-0.2-52.2-14.9-65.2-37.7c-6.7-11.3-10.3-24.1-10.5-37.2l0-12.3l0.1-28.6l0.5-81.9c0.2-8-0.1-16.1,0.1-23.9H539h-4.7h0
		c0,0,0,0,0,0.1c-0.1,4.1,0,8.2,0.1,12.3c0,1.7,0.1,3.4,0.1,5.2c0,0.2,0,0.5,0,0.7c0,1.9,0,3.8,0,5.7c0,0,0,0,0,0.1c0,0,0,0,0,0
		l0.5,81.9l0.3,28.5l0,0.1l0.1,12.5c0.5,14.3,4.7,28.2,12.3,40.4c14.7,24.6,42.8,39.8,71.1,39.4v-1.3c85,2.9,170,4.1,255,4.9
		c65.3,29.5,132,55.2,199.6,79.1c3.6,1.3,7.5-0.6,8.7-4.2c0.9-2.5,0.3-5.2-1.6-7.1l-0.2-0.2c-5-5.2-9.6-10.7-13.7-16.6
		c-4.3-6-8.2-12.2-11.8-18.6c-5.6-10.1-10.4-20.7-14.2-31.6l31.2,0.1c6.7,0,13.6,0.2,21.2-0.5c7.4-0.8,14.7-2.6,21.6-5.3
		c28-10.5,49.4-36.4,54.3-66c2.3-15.3,1.1-28.4,1.4-42.1L1170.3,838.3z"/>
</g>
</svg>
