<svg width="200" height="200" viewBox="0 0 200 200" fill="none" xmlns="http://www.w3.org/2000/svg"><mask id="mask0" mask-type="alpha" maskUnits="userSpaceOnUse" x="0" y="0" width="200" height="200"><path d="M100 200C155.228 200 200 155.228 200 100C200 44.7715 155.228 0 100 0C44.7715 0 0 44.7715 0 100C0 155.228 44.7715 200 100 200Z" fill="white"/></mask><g mask="url(#mask0)"><path d="M100 200C155.228 200 200 155.228 200 100C200 44.7715 155.228 0 100 0C44.7715 0 0 44.7715 0 100C0 155.228 44.7715 200 100 200Z" fill="#C475BD"/><path fill-rule="evenodd" clip-rule="evenodd" d="M0 150C7.40741 150 35.1852 150 83.3333 150C22.2222 153.627 14.8148 168.417 61.1111 194.369C20.3704 194.369 0 179.579 0 150Z" fill="#7C3982"/><mask id="mask1" mask-type="alpha" maskUnits="userSpaceOnUse" x="-37" y="-37" width="274" height="274"><path d="M236.603 63.5979L63.5981 -36.6025L-36.6026 136.402L136.402 236.603L236.603 63.5979Z" fill="white"/></mask><g mask="url(#mask1)"><mask id="mask2" mask-type="alpha" maskUnits="userSpaceOnUse" x="71" y="-11" width="109" height="156"><path d="M96.2446 69.1323C103.704 47.0547 121.908 6.57178 125.993 -0.495623L131.552 -10.1134L179.612 17.7326L174.053 27.3503C169.968 34.4177 143.979 70.3898 128.576 87.8653C132.127 96.3728 130.552 105.984 124.02 113.91C114.189 125.838 86.3516 140.23 77.3762 144.659L72.5702 141.874C71.9337 131.877 70.0241 101.883 75.96 86.064C79.5695 76.4447 87.108 70.2886 96.2446 69.1323ZM99.0252 106.587C101.644 106.97 104.351 105.761 105.757 103.329C107.599 100.142 106.51 96.062 103.325 94.2165C100.14 92.3711 96.0647 93.4586 94.2225 96.6457C92.8166 99.078 93.1178 102.03 94.7552 104.112L79.8021 133.25C79.6067 133.631 79.7313 134.098 80.0905 134.331C80.4766 134.581 80.9922 134.471 81.2421 134.084L99.0252 106.587Z" fill="white"/></mask><g mask="url(#mask2)"><path d="M96.2448 69.1325C103.705 47.0549 121.909 6.57185 125.994 -0.495586L131.553 -10.1134L179.612 17.732L174.053 27.3498C169.968 34.4172 143.979 70.3895 128.576 87.8652C132.127 96.3726 130.551 105.984 124.019 113.91C114.189 125.838 86.3512 140.231 77.3758 144.659L72.5699 141.875C71.9335 131.877 70.0242 101.883 75.9601 86.0644C79.5698 76.4451 87.1082 70.2889 96.2448 69.1325ZM99.025 106.587C101.644 106.971 104.351 105.761 105.757 103.329C107.599 100.142 106.51 96.0621 103.325 94.2166C100.14 92.3712 96.0647 93.4588 94.2225 96.6459C92.8165 99.0782 93.1177 102.03 94.755 104.113L79.8018 133.25C79.6064 133.631 79.731 134.098 80.0902 134.331C80.4763 134.581 80.9919 134.471 81.2418 134.084L99.025 106.587Z" fill="white"/><path d="M184.423 20.5224L126.746 -12.8918L90.5769 49.5735L148.254 82.9878L184.423 20.5224Z" fill="#7C3982"/></g></g></g></svg>