<svg id="plan-personal" xmlns="http://www.w3.org/2000/svg" viewBox="0 0 1498 1498"><style>.st2{fill:#fff}.st3{fill:#204a69}</style><path d="M749 0C335.3 0 0 335.3 0 749s335.3 749 749 749 749-335.3 749-749S1162.7 0 749 0zm406.7 1011.6c-59 4.4-118 6-177 7.3l-1.9 29.1c-1.1 11.6-5.5 22.6-12.7 31.7-14 18.3-38.3 27.2-59.8 25.9l-61.4.2-61.4.2c-21.3 1.4-46.2-7-60.4-25.5-7.4-9.1-12-20.2-13.1-31.9-.7-9.8-.8-18.5-1.2-27.5l-31.1-.1-96-1.4c-64-1.2-128-3.7-192-10.7-1.5-.2-2.5-1.5-2.4-2.9.1-.6.3-1.1.7-1.5h-43.7V518.4c0-10.3 8.3-18.6 18.6-18.6h342.8l-3.9-34.1c-.1-1.3.1-2.7.6-3.9l23.7-51.8c1.7-3.7 6.1-5.4 9.9-3.7 1 .5 1.9 1.1 2.6 2l37.8 45.1c.9 1.1 1.5 2.5 1.7 3.9l12.5 117.9c4 39.3 8.4 78.7 12 117.8l1.2 12.4 17.5.2c4.5 0 8.9.1 13.4.1l-.3-15.8-.6-96.3-.2-48.3c-.2-16.9 12.6-32.3 28.6-36.6l-11-12.1-.2.2c-.7.5-1.7.4-2.3-.1-7.4-6.1-10.3-16.5-10.2-25.6-.2-9.4 2.1-18.2 4.5-26.7 5.2-17 13.1-32.6 20-48.1.4-.9 1-1.7 1.7-2.4 3-2.7 7.6-2.6 10.3.4l.2.2c16.6 17.9 28.5 41.2 30.2 66.4.8 12.5-1.1 25.7-8.2 37-3.1 4.7-7.3 8.9-12.3 11.8 14.5 5.4 25.5 19.9 25.3 35.6l-.2 48.3-.5 96.3-.3 17.1 29.2.6c1.4 0 2.6 1.2 2.6 2.6h52.2c0-.7.7-1.3 1.4-1.2.7 0 1.3.7 1.2 1.4-2.7 81.9-6.7 163.7-11.5 245.5l-2.2 38c58.5 1.3 117 2.9 175.5 7.3 2.9.2 5.1 2.8 4.9 5.7-.1 2.4-2.1 4.5-4.8 4.7z" fill="#fff2d2"/><path d="M387.7 1003.6c64-6.9 128-9.3 192-10.6l96-1.4 30.1-.1-1.3-35.5c-2.9-81.9-6-163.7-8.1-245.6v-.1c-.1-3.1 2.4-5.7 5.5-5.8h.2l25 .2-.7-6-22.7-198.9H360.9c-10.3 0-18.6 8.3-18.6 18.6v486.1H386c.5-.5 1.1-.8 1.7-.9z" fill="#fcd56e"/><path class="st2" d="M751 479.8l-1.1-.7c-2.8-1.6-5.5-3.3-8.2-5-2.9 3.2-6 6.1-9.3 8.9l-1.7 1.4c-2.1 1.7-5.1 1.5-7-.4l-7.9-8.4 2.6 24.2 20.4 190.3.8 7.3.7 7.4 50.3.5-2-15.7c-5-38.6-9.2-76.9-13.7-115.4L763 471.3c-1.3 2.4-2.7 4.6-4.3 6.8-1.8 2.5-5.1 3.2-7.7 1.7zM725.3 470.5c1.5-1.9 3-3.8 4.6-5.7 1.6-1.9 3.3-3.8 5-5.7 2.6-2.8 6.9-3.3 10-1.1 1.8 1.3 3.6 2.7 5.4 4.1 1.2 1 2.4 1.9 3.6 2.9 2.3-1.7 4.7-3.1 7.3-4.3.1 0 .1-.1.2-.1l-20.6-24.3c-4.3 1.6-8.9 2.5-13.6 2.7L715 466l1.5.6 8.8 3.9zM894.2 689.8l-.5-96.3-.3-48c0-12.5-11.3-23.3-23.7-23.1-12.4-.4-23.8 10.5-23.8 23.1l-.3 48-.6 96.3-.3 16c16.5.2 33.1.6 49.6.9l-.1-16.9zM862.1 439.8c5.4 1 10.1 3.9 13.1 5.2 2.8 1.5 5.9 2.4 9 2.8.9.2 1.9.3 2.9.4-3.7-12.6-10.1-24.4-18-35.2-4.4 8.8-8.7 17.6-12.6 26.4 1.9-.1 3.7.1 5.6.4zM849.2 496.6l11 12.1.9 1c.2-.2.6-.4.9-.4 3.3 0 6.5-.7 9.4-1.8 6.6-2.6 11.9-7.8 14.6-14.7 4.2-9.3 4.9-20.2 3.8-30.7-.1-.8-.2-1.6-.3-2.3-1.6.7-3.3 1.1-5 1.3-5.5.8-11.2-.1-16.1-2.7-4.6-2.7-7.1-4.9-10.1-6.2l-6-2.6c-2.9 7.1-5 14.5-6.4 22.1-1.2 7.8-.8 15.6 3.6 22.4.6.8.4 1.8-.3 2.5zM939 710.2c0 1.5-1.2 2.7-2.6 2.7l-29.3.6c-2.1 0-4.2.1-6.3.1-2.1 0-4.2.1-6.2.1-16.6.3-33.3.7-49.9.9-2 0-4 .1-6 .1s-4 .1-6 .1c-4.5 0-9 .1-13.5.1l-16.6.2-5.4.1-5.4.1-50.5.5h-6.4l-6.4.1-20.3.2c4 79.8 7.2 159.7 10.5 239.6l1.5 36 .5 12.9.5 12.5c.1 1.4.1 2.7.2 4.1.4 8.8.6 18.1 1.2 26.1.9 8.8 4.4 17.2 10.1 24 5.7 7 13.1 12.4 21.5 15.7 8.6 3.6 17 4.5 27.3 4.3l61.4.2 61.4.2c19.3 1.1 37.5-6.1 49.1-20.4 5.6-7 9.1-15.5 10-24.5l2-27.6.2-2.9 1.7-22.8 2.9-38.4c6.1-81.7 12.9-163.3 21-244.8l-52.2-.1zm-182.2 64.9c.1-.7.8-1.2 1.6-1.1.5.1.9.4 1.1.9 4.5 14 6.7 28.2 8.3 42.5s2.9 28.5 3.8 42.8 1.5 28.6 2 42.9c.3 7.7.3 15.4.2 23.1 0 1.1-.1 2.3-.1 3.4s-.1 2.3-.1 3.4c-.2 4.4-.4 8.8-.8 13.2-.2 1.5-1.5 2.5-2.9 2.4-1.1-.1-2.1-.9-2.3-2-.9-4.1-1.8-8.3-2.5-12.4-.2-1.2-.4-2.4-.6-3.5-.2-1.2-.4-2.4-.6-3.5-1.3-7.7-2.3-15.3-3.1-23.1-1.5-14.2-2.8-28.5-4-42.8s-1.7-28.6-2.1-42.9-.4-28.7 2.1-43.3z"/><g><path class="st3" d="M1155.7 1001c-58.5-4.3-117-6-175.5-7.3l2.2-38c4.8-81.8 8.8-163.6 11.5-245.5 0-.7-.5-1.4-1.2-1.4s-1.4.5-1.4 1.2c-8.1 81.5-14.9 163.2-21 244.8l-2.9 38.4-1.7 22.8-.2 2.9-2 27.6c-.9 9-4.4 17.4-10 24.5-11.5 14.3-29.7 21.5-49.1 20.4l-61.4-.2-61.4-.2c-10.3.1-18.7-.7-27.3-4.3-8.4-3.4-15.8-8.8-21.5-15.7-5.6-6.8-9.1-15.2-10.1-24-.6-8-.9-17.3-1.2-26.1-.1-1.4-.1-2.8-.2-4.1l-.5-12.5-.5-12.9-1.5-36c-3.3-79.9-6.5-159.8-10.5-239.6l20.3-.2 6.4-.1h6.4l50.5-.5 5.4-.1 5.4-.1 16.6-.2c4.5 0 9-.1 13.5-.1 2 0 4 0 6-.1 2 0 4 0 6-.1 16.6-.2 33.3-.6 49.9-.9 2.1 0 4.2-.1 6.2-.1 2.1 0 4.2-.1 6.3-.1l29.3-.6c1.5 0 2.6-1.2 2.6-2.6 0-1.4-1.2-2.6-2.6-2.6l-29.2-.6.3-17.1.5-96.3.2-48.3c.2-15.7-10.8-30.2-25.3-35.6 5-2.8 9.1-7.1 12.3-11.8 7.1-11.3 9-24.5 8.2-37-1.7-25.2-13.6-48.5-30.2-66.4l-.2-.2c-2.7-3-7.3-3.1-10.3-.4-.7.7-1.3 1.5-1.7 2.4-6.9 15.5-14.8 31.1-20 48.1-2.5 8.5-4.7 17.3-4.5 26.7-.1 9.1 2.8 19.5 10.2 25.6.7.5 1.6.6 2.3.1.1-.1.2-.1.2-.2.7-.7.8-1.7.3-2.5-4.4-6.8-4.8-14.6-3.6-22.4 1.4-7.6 3.5-15 6.4-22.1l6 2.6c3 1.3 5.5 3.5 10.1 6.2 4.9 2.6 10.6 3.6 16.1 2.7 1.7-.2 3.4-.7 5-1.3.1.8.2 1.6.3 2.3 1.1 10.5.4 21.4-3.8 30.7-2.7 6.8-8 12.1-14.6 14.7-2.9 1.2-6.1 1.8-9.4 1.8-.4 0-.7.2-.9.4l-.9-1c-16.1 4.3-28.8 19.7-28.6 36.6l.2 48.3.6 96.3.3 15.8c-4.5 0-8.9-.1-13.4-.1l-17.5-.2-1.2-12.4c-3.6-39.1-8-78.5-12-117.8l-12.5-117.9c-.2-1.4-.7-2.8-1.7-3.9l-37.8-45.1c-.7-.9-1.6-1.5-2.6-2-3.7-1.7-8.2-.1-9.9 3.7l-23.7 51.8c-.6 1.2-.8 2.6-.6 3.9l3.9 34.1 22.7 198.9.7 6-25-.2h-.2c-3.1.1-5.6 2.7-5.5 5.8v.1c2.1 81.9 5.2 163.8 8.1 245.6l1.3 35.5-30.1.1-96 1.4c-64 1.2-128 3.7-192 10.7v-.1c-.7.1-1.3.4-1.7.9-.4.4-.6.9-.7 1.5-.2 1.5.9 2.8 2.4 2.9 64 7 128 9.4 192 10.7l96 1.4 31.1.1c.3 9.1.5 17.7 1.2 27.5 1.2 11.7 5.7 22.8 13.1 31.9 14.2 18.5 39 26.9 60.4 25.5l61.4-.2 61.4-.2c21.5 1.2 45.8-7.7 59.8-25.9 7.2-9.1 11.6-20.1 12.7-31.7l1.9-29.1c59-1.3 118-2.9 177-7.3 2.6-.2 4.7-2.3 4.9-4.9.1-2.7-2-5.3-5-5.5zM761.4 460.7c-.1 0-.1.1-.2.1-2.6 1.2-5 2.6-7.3 4.3-1.2-1-2.4-2-3.6-2.9-1.8-1.4-3.6-2.8-5.4-4.1-3.1-2.2-7.4-1.7-10 1.1-1.7 1.9-3.4 3.7-5 5.7-1.6 1.8-3.1 3.7-4.6 5.7l-8.8-3.9-1.5-.7 12.3-26.9c4.6-.2 9.2-1.1 13.6-2.7l20.5 24.3zm-45.6 14.9l7.9 8.4c1.9 2 4.9 2.1 7 .4l1.7-1.4c3.3-2.8 6.4-5.8 9.3-8.9 2.7 1.7 5.5 3.4 8.2 5l1.1.7c2.6 1.5 5.9.8 7.7-1.6 1.6-2.2 3-4.4 4.3-6.8l11.8 102.9c4.6 38.4 8.7 76.8 13.7 115.4l2 15.7-50.3-.5-.7-7.4-.8-7.3-20.4-190.3-2.5-24.3zm129.3 214.2l.6-96.3.3-48c0-12.5 11.4-23.5 23.8-23.1 12.3-.2 23.7 10.6 23.7 23.1l.3 48 .5 96.3.3 16.9c-16.5-.3-33.1-.7-49.6-.9l.1-16zm39.1-242c-3.1-.4-6.2-1.3-9-2.8-3-1.4-7.7-4.2-13.1-5.2-1.8-.3-3.7-.5-5.6-.4 3.9-8.8 8.2-17.6 12.6-26.4 7.9 10.8 14.3 22.6 18 35.2-1-.1-2-.2-2.9-.4z"/><path class="st3" d="M767.7 817.5c-1.6-14.2-3.8-28.5-8.3-42.5-.2-.5-.6-.9-1.1-.9-.7-.1-1.4.4-1.6 1.1-2.5 14.5-2.8 28.9-2.4 43.2s1 28.6 2.1 42.9 2.5 28.5 4 42.8c.8 7.7 1.8 15.4 3.1 23.1.2 1.2.4 2.4.6 3.5.2 1.2.4 2.4.6 3.5.8 4.2 1.6 8.3 2.5 12.4.3 1.1 1.2 1.9 2.3 2 1.5.2 2.8-.9 2.9-2.4.3-4.4.6-8.8.8-13.2 0-1.1.1-2.3.1-3.4s.1-2.3.1-3.4c.2-7.7.1-15.4-.2-23.1-.5-14.3-1.1-28.6-2-42.9s-1.9-28.5-3.5-42.7z"/></g></svg>
