<svg enable-background="new 0 0 600 300" height="300" viewBox="0 0 600 300" width="600" xmlns="http://www.w3.org/2000/svg"><path d="m43.111 164.424c3.991 0 6.727-.912 8.209-2.623 1.498-1.697 2.311-3.893 2.28-6.156v-52.108l19.372 51.423c.843 2.386 2.298 4.509 4.219 6.157 1.825 1.482 4.561 2.28 8.209 2.28 2.339.026 4.649-.522 6.728-1.597 2.169-1.247 3.765-3.293 4.447-5.701l20.638-57.01v56.098c-.143 2.543.716 5.04 2.395 6.955 1.596 1.597 4.219 2.51 7.867 2.51 3.991 0 6.728-.913 8.209-2.623 1.498-1.698 2.311-3.893 2.281-6.157v-83.121c.156-2.996-1.272-5.853-3.763-7.525-2.395-1.596-5.701-2.395-9.806-2.395-3.708-.156-7.395.629-10.718 2.28-2.847 1.758-4.924 4.528-5.815 7.753l-22.451 66.474-23.375-66.93c-.921-2.839-2.717-5.313-5.131-7.069-2.395-1.71-5.701-2.509-10.034-2.509-3.541-.173-7.058.657-10.148 2.395-2.623 1.71-3.991 4.447-3.991 8.209v81.525c0 3.192.798 5.474 2.28 7.069 1.713 1.597 4.336 2.396 8.098 2.396z"/><path d="m171.157 165.107c2.958.037 5.909-.308 8.779-1.025 2.302-.605 4.522-1.486 6.613-2.623 1.809-.963 3.461-2.192 4.903-3.648.684-.684 1.368-1.368 1.938-2.053v.114c0 3.079.912 5.358 2.851 6.728 2.175 1.38 4.724 2.057 7.297 1.938 3.535 0 6.043-.684 7.639-2.052s2.395-3.649 2.395-6.613v-42.188c0-9.236-2.508-16.077-7.411-20.524s-12.999-6.613-24.059-6.613c-4.723-.056-9.435.48-14.024 1.596-3.549.862-6.963 2.205-10.148 3.991-2.442 1.328-4.579 3.153-6.271 5.359-1.334 1.607-2.097 3.613-2.167 5.701-.057 2.514.983 4.929 2.851 6.613 1.664 1.748 3.972 2.737 6.385 2.736 1.53.019 3.047-.292 4.447-.912 1.14-.57 2.28-1.368 3.535-2.166 1.394-.948 2.836-1.824 4.321-2.623 1.143-.64 2.323-1.211 3.535-1.71 1.144-.424 2.328-.729 3.535-.912 1.321-.193 2.656-.269 3.991-.228 1.902-.042 3.796.267 5.587.912 1.339.468 2.522 1.297 3.42 2.395.792 1.015 1.374 2.178 1.71 3.42.365 1.299.557 2.641.57 3.991v1.825c-3.877.228-7.525.57-11.06.912s-7.297.912-10.946 1.596c-3.248.556-6.45 1.356-9.578 2.395-2.958.949-5.707 2.459-8.095 4.447-2.307 1.895-4.174 4.268-5.473 6.955-1.447 3.143-2.149 6.576-2.052 10.034 0 6.728 2.28 12.201 6.727 16.305 4.447 3.875 10.615 5.927 18.255 5.927zm-2.737-28.846c1.254-1.597 3.991-2.851 8.324-3.763 1.596-.342 3.991-.798 7.183-1.254 2.965-.456 6.043-.798 9.236-1.14v4.219c.104 3.746-1.54 7.327-4.447 9.691-3.079 2.509-7.412 3.877-12.999 3.877-3.42 0-5.815-.57-7.183-1.824-1.364-1.298-2.075-3.139-1.938-5.017-.053-1.776.604-3.499 1.824-4.789z"/><path d="m242.762 89.968c-2.182-1.573-4.842-2.339-7.525-2.167-3.763 0-6.613.912-8.438 2.623-1.828 1.93-2.777 4.529-2.623 7.183v58.15c0 3.877 1.938 8.552 10.946 8.552 2.699.134 5.371-.585 7.64-2.052 1.938-1.369 2.964-3.649 2.964-6.842v-58.72c.058-2.57-1.028-5.035-2.964-6.727z"/><path d="m226.457 78.68c2.377 2.116 5.486 3.221 8.666 3.079 3.177.123 6.279-.979 8.666-3.079 2.226-2.185 3.426-5.208 3.307-8.324 0-3.876-1.254-6.727-3.876-8.666-2.326-1.775-5.17-2.737-8.096-2.736-3.19-.084-6.292 1.059-8.666 3.192-2.164 2.132-3.359 5.058-3.307 8.096-.141 3.154 1.06 6.219 3.306 8.438z"/><path d="m267.276 164.424c2.699.133 5.371-.585 7.64-2.053 1.938-1.368 2.964-3.648 2.964-6.841v-84.718c.194-2.644-1.075-5.182-3.307-6.613-2.131-1.29-4.579-1.96-7.069-1.938-9.122 0-11.06 4.903-11.06 9.122v84.375c-.114 3.991 1.825 8.666 10.832 8.666z"/><path d="m301.824 164.424c4.105 0 6.842-.912 8.324-2.736 1.383-1.793 2.107-4.008 2.052-6.271v-27.707h15.963c7.183 0 13.112-1.026 17.787-3.079 4.235-1.75 8.018-4.44 11.06-7.868 2.58-3.021 4.484-6.559 5.588-10.375.988-3.526 1.486-7.17 1.482-10.832 0-10.262-2.965-18.244-8.78-23.831s-15.165-8.438-27.821-8.438h-27.935c-2.214-.076-4.387.608-6.157 1.938-1.69 1.347-2.625 3.429-2.508 5.587v84.262c-.001 4.332 1.938 9.35 10.945 9.35zm10.376-83.007h13.568c2.677-.067 5.345.358 7.868 1.254 1.861.666 3.54 1.76 4.902 3.192 1.195 1.312 2.09 2.868 2.623 4.561.559 1.769.828 3.617.797 5.473.031 1.893-.238 3.779-.797 5.587-.539 1.623-1.436 3.103-2.623 4.333-1.387 1.324-3.066 2.301-4.902 2.851-2.545.797-5.201 1.183-7.868 1.14h-13.568z"/><path d="m375.367 154.96c3.454 3.524 7.611 6.283 12.201 8.095 5.135 1.926 10.58 2.892 16.064 2.852 5.377.031 10.713-.935 15.735-2.852 4.561-1.867 8.706-4.619 12.2-8.095 3.501-3.605 6.184-7.922 7.867-12.656 1.888-5.265 2.814-10.827 2.737-16.419.067-5.48-.86-10.928-2.737-16.077-1.686-4.666-4.371-8.908-7.867-12.428-3.433-3.441-7.55-6.121-12.086-7.867-5.021-1.926-10.357-2.894-15.734-2.851-5.381-.088-10.728.88-15.735 2.851-4.61 1.784-8.804 4.501-12.314 7.981-3.533 3.556-6.256 7.835-7.981 12.542-1.926 5.219-2.891 10.743-2.851 16.305-.047 5.543.84 11.056 2.622 16.305 1.888 4.533 4.555 8.701 7.879 12.314zm16.078-44.696c2.964-3.763 7.068-5.587 12.313-5.587 5.474 0 9.692 1.824 12.656 5.587 2.965 3.763 4.446 9.122 4.446 15.849s-1.481 12.2-4.561 15.849c-3.078 3.649-7.068 5.473-12.542 5.473-4.735.203-9.292-1.822-12.313-5.473-2.965-3.648-4.562-9.007-4.562-15.849s1.484-12.087 4.563-15.849z"/><path d="m459.971 156.328c3.561 3.285 7.806 5.738 12.429 7.184 5.253 1.562 10.71 2.331 16.19 2.28 4.226.007 8.436-.491 12.543-1.482 3.907-.86 7.645-2.363 11.06-4.446 1.949-1.089 3.687-2.518 5.131-4.219 1.134-1.425 1.738-3.197 1.711-5.018-.022-2.556-.952-5.021-2.623-6.955-1.824-2.052-3.763-3.192-5.929-3.192-1.716-.02-3.407.413-4.903 1.254-1.254.798-2.508 1.482-3.876 2.28s-3.307 1.597-5.359 2.623c-2.306.977-4.795 1.444-7.297 1.369-10.832 0-16.647-5.131-17.901-15.621h40.021c2.619.138 5.225-.454 7.525-1.71 1.938-1.254 2.851-3.42 2.851-6.385 0-12.086-3.192-21.55-9.35-28.049s-14.708-9.806-25.198-9.806c-5.861-.16-11.678 1.051-16.989 3.535-4.58 2.123-8.631 5.239-11.858 9.122-3.117 3.837-5.443 8.255-6.841 12.998-1.468 4.842-2.198 9.877-2.166 14.937-.131 5.857.796 11.689 2.736 17.217 1.909 4.502 4.656 8.602 8.093 12.084zm16.875-49.485c2.84-2.284 6.392-3.495 10.034-3.421 2.106-.017 4.196.37 6.157 1.14 1.614.704 3.025 1.802 4.104 3.193 1.069 1.296 1.917 2.76 2.509 4.333.429 1.253.697 2.556.798 3.877h-28.277c.39-3.51 2.053-6.756 4.675-9.122z"/><path d="m550.275 165.792c3.531.073 7.057-.311 10.49-1.14 2.622-.557 5.129-1.56 7.411-2.965 1.366-.781 2.444-1.98 3.079-3.421.579-1.409.852-2.925.798-4.446.016-2.28-.575-4.523-1.71-6.5-1.203-2.181-3.559-3.47-6.044-3.307-1.027-.004-2.042.23-2.964.685l-2.167 1.026c-.816.254-1.616.559-2.395.912-.829.346-1.725.502-2.622.456-1.127.129-2.254-.246-3.078-1.026-.685-.684-1.026-2.053-1.026-3.991v-36.943h10.604c2.851 0 6.157-1.482 6.157-8.438.018-1.861-.412-3.699-1.254-5.359-.954-1.716-2.836-2.701-4.789-2.508h-10.718v-15.506c.065-1.826-.544-3.612-1.711-5.017-1.14-1.368-3.192-2.052-5.814-2.052-1.536.027-3.065.219-4.562.57-1.511.341-2.971.878-4.344 1.596-1.343.776-2.509 1.825-3.421 3.079-.928 1.422-1.405 3.091-1.368 4.789v67.957c0 7.297 1.938 12.77 5.815 16.305 3.878 3.534 9.237 5.244 15.633 5.244z"/><path d="m596.682 195.779-2.736-2.166c-3.193-2.468-7.688-2.324-10.718.342-3.962 3.334-8.96 5.188-14.139 5.245h-235.452c-11.252-.013-22.044 4.46-29.988 12.429l-1.254 1.254-1.254-1.254c-7.957-7.951-18.741-12.42-29.988-12.429h-240.367c-5.178-.057-10.176-1.911-14.139-5.245-3.01-2.717-7.541-2.861-10.718-.342l-2.725 2.166c-1.928 1.526-3.097 3.814-3.204 6.271-.122 2.469.885 4.86 2.736 6.499 7.718 6.907 17.692 10.759 28.049 10.832h240.242c10.062-.005 18.884 6.717 21.55 16.419v.229c.114.797 1.254 5.016 9.692 5.016s9.577-4.219 9.691-5.016v-.229c2.666-9.702 11.488-16.424 21.55-16.419h235.681c10.357-.073 20.332-3.925 28.049-10.832 1.815-1.665 2.814-4.038 2.737-6.499-.221-2.445-1.407-4.701-3.295-6.271z"/></svg>