<?xml version="1.0" encoding="utf-8"?>
<!-- Generator: Adobe Illustrator 16.0.0, SVG Export Plug-In . SVG Version: 6.00 Build 0)  -->
<!DOCTYPE svg PUBLIC "-//W3C//DTD SVG 1.1//EN" "http://www.w3.org/Graphics/SVG/1.1/DTD/svg11.dtd">
<svg version="1.1" id="Layer_1" xmlns="http://www.w3.org/2000/svg" xmlns:xlink="http://www.w3.org/1999/xlink" x="0px" y="0px"
	 width="600px" height="300px" viewBox="0 0 600 300" enable-background="new 0 0 600 300" xml:space="preserve">
<title>logo</title>
<g id="Layer_2">
	<g id="Layer_1-2">
		<path d="M43.111,164.424c3.991,0,6.727-0.912,8.209-2.623c1.498-1.697,2.311-3.893,2.28-6.156v-52.108l19.372,51.423
			c0.843,2.386,2.298,4.509,4.219,6.157c1.825,1.482,4.561,2.28,8.209,2.28c2.339,0.026,4.649-0.522,6.728-1.597
			c2.169-1.247,3.765-3.293,4.447-5.701l20.638-57.01v56.098c-0.143,2.543,0.716,5.04,2.395,6.955
			c1.596,1.597,4.219,2.51,7.867,2.51c3.991,0,6.728-0.913,8.209-2.623c1.498-1.698,2.311-3.893,2.281-6.157V72.751
			c0.156-2.996-1.272-5.853-3.763-7.525c-2.395-1.596-5.701-2.395-9.806-2.395c-3.708-0.156-7.395,0.629-10.718,2.28
			c-2.847,1.758-4.924,4.528-5.815,7.753l-22.451,66.474l-23.375-66.93c-0.921-2.839-2.717-5.313-5.131-7.069
			c-2.395-1.71-5.701-2.509-10.034-2.509c-3.541-0.173-7.058,0.657-10.148,2.395c-2.623,1.71-3.991,4.447-3.991,8.209v81.525
			c0,3.192,0.798,5.474,2.28,7.069C36.726,163.625,39.349,164.424,43.111,164.424z"/>
		<path d="M171.157,165.107c2.958,0.037,5.909-0.308,8.779-1.025c2.302-0.605,4.522-1.486,6.613-2.623
			c1.809-0.963,3.461-2.192,4.903-3.648c0.684-0.684,1.368-1.368,1.938-2.053v0.114c0,3.079,0.912,5.358,2.851,6.728
			c2.175,1.38,4.724,2.057,7.297,1.938c3.535,0,6.043-0.684,7.639-2.052s2.395-3.649,2.395-6.613v-42.188
			c0-9.236-2.508-16.077-7.411-20.524c-4.903-4.447-12.999-6.613-24.059-6.613c-4.723-0.056-9.435,0.48-14.024,1.596
			c-3.549,0.862-6.963,2.205-10.148,3.991c-2.442,1.328-4.579,3.153-6.271,5.359c-1.334,1.607-2.097,3.613-2.167,5.701
			c-0.057,2.514,0.983,4.929,2.851,6.613c1.664,1.748,3.972,2.737,6.385,2.736c1.53,0.019,3.047-0.292,4.447-0.912
			c1.14-0.57,2.28-1.368,3.535-2.166c1.394-0.948,2.836-1.824,4.321-2.623c1.143-0.64,2.323-1.211,3.535-1.71
			c1.144-0.424,2.328-0.729,3.535-0.912c1.321-0.193,2.656-0.269,3.991-0.228c1.902-0.042,3.796,0.267,5.587,0.912
			c1.339,0.468,2.522,1.297,3.42,2.395c0.792,1.015,1.374,2.178,1.71,3.42c0.365,1.299,0.557,2.641,0.57,3.991v1.825
			c-3.877,0.228-7.525,0.57-11.06,0.912c-3.535,0.342-7.297,0.912-10.946,1.596c-3.248,0.556-6.45,1.356-9.578,2.395
			c-2.958,0.949-5.707,2.459-8.095,4.447c-2.307,1.895-4.174,4.268-5.473,6.955c-1.447,3.143-2.149,6.576-2.052,10.034
			c0,6.728,2.28,12.201,6.727,16.305C157.349,163.055,163.517,165.107,171.157,165.107z M168.42,136.261
			c1.254-1.597,3.991-2.851,8.324-3.763c1.596-0.342,3.991-0.798,7.183-1.254c2.965-0.456,6.043-0.798,9.236-1.14v4.219
			c0.104,3.746-1.54,7.327-4.447,9.691c-3.079,2.509-7.412,3.877-12.999,3.877c-3.42,0-5.815-0.57-7.183-1.824
			c-1.364-1.298-2.075-3.139-1.938-5.017C166.543,139.274,167.2,137.551,168.42,136.261z"/>
		<path d="M242.762,89.968c-2.182-1.573-4.842-2.339-7.525-2.167c-3.763,0-6.613,0.912-8.438,2.623
			c-1.828,1.93-2.777,4.529-2.623,7.183v58.15c0,3.877,1.938,8.552,10.946,8.552c2.699,0.134,5.371-0.585,7.64-2.052
			c1.938-1.369,2.964-3.649,2.964-6.842V96.695C245.784,94.125,244.698,91.66,242.762,89.968z"/>
		<path d="M226.457,78.68c2.377,2.116,5.486,3.221,8.666,3.079c3.177,0.123,6.279-0.979,8.666-3.079
			c2.226-2.185,3.426-5.208,3.307-8.324c0-3.876-1.254-6.727-3.876-8.666c-2.326-1.775-5.17-2.737-8.096-2.736
			c-3.19-0.084-6.292,1.059-8.666,3.192l0,0c-2.164,2.132-3.359,5.058-3.307,8.096C223.01,73.396,224.211,76.461,226.457,78.68z"/>
		<path d="M267.276,164.424c2.699,0.133,5.371-0.585,7.64-2.053c1.938-1.368,2.964-3.648,2.964-6.841V70.812
			c0.194-2.644-1.075-5.182-3.307-6.613c-2.131-1.29-4.579-1.96-7.069-1.938c-9.122,0-11.06,4.903-11.06,9.122v84.375
			C256.33,159.749,258.269,164.424,267.276,164.424z"/>
		<path d="M301.824,164.424c4.105,0,6.842-0.912,8.324-2.736c1.383-1.793,2.107-4.008,2.052-6.271v-27.707h15.963
			c7.183,0,13.112-1.026,17.787-3.079c4.235-1.75,8.018-4.44,11.06-7.868c2.58-3.021,4.484-6.559,5.588-10.375
			c0.988-3.526,1.486-7.17,1.482-10.832c0-10.262-2.965-18.244-8.78-23.831s-15.165-8.438-27.821-8.438h-27.935
			c-2.214-0.076-4.387,0.608-6.157,1.938c-1.69,1.347-2.625,3.429-2.508,5.587v84.262
			C290.878,159.406,292.817,164.424,301.824,164.424z M312.2,81.417h13.568c2.677-0.067,5.345,0.358,7.868,1.254
			c1.861,0.666,3.54,1.76,4.902,3.192c1.195,1.312,2.09,2.868,2.623,4.561c0.559,1.769,0.828,3.617,0.797,5.473
			c0.031,1.893-0.238,3.779-0.797,5.587c-0.539,1.623-1.436,3.103-2.623,4.333c-1.387,1.324-3.066,2.301-4.902,2.851
			c-2.545,0.797-5.201,1.183-7.868,1.14H312.2V81.417z"/>
		<path d="M375.367,154.96c3.454,3.524,7.611,6.283,12.201,8.095c5.135,1.926,10.58,2.892,16.064,2.852
			c5.377,0.031,10.713-0.935,15.735-2.852c4.561-1.867,8.706-4.619,12.2-8.095c3.501-3.605,6.184-7.922,7.867-12.656
			c1.888-5.265,2.814-10.827,2.737-16.419c0.067-5.48-0.86-10.928-2.737-16.077c-1.686-4.666-4.371-8.908-7.867-12.428
			c-3.433-3.441-7.55-6.121-12.086-7.867c-5.021-1.926-10.357-2.894-15.734-2.851c-5.381-0.088-10.728,0.88-15.735,2.851
			c-4.61,1.784-8.804,4.501-12.314,7.981c-3.533,3.556-6.256,7.835-7.981,12.542c-1.926,5.219-2.891,10.743-2.851,16.305
			c-0.047,5.543,0.84,11.056,2.622,16.305C369.376,147.179,372.043,151.347,375.367,154.96z M391.445,110.264
			c2.964-3.763,7.068-5.587,12.313-5.587c5.474,0,9.692,1.824,12.656,5.587c2.965,3.763,4.446,9.122,4.446,15.849
			c0,6.727-1.481,12.2-4.561,15.849c-3.078,3.649-7.068,5.473-12.542,5.473c-4.735,0.203-9.292-1.822-12.313-5.473
			c-2.965-3.648-4.562-9.007-4.562-15.849S388.366,114.026,391.445,110.264z"/>
		<path d="M459.971,156.328c3.561,3.285,7.806,5.738,12.429,7.184c5.253,1.562,10.71,2.331,16.19,2.28
			c4.226,0.007,8.436-0.491,12.543-1.482c3.907-0.86,7.645-2.363,11.06-4.446c1.949-1.089,3.687-2.518,5.131-4.219
			c1.134-1.425,1.738-3.197,1.711-5.018c-0.022-2.556-0.952-5.021-2.623-6.955c-1.824-2.052-3.763-3.192-5.929-3.192
			c-1.716-0.02-3.407,0.413-4.903,1.254c-1.254,0.798-2.508,1.482-3.876,2.28c-1.368,0.798-3.307,1.597-5.359,2.623
			c-2.306,0.977-4.795,1.444-7.297,1.369c-10.832,0-16.647-5.131-17.901-15.621h40.021c2.619,0.138,5.225-0.454,7.525-1.71
			c1.938-1.254,2.851-3.42,2.851-6.385c0-12.086-3.192-21.55-9.35-28.049s-14.708-9.806-25.198-9.806
			c-5.861-0.16-11.678,1.051-16.989,3.535c-4.58,2.123-8.631,5.239-11.858,9.122c-3.117,3.837-5.443,8.255-6.841,12.998
			c-1.468,4.842-2.198,9.877-2.166,14.937c-0.131,5.857,0.796,11.689,2.736,17.217C453.787,148.746,456.534,152.846,459.971,156.328
			z M476.846,106.843c2.84-2.284,6.392-3.495,10.034-3.421c2.106-0.017,4.196,0.37,6.157,1.14c1.614,0.704,3.025,1.802,4.104,3.193
			c1.069,1.296,1.917,2.76,2.509,4.333c0.429,1.253,0.697,2.556,0.798,3.877h-28.277
			C472.561,112.455,474.224,109.209,476.846,106.843z"/>
		<path d="M550.275,165.792c3.531,0.073,7.057-0.311,10.49-1.14l0,0c2.622-0.557,5.129-1.56,7.411-2.965
			c1.366-0.781,2.444-1.98,3.079-3.421c0.579-1.409,0.852-2.925,0.798-4.446c0.016-2.28-0.575-4.523-1.71-6.5
			c-1.203-2.181-3.559-3.47-6.044-3.307c-1.027-0.004-2.042,0.23-2.964,0.685l-2.167,1.026c-0.816,0.254-1.616,0.559-2.395,0.912
			c-0.829,0.346-1.725,0.502-2.622,0.456c-1.127,0.129-2.254-0.246-3.078-1.026c-0.685-0.684-1.026-2.053-1.026-3.991v-36.943
			h10.604c2.851,0,6.157-1.482,6.157-8.438c0.018-1.861-0.412-3.699-1.254-5.359c-0.954-1.716-2.836-2.701-4.789-2.508h-10.718
			V73.321c0.065-1.826-0.544-3.612-1.711-5.017c-1.14-1.368-3.192-2.052-5.814-2.052c-1.536,0.027-3.065,0.219-4.562,0.57
			c-1.511,0.341-2.971,0.878-4.344,1.596c-1.343,0.776-2.509,1.825-3.421,3.079c-0.928,1.422-1.405,3.091-1.368,4.789v67.957
			c0,7.297,1.938,12.77,5.815,16.305C538.52,164.082,543.879,165.792,550.275,165.792z"/>
		<path d="M596.682,195.779l-2.736-2.166c-3.193-2.468-7.688-2.324-10.718,0.342c-3.962,3.334-8.96,5.188-14.139,5.245H333.637
			c-11.252-0.013-22.044,4.46-29.988,12.429l-1.254,1.254l-1.254-1.254c-7.957-7.951-18.741-12.42-29.988-12.429H30.786
			c-5.178-0.057-10.176-1.911-14.139-5.245c-3.01-2.717-7.541-2.861-10.718-0.342l-2.725,2.166
			c-1.928,1.526-3.097,3.814-3.204,6.271c-0.122,2.469,0.885,4.86,2.736,6.499c7.718,6.907,17.692,10.759,28.049,10.832h240.242
			c10.062-0.005,18.884,6.717,21.55,16.419v0.229c0.114,0.797,1.254,5.016,9.692,5.016c8.438,0,9.577-4.219,9.691-5.016v-0.229
			c2.666-9.702,11.488-16.424,21.55-16.419h235.681c10.357-0.073,20.332-3.925,28.049-10.832c1.815-1.665,2.814-4.038,2.737-6.499
			C599.756,199.605,598.57,197.349,596.682,195.779z"/>
	</g>
</g>
</svg>
