<svg fill="none" height="171" viewBox="0 0 210 171" width="210" xmlns="http://www.w3.org/2000/svg"><path d="m4.30859 170.291 1.89801-148.4508v-7.4383c0-6.4888 5.2195-11.86973 11.8625-11.86973h174.1419c6.485 0 11.863 5.22267 11.863 11.86973v155.7301h-179.9945" fill="#dddedf"/><path d="m135.331 138.74c22.012-15.48 27.274-45.9419 11.753-68.0386s-45.948-27.4605-67.9594-11.9803c-22.0119 15.4801-27.2738 45.9419-11.7528 68.0389 15.5211 22.097 45.9472 27.461 67.9592 11.98z" fill="#fff"/><path d="m6.20605 33.5517v-19.4663c0-7.75489 5.21955-14.0854 11.70435-14.0854h174.2996c6.485 0 11.863 6.33051 11.863 14.0854v19.4663zm94.42595 16.6176c-12.8118 1.2661-24.9906 7.7549-33.2153 17.5672-8.3829 9.8123-12.6534 22.7898-12.0207 35.6095.6327 12.977 6.1685 25.163 15.5004 34.184 9.3318 9.021 21.6688 14.086 34.6386 14.086 12.811.158 25.307-5.381 34.006-14.244.158-.158.158-.475 0-.791-.158-.158-.475-.158-.633 0-9.49 7.596-21.352 11.711-33.215 11.395-11.8624-.475-23.4086-5.065-31.7915-13.453-8.541-8.229-13.4442-19.466-13.9187-31.336-.4745-11.7111 3.4797-23.5808 11.2299-32.4435 7.592-8.8628 18.5055-14.8767 30.2103-16.1428 11.704-1.4244 23.566 1.8991 33.056 9.0209 9.491 7.1219 15.975 17.5672 18.032 29.2787 1.107 5.8557.949 11.7117 0 17.5667-.475 3.007-1.108 6.014-1.898 8.705-.633 1.582 2.214 2.849 2.847 1.108 1.265-3.007 1.898-6.173 2.53-9.18 1.107-6.172 1.582-12.6606.475-18.9911-4.745-26.2716-29.103-44.7883-55.833-41.9396z" fill="#929698"/><path d="m209.609 33.5517c-17.398 1.4243-34.796 1.2661-52.353 1.4243l-52.511.1583-52.3536-.3165c-17.3984 0-34.7968 0-52.3533141-1.4244v-.7913c17.3984141-1.4244 34.7967141-1.2661 52.3533141-1.4244l52.3536-.1582 52.353.1582c17.398 0 34.797 0 52.353 1.4244v.7913h.158zm-137.1304 81.5053c-.6327-1.583-2.3725-2.374-3.796-1.741-1.5817.633-2.3725 2.374-1.7399 3.798.6327 1.583 2.3725 2.374 3.796 1.741 1.5817-.633 2.3726-2.374 1.7399-3.798zm-5.694-12.661c-1.5817-.158-2.847-1.583-2.847-3.1653 0-1.5826 1.5816-2.8487 3.1633-2.8487 1.5817.1583 2.847 1.5826 2.847 3.1653-.1582 1.7407-1.5817 2.8487-3.1633 2.8487zm3.3215-16.7759c-1.4235-.7913-1.898-2.5322-1.1072-4.1148.7908-1.4244 2.5307-1.8992 4.1124-1.1078 1.4235.7913 1.898 2.5322 1.1071 4.1148-.949 1.4244-2.6888 1.8991-4.1123 1.1078zm9.9645-13.7688c-.949-1.2661-.6327-3.1653.6327-4.1149 1.2653-.9495 3.1633-.633 4.1123.6331s.6327 3.1652-.6327 4.1148c-1.2653 1.1079-3.1633.7913-4.1123-.633zm14.8677-8.2297c-.3163-1.5826.7908-3.1653 2.3725-3.4818s3.1632.7913 3.4792 2.374c.317 1.5826-.7904 3.1652-2.372 3.4817-1.5817.3166-3.1634-.633-3.4797-2.3739zm16.9237-1.1078c.317-1.5827 2.056-2.5322 3.638-2.2157s2.531 2.0574 2.214 3.64c-.316 1.5827-2.056 2.5322-3.637 2.2157-.756-.222-1.402-.7181-1.812-1.3913-.409-.6732-.553-1.4751-.403-2.2487zm15.975 6.1722c1.107-1.2661 2.847-1.4244 4.271-.4748 1.265 1.1079 1.423 2.8488.474 4.2731-.949 1.4244-2.847 1.4244-4.27.4748-1.424-1.1078-1.582-3.007-.475-4.2731zm11.704 12.1862c1.424-.7913 3.322-.1582 3.955 1.4244.79 1.4244.158 3.3235-1.424 3.9566-1.582.633-3.321.1582-3.954-1.4244s0-3.1652 1.423-3.9566zm5.536 16.1428c1.582 0 3.005 1.2662 3.005 2.8488 0 1.5822-1.265 3.0072-2.847 3.0072-1.581 0-3.005-1.266-3.005-2.849 0-1.5826 1.266-3.007 2.847-3.007zm-1.74 16.934c1.582.633 2.215 2.374 1.582 3.957-.633 1.582-2.372 2.215-3.954 1.582s-2.214-2.374-1.582-3.956c.633-1.583 2.373-2.216 3.954-1.583z" fill="#666b6d"/><path d="m136.061 77.2322c-.316-.1582-.633-.1582-.949-.1582-6.01 2.8487-11.23 6.9635-16.291 10.9201-1.582 1.2661-5.378 4.2731-8.067 6.1723-1.265-.7914-2.688-1.1079-4.27-1.1079-4.429.1583-7.9085 3.7983-7.7503 8.2295.1582 4.432 3.7963 7.913 8.2243 7.755 4.429-.158 7.909-3.798 7.751-8.23 0-.9492-.159-1.7405-.475-2.5318 2.214-1.7409 5.536-4.5896 7.592-6.3305 5.061-4.1149 10.123-8.388 14.235-13.6106.316-.3166.316-.7913 0-1.1079zm-29.103 28.3288c-2.372.159-4.428-1.899-4.586-4.273-.159-2.3738 1.898-4.4312 4.27-4.5894 2.373-.1583 4.429 1.8991 4.587 4.2734 0 2.532-1.898 4.589-4.271 4.589z" fill="#6a6a6a"/></svg>