<svg fill="none" height="7" viewBox="0 0 177 7" width="177" xmlns="http://www.w3.org/2000/svg" xmlns:xlink="http://www.w3.org/1999/xlink"><clipPath id="a"><path d="m0 0h176.556v7h-176.556z"/></clipPath><g clip-path="url(#a)" fill="#000" fill-opacity=".8"><path d="m59.8778 7c-2.3793 0-3.9088-1.66754-3.9088-3.39005v-.2199c0-1.75916 1.5484-3.39005 3.9088-3.39005 2.3792 0 3.9276 1.63089 3.9276 3.39005v.2199c0 1.72251-1.5484 3.39005-3.9276 3.39005zm2.6625-3.59162c0-1.2644-.9442-2.3822-2.6625-2.3822-1.7184 0-2.6436 1.1178-2.6436 2.3822v.16492c0 1.2644.9441 2.40052 2.6436 2.40052 1.6994 0 2.6625-1.13612 2.6625-2.40052zm-29.4952 3.33508-.8875-1.61257h-3.9465l-.8497 1.61257h-1.3218l3.6066-6.50524h1.0386l3.6821 6.50524zm-2.8891-5.24084-1.454 2.73036h2.9647zm9.9513 5.49738c-2.3981 0-3.5311-1.2644-3.5311-2.96859v-3.79319h1.2463v3.82984c0 1.20943.812 1.92409 2.3604 1.92409 1.5861 0 2.247-.71466 2.247-1.92409v-3.82984h1.2652v3.79319c0 1.61257-1.0574 2.96859-3.5878 2.96859zm10.6123-5.75393v5.49739h-1.2652v-5.49739h-2.9269v-1.00785h7.1189v1.00785zm24.3023 5.49739v-5.14922l-.3399.56806-2.8135 4.58116h-.6232l-2.7758-4.58116-.3399-.56806v5.14922h-1.2274v-6.50524h1.7373l2.6436 4.4712.321.54974.321-.54974 2.6247-4.4712h1.7184v6.50524zm10.7822 0-.8875-1.61257h-3.9466l-.8497 1.61257h-1.3218l3.6255-6.50524h1.0386l3.6821 6.50524zm-2.8891-5.24084-1.454 2.73036h2.9646zm9.3093-.25655v5.49739h-1.2652v-5.49739h-2.9269v-1.00785h7.1189v1.00785zm9.2337 0v5.49739h-1.265v-5.49739h-2.927v-1.00785h7.119v1.00785zm6.043 5.49739v-5.900528c.509 0 .698-.256545.698-.623037h.529v6.505235zm11.084-4.67278c-.604-.53141-1.492-1.0445-2.682-1.0445-1.793 0-2.794 1.1911-2.794 2.43717v.12827c0 1.22775 1.019 2.3822 2.889 2.3822 1.114 0 2.039-.51309 2.625-1.0445l.755.76963c-.737.69634-1.983 1.30105-3.456 1.30105-2.53 0-4.078-1.59424-4.078-3.3534v-.2199c0-1.75916 1.68-3.4267 4.135-3.4267 1.416 0 2.7.568063 3.399 1.30105zm-57.8764.20157c.2266.1466.2833.43979.1511.65969l-1.1519 1.72251c-.151.2199-.4532.29319-.6798.1466-.2265-.1466-.2832-.43979-.151-.65969l1.1518-1.72251c.1511-.23822.4532-.2932.6798-.1466z"/><path d="m7.0811 6.72526-.88749-1.63089h-3.98431l-.86861 1.63089h-1.34069l3.66329-6.578531h1.05745l3.71994 6.578531zm-2.92685-5.29581-1.47287 2.76702h3.00239zm11.48085 5.29581-4.3997-4.3979-.4344-.45812v4.87435h-1.26511v-6.596861h1.22741l4.2675 4.397901.4343.47644v-4.874341h1.2652v6.578531z"/><path d="m135.938 6.78009-.907-1.63089h-3.984l-.868 1.63089h-1.341l3.682-6.596862h1.058l3.738 6.596862zm-2.927-5.31414-1.473 2.76702h3.003zm5.401 5.31414v-6.596862h1.284v6.596862zm9.063 0c-.34 0-.491-.45812-.547-1.06283l-.038-.67801c-.038-.65969-.321-.93456-1.586-.93456h-2.417v2.6754h-1.265v-6.596862h3.701c2.039 0 2.964.787958 2.964 1.814132 0 .71466-.377 1.411-1.699 1.64922 1.322.09162 1.605.67801 1.624 1.44764l.019.54974c.019.45812.094.78796.415 1.1178v.01833zm-.472-4.6178c0-.47644-.396-.93456-1.491-.93456h-2.606v1.97906h2.719c.944 0 1.378-.43979 1.378-.95288zm3.078 4.6178v-6.596862h1.284v5.570682h5.325v1.02618zm7.912 0v-6.596862h1.284v6.596862zm9.347 0-4.418-4.41623-.435-.45812v4.87435h-1.284v-6.596862h1.228l4.286 4.416232.434.47644v-4.892672h1.284v6.596862zm3.04 0v-6.596862h6.175v1.026182h-4.91v1.68586h3.777v1.00785h-3.777v1.85079h4.91v1.02618z"/></g></svg>