<svg width="177" height="7" viewBox="0 0 177 7" fill="none" xmlns="http://www.w3.org/2000/svg">
<g clip-path="url(#clip0)">
<path d="M59.8778 7C57.4985 7 55.969 5.33246 55.969 3.60995V3.39005C55.969 1.63089 57.5174 0 59.8778 0C62.257 0 63.8054 1.63089 63.8054 3.39005V3.60995C63.8054 5.33246 62.257 7 59.8778 7ZM62.5403 3.40838C62.5403 2.14398 61.5961 1.02618 59.8778 1.02618C58.1594 1.02618 57.2342 2.14398 57.2342 3.40838V3.5733C57.2342 4.8377 58.1783 5.97382 59.8778 5.97382C61.5772 5.97382 62.5403 4.8377 62.5403 3.5733V3.40838ZM33.0451 6.74346L32.1576 5.13089H28.2111L27.3614 6.74346H26.0396L29.6462 0.23822H30.6848L34.3669 6.74346H33.0451ZM30.156 1.50262L28.702 4.23298H31.6667L30.156 1.50262ZM40.1073 7C37.7092 7 36.5762 5.7356 36.5762 4.03141V0.23822H37.8225V4.06806C37.8225 5.27749 38.6345 5.99215 40.1829 5.99215C41.769 5.99215 42.4299 5.27749 42.4299 4.06806V0.23822H43.6951V4.03141C43.6951 5.64398 42.6377 7 40.1073 7ZM50.7196 1.24607V6.74346H49.4544V1.24607H46.5275V0.23822H53.6464V1.24607H50.7196ZM75.0219 6.74346V1.59424L74.682 2.1623L71.8685 6.74346H71.2453L68.4695 2.1623L68.1296 1.59424V6.74346H66.9022V0.23822H68.6395L71.2831 4.70942L71.6041 5.25916L71.9251 4.70942L74.5498 0.23822H76.2682V6.74346H75.0219ZM85.8041 6.74346L84.9166 5.13089H80.97L80.1203 6.74346H78.7985L82.424 0.23822H83.4626L87.1447 6.74346H85.8041ZM82.915 1.50262L81.461 4.23298H84.4256L82.915 1.50262ZM92.2243 1.24607V6.74346H90.9591V1.24607H88.0322V0.23822H95.1511V1.24607H92.2243ZM101.458 1.24607V6.74346H100.193V1.24607H97.266V0.23822H104.385V1.24607H101.458ZM107.501 6.74346V0.842932C108.01 0.842932 108.199 0.586387 108.199 0.219895H108.728V6.72513L107.501 6.74346ZM118.585 2.07068C117.981 1.53927 117.093 1.02618 115.903 1.02618C114.11 1.02618 113.109 2.21728 113.109 3.46335V3.59162C113.109 4.81937 114.128 5.97382 115.998 5.97382C117.112 5.97382 118.037 5.46073 118.623 4.92932L119.378 5.69895C118.641 6.39529 117.395 7 115.922 7C113.392 7 111.844 5.40576 111.844 3.6466V3.4267C111.844 1.66754 113.524 0 115.979 0C117.395 0 118.679 0.568063 119.378 1.30105L118.585 2.07068ZM60.7086 2.27225C60.9352 2.41885 60.9919 2.71204 60.8597 2.93194L59.7078 4.65445C59.5568 4.87435 59.2546 4.94764 59.028 4.80105C58.8015 4.65445 58.7448 4.36126 58.877 4.14136L60.0288 2.41885C60.1799 2.18063 60.482 2.12565 60.7086 2.27225Z" fill="black" fill-opacity="0.8"/>
<path d="M7.0811 6.72526L6.19361 5.09437H2.2093L1.34069 6.72526H0L3.66329 0.146729H4.72074L8.44068 6.72526H7.0811ZM4.15425 1.42945L2.68138 4.19647H5.68377L4.15425 1.42945ZM15.6351 6.72526L11.2354 2.32736L10.801 1.86924V6.74359H9.53589V0.146729H10.7633L15.0308 4.54463L15.4651 5.02107V0.146729H16.7303V6.72526H15.6351Z" fill="black" fill-opacity="0.8"/>
<path d="M135.938 6.78009L135.031 5.1492H131.047L130.179 6.78009H128.838L132.52 0.183228H133.578L137.316 6.78009H135.938ZM133.011 1.46595L131.538 4.23297H134.541L133.011 1.46595ZM138.412 6.78009V0.183228H139.696V6.78009H138.412ZM147.475 6.78009C147.135 6.78009 146.984 6.32197 146.928 5.71726L146.89 5.03925C146.852 4.37956 146.569 4.10469 145.304 4.10469H142.887V6.78009H141.622V0.183228H145.323C147.362 0.183228 148.287 0.971186 148.287 1.99736C148.287 2.71202 147.91 3.40836 146.588 3.64658C147.91 3.7382 148.193 4.32459 148.212 5.09422L148.231 5.64396C148.25 6.10208 148.325 6.43192 148.646 6.76176V6.78009H147.475ZM147.003 2.16229C147.003 1.68585 146.607 1.22773 145.512 1.22773H142.906V3.20679H145.625C146.569 3.20679 147.003 2.767 147.003 2.25391V2.16229ZM150.081 6.78009V0.183228H151.365V5.75391H156.69V6.78009H150.081ZM157.993 6.78009V0.183228H159.277V6.78009H157.993ZM167.34 6.78009L162.922 2.36386L162.487 1.90574V6.78009H161.203V0.183228H162.431L166.717 4.59946L167.151 5.0759V0.183228H168.435V6.78009H167.34ZM170.38 6.78009V0.183228H176.555V1.20941H171.645V2.89527H175.422V3.90312H171.645V5.75391H176.555V6.78009H170.38Z" fill="black" fill-opacity="0.8"/>
</g>
<defs>
<clipPath id="clip0">
<rect width="176.556" height="7" fill="white"/>
</clipPath>
</defs>
</svg>
