<svg fill="none" height="32" viewBox="0 0 176 32" width="176" xmlns="http://www.w3.org/2000/svg"><g transform="scale(.7857143 .775)"><path d="m167.385 14.0357c0 .8469-.189 1.6226-.568 2.3285-.38.706-1.006 1.291-1.879 1.7592v.0584c.485.1651.929.3771 1.332.6348.403.2576.747.5636 1.034.9194.285.3558.51.7572.67 1.2041.161.4484.24.9494.24 1.503 0 .4768-.075.9878-.226 1.5329-.15.5451-.414 1.0732-.794 1.5841-.379.511-.883.9807-1.514 1.4077-.63.4284-1.427.7685-2.388 1.0219-.243.0583-.507.1124-.794.1608s-.605.0897-.955.1238c-.349.0342-.738.0584-1.164.0726-.428.0143-.908.0214-1.442.0214h-5.664v-19.5276h6.772c1.446 0 2.612.1466 3.495.43837.661.2135 1.233.49389 1.719.83973.485.3459.886.7302 1.201 1.1529.316.4227.548.871.699 1.3421.151.4712.226.9465.226 1.4219zm-7.326 2.8466c.97 0 1.694-.0968 2.17-.2918.534-.2234.915-.5323 1.144-.9265.227-.3943.342-.8398.342-1.3351 0-.5152-.131-.9749-.394-1.3792-.262-.4042-.708-.7031-1.339-.8981-.263-.0782-.568-.1337-.917-.1679-.35-.0342-.782-.0512-1.297-.0512h-2.927v5.0498zm-3.218 2.9918v5.5024h2.33c.621 0 1.155-.0171 1.602-.0512.446-.0342.83-.0897 1.151-.168.496-.1067.907-.2505 1.238-.4312.33-.1794.597-.3843.801-.6135.205-.2277.35-.481.438-.7586.088-.2775.13-.5707.13-.8824 0-.5451-.15-1.0219-.451-1.4304s-.771-.7145-1.413-.9195c-.282-.0882-.612-.1508-.99-.1893-.379-.0384-.864-.0583-1.456-.0583z" fill="#787c82"/><path d="m184.423 21.3047c0 1.1087-.165 2.1207-.496 3.0359s-.804 1.698-1.42 2.3498c-.617.6519-1.362 1.1557-2.236 1.5101-.873.3559-1.849.5324-2.927.5324-1.107 0-2.099-.178-2.978-.5324-.88-.3544-1.624-.8582-2.236-1.5101-.612-.6518-1.081-1.4346-1.405-2.3498-.325-.9138-.488-1.9272-.488-3.0359 0-1.1088.165-2.1207.495-3.0359.33-.9137.804-1.698 1.421-2.3498.616-.6519 1.362-1.1558 2.235-1.5102.874-.3558 1.849-.5323 2.927-.5323 1.107 0 2.1.1779 2.979.5323.879.3559 1.623.8583 2.235 1.5102.612.6518 1.08 1.4346 1.405 2.3498s.489 1.9271.489 3.0359zm-3.568 0c0-.7487-.088-1.4105-.263-1.9855-.175-.5736-.418-1.0561-.729-1.4446-.311-.3886-.684-.6804-1.122-.8754-.437-.195-.913-.2917-1.427-.2917-.506 0-.973.0967-1.405.2917-.431.195-.803.4868-1.113.8754-.311.3899-.554.871-.729 1.4446-.174.5736-.262 1.2354-.262 1.9855 0 .7486.088 1.4105.262 1.9855.175.5736.421 1.0532.736 1.4375s.689.6761 1.121.8753c.431.1993.904.2989 1.42.2989.514 0 .986-.0996 1.413-.2989.428-.1992.795-.491 1.106-.8753s.554-.8639.729-1.4375c.175-.575.263-1.2369.263-1.9855z" fill="#787c82"/><path d="m200.424 21.3047c0 1.1087-.164 2.1207-.495 3.0359s-.804 1.698-1.42 2.3498c-.617.6519-1.363 1.1557-2.236 1.5101-.873.3559-1.849.5324-2.927.5324-1.107 0-2.099-.178-2.978-.5324-.88-.3544-1.624-.8582-2.236-1.5101-.612-.6518-1.081-1.4346-1.405-2.3498-.325-.9138-.488-1.9272-.488-3.0359 0-1.1088.165-2.1207.495-3.0359.33-.9137.804-1.698 1.421-2.3498.616-.6519 1.362-1.1558 2.235-1.5102.874-.3558 1.849-.5323 2.927-.5323 1.107 0 2.1.1779 2.979.5323.879.3559 1.623.8583 2.235 1.5102.612.6518 1.08 1.4346 1.405 2.3498s.488 1.9271.488 3.0359zm-3.569 0c0-.7487-.088-1.4105-.262-1.9855-.175-.5736-.418-1.0561-.729-1.4446-.311-.3886-.685-.6804-1.122-.8754s-.913-.2917-1.427-.2917c-.506 0-.973.0967-1.405.2917s-.804.4868-1.114.8754c-.311.3899-.553.871-.728 1.4446s-.263 1.2354-.263 1.9855c0 .7486.088 1.4105.263 1.9855.175.5736.42 1.0532.736 1.4375.315.3843.688.6761 1.12.8753.432.1993.905.2989 1.42.2989s.986-.0996 1.414-.2989c.427-.1992.795-.491 1.106-.8753s.554-.8639.729-1.4375c.176-.575.262-1.2369.262-1.9855z" fill="#787c82"/><path d="m209.184 24.2663c0-.3017-.086-.5493-.255-.7443-.17-.195-.396-.3573-.677-.4897-.281-.1309-.604-.2448-.969-.343-.363-.0967-.745-.195-1.143-.2917-.506-.1367-.99-.2947-1.456-.474s-.876-.4156-1.23-.7074c-.355-.2918-.636-.659-.845-1.1016s-.314-.9849-.314-1.6268c0-.7885.141-1.4717.422-2.051s.663-1.0575 1.143-1.4375c.481-.38 1.039-.6619 1.675-.8469s1.308-.2775 2.017-.2775c.863 0 1.674.0711 2.431.212.757.141 1.442.3231 2.054.5466v2.8181c-.321-.1067-.658-.2064-1.013-.2989s-.714-.1722-1.078-.2405c-.363-.0683-.725-.1238-1.085-.168-.359-.0441-.699-.0654-1.02-.0654-.407 0-.752.0384-1.033.1167-.282.0783-.51.1822-.685.3131s-.301.2818-.379.4526-.117.3473-.117.5323c0 .3217.086.5836.255.7885.17.205.404.3701.705.4968.301.1266.617.2305.948.3145.329.0826.65.1637.961.2405.486.1167.97.2577 1.456.4228s.922.3971 1.311.6931c.388.2975.706.6818.954 1.1529.247.4725.371 1.0731.371 1.8019 0 .7984-.15 1.493-.452 2.0865-.301.5935-.721 1.0874-1.259 1.4817-.539.3942-1.185.686-1.938.8753-.752.1893-1.579.2846-2.482.2846-.894 0-1.698-.0711-2.41-.212-.713-.1409-1.304-.3189-1.77-.5323v-2.7869c.757.2819 1.456.474 2.098.5765.64.1025 1.238.1537 1.791.1537.427 0 .825-.0313 1.194-.0954.369-.0626.686-.1622.954-.2989.267-.1366.479-.3088.634-.518.159-.2093.236-.4612.236-.753z" fill="#787c82"/><path d="m224 28.3528c-.389.1167-.852.2092-1.391.2775-.538.0683-1.041.1025-1.507.1025-1.184 0-2.153-.1921-2.905-.5764-.753-.3843-1.284-.9366-1.595-1.6567-.223-.5153-.336-1.2155-.336-2.1022v-7.3257h-2.636v-2.8466h2.636v-3.9539h3.452v3.9553h4.077v2.8466h-4.077v6.8745c0 .5451.082.9493.247 1.2112.291.4484.869.6718 1.733.6718.397 0 .793-.0313 1.187-.0953.393-.0627.764-.1438 1.113-.2406v2.858z" fill="#787c82"/><g fill="#000"><path d="m50.6252 34.6344c-.5849-.8962-1.1289-1.7909-1.6745-2.6478 2.882-1.7531 3.8553-3.1541 3.8553-5.8034v-15.3065h-3.3883v-2.91982h7.2059v17.44802c0 4.4402-1.2846 6.9323-5.9984 9.2295z"/><path d="m80.8104 24.1971c0 1.4796 1.0518 1.6353 1.7531 1.6353.7012 0 1.7138-.2343 2.4921-.467v2.7264c-1.0911.3506-2.2201.6226-3.7782.6226-1.8695 0-4.0503-.7012-4.0503-3.9732v-8.0235h-1.9859v-2.7657h1.9859v-4.08808h3.5833v4.08958h4.5173v2.7657h-4.5173z"/><path d="m88.2886 35.9972v-22.0832h3.4276v1.3239c1.3632-1.0518 2.8821-1.7138 4.7516-1.7138 3.2326 0 5.8032 2.2594 5.8032 7.1273 0 4.8301-2.8033 8.0235-7.4385 8.0235-1.1289 0-2.0251-.1556-2.9606-.3506v7.6336h-3.5833zm7.2437-19.5124c-1.0519 0-2.3758.5062-3.6226 1.5974v7.5172c.7783.1557 1.5974.2721 2.6871.2721 2.5314 0 3.9732-1.5975 3.9732-4.9465 0-3.077-1.0519-4.4402-3.0377-4.4402z"/><path d="m116.368 28.3637h-3.349v-1.5974h-.078c-1.169.8962-2.61 1.8695-4.752 1.8695-1.869 0-3.895-1.3632-3.895-4.1289 0-3.6997 3.155-4.4009 5.375-4.7123l3.154-.4277v-.4277c0-1.948-.779-2.5707-2.61-2.5707-.896 0-2.999.2721-4.713.9733l-.311-2.8821c1.558-.5455 3.7-.9339 5.492-.9339 3.505 0 5.764 1.4024 5.764 5.5691v9.2688zm-3.583-6.7373-2.961.4669c-.896.1164-1.83.662-1.83 1.9859 0 1.1682.662 1.8302 1.635 1.8302 1.052 0 2.181-.6227 3.154-1.3239v-2.9591z"/><path d="m131.169 27.8968c-1.48.5062-2.804.8176-4.48.8176-5.374 0-7.517-3.077-7.517-7.555 0-4.7123 2.961-7.6336 7.75-7.6336 1.791 0 2.882.3113 4.089.7012v3.0377c-1.051-.3899-2.57-.8176-4.05-.8176-2.181 0-4.05 1.1682-4.05 4.5173 0 3.6997 1.869 4.8301 4.245 4.8301 1.129 0 2.376-.2342 4.05-.8962v2.9985z"/><path d="m137.945 20.1468c.312-.3506.546-.7013 5.063-6.1933h4.673l-5.842 6.8552 6.386 7.5943h-4.673l-5.569-6.8552v6.8552h-3.582v-20.4464h3.584v12.1902z"/><path d="m72.5529 27.8966c-1.8695.5849-3.4669.8176-5.3364.8176-4.5959 0-7.4387-2.2972-7.4387-7.6729 0-3.9339 2.4151-7.5172 7.0488-7.5172 4.5958 0 6.1933 3.1934 6.1933 6.2311 0 1.0126-.0786 1.5582-.1164 2.1415h-9.2688c.0786 3.1541 1.8695 3.8947 4.5566 3.8947 1.4795 0 2.8034-.3507 4.3238-.8962v2.9984h.0378zm-3.2705-8.3741c0-1.7531-.5848-3.272-2.4921-3.272-1.7909 0-2.8821 1.2846-3.1163 3.272z"/></g><path d="m20 0c-11.03053 0-20 8.96947-20 20 0 11.0305 8.96947 20 20 20 11.0305 0 20-8.9695 20-20 0-11.03053-8.9695-20-20-20zm-1.0305 23.3206h-9.96187l9.96187-19.3893zm2.0229 12.7099v-19.3893h9.9618z" fill="#069e08"/></g></svg>