<?xml version="1.0" encoding="UTF-8" standalone="no"?>
<svg xmlns:svg="http://www.w3.org/2000/svg" xmlns="http://www.w3.org/2000/svg" xmlns:xlink="http://www.w3.org/1999/xlink" version="1.0" width="24px" height="24px" viewBox="0 0 128 128" xml:space="preserve">
<g>
<path d="M64 0a7 7 0 1 1-7 7 7 7 0 0 1 7-7zm29.86 12.2a2.8 2.8 0 1 1-3.83 1.02 2.8 2.8 0 0 1 3.83-1.02zm22.16 21.68a3.15 3.15 0 1 1-4.3-1.15 3.15 3.15 0 0 1 4.3 1.15zm.87 60.53a4.2 4.2 0 1 1-1.57-5.7 4.2 4.2 0 0 1 1.54 5.73zm7.8-30.5a3.85 3.85 0 1 1-3.85-3.85 3.85 3.85 0 0 1 3.85 3.84zm-30 53.2a4.55 4.55 0 1 1 1.66-6.23 4.55 4.55 0 0 1-1.67 6.22zM64 125.9a4.9 4.9 0 1 1 4.9-4.9 4.9 4.9 0 0 1-4.9 4.9zm-31.06-8.22a5.25 5.25 0 1 1 7.17-1.93 5.25 5.25 0 0 1-7.14 1.93zM9.9 95.1a5.6 5.6 0 1 1 7.65 2.06A5.6 5.6 0 0 1 9.9 95.1zM1.18 63.9a5.95 5.95 0 1 1 5.95 5.94 5.95 5.95 0 0 1-5.96-5.94zm8.1-31.6a6.3 6.3 0 1 1 2.32 8.6 6.3 6.3 0 0 1-2.3-8.6zM32.25 8.87a6.65 6.65 0 1 1-2.44 9.1 6.65 6.65 0 0 1 2.46-9.1z" fill="#000000" fill-opacity="1"/>
<animateTransform attributeName="transform" type="rotate" values="0 64 64;30 64 64;60 64 64;90 64 64;120 64 64;150 64 64;180 64 64;210 64 64;240 64 64;270 64 64;300 64 64;330 64 64" calcMode="discrete" dur="1080ms" repeatCount="indefinite"></animateTransform>
</g>
</svg>