<?xml version="1.0" encoding="iso-8859-1"?>
<svg version="1.1" xmlns="http://www.w3.org/2000/svg" xmlns:xlink="http://www.w3.org/1999/xlink" x="0px" y="0px"
	 viewBox="0 0 24 24" style="enable-background:new 0 0 24 24;" xml:space="preserve">
<g id="mastodon">
	<path d=" M 20.617 13.92 C 20.352 15.281 18.247 16.771 15.829 17.06 C 14.568 17.21 13.327 17.348 12.003 17.288 C 9.838 17.188 8.13 16.771 8.13 16.771 C 8.13 16.982 8.143 17.182 8.169 17.37 C 8.451 19.506 10.288 19.634 12.028 19.694 C 13.784 19.754 15.348 19.261 15.348 19.261 L 15.42 20.849 C 15.42 20.849 14.192 21.508 12.003 21.63 C 10.796 21.696 9.298 21.599 7.553 21.137 C 3.768 20.136 3.117 16.101 3.017 12.007 C 2.987 10.792 3.006 9.646 3.006 8.687 C 3.006 4.501 5.748 3.274 5.748 3.274 C 7.131 2.639 9.504 2.372 11.972 2.351 L 12.032 2.351 C 14.499 2.372 16.874 2.639 18.257 3.274 C 18.257 3.274 20.999 4.501 20.999 8.687 C 20.999 8.687 21.034 11.776 20.617 13.92 Z  M 17.763 9.011 L 17.763 14.08 L 15.755 14.08 L 15.755 9.16 C 15.755 8.123 15.319 7.597 14.446 7.597 C 13.481 7.597 12.998 8.221 12.998 9.456 L 12.998 12.149 L 11.002 12.149 L 11.002 9.456 C 11.002 8.221 10.518 7.597 9.553 7.597 C 8.68 7.597 8.244 8.123 8.244 9.16 L 8.244 14.08 L 6.236 14.08 L 6.236 9.011 C 6.236 7.976 6.499 7.152 7.029 6.543 C 7.576 5.934 8.291 5.622 9.179 5.622 C 10.207 5.622 10.985 6.017 11.499 6.807 L 12 7.646 L 12.5 6.807 C 13.014 6.017 13.792 5.622 14.82 5.622 C 15.708 5.622 16.424 5.934 16.97 6.543 C 17.5 7.152 17.763 7.976 17.763 9.011 Z " fill-rule="evenodd" fill="rgb(0,0,0)"/>
</g>
</svg>