<?xml version="1.0" encoding="iso-8859-1"?>
<!-- Generator: Adobe Illustrator 19.2.1, SVG Export Plug-In . SVG Version: 6.00 Build 0)  -->
<svg version="1.1" xmlns="http://www.w3.org/2000/svg" xmlns:xlink="http://www.w3.org/1999/xlink" x="0px" y="0px"
	 viewBox="0 0 24 24" style="enable-background:new 0 0 24 24;" xml:space="preserve">
<g id="path-alt">
	<path d="M17.191,16.38c-0.677,0.338-1.537,0.599-2.318,0.599c-0.859,0-1.771-0.026-2.577-0.416v1.771
		c0,2.29-0.989,3.671-3.385,3.671c-0.677,0-1.98-0.209-2.37-0.833v-2.813c0.364,0.416,0.937,0.703,1.51,0.703
		c0.625,0,0.989-0.364,0.989-0.99V8.334h3.255v5.728c0.546,0.182,1.094,0.26,1.666,0.26c2.083,0,3.828-1.406,3.828-3.594
		c0-3.411-2.943-4.738-5.963-4.738c-2.813,0-5.729,1.64-5.729,4.764c0,0.964,0.209,1.745,0.886,2.448l-2.37,2.031
		C3.312,13.801,3,12.656,3,10.755c0-4.947,4.114-7.759,8.722-7.759c4.661,0,9.322,2.395,9.322,7.603
		C21.045,13.203,19.509,15.286,17.191,16.38z"/>
</g>
<g id="Layer_1">
</g>
</svg>
