<svg width="24" height="24" viewBox="0 0 24 24" fill="none" xmlns="http://www.w3.org/2000/svg">
	<path fill-rule="evenodd" clip-rule="evenodd" d="M5 3C3.89543 3 3 3.89543 3 5V19C3 20.1046 3.89543 21 5 21H19C20.1046 21 21 20.1046 21 19V5C21 3.89543 20.1046 3 19 3H5ZM14.584 6H12.532L12.5506 14.1281C12.5505 14.4923 12.4354 14.8472 12.2217 15.1422C12.008 15.4371 11.7067 15.6571 11.3606 15.7706C11.0145 15.8841 10.6414 15.8855 10.2945 15.7745C9.94764 15.6634 9.64468 15.4457 9.42887 15.1523C9.21305 14.8589 9.09541 14.5048 9.09272 14.1406C9.09002 13.7764 9.20243 13.4206 9.41388 13.1241C9.62534 12.8275 9.92505 12.6053 10.2703 12.4891C10.6155 12.373 10.9885 12.3688 11.3363 12.4772V10.3938H10.8027C10.0506 10.3939 9.31533 10.617 8.68996 11.0349C8.06459 11.4529 7.57719 12.0468 7.2894 12.7418C7.0016 13.4367 6.92634 14.2014 7.07312 14.9391C7.2199 15.6768 7.58213 16.3544 8.11401 16.8862C8.6459 17.4181 9.32354 17.7802 10.0613 17.9269C10.799 18.0737 11.5636 17.9983 12.2585 17.7105C12.9534 17.4226 13.5474 16.9352 13.9652 16.3098C14.3831 15.6844 14.6062 14.9491 14.6062 14.1969L14.584 9.98974C15.8522 10.9581 17.4339 10.8588 17.4339 10.8588V8.82112C14.4701 8.63611 14.584 6 14.584 6Z" fill="black"/>
</svg>
