<svg xmlns="http://www.w3.org/2000/svg" xmlns:xlink="http://www.w3.org/1999/xlink" width="575" height="246" viewBox="0 0 575 246" version="1.1"><defs><path d="M48.6 191.39C45.41 191.39 42.83 188.81 42.83 185.62 42.83 182.43 45.41 179.85 48.6 179.85 51.78 179.85 54.37 182.43 54.37 185.62 54.37 188.81 51.78 191.39 48.6 191.39L48.6 191.39Z" id="path-1"/><mask id="mask-2" maskContentUnits="userSpaceOnUse" maskUnits="objectBoundingBox" x="0" y="0" width="11.54" height="11.54" fill="white"><use xlink:href="#path-1"/></mask><circle id="path-3" cx="46.63" cy="6.25" r="3.37"/><mask id="mask-4" maskContentUnits="userSpaceOnUse" maskUnits="objectBoundingBox" x="0" y="0" width="6.73" height="6.73" fill="white"><use xlink:href="#path-3"/></mask><path d="M25.13 9.62C25.07 9.62 25 9.6 24.95 9.57L19.89 6.56C19.78 6.5 19.71 6.38 19.71 6.25 19.71 6.12 19.78 6 19.89 5.94L24.95 2.93C25.06 2.87 25.19 2.87 25.3 2.93 25.41 3 25.48 3.12 25.48 3.24L25.48 9.25C25.48 9.38 25.41 9.5 25.3 9.57 25.25 9.6 25.19 9.62 25.13 9.62L25.13 9.62Z" id="path-5"/><mask id="mask-6" maskContentUnits="userSpaceOnUse" maskUnits="objectBoundingBox" x="0" y="0" width="5.77" height="6.73" fill="white"><use xlink:href="#path-5"/></mask><rect id="path-7" x="67.31" y="2.88" width="6.73" height="6.73" rx="2"/><mask id="mask-8" maskContentUnits="userSpaceOnUse" maskUnits="objectBoundingBox" x="0" y="0" width="6.73" height="6.73" fill="white"><use xlink:href="#path-7"/></mask><rect id="path-9" x="0" y="0" width="271.81" height="183.51"/><path d="M191.97 0L191.97 104.99C191.97 109.41 188.39 112.99 183.96 112.99L8 112.99C3.58 112.99 0 109.41 0 104.99L0 0 191.97 0Z" id="path-11"/></defs><g id="At-a-Glance-(Full)" stroke="none" stroke-width="1" fill="none" fill-rule="evenodd"><g id="At-a-Glance---apps-landing-v2---big-intro" transform="translate(-346.000000, -2119.000000)"><g id="top-section" transform="translate(-191.000000, -67.000000)"><g id="devices" transform="translate(537.000000, 2186.000000)"><g id="triple-devices"><g id="white-iphone" transform="translate(0.000000, 50.000000)"><g id="Contents" transform="translate(3.365385, 15.711538)"><g id="Responsive-Calypso"><polygon id="BG" fill="#FFFFFF" points="0.96 3.37 92.31 3.37 92.31 165.87 0.96 165.87"/><rect id="masterbar" fill="#0087BE" x="0" y="0" width="93.27" height="20.67"/><g id="Text" transform="translate(12.500000, 30.288462)" fill="#87A6BC"><rect id="Rectangle-6" x="0" y="0" width="28.85" height="4.81"/><rect id="Rectangle-6-Copy" x="33.65" y="0" width="9.62" height="4.81"/><rect id="Rectangle-6-Copy" x="48.08" y="0" width="14.42" height="4.81"/><rect id="Rectangle-6-Copy" x="0" y="9.62" width="14.42" height="4.81"/><rect id="Rectangle-6-Copy" x="19.23" y="9.62" width="38.46" height="4.81"/><rect id="Rectangle-6-Copy" x="0" y="19.23" width="19.23" height="4.81"/><rect id="Rectangle-6-Copy" x="24.04" y="19.23" width="24.04" height="4.81"/><rect id="Rectangle-6-Copy" x="52.88" y="19.23" width="9.62" height="4.81"/><rect id="Rectangle-6-Copy" x="0" y="28.85" width="9.62" height="4.81"/><rect id="Rectangle-6-Copy" x="14.42" y="28.85" width="24.04" height="4.81"/></g></g><g id="Keyboard" transform="translate(1.923077, 109.615385)"><rect id="keyboard" fill="#A8BECE" x="0" y="0" width="89.42" height="54.33"/><rect id="space" fill="#FFFFFF" x="27.88" y="38.46" width="33.65" height="9.62" rx="4"/><g id="bottom-row" transform="translate(15.865385, 26.442308)" fill="#FFFFFF"><rect id="Rectangle-17-Copy" x="0" y="0" width="9.62" height="9.62" rx="4"/><rect id="Rectangle-17-Copy" x="12.02" y="0" width="9.62" height="9.62" rx="4"/><rect id="Rectangle-17-Copy-2" x="24.04" y="0" width="9.62" height="9.62" rx="4"/><rect id="Rectangle-17-Copy-3" x="36.06" y="0" width="9.62" height="9.62" rx="4"/><rect id="Rectangle-17-Copy-4" x="48.08" y="0" width="9.62" height="9.62" rx="4"/></g><g id="middle-row" transform="translate(10.096154, 14.423077)" fill="#FFFFFF"><rect id="Rectangle-17-Copy" x="0" y="0" width="9.62" height="9.62" rx="4"/><rect id="Rectangle-17-Copy" x="12.02" y="0" width="9.62" height="9.62" rx="4"/><rect id="Rectangle-17-Copy-2" x="24.04" y="0" width="9.62" height="9.62" rx="4"/><rect id="Rectangle-17-Copy-3" x="36.06" y="0" width="9.62" height="9.62" rx="4"/><rect id="Rectangle-17-Copy-4" x="48.08" y="0" width="9.62" height="9.62" rx="4"/><rect id="Rectangle-17-Copy-5" x="60.1" y="0" width="9.62" height="9.62" rx="4"/></g><g id="top-row" transform="translate(3.846154, 2.403846)" fill="#FFFFFF"><rect id="Rectangle-17-Copy" x="0" y="0" width="9.62" height="9.62" rx="4"/><rect id="Rectangle-17-Copy" x="12.02" y="0" width="9.62" height="9.62" rx="4"/><rect id="Rectangle-17-Copy-2" x="24.04" y="0" width="9.62" height="9.62" rx="4"/><rect id="Rectangle-17-Copy-3" x="36.06" y="0" width="9.62" height="9.62" rx="4"/><rect id="Rectangle-17-Copy-4" x="48.08" y="0" width="9.62" height="9.62" rx="4"/><rect id="Rectangle-17-Copy-5" x="60.1" y="0" width="9.62" height="9.62" rx="4"/><rect id="Rectangle-17-Copy-5" x="72.12" y="0" width="9.62" height="9.62" rx="4"/></g></g></g><g id="iPhone" transform="translate(0.961538, 0.807692)"><path d="M84.62 0L13.46 0C6.06 0 0 6.06 0 13.46L0 180.77C0 188.17 6.06 194.23 13.46 194.23L84.62 194.23C92.02 194.23 98.08 188.17 98.08 180.77L98.08 13.46C98.08 6.06 92.02 0 84.62 0ZM5.77 18.27L92.31 18.27 92.31 175 5.77 175 5.77 18.27Z" id="Combined-Shape" fill="#F3F6F8"/><use id="home-button" stroke="#4F748E" mask="url(#mask-2)" stroke-width="4" xlink:href="#path-1"/><path d="M41.35 6.73L56.73 6.73C57.26 6.73 57.69 7.16 57.69 7.69 57.69 8.22 57.26 8.65 56.73 8.65L41.35 8.65C40.82 8.65 40.38 8.22 40.38 7.69 40.38 7.16 40.82 6.73 41.35 6.73L41.35 6.73Z" id="mic" fill="#4F748E"/></g></g><g id="white-Nexus-5X" transform="translate(475.000000, 46.000000)"><g id="Contents" transform="translate(2.403846, 14.903846)"><g id="Responsive-Calypso" transform="translate(0.480769, 0.000000)"><polygon id="BG" fill="#FFFFFF" points="0.96 3.37 92.31 3.37 92.31 165.87 0.96 165.87"/><rect id="masterbar" fill="#0087BE" x="0" y="0" width="93.27" height="20.67"/><g id="Text" transform="translate(12.500000, 30.288462)" fill="#87A6BC"><rect id="Rectangle-6" x="0" y="0" width="28.85" height="4.81"/><rect id="Rectangle-6-Copy" x="33.65" y="0" width="9.62" height="4.81"/><rect id="Rectangle-6-Copy" x="48.08" y="0" width="14.42" height="4.81"/><rect id="Rectangle-6-Copy" x="0" y="9.62" width="14.42" height="4.81"/><rect id="Rectangle-6-Copy" x="19.23" y="9.62" width="38.46" height="4.81"/><rect id="Rectangle-6-Copy" x="0" y="19.23" width="19.23" height="4.81"/><rect id="Rectangle-6-Copy" x="24.04" y="19.23" width="24.04" height="4.81"/><rect id="Rectangle-6-Copy" x="52.88" y="19.23" width="9.62" height="4.81"/><rect id="Rectangle-6-Copy" x="0" y="28.85" width="9.62" height="4.81"/><rect id="Rectangle-6-Copy" x="14.42" y="28.85" width="24.04" height="4.81"/></g></g><g id="Keyboard" transform="translate(0.000000, 102.884615)"><rect id="keyboard" fill="#4F748E" x="0" y="0" width="93.75" height="53.37"/><rect id="space" fill="#FFFFFF" x="30.29" y="38.46" width="33.65" height="9.62" rx="4"/><g id="bottom-row" transform="translate(18.269231, 26.442308)" fill="#FFFFFF"><rect id="Rectangle-17-Copy" x="0" y="0" width="9.62" height="9.62" rx="4"/><rect id="Rectangle-17-Copy" x="12.02" y="0" width="9.62" height="9.62" rx="4"/><rect id="Rectangle-17-Copy-2" x="24.04" y="0" width="9.62" height="9.62" rx="4"/><rect id="Rectangle-17-Copy-3" x="36.06" y="0" width="9.62" height="9.62" rx="4"/><rect id="Rectangle-17-Copy-4" x="48.08" y="0" width="9.62" height="9.62" rx="4"/></g><g id="middle-row" transform="translate(12.500000, 14.423077)" fill="#FFFFFF"><rect id="Rectangle-17-Copy" x="0" y="0" width="9.62" height="9.62" rx="4"/><rect id="Rectangle-17-Copy" x="12.02" y="0" width="9.62" height="9.62" rx="4"/><rect id="Rectangle-17-Copy-2" x="24.04" y="0" width="9.62" height="9.62" rx="4"/><rect id="Rectangle-17-Copy-3" x="36.06" y="0" width="9.62" height="9.62" rx="4"/><rect id="Rectangle-17-Copy-4" x="48.08" y="0" width="9.62" height="9.62" rx="4"/><rect id="Rectangle-17-Copy-5" x="60.1" y="0" width="9.62" height="9.62" rx="4"/></g><g id="top-row" transform="translate(6.250000, 2.403846)" fill="#FFFFFF"><rect id="Rectangle-17-Copy" x="0" y="0" width="9.62" height="9.62" rx="4"/><rect id="Rectangle-17-Copy" x="12.02" y="0" width="9.62" height="9.62" rx="4"/><rect id="Rectangle-17-Copy-2" x="24.04" y="0" width="9.62" height="9.62" rx="4"/><rect id="Rectangle-17-Copy-3" x="36.06" y="0" width="9.62" height="9.62" rx="4"/><rect id="Rectangle-17-Copy-4" x="48.08" y="0" width="9.62" height="9.62" rx="4"/><rect id="Rectangle-17-Copy-5" x="60.1" y="0" width="9.62" height="9.62" rx="4"/><rect id="Rectangle-17-Copy-5" x="72.12" y="0" width="9.62" height="9.62" rx="4"/></g></g><g id="Systembar" transform="translate(0.480769, 153.365385)"><rect fill="#2E4453" x="0" y="0" width="93.27" height="15.38"/><use id="home" stroke="#FFFFFF" mask="url(#mask-4)" stroke-width="4" xlink:href="#path-3"/><use id="back" stroke="#FFFFFF" mask="url(#mask-6)" stroke-width="4" xlink:href="#path-5"/><use id="multitask" stroke="#FFFFFF" mask="url(#mask-8)" stroke-width="4" xlink:href="#path-7"/></g></g><g id="Phone"><path d="M85.44 0L13.59 0C6.12 0 0 6.21 0 13.79L0 185.24C0 192.83 6.12 199.04 13.59 199.04L85.44 199.04C92.92 199.04 99.04 192.83 99.04 185.24L99.04 13.79C99.04 6.21 92.92 0 85.44 0ZM3.85 18.27L95.19 18.27 95.19 180.77 3.85 180.77 3.85 18.27ZM34.56 7.21L64.48 7.21C65.51 7.21 66.35 7.86 66.35 8.65 66.35 9.45 65.51 10.1 64.48 10.1L34.56 10.1C33.53 10.1 32.69 9.45 32.69 8.65 32.69 7.86 33.53 7.21 34.56 7.21L34.56 7.21ZM34.56 188.94L64.48 188.94C65.51 188.94 66.35 189.59 66.35 190.38 66.35 191.18 65.51 191.83 64.48 191.83L34.56 191.83C33.53 191.83 32.69 191.18 32.69 190.38 32.69 189.59 33.53 188.94 34.56 188.94L34.56 188.94Z" id="Combined-Shape" fill="#F3F6F8"/><circle id="camera" fill="#4F748E" cx="19.71" cy="8.65" r="1.44"/><g id="Buttons" transform="translate(99.038462, 51.442308)" fill="#4F748E"><rect id="Rectangle-92" x="0" y="0" width="0.96" height="12.5"/><rect id="Rectangle-92" x="0" y="24.04" width="0.96" height="25"/></g></g></g><g id="MacBook" transform="translate(109.000000, 0.000000)"><rect id="top" fill="#E3E2E3" x="16.99" y="0" width="322.78" height="232.36" rx="20"/><path d="M0 224.71L0 236.6C0 241.3 3.8 245.1 8.49 245.1L348.26 245.1C352.95 245.1 356.76 241.3 356.76 236.6L356.76 224.71 0 224.71 0 224.71Z" id="bottom" fill="#F3F6F8"/><rect id="groove" fill="#87A6BC" x="139.31" y="224.71" width="78.15" height="4.25"/><rect id="screen" fill="#78DCFA" x="30.61" y="15" width="297.38" height="203.98"/><g id="OSX" transform="translate(42.471042, 32.708512)"><g id="OSX-Dock"><mask id="mask-10" fill="white"><use xlink:href="#path-9"/></mask><use id="Mask" fill="#78DCFA" xlink:href="#path-9"/><rect id="dock" fill-opacity="0.8" fill="#E9EFF3" mask="url(#mask-10)" x="63.71" y="149.52" width="144.4" height="36.11" rx="8"/><rect id="finder" fill="#87A6BC" mask="url(#mask-10)" x="72.2" y="158.02" width="21.24" height="16.99" rx="4"/><polygon id="Triangle-1" fill="#87A6BC" mask="url(#mask-10)" points="151.62 155.9 162.24 177.14 141 177.14"/><ellipse id="Oval-1" fill="#87A6BC" mask="url(#mask-10)" cx="186.87" cy="166.52" rx="12.74" ry="12.74"/><g id="WordPress" mask="url(#mask-10)"><g transform="translate(104.478764, 149.524628)"><ellipse id="circle" fill="#00AADC" cx="12.74" cy="16.99" rx="12.74" ry="12.74"/><path d="M17.92 25.9L21.07 16.8C21.66 15.33 21.86 14.15 21.86 13.1 21.86 12.72 21.83 12.37 21.79 12.04 22.59 13.51 23.05 15.2 23.05 16.99 23.05 20.8 20.99 24.12 17.92 25.9L17.92 25.9ZM14.16 12.16C14.78 12.12 15.34 12.06 15.34 12.06 15.9 11.99 15.83 11.18 15.28 11.21 15.28 11.21 13.61 11.34 12.53 11.34 11.52 11.34 9.81 11.21 9.81 11.21 9.26 11.18 9.19 12.03 9.75 12.06 9.75 12.06 10.27 12.12 10.83 12.16L12.43 16.56 10.18 23.33 6.42 12.16C7.05 12.12 7.6 12.06 7.6 12.06 8.16 11.99 8.09 11.18 7.54 11.21 7.54 11.21 5.87 11.34 4.79 11.34 4.6 11.34 4.37 11.33 4.13 11.33 5.97 8.53 9.14 6.68 12.74 6.68 15.43 6.68 17.87 7.71 19.7 9.39 19.66 9.38 19.62 9.38 19.57 9.38 18.56 9.38 17.84 10.26 17.84 11.21 17.84 12.06 18.33 12.78 18.85 13.63 19.24 14.31 19.7 15.2 19.7 16.47 19.7 17.35 19.44 18.46 18.92 19.8L17.89 23.24 14.16 12.16ZM12.74 27.3C11.73 27.3 10.75 27.15 9.83 26.88L12.92 17.89 16.09 26.58C16.11 26.63 16.14 26.67 16.16 26.72 15.09 27.1 13.94 27.3 12.74 27.3L12.74 27.3ZM2.43 16.99C2.43 15.5 2.75 14.08 3.32 12.79L8.24 26.27C4.8 24.6 2.43 21.07 2.43 16.99L2.43 16.99ZM12.74 5.52C6.42 5.52 1.27 10.67 1.27 16.99 1.27 23.32 6.42 28.46 12.74 28.46 19.06 28.46 24.21 23.32 24.21 16.99 24.21 10.67 19.06 5.52 12.74 5.52L12.74 5.52Z" id="logomark" fill="#FFFFFF"/></g></g></g><g id="App,-Linux/OSX" transform="translate(39.922780, 4.247859)"><rect id="Browser" fill="#E9EFF3" x="0" y="0" width="191.97" height="126.59" rx="8"/><g id="Contents" transform="translate(0.000000, 13.593148)"><mask id="mask-12" fill="white"><use xlink:href="#path-11"/></mask><use id="Mask" fill="#FFFFFF" xlink:href="#path-11"/></g><rect id="masterbar" fill="#0087BE" x="0" y="13.59" width="191.97" height="15.29"/><path d="M7.64 9.35C6.24 9.35 5.1 8.2 5.1 6.8 5.1 5.39 6.24 4.25 7.64 4.25 9.05 4.25 10.19 5.39 10.19 6.8 10.19 8.2 9.05 9.35 7.64 9.35ZM24.63 9.35C23.23 9.35 22.08 8.2 22.08 6.8 22.08 5.39 23.23 4.25 24.63 4.25 26.04 4.25 27.18 5.39 27.18 6.8 27.18 8.2 26.04 9.35 24.63 9.35ZM16.14 9.35C14.73 9.35 13.59 8.2 13.59 6.8 13.59 5.39 14.73 4.25 16.14 4.25 17.55 4.25 18.69 5.39 18.69 6.8 18.69 8.2 17.55 9.35 16.14 9.35Z" id="OSX/Linux" fill="#4F748E"/></g></g><path d="M26.48 11L329.52 11 329.52 219.89 26.48 219.89 26.48 11ZM30.58 15.1L325.43 15.1 325.43 215.38 30.58 215.38 30.58 15.1Z" id="Edge-overlay" fill="#E3E2E3"/></g></g></g></g></g></g></svg>