<svg fill="none" height="42" viewBox="0 0 342 42" width="342" xmlns="http://www.w3.org/2000/svg"><path d="m21.0008 42c11.5983 0 21.0008-9.4025 21.0008-21.0008s-9.4025-20.9992-21.0008-20.9992c-11.59835 0-21.0008 9.40245-21.0008 21.0008 0 11.5983 9.40245 20.9992 21.0008 20.9992z" fill="#069e08"/><path d="m22.043 17.4736v20.3585l10.5004-20.3585z" fill="#fff"/><path d="m19.9185 24.4873v-20.31958l-10.46 20.31958z" fill="#fff"/><g fill="#000"><path d="m67.3079 6.77837 9.0827 25.06773c.7834 2.1448 1.9869 2.9223 4.0447 3.1041.0752.0036.1489.0233.2165.058.0676.0346.1278.0835.1767.1435.049.06.0857.1299.1079.2054s.0294.155.0211.2335c.0031.0811-.0093.162-.0362.2381-.027.076-.068.1457-.1208.205s-.1163.107-.1868.1404c-.0705.0333-.1465.0517-.2238.054h-9.9484c-.0805.002-.1604-.013-.2352-.0443-.0747-.0313-.1426-.0781-.1996-.1377s-.102-.1306-.1321-.2089c-.0302-.0783-.0449-.1622-.0434-.2466-.0058-.0819.0045-.1642.0304-.2417s.0667-.1486.1201-.2088c.0533-.0601.1179-.108.1897-.1407s.1492-.0495.2275-.0492c.9991 0 2.1316-.2741 2.1316-1.5521-.0088-.5329-.1128-1.0593-.3066-1.552l-2.1798-6.074c-.088-.2741-.1306-.3665-.3917-.3665h-8.3021c-1.3057 0-2.915 0-3.6558 1.7368l-1.9869 4.7037c-.202.4268-.3207.8917-.3491 1.3673 0 1.6444 2.0465 1.7368 3.1222 1.7368.0783-.0003.1557.0165.2275.0492s.1364.0806.1897.1407c.0533.0602.0942.1313.1201.2088s.0362.1598.0304.2417c.0015.0846-.0133.1686-.0436.2469-.0304.0783-.0757.1493-.133.2087-.0574.0594-.1257.1059-.2007.1366-.0751.0308-.1553.0452-.2358.0423h-8.8273c-.0803.0021-.1601-.013-.2347-.0443s-.1423-.0782-.1991-.1378-.1015-.1307-.1313-.209-.0442-.1621-.0423-.2464c-.0058-.0819.0045-.1642.0304-.2417s.0667-.1486.1201-.2087c.0533-.0602.1178-.1081.1897-.1408.0718-.0327.1492-.0495.2275-.0492 2.1316-.1371 2.8383-1.1916 3.6529-3.1041l10.4849-24.1085c.4797-1.05156 1.5242-1.96312 2.4807-1.96312.6869.00298.9054.41408 1.1211 1.00689zm-7.9473 16.34543c-.0526.0812-.083.176-.088.274 0 .0924.088.1371.2611.1371h8.6144c.6074 0 .8685-.1371.8685-.5482-.0008-.2063-.0454-.4098-.1305-.5957l-2.3928-6.7592c-.5676-1.5521-1.3908-3.6046-1.6519-5.2966 0-.0894-.0454-.137-.088-.137-.0425 0-.0851.0476-.0851.137-.3267 1.1634-.7493 2.2947-1.2631 3.3811z"/><path d="m67.3079 6.77837 9.0827 25.06773c.7834 2.1448 1.9869 2.9223 4.0447 3.1041.0752.0036.1489.0233.2165.058.0676.0346.1278.0835.1767.1435.049.06.0857.1299.1079.2054s.0294.155.0211.2335c.0031.0811-.0093.162-.0362.2381-.027.076-.068.1457-.1208.205s-.1163.107-.1868.1404c-.0705.0333-.1465.0517-.2238.054h-9.9484c-.0805.002-.1604-.013-.2352-.0443-.0747-.0313-.1426-.0781-.1996-.1377s-.102-.1306-.1321-.2089c-.0302-.0783-.0449-.1622-.0434-.2466-.0058-.0819.0045-.1642.0304-.2417s.0667-.1486.1201-.2088c.0533-.0601.1179-.108.1897-.1407s.1492-.0495.2275-.0492c.9991 0 2.1316-.2741 2.1316-1.5521-.0088-.5329-.1128-1.0593-.3066-1.552l-2.1798-6.074c-.088-.2741-.1306-.3665-.3917-.3665h-8.3021c-1.3057 0-2.915 0-3.6558 1.7368l-1.9869 4.7037c-.202.4268-.3207.8917-.3491 1.3673 0 1.6444 2.0465 1.7368 3.1222 1.7368.0783-.0003.1557.0165.2275.0492s.1364.0806.1897.1407c.0533.0602.0942.1313.1201.2088s.0362.1598.0304.2417c.0015.0846-.0133.1686-.0436.2469-.0304.0783-.0757.1493-.133.2087-.0574.0594-.1257.1059-.2007.1366-.0751.0308-.1553.0452-.2358.0423h-8.8273c-.0803.0021-.1601-.013-.2347-.0443s-.1423-.0782-.1991-.1378-.1015-.1307-.1313-.209-.0442-.1621-.0423-.2464c-.0058-.0819.0045-.1642.0304-.2417s.0667-.1486.1201-.2087c.0533-.0602.1178-.1081.1897-.1408.0718-.0327.1492-.0495.2275-.0492 2.1316-.1371 2.8383-1.1916 3.6529-3.1041l10.4849-24.1085c.4797-1.05156 1.5242-1.96312 2.4807-1.96312.6869.00298.9054.41408 1.1211 1.00689zm-7.9473 16.34543c-.0526.0812-.083.176-.088.274 0 .0924.088.1371.2611.1371h8.6144c.6074 0 .8685-.1371.8685-.5482-.0008-.2063-.0454-.4098-.1305-.5957l-2.3928-6.7592c-.5676-1.5521-1.3908-3.6046-1.6519-5.2966 0-.0894-.0454-.137-.088-.137-.0425 0-.0851.0476-.0851.137-.3267 1.1634-.7493 2.2947-1.2631 3.3811z"/><path d="m83.6678 22.0482c0 1.1737-.633 1.838-1.7768 1.838-1.1439 0-1.598-.6107-1.598-1.5431 0-1.1737.6613-1.838 1.7768-1.838 1.1154 0 1.598.6375 1.598 1.5431z"/><path d="m49.5821 22.0871c0 1.1707-.6358 1.838-1.7768 1.838s-1.6036-.6137-1.6036-1.5461c0-1.1707.6613-1.838 1.7768-1.838 1.1154 0 1.6036.6405 1.6036 1.5461z"/><path d="m108.087 26.6471h-7.829l-2.0355 5.2973h-4.0545l8.249-20.7854h3.48l8.249 20.7854h-4.024zm-3.946-10.4859c-.725 2.1748-1.372 3.9924-1.942 5.4526l-.714 1.8487h5.375l-.715-1.8487c-.569-1.4706-1.217-3.2881-1.942-5.4526z"/><path d="m116.15 9.4502h3.682v13.5462h.078l5.732-6.1051h4.551l-6.602 7.0683 6.649 7.9848h-4.458l-5.888-7.0061h-.062v7.0061h-3.682z"/><path d="m131.887 16.8913h3.682v15.0531h-3.682zm-.093-7.4411h3.868v3.9924h-3.868z"/><path d="m145.745 27.5792c0-.3211-.093-.5852-.28-.7923-.176-.2071-.414-.378-.714-.5127-.301-.145-.648-.2692-1.041-.3728-.383-.1036-.787-.2071-1.212-.3107-.538-.145-1.056-.3107-1.553-.4971-.497-.1968-.938-.4505-1.321-.7612-.373-.3107-.673-.6991-.901-1.1651-.217-.4764-.326-1.0564-.326-1.7399 0-.8388.15-1.5638.451-2.1748.3-.6214.704-1.1341 1.211-1.538.518-.4039 1.114-.7042 1.787-.901.683-.1967 1.403-.2951 2.159-.2951.922 0 1.787.0776 2.594.233.808.145 1.538.3366 2.191.5748v2.9982c-.342-.114-.705-.2175-1.088-.3107-.373-.1036-.756-.1916-1.149-.2641-.383-.0725-.767-.1295-1.15-.1709-.383-.0518-.745-.0777-1.087-.0777-.435 0-.803.0415-1.103.1243-.301.0829-.544.1968-.73.3418-.187.1346-.321.2951-.404.4815-.083.1761-.125.3625-.125.5593 0 .3417.088.6214.265.8389.186.2174.44.3935.761.5281.321.1347.657.2486 1.01.3418.352.0829.693.1657 1.025.2486.518.1242 1.035.2744 1.553.4505.518.176.984.4246 1.398.7456.415.3107.751.7198 1.01 1.2273.269.4971.404 1.134.404 1.9107 0 .8493-.16 1.5897-.482 2.2215-.321.6317-.771 1.1599-1.351 1.5845-.57.4143-1.258.7198-2.066.9166-.798.2071-1.678.3107-2.641.3107-.953 0-1.812-.0777-2.579-.2331-.756-.1449-1.382-.3314-1.88-.5592v-2.9671c.808.3003 1.554.5074 2.237.6214.684.1035 1.321.1553 1.911.1553.456 0 .881-.0311 1.274-.0932.394-.0725.73-.1812 1.01-.3262.29-.145.518-.3263.683-.5437.166-.2279.249-.4972.249-.8078z"/><path d="m171.316 22.7789c0-.321-.011-.6213-.031-.901-.021-.2796-.057-.523-.109-.7301-.114-.4557-.337-.8233-.668-1.103-.332-.2796-.798-.4246-1.398-.4349-.321 0-.653.0466-.995.1398-.341.0932-.683.2278-1.025.4039-.331.1657-.652.3728-.963.6214-.3.2382-.575.5074-.823.8078v10.3616h-3.682v-9.1655c0-.321-.01-.6213-.031-.901-.021-.2796-.057-.523-.109-.7301-.114-.4557-.336-.8233-.668-1.103-.321-.2796-.787-.4246-1.398-.4349-.321 0-.652.0466-.994.1398s-.684.2278-1.025.4039c-.332.1657-.653.3728-.964.6214-.3.2382-.574.5074-.823.8078v10.3616h-3.682v-15.0531h3.045l.342 2.0972h.062c.218-.3107.492-.6162.823-.9166.332-.3003.705-.5644 1.119-.7922.424-.2279.885-.4091 1.382-.5437.508-.145 1.041-.2175 1.601-.2175.994 0 1.884.2226 2.671.668.798.4349 1.404 1.1185 1.818 2.0505h.062c.29-.4039.611-.7715.963-1.1029.363-.3314.762-.6162 1.197-.8544.434-.2382.901-.4246 1.398-.5593.507-.1346 1.046-.2019 1.615-.2019 1.077.0103 1.978.2382 2.703.6835.736.435 1.3 1.0356 1.694 1.802.103.1968.191.4143.264.6525.072.2278.129.4867.171.7767.051.29.088.611.108.9632.021.3521.031.756.031 1.2117v9.3363h-3.681z"/><path d="m186.167 29.3656c.715 0 1.461-.0725 2.237-.2174.777-.145 1.564-.3522 2.362-.6214v2.936c-.477.2071-1.207.4039-2.191.5903-.984.1865-2.004.2797-3.06.2797-1.067 0-2.082-.1347-3.045-.4039-.953-.2797-1.786-.725-2.501-1.336-.715-.6111-1.284-1.4033-1.709-2.3768-.414-.9735-.621-2.1542-.621-3.5419 0-1.3671.197-2.5633.59-3.5885.394-1.0253.922-1.8746 1.585-2.5477.663-.6732 1.419-1.1755 2.268-1.5069.859-.3418 1.745-.5126 2.656-.5126.953 0 1.828.145 2.626.4349.807.29 1.501.7457 2.081 1.3671.591.6214 1.046 1.424 1.367 2.4079.332.9735.497 2.1282.497 3.4642-.01.5178-.026.958-.046 1.3204h-9.865c.052.6939.207 1.2894.466 1.7865.259.4868.596.8855 1.01 1.1962.425.3003.917.523 1.476.668.559.1346 1.165.2019 1.817.2019zm-1.475-9.9732c-.466 0-.881.088-1.243.2641-.363.1657-.679.3987-.948.699-.259.29-.466.6318-.621 1.0253-.156.3936-.259.813-.311 1.2583h5.919c0-.4453-.062-.8647-.187-1.2583-.114-.3935-.29-.7353-.528-1.0253-.228-.3003-.518-.5333-.87-.699-.341-.1761-.745-.2641-1.211-.2641z"/><path d="m203.287 31.9289c-.414.1242-.911.2226-1.491.2951-.57.0725-1.103.1088-1.6.1088-1.264 0-2.299-.202-3.107-.6059-.798-.4142-1.362-1.0046-1.693-1.7709-.239-.5489-.358-1.2946-.358-2.237v-7.7984h-2.811v-3.0293h2.811v-4.2099h3.682v4.2099h4.35v3.0293h-4.35v7.3168c0 .58.088 1.0097.264 1.2894.311.4764.927.7146 1.849.7146.424 0 .844-.0311 1.258-.0932.425-.0725.823-.1606 1.196-.2641z"/><path d="m211.687 31.9435 8.466-20.7854h2.191l8.466 20.7854h-2.749l-2.486-6.2604h-8.684l-2.485 6.2604zm9.538-17.5541c-.921 2.5891-1.807 4.94-2.656 7.0527l-.777 1.9574h6.882l-.777-1.9574c-.849-2.1541-1.719-4.5051-2.61-7.0527z"/><path d="m235.394 19.2362h.046c.269-.3418.565-.6577.886-.9476.331-.3004.699-.5593 1.103-.7768.403-.2278.844-.4039 1.32-.5281.487-.1243 1.015-.1865 1.585-.1865.673 0 1.304.0932 1.895.2797.59.1864 1.103.4867 1.538.901.435.4142.776.9579 1.025 1.6311.259.6628.388 1.481.388 2.4545v9.88h-2.407v-9.4916c0-1.2739-.249-2.1904-.746-2.7497-.487-.5592-1.202-.8389-2.144-.8389-.828 0-1.631.2331-2.408.6991-.777.4557-1.445 1.0874-2.004 1.8952v10.4859h-2.408v-14.7579h1.864z"/><path d="m256.987 31.9746c-.207.0829-.523.1605-.947.233-.425.0725-.932.1139-1.523.1243-.776 0-1.45-.0984-2.019-.2952-.57-.1864-1.046-.4556-1.429-.8078-.373-.3624-.653-.7974-.839-1.3049-.187-.5074-.28-1.0719-.28-1.6932v-8.9791h-2.843v-2.0661h2.843v-4.039h2.408v4.039h4.412v2.0661h-4.412v8.6062c0 .3418.047.6577.14.9476.103.29.259.5437.466.7612.217.2072.492.3729.823.4971.332.114.73.1709 1.196.1709.321 0 .658-.0259 1.01-.0777.363-.0517.694-.119.994-.2019z"/><path d="m259.784 31.9435v-14.7579h2.408v14.7579zm-.062-18.1911v-2.6875h2.532v2.6875z"/><path d="m265.921 23.0732h6.851v2.2526h-6.851z"/><path d="m277.899 21.1159c0 .4039.088.7353.264.9942s.409.4712.699.6369c.3.1554.642.2848 1.025.3884.394.1035.798.1968 1.212.2796.57.1243 1.108.2641 1.616.4194.507.145.973.3677 1.398.668.435.3004.782.7094 1.041 1.2273.269.5074.403 1.1702.403 1.9884 0 .7457-.145 1.4085-.435 1.9884-.289.5696-.699 1.0512-1.227 1.4448-.528.3832-1.16.6731-1.895.8699-.735.2071-1.543.3107-2.423.3107-.539 0-1.031-.0311-1.476-.0932-.435-.0518-.824-.1243-1.165-.2175-.332-.0828-.616-.1709-.855-.2641-.238-.0932-.435-.1812-.59-.2641v-2.0195c.621.2486 1.238.4453 1.849.5903s1.284.2175 2.019.2175c.58 0 1.103-.0518 1.569-.1553.466-.1036.865-.2538 1.196-.4505.342-.2072.601-.4609.777-.7612.186-.3107.28-.668.28-1.0719 0-.4143-.083-.756-.249-1.0253s-.388-.4919-.668-.668-.606-.321-.979-.435c-.362-.1139-.745-.2175-1.149-.3107-.528-.1139-1.067-.2485-1.616-.4039-.538-.1553-1.03-.3728-1.476-.6524-.445-.2796-.807-.6576-1.087-1.134-.269-.4868-.404-1.1082-.404-1.8642 0-.7767.14-1.4499.42-2.0195.279-.5696.657-1.0408 1.134-1.4137.476-.3728 1.03-.6524 1.662-.8388.632-.1865 1.3-.2797 2.004-.2797.818 0 1.574.0777 2.268.2331.704.1553 1.341.3521 1.911.5903v2.0505c-.622-.2382-1.254-.4297-1.896-.5747-.631-.1554-1.284-.2382-1.957-.2486-.57 0-1.056.057-1.46.1709s-.736.2744-.994.4816c-.259.1967-.451.4349-.575.7146-.114.2692-.171.5696-.171.901z"/><path d="m299.135 24.4248c0-.8596-.093-1.6312-.279-2.3147-.176-.6835-.446-1.2635-.808-1.7399-.363-.4867-.808-.8596-1.336-1.1185s-1.139-.3884-1.833-.3884c-.497 0-.953.0674-1.367.202-.404.1346-.772.3055-1.103.5126-.332.2072-.616.4298-.855.668-.238.2382-.429.4505-.574.637v7.7207c.507.5178 1.082.9269 1.724 1.2272.652.3004 1.352.4505 2.097.4505.456 0 .937-.0828 1.445-.2485.507-.1761.973-.4816 1.398-.9166.435-.4453.792-1.046 1.072-1.802s.419-1.7192.419-2.8894zm2.517-.0311c0 1.0253-.104 1.9366-.311 2.7341-.196.7871-.461 1.4758-.792 2.0661s-.72 1.0874-1.165 1.4913c-.445.3936-.906.7146-1.383.9632-.476.2382-.963.4091-1.46.5126-.487.1139-.948.1709-1.382.1709-.901 0-1.683-.145-2.346-.435-.663-.3003-1.259-.7405-1.787-1.3204h-.046v8.5907h-2.408v-21.9816h1.817l.513 1.6777h.047c.134-.2071.305-.409.512-.6058.218-.1968.503-.4039.855-.6214.362-.2278.792-.4246 1.289-.5903.508-.1657 1.056-.2486 1.647-.2486.828 0 1.626.1398 2.392.4195.777.2796 1.46.7249 2.051 1.336.59.611 1.061 1.3981 1.413 2.3612.363.9528.544 2.1127.544 3.4798z"/><path d="m313.475 30.3124h-.063c-.196.2486-.445.4971-.745.7457-.301.2382-.648.4556-1.041.6524-.394.1864-.823.3366-1.289.4505-.467.1139-.964.1709-1.492.1709-.714 0-1.372-.1087-1.973-.3262-.59-.2072-1.103-.5127-1.538-.9166-.424-.4142-.756-.9165-.994-1.5068-.238-.5904-.357-1.2583-.357-2.004 0-.7353.129-1.3929.388-1.9729.269-.58.642-1.0719 1.119-1.4758.476-.4039 1.046-.7146 1.709-.9321.673-.2175 1.413-.3262 2.221-.3262.766.0103 1.476.0777 2.128.2019.653.1243 1.233.2797 1.74.4661h.062v-1.0253c0-.4039-.026-.7612-.077-1.0719-.052-.3107-.14-.5851-.265-.8233-.269-.4971-.699-.9062-1.289-1.2273-.59-.3314-1.388-.4971-2.392-.4971-.746 0-1.45.0725-2.113.2175-.652.1346-1.305.3262-1.957.5748v-2.0195c.248-.1243.538-.2382.87-.3418.341-.1139.699-.2071 1.072-.2796.372-.0829.766-.145 1.18-.1864.414-.0415.829-.0622 1.243-.0622 1.491 0 2.708.2641 3.651.7923.952.5282 1.636 1.2272 2.05 2.0972.155.3314.264.699.326 1.1029.073.3936.109.8286.109 1.305v9.8489h-2.019zm-.125-4.8468c-.445-.1243-.973-.2434-1.584-.3573s-1.285-.1761-2.02-.1864c-1.025 0-1.828.2175-2.408.6524-.58.435-.87 1.103-.87 2.004 0 .4557.073.8544.218 1.1962.145.3417.342.6265.59.8544.259.2175.559.3832.901.4971.352.1035.725.1553 1.119.1553.518 0 .999-.0725 1.444-.2175.446-.1553.839-.3365 1.181-.5437.352-.2071.647-.4142.886-.6214.248-.2071.429-.3676.543-.4815z"/><path d="m331.853 31.9435h-2.408v-9.4916c0-.6421-.073-1.1859-.218-1.6312-.134-.4557-.336-.8285-.606-1.1185-.258-.29-.574-.5023-.947-.6369-.363-.1346-.772-.202-1.227-.202-.86 0-1.642.2331-2.346.6991-.704.4557-1.336 1.0874-1.895 1.8952v10.4859h-2.408v-14.7579h1.864l.466 2.0506h.047c.269-.3418.559-.6577.869-.9476.322-.3004.674-.5593 1.057-.7768.393-.2278.823-.4039 1.289-.5281.466-.1243.974-.1865 1.523-.1865 1.097 0 2.009.2641 2.734.7923s1.284 1.248 1.677 2.1593h.063c.652-.9217 1.398-1.6415 2.237-2.1593.838-.5282 1.817-.7923 2.936-.7923.517 0 1.066.0725 1.646.2175s1.114.4143 1.6.8078c.487.3832.891.9166 1.212 1.6001s.482 1.5638.482 2.6409v9.88h-2.393v-9.4916c0-.6421-.072-1.1859-.217-1.6312-.135-.4557-.337-.8285-.606-1.1185-.259-.29-.575-.5023-.948-.6369-.362-.1346-.771-.202-1.227-.202-.859 0-1.647.2331-2.361.6991-.704.4557-1.336 1.0874-1.895 1.8952z"/></g></svg>