<svg width="342" height="42" viewBox="0 0 342 42" fill="none" xmlns="http://www.w3.org/2000/svg">
<path d="M21.0008 42C32.5991 42 42.0016 32.5975 42.0016 20.9992C42.0016 9.4009 32.5991 0 21.0008 0C9.40245 0 0 9.40245 0 21.0008C0 32.5991 9.40245 42 21.0008 42Z" fill="#069E08"/>
<path d="M22.043 17.4736V37.8321L32.5434 17.4736H22.043Z" fill="white"/>
<path d="M19.9185 24.4873V4.16772L9.4585 24.4873H19.9185Z" fill="white"/>
<path d="M67.3079 6.77837L76.3906 31.8461C77.174 33.9909 78.3775 34.7684 80.4353 34.9502C80.5105 34.9538 80.5842 34.9735 80.6518 35.0082C80.7194 35.0428 80.7796 35.0917 80.8285 35.1517C80.8775 35.2117 80.9142 35.2816 80.9364 35.3571C80.9586 35.4326 80.9658 35.5121 80.9575 35.5906C80.9606 35.6717 80.9482 35.7526 80.9213 35.8287C80.8943 35.9047 80.8533 35.9744 80.8005 36.0337C80.7477 36.093 80.6842 36.1407 80.6137 36.1741C80.5432 36.2074 80.4672 36.2258 80.3899 36.2281H70.4415C70.361 36.2301 70.2811 36.2151 70.2063 36.1838C70.1316 36.1525 70.0637 36.1057 70.0067 36.0461C69.9497 35.9865 69.9047 35.9155 69.8746 35.8372C69.8444 35.7589 69.8297 35.675 69.8312 35.5906C69.8254 35.5087 69.8357 35.4264 69.8616 35.3489C69.8875 35.2714 69.9283 35.2003 69.9817 35.1401C70.035 35.08 70.0996 35.0321 70.1714 34.9994C70.2432 34.9667 70.3206 34.9499 70.3989 34.9502C71.398 34.9502 72.5305 34.6761 72.5305 33.3981C72.5217 32.8652 72.4177 32.3388 72.2239 31.8461L70.0441 25.7721C69.9561 25.498 69.9135 25.4056 69.6524 25.4056H61.3503C60.0446 25.4056 58.4353 25.4056 57.6945 27.1424L55.7076 31.8461C55.5056 32.2729 55.3869 32.7378 55.3585 33.2134C55.3585 34.8578 57.405 34.9502 58.4807 34.9502C58.559 34.9499 58.6364 34.9667 58.7082 34.9994C58.78 35.0321 58.8446 35.08 58.8979 35.1401C58.9512 35.2003 58.9921 35.2714 59.018 35.3489C59.0439 35.4264 59.0542 35.5087 59.0484 35.5906C59.0499 35.6752 59.0351 35.7592 59.0048 35.8375C58.9744 35.9158 58.9291 35.9868 58.8718 36.0462C58.8144 36.1056 58.7461 36.1521 58.6711 36.1828C58.596 36.2136 58.5158 36.228 58.4353 36.2251H49.608C49.5277 36.2272 49.4479 36.2121 49.3733 36.1808C49.2987 36.1495 49.231 36.1026 49.1742 36.043C49.1174 35.9834 49.0727 35.9123 49.0429 35.834C49.0131 35.7557 48.9987 35.6719 49.0006 35.5876C48.9948 35.5057 49.0051 35.4234 49.031 35.3459C49.0569 35.2684 49.0977 35.1973 49.1511 35.1372C49.2044 35.077 49.2689 35.0291 49.3408 34.9964C49.4126 34.9637 49.49 34.9469 49.5683 34.9472C51.6999 34.8101 52.4066 33.7556 53.2212 31.8431L63.7061 7.7346C64.1858 6.68304 65.2303 5.77148 66.1868 5.77148C66.8737 5.77446 67.0922 6.18556 67.3079 6.77837ZM59.3606 23.1238C59.308 23.205 59.2776 23.2998 59.2726 23.3978C59.2726 23.4902 59.3606 23.5349 59.5337 23.5349H68.1481C68.7555 23.5349 69.0166 23.3978 69.0166 22.9867C69.0158 22.7804 68.9712 22.5769 68.8861 22.391L66.4933 15.6318C65.9257 14.0797 65.1025 12.0272 64.8414 10.3352C64.8414 10.2458 64.796 10.1982 64.7534 10.1982C64.7109 10.1982 64.6683 10.2458 64.6683 10.3352C64.3416 11.4986 63.919 12.6299 63.4052 13.7163L59.3606 23.1238Z" fill="black"/>
<path d="M67.3079 6.77837L76.3906 31.8461C77.174 33.9909 78.3775 34.7684 80.4353 34.9502C80.5105 34.9538 80.5842 34.9735 80.6518 35.0082C80.7194 35.0428 80.7796 35.0917 80.8285 35.1517C80.8775 35.2117 80.9142 35.2816 80.9364 35.3571C80.9586 35.4326 80.9658 35.5121 80.9575 35.5906C80.9606 35.6717 80.9482 35.7526 80.9213 35.8287C80.8943 35.9047 80.8533 35.9744 80.8005 36.0337C80.7477 36.093 80.6842 36.1407 80.6137 36.1741C80.5432 36.2074 80.4672 36.2258 80.3899 36.2281H70.4415C70.361 36.2301 70.2811 36.2151 70.2063 36.1838C70.1316 36.1525 70.0637 36.1057 70.0067 36.0461C69.9497 35.9865 69.9047 35.9155 69.8746 35.8372C69.8444 35.7589 69.8297 35.675 69.8312 35.5906C69.8254 35.5087 69.8357 35.4264 69.8616 35.3489C69.8875 35.2714 69.9283 35.2003 69.9817 35.1401C70.035 35.08 70.0996 35.0321 70.1714 34.9994C70.2432 34.9667 70.3206 34.9499 70.3989 34.9502C71.398 34.9502 72.5305 34.6761 72.5305 33.3981C72.5217 32.8652 72.4177 32.3388 72.2239 31.8461L70.0441 25.7721C69.9561 25.498 69.9135 25.4056 69.6524 25.4056H61.3503C60.0446 25.4056 58.4353 25.4056 57.6945 27.1424L55.7076 31.8461C55.5056 32.2729 55.3869 32.7378 55.3585 33.2134C55.3585 34.8578 57.405 34.9502 58.4807 34.9502C58.559 34.9499 58.6364 34.9667 58.7082 34.9994C58.78 35.0321 58.8446 35.08 58.8979 35.1401C58.9512 35.2003 58.9921 35.2714 59.018 35.3489C59.0439 35.4264 59.0542 35.5087 59.0484 35.5906C59.0499 35.6752 59.0351 35.7592 59.0048 35.8375C58.9744 35.9158 58.9291 35.9868 58.8718 36.0462C58.8144 36.1056 58.7461 36.1521 58.6711 36.1828C58.596 36.2136 58.5158 36.228 58.4353 36.2251H49.608C49.5277 36.2272 49.4479 36.2121 49.3733 36.1808C49.2987 36.1495 49.231 36.1026 49.1742 36.043C49.1174 35.9834 49.0727 35.9123 49.0429 35.834C49.0131 35.7557 48.9987 35.6719 49.0006 35.5876C48.9948 35.5057 49.0051 35.4234 49.031 35.3459C49.0569 35.2684 49.0977 35.1973 49.1511 35.1372C49.2044 35.077 49.2689 35.0291 49.3408 34.9964C49.4126 34.9637 49.49 34.9469 49.5683 34.9472C51.6999 34.8101 52.4066 33.7556 53.2212 31.8431L63.7061 7.7346C64.1858 6.68304 65.2303 5.77148 66.1868 5.77148C66.8737 5.77446 67.0922 6.18556 67.3079 6.77837ZM59.3606 23.1238C59.308 23.205 59.2776 23.2998 59.2726 23.3978C59.2726 23.4902 59.3606 23.5349 59.5337 23.5349H68.1481C68.7555 23.5349 69.0166 23.3978 69.0166 22.9867C69.0158 22.7804 68.9712 22.5769 68.8861 22.391L66.4933 15.6318C65.9257 14.0797 65.1025 12.0272 64.8414 10.3352C64.8414 10.2458 64.796 10.1982 64.7534 10.1982C64.7109 10.1982 64.6683 10.2458 64.6683 10.3352C64.3416 11.4986 63.919 12.6299 63.4052 13.7163L59.3606 23.1238Z" fill="black"/>
<path d="M83.6678 22.0482C83.6678 23.2219 83.0348 23.8862 81.891 23.8862C80.7471 23.8862 80.293 23.2755 80.293 22.3431C80.293 21.1694 80.9543 20.5051 82.0698 20.5051C83.1852 20.5051 83.6678 21.1426 83.6678 22.0482Z" fill="black"/>
<path d="M49.5821 22.0871C49.5821 23.2578 48.9463 23.9251 47.8053 23.9251C46.6643 23.9251 46.2017 23.3114 46.2017 22.379C46.2017 21.2083 46.863 20.541 47.9785 20.541C49.0939 20.541 49.5821 21.1815 49.5821 22.0871Z" fill="black"/>
<path d="M108.087 26.6471H100.258L98.2225 31.9444H94.168L102.417 11.159H105.897L114.146 31.9444H110.122L108.087 26.6471ZM104.141 16.1612C103.416 18.336 102.769 20.1536 102.199 21.6138L101.485 23.4625H106.86L106.145 21.6138C105.576 20.1432 104.928 18.3257 104.203 16.1612H104.141Z" fill="black"/>
<path d="M116.15 9.4502H119.832V22.9964H119.91L125.642 16.8913H130.193L123.591 23.9596L130.24 31.9444H125.782L119.894 24.9383H119.832V31.9444H116.15V9.4502Z" fill="black"/>
<path d="M131.887 16.8913H135.569V31.9444H131.887V16.8913ZM131.794 9.4502H135.662V13.4426H131.794V9.4502Z" fill="black"/>
<path d="M145.745 27.5792C145.745 27.2581 145.652 26.994 145.465 26.7869C145.289 26.5798 145.051 26.4089 144.751 26.2742C144.45 26.1292 144.103 26.005 143.71 25.9014C143.327 25.7978 142.923 25.6943 142.498 25.5907C141.96 25.4457 141.442 25.28 140.945 25.0936C140.448 24.8968 140.007 24.6431 139.624 24.3324C139.251 24.0217 138.951 23.6333 138.723 23.1673C138.506 22.6909 138.397 22.1109 138.397 21.4274C138.397 20.5886 138.547 19.8636 138.848 19.2526C139.148 18.6312 139.552 18.1185 140.059 17.7146C140.577 17.3107 141.173 17.0104 141.846 16.8136C142.529 16.6169 143.249 16.5185 144.005 16.5185C144.927 16.5185 145.792 16.5961 146.599 16.7515C147.407 16.8965 148.137 17.0881 148.79 17.3263V20.3245C148.448 20.2105 148.085 20.107 147.702 20.0138C147.329 19.9102 146.946 19.8222 146.553 19.7497C146.17 19.6772 145.786 19.6202 145.403 19.5788C145.02 19.527 144.658 19.5011 144.316 19.5011C143.881 19.5011 143.513 19.5426 143.213 19.6254C142.912 19.7083 142.669 19.8222 142.483 19.9672C142.296 20.1018 142.162 20.2623 142.079 20.4487C141.996 20.6248 141.954 20.8112 141.954 21.008C141.954 21.3497 142.042 21.6294 142.219 21.8469C142.405 22.0643 142.659 22.2404 142.98 22.375C143.301 22.5097 143.637 22.6236 143.99 22.7168C144.342 22.7997 144.683 22.8825 145.015 22.9654C145.533 23.0896 146.05 23.2398 146.568 23.4159C147.086 23.5919 147.552 23.8405 147.966 24.1615C148.381 24.4722 148.717 24.8813 148.976 25.3888C149.245 25.8859 149.38 26.5228 149.38 27.2995C149.38 28.1488 149.22 28.8892 148.898 29.521C148.577 30.1527 148.127 30.6809 147.547 31.1055C146.977 31.5198 146.289 31.8253 145.481 32.0221C144.683 32.2292 143.803 32.3328 142.84 32.3328C141.887 32.3328 141.028 32.2551 140.261 32.0997C139.505 31.9548 138.879 31.7683 138.381 31.5405V28.5734C139.189 28.8737 139.935 29.0808 140.618 29.1948C141.302 29.2983 141.939 29.3501 142.529 29.3501C142.985 29.3501 143.41 29.319 143.803 29.2569C144.197 29.1844 144.533 29.0757 144.813 28.9307C145.103 28.7857 145.331 28.6044 145.496 28.387C145.662 28.1591 145.745 27.8898 145.745 27.5792Z" fill="black"/>
<path d="M171.316 22.7789C171.316 22.4579 171.305 22.1576 171.285 21.8779C171.264 21.5983 171.228 21.3549 171.176 21.1478C171.062 20.6921 170.839 20.3245 170.508 20.0448C170.176 19.7652 169.71 19.6202 169.11 19.6099C168.789 19.6099 168.457 19.6565 168.115 19.7497C167.774 19.8429 167.432 19.9775 167.09 20.1536C166.759 20.3193 166.438 20.5264 166.127 20.775C165.827 21.0132 165.552 21.2824 165.304 21.5828V31.9444H161.622V22.7789C161.622 22.4579 161.612 22.1576 161.591 21.8779C161.57 21.5983 161.534 21.3549 161.482 21.1478C161.368 20.6921 161.146 20.3245 160.814 20.0448C160.493 19.7652 160.027 19.6202 159.416 19.6099C159.095 19.6099 158.764 19.6565 158.422 19.7497C158.08 19.8429 157.738 19.9775 157.397 20.1536C157.065 20.3193 156.744 20.5264 156.433 20.775C156.133 21.0132 155.859 21.2824 155.61 21.5828V31.9444H151.928V16.8913H154.973L155.315 18.9885H155.377C155.595 18.6778 155.869 18.3723 156.2 18.0719C156.532 17.7716 156.905 17.5075 157.319 17.2797C157.743 17.0518 158.204 16.8706 158.701 16.736C159.209 16.591 159.742 16.5185 160.302 16.5185C161.296 16.5185 162.186 16.7411 162.973 17.1865C163.771 17.6214 164.377 18.305 164.791 19.237H164.853C165.143 18.8331 165.464 18.4655 165.816 18.1341C166.179 17.8027 166.578 17.5179 167.013 17.2797C167.447 17.0415 167.914 16.8551 168.411 16.7204C168.918 16.5858 169.457 16.5185 170.026 16.5185C171.103 16.5288 172.004 16.7567 172.729 17.202C173.465 17.637 174.029 18.2376 174.423 19.004C174.526 19.2008 174.614 19.4183 174.687 19.6565C174.759 19.8843 174.816 20.1432 174.858 20.4332C174.909 20.7232 174.946 21.0442 174.966 21.3964C174.987 21.7485 174.997 22.1524 174.997 22.6081V31.9444H171.316V22.7789Z" fill="black"/>
<path d="M186.167 29.3656C186.882 29.3656 187.628 29.2931 188.404 29.1482C189.181 29.0032 189.968 28.796 190.766 28.5268V31.4628C190.289 31.6699 189.559 31.8667 188.575 32.0531C187.591 32.2396 186.571 32.3328 185.515 32.3328C184.448 32.3328 183.433 32.1981 182.47 31.9289C181.517 31.6492 180.684 31.2039 179.969 30.5929C179.254 29.9818 178.685 29.1896 178.26 28.2161C177.846 27.2426 177.639 26.0619 177.639 24.6742C177.639 23.3071 177.836 22.1109 178.229 21.0857C178.623 20.0604 179.151 19.2111 179.814 18.538C180.477 17.8648 181.233 17.3625 182.082 17.0311C182.941 16.6893 183.827 16.5185 184.738 16.5185C185.691 16.5185 186.566 16.6635 187.364 16.9534C188.171 17.2434 188.865 17.6991 189.445 18.3205C190.036 18.9419 190.491 19.7445 190.812 20.7284C191.144 21.7019 191.309 22.8566 191.309 24.1926C191.299 24.7104 191.283 25.1506 191.263 25.513H181.398C181.45 26.2069 181.605 26.8024 181.864 27.2995C182.123 27.7863 182.46 28.185 182.874 28.4957C183.299 28.796 183.791 29.0187 184.35 29.1637C184.909 29.2983 185.515 29.3656 186.167 29.3656ZM184.692 19.3924C184.226 19.3924 183.811 19.4804 183.449 19.6565C183.086 19.8222 182.77 20.0552 182.501 20.3555C182.242 20.6455 182.035 20.9873 181.88 21.3808C181.724 21.7744 181.621 22.1938 181.569 22.6391H187.488C187.488 22.1938 187.426 21.7744 187.301 21.3808C187.187 20.9873 187.011 20.6455 186.773 20.3555C186.545 20.0552 186.255 19.8222 185.903 19.6565C185.562 19.4804 185.158 19.3924 184.692 19.3924Z" fill="black"/>
<path d="M203.287 31.9289C202.873 32.0531 202.376 32.1515 201.796 32.224C201.226 32.2965 200.693 32.3328 200.196 32.3328C198.932 32.3328 197.897 32.1308 197.089 31.7269C196.291 31.3127 195.727 30.7223 195.396 29.956C195.157 29.4071 195.038 28.6614 195.038 27.719V19.9206H192.227V16.8913H195.038V12.6814H198.72V16.8913H203.07V19.9206H198.72V27.2374C198.72 27.8174 198.808 28.2471 198.984 28.5268C199.295 29.0032 199.911 29.2414 200.833 29.2414C201.257 29.2414 201.677 29.2103 202.091 29.1482C202.516 29.0757 202.914 28.9876 203.287 28.8841V31.9289Z" fill="black"/>
<path d="M211.687 31.9435L220.153 11.1581H222.344L230.81 31.9435H228.061L225.575 25.6831H216.891L214.406 31.9435H211.687ZM221.225 14.3894C220.304 16.9785 219.418 19.3294 218.569 21.4421L217.792 23.3995H224.674L223.897 21.4421C223.048 19.288 222.178 16.937 221.287 14.3894H221.225Z" fill="black"/>
<path d="M235.394 19.2362H235.44C235.709 18.8944 236.005 18.5785 236.326 18.2886C236.657 17.9882 237.025 17.7293 237.429 17.5118C237.832 17.284 238.273 17.1079 238.749 16.9837C239.236 16.8594 239.764 16.7972 240.334 16.7972C241.007 16.7972 241.638 16.8904 242.229 17.0769C242.819 17.2633 243.332 17.5636 243.767 17.9779C244.202 18.3921 244.543 18.9358 244.792 19.609C245.051 20.2718 245.18 21.09 245.18 22.0635V31.9435H242.773V22.4519C242.773 21.178 242.524 20.2615 242.027 19.7022C241.54 19.143 240.825 18.8633 239.883 18.8633C239.055 18.8633 238.252 19.0964 237.475 19.5624C236.698 20.0181 236.03 20.6498 235.471 21.4576V31.9435H233.063V17.1856H234.927L235.394 19.2362Z" fill="black"/>
<path d="M256.987 31.9746C256.78 32.0575 256.464 32.1351 256.04 32.2076C255.615 32.2801 255.108 32.3215 254.517 32.3319C253.741 32.3319 253.067 32.2335 252.498 32.0367C251.928 31.8503 251.452 31.5811 251.069 31.2289C250.696 30.8665 250.416 30.4315 250.23 29.924C250.043 29.4166 249.95 28.8521 249.95 28.2308V19.2517H247.107V17.1856H249.95V13.1466H252.358V17.1856H256.77V19.2517H252.358V27.8579C252.358 28.1997 252.405 28.5156 252.498 28.8055C252.601 29.0955 252.757 29.3492 252.964 29.5667C253.181 29.7739 253.456 29.9396 253.787 30.0638C254.119 30.1778 254.517 30.2347 254.983 30.2347C255.304 30.2347 255.641 30.2088 255.993 30.157C256.356 30.1053 256.687 30.038 256.987 29.9551V31.9746Z" fill="black"/>
<path d="M259.784 31.9435V17.1856H262.192V31.9435H259.784ZM259.722 13.7524V11.0649H262.254V13.7524H259.722Z" fill="black"/>
<path d="M265.921 23.0732H272.772V25.3258H265.921V23.0732Z" fill="black"/>
<path d="M277.899 21.1159C277.899 21.5198 277.987 21.8512 278.163 22.1101C278.339 22.369 278.572 22.5813 278.862 22.747C279.162 22.9024 279.504 23.0318 279.887 23.1354C280.281 23.2389 280.685 23.3322 281.099 23.415C281.669 23.5393 282.207 23.6791 282.715 23.8344C283.222 23.9794 283.688 24.2021 284.113 24.5024C284.548 24.8028 284.895 25.2118 285.154 25.7297C285.423 26.2371 285.557 26.8999 285.557 27.7181C285.557 28.4638 285.412 29.1266 285.122 29.7065C284.833 30.2761 284.423 30.7577 283.895 31.1513C283.367 31.5345 282.735 31.8244 282 32.0212C281.265 32.2283 280.457 32.3319 279.577 32.3319C279.038 32.3319 278.546 32.3008 278.101 32.2387C277.666 32.1869 277.277 32.1144 276.936 32.0212C276.604 31.9384 276.32 31.8503 276.081 31.7571C275.843 31.6639 275.646 31.5759 275.491 31.493V29.4735C276.112 29.7221 276.729 29.9188 277.34 30.0638C277.951 30.2088 278.624 30.2813 279.359 30.2813C279.939 30.2813 280.462 30.2295 280.928 30.126C281.394 30.0224 281.793 29.8722 282.124 29.6755C282.466 29.4683 282.725 29.2146 282.901 28.9143C283.087 28.6036 283.181 28.2463 283.181 27.8424C283.181 27.4281 283.098 27.0864 282.932 26.8171C282.766 26.5478 282.544 26.3252 282.264 26.1491C281.984 25.973 281.658 25.8281 281.285 25.7141C280.923 25.6002 280.54 25.4966 280.136 25.4034C279.608 25.2895 279.069 25.1549 278.52 24.9995C277.982 24.8442 277.49 24.6267 277.044 24.3471C276.599 24.0675 276.237 23.6895 275.957 23.2131C275.688 22.7263 275.553 22.1049 275.553 21.3489C275.553 20.5722 275.693 19.899 275.973 19.3294C276.252 18.7598 276.63 18.2886 277.107 17.9157C277.583 17.5429 278.137 17.2633 278.769 17.0769C279.401 16.8904 280.069 16.7972 280.773 16.7972C281.591 16.7972 282.347 16.8749 283.041 17.0303C283.745 17.1856 284.382 17.3824 284.952 17.6206V19.6711C284.33 19.4329 283.698 19.2414 283.056 19.0964C282.425 18.941 281.772 18.8582 281.099 18.8478C280.529 18.8478 280.043 18.9048 279.639 19.0187C279.235 19.1326 278.903 19.2931 278.645 19.5003C278.386 19.697 278.194 19.9352 278.07 20.2149C277.956 20.4841 277.899 20.7845 277.899 21.1159Z" fill="black"/>
<path d="M299.135 24.4248C299.135 23.5652 299.042 22.7936 298.856 22.1101C298.68 21.4266 298.41 20.8466 298.048 20.3702C297.685 19.8835 297.24 19.5106 296.712 19.2517C296.184 18.9928 295.573 18.8633 294.879 18.8633C294.382 18.8633 293.926 18.9307 293.512 19.0653C293.108 19.1999 292.74 19.3708 292.409 19.5779C292.077 19.7851 291.793 20.0077 291.554 20.2459C291.316 20.4841 291.125 20.6964 290.98 20.8829V28.6036C291.487 29.1214 292.062 29.5305 292.704 29.8308C293.356 30.1312 294.056 30.2813 294.801 30.2813C295.257 30.2813 295.738 30.1985 296.246 30.0328C296.753 29.8567 297.219 29.5512 297.644 29.1162C298.079 28.6709 298.436 28.0702 298.716 27.3142C298.996 26.5582 299.135 25.595 299.135 24.4248ZM301.652 24.3937C301.652 25.419 301.548 26.3303 301.341 27.1278C301.145 27.9149 300.88 28.6036 300.549 29.1939C300.218 29.7842 299.829 30.2813 299.384 30.6852C298.939 31.0788 298.478 31.3998 298.001 31.6484C297.525 31.8866 297.038 32.0575 296.541 32.161C296.054 32.2749 295.593 32.3319 295.159 32.3319C294.258 32.3319 293.476 32.1869 292.813 31.8969C292.15 31.5966 291.554 31.1564 291.026 30.5765H290.98V39.1672H288.572V17.1856H290.389L290.902 18.8633H290.949C291.083 18.6562 291.254 18.4543 291.461 18.2575C291.679 18.0607 291.964 17.8536 292.316 17.6361C292.678 17.4083 293.108 17.2115 293.605 17.0458C294.113 16.8801 294.661 16.7972 295.252 16.7972C296.08 16.7972 296.878 16.937 297.644 17.2167C298.421 17.4963 299.104 17.9416 299.695 18.5527C300.285 19.1637 300.756 19.9508 301.108 20.9139C301.471 21.8667 301.652 23.0266 301.652 24.3937Z" fill="black"/>
<path d="M313.475 30.3124H313.412C313.216 30.561 312.967 30.8095 312.667 31.0581C312.366 31.2963 312.019 31.5137 311.626 31.7105C311.232 31.8969 310.803 32.0471 310.337 32.161C309.87 32.2749 309.373 32.3319 308.845 32.3319C308.131 32.3319 307.473 32.2232 306.872 32.0057C306.282 31.7985 305.769 31.493 305.334 31.0891C304.91 30.6749 304.578 30.1726 304.34 29.5823C304.102 28.9919 303.983 28.324 303.983 27.5783C303.983 26.843 304.112 26.1854 304.371 25.6054C304.64 25.0254 305.013 24.5335 305.49 24.1296C305.966 23.7257 306.536 23.415 307.199 23.1975C307.872 22.98 308.612 22.8713 309.42 22.8713C310.186 22.8816 310.896 22.949 311.548 23.0732C312.201 23.1975 312.781 23.3529 313.288 23.5393H313.35V22.514C313.35 22.1101 313.324 21.7528 313.273 21.4421C313.221 21.1314 313.133 20.857 313.008 20.6188C312.739 20.1217 312.309 19.7126 311.719 19.3915C311.129 19.0601 310.331 18.8944 309.327 18.8944C308.581 18.8944 307.877 18.9669 307.214 19.1119C306.562 19.2465 305.909 19.4381 305.257 19.6867V17.6672C305.505 17.5429 305.795 17.429 306.127 17.3254C306.468 17.2115 306.826 17.1183 307.199 17.0458C307.571 16.9629 307.965 16.9008 308.379 16.8594C308.793 16.8179 309.208 16.7972 309.622 16.7972C311.113 16.7972 312.33 17.0613 313.273 17.5895C314.225 18.1177 314.909 18.8167 315.323 19.6867C315.478 20.0181 315.587 20.3857 315.649 20.7896C315.722 21.1832 315.758 21.6182 315.758 22.0946V31.9435H313.739L313.475 30.3124ZM313.35 25.4656C312.905 25.3413 312.377 25.2222 311.766 25.1083C311.155 24.9944 310.481 24.9322 309.746 24.9219C308.721 24.9219 307.918 25.1394 307.338 25.5743C306.758 26.0093 306.468 26.6773 306.468 27.5783C306.468 28.034 306.541 28.4327 306.686 28.7745C306.831 29.1162 307.028 29.401 307.276 29.6289C307.535 29.8464 307.835 30.0121 308.177 30.126C308.529 30.2295 308.902 30.2813 309.296 30.2813C309.814 30.2813 310.295 30.2088 310.74 30.0638C311.186 29.9085 311.579 29.7273 311.921 29.5201C312.273 29.313 312.568 29.1059 312.807 28.8987C313.055 28.6916 313.236 28.5311 313.35 28.4172V25.4656Z" fill="black"/>
<path d="M331.853 31.9435H329.445V22.4519C329.445 21.8098 329.372 21.266 329.227 20.8207C329.093 20.365 328.891 19.9922 328.621 19.7022C328.363 19.4122 328.047 19.1999 327.674 19.0653C327.311 18.9307 326.902 18.8633 326.447 18.8633C325.587 18.8633 324.805 19.0964 324.101 19.5624C323.397 20.0181 322.765 20.6498 322.206 21.4576V31.9435H319.798V17.1856H321.662L322.128 19.2362H322.175C322.444 18.8944 322.734 18.5785 323.044 18.2886C323.366 17.9882 323.718 17.7293 324.101 17.5118C324.494 17.284 324.924 17.1079 325.39 16.9837C325.856 16.8594 326.364 16.7972 326.913 16.7972C328.01 16.7972 328.922 17.0613 329.647 17.5895C330.372 18.1177 330.931 18.8375 331.324 19.7488H331.387C332.039 18.8271 332.785 18.1073 333.624 17.5895C334.462 17.0613 335.441 16.7972 336.56 16.7972C337.077 16.7972 337.626 16.8697 338.206 17.0147C338.786 17.1597 339.32 17.429 339.806 17.8225C340.293 18.2057 340.697 18.7391 341.018 19.4226C341.339 20.1061 341.5 20.9864 341.5 22.0635V31.9435H339.107V22.4519C339.107 21.8098 339.035 21.266 338.89 20.8207C338.755 20.365 338.553 19.9922 338.284 19.7022C338.025 19.4122 337.709 19.1999 337.336 19.0653C336.974 18.9307 336.565 18.8633 336.109 18.8633C335.25 18.8633 334.462 19.0964 333.748 19.5624C333.044 20.0181 332.412 20.6498 331.853 21.4576V31.9435Z" fill="black"/>
</svg>
