<svg width="32" height="32" viewBox="0 0 32 32" fill="none" xmlns="http://www.w3.org/2000/svg">
<path fill-rule="evenodd" clip-rule="evenodd" d="M16 32C24.8366 32 32 24.8366 32 16C32 7.16344 24.8366 0 16 0C7.16344 0 0 7.16344 0 16C0 24.8366 7.16344 32 16 32ZM11.5 14C10.6716 14 10 14.6716 10 15.5V22.5C10 23.3284 10.6716 24 11.5 24H20.5C21.3284 24 22 23.3284 22 22.5V15.5C22 14.6716 21.3284 14 20.5 14H20.25V12.5C20.25 10.1528 18.3472 8.25 16 8.25C13.6528 8.25 11.75 10.1528 11.75 12.5V14H11.5ZM13.25 14H18.75V12.5C18.75 10.9812 17.5188 9.75 16 9.75C14.4812 9.75 13.25 10.9812 13.25 12.5V14ZM16 18C15.4477 18 15 18.4477 15 19C15 19.5523 15.4477 20 16 20C16.5523 20 17 19.5523 17 19C17 18.4477 16.5523 18 16 18Z" fill="#3895BA"/>
</svg>
