<svg fill="none" height="64" viewBox="0 0 64 64" width="64" xmlns="http://www.w3.org/2000/svg"><circle cx="32" cy="32" fill="#069e08" r="32"/><path clip-rule="evenodd" d="m32 18.4167c-3.4518 0-6.25 2.7982-6.25 6.25v4h-2.0833c-.9205 0-1.6667.7462-1.6667 1.6666v10.3334c0 .9204.7462 1.6666 1.6667 1.6666h16.6666c.9205 0 1.6667-.7462 1.6667-1.6666v-10.3334c0-.9204-.7462-1.6666-1.6667-1.6666h-2.0833v-4c0-3.4518-2.7982-6.25-6.25-6.25zm3.75 10.25v-4c0-2.0711-1.6789-3.75-3.75-3.75s-3.75 1.6789-3.75 3.75v4z" fill="#fff" fill-rule="evenodd"/></svg>