<svg width="128" height="128" viewBox="0 0 128 128" fill="none" xmlns="http://www.w3.org/2000/svg">
	<rect x="12.5" y="12.5" width="103" height="103" rx="12.1905" fill="#2C3338"/>
	<path d="M48.9999 40.0005L51.5455 46.4548L57.9999 49.0003L51.5455 51.5459L48.9999 58.0002L46.4544 51.5459L40 49.0003L46.4544 46.4548L48.9999 40.0005Z" fill="white"/>
	<path d="M75.9999 40.0005L79.394 48.6062L87.9998 52.0003L79.394 55.3944L75.9999 64.0001L72.6058 55.3944L64 52.0003L72.6058 48.6062L75.9999 40.0005Z" fill="white"/>
	<path d="M60.9999 58L65.2425 68.7572L75.9998 72.9998L65.2425 77.2423L60.9999 87.9995L56.7573 77.2423L46 72.9998L56.7573 68.7572L60.9999 58Z" fill="white"/>
</svg>
