<svg fill="none" height="128" viewBox="0 0 128 128" width="128" xmlns="http://www.w3.org/2000/svg"><rect fill="#2c3338" height="103.619" rx="12.1905" width="103.619" x="12.1904" y="12.1905"/><path d="m42.8145 52.6692c-.0261-.1824-.0391-.3517-.0391-.508 0-.547.1302-1.0549.3907-1.5238.3386-.6251.8466-1.094 1.5238-1.4066l17.9732-6.4078c.3125-.1042.6381-.1563.9768-.1563l.9768.1563 17.9731 6.4078c.6772.3126 1.1852.7815 1.5238 1.4066.2605.4949.3907 1.0029.3907 1.5238 0 .1563-.013.3256-.039.508 0 .026-.0131.1042-.0391.2344-.2084.9377-.4428 1.8885-.7033 2.8523-.2605.9377-.7294 2.5396-1.4066 4.8058-.6773 2.2662-1.5108 4.5063-2.5006 6.7204-.9638 2.2141-2.1099 4.6105-3.4384 7.1893-1.3024 2.5527-2.9043 5.0663-4.8058 7.5409-1.8755 2.4745-3.8812 4.6756-6.0171 6.6031-.521.521-1.1722.7815-1.9536.7815-.7294 0-1.3545-.2605-1.8755-.7815-2.6569-2.3703-5.1184-5.2226-7.3846-8.5567-2.2662-3.3342-4.0635-6.4339-5.3919-9.2992-1.3285-2.8653-2.5006-5.7696-3.5165-8.7131-.9898-2.9694-1.6541-5.1314-1.9927-6.4859-.3126-1.3545-.5209-2.3183-.6251-2.8913zm1.7191.2344c.0521.3386.1563.8596.3126 1.5629.1823.6772.5079 1.8364.9768 3.4774.4689 1.615.9898 3.282 1.5629 5.0012.5991 1.6931 1.3936 3.6598 2.3834 5.8999 1.0159 2.2141 2.0969 4.337 3.243 6.3687 1.1721 2.0318 2.5787 4.1156 4.2197 6.2516 1.6411 2.1359 3.3733 4.0244 5.1966 5.6654.3647.2605.7684.3907 1.2113.3907.4428 0 .8205-.1302 1.1331-.3907 2.5266-2.2662 4.8579-4.9882 6.9938-8.1661 2.162-3.1778 3.8552-6.1082 5.0794-8.7912 1.2503-2.709 2.3574-5.4961 3.3211-8.3614.9638-2.8913 1.589-4.9361 1.8755-6.1343.3126-1.1982.521-2.1229.6251-2.7741.0261-.1302.0391-.2605.0391-.3907.0261-.2866-.0391-.5731-.1953-.8596-.2084-.4168-.521-.7033-.9378-.8596l-17.348-6.2515c-.0781 0-.1823-.013-.3125-.0391-.1303-.026-.2345-.0391-.3126-.0391l-.547.0782-17.348 6.2515c-.4168.1563-.7294.4428-.9377.8596-.1563.2865-.2475.5861-.2735.8986 0 .1303.013.2475.039.3517zm6.5641 1.5629h6.5641l5.939 15.2381 6.0171-15.2381h6.5641c-.1563.3907-.3647.9638-.6252 1.7191-.2604.7294-.5079 1.3936-.7423 1.9927-.2345.5991-.4819 1.1592-.7424 1.6801-.0521.1042-.1433.1824-.2735.2344-.1042.0521-.2344.1042-.3907.1563-.1563.0261-.2735.0521-.3517.0782-.1302.0781-.2474.1693-.3516.2735-.0782.0781-.1563.1953-.2345.3516-.0521.1303-.1042.2345-.1562.3126-.0261.0782-.0782.2214-.1563.4298-.0521.1823-.0912.2996-.1173.3516l-.9377 2.3444c-2.8132 7.1111-4.4802 11.3309-5.0012 12.6593h-4.9231l-2.1099-5.1575c-.2083-.6251-.573-1.5629-1.094-2.8132-.2084-.6251-.573-1.5629-1.094-2.8132l-1.1722-2.8913c-.1042-.2344-.2214-.547-.3516-.9377-.1303-.3908-.2735-.7424-.4298-1.055-.1302-.3125-.3126-.6121-.547-.8986-.1042-.1042-.2214-.1693-.3517-.1954-.1302-.0521-.2735-.0781-.4298-.0781-.1562 0-.2604-.0131-.3125-.0391-.6512-1.5889-1.3806-3.4904-2.1881-5.7045z" fill="#fff"/></svg>