<svg width="32" height="32" viewBox="0 0 32 32" fill="none" xmlns="http://www.w3.org/2000/svg">
<path fill-rule="evenodd" clip-rule="evenodd" d="M16 32C24.8366 32 32 24.8366 32 16C32 7.16344 24.8366 0 16 0C7.16344 0 0 7.16344 0 16C0 24.8366 7.16344 32 16 32ZM17.25 19V21H15.75V19C15.75 18.3096 15.1904 17.75 14.5 17.75H10.5C9.80964 17.75 9.25 18.3096 9.25 19V21H7.75V19C7.75 17.4812 8.98122 16.25 10.5 16.25H14.5C16.0188 16.25 17.25 17.4812 17.25 19ZM24.25 19V21H22.75V19C22.75 18.3096 22.1904 17.75 21.5 17.75H19V16.25H21.5C23.0188 16.25 24.25 17.4812 24.25 19ZM19.5 13.5C20.0523 13.5 20.5 13.0523 20.5 12.5C20.5 11.9477 20.0523 11.5 19.5 11.5C18.9477 11.5 18.5 11.9477 18.5 12.5C18.5 13.0523 18.9477 13.5 19.5 13.5ZM19.5 15C20.8807 15 22 13.8807 22 12.5C22 11.1193 20.8807 10 19.5 10C18.1193 10 17 11.1193 17 12.5C17 13.8807 18.1193 15 19.5 15ZM13.5 12.5C13.5 13.0523 13.0523 13.5 12.5 13.5C11.9477 13.5 11.5 13.0523 11.5 12.5C11.5 11.9477 11.9477 11.5 12.5 11.5C13.0523 11.5 13.5 11.9477 13.5 12.5ZM15 12.5C15 13.8807 13.8807 15 12.5 15C11.1193 15 10 13.8807 10 12.5C10 11.1193 11.1193 10 12.5 10C13.8807 10 15 11.1193 15 12.5Z" fill="#3895BA"/>
</svg>
