<svg fill="none" height="128" viewBox="0 0 128 128" width="128" xmlns="http://www.w3.org/2000/svg"><rect fill="#2c3338" height="104" rx="12.1905" width="103.91" x="12.1904" y="12.1905"/><path clip-rule="evenodd" d="m40.859 46.6905c2.5311 0 4.7549 1.6715 5.448 4.0949l6.8522 23.9611c.0069.0242.0181.0464.0326.0657l8.1178-28.1217h4.5412 12.5534c8.7986 0 14.6967 5.6986 14.6967 14.3257 0 8.726-6.0528 14.1674-15.0835 14.1674h-5.956-7.675l-1.491 4.5945c-1.3372 4.1204-5.1908 6.9124-9.5405 6.9124-4.3498 0-8.2033-2.792-9.5405-6.9124l-8.3455-25.7154c-1.1818-3.6415 1.5459-7.3722 5.3901-7.3722zm26.3015 19.9452h8.6911c3.7708 0 6.0334-2.1568 6.0334-5.6195 0-3.4825-2.2626-5.5403-6.0334-5.5403h-5.0693z" fill="#fff" fill-rule="evenodd"/></svg>