<svg width="32" height="32" viewBox="0 0 32 32" fill="none" xmlns="http://www.w3.org/2000/svg">
<path fill-rule="evenodd" clip-rule="evenodd" d="M32 16C32 24.8366 24.8366 32 16 32C7.16344 32 0 24.8366 0 16C0 7.16344 7.16344 0 16 0C24.8366 0 32 7.16344 32 16ZM15.445 11.0045L19.9864 16L15.445 20.9955L16.555 22.0045L21.555 16.5045L22.0136 16L21.555 15.4955L16.555 9.9955L15.445 11.0045ZM9.44504 11.0045L13.9864 16L9.44505 20.9955L10.555 22.0045L15.555 16.5045L16.0136 16L15.555 15.4955L10.555 9.9955L9.44504 11.0045Z" fill="#3895BA"/>
</svg>
