<svg fill="none" height="128" viewBox="0 0 128 128" width="128" xmlns="http://www.w3.org/2000/svg" xmlns:xlink="http://www.w3.org/1999/xlink"><clipPath id="a"><path d="m36.5713 44.6985h55.1111v42.6667h-55.1111z"/></clipPath><rect fill="#2c3338" height="103.619" rx="12.1905" width="103.619" x="12.1904" y="12.1905"/><g clip-path="url(#a)" fill="#fff"><path d="m67.6245 46.1054 13.3653 35.1208c1.1527 3.005 2.9237 4.0943 5.9517 4.3489.1107.005.2191.0327.3187.0812.0995.0486.188.117.26.2011.0721.0841.1261.1821.1587.2879.0326.1057.0432.2171.0311.3271.0045.1136-.0136.227-.0533.3335-.0397.1066-.1001.2042-.1778.2873-.0777.083-.1711.1499-.2748.1966-.1037.0468-.2157.0725-.3294.0757h-14.6392c-.1184.0029-.236-.0183-.346-.0621s-.2099-.1094-.2938-.1929c-.0839-.0834-.15-.183-.1944-.2927-.0444-.1096-.0661-.2271-.0638-.3454-.0086-.1148.0066-.2301.0447-.3387s.0982-.2082.1767-.2924c.0784-.0843.1735-.1515.2791-.1973.1057-.0458.2197-.0693.3348-.0689 1.4702 0 3.1367-.384 3.1367-2.1745-.013-.7466-.166-1.4842-.4511-2.1744l-3.2076-8.51c-.1295-.3839-.1922-.5133-.5764-.5133h-12.2168c-1.9212 0-4.2894 0-5.3795 2.4332l-2.9237 6.5901c-.2973.5979-.472 1.2493-.5137 1.9157 0 2.3038 3.0114 2.4332 4.5943 2.4332.1152-.0004.2292.0231.3349.0689.1056.0458.2007.113.2791.1973.0784.0842.1386.1838.1767.2924s.0533.2239.0447.3387c.0023.1184-.0195.2361-.0642.3459-.0447.1097-.1113.2092-.1957.2924s-.1849.1483-.2953.1914-.2285.0633-.347.0593h-12.9894c-.1182.0028-.2357-.0183-.3454-.0622-.1098-.0439-.2094-.1095-.293-.1931-.0836-.0835-.1493-.1831-.1932-.2927-.0439-.1097-.0651-.2271-.0622-.3452-.0087-.1147.0065-.2301.0446-.3387s.0983-.2082.1767-.2924c.0785-.0843.1735-.1514.2792-.1972.1056-.0458.2196-.0693.3348-.069 3.1367-.192 4.1767-1.6694 5.3754-4.3489l15.4286-33.7769c.7058-1.4733 2.2428-2.7504 3.6504-2.7504 1.0107.0042 1.3323.5801 1.6498 1.4107zm-11.6947 22.9005c-.0773.1138-.1221.2466-.1295.384 0 .1293.1295.1919.3843.1919h12.6762c.8938 0 1.278-.1919 1.278-.7679-.0012-.289-.0668-.5742-.1921-.8347l-3.5209-9.4699c-.8354-2.1744-2.0466-5.05-2.4309-7.4207 0-.1252-.0668-.1919-.1294-.1919-.0627 0-.1253.0667-.1253.1919-.4808 1.63-1.1027 3.215-1.8587 4.7371z"/><path d="m67.6245 46.1054 13.3653 35.1208c1.1528 3.005 2.9237 4.0943 5.9517 4.3489.1107.005.2191.0327.3187.0812.0995.0486.188.117.26.2011.0721.0841.1261.1821.1587.2879.0327.1057.0432.2171.0311.3271.0045.1136-.0136.227-.0533.3335-.0397.1066-.1001.2042-.1778.2873-.0777.083-.1711.1499-.2748.1966-.1037.0468-.2157.0725-.3294.0757h-14.6392c-.1184.0029-.236-.0183-.346-.0621s-.2099-.1094-.2938-.1929c-.0839-.0834-.15-.183-.1944-.2927-.0444-.1096-.0661-.2271-.0638-.3454-.0086-.1148.0066-.2301.0447-.3387s.0982-.2082.1767-.2924c.0784-.0843.1735-.1515.2791-.1973.1057-.0458.2197-.0693.3348-.0689 1.4702 0 3.1367-.384 3.1367-2.1745-.013-.7466-.166-1.4842-.4511-2.1744l-3.2076-8.51c-.1295-.3839-.1922-.5133-.5764-.5133h-12.2168c-1.9212 0-4.2894 0-5.3795 2.4332l-2.9237 6.5901c-.2973.5979-.472 1.2493-.5137 1.9157 0 2.3038 3.0114 2.4332 4.5943 2.4332.1152-.0004.2292.0231.3349.0689.1056.0458.2007.113.2791.1973.0785.0842.1386.1838.1767.2924s.0533.2239.0447.3387c.0023.1184-.0195.2361-.0642.3459-.0447.1097-.1113.2092-.1957.2924s-.1849.1483-.2953.1914-.2285.0633-.347.0593h-12.9894c-.1182.0028-.2357-.0183-.3454-.0622-.1098-.0439-.2094-.1095-.293-.1931-.0836-.0835-.1493-.1831-.1932-.2927-.0439-.1097-.0651-.2271-.0622-.3452-.0087-.1147.0065-.2301.0446-.3387s.0983-.2082.1767-.2924c.0785-.0843.1735-.1514.2792-.1972.1056-.0458.2196-.0693.3348-.069 3.1367-.192 4.1767-1.6694 5.3754-4.3489l15.4286-33.7769c.7058-1.4733 2.2428-2.7504 3.6504-2.7504 1.0107.0042 1.3323.5801 1.6498 1.4107zm-11.6947 22.9005c-.0773.1138-.1221.2466-.1295.384 0 .1293.1295.192.3843.192h12.6762c.8938 0 1.278-.192 1.278-.768-.0012-.289-.0668-.5742-.1921-.8347l-3.5209-9.4699c-.8354-2.1744-2.0466-5.05-2.4309-7.4206 0-.1253-.0668-.192-.1294-.192-.0627 0-.1253.0667-.1253.192-.4808 1.6299-1.1027 3.2149-1.8587 4.737z"/><path d="m91.6985 67.4985c0 1.6444-.9314 2.5751-2.6146 2.5751s-2.3515-.8556-2.3515-2.1619c0-1.6444.9732-2.5751 2.6146-2.5751 1.6415 0 2.3515.8931 2.3515 2.1619z"/><path d="m41.5408 67.5527c0 1.6403-.9356 2.5752-2.6146 2.5752s-2.3598-.8598-2.3598-2.1661c0-1.6403.9732-2.5751 2.6146-2.5751s2.3598.8973 2.3598 2.166z"/></g></svg>