<svg fill="none" height="128" viewBox="0 0 128 128" width="128" xmlns="http://www.w3.org/2000/svg"><rect fill="#2c3338" height="103.619" rx="12.1905" width="103.619" x="12.1904" y="12.1905"/><path clip-rule="evenodd" d="m76.9684 59.8954c2.9905 0 5.4147-2.4242 5.4147-5.4147 0-2.9904-2.4242-5.4146-5.4147-5.4146-2.9904 0-5.4146 2.4242-5.4146 5.4146 0 2.9905 2.4242 5.4147 5.4146 5.4147zm0 4.2113c5.3163 0 9.6261-4.3097 9.6261-9.626s-4.3098-9.626-9.6261-9.626c-5.3162 0-9.626 4.3097-9.626 9.626s4.3098 9.626 9.626 9.626zm-9.446 23.102v-7.7008c0-5.416-4.3905-9.8065-9.8065-9.8065h-15.4016c-5.416 0-9.8065 4.3905-9.8065 9.8065v7.7008h4.2114v-7.7008c0-3.0901 2.505-5.5952 5.5951-5.5952h15.4016c3.0901 0 5.5951 2.5051 5.5951 5.5952v7.7008zm26.9537-7.7008v7.7008h-4.2114v-7.7008c0-3.0901-2.505-5.5952-5.5951-5.5952h-9.626v-4.2113h9.626c5.416 0 9.8065 4.3905 9.8065 9.8065zm-39.0461-25.0272c0 2.9905-2.4242 5.4147-5.4146 5.4147s-5.4146-2.4242-5.4146-5.4147c0-2.9904 2.4242-5.4146 5.4146-5.4146s5.4146 2.4242 5.4146 5.4146zm4.2114 0c0 5.3163-4.3097 9.626-9.626 9.626s-9.626-4.3097-9.626-9.626 4.3097-9.626 9.626-9.626 9.626 4.3097 9.626 9.626z" fill="#fff" fill-rule="evenodd"/></svg>