<svg fill="none" height="128" viewBox="0 0 128 128" width="128" xmlns="http://www.w3.org/2000/svg"><rect fill="#2c3338" height="103.619" rx="12.1905" width="103.619" x="12.1904" y="12.1905"/><path clip-rule="evenodd" d="m74.5118 44.6985v37.4009l-22.0406-6.4563v11.7218h-4.1325v-12.9323l-7.5067-2.199c-2.9041-.8507-4.8901-3.4384-4.8901-6.3718v-4.9257c0-2.9334 1.986-5.5211 4.8901-6.3718zm-4.1325 32.0163-17.9081-5.2458v-16.1401l17.9081-5.2458zm-22.0406-20.1753v13.7189l-6.3083-1.8479c-1.1616-.3402-1.956-1.3753-1.956-2.5487v-4.9257c0-1.1734.7944-2.2085 1.956-2.5487zm31.6831 8.859h11.02v-3.9947h-11.02zm11.019 11.316-11.02-2.6632v-3.9948l11.02 2.6632zm-11.019-19.9725 11.02-2.6632v-3.9947l-11.02 2.6631z" fill="#fff" fill-rule="evenodd"/></svg>