<svg xmlns="http://www.w3.org/2000/svg" x="0" y="0" viewBox="0 0 64 64">
	<circle cx="32" cy="32" r="32" fill="#069E08"/>
	<g fill="#FFFFFF">
		<path d="M34.2,18.6l8.5,23.5c0.7,2,1.9,2.7,3.8,2.9c0.1,0,0.1,0,0.2,0.1c0.1,0,0.1,0.1,0.2,0.1c0,0.1,0.1,0.1,0.1,0.2
			c0,0.1,0,0.1,0,0.2c0,0.1,0,0.2,0,0.2c0,0.1-0.1,0.1-0.1,0.2c0,0.1-0.1,0.1-0.2,0.1c-0.1,0-0.1,0-0.2,0.1h-9.3c-0.1,0-0.2,0-0.2,0
			c-0.1,0-0.1-0.1-0.2-0.1c-0.1-0.1-0.1-0.1-0.1-0.2c0-0.1,0-0.2,0-0.2c0-0.1,0-0.2,0-0.2c0-0.1,0.1-0.1,0.1-0.2
			c0.1-0.1,0.1-0.1,0.2-0.1c0.1,0,0.1,0,0.2,0c0.9,0,2-0.3,2-1.5c0-0.5-0.1-1-0.3-1.5l-2-5.7c-0.1-0.3-0.1-0.3-0.4-0.3h-7.8
			c-1.2,0-2.7,0-3.4,1.6l-1.9,4.4C23.1,42.6,23,43,23,43.5c0,1.5,1.9,1.6,2.9,1.6c0.1,0,0.1,0,0.2,0c0.1,0,0.1,0.1,0.2,0.1
			c0.1,0.1,0.1,0.1,0.1,0.2c0,0.1,0,0.2,0,0.2c0,0.1,0,0.2,0,0.2c0,0.1-0.1,0.1-0.1,0.2c-0.1,0.1-0.1,0.1-0.2,0.1c-0.1,0-0.1,0-0.2,0
			h-8.3c-0.1,0-0.2,0-0.2,0c-0.1,0-0.1-0.1-0.2-0.1c-0.1-0.1-0.1-0.1-0.1-0.2c0-0.1,0-0.2,0-0.2c0-0.1,0-0.2,0-0.2
			c0-0.1,0.1-0.1,0.1-0.2c0.1-0.1,0.1-0.1,0.2-0.1c0.1,0,0.1,0,0.2,0c2-0.1,2.7-1.1,3.4-2.9l9.8-22.6c0.5-1,1.4-1.8,2.3-1.8
			C33.8,17.7,34,18.1,34.2,18.6z M26.8,34c0,0.1-0.1,0.2-0.1,0.3c0,0.1,0.1,0.1,0.2,0.1H35c0.6,0,0.8-0.1,0.8-0.5
			c0-0.2,0-0.4-0.1-0.6L33.5,27c-0.5-1.5-1.3-3.4-1.6-5c0-0.1,0-0.1-0.1-0.1s-0.1,0-0.1,0.1c-0.3,1.1-0.7,2.2-1.2,3.2L26.8,34z"/>
		<path d="M49.6,33c0,1.1-0.6,1.7-1.7,1.7s-1.5-0.6-1.5-1.4c0-1.1,0.6-1.7,1.7-1.7S49.6,32.1,49.6,33z"/>
		<path d="M17.6,33c0,1.1-0.6,1.7-1.7,1.7c-1.1,0-1.5-0.6-1.5-1.5c0-1.1,0.6-1.7,1.7-1.7C17.1,31.6,17.6,32.2,17.6,33z"/>
	</g>
</svg>
