<svg xmlns="http://www.w3.org/2000/svg" x="0" y="0" viewBox="0 0 64 64">
	<circle cx="32" cy="32" r="32" fill="#069E08"/>
	<path d="M14.5,20.8c0-0.2,0-0.3,0-0.4c0-0.5,0.1-0.9,0.3-1.3c0.3-0.5,0.7-0.9,1.3-1.2l15.1-5.4c0.3-0.1,0.5-0.1,0.8-0.1
		l0.8,0.1l15.1,5.4c0.6,0.3,1,0.7,1.3,1.2c0.2,0.4,0.3,0.8,0.3,1.3c0,0.1,0,0.3,0,0.4c0,0,0,0.1,0,0.2c-0.2,0.8-0.4,1.6-0.6,2.4
		c-0.2,0.8-0.6,2.1-1.2,4c-0.6,1.9-1.3,3.8-2.1,5.6c-0.8,1.9-1.8,3.9-2.9,6c-1.1,2.1-2.4,4.3-4,6.3c-1.6,2.1-3.3,3.9-5.1,5.5
		c-0.4,0.4-1,0.7-1.6,0.7c-0.6,0-1.1-0.2-1.6-0.7c-2.2-2-4.3-4.4-6.2-7.2c-1.9-2.8-3.4-5.4-4.5-7.8s-2.1-4.8-3-7.3
		c-0.8-2.5-1.4-4.3-1.7-5.4C14.8,22.1,14.6,21.3,14.5,20.8z M16,21c0,0.3,0.1,0.7,0.3,1.3c0.2,0.6,0.4,1.5,0.8,2.9
		c0.4,1.4,0.8,2.8,1.3,4.2c0.5,1.4,1.2,3.1,2,5c0.9,1.9,1.8,3.6,2.7,5.3c1,1.7,2.2,3.5,3.5,5.3c1.4,1.8,2.8,3.4,4.4,4.8
		c0.3,0.2,0.6,0.3,1,0.3c0.4,0,0.7-0.1,1-0.3c2.1-1.9,4.1-4.2,5.9-6.9c1.8-2.7,3.2-5.1,4.3-7.4c1.1-2.3,2-4.6,2.8-7
		c0.8-2.4,1.3-4.1,1.6-5.2c0.3-1,0.4-1.8,0.5-2.3c0-0.1,0-0.2,0-0.3c0-0.2,0-0.5-0.2-0.7c-0.2-0.4-0.4-0.6-0.8-0.7l-14.6-5.3
		c-0.1,0-0.2,0-0.3,0c-0.1,0-0.2,0-0.3,0l-0.5,0.1l-14.6,5.3c-0.4,0.1-0.6,0.4-0.8,0.7c-0.1,0.2-0.2,0.5-0.2,0.8
		C15.9,20.8,15.9,20.9,16,21z M21.5,22.3H27l5,12.8L37,22.3h5.5c-0.1,0.3-0.3,0.8-0.5,1.4c-0.2,0.6-0.4,1.2-0.6,1.7
		c-0.2,0.5-0.4,1-0.6,1.4c0,0.1-0.1,0.2-0.2,0.2c-0.1,0-0.2,0.1-0.3,0.1c-0.1,0-0.2,0-0.3,0.1c-0.1,0.1-0.2,0.1-0.3,0.2
		c-0.1,0.1-0.1,0.2-0.2,0.3c0,0.1-0.1,0.2-0.1,0.3c0,0.1-0.1,0.2-0.1,0.4c0,0.2-0.1,0.3-0.1,0.3l-0.8,2c-2.4,6-3.8,9.5-4.2,10.6h-4.1
		l-1.8-4.3c-0.2-0.5-0.5-1.3-0.9-2.4c-0.2-0.5-0.5-1.3-0.9-2.4l-1-2.4c-0.1-0.2-0.2-0.5-0.3-0.8c-0.1-0.3-0.2-0.6-0.4-0.9
		c-0.1-0.3-0.3-0.5-0.5-0.8c-0.1-0.1-0.2-0.1-0.3-0.2c-0.1,0-0.2-0.1-0.4-0.1c-0.1,0-0.2,0-0.3,0C22.8,25.7,22.1,24.1,21.5,22.3z" fill="#FFFFFF"/>
</svg>
