<svg height="600" viewBox="0 0 600 600" width="600" xmlns="http://www.w3.org/2000/svg"><g fill="none" fill-rule="evenodd"><path d="m0 0h600v600h-600z" fill="#fff"/><g fill="#464342" fill-rule="nonzero" transform="translate(33 8)"><path d="m38.0714286 118.459184s55.3163265 276.316326 229.4897954 429.265306c4.244898-3.714286 8.357143-7.561225 12.469388-11.540817.530612-.530612 1.061225-.928571 1.591837-1.459183s1.061224-.928572 1.459184-1.459184c1.459183-1.459184 3.05102-3.05102 4.510204-4.510204l1.459183-1.459184c.530613-.530612.928572-.928571 1.459184-1.459183 4.112245-4.112245 8.22449-8.357143 12.204082-12.602041.530612-.530612.928571-1.061225 1.459183-1.459184.530613-.397959.928572-1.061224 1.459184-1.459183l4.244898-4.510205c.397959-.530612.928571-1.061224 1.459184-1.459183.530612-.397959.928571-.928572 1.459183-1.459184 3.846939-4.244898 7.428572-8.622449 11.142858-13 .397959-.530612.928571-1.061224 1.32653-1.459184.397959-.530612.928572-1.061224 1.326531-1.459183 1.32653-1.459184 2.520408-3.183674 3.846939-4.642857.397959-.530613.795918-1.061225 1.193877-1.459184l1.193878-1.459184c3.448979-4.377551 7.030612-8.887755 10.346938-13.397959.39796-.530612.795919-1.061224 1.193878-1.459184.397959-.397959.795918-1.061224 1.193877-1.591836 1.193878-1.459184 2.387756-3.183674 3.581633-4.775511l1.193878-1.591836c.397959-.530613.795918-1.061225 1.193877-1.591837 3.316327-4.510204 6.367347-9.153061 9.551021-13.663265.397959-.530613.795918-1.061225 1.061224-1.591837.397959-.530612.795919-1.061225 1.061225-1.591837l3.316326-4.908163c.397959-.530612.663265-1.061225 1.061225-1.591837l1.061224-1.591837c3.051021-4.510204 6.102041-9.153061 8.887755-13.795918l1.061225-1.72449c.397959-.530612.663265-1.061224 1.061224-1.591836 1.061225-1.591837 1.989796-3.316327 3.051021-4.908164.265306-.530612.663265-1.193877 1.061224-1.724489.265306-.530613.663265-1.061225 1.061225-1.591837 2.785714-4.642857 5.571428-9.418368 8.224489-14.061225.39796-.530612.663266-1.193877.928572-1.724489l.928571-1.72449c.928572-1.72449 1.989796-3.316327 2.918368-5.040817.265306-.530612.530612-1.061224.928571-1.591836.265306-.530613.530612-1.061225.928571-1.72449 2.653062-4.77551 5.17347-9.551021 7.693878-14.326531l.928571-1.72449c.265307-.530612.530613-1.061224.928572-1.724489.928571-1.72449 1.72449-3.44898 2.653061-5.17347.265306-.530612.530612-1.193877.928572-1.72449.265306-.530612.530612-1.061224.928571-1.724489 2.520408-4.775511 4.77551-9.683674 7.163265-14.459184.265306-.530612.530613-1.193878.795919-1.72449s.530612-1.193877.795918-1.72449c.795918-1.724489 1.72449-3.448979 2.520408-5.173469.265306-.530612.530612-1.193878.795919-1.72449.265306-.530612.530612-1.193877.795918-1.72449 2.255102-4.908163 4.510204-9.816326 6.765306-14.591836.265306-.530613.530612-1.193878.795918-1.72449.265307-.530612.530613-1.193878.795919-1.72449.795918-1.72449 1.459183-3.448979 2.255102-5.306122.265306-.530613.530612-1.193878.795918-1.72449s.530612-1.193878.795919-1.72449c2.122449-5.040816 4.244897-9.94898 6.234693-14.857143.265307-.530612.530613-1.193877.795919-1.72449.265306-.530612.530612-1.193877.663265-1.724489l2.122449-5.306123c.265306-.530612.397959-1.193877.663265-1.72449.265306-.530612.39796-1.193877.663266-1.724489 1.989796-5.040817 3.979592-10.081633 5.836734-14.989796.132653-.530613.39796-1.193878.663266-1.72449s.397959-1.193878.663265-1.72449c.663265-1.72449 1.326531-3.581633 1.989796-5.306122l.663265-1.72449c.265306-.530612.397959-1.193878.663266-1.72449 1.857142-5.173469 3.714285-10.214286 5.438775-15.122449.265306-.663265.397959-1.193878.530612-1.857143.265306-.663265.397959-1.193877.663266-1.72449.663265-1.857142 1.193877-3.581632 1.857142-5.438775.265307-.530612.39796-1.193878.663266-1.857143l.663265-1.857143c1.72449-5.173469 3.44898-10.346939 5.040816-15.255102l.530613-1.857143c.265306-.663265.397959-1.193877.530612-1.857143.530612-1.857142 1.193877-3.714285 1.72449-5.438775.132653-.530612.397959-1.193878.530612-1.857143.132653-.530612.397959-1.193878.530612-1.857143 1.591837-5.438775 3.183674-10.479592 4.510204-15.387755.132653-.663265.397959-1.193877.530612-1.857143.132654-.663265.265307-1.193877.530613-1.857143.530612-1.857142 1.061224-3.714285 1.459183-5.571428.132653-.663266.265307-1.193878.530613-1.857143.132653-.663265.265306-1.193878.530612-1.857143 1.459184-5.704082 2.918367-10.877551 4.112245-15.520408.132653-.663265.265306-1.193878.530612-1.857143.132653-.663265.265306-1.193877.530612-1.857143.530613-1.989796.928572-3.846939 1.326531-5.571428l.530612-1.857143c.132653-.530612.397959-1.326531.397959-1.857143 1.989796-8.091837 2.785715-12.602041 2.785715-12.602041l-229.489796-80.7857142zm239.1734694 404.591836c-.530612.530613-1.061225.928572-1.459184 1.459184-1.459183 1.459184-3.05102 2.918367-4.642857 4.377551l-1.591837 1.459184c-.530612.530612-1.061224.928571-1.459183 1.459183l-.397959-.132653v-14.061224l11.27551 3.979592zm22.418367-23.081632c-.530612.530612-.928571.928571-1.459183 1.459183-1.459184 1.459184-2.918368 3.051021-4.244898 4.510205-.39796.530612-.928572 1.061224-1.326531 1.459183l-1.459184 1.459184-23.744898-8.357143v-14.061224l33.561225 11.806122c-.397959.663265-.795918 1.193878-1.326531 1.72449zm20.428572-24.010204-1.326531 1.459183c-1.32653 1.459184-2.520408 3.183674-3.846939 4.642857-.397959.530613-.795918 1.061225-1.32653 1.459184-.397959.397959-.795919 1.061225-1.326531 1.459184l-44.969388-15.785714v-13.928572l53.857143 18.969388c-.132653.795918-.663265 1.193877-1.061224 1.72449zm155.469387-318.367347c-.132653.663265-.397959 1.193877-.530612 1.857143-.530612 1.724489-1.061224 3.581632-1.459183 5.571428-.132653.530612-.39796 1.193878-.530613 1.857143s-.265306 1.193878-.530612 1.857143l-44.836735-15.785714-5.836734 14.857142 46.030612 16.183674-.530612 1.857143c-.132653.663265-.397959 1.193877-.530613 1.857143-.530612 1.857142-1.061224 3.581632-1.724489 5.438775-.132653.530612-.39796 1.193878-.530613 1.857143-.132653.530612-.397959 1.193878-.663265 1.857143l-46.959184-16.581633-5.969387 14.857143 47.887755 16.846939c-.132653.530612-.397959 1.193877-.663266 1.857143-.265306.663265-.397959 1.193877-.530612 1.857143-.663265 1.724489-1.193877 3.581632-1.857143 5.306122-.132653.530612-.397959 1.193878-.663265 1.857143l-.663265 1.857143-48.551021-17.244898-5.969387 14.857143 49.081632 17.244898c-.265306.663265-.397959 1.193877-.663265 1.857142-.132653.663266-.397959 1.193878-.663265 1.72449-.663266 1.72449-1.326531 3.581633-1.989796 5.306123-.265306.663265-.397959 1.193877-.663266 1.724489l-.663265 1.857143-62.214286-21.887755c-1.061224 1.591837-2.122449 3.316327-2.918367 5.040817l-.928571 2.255102-2.918368 7.295918 63.142857 22.285714c-.265306.530612-.530612 1.193878-.663265 1.72449-.265306.530612-.397959 1.193878-.663265 1.72449-.663266 1.72449-1.459184 3.448979-2.122449 5.306122-.265306.530613-.530612 1.193878-.795919 1.72449l-.663265 1.72449-63.142857-22.153061-6.102041 14.857143 62.877551 22.153061c-.265306.530612-.530612 1.193877-.795918 1.72449-.265306.530612-.530612 1.193877-.795919 1.724489-.795918 1.72449-1.459183 3.44898-2.255102 5.306123-.265306.530612-.530612 1.193877-.795918 1.72449-.265306.530612-.530612 1.193877-.795918 1.724489l-62.479592-22.020408-6.102041 14.857143 61.816327 21.755102c-.265307.530612-.530613 1.193878-.795919 1.72449s-.530612 1.193877-.795918 1.72449c-.795919 1.724489-1.591837 3.448979-2.520408 5.173469-.265306.530612-.530613 1.193878-.795919 1.72449s-.530612 1.193877-.795918 1.72449l-61.153061-21.489796-6.102041 14.857143 60.091837 21.091836-.928572 1.72449-.928571 1.72449c-.795919 1.72449-1.72449 3.44898-2.653061 5.173469-.265307.530613-.530613 1.193878-.928572 1.72449s-.530612 1.061225-.928571 1.72449l-58.765306-20.693878-6.102041 14.857143 57.040816 20.030612c-.265306.530613-.663265 1.061225-.928571 1.72449-.265306.530613-.663266 1.061225-.928572 1.72449-.928571 1.72449-1.857143 3.316327-2.918367 5.040816-.265306.530613-.663265 1.061225-.928572 1.72449-.397959.530612-.663265 1.061225-.928571 1.591837l-55.44898-19.5-6.10204 14.857143 53.193877 18.704081c-.265306.530613-.663265 1.061225-1.061224 1.591837l-1.061225 1.72449c-1.061224 1.591837-1.989796 3.316326-3.05102 4.908163-.397959.530612-.663266 1.061225-1.061225 1.591837s-.663265 1.061224-1.061224 1.72449l-51.071429-18.040817-6.102041 14.857143 48.285715 17.112245-1.061225 1.591837c-.397959.530612-.795918 1.061224-1.061224 1.591837-1.061225 1.591836-2.255102 3.183673-3.316327 4.908163l-1.061224 1.591837c-.397959.530612-.795919 1.061224-1.061225 1.591836l-45.5-16.183673-5.173469 12.734694h-6.765306l48.020408 16.846939-1.193878 1.591836-1.193877 1.591837-3.581633 4.77551c-.397959.530612-.795918 1.061225-1.193877 1.459184l-1.193878 1.591837-64.336735-22.683674v-5.306122h-31.571428l-78.928572-195.265306-.928571-2.255102c0-.132654-5.040816-12.734694-15.387755-12.734694h-5.17347l-28.520408-71.632653h84.632653l76.27551 191.418367 9.816327-24.673469-9.816327-3.44898v-14.061225l14.72449 5.17347 5.969388-14.857143-20.693878-7.295918v-14.061225l25.602041 9.020408 5.836735-14.857143-31.571429-11.142857v-14.061224l36.479592 12.867347 5.969388-14.857143-42.44898-14.857143v-14.061224l47.357143 16.581632 5.969388-14.857143-53.193878-18.704081v-14.061225l58.234694 20.428572 5.969388-14.857143-64.204082-22.551021v-14.459183l69.112245 24.27551 5.969388-14.857143-74.948979-26.397959v-14.061225l106.122449 37.275511h48.020408l-154.408164-54.3877555v-14.0612245l208.530613 73.357143c-.132653.663265-.265306 1.32653-.39796 1.857143zm7.428572-28.520408c-.132653.663265-.265306 1.193877-.397959 1.857142-.397959 1.72449-.928572 3.581633-1.326531 5.571429-.132653.530612-.265306 1.193878-.530612 1.857143-.132653.663265-.397959 1.32653-.530612 1.857143l-212.642858-74.8163268v-14.0612245l215.826531 75.8775513c-.265306.663265-.397959 1.32653-.397959 1.857143z"/><path d="m509.255102 83.7040816-229.489796-80.78571425c-7.959184-2.78571429-16.581633-2.78571429-24.408163 0l-229.4897961 80.78571425c-17.24489792 6.1020408-27.32653057 24.0102044-23.87755098 41.9183674 2.3877551 11.806122 59.82653058 290.377551 241.29591808 449.693878 13.928572 12.204081 34.755102 12.204081 48.551021 0 181.469387-159.316327 238.908163-437.887756 241.295918-449.693878 3.581633-17.908163-6.632653-35.8163266-23.877551-41.9183674zm10.612245 39.3979594c-2.387755 11.540816-58.897959 285.867347-237.05102 442.265306-8.887756 7.561224-21.887756 7.561224-30.908164 0-177.8877548-156.397959-234.530612-430.72449-236.785714-442.265306-2.2551021-11.408163 4.2448979-22.816327 15.255102-26.6632655l229.489796-80.7857143c5.040816-1.7244898 10.479592-1.7244898 15.520408 0l229.489796 80.7857143c10.877551 3.8469385 17.377551 15.1224485 14.989796 26.6632655z"/></g><g transform="translate(299 297)"><circle cx="157.5" cy="157.5" fill="#fff" r="157.5"/><path d="m157.5 20c-75.8349237 0-137.5 61.6650763-137.5 137.5 0 75.834924 61.6650763 137.5 137.5 137.5 75.834924 0 137.5-61.665076 137.5-137.5 0-75.8349237-61.665076-137.5-137.5-137.5zm-6.778169 160.739437h-68.75l68.75-133.6267609zm13.556338 87.147887v-133.626761h68.75z" fill="#00be28" fill-rule="nonzero"/></g></g></svg>