<svg xmlns="http://www.w3.org/2000/svg" xmlns:xlink="http://www.w3.org/1999/xlink" width="600" height="600" version="1.1" viewBox="0 0 600 600" style="background:#fff"><title>Square Avatar 02</title><desc>Created with Sketch.</desc><g id="Square-Avatar-02" fill="none" fill-rule="evenodd" stroke="none" stroke-width="1"><rect id="bg" width="600" height="600" x="0" y="0" fill="#FFF"/><g id="vp-+-jp" transform="translate(33.000000, 8.000000)"><g id="shield-medium-02-01" fill="#464342" fill-rule="nonzero"><path id="Shape" d="M38.0714286,118.459184 C38.0714286,118.459184 93.3877551,394.77551 267.561224,547.72449 C271.806122,544.010204 275.918367,540.163265 280.030612,536.183673 C280.561224,535.653061 281.091837,535.255102 281.622449,534.72449 C282.153061,534.193878 282.683673,533.795918 283.081633,533.265306 C284.540816,531.806122 286.132653,530.214286 287.591837,528.755102 L289.05102,527.295918 C289.581633,526.765306 289.979592,526.367347 290.510204,525.836735 C294.622449,521.72449 298.734694,517.479592 302.714286,513.234694 C303.244898,512.704082 303.642857,512.173469 304.173469,511.77551 C304.704082,511.377551 305.102041,510.714286 305.632653,510.316327 L309.877551,505.806122 C310.27551,505.27551 310.806122,504.744898 311.336735,504.346939 C311.867347,503.94898 312.265306,503.418367 312.795918,502.887755 C316.642857,498.642857 320.22449,494.265306 323.938776,489.887755 C324.336735,489.357143 324.867347,488.826531 325.265306,488.428571 C325.663265,487.897959 326.193878,487.367347 326.591837,486.969388 C327.918367,485.510204 329.112245,483.785714 330.438776,482.326531 C330.836735,481.795918 331.234694,481.265306 331.632653,480.867347 L332.826531,479.408163 C336.27551,475.030612 339.857143,470.520408 343.173469,466.010204 C343.571429,465.479592 343.969388,464.94898 344.367347,464.55102 C344.765306,464.153061 345.163265,463.489796 345.561224,462.959184 C346.755102,461.5 347.94898,459.77551 349.142857,458.183673 L350.336735,456.591837 C350.734694,456.061224 351.132653,455.530612 351.530612,455 C354.846939,450.489796 357.897959,445.846939 361.081633,441.336735 C361.479592,440.806122 361.877551,440.27551 362.142857,439.744898 C362.540816,439.214286 362.938776,438.683673 363.204082,438.153061 L366.520408,433.244898 C366.918367,432.714286 367.183673,432.183673 367.581633,431.653061 L368.642857,430.061224 C371.693878,425.55102 374.744898,420.908163 377.530612,416.265306 L378.591837,414.540816 C378.989796,414.010204 379.255102,413.479592 379.653061,412.94898 C380.714286,411.357143 381.642857,409.632653 382.704082,408.040816 C382.969388,407.510204 383.367347,406.846939 383.765306,406.316327 C384.030612,405.785714 384.428571,405.255102 384.826531,404.72449 C387.612245,400.081633 390.397959,395.306122 393.05102,390.663265 C393.44898,390.132653 393.714286,389.469388 393.979592,388.938776 L394.908163,387.214286 C395.836735,385.489796 396.897959,383.897959 397.826531,382.173469 C398.091837,381.642857 398.357143,381.112245 398.755102,380.581633 C399.020408,380.05102 399.285714,379.520408 399.683673,378.857143 C402.336735,374.081633 404.857143,369.306122 407.377551,364.530612 L408.306122,362.806122 C408.571429,362.27551 408.836735,361.744898 409.234694,361.081633 C410.163265,359.357143 410.959184,357.632653 411.887755,355.908163 C412.153061,355.377551 412.418367,354.714286 412.816327,354.183673 C413.081633,353.653061 413.346939,353.122449 413.744898,352.459184 C416.265306,347.683673 418.520408,342.77551 420.908163,338 C421.173469,337.469388 421.438776,336.806122 421.704082,336.27551 C421.969388,335.744898 422.234694,335.081633 422.5,334.55102 C423.295918,332.826531 424.22449,331.102041 425.020408,329.377551 C425.285714,328.846939 425.55102,328.183673 425.816327,327.653061 C426.081633,327.122449 426.346939,326.459184 426.612245,325.928571 C428.867347,321.020408 431.122449,316.112245 433.377551,311.336735 C433.642857,310.806122 433.908163,310.142857 434.173469,309.612245 C434.438776,309.081633 434.704082,308.418367 434.969388,307.887755 C435.765306,306.163265 436.428571,304.438776 437.22449,302.581633 C437.489796,302.05102 437.755102,301.387755 438.020408,300.857143 C438.285714,300.326531 438.55102,299.663265 438.816327,299.132653 C440.938776,294.091837 443.061224,289.183673 445.05102,284.27551 C445.316327,283.744898 445.581633,283.081633 445.846939,282.55102 C446.112245,282.020408 446.377551,281.357143 446.510204,280.826531 L448.632653,275.520408 C448.897959,274.989796 449.030612,274.326531 449.295918,273.795918 C449.561224,273.265306 449.693878,272.602041 449.959184,272.071429 C451.94898,267.030612 453.938776,261.989796 455.795918,257.081633 C455.928571,256.55102 456.193878,255.887755 456.459184,255.357143 C456.72449,254.826531 456.857143,254.163265 457.122449,253.632653 C457.785714,251.908163 458.44898,250.05102 459.112245,248.326531 L459.77551,246.602041 C460.040816,246.071429 460.173469,245.408163 460.438776,244.877551 C462.295918,239.704082 464.153061,234.663265 465.877551,229.755102 C466.142857,229.091837 466.27551,228.561224 466.408163,227.897959 C466.673469,227.234694 466.806122,226.704082 467.071429,226.173469 C467.734694,224.316327 468.265306,222.591837 468.928571,220.734694 C469.193878,220.204082 469.326531,219.540816 469.591837,218.877551 L470.255102,217.020408 C471.979592,211.846939 473.704082,206.673469 475.295918,201.765306 L475.826531,199.908163 C476.091837,199.244898 476.22449,198.714286 476.357143,198.05102 C476.887755,196.193878 477.55102,194.336735 478.081633,192.612245 C478.214286,192.081633 478.479592,191.418367 478.612245,190.755102 C478.744898,190.22449 479.010204,189.561224 479.142857,188.897959 C480.734694,183.459184 482.326531,178.418367 483.653061,173.510204 C483.785714,172.846939 484.05102,172.316327 484.183673,171.653061 C484.316327,170.989796 484.44898,170.459184 484.714286,169.795918 C485.244898,167.938776 485.77551,166.081633 486.173469,164.22449 C486.306122,163.561224 486.438776,163.030612 486.704082,162.367347 C486.836735,161.704082 486.969388,161.173469 487.234694,160.510204 C488.693878,154.806122 490.153061,149.632653 491.346939,144.989796 C491.479592,144.326531 491.612245,143.795918 491.877551,143.132653 C492.010204,142.469388 492.142857,141.938776 492.408163,141.27551 C492.938776,139.285714 493.336735,137.428571 493.734694,135.704082 L494.265306,133.846939 C494.397959,133.316327 494.663265,132.520408 494.663265,131.989796 C496.653061,123.897959 497.44898,119.387755 497.44898,119.387755 L267.959184,38.6020408 L38.0714286,118.459184 Z M277.244898,523.05102 C276.714286,523.581633 276.183673,523.979592 275.785714,524.510204 C274.326531,525.969388 272.734694,527.428571 271.142857,528.887755 L269.55102,530.346939 C269.020408,530.877551 268.489796,531.27551 268.091837,531.806122 L267.693878,531.673469 L267.693878,517.612245 L278.969388,521.591837 L277.244898,523.05102 Z M299.663265,499.969388 C299.132653,500.5 298.734694,500.897959 298.204082,501.428571 C296.744898,502.887755 295.285714,504.479592 293.959184,505.938776 C293.561224,506.469388 293.030612,507 292.632653,507.397959 L291.173469,508.857143 L267.428571,500.5 L267.428571,486.438776 L300.989796,498.244898 C300.591837,498.908163 300.193878,499.438776 299.663265,499.969388 Z M320.091837,475.959184 L318.765306,477.418367 C317.438776,478.877551 316.244898,480.602041 314.918367,482.061224 C314.520408,482.591837 314.122449,483.122449 313.591837,483.520408 C313.193878,483.918367 312.795918,484.581633 312.265306,484.979592 L267.295918,469.193878 L267.295918,455.265306 L321.153061,474.234694 C321.020408,475.030612 320.489796,475.428571 320.091837,475.959184 Z M475.561224,157.591837 C475.428571,158.255102 475.163265,158.785714 475.030612,159.44898 C474.5,161.173469 473.969388,163.030612 473.571429,165.020408 C473.438776,165.55102 473.173469,166.214286 473.040816,166.877551 C472.908163,167.540816 472.77551,168.071429 472.510204,168.734694 L427.673469,152.94898 L421.836735,167.806122 L467.867347,183.989796 L467.336735,185.846939 C467.204082,186.510204 466.938776,187.040816 466.806122,187.704082 C466.27551,189.561224 465.744898,191.285714 465.081633,193.142857 C464.94898,193.673469 464.683673,194.336735 464.55102,195 C464.418367,195.530612 464.153061,196.193878 463.887755,196.857143 L416.928571,180.27551 L410.959184,195.132653 L458.846939,211.979592 C458.714286,212.510204 458.44898,213.173469 458.183673,213.836735 C457.918367,214.5 457.785714,215.030612 457.653061,215.693878 C456.989796,217.418367 456.459184,219.27551 455.795918,221 C455.663265,221.530612 455.397959,222.193878 455.132653,222.857143 L454.469388,224.714286 L405.918367,207.469388 L399.94898,222.326531 L449.030612,239.571429 C448.765306,240.234694 448.632653,240.765306 448.367347,241.428571 C448.234694,242.091837 447.969388,242.622449 447.704082,243.153061 C447.040816,244.877551 446.377551,246.734694 445.714286,248.459184 C445.44898,249.122449 445.316327,249.653061 445.05102,250.183673 L444.387755,252.040816 L382.173469,230.153061 C381.112245,231.744898 380.05102,233.469388 379.255102,235.193878 L378.326531,237.44898 L375.408163,244.744898 L438.55102,267.030612 C438.285714,267.561224 438.020408,268.22449 437.887755,268.755102 C437.622449,269.285714 437.489796,269.94898 437.22449,270.479592 C436.561224,272.204082 435.765306,273.928571 435.102041,275.785714 C434.836735,276.316327 434.571429,276.979592 434.306122,277.510204 L433.642857,279.234694 L370.5,257.081633 L364.397959,271.938776 L427.27551,294.091837 C427.010204,294.622449 426.744898,295.285714 426.479592,295.816327 C426.214286,296.346939 425.94898,297.010204 425.683673,297.540816 C424.887755,299.265306 424.22449,300.989796 423.428571,302.846939 C423.163265,303.377551 422.897959,304.040816 422.632653,304.571429 C422.367347,305.102041 422.102041,305.765306 421.836735,306.295918 L359.357143,284.27551 L353.255102,299.132653 L415.071429,320.887755 C414.806122,321.418367 414.540816,322.081633 414.27551,322.612245 C414.010204,323.142857 413.744898,323.806122 413.479592,324.336735 C412.683673,326.061224 411.887755,327.785714 410.959184,329.510204 C410.693878,330.040816 410.428571,330.704082 410.163265,331.234694 C409.897959,331.765306 409.632653,332.428571 409.367347,332.959184 L348.214286,311.469388 L342.112245,326.326531 L402.204082,347.418367 L401.27551,349.142857 L400.346939,350.867347 C399.55102,352.591837 398.622449,354.316327 397.693878,356.040816 C397.428571,356.571429 397.163265,357.234694 396.765306,357.765306 C396.367347,358.295918 396.234694,358.826531 395.836735,359.489796 L337.071429,338.795918 L330.969388,353.653061 L388.010204,373.683673 C387.744898,374.214286 387.346939,374.744898 387.081633,375.408163 C386.816327,375.938776 386.418367,376.469388 386.153061,377.132653 C385.22449,378.857143 384.295918,380.44898 383.234694,382.173469 C382.969388,382.704082 382.571429,383.234694 382.306122,383.897959 C381.908163,384.428571 381.642857,384.959184 381.377551,385.489796 L325.928571,365.989796 L319.826531,380.846939 L373.020408,399.55102 C372.755102,400.081633 372.357143,400.612245 371.959184,401.142857 L370.897959,402.867347 C369.836735,404.459184 368.908163,406.183673 367.846939,407.77551 C367.44898,408.306122 367.183673,408.836735 366.785714,409.367347 C366.387755,409.897959 366.122449,410.428571 365.72449,411.091837 L314.653061,393.05102 L308.55102,407.908163 L356.836735,425.020408 L355.77551,426.612245 C355.377551,427.142857 354.979592,427.673469 354.714286,428.204082 C353.653061,429.795918 352.459184,431.387755 351.397959,433.112245 L350.336735,434.704082 C349.938776,435.234694 349.540816,435.765306 349.27551,436.295918 L303.77551,420.112245 L298.602041,432.846939 L291.836735,432.846939 L339.857143,449.693878 L338.663265,451.285714 L337.469388,452.877551 L333.887755,457.653061 C333.489796,458.183673 333.091837,458.714286 332.693878,459.112245 L331.5,460.704082 L267.163265,438.020408 L267.163265,432.714286 L235.591837,432.714286 L156.663265,237.44898 L155.734694,235.193878 C155.734694,235.061224 150.693878,222.459184 140.346939,222.459184 L135.173469,222.459184 L106.653061,150.826531 L191.285714,150.826531 L267.561224,342.244898 L277.377551,317.571429 L267.561224,314.122449 L267.561224,300.061224 L282.285714,305.234694 L288.255102,290.377551 L267.561224,283.081633 L267.561224,269.020408 L293.163265,278.040816 L299,263.183673 L267.428571,252.040816 L267.428571,237.979592 L303.908163,250.846939 L309.877551,235.989796 L267.428571,221.132653 L267.428571,207.071429 L314.785714,223.653061 L320.755102,208.795918 L267.561224,190.091837 L267.561224,176.030612 L325.795918,196.459184 L331.765306,181.602041 L267.561224,159.05102 L267.561224,144.591837 L336.673469,168.867347 L342.642857,154.010204 L267.693878,127.612245 L267.693878,113.55102 L373.816327,150.826531 L421.836735,150.826531 L267.428571,96.4387755 L267.428571,82.377551 L475.959184,155.734694 C475.826531,156.397959 475.693878,157.061224 475.561224,157.591837 Z M482.989796,129.071429 C482.857143,129.734694 482.72449,130.265306 482.591837,130.928571 C482.193878,132.653061 481.663265,134.510204 481.265306,136.5 C481.132653,137.030612 481,137.693878 480.734694,138.357143 C480.602041,139.020408 480.336735,139.683673 480.204082,140.214286 L267.561224,65.3979592 L267.561224,51.3367347 L483.387755,127.214286 C483.122449,127.877551 482.989796,128.540816 482.989796,129.071429 Z"/><path id="Shape" d="M509.255102,83.7040816 L279.765306,2.91836735 C271.806122,0.132653061 263.183673,0.132653061 255.357143,2.91836735 L25.8673469,83.7040816 C8.62244898,89.8061224 -1.45918367,107.714286 1.98979592,125.622449 C4.37755102,137.428571 61.8163265,416 243.285714,575.316327 C257.214286,587.520408 278.040816,587.520408 291.836735,575.316327 C473.306122,416 530.744898,137.428571 533.132653,125.622449 C536.714286,107.714286 526.5,89.8061224 509.255102,83.7040816 Z M519.867347,123.102041 C517.479592,134.642857 460.969388,408.969388 282.816327,565.367347 C273.928571,572.928571 260.928571,572.928571 251.908163,565.367347 C74.0204082,408.969388 17.377551,134.642857 15.122449,123.102041 C12.8673469,111.693878 19.3673469,100.285714 30.377551,96.4387755 L259.867347,15.6530612 C264.908163,13.9285714 270.346939,13.9285714 275.387755,15.6530612 L504.877551,96.4387755 C515.755102,100.285714 522.255102,111.561224 519.867347,123.102041 Z"/></g><g id="jp-logomark" transform="translate(266.000000, 289.000000)"><circle id="Oval" cx="157.5" cy="157.5" r="157.5" fill="#FFF"/><path id="Shape" fill="#00BE28" fill-rule="nonzero" d="M157.5,20 C81.6650763,20 20,81.6650763 20,157.5 C20,233.334924 81.6650763,295 157.5,295 C233.334924,295 295,233.334924 295,157.5 C295,81.6650763 233.334924,20 157.5,20 Z M150.721831,180.739437 L81.971831,180.739437 L150.721831,47.1126761 L150.721831,180.739437 Z M164.278169,267.887324 L164.278169,134.260563 L233.028169,134.260563 L164.278169,267.887324 Z"/></g></g></g></svg>