<svg width="32" height="32" fill="none" xmlns="http://www.w3.org/2000/svg"><mask id="a" maskUnits="userSpaceOnUse" x="0" y="5" width="32" height="22"><path fill-rule="evenodd" clip-rule="evenodd" d="M16 5.333c4.853 0 8.893 3.453 9.8 8.053 3.467.24 6.2 3.094 6.2 6.614a6.67 6.67 0 01-6.667 6.666H8c-4.413 0-8-3.586-8-8 0-4.12 3.12-7.52 7.133-7.946A9.994 9.994 0 0116 5.333zM8.667 18l4.666 4.666 8.787-8.786L20.24 12l-6.907 6.906-2.786-2.786L8.667 18z" fill="#fff"></path></mask><g mask="url(#a)"><path fill="#069E08" d="M0 0h32v32H0z"></path></g></svg>