<svg fill="none" xmlns="http://www.w3.org/2000/svg" viewBox="0 0 470 228"><path d="M240.444 182h-24.888a3.555 3.555 0 0 0-3.556 3.556v24.888a3.555 3.555 0 0 0 3.556 3.556h24.888a3.555 3.555 0 0 0 3.556-3.556v-24.888a3.555 3.555 0 0 0-3.556-3.556Zm-4.504 11.929c.007.176.012.352.012.53 0 5.413-4.121 11.655-11.655 11.655-2.313 0-4.466-.678-6.279-1.84.32.037.647.057.978.057a8.23 8.23 0 0 0 5.088-1.753 4.102 4.102 0 0 1-3.826-2.845 4.07 4.07 0 0 0 1.849-.071 4.1 4.1 0 0 1-3.286-4.016v-.051a4.09 4.09 0 0 0 1.856.512 4.097 4.097 0 0 1-1.267-5.469 11.622 11.622 0 0 0 8.442 4.279 4.097 4.097 0 0 1 6.98-3.735 8.166 8.166 0 0 0 2.601-.994 4.108 4.108 0 0 1-1.801 2.267 8.21 8.21 0 0 0 2.352-.645 8.403 8.403 0 0 1-2.044 2.119Z" fill="#8ABADB" opacity=".25"/><path d="M248 67c14.167-13 54.1-39.8 100.5-43M248 67c76 53 153 46 179.5 18.5" stroke="#CBD5DF" stroke-width="1.5" stroke-dasharray="4 4"/><path d="M256 99c14 4 103.5-11.5 178 43M91 108.5c-4 40 62 81.5 108 86" stroke="#CBD5DF" stroke-width="1.5" stroke-dasharray="4 4"/><g filter="url(#a)"><rect x="40" y="40" width="298" height="120" rx="8" fill="#fff"/></g><path fill-rule="evenodd" clip-rule="evenodd" d="M98.952 82v35.062l-19.972-6.053V122h-3.745v-12.126l-6.804-2.061A6.242 6.242 0 0 1 64 101.84v-4.618c0-2.75 1.8-5.176 4.431-5.973L98.952 82Zm-3.745 30.014-16.227-4.918v-15.13l16.227-4.918v24.966ZM75.235 93.1v12.861l-5.718-1.732a2.496 2.496 0 0 1-1.772-2.389v-4.618c0-1.1.72-2.07 1.772-2.39l5.718-1.732Zm28.71 8.303h9.987v-3.745h-9.987v3.745Zm9.987 10.611-9.987-2.497v-3.745l9.987 2.497v3.745Zm-9.987-18.725 9.987-2.496v-3.745l-9.987 2.496v3.745Z" fill="#CBD5DF"/><path d="M136 84a8 8 0 0 1 8-8h108a8 8 0 0 1 0 16H144a8 8 0 0 1-8-8ZM136 116a8 8 0 0 1 8-8h68a8 8 0 0 1 0 16h-68a8 8 0 0 1-8-8Z" fill="#E9EFF5"/><g filter="url(#b)"><rect x="276" y="68" width="120" height="120" rx="8" fill="#fff"/></g><path opacity=".4" d="M300.444 130c-9.244 0-14.814 10-16.444 15v35h104v-80c-10 10.5-28.533 38.1-44.889 38.5-20.444.5-31.111-8.5-42.667-8.5Z" fill="url(#c)"/><path d="M285 145c1.423-4.833 6.658-14.5 16.218-14.5 9.559 0 21.765 8 42.251 8 16.388 0 31.866-25.333 43.531-38.5" stroke="#069E08" stroke-width="3" stroke-linecap="round" stroke-linejoin="round"/><path opacity=".25" d="M379 8c-8.8 0-16 7.236-16 16.08 0 8.04 5.92 14.634 13.44 15.92V28.744h-4V24.08h4v-3.537c0-4.02 2.4-6.272 6.08-6.272 1.76 0 3.52.322 3.52.322v4.02h-2.08c-1.92 0-2.56 1.287-2.56 2.573v2.894h4.48l-.64 4.664h-3.68V40c7.52-1.286 13.44-7.88 13.44-15.92C395 15.236 387.8 8 379 8Z" fill="#5E79BC"/><path d="M451.689 151h-27.378a2.311 2.311 0 0 0-2.311 2.311v27.378a2.311 2.311 0 0 0 2.311 2.311h27.378a2.311 2.311 0 0 0 2.311-2.311v-27.378a2.311 2.311 0 0 0-2.311-2.311Zm-20.197 27.268h-4.751v-15.272h4.751v15.272Zm-2.374-17.359a2.752 2.752 0 1 1-.003-5.505 2.752 2.752 0 0 1 .003 5.505Zm20.151 17.359h-4.745v-7.426c0-1.771-.03-4.05-2.465-4.05-2.47 0-2.847 1.931-2.847 3.922v7.554h-4.741v-15.272h4.549v2.088h.066c.633-1.2 2.182-2.466 4.491-2.466 4.805 0 5.694 3.162 5.694 7.274v8.376h-.002Z" fill="#506791" opacity=".25"/><path d="M466.444 63h-24.888A3.555 3.555 0 0 0 438 66.556v24.888A3.555 3.555 0 0 0 441.556 95h24.888A3.555 3.555 0 0 0 470 91.444V66.556A3.555 3.555 0 0 0 466.444 63Zm-9.9 25.36c-4.348.075-5.995-3.097-5.995-5.33v-6.52h-2.019v-2.578c3.027-1.092 3.756-3.823 3.927-5.378.012-.107.096-.15.144-.15h2.924v5.085h3.993v3.022h-4.007v6.213c.014.847.324 2.011 1.922 1.968.53-.014 1.239-.167 1.611-.344l.96 2.846c-.365.526-1.993 1.14-3.46 1.166Z" fill="#051935" opacity=".25"/><defs><filter id="a" x="0" y="0" width="378" height="200" filterUnits="userSpaceOnUse" color-interpolation-filters="sRGB"><feFlood flood-opacity="0" result="BackgroundImageFix"/><feColorMatrix in="SourceAlpha" values="0 0 0 0 0 0 0 0 0 0 0 0 0 0 0 0 0 0 127 0" result="hardAlpha"/><feOffset/><feGaussianBlur stdDeviation="20"/><feColorMatrix values="0 0 0 0 0 0 0 0 0 0 0 0 0 0 0 0 0 0 0.08 0"/><feBlend in2="BackgroundImageFix" result="effect1_dropShadow_2662_16926"/><feBlend in="SourceGraphic" in2="effect1_dropShadow_2662_16926" result="shape"/></filter><filter id="b" x="236" y="28" width="200" height="200" filterUnits="userSpaceOnUse" color-interpolation-filters="sRGB"><feFlood flood-opacity="0" result="BackgroundImageFix"/><feColorMatrix in="SourceAlpha" values="0 0 0 0 0 0 0 0 0 0 0 0 0 0 0 0 0 0 127 0" result="hardAlpha"/><feOffset/><feGaussianBlur stdDeviation="20"/><feColorMatrix values="0 0 0 0 0 0 0 0 0 0 0 0 0 0 0 0 0 0 0.08 0"/><feBlend in2="BackgroundImageFix" result="effect1_dropShadow_2662_16926"/><feBlend in="SourceGraphic" in2="effect1_dropShadow_2662_16926" result="shape"/></filter><linearGradient id="c" x1="336" y1="100" x2="335.438" y2="171.999" gradientUnits="userSpaceOnUse"><stop stop-color="#069E08"/><stop offset="1" stop-color="#069E08" stop-opacity="0"/></linearGradient></defs></svg>
