<svg width="24" height="24" viewBox="0 0 24 24" fill="none" xmlns="http://www.w3.org/2000/svg">
<mask id="mask0_1864_8087" style="mask-type:alpha" maskUnits="userSpaceOnUse" x="4" y="5" width="16" height="12">
<path fill-rule="evenodd" clip-rule="evenodd" d="M17.3331 10.1121C17.3332 10.097 17.3333 10.0818 17.3333 10.0665C17.3333 7.63645 15.1843 5.6665 12.5333 5.6665C10.2955 5.6665 8.41542 7.07023 7.88371 8.96951C7.83383 8.96748 7.7837 8.96645 7.73333 8.96645C5.67147 8.96645 4 10.6902 4 12.8165C4 14.9428 5.67147 16.6665 7.73333 16.6665L7.75555 16.6664H16.7819C16.7878 16.6665 16.7937 16.6665 16.7996 16.6665C18.5669 16.6665 19.9996 15.189 19.9996 13.3665C19.9996 11.7314 18.8465 10.374 17.3331 10.1121Z" fill="white"/>
</mask>
<g mask="url(#mask0_1864_8087)">
<path d="M17.3331 10.1121L15.8332 10.0955L15.8191 11.3724L17.0773 11.5902L17.3331 10.1121ZM7.88371 8.96951L7.82248 10.4683L9.00824 10.5168L9.32817 9.37389L7.88371 8.96951ZM7.73333 16.6665V18.1665H7.73784L7.73333 16.6665ZM7.75555 16.6664V15.1664H7.75105L7.75555 16.6664ZM16.7819 16.6664L16.7904 15.1664H16.7819V16.6664ZM18.833 10.1287C18.8332 10.1081 18.8333 10.0873 18.8333 10.0665H15.8333C15.8333 10.0762 15.8333 10.0859 15.8332 10.0955L18.833 10.1287ZM18.8333 10.0665C18.8333 6.68783 15.8872 4.1665 12.5333 4.1665V7.1665C14.4814 7.1665 15.8333 8.58506 15.8333 10.0665H18.8333ZM12.5333 4.1665C9.68497 4.1665 7.16851 5.96015 6.43924 8.56513L9.32817 9.37389C9.66232 8.18032 10.9061 7.1665 12.5333 7.1665V4.1665ZM7.94494 7.47076C7.87466 7.46789 7.80412 7.46645 7.73333 7.46645V10.4665C7.76328 10.4665 7.793 10.4671 7.82248 10.4683L7.94494 7.47076ZM7.73333 7.46645C4.79987 7.46645 2.5 9.90557 2.5 12.8165H5.5C5.5 11.4748 6.54307 10.4665 7.73333 10.4665V7.46645ZM2.5 12.8165C2.5 15.7274 4.79987 18.1665 7.73333 18.1665V15.1665C6.54307 15.1665 5.5 14.1582 5.5 12.8165H2.5ZM7.73784 18.1665L7.76006 18.1664L7.75105 15.1664L7.72883 15.1665L7.73784 18.1665ZM7.75555 18.1664H16.7819V15.1664H7.75555V18.1664ZM16.7996 15.1665C16.7964 15.1665 16.7934 15.1664 16.7904 15.1664L16.7734 18.1664C16.7822 18.1665 16.791 18.1665 16.7996 18.1665V15.1665ZM18.4996 13.3665C18.4996 14.4044 17.6953 15.1665 16.7996 15.1665V18.1665C19.4385 18.1665 21.4996 15.9736 21.4996 13.3665H18.4996ZM17.0773 11.5902C17.8512 11.7241 18.4996 12.4402 18.4996 13.3665H21.4996C21.4996 11.0226 19.8418 9.02394 17.5889 8.63406L17.0773 11.5902Z" fill="black"/>
</g>
</svg>
