<svg width="24" height="24" viewBox="0 0 24 24" fill="none" xmlns="http://www.w3.org/2000/svg">
<path fill-rule="evenodd" clip-rule="evenodd" d="M8.45474 21.2068L16.4547 3.70677L15.5453 3.29102L14.2837 6.05069C13.5991 5.6986 12.8228 5.49987 12 5.49987C10.9385 5.49987 9.95431 5.83064 9.1448 6.39473L7.18994 4.43987L6.12928 5.50053L8.05556 7.42681C7.49044 8.15115 7.12047 9.03518 7.02469 9.99987H5V11.4999H7V12.9999H5V14.4999H7.10002C7.35089 15.7358 8.0576 16.8061 9.03703 17.5278L7.54526 20.791L8.45474 21.2068ZM9.68024 16.1207C8.95633 15.4795 8.5 14.543 8.5 13.4999V10.4999C8.5 8.56687 10.067 6.99987 12 6.99987C12.6003 6.99987 13.1653 7.15099 13.659 7.41725L9.68024 16.1207ZM15.3555 9.50142L16.1645 7.73179C16.6053 8.39371 16.8926 9.16671 16.9753 9.99987H19V11.4999H17V12.9999H19V14.4999H16.9C16.4367 16.7821 14.419 18.4999 12 18.4999C11.7508 18.4999 11.5058 18.4816 11.2664 18.4464L11.928 16.9991C11.9519 16.9996 11.9759 16.9999 12 16.9999C13.933 16.9999 15.5 15.4329 15.5 13.4999V10.4999C15.5 10.153 15.4495 9.81782 15.3555 9.50142Z" fill="black"/>
</svg>
