<svg xmlns="http://www.w3.org/2000/svg" width="128" height="128" fill="none" viewBox="0 0 128 128"><g clip-path="url(#clip0_2891_12336)"><rect width="103.619" height="103.619" x="12.19" y="12.19" fill="#2C3338" rx="12.191"/><g style="mix-blend-mode:screen"><path fill="#fff" fill-rule="evenodd" d="M65.257 43.6826L83.5295 51.9883V64.3698C83.5295 74.9244 76.7507 84.9178 67.1918 88.0703C65.9357 88.4846 64.5784 88.4846 63.3223 88.0703C53.7634 84.9178 46.9846 74.9244 46.9846 64.3698V51.9883L65.257 43.6826ZM51.0452 54.6029V64.3698C51.0452 73.338 56.8521 81.6607 64.5941 84.2141C65.0242 84.356 65.4899 84.356 65.92 84.2141C73.662 81.6607 79.4689 73.338 79.4689 64.3698V54.6029L65.257 48.143L51.0452 54.6029Z" clip-rule="evenodd"/></g><path fill="#069E08" d="M104.656 46.7302C117.561 46.7302 128.021 36.2693 128.021 23.3651C128.021 10.4609 117.561 0 104.656 0C91.7522 0 81.2913 10.4609 81.2913 23.3651C81.2913 36.2693 91.7522 46.7302 104.656 46.7302Z"/><path fill="#fff" d="M105.815 19.4412V42.0928L117.498 19.4412H105.815Z"/><path fill="#fff" d="M103.453 27.2443V4.63721L91.8147 27.2443H103.453Z"/></g><defs><clipPath id="clip0_2891_12336"><rect width="128" height="128" fill="#fff"/></clipPath></defs></svg>