<svg fill="none" height="128" viewBox="0 0 128 128" width="128" xmlns="http://www.w3.org/2000/svg" xmlns:xlink="http://www.w3.org/1999/xlink"><clipPath id="a"><path d="m0 0h128v128h-128z"/></clipPath><g clip-path="url(#a)"><rect fill="#2c3338" height="103.619" rx="12.1905" width="103.619" x="12.1904" y="12.1904"/><path clip-rule="evenodd" d="m65.257 43.6826 18.2725 8.3057v12.3815c0 10.5546-6.7788 20.548-16.3377 23.7005-1.2561.4143-2.6134.4143-3.8695 0-9.5589-3.1525-16.3377-13.1459-16.3377-23.7005v-12.3815zm-14.2118 10.9203v9.7669c0 8.9682 5.8069 17.2909 13.5489 19.8443.4301.1419.8958.1419 1.3259 0 7.742-2.5534 13.5489-10.8761 13.5489-19.8443v-9.7669l-14.2119-6.4599z" fill="#fff" fill-rule="evenodd"/><path d="m104.656 46.7302c12.905 0 23.365-10.4609 23.365-23.3651s-10.46-23.3651-23.365-23.3651c-12.9038 0-23.3647 10.4609-23.3647 23.3651s10.4609 23.3651 23.3647 23.3651z" fill="#069e08"/><g fill="#fff"><path d="m105.815 19.4412v22.6516l11.683-22.6516z"/><path d="m103.453 27.2443v-22.60709l-11.6383 22.60709z"/></g></g></svg>