<svg fill="none" height="36" viewBox="0 0 58 36" width="58" xmlns="http://www.w3.org/2000/svg"><path d="m36.4279 7.32209h11.034l-.4153 1.12116h-10.6187c-2.355 0-4.2652 1.87465-4.2652 4.17035v12.1848c0 2.1001 1.4771 4.1704 4.9831 4.1704v1.133h-.7179c-2.972 0-5.4161-2.3847-5.4161-5.3093v-12.1789c0-2.92452 2.4144-5.29151 5.4161-5.29151zm13.5907-3.32209h3.945c-8.5307 22.4297-8.6431 23.6636-10.9568 26.0603-1.2339 1.2815-2.9246 1.8807-4.645 1.9397v-3.0313c2.9187-.4567 3.8322-2.9602 3.8322-4.4671 0-1.1922.0356-.7473-4.8704-13.2405h3.6424l2.9899 9.2898zm7.5696 8.3941v17.7077h-12.6949c.3915-.5695.6347-.9669.7177-1.151h10.8262v-16.5567c0-1.928-1.0143-3.07876-2.8592-3.73141l.3974-1.04404c2.4739.80683 3.6128 2.55685 3.6128 4.77545z" fill="#a3286a"/><path d="m18.4119 34c8.8365 0 16-7.1634 16-16 0-8.83656-7.1635-16-16-16-8.83659 0-16.00003 7.16344-16.00003 16 0 8.8366 7.16344 16 16.00003 16z" fill="#069e08" stroke="#fff" stroke-width="4"/><g fill="#fff"><path d="m19.1064 15.6488v13.5725l7-13.5725z"/><path d="m17.6906 20.3244v-13.54577l-6.9733 13.54577z"/></g></svg>