<svg fill="none" height="17" viewBox="0 0 14 17" width="14" xmlns="http://www.w3.org/2000/svg"><path d="m9.3584 2.68018c.49219-.59473.8408-1.41504.8408-2.235356 0-.112793-.0102-.225586-.0307-.317871-.79985.030762-1.77397.533203-2.34819 1.209957-.46142.52295-.88183 1.34327-.88183 2.17383 0 .12305.0205.2461.03076.28711.05127.01026.1333.02051.21533.02051.72803 0 1.64063-.48193 2.17383-1.13818zm.56396 1.3125c-1.20996 0-2.19433.73828-2.81982.73828-.6665 0-1.54834-.69727-2.60449-.69727-1.99951 0-4.019534 1.66113-4.019534 4.76807 0 1.94824.748534 3.98874 1.671384 5.31154.79981 1.1177 1.49707 2.0405 2.4917 2.0405s1.42529-.6665 2.65576-.6665c1.25098 0 1.53809.646 2.625.646 1.08694 0 1.81494-.9946 2.49174-1.979.769-1.1279 1.0869-2.2148 1.0971-2.2764-.0615-.0205-2.143-.8613-2.143-3.2402 0-2.06104 1.6406-2.97364 1.7329-3.04541-1.0767-1.5586-2.7173-1.59961-3.17874-1.59961z" fill="#000"/></svg>