<svg fill="none" height="20" viewBox="0 0 20 20" width="20" xmlns="http://www.w3.org/2000/svg"><path clip-rule="evenodd" d="m10.0083 0c-5.53435 0-10.0083 4.58332-10.0083 10.2535 0 4.5325 2.86662 8.3691 6.84337 9.727.4972.1021.67932-.2206.67932-.492 0-.2377-.01639-1.0525-.01639-1.9014-2.78406.6112-3.36381-1.2223-3.36381-1.2223-.44742-1.1884-1.11035-1.4938-1.11035-1.4938-.91122-.6282.06638-.6282.06638-.6282 1.01078.0679 1.54117 1.0526 1.54117 1.0526.89462 1.5616 2.33623 1.1204 2.91619.8488.08276-.6622.34805-1.1205.62974-1.3751-2.22048-.2376-4.55671-1.1204-4.55671-5.05893 0-1.12041.39742-2.03708 1.02717-2.74999-.09936-.25458-.44742-1.30729.09955-2.71624 0 0 .84506-.27167 2.75046 1.0525.81578-.22444 1.65707-.33863 2.50221-.33958.845 0 1.7065.11895 2.5019.33958 1.9057-1.32417 2.7507-1.0525 2.7507-1.0525.547 1.40895.1987 2.46166.0993 2.71624.6464.71291 1.0274 1.62958 1.0274 2.74999 0 3.93853-2.3362 4.80423-4.5733 5.05893.3646.3225.6793.9335.6793 1.9013 0 1.375-.0164 2.4785-.0164 2.8179 0 .2716.1824.5943.6794.4925 3.9768-1.3584 6.8434-5.1948 6.8434-9.7273.0163-5.67018-4.474-10.2535-9.9917-10.2535z" fill="#24292f" fill-rule="evenodd"/></svg>