<svg height="20" viewBox="0 0 20 20" width="20" xmlns="http://www.w3.org/2000/svg"><g fill="none" fill-rule="evenodd"><path d="m19.6 10.227c0-.709-.064-1.39-.182-2.045h-9.418v3.868h5.382a4.6 4.6 0 0 1 -1.996 3.018v2.51h3.232c1.891-1.742 2.982-4.305 2.982-7.35z" fill="#4285f4"/><path d="m10 20c2.7 0 4.964-.895 6.618-2.423l-3.232-2.509c-.895.6-2.04.955-3.386.955-2.605 0-4.81-1.76-5.595-4.123h-3.341v2.59a9.996 9.996 0 0 0 8.936 5.51z" fill="#34a853"/><path d="m4.405 11.9c-.2-.6-.314-1.24-.314-1.9s.114-1.3.314-1.9v-2.59h-3.341a9.996 9.996 0 0 0 -1.064 4.49c0 1.614.386 3.14 1.064 4.49l3.34-2.59z" fill="#fbbc05"/><path d="m10 3.977c1.468 0 2.786.505 3.823 1.496l2.868-2.868c-1.732-1.615-3.996-2.605-6.691-2.605-3.91 0-7.29 2.24-8.936 5.51l3.34 2.59c.788-2.364 2.992-4.123 5.596-4.123z" fill="#ea4335"/></g></svg>