<svg class="jitm-jp-logo" viewBox="0 0 176 32" xmlns="http://www.w3.org/2000/svg">
	<path d="M16 32C24.8365 32 32 24.8362 32 15.9994C32 7.16259 24.8365 0 16 0C7.16351 0 0 7.16377 0 16.0006C0 24.8374 7.16351 32 16 32Z" fill="#069E08"/>
	<path d="m16.794 13.313v15.511l8-15.511h-8z" fill="#fff"/>
	<path d="m15.176 18.657v-15.482l-7.9692 15.482h7.9692z" fill="#fff"/>
	<path d="m41.711 27.015c-0.4629-0.7159-0.8936-1.4307-1.3254-2.1152 2.2813-1.4004 3.0517-2.5196 3.0517-4.636v-12.227h-2.6821v-2.3325h5.7039v13.938c0 3.547-1.0169 5.5378-4.7481 7.3729z"/>
	<path d="m65.603 18.677c0 1.1819 0.8326 1.3063 1.3876 1.3063 0.5551 0 1.3566-0.1871 1.9727-0.3731v2.178c-0.8637 0.2801-1.7573 0.4974-2.9907 0.4974-1.4798 0-3.206-0.5602-3.206-3.174v-6.4095h-1.5719v-2.2093h1.5719v-3.2657h2.8364v3.2669h3.5756v2.2093h-3.5756v5.9737z"/>
	<path d="m71.523 28.104v-17.641h2.7132v1.0576c1.079-0.8402 2.2813-1.369 3.7611-1.369 2.5588 0 4.5937 1.8049 4.5937 5.6935 0 3.8585-2.2191 6.4095-5.8881 6.4095-0.8936 0-1.603-0.1243-2.3435-0.2801v6.098h-2.8364v0.0314zm5.7338-15.587c-0.8326 0-1.8805 0.4045-2.8675 1.2761v6.0051c0.6161 0.1243 1.2645 0.2173 2.127 0.2173 2.0038 0 3.145-1.2761 3.145-3.9515 0-2.458-0.8326-3.547-2.4045-3.547z"/>
	<path d="m93.748 22.007h-2.651v-1.2761h-0.0622c-0.9247 0.716-2.066 1.4935-3.7611 1.4935-1.4798 0-3.0828-1.089-3.0828-3.2983 0-2.9555 2.4966-3.5157 4.254-3.7644l2.4966-0.3416v-0.3417c0-1.5562-0.6161-2.0536-2.066-2.0536-0.7094 0-2.3734 0.2173-3.73 0.7775l-0.2464-2.3023c1.2334-0.4358 2.9285-0.7461 4.3473-0.7461 2.7741 0 4.5626 1.1204 4.5626 4.4489v7.4042h-0.061zm-2.8364-5.382-2.3435 0.373c-0.7094 0.093-1.4487 0.5288-1.4487 1.5864 0 0.9332 0.524 1.462 1.2944 1.462 0.8326 0 1.7262-0.4974 2.4966-1.0576v-2.3638h0.0012z"/>
	<path d="m105.46 21.633c-1.171 0.4044-2.219 0.6531-3.546 0.6531-4.2537 0-5.95-2.458-5.95-6.0352 0-3.7643 2.3435-6.098 6.135-6.098 1.417 0 2.281 0.2487 3.237 0.5602v2.4266c-0.833-0.3115-2.035-0.6531-3.206-0.6531-1.727 0-3.2064 0.9332-3.2064 3.6085 0 2.9555 1.4794 3.8585 3.3604 3.8585 0.894 0 1.88-0.1871 3.206-0.7159v2.3953h-0.03z"/>
	<path d="m110.83 15.442c0.246-0.2801 0.432-0.5602 4.008-4.9474h3.698l-4.624 5.4762 5.055 6.0666h-3.699l-4.408-5.4762v5.4762h-2.835v-16.333h2.836v9.7379h-0.031z"/>
	<path d="m59.066 21.632c-1.4798 0.4672-2.7443 0.6531-4.2241 0.6531-3.6378 0-5.888-1.8351-5.888-6.1294 0-3.1425 1.9116-6.005 5.5794-6.005 3.6379 0 4.9023 2.551 4.9023 4.9776 0 0.8089-0.0622 1.2447-0.0921 1.7107h-7.3367c0.0622 2.5197 1.4798 3.1112 3.6067 3.1112 1.1712 0 2.2191-0.2801 3.4226-0.7159v2.3953h0.0299v0.0024zm-2.5888-6.6896c0-1.4005-0.4629-2.6138-1.9726-2.6138-1.4176 0-2.2813 1.0262-2.4667 2.6138h4.4393z"/>
	<path d="m131.97 10.894c0 0.6585-0.146 1.2617-0.439 1.8106-0.293 0.549-0.777 1.0038-1.452 1.3679v0.0454c0.375 0.1284 0.718 0.2933 1.03 0.4936 0.311 0.2003 0.577 0.4383 0.799 0.7149 0.22 0.2767 0.394 0.5888 0.518 0.9363 0.124 0.3486 0.185 0.7382 0.185 1.1687 0 0.3708-0.058 0.7681-0.174 1.192-0.117 0.4238-0.321 0.8344-0.614 1.2317s-0.683 0.7626-1.17 1.0946c-0.487 0.3331-1.103 0.5976-1.846 0.7946-0.188 0.0454-0.392 0.0874-0.614 0.1251-0.221 0.0376-0.467 0.0697-0.737 0.0962-0.27 0.0266-0.571 0.0454-0.9 0.0565-0.331 0.0111-0.702 0.0166-1.114 0.0166h-4.378v-15.184h5.234c1.117 0 2.018 0.114 2.701 0.34087 0.51 0.16601 0.953 0.38403 1.328 0.65297 0.375 0.26893 0.685 0.56774 0.929 0.89644 0.243 0.3287 0.423 0.67731 0.54 1.0436 0.116 0.36628 0.174 0.73598 0.174 1.1056zm-5.661 2.2135c0.749 0 1.309-0.0753 1.677-0.2269 0.413-0.1738 0.707-0.4139 0.883-0.7205 0.176-0.3065 0.265-0.6529 0.265-1.0381 0-0.4006-0.101-0.7581-0.304-1.0724-0.203-0.31431-0.548-0.54672-1.035-0.69834-0.203-0.06087-0.439-0.10403-0.709-0.13059s-0.604-0.03984-1.002-0.03984h-2.262v3.9267h2.487zm-2.487 2.3263v4.2786h1.801c0.479 0 0.892-0.0133 1.238-0.0399 0.344-0.0265 0.641-0.0697 0.889-0.1306 0.383-0.083 0.701-0.1948 0.957-0.3353 0.255-0.1395 0.461-0.2988 0.619-0.477 0.158-0.1771 0.27-0.3741 0.338-0.5899s0.101-0.4438 0.101-0.6861c0-0.4239-0.116-0.7947-0.349-1.1123s-0.596-0.5556-1.092-0.7149c-0.217-0.0687-0.473-0.1174-0.765-0.1472-0.293-0.0299-0.667-0.0454-1.125-0.0454h-2.612z" fill="#646970"/>
	<path d="m145.21 16.368c0 0.8697-0.13 1.6634-0.391 2.3813-0.261 0.7178-0.635 1.3318-1.121 1.8432-0.487 0.5113-1.075 0.9065-1.765 1.1845-0.689 0.2791-1.459 0.4175-2.31 0.4175-0.873 0-1.657-0.1396-2.351-0.4175-0.694-0.278-1.281-0.6732-1.764-1.1845-0.484-0.5114-0.854-1.1254-1.109-1.8432-0.257-0.7168-0.386-1.5116-0.386-2.3813s0.13-1.6634 0.391-2.3813c0.261-0.7167 0.635-1.3319 1.121-1.8432 0.487-0.5113 1.076-0.9065 1.765-1.1845 0.689-0.2791 1.46-0.4175 2.31-0.4175 0.874 0 1.657 0.1396 2.351 0.4175 0.694 0.2791 1.282 0.6732 1.765 1.1845s0.852 1.1254 1.108 1.8432c0.257 0.7179 0.386 1.5116 0.386 2.3813zm-2.816 0c0-0.5872-0.07-1.1064-0.207-1.5574-0.138-0.4499-0.33-0.8284-0.575-1.1331-0.246-0.3048-0.541-0.5337-0.886-0.6866-0.345-0.153-0.721-0.2289-1.127-0.2289-0.399 0-0.768 0.0759-1.108 0.2289-0.341 0.1529-0.635 0.3818-0.879 0.6866-0.246 0.3059-0.438 0.6832-0.575 1.1331-0.138 0.4499-0.208 0.9691-0.208 1.5574 0 0.5872 0.07 1.1063 0.208 1.5574 0.137 0.4499 0.331 0.8261 0.58 1.1275 0.249 0.3015 0.544 0.5303 0.885 0.6866s0.714 0.2345 1.121 0.2345c0.406 0 0.778-0.0782 1.115-0.2345 0.338-0.1563 0.628-0.3851 0.874-0.6866 0.245-0.3014 0.437-0.6776 0.575-1.1275 0.137-0.4511 0.207-0.9702 0.207-1.5574z" fill="#646970"/>
	<path d="m157.45 16.368c0 0.8697-0.126 1.6634-0.379 2.3813-0.253 0.7178-0.615 1.3318-1.086 1.8432-0.471 0.5113-1.042 0.9065-1.71 1.1845-0.667 0.2791-1.413 0.4175-2.238 0.4175-0.846 0-1.605-0.1396-2.277-0.4175-0.672-0.278-1.241-0.6732-1.709-1.1845-0.468-0.5114-0.827-1.1254-1.074-1.8432-0.249-0.7168-0.374-1.5116-0.374-2.3813s0.126-1.6634 0.379-2.3813c0.252-0.7167 0.615-1.3319 1.086-1.8432s1.041-0.9065 1.709-1.1845c0.668-0.2791 1.414-0.4175 2.239-0.4175 0.846 0 1.605 0.1396 2.277 0.4175 0.672 0.2791 1.241 0.6732 1.709 1.1845s0.826 1.1254 1.074 1.8432c0.249 0.7179 0.374 1.5116 0.374 2.3813zm-2.729 0c0-0.5872-0.068-1.1064-0.201-1.5574-0.134-0.4499-0.319-0.8284-0.557-1.1331-0.238-0.3048-0.524-0.5337-0.858-0.6866-0.335-0.153-0.699-0.2289-1.092-0.2289-0.386 0-0.744 0.0759-1.074 0.2289-0.33 0.1529-0.614 0.3818-0.851 0.6866-0.238 0.3059-0.424 0.6832-0.557 1.1331-0.134 0.4499-0.201 0.9691-0.201 1.5574 0 0.5872 0.067 1.1063 0.201 1.5574 0.133 0.4499 0.321 0.8261 0.562 1.1275 0.241 0.3015 0.527 0.5303 0.857 0.6866s0.692 0.2345 1.086 0.2345c0.393 0 0.754-0.0782 1.081-0.2345s0.608-0.3851 0.846-0.6866c0.238-0.3014 0.423-0.6776 0.557-1.1275 0.135-0.4511 0.201-0.9702 0.201-1.5574z" fill="#646970"/>
	<path d="m164.24 18.692c0-0.2367-0.067-0.4309-0.199-0.5839-0.133-0.1529-0.309-0.2802-0.529-0.384-0.219-0.1027-0.471-0.192-0.756-0.269-0.283-0.0759-0.581-0.1529-0.892-0.2288-0.394-0.1072-0.772-0.2311-1.136-0.3718-0.364-0.1406-0.684-0.3259-0.96-0.5548-0.277-0.2288-0.497-0.5168-0.66-0.864-0.163-0.3471-0.245-0.7724-0.245-1.2759 0-0.6184 0.11-1.1542 0.33-1.6086 0.219-0.4543 0.517-0.8294 0.892-1.1274 0.375-0.2981 0.81-0.5191 1.307-0.6642s1.021-0.2177 1.574-0.2177c0.674 0 1.307 0.0558 1.898 0.1663s1.125 0.2534 1.603 0.4287v2.2102c-0.251-0.0837-0.514-0.1618-0.791-0.2344-0.277-0.0725-0.557-0.135-0.841-0.1886s-0.567-0.0971-0.847-0.1318c-0.28-0.0346-0.545-0.0513-0.796-0.0513-0.318 0-0.587 0.0301-0.807 0.0915-0.219 0.0614-0.398 0.1429-0.534 0.2456-0.137 0.1027-0.235 0.221-0.296 0.355s-0.091 0.2724-0.091 0.4175c0 0.2523 0.066 0.4577 0.198 0.6184 0.133 0.1608 0.316 0.2903 0.551 0.3896 0.235 0.0994 0.481 0.1808 0.74 0.2467 0.257 0.0648 0.507 0.1284 0.75 0.1887 0.379 0.0915 0.757 0.202 1.136 0.3315s0.72 0.3114 1.023 0.5436c0.303 0.2333 0.551 0.5347 0.745 0.9042 0.193 0.3706 0.29 0.8417 0.29 1.4133 0 0.6262-0.118 1.1709-0.353 1.6364s-0.563 0.8529-0.983 1.1621-0.925 0.5381-1.512 0.6865c-0.588 0.1485-1.233 0.2233-1.938 0.2233-0.697 0-1.324-0.0558-1.881-0.1663-0.556-0.1106-1.017-0.2501-1.381-0.4175v-2.1857c0.591 0.221 1.136 0.3717 1.637 0.4521 0.5 0.0803 0.967 0.1205 1.398 0.1205 0.334 0 0.644-0.0245 0.932-0.0748 0.289-0.0491 0.536-0.1272 0.745-0.2344s0.374-0.2422 0.495-0.4063c0.124-0.1641 0.184-0.3617 0.184-0.5905z" fill="#646970"/>
	<path d="m176 21.896c-0.302 0.0916-0.661 0.1641-1.079 0.2177-0.417 0.0536-0.808 0.0804-1.169 0.0804-0.92 0-1.671-0.1507-2.256-0.4521-0.584-0.3014-0.996-0.7344-1.237-1.2992-0.173-0.4041-0.26-0.9532-0.26-1.6486v-5.745h-2.046v-2.2323h2.046v-3.1008h2.678v3.1019h3.165v2.2323h-3.165v5.3912c0 0.4275 0.064 0.7445 0.192 0.9498 0.226 0.3516 0.674 0.5269 1.345 0.5269 0.308 0 0.616-0.0246 0.921-0.0748 0.305-0.0491 0.593-0.1128 0.864-0.1887v2.2413h1e-3z" fill="#646970"/>
</svg>
