<svg viewBox="0 0 176 32" xmlns="http://www.w3.org/2000/svg"><path d="m16 32c8.8365 0 16-7.1638 16-16.0006 0-8.83681-7.1635-15.9994-16-15.9994-8.83649 0-16 7.16377-16 16.0006 0 8.8368 7.16351 15.9994 16 15.9994z" fill="#069e08"/><path d="m16.794 13.313v15.511l8-15.511z" fill="#fff"/><path d="m15.176 18.657v-15.482l-7.9692 15.482z" fill="#fff"/><path d="m41.711 27.015c-.4629-.7159-.8936-1.4307-1.3254-2.1152 2.2813-1.4004 3.0517-2.5196 3.0517-4.636v-12.227h-2.6821v-2.3325h5.7039v13.938c0 3.547-1.0169 5.5378-4.7481 7.3729z"/><path d="m65.603 18.677c0 1.1819.8326 1.3063 1.3876 1.3063.5551 0 1.3566-.1871 1.9727-.3731v2.178c-.8637.2801-1.7573.4974-2.9907.4974-1.4798 0-3.206-.5602-3.206-3.174v-6.4095h-1.5719v-2.2093h1.5719v-3.2657h2.8364v3.2669h3.5756v2.2093h-3.5756z"/><path d="m71.523 28.104v-17.641h2.7132v1.0576c1.079-.8402 2.2813-1.369 3.7611-1.369 2.5588 0 4.5937 1.8049 4.5937 5.6935 0 3.8585-2.2191 6.4095-5.8881 6.4095-.8936 0-1.603-.1243-2.3435-.2801v6.098h-2.8364v.0314zm5.7338-15.587c-.8326 0-1.8805.4045-2.8675 1.2761v6.0051c.6161.1243 1.2645.2173 2.127.2173 2.0038 0 3.145-1.2761 3.145-3.9515 0-2.458-.8326-3.547-2.4045-3.547z"/><path d="m93.748 22.007h-2.651v-1.2761h-.0622c-.9247.716-2.066 1.4935-3.7611 1.4935-1.4798 0-3.0828-1.089-3.0828-3.2983 0-2.9555 2.4966-3.5157 4.254-3.7644l2.4966-.3416v-.3417c0-1.5562-.6161-2.0536-2.066-2.0536-.7094 0-2.3734.2173-3.73.7775l-.2464-2.3023c1.2334-.4358 2.9285-.7461 4.3473-.7461 2.7741 0 4.5626 1.1204 4.5626 4.4489v7.4042zm-2.8364-5.382-2.3435.373c-.7094.093-1.4487.5288-1.4487 1.5864 0 .9332.524 1.462 1.2944 1.462.8326 0 1.7262-.4974 2.4966-1.0576v-2.3638z"/><path d="m105.46 21.633c-1.171.4044-2.219.6531-3.546.6531-4.2537 0-5.95-2.458-5.95-6.0352 0-3.7643 2.3435-6.098 6.135-6.098 1.417 0 2.281.2487 3.237.5602v2.4266c-.833-.3115-2.035-.6531-3.206-.6531-1.727 0-3.2064.9332-3.2064 3.6085 0 2.9555 1.4794 3.8585 3.3604 3.8585.894 0 1.88-.1871 3.206-.7159v2.3953z"/><path d="m110.83 15.442c.246-.2801.432-.5602 4.008-4.9474h3.698l-4.624 5.4762 5.055 6.0666h-3.699l-4.408-5.4762v5.4762h-2.835v-16.333h2.836v9.7379h-.031z"/><path d="m59.066 21.632c-1.4798.4672-2.7443.6531-4.2241.6531-3.6378 0-5.888-1.8351-5.888-6.1294 0-3.1425 1.9116-6.005 5.5794-6.005 3.6379 0 4.9023 2.551 4.9023 4.9776 0 .8089-.0622 1.2447-.0921 1.7107h-7.3367c.0622 2.5197 1.4798 3.1112 3.6067 3.1112 1.1712 0 2.2191-.2801 3.4226-.7159v2.3953h.0299zm-2.5888-6.6896c0-1.4005-.4629-2.6138-1.9726-2.6138-1.4176 0-2.2813 1.0262-2.4667 2.6138z"/><g fill="#646970"><path d="m131.97 10.894c0 .6585-.146 1.2617-.439 1.8106-.293.549-.777 1.0038-1.452 1.3679v.0454c.375.1284.718.2933 1.03.4936.311.2003.577.4383.799.7149.22.2767.394.5888.518.9363.124.3486.185.7382.185 1.1687 0 .3708-.058.7681-.174 1.192-.117.4238-.321.8344-.614 1.2317s-.683.7626-1.17 1.0946c-.487.3331-1.103.5976-1.846.7946-.188.0454-.392.0874-.614.1251-.221.0376-.467.0697-.737.0962-.27.0266-.571.0454-.9.0565-.331.0111-.702.0166-1.114.0166h-4.378v-15.184h5.234c1.117 0 2.018.114 2.701.34087.51.16601.953.38403 1.328.65297.375.26893.685.56774.929.89644.243.3287.423.67731.54 1.0436.116.36628.174.73598.174 1.1056zm-5.661 2.2135c.749 0 1.309-.0753 1.677-.2269.413-.1738.707-.4139.883-.7205.176-.3065.265-.6529.265-1.0381 0-.4006-.101-.7581-.304-1.0724-.203-.31431-.548-.54672-1.035-.69834-.203-.06087-.439-.10403-.709-.13059s-.604-.03984-1.002-.03984h-2.262v3.9267h2.487zm-2.487 2.3263v4.2786h1.801c.479 0 .892-.0133 1.238-.0399.344-.0265.641-.0697.889-.1306.383-.083.701-.1948.957-.3353.255-.1395.461-.2988.619-.477.158-.1771.27-.3741.338-.5899s.101-.4438.101-.6861c0-.4239-.116-.7947-.349-1.1123s-.596-.5556-1.092-.7149c-.217-.0687-.473-.1174-.765-.1472-.293-.0299-.667-.0454-1.125-.0454z"/><path d="m145.21 16.368c0 .8697-.13 1.6634-.391 2.3813-.261.7178-.635 1.3318-1.121 1.8432-.487.5113-1.075.9065-1.765 1.1845-.689.2791-1.459.4175-2.31.4175-.873 0-1.657-.1396-2.351-.4175-.694-.278-1.281-.6732-1.764-1.1845-.484-.5114-.854-1.1254-1.109-1.8432-.257-.7168-.386-1.5116-.386-2.3813s.13-1.6634.391-2.3813c.261-.7167.635-1.3319 1.121-1.8432.487-.5113 1.076-.9065 1.765-1.1845.689-.2791 1.46-.4175 2.31-.4175.874 0 1.657.1396 2.351.4175.694.2791 1.282.6732 1.765 1.1845s.852 1.1254 1.108 1.8432c.257.7179.386 1.5116.386 2.3813zm-2.816 0c0-.5872-.07-1.1064-.207-1.5574-.138-.4499-.33-.8284-.575-1.1331-.246-.3048-.541-.5337-.886-.6866-.345-.153-.721-.2289-1.127-.2289-.399 0-.768.0759-1.108.2289-.341.1529-.635.3818-.879.6866-.246.3059-.438.6832-.575 1.1331-.138.4499-.208.9691-.208 1.5574 0 .5872.07 1.1063.208 1.5574.137.4499.331.8261.58 1.1275.249.3015.544.5303.885.6866s.714.2345 1.121.2345c.406 0 .778-.0782 1.115-.2345.338-.1563.628-.3851.874-.6866.245-.3014.437-.6776.575-1.1275.137-.4511.207-.9702.207-1.5574z"/><path d="m157.45 16.368c0 .8697-.126 1.6634-.379 2.3813-.253.7178-.615 1.3318-1.086 1.8432-.471.5113-1.042.9065-1.71 1.1845-.667.2791-1.413.4175-2.238.4175-.846 0-1.605-.1396-2.277-.4175-.672-.278-1.241-.6732-1.709-1.1845-.468-.5114-.827-1.1254-1.074-1.8432-.249-.7168-.374-1.5116-.374-2.3813s.126-1.6634.379-2.3813c.252-.7167.615-1.3319 1.086-1.8432s1.041-.9065 1.709-1.1845c.668-.2791 1.414-.4175 2.239-.4175.846 0 1.605.1396 2.277.4175.672.2791 1.241.6732 1.709 1.1845s.826 1.1254 1.074 1.8432c.249.7179.374 1.5116.374 2.3813zm-2.729 0c0-.5872-.068-1.1064-.201-1.5574-.134-.4499-.319-.8284-.557-1.1331-.238-.3048-.524-.5337-.858-.6866-.335-.153-.699-.2289-1.092-.2289-.386 0-.744.0759-1.074.2289-.33.1529-.614.3818-.851.6866-.238.3059-.424.6832-.557 1.1331-.134.4499-.201.9691-.201 1.5574 0 .5872.067 1.1063.201 1.5574.133.4499.321.8261.562 1.1275.241.3015.527.5303.857.6866s.692.2345 1.086.2345c.393 0 .754-.0782 1.081-.2345s.608-.3851.846-.6866c.238-.3014.423-.6776.557-1.1275.135-.4511.201-.9702.201-1.5574z"/><path d="m164.24 18.692c0-.2367-.067-.4309-.199-.5839-.133-.1529-.309-.2802-.529-.384-.219-.1027-.471-.192-.756-.269-.283-.0759-.581-.1529-.892-.2288-.394-.1072-.772-.2311-1.136-.3718-.364-.1406-.684-.3259-.96-.5548-.277-.2288-.497-.5168-.66-.864-.163-.3471-.245-.7724-.245-1.2759 0-.6184.11-1.1542.33-1.6086.219-.4543.517-.8294.892-1.1274.375-.2981.81-.5191 1.307-.6642s1.021-.2177 1.574-.2177c.674 0 1.307.0558 1.898.1663s1.125.2534 1.603.4287v2.2102c-.251-.0837-.514-.1618-.791-.2344-.277-.0725-.557-.135-.841-.1886s-.567-.0971-.847-.1318c-.28-.0346-.545-.0513-.796-.0513-.318 0-.587.0301-.807.0915-.219.0614-.398.1429-.534.2456-.137.1027-.235.221-.296.355s-.091.2724-.091.4175c0 .2523.066.4577.198.6184.133.1608.316.2903.551.3896.235.0994.481.1808.74.2467.257.0648.507.1284.75.1887.379.0915.757.202 1.136.3315s.72.3114 1.023.5436c.303.2333.551.5347.745.9042.193.3706.29.8417.29 1.4133 0 .6262-.118 1.1709-.353 1.6364s-.563.8529-.983 1.1621-.925.5381-1.512.6865c-.588.1485-1.233.2233-1.938.2233-.697 0-1.324-.0558-1.881-.1663-.556-.1106-1.017-.2501-1.381-.4175v-2.1857c.591.221 1.136.3717 1.637.4521.5.0803.967.1205 1.398.1205.334 0 .644-.0245.932-.0748.289-.0491.536-.1272.745-.2344s.374-.2422.495-.4063c.124-.1641.184-.3617.184-.5905z"/><path d="m176 21.896c-.302.0916-.661.1641-1.079.2177-.417.0536-.808.0804-1.169.0804-.92 0-1.671-.1507-2.256-.4521-.584-.3014-.996-.7344-1.237-1.2992-.173-.4041-.26-.9532-.26-1.6486v-5.745h-2.046v-2.2323h2.046v-3.1008h2.678v3.1019h3.165v2.2323h-3.165v5.3912c0 .4275.064.7445.192.9498.226.3516.674.5269 1.345.5269.308 0 .616-.0246.921-.0748.305-.0491.593-.1128.864-.1887v2.2413z"/></g></svg>