<svg fill="#008710" height="16" viewBox="0 0 16 16" width="16" xmlns="http://www.w3.org/2000/svg" xmlns:xlink="http://www.w3.org/1999/xlink"><mask id="a" height="13" maskUnits="userSpaceOnUse" width="13" x="2" y="1"><path clip-rule="evenodd" d="m13.724 3.724-1.448-1.448c-.5207-.52067-1.3647-.52067-1.8853 0l-1.05737 1.05733 3.33337 3.33333 1.0573-1.05733c.5207-.52067.5207-1.36467 0-1.88533zm-5.05733.276 3.33333 3.33333-6.338 6.33797c-.45733-.4573-.45933-1.196-.008-1.6566l-.002-.002c-.46067.4513-1.19933.4493-1.65667-.008-.45133-.4514-.45733-1.1747-.024-1.6367l-.00533-.0053c-.462.4326-1.186.4266-1.63667-.024zm-6.66667 10v-2c1.10467 0 2 .8953 2 2z" fill="#fff" fill-rule="evenodd"/></mask><g mask="url(#a)"><path d="m0 0h16v16h-16z"/></g></svg>