<svg fill="none" height="246" viewBox="0 0 318 246" width="318" xmlns="http://www.w3.org/2000/svg"><rect fill="#fff" height="71.208" rx=".944" width="183.5" x=".5" y=".187988"/><path d="m59.1791 48.292h3.1363l2.4061-6.8532h9.5248l2.4061 6.8532h3.1362l-8.8279-23.9448h-2.9537zm10.172-20.0784h.2655l3.7502 10.6863h-7.7659zm19.0165 20.3937c2.406 0 4.2811-1.0454 5.4095-2.9537h.2655v2.6384h2.8873v-12.2462c0-3.717-2.4393-5.9572-6.8034-5.9572-3.8166 0-6.5379 1.8917-7.0026 4.6961l-.0166.0995h2.8873l.0166-.0497c.4647-1.3939 1.8751-2.1904 4.0157-2.1904 2.6716 0 4.0157 1.1947 4.0157 3.4017v1.6262l-5.1275.3153c-4.165.2489-6.5213 2.0908-6.5213 5.2768v.0332c0 3.2523 2.572 5.31 5.9738 5.31zm-3.0201-5.3764v-.0332c0-1.7755 1.1947-2.738 3.9161-2.9039l4.779-.2987v1.6262c0 2.5554-2.1406 4.4803-5.0777 4.4803-2.0742 0-3.6174-1.062-3.6174-2.8707z" fill="#1e1e1e"/><circle cx="118.914" cy="24.464" fill="#264447" r="7.552"/><circle cx="118.914" cy="24.464" r="7.316" stroke="#000" stroke-opacity=".3" stroke-width=".472"/><circle cx="118.914" cy="47.12" fill="#fae3ca" r="7.552"/><circle cx="118.914" cy="47.12" r="7.316" stroke="#000" stroke-opacity=".3" stroke-width=".472"/><rect fill="#fae3ca" height="71.208" rx=".944" width="183.5" x="200" y=".187988"/><path d="m258.679 48.292h3.136l2.406-6.8532h9.525l2.406 6.8532h3.137l-8.828-23.9448h-2.954zm10.172-20.0784h.266l3.75 10.6863h-7.766zm19.017 20.3937c2.406 0 4.281-1.0454 5.409-2.9537h.266v2.6384h2.887v-12.2462c0-3.717-2.439-5.9572-6.804-5.9572-3.816 0-6.537 1.8917-7.002 4.6961l-.017.0995h2.888l.016-.0497c.465-1.3939 1.875-2.1904 4.016-2.1904 2.672 0 4.016 1.1947 4.016 3.4017v1.6262l-5.128.3153c-4.165.2489-6.521 2.0908-6.521 5.2768v.0332c0 3.2523 2.572 5.31 5.974 5.31zm-3.021-5.3764v-.0332c0-1.7755 1.195-2.738 3.917-2.9039l4.779-.2987v1.6262c0 2.5554-2.141 4.4803-5.078 4.4803-2.074 0-3.618-1.062-3.618-2.8707z" fill="#1e1e1e"/><circle cx="318.414" cy="24.464" fill="#264447" r="7.552"/><circle cx="318.414" cy="24.464" r="7.316" stroke="#000" stroke-opacity=".3" stroke-width=".472"/><circle cx="318.414" cy="47.12" fill="#ffc78a" r="7.552"/><circle cx="318.414" cy="47.12" r="7.316" stroke="#000" stroke-opacity=".3" stroke-width=".472"/><rect fill="#000" height="71.208" rx=".944" width="183.5" x=".5" y="87.396"/><path d="m82.6139 134.5h-9.8069v-1.178c.8629-.055 1.5764-.166 2.1406-.332.5752-.166.8629-.371.8629-.614 0-.1-.0111-.221-.0332-.365-.0222-.144-.0553-.271-.0996-.382l-1.9581-5.277h-8.247c-.3098.775-.5642 1.45-.7634 2.025-.188.575-.3595 1.106-.5144 1.593-.1438.476-.2433.863-.2987 1.161-.0553.299-.0829.543-.0829.731 0 .442.3484.785 1.0454 1.028.6969.244 1.4824.388 2.3563.432v1.178h-8.8611v-1.178c.2877-.022.6472-.083 1.0786-.183.4315-.11.7855-.254 1.062-.431.4425-.299.7855-.609 1.0288-.929.2434-.332.4813-.786.7136-1.361 1.1837-2.954 2.489-6.273 3.9161-9.956 1.4271-3.684 2.6992-6.964 3.8166-9.84h1.3275l7.8488 20.31c.1659.432.354.78.5642 1.046.2102.265.5033.525.8795.78.2544.155.5863.287.9956.398.4093.099.7522.155 1.0288.166zm-9.4916-9.624-3.5677-9.127-3.5013 9.127zm25.405 9.325c-.5199.188-.979.338-1.3773.448-.3872.122-.8297.183-1.3275.183-.8628 0-1.5543-.199-2.0742-.598-.5089-.409-.8352-1.001-.979-1.775h-.0996c-.719.796-1.4934 1.405-2.3231 1.825-.8186.421-1.8087.631-2.9703.631-1.2279 0-2.2401-.376-3.0366-1.129-.7855-.752-1.1782-1.736-1.1782-2.953 0-.631.0885-1.195.2655-1.693s.4425-.946.7965-1.344c.2766-.332.6416-.625 1.0952-.879.4535-.266.8795-.476 1.2777-.631.4978-.188 1.5045-.536 3.0201-1.045 1.5266-.509 2.5554-.907 3.0864-1.195v-1.643c0-.144-.0332-.42-.0996-.83-.0553-.409-.1825-.796-.3816-1.161-.2213-.409-.5365-.763-.9459-1.062-.3982-.31-.9679-.465-1.7091-.465-.5089 0-.9846.089-1.4271.266-.4314.166-.7356.343-.9126.531 0 .221.0497.547.1493.979.1106.431.1659.829.1659 1.195 0 .387-.177.741-.531 1.062-.3429.32-.8241.481-1.4436.481-.5531 0-.9624-.194-1.2279-.581-.2545-.398-.3817-.841-.3817-1.328 0-.508.177-.995.531-1.46.3651-.464.8352-.879 1.4105-1.244.4978-.31 1.1007-.57 1.8087-.78.708-.221 1.3994-.332 2.0742-.332.9293 0 1.7368.066 2.4227.199.6969.122 1.3275.393 1.8917.813.5642.409.9901.968 1.2777 1.676.2987.697.448 1.599.448 2.705 0 1.582-.0166 2.987-.0498 4.215-.0331 1.217-.0497 2.55-.0497 3.999 0 .431.0719.774.2157 1.029.1549.254.3872.47.6969.647.166.099.4259.155.7799.166.3651.011.7357.016 1.1118.016zm-5.7912-8.761c-.9403.276-1.7645.547-2.4725.813-.708.265-1.3662.597-1.9746.996-.5532.376-.9901.824-1.3109 1.344-.3209.508-.4813 1.117-.4813 1.825 0 .918.2379 1.593.7136 2.024.4867.432 1.1007.648 1.8419.648.7854 0 1.4768-.189 2.0742-.565.5974-.387 1.1007-.84 1.51-1.36z" fill="#fff"/><circle cx="117.914" cy="111.672" fill="#fff" r="7.552"/><circle cx="117.914" cy="111.672" r="7.316" stroke="#000" stroke-opacity=".3" stroke-width=".472"/><circle cx="117.914" cy="134.328" fill="#68e58b" r="7.552"/><circle cx="117.914" cy="134.328" r="7.316" stroke="#000" stroke-opacity=".3" stroke-width=".472"/><rect fill="#424cbf" height="71.208" rx=".944" width="183.5" x="200" y="87.396"/><path d="m258.679 135.5h3.136l2.406-6.853h9.525l2.406 6.853h3.137l-8.828-23.945h-2.954zm10.172-20.078h.266l3.75 10.686h-7.766zm19.017 20.393c2.406 0 4.281-1.045 5.409-2.953h.266v2.638h2.887v-12.246c0-3.717-2.439-5.957-6.804-5.957-3.816 0-6.537 1.891-7.002 4.696l-.017.099h2.888l.016-.05c.465-1.393 1.875-2.19 4.016-2.19 2.672 0 4.016 1.195 4.016 3.402v1.626l-5.128.315c-4.165.249-6.521 2.091-6.521 5.277v.033c0 3.253 2.572 5.31 5.974 5.31zm-3.021-5.376v-.033c0-1.776 1.195-2.738 3.917-2.904l4.779-.299v1.626c0 2.556-2.141 4.481-5.078 4.481-2.074 0-3.618-1.062-3.618-2.871z" fill="#fff"/><circle cx="318.414" cy="111.672" fill="#fff" r="7.552"/><circle cx="318.414" cy="111.672" r="7.316" stroke="#000" stroke-opacity=".3" stroke-width=".472"/><circle cx="318.414" cy="134.328" fill="#1de7f4" r="7.552"/><circle cx="318.414" cy="134.328" r="7.316" stroke="#000" stroke-opacity=".3" stroke-width=".472"/><rect fill="#64589e" height="71.208" rx=".944" width="183.5" x=".5" y="174.604"/><path d="m74.2275 222.708h3.0864l-7.7161-23.945h-3.1196l-7.7161 23.945h2.9703l2.0908-6.87h8.3301zm-6.2724-20.427h.0829l3.352 11.052h-6.8035zm19.2653 20.742c2.6218 0 4.5799-1.078 5.4427-3.003h.2821v2.705h2.6882v-12.33c0-3.75-2.4227-5.907-6.6541-5.907-3.6838 0-6.4715 1.975-6.8034 4.862h2.7712c.4646-1.543 1.9248-2.423 3.999-2.423 2.5057 0 3.883 1.245 3.883 3.502v1.626l-4.945.249c-4.0986.215-6.3885 2.107-6.3885 5.293 0 3.269 2.2899 5.426 5.7248 5.426zm.8131-2.472c-2.2734 0-3.6838-1.162-3.6838-3.053 0-1.876 1.3275-2.954 3.8497-3.07l4.6297-.216v2.124c0 2.406-2.0742 4.215-4.7956 4.215z" fill="#fff"/><circle cx="119.414" cy="198.88" fill="#fff" r="7.552"/><circle cx="119.414" cy="198.88" r="7.316" stroke="#000" stroke-opacity=".3" stroke-width=".472"/><circle cx="119.414" cy="221.536" fill="#000" r="7.552"/><circle cx="119.414" cy="221.536" r="7.316" stroke="#000" stroke-opacity=".3" stroke-width=".472"/><rect fill="#b5afd0" height="71.208" rx=".944" width="183.5" x="200" y="174.604"/><path d="m277.629 218.477-7.201-19.73h-2.373l-7.136 19.348c-.343.962-.658 1.687-.946 2.174-.276.486-.608.829-.995 1.029-.387.199-.924.342-1.61.431v.979h7.202v-.979c-.852-.111-1.471-.271-1.859-.481-.376-.21-.564-.553-.564-1.029.011-.476.172-1.156.481-2.041l5.709-16.577h-.432l5.924 16.859c.288.797.421 1.416.398 1.859-.011.431-.204.752-.58.962-.376.199-.979.348-1.809.448v.979h9.16v-.979c-.642-.089-1.156-.221-1.543-.398-.377-.188-.697-.498-.963-.93-.265-.442-.553-1.084-.863-1.924zm-14.337-4.182h10.67l-.465-1.261h-9.74zm23.879 8.745c1.216 0 2.295-.238 3.235-.714.952-.475 1.649-1.045 2.091-1.709.111.509.31.935.598 1.278.298.343.663.608 1.095.796.431.177.923.266 1.477.266.575 0 1.089-.078 1.543-.232.453-.155.813-.327 1.078-.515v-.896c-.232.1-.525.149-.879.149-.498 0-.924-.154-1.278-.464-.343-.31-.514-.835-.514-1.577v-8.346c0-1.748-.559-3.031-1.676-3.85-1.106-.83-2.583-1.244-4.431-1.244-1.228 0-2.345.16-3.352.481-.995.321-1.792.763-2.389 1.327s-.896 1.217-.896 1.958c0 .52.177.952.531 1.295.365.331.796.497 1.294.497.52 0 .957-.166 1.311-.497.354-.332.531-.742.531-1.228 0-.487-.166-.902-.498-1.245s-.724-.514-1.178-.514c-.42 0-.791.193-1.112.581-.321.376-.486.84-.498 1.393h.664c.133-.564.41-1.039.83-1.427.42-.398.94-.697 1.56-.896.619-.21 1.3-.315 2.041-.315 1.206 0 2.185.304 2.937.913.752.608 1.128 1.67 1.128 3.186v8.114c-.365.542-.857.968-1.477 1.278-.608.298-1.299.448-2.074.448-.918 0-1.681-.26-2.29-.78-.597-.531-.896-1.267-.896-2.207 0-.929.332-1.682.996-2.257.675-.586 1.842-1.067 3.501-1.444l3.535-.763v-1.195l-5.012 1.096c-1.493.32-2.71.713-3.65 1.178-.93.464-1.61 1.023-2.041 1.676-.432.641-.648 1.399-.648 2.273 0 1.217.46 2.213 1.378 2.987.918.763 2.063 1.145 3.435 1.145z" fill="#000"/><circle cx="318.414" cy="198.88" fill="#fff" r="7.552"/><circle cx="318.414" cy="198.88" r="7.316" stroke="#000" stroke-opacity=".3" stroke-width=".472"/><circle cx="318.414" cy="221.536" fill="#7e62ff" r="7.552"/><circle cx="318.414" cy="221.536" r="7.316" stroke="#000" stroke-opacity=".3" stroke-width=".472"/></svg>