<svg xmlns="http://www.w3.org/2000/svg" width="128" height="128" fill="none" viewBox="0 0 128 128"><g clip-path="url(#clip0_2903_10711)"><rect width="103.619" height="103.619" x="12.19" y="12.19" fill="#2C3338" rx="12.191"/><path fill="#fff" fill-rule="evenodd" d="M41.0267 48C43.5578 48 45.7817 49.6716 46.4747 52.0949L53.3269 76.056C53.3338 76.0803 53.345 76.1024 53.3595 76.1217L61.4773 48H66.0185H78.5719C87.3706 48 93.2686 53.6986 93.2686 62.3257C93.2686 71.0518 87.2159 76.4932 78.1851 76.4932H72.2291H64.5542L63.0631 81.0876C61.7259 85.208 57.8723 88 53.5226 88C49.1729 88 45.3193 85.208 43.9821 81.0876L35.6366 55.3722C34.4548 51.7307 37.1825 48 41.0267 48ZM67.3283 67.9452H76.0193C79.7902 67.9452 82.0527 65.7884 82.0527 62.3257C82.0527 58.8432 79.7902 56.7854 76.0193 56.7854H70.95L67.3283 67.9452Z" clip-rule="evenodd"/><path fill="#069E08" d="M104.684 46.7302C117.589 46.7302 128.049 36.2693 128.049 23.3651C128.049 10.4609 117.589 0 104.684 0C91.7802 0 81.3193 10.4609 81.3193 23.3651C81.3193 36.2693 91.7802 46.7302 104.684 46.7302Z"/><path fill="#fff" d="M105.844 19.4412V42.0928L117.526 19.4412H105.844Z"/><path fill="#fff" d="M103.481 27.2443V4.63721L91.843 27.2443H103.481Z"/></g><defs><clipPath id="clip0_2903_10711"><rect width="128" height="128" fill="#fff"/></clipPath></defs></svg>