<svg fill="none" height="128" viewBox="0 0 128 128" width="128" xmlns="http://www.w3.org/2000/svg" xmlns:xlink="http://www.w3.org/1999/xlink"><clipPath id="a"><path d="m0 0h128v128h-128z"/></clipPath><g clip-path="url(#a)"><rect fill="#2c3338" height="103.619" rx="12.1905" width="103.619" x="12.1904" y="12.1904"/><path clip-rule="evenodd" d="m41.0267 48c2.5311 0 4.755 1.6716 5.448 4.0949l6.8522 23.9611c.0069.0243.0181.0464.0326.0657l8.1178-28.1217h4.5412 12.5534c8.7987 0 14.6967 5.6986 14.6967 14.3257 0 8.7261-6.0527 14.1675-15.0835 14.1675h-5.956-7.6749l-1.4911 4.5944c-1.3372 4.1204-5.1908 6.9124-9.5405 6.9124s-8.2033-2.792-9.5405-6.9124l-8.3455-25.7154c-1.1818-3.6415 1.5459-7.3722 5.3901-7.3722zm26.3016 19.9452h8.691c3.7709 0 6.0334-2.1568 6.0334-5.6195 0-3.4825-2.2625-5.5403-6.0334-5.5403h-5.0693z" fill="#fff" fill-rule="evenodd"/><path d="m104.684 46.7302c12.905 0 23.365-10.4609 23.365-23.3651s-10.46-23.3651-23.365-23.3651c-12.9038 0-23.3647 10.4609-23.3647 23.3651s10.4609 23.3651 23.3647 23.3651z" fill="#069e08"/><g fill="#fff"><path d="m105.844 19.4412v22.6516l11.682-22.6516z"/><path d="m103.481 27.2443v-22.60709l-11.638 22.60709z"/></g></g></svg>