<svg fill="none" height="20" viewBox="0 0 60 59" width="20" xmlns="http://www.w3.org/2000/svg"><path d="m44.8888 0h-30.4799c-7.93898 0-14.4089 6.82696-14.4089 15.2041v28.5918c0 8.3928 6.46992 15.2041 14.4089 15.2041h30.4799c7.9538 0 14.4089-6.827 14.4089-15.2041v-28.5918c0-8.39279-6.4699-15.2041-14.4089-15.2041zm-15.24 28.263c-1.3355 0-2.4187-1.143-2.4187-2.5523 0-1.4092 1.0832-2.5523 2.4187-2.5523 1.3356 0 2.4189 1.1431 2.4189 2.5523 0 1.4093-1.0833 2.5523-2.4189 2.5523zm1.484 2.8811c2.2407-.689 3.9027-2.8498 3.9027-5.4334 0-3.1316-2.4188-5.6839-5.3867-5.6839-2.9678 0-5.3866 2.5523-5.3866 5.6839 0 2.5836 1.662 4.7444 3.9027 5.4334v11.6497c-2.6265-5.1672-6.1583-8.8469-10.5952-10.9607v-14.797c0-.8925.6826-1.6128 1.5284-1.6128h21.0866c.8459 0 1.5285.7203 1.5285 1.6128v14.9066c-4.5705 2.7402-8.1023 6.4355-10.5804 11.0233zm25.197 12.6518c0 6.6547-5.1343 12.0725-11.441 12.0725h-13.756v-4.8228c2.0033-7.5159 6.2918-13.1685 12.7617-16.8012l.7865-.4384v-16.7699c0-2.6149-2.0181-4.7444-4.4963-4.7444h-21.0717c-2.4782 0-4.4963 2.1295-4.4963 4.7444v16.8952l.9348.3914c5.9209 2.4583 10.1649 8.0953 12.6134 16.7386v4.8071h-13.756c-6.30666 0-11.44105-5.4178-11.44105-12.0725v-28.5918c0-6.65474 5.13439-12.07247 11.44105-12.07247h30.4799c6.3067 0 11.441 5.41773 11.441 12.07247z" fill="#000"/></svg>