<svg fill="none" height="21" viewBox="0 0 128 21" width="128" xmlns="http://www.w3.org/2000/svg"><g clip-rule="evenodd" fill="#3858e9" fill-rule="evenodd"><path d="m15.1508 18.5105 2.8652-8.2701c.5355-1.33605.7137-2.40423.7137-3.35415 0-.34488-.0228-.66486-.0633-.96313.7324 1.3338 1.1492 2.86449 1.1492 4.49288 0 3.4548-1.8757 6.4714-4.6648 8.0945zm-3.4208-12.48448c.5648-.0296 1.0737-.08892 1.0737-.08892.5054-.05958.446-.8013-.0597-.7717 0 0-1.5196.11903-2.5006.11903-.92196 0-2.47092-.11903-2.47092-.11903-.50584-.0296-.56514.74185-.0593.7717 0 0 .47848.05932.98381.08892l1.46151 3.99768-2.0535 6.1463-3.41592-10.14398c.56527-.0296 1.07353-.08892 1.07353-.08892.50546-.05958.44565-.8013-.05994-.7717 0 0-1.51931.11903-2.50032.11903-.17587 0-.38342-.00445-.60408-.01144 1.67774-2.54209 4.56109-4.22089 7.83873-4.22089 2.4424 0 4.6663.93213 6.3353 2.45876-.0403-.00254-.08-.00763-.1214-.00763-.9218 0-1.5756.8013-1.5756 1.66217 0 .7717.446 1.4245.9216 2.19645.3567.62371.7733 1.42487.7733 2.58248 0 .80197-.2381 1.81057-.7138 3.02777l-.9359 3.1209zm-1.2966 13.75648c-.92082 0-1.8097-.1351-2.65022-.3815l2.81512-8.1651 2.8835 7.8864c.019.046.0421.0885.0672.129-.9752.3423-2.023.5312-3.1156.5312zm-9.3813-9.3679c0-1.35784.29179-2.64693.81252-3.81139l4.47507 12.23959c-3.12998-1.5178-5.28759-4.7212-5.28759-8.4282zm9.3825-10.4146c-5.7535 0-10.4346 4.67248-10.4346 10.4158 0 5.7439 4.6811 10.4168 10.4346 10.4168 5.7536 0 10.4348-4.6729 10.4348-10.4168 0-5.74332-4.6812-10.4158-10.4348-10.4158z"/><path d="m36.9578 5.95215-2.0807 7.98005-2.0803-7.98005h-2.1003l.4891 1.71018-1.8315 6.53997-1.9918-8.25015h-2.0195l2.839 10.42225h2.2007l1.7006-5.5721 1.5931 5.5721h2.2009l2.98-10.42225zm60.5 10.42185h1.8452v-1.8976h-1.8452zm-55.0958-7.57654c-2.54 0-3.7402 1.63354-3.7402 3.88914s1.2002 3.8737 3.7402 3.8737c2.5246 0 3.7402-1.6181 3.7402-3.8737s-1.2156-3.88914-3.7402-3.88914zm.0022 6.28534c-1.2 0-1.8387-.7776-1.8387-2.3957 0-1.6022.6387-2.3958 1.8387-2.3958s1.8236.7781 1.8236 2.3958c0 1.6026-.6236 2.3957-1.8236 2.3957zm15.775-6.11309c-.5455-.10861-.9351-.17111-1.387-.17111-2.5401 0-3.9271 1.6957-3.9271 4.1692 0 2.4577 1.387 3.5936 3.0234 3.5936.8105 0 1.792-.3736 2.3842-.8713v.6843h1.7452v-10.42225h-1.8387zm-.0005 5.27489c-.5919.5443-1.1531.84-1.7451.84-1.0132 0-1.6677-.6692-1.6677-2.2401 0-1.6957.8103-2.5822 2.2131-2.5822.4361 0 .8882.1087 1.1997.2332zm7.5205-8.29245h-3.4059v10.42225h1.9637v-3.6245h1.4422c2.2286 0 3.8496-1.1978 3.8496-3.43772 0-2.25603-1.621-3.36003-3.8496-3.36003zm.0138 5.27355h-1.4579v-3.73319h1.4579c1.1845 0 1.7769.65318 1.7769 1.82006 0 1.15083-.5454 1.91313-1.7769 1.91313zm13.8194-2.42824c-2.3686 0-3.5996 1.83584-3.5996 3.84234 0 2.7537 1.4486 3.9205 3.7996 3.9205.9504 0 1.7717-.1263 2.7302-.4202v-1.5264c-.7719.2826-1.4683.4529-2.2161.4529-1.3708 0-2.2878-.3733-2.3348-1.9912h4.7375c.0315-.2954.0626-.5753.0626-1.0886 0-1.5558-.8259-3.18934-3.1794-3.18934zm-1.603 3.06644c.1091-1.0268.67-1.6801 1.5892-1.6801.9821 0 1.2781.778 1.2781 1.6801zm7.9782-.8105c0-.5602.6082-.7777 1.2623-.7777 1.0556 0 2.0569.3263 2.0569.3263v-1.52457c-.6854-.20211-1.3868-.27997-2.1969-.27997-1.7767 0-3.0233.84003-3.0233 2.20894 0 2.6602 3.6778 1.976 3.6778 3.267 0 .6378-.5767.8089-1.4182.8089-.5923 0-1.5427-.2307-2.2283-.4686v1.5091c.5708.2242 1.371.4375 2.166.4375 1.7296 0 3.3817-.5136 3.3817-2.3646 0-2.5669-3.678-1.898-3.678-3.1423zm25.5194-2.25594c-2.54 0-3.74 1.63354-3.74 3.88914s1.2 3.8737 3.74 3.8737c2.525 0 3.741-1.6181 3.741-3.8737s-1.216-3.88914-3.741-3.88914zm0 6.28534c-1.2 0-1.839-.7776-1.839-2.3957 0-1.6022.639-2.3958 1.839-2.3958s1.823.7781 1.823 2.3958c0 1.6026-.623 2.3957-1.823 2.3957zm14.259-6.28534c-.794 0-1.698.43558-2.524.98015l-.218.14011c-.39-.82454-1.169-1.12026-2.026-1.12026-.795 0-1.699.40471-2.525.94915v-.7623h-1.745v7.38899h1.854v-5.3045c.686-.451 1.418-.731 1.948-.731.608 0 .982.3265.982 1.369v4.6665h1.839v-5.289c.685-.451 1.418-.7465 1.948-.7465.607 0 .982.3265.982 1.369v4.6665h1.838v-5.1021c0-1.43148-.857-2.47374-2.353-2.47374zm-53.2169 1.40264h-.0622v-1.21337h-1.7143v7.38897h1.8387v-4.4023c.5766-1.0887 1.2779-1.4466 2.4467-1.4466h.1869v-1.60219s-.2647-.03124-.4987-.03124c-.9971 0-1.683.38883-2.1971 1.30673zm-23.0645 0h-.0622v-1.21337h-1.7145v7.38897h1.8391v-4.4023c.5765-1.0887 1.2778-1.4466 2.4465-1.4466h.1872v-1.60219s-.2652-.03124-.4986-.03124c-.9977 0-1.6832.38883-2.1975 1.30673zm52.8934 2.4088c0-1.7267.95-2.3181 2.072-2.3181.748 0 1.535.2181 2.065.4202v-1.55558c-.624-.20235-1.176-.35796-2.096-.35796-2.446 0-3.958 1.49334-3.958 3.90464 0 2.2867 1.091 3.8582 3.849 3.8582.873 0 1.55-.1712 2.298-.4202v-1.5246c-.841.3267-1.488.4511-2.064.4511-1.216 0-2.166-.56-2.166-2.4577zm-9.6967-1.5555c0-.5602.6078-.7777 1.2624-.7777 1.0555 0 2.057.3263 2.057.3263v-1.52457c-.6857-.20211-1.3871-.27997-2.1975-.27997-1.7765 0-3.0233.84003-3.0233 2.20894 0 2.6602 3.6779 1.976 3.6779 3.267 0 .6378-.5767.8089-1.4183.8089-.5922 0-1.5424-.2307-2.2282-.4686v1.5091c.5711.2242 1.3713.4375 2.166.4375 1.7301 0 3.3816-.5136 3.3816-2.3646 0-2.5669-3.6776-1.898-3.6776-3.1423z"/></g></svg>