<svg height="246" viewBox="0 0 575 246" width="575" xmlns="http://www.w3.org/2000/svg" xmlns:xlink="http://www.w3.org/1999/xlink"><defs><path id="a" d="m48.6 191.39c-3.19 0-5.77-2.58-5.77-5.77s2.58-5.77 5.77-5.77c3.18 0 5.77 2.58 5.77 5.77s-2.59 5.77-5.77 5.77z"/><mask id="b" fill="#fff" height="11.54" width="11.54" x="0" y="0"><use xlink:href="#a"/></mask><circle id="c" cx="46.63" cy="6.25" r="3.37"/><mask id="d" fill="#fff" height="6.73" width="6.73" x="0" y="0"><use xlink:href="#c"/></mask><path id="e" d="m25.13 9.62c-.06 0-.13-.02-.18-.05l-5.06-3.01c-.11-.06-.18-.18-.18-.31s.07-.25.18-.31l5.06-3.01c.11-.06.24-.06.35 0 .11.07.18.19.18.31v6.01c0 .13-.07.25-.18.32-.05.03-.11.05-.17.05z"/><mask id="f" fill="#fff" height="6.73" width="5.77" x="0" y="0"><use xlink:href="#e"/></mask><rect id="g" height="6.73" rx="2" width="6.73" x="67.31" y="2.88"/><mask id="h" fill="#fff" height="6.73" width="6.73" x="0" y="0"><use xlink:href="#g"/></mask><path id="i" d="m0 0h271.81v183.51h-271.81z"/><mask id="j" fill="#fff"><use fill="#fff" fill-rule="evenodd" xlink:href="#i"/></mask></defs><g fill="none" fill-rule="evenodd"><g transform="translate(3.365385 65.711538)"><path d="m.96 3.37h91.35v162.5h-91.35z" fill="#fff"/><path d="m0 0h93.27v20.67h-93.27z" fill="#46799a"/><g fill="#969ca1"><path d="m12.5 30.288462h28.85v4.81h-28.85z"/><path d="m46.15 30.288462h9.62v4.81h-9.62z"/><path d="m60.58 30.288462h14.42v4.81h-14.42z"/><path d="m12.5 39.908462h14.42v4.81h-14.42z"/><path d="m31.73 39.908462h38.46v4.81h-38.46z"/><path d="m12.5 49.518462h19.23v4.81h-19.23z"/><path d="m36.54 49.518462h24.04v4.81h-24.04z"/><path d="m65.38 49.518462h9.62v4.81h-9.62z"/><path d="m12.5 59.138462h9.62v4.81h-9.62z"/><path d="m26.92 59.138462h24.04v4.81h-24.04z"/></g></g><path d="m5.288462 175.326923h89.42v54.33h-89.42z" fill="#b0b5b8"/><g fill="#fff"><rect height="9.62" rx="4" width="33.65" x="33.168462" y="213.786923"/><g><rect height="9.62" rx="4" width="9.62" x="21.153847" y="201.769231"/><rect height="9.62" rx="4" width="9.62" x="33.173847" y="201.769231"/><rect height="9.62" rx="4" width="9.62" x="45.193847" y="201.769231"/><rect height="9.62" rx="4" width="9.62" x="57.213847" y="201.769231"/><rect height="9.62" rx="4" width="9.62" x="69.233847" y="201.769231"/></g><g><rect height="9.62" rx="4" width="9.62" x="15.384616" y="189.75"/><rect height="9.62" rx="4" width="9.62" x="27.404616" y="189.75"/><rect height="9.62" rx="4" width="9.62" x="39.424616" y="189.75"/><rect height="9.62" rx="4" width="9.62" x="51.444616" y="189.75"/><rect height="9.62" rx="4" width="9.62" x="63.464616" y="189.75"/><rect height="9.62" rx="4" width="9.62" x="75.484616" y="189.75"/></g><g><rect height="9.62" rx="4" width="9.62" x="9.134616" y="177.730769"/><rect height="9.62" rx="4" width="9.62" x="21.154616" y="177.730769"/><rect height="9.62" rx="4" width="9.62" x="33.174616" y="177.730769"/><rect height="9.62" rx="4" width="9.62" x="45.194616" y="177.730769"/><rect height="9.62" rx="4" width="9.62" x="57.214616" y="177.730769"/><rect height="9.62" rx="4" width="9.62" x="69.234616" y="177.730769"/><rect height="9.62" rx="4" width="9.62" x="81.254616" y="177.730769"/></g></g><g transform="translate(.961538 50.807692)"><path d="m84.62 0h-71.16c-7.4 0-13.46 6.06-13.46 13.46v167.31c0 7.4 6.06 13.46 13.46 13.46h71.16c7.4 0 13.46-6.06 13.46-13.46v-167.31c0-7.4-6.06-13.46-13.46-13.46zm-78.85 18.27h86.54v156.73h-86.54z" fill="#f6f6f6"/><use mask="url(#b)" stroke="#4f748e" stroke-width="4" xlink:href="#a"/><path d="m41.35 6.73h15.38c.53 0 .96.43.96.96s-.43.96-.96.96h-15.38c-.53 0-.97-.43-.97-.96s.44-.96.97-.96z" fill="#4f748e"/></g><g transform="translate(477.884615 60.903846)"><path d="m.96 3.37h91.35v162.5h-91.35z" fill="#fff"/><path d="m0 0h93.27v20.67h-93.27z" fill="#46799a"/><g fill="#969ca1"><path d="m12.5 30.288462h28.85v4.81h-28.85z"/><path d="m46.15 30.288462h9.62v4.81h-9.62z"/><path d="m60.58 30.288462h14.42v4.81h-14.42z"/><path d="m12.5 39.908462h14.42v4.81h-14.42z"/><path d="m31.73 39.908462h38.46v4.81h-38.46z"/><path d="m12.5 49.518462h19.23v4.81h-19.23z"/><path d="m36.54 49.518462h24.04v4.81h-24.04z"/><path d="m65.38 49.518462h9.62v4.81h-9.62z"/><path d="m12.5 59.138462h9.62v4.81h-9.62z"/><path d="m26.92 59.138462h24.04v4.81h-24.04z"/></g></g><path d="m477.403846 163.788461h93.75v53.37h-93.75z" fill="#4f748e"/><rect fill="#fff" height="9.62" rx="4" width="33.65" x="507.693846" y="202.248461"/><g fill="#fff"><rect height="9.62" rx="4" width="9.62" x="495.673077" y="190.230769"/><rect height="9.62" rx="4" width="9.62" x="507.693077" y="190.230769"/><rect height="9.62" rx="4" width="9.62" x="519.713077" y="190.230769"/><rect height="9.62" rx="4" width="9.62" x="531.733077" y="190.230769"/><rect height="9.62" rx="4" width="9.62" x="543.753077" y="190.230769"/></g><g fill="#fff"><rect height="9.62" rx="4" width="9.62" x="489.903846" y="178.211538"/><rect height="9.62" rx="4" width="9.62" x="501.923846" y="178.211538"/><rect height="9.62" rx="4" width="9.62" x="513.943846" y="178.211538"/><rect height="9.62" rx="4" width="9.62" x="525.963846" y="178.211538"/><rect height="9.62" rx="4" width="9.62" x="537.983846" y="178.211538"/><rect height="9.62" rx="4" width="9.62" x="550.003846" y="178.211538"/></g><g fill="#fff"><rect height="9.62" rx="4" width="9.62" x="483.653846" y="166.192307"/><rect height="9.62" rx="4" width="9.62" x="495.673846" y="166.192307"/><rect height="9.62" rx="4" width="9.62" x="507.693846" y="166.192307"/><rect height="9.62" rx="4" width="9.62" x="519.713846" y="166.192307"/><rect height="9.62" rx="4" width="9.62" x="531.733846" y="166.192307"/><rect height="9.62" rx="4" width="9.62" x="543.753846" y="166.192307"/><rect height="9.62" rx="4" width="9.62" x="555.773846" y="166.192307"/></g><g transform="translate(477.884615 214.269231)"><path d="m0 0h93.27v15.38h-93.27z" fill="#3d4145"/><g stroke="#fff" stroke-width="4"><use mask="url(#d)" xlink:href="#c"/><use mask="url(#f)" xlink:href="#e"/><use mask="url(#h)" xlink:href="#g"/></g></g><g transform="translate(475 46)"><path d="m85.44 0h-71.85c-7.47 0-13.59 6.21-13.59 13.79v171.45c0 7.59 6.12 13.8 13.59 13.8h71.85c7.48 0 13.6-6.21 13.6-13.8v-171.45c0-7.58-6.12-13.79-13.6-13.79zm-81.59 18.27h91.34v162.5h-91.34zm30.71-11.06h29.92c1.03 0 1.87.65 1.87 1.44 0 .8-.84 1.45-1.87 1.45h-29.92c-1.03 0-1.87-.65-1.87-1.45 0-.79.84-1.44 1.87-1.44zm0 181.73h29.92c1.03 0 1.87.65 1.87 1.44 0 .8-.84 1.45-1.87 1.45h-29.92c-1.03 0-1.87-.65-1.87-1.45 0-.79.84-1.44 1.87-1.44z" fill="#f6f6f6"/><g fill="#4f748e"><circle cx="19.71" cy="8.65" r="1.44"/><g><path d="m99.038462 51.442308h.96v12.5h-.96z"/><path d="m99.038462 75.482308h.96v25h-.96z"/></g></g></g><g transform="translate(109)"><rect fill="#e3e2e3" height="232.36" rx="20" width="322.78" x="16.99"/><path d="m0 224.71v11.89c0 4.7 3.8 8.5 8.49 8.5h339.77c4.69 0 8.5-3.8 8.5-8.5v-11.89z" fill="#f6f6f6"/><path d="m139.31 224.71h78.15v4.25h-78.15z" fill="#969ca1"/><path d="m30.61 15h297.38v203.98h-297.38z" fill="#bbc9d5"/><g transform="translate(42.471042 32.708512)"><use fill="#bbc9d5" xlink:href="#i"/><rect fill="#f6f6f6" fill-opacity=".8" height="36.11" mask="url(#j)" rx="8" width="144.4" x="63.71" y="149.52"/><g fill="#969ca1"><rect height="16.99" mask="url(#j)" rx="4" width="21.24" x="72.2" y="158.02"/><path d="m151.62 155.9 10.62 21.24h-21.24z" mask="url(#j)"/><ellipse cx="186.87" cy="166.52" mask="url(#j)" rx="12.74" ry="12.74"/></g><g mask="url(#j)"><g transform="translate(104.478764 149.524628)"><ellipse cx="12.74" cy="16.99" fill="#6f93ad" rx="12.74" ry="12.74"/><path d="m17.92 25.9 3.15-9.1c.59-1.47.79-2.65.79-3.7 0-.38-.03-.73-.07-1.06.8 1.47 1.26 3.16 1.26 4.95 0 3.81-2.06 7.13-5.13 8.91zm-3.76-13.74c.62-.04 1.18-.1 1.18-.1.56-.07.49-.88-.06-.85 0 0-1.67.13-2.75.13-1.01 0-2.72-.13-2.72-.13-.55-.03-.62.82-.06.85 0 0 .52.06 1.08.1l1.6 4.4-2.25 6.77-3.76-11.17c.63-.04 1.18-.1 1.18-.1.56-.07.49-.88-.06-.85 0 0-1.67.13-2.75.13-.19 0-.42-.01-.66-.01 1.84-2.8 5.01-4.65 8.61-4.65 2.69 0 5.13 1.03 6.96 2.71-.04-.01-.08-.01-.13-.01-1.01 0-1.73.88-1.73 1.83 0 .85.49 1.57 1.01 2.42.39.68.85 1.57.85 2.84 0 .88-.26 1.99-.78 3.33l-1.03 3.44zm-1.42 15.14c-1.01 0-1.99-.15-2.91-.42l3.09-8.99 3.17 8.69c.02.05.05.09.07.14-1.07.38-2.22.58-3.42.58zm-10.31-10.31c0-1.49.32-2.91.89-4.2l4.92 13.48c-3.44-1.67-5.81-5.2-5.81-9.28zm10.31-11.47c-6.32 0-11.47 5.15-11.47 11.47 0 6.33 5.15 11.47 11.47 11.47s11.47-5.14 11.47-11.47c0-6.32-5.15-11.47-11.47-11.47z" fill="#fff"/></g></g></g><g transform="translate(82.393822 36.956371)"><rect fill="#f6f6f6" height="126.59" rx="8" width="191.97"/><path d="m191.97 0v104.99c0 4.42-3.58 8-8.01 8h-175.96c-4.42 0-8-3.58-8-8v-104.99z" fill="#fff" transform="translate(0 13.593148)"/><path d="m0 13.59h191.97v15.29h-191.97z" fill="#46799a"/><path d="m7.64 9.35c-1.4 0-2.54-1.15-2.54-2.55 0-1.41 1.14-2.55 2.54-2.55 1.41 0 2.55 1.14 2.55 2.55 0 1.4-1.14 2.55-2.55 2.55zm16.99 0c-1.4 0-2.55-1.15-2.55-2.55 0-1.41 1.15-2.55 2.55-2.55 1.41 0 2.55 1.14 2.55 2.55 0 1.4-1.14 2.55-2.55 2.55zm-8.49 0c-1.41 0-2.55-1.15-2.55-2.55 0-1.41 1.14-2.55 2.55-2.55s2.55 1.14 2.55 2.55c0 1.4-1.14 2.55-2.55 2.55z" fill="#4f748e"/></g><path d="m26.48 11h303.04v208.89h-303.04zm4.1 4.1h294.85v200.28h-294.85z" fill="#e3e2e3"/></g></g></svg>