<svg width="128" height="21" viewBox="0 0 128 21" fill="none" xmlns="http://www.w3.org/2000/svg">
<path fill-rule="evenodd" clip-rule="evenodd" d="M15.1508 18.5105L18.016 10.2404C18.5515 8.90435 18.7297 7.83617 18.7297 6.88625C18.7297 6.54137 18.7069 6.22139 18.6664 5.92312C19.3988 7.25692 19.8156 8.78761 19.8156 10.416C19.8156 13.8708 17.9399 16.8874 15.1508 18.5105ZM11.73 6.02602C12.2948 5.99642 12.8037 5.9371 12.8037 5.9371C13.3091 5.87752 13.2497 5.1358 12.744 5.1654C12.744 5.1654 11.2244 5.28443 10.2434 5.28443C9.32144 5.28443 7.77248 5.1654 7.77248 5.1654C7.26664 5.1358 7.20734 5.90725 7.71318 5.9371C7.71318 5.9371 8.19166 5.99642 8.69699 6.02602L10.1585 10.0237L8.105 16.17L4.68908 6.02602C5.25435 5.99642 5.76261 5.9371 5.76261 5.9371C6.26807 5.87752 6.20826 5.1358 5.70267 5.1654C5.70267 5.1654 4.18336 5.28443 3.20235 5.28443C3.02648 5.28443 2.81893 5.27998 2.59827 5.27299C4.27601 2.7309 7.15936 1.0521 10.437 1.0521C12.8794 1.0521 15.1033 1.98423 16.7723 3.51086C16.732 3.50832 16.6923 3.50323 16.6509 3.50323C15.7291 3.50323 15.0753 4.30453 15.0753 5.1654C15.0753 5.9371 15.5213 6.5899 15.9969 7.36185C16.3536 7.98556 16.7702 8.78672 16.7702 9.94433C16.7702 10.7463 16.5321 11.7549 16.0564 12.9721L15.1205 16.093L11.73 6.02602ZM10.4334 19.7825C9.51258 19.7825 8.6237 19.6474 7.78318 19.401L10.5983 11.2359L13.4818 19.1223C13.5008 19.1683 13.5239 19.2108 13.549 19.2513C12.5738 19.5936 11.526 19.7825 10.4334 19.7825ZM1.0521 10.4146C1.0521 9.05676 1.34389 7.76767 1.86462 6.60321L6.33969 18.8428C3.20971 17.325 1.0521 14.1216 1.0521 10.4146ZM10.4346 0C4.6811 0 0 4.67248 0 10.4158C0 16.1597 4.6811 20.8326 10.4346 20.8326C16.1882 20.8326 20.8694 16.1597 20.8694 10.4158C20.8694 4.67248 16.1882 0 10.4346 0Z" fill="#3858E9"/>
<path fill-rule="evenodd" clip-rule="evenodd" d="M36.9578 5.95215L34.8771 13.9322L32.7968 5.95215H30.6965L31.1856 7.66233L29.3541 14.2023L27.3623 5.95215H25.3428L28.1818 16.3744H30.3825L32.0831 10.8023L33.6762 16.3744H35.8771L38.8571 5.95215H36.9578ZM97.4578 16.374H99.303V14.4764H97.4578V16.374ZM42.362 8.79746C39.822 8.79746 38.6218 10.431 38.6218 12.6866C38.6218 14.9422 39.822 16.5603 42.362 16.5603C44.8866 16.5603 46.1022 14.9422 46.1022 12.6866C46.1022 10.431 44.8866 8.79746 42.362 8.79746ZM42.3642 15.0828C41.1642 15.0828 40.5255 14.3052 40.5255 12.6871C40.5255 11.0849 41.1642 10.2913 42.3642 10.2913C43.5642 10.2913 44.1878 11.0694 44.1878 12.6871C44.1878 14.2897 43.5642 15.0828 42.3642 15.0828ZM58.1392 8.96971C57.5937 8.8611 57.2041 8.7986 56.7522 8.7986C54.2121 8.7986 52.8251 10.4943 52.8251 12.9678C52.8251 15.4255 54.2121 16.5614 55.8485 16.5614C56.659 16.5614 57.6405 16.1878 58.2327 15.6901V16.3744H59.9779V5.95215H58.1392V8.96971ZM58.1387 14.2446C57.5468 14.7889 56.9856 15.0846 56.3936 15.0846C55.3804 15.0846 54.7259 14.4154 54.7259 12.8445C54.7259 11.1488 55.5362 10.2623 56.939 10.2623C57.3751 10.2623 57.8272 10.371 58.1387 10.4955V14.2446ZM65.6592 5.95215H62.2533V16.3744H64.217V12.7499H65.6592C67.8878 12.7499 69.5088 11.5521 69.5088 9.31218C69.5088 7.05615 67.8878 5.95215 65.6592 5.95215ZM65.673 11.2257H64.2151V7.49251H65.673C66.8575 7.49251 67.4499 8.14569 67.4499 9.31257C67.4499 10.4634 66.9045 11.2257 65.673 11.2257ZM79.4924 8.79746C77.1238 8.79746 75.8928 10.6333 75.8928 12.6398C75.8928 15.3935 77.3414 16.5603 79.6924 16.5603C80.6428 16.5603 81.4641 16.434 82.4226 16.1401V14.6137C81.6507 14.8963 80.9543 15.0666 80.2065 15.0666C78.8357 15.0666 77.9187 14.6933 77.8717 13.0754H82.6092C82.6407 12.78 82.6718 12.5001 82.6718 11.9868C82.6718 10.431 81.8459 8.79746 79.4924 8.79746ZM77.8894 11.8639C77.9985 10.8371 78.5594 10.1838 79.4786 10.1838C80.4607 10.1838 80.7567 10.9618 80.7567 11.8639H77.8894ZM85.8676 11.0534C85.8676 10.4932 86.4758 10.2757 87.1299 10.2757C88.1855 10.2757 89.1868 10.602 89.1868 10.602V9.07743C88.5014 8.87532 87.8 8.79746 86.9899 8.79746C85.2132 8.79746 83.9666 9.63749 83.9666 11.0064C83.9666 13.6666 87.6444 12.9824 87.6444 14.2734C87.6444 14.9112 87.0677 15.0823 86.2262 15.0823C85.6339 15.0823 84.6835 14.8516 83.9979 14.6137V16.1228C84.5687 16.347 85.3689 16.5603 86.1639 16.5603C87.8935 16.5603 89.5456 16.0467 89.5456 14.1957C89.5456 11.6288 85.8676 12.2977 85.8676 11.0534ZM111.387 8.79746C108.847 8.79746 107.647 10.431 107.647 12.6866C107.647 14.9422 108.847 16.5603 111.387 16.5603C113.912 16.5603 115.128 14.9422 115.128 12.6866C115.128 10.431 113.912 8.79746 111.387 8.79746ZM111.387 15.0828C110.187 15.0828 109.548 14.3052 109.548 12.6871C109.548 11.0849 110.187 10.2913 111.387 10.2913C112.587 10.2913 113.21 11.0694 113.21 12.6871C113.21 14.2897 112.587 15.0828 111.387 15.0828ZM125.646 8.79746C124.852 8.79746 123.948 9.23304 123.122 9.77761L122.904 9.91772C122.514 9.09318 121.735 8.79746 120.878 8.79746C120.083 8.79746 119.179 9.20217 118.353 9.74661V8.98431H116.608V16.3733H118.462V11.0688C119.148 10.6178 119.88 10.3378 120.41 10.3378C121.018 10.3378 121.392 10.6643 121.392 11.7068V16.3733H123.231V11.0843C123.916 10.6333 124.649 10.3378 125.179 10.3378C125.786 10.3378 126.161 10.6643 126.161 11.7068V16.3733H127.999V11.2712C127.999 9.83972 127.142 8.79746 125.646 8.79746ZM72.4291 10.2001H72.3669V8.98673H70.6526V16.3757H72.4913V11.9734C73.0679 10.8847 73.7692 10.5268 74.938 10.5268H75.1249V8.92461C75.1249 8.92461 74.8602 8.89337 74.6262 8.89337C73.6291 8.89337 72.9432 9.2822 72.4291 10.2001ZM49.3646 10.2001H49.3024V8.98673H47.5879V16.3757H49.427V11.9734C50.0035 10.8847 50.7048 10.5268 51.8735 10.5268H52.0607V8.92461C52.0607 8.92461 51.7955 8.89337 51.5621 8.89337C50.5644 8.89337 49.8789 9.2822 49.3646 10.2001ZM102.258 12.6089C102.258 10.8822 103.208 10.2908 104.33 10.2908C105.078 10.2908 105.865 10.5089 106.395 10.711V9.15542C105.771 8.95307 105.219 8.79746 104.299 8.79746C101.853 8.79746 100.341 10.2908 100.341 12.7021C100.341 14.9888 101.432 16.5603 104.19 16.5603C105.063 16.5603 105.74 16.3891 106.488 16.1401V14.6155C105.647 14.9422 105 15.0666 104.424 15.0666C103.208 15.0666 102.258 14.5066 102.258 12.6089ZM92.5613 11.0534C92.5613 10.4932 93.1691 10.2757 93.8237 10.2757C94.8792 10.2757 95.8807 10.602 95.8807 10.602V9.07743C95.195 8.87532 94.4936 8.79746 93.6832 8.79746C91.9067 8.79746 90.6599 9.63749 90.6599 11.0064C90.6599 13.6666 94.3378 12.9824 94.3378 14.2734C94.3378 14.9112 93.7611 15.0823 92.9195 15.0823C92.3273 15.0823 91.3771 14.8516 90.6913 14.6137V16.1228C91.2624 16.347 92.0626 16.5603 92.8573 16.5603C94.5874 16.5603 96.2389 16.0467 96.2389 14.1957C96.2389 11.6288 92.5613 12.2977 92.5613 11.0534Z" fill="#3858E9"/>
</svg>
