<svg xmlns="http://www.w3.org/2000/svg" viewBox="0 0 24 24"><g><path d="M12 2C6.477 2 2 6.477 2 12s4.477 10 10 10 10-4.477 10-10S17.523 2 12 2m4.586 14.424a.622.622 0 01-.857.207c-2.348-1.435-5.304-1.76-8.785-.964a.622.622 0 11-.277-1.215c3.809-.871 7.077-.496 9.713 1.115a.623.623 0 01.206.857M17.81 13.7a.78.78 0 01-1.072.257c-2.687-1.652-6.785-2.131-9.965-1.166A.779.779 0 116.32 11.3c3.632-1.102 8.147-.568 11.234 1.328a.78.78 0 01.256 1.072m.105-2.835c-3.223-1.914-8.54-2.09-11.618-1.156a.935.935 0 11-.542-1.79c3.532-1.072 9.404-.865 13.115 1.338a.936.936 0 11-.955 1.608"/></g></svg>