<svg xmlns="http://www.w3.org/2000/svg" viewBox="0 0 24 24"><g><path d="M19 3H5c-1.105 0-2 .895-2 2v14c0 1.105.895 2 2 2h14c1.105 0 2-.895 2-2V5c0-1.105-.895-2-2-2zm-2.534 6.71c.004.1.007.198.007.298 0 3.045-2.318 6.556-6.556 6.556-1.3 0-2.512-.38-3.532-1.035.18.02.364.03.55.03 1.08 0 2.073-.367 2.862-.985-1.008-.02-1.86-.685-2.152-1.6.14.027.285.04.433.04.21 0 .414-.027.607-.08-1.054-.212-1.848-1.143-1.848-2.26v-.028c.31.173.666.276 1.044.288-.617-.413-1.024-1.118-1.024-1.918 0-.422.114-.818.312-1.158 1.136 1.393 2.834 2.31 4.75 2.406-.04-.17-.06-.344-.06-.525 0-1.27 1.03-2.303 2.303-2.303.664 0 1.262.28 1.683.728.525-.103 1.018-.295 1.463-.56-.172.54-.537.99-1.013 1.276.466-.055.91-.18 1.323-.362-.31.46-.7.867-1.15 1.192z"/></g></svg>