<svg fill="none" height="105" viewBox="0 0 105 105" width="105" xmlns="http://www.w3.org/2000/svg"><rect fill="#2c3338" height="104" rx="12.1905" width="103.91" x=".190476" y=".19043"/><g fill="#fff"><path clip-rule="evenodd" d="m32.1456 33.3356c0-.6649.5401-1.205 1.205-1.205h27.59c.6649 0 1.205.5401 1.205 1.205v2.795h2v-2.795c0-1.7695-1.4355-3.205-3.205-3.205h-27.59c-1.7694 0-3.205 1.4355-3.205 3.205v27.59c0 1.7695 1.4356 3.205 3.205 3.205h2.795v-2h-2.795c-.6649 0-1.205-.5401-1.205-1.205z" fill-rule="evenodd"/><path clip-rule="evenodd" d="m37.1456 38.3356c0-.6655.5395-1.205 1.205-1.205h27.59c.6655 0 1.205.5395 1.205 1.205v2.795h2v-2.795c0-1.7701-1.4349-3.205-3.205-3.205h-27.59c-1.77 0-3.205 1.4349-3.205 3.205v27.59c0 1.7701 1.435 3.205 3.205 3.205h2.795v-2h-2.795c-.6655 0-1.205-.5395-1.205-1.205z" fill-rule="evenodd"/><path clip-rule="evenodd" d="m43.3506 42.1306c-.6655 0-1.205.5395-1.205 1.205v27.59c0 .6655.5395 1.205 1.205 1.205h27.59c.6655 0 1.205-.5395 1.205-1.205v-27.59c0-.6655-.5395-1.205-1.205-1.205zm-3.205 1.205c0-1.7701 1.4349-3.205 3.205-3.205h27.59c1.7701 0 3.205 1.4349 3.205 3.205v27.59c0 1.7701-1.4349 3.205-3.205 3.205h-27.59c-1.7701 0-3.205-1.4349-3.205-3.205z" fill-rule="evenodd"/><path clip-rule="evenodd" d="m66.7775 63.5483h-19.6319v-1.841h19.6319z" fill-rule="evenodd"/><path clip-rule="evenodd" d="m47.1456 51.2786h19.6319v1.8409h-19.6319z" fill-rule="evenodd"/><path d="m60.029 65.6962c1.6946 0 3.0683-1.3738 3.0683-3.0683 0-1.6946-1.3737-3.0683-3.0683-3.0683s-3.0683 1.3737-3.0683 3.0683c0 1.6945 1.3737 3.0683 3.0683 3.0683z"/><path d="m53.8941 55.2672c1.6946 0 3.0683-1.3737 3.0683-3.0683s-1.3737-3.0683-3.0683-3.0683c-1.6945 0-3.0683 1.3737-3.0683 3.0683s1.3738 3.0683 3.0683 3.0683z"/></g></svg>