<svg xmlns="http://www.w3.org/2000/svg" xmlns:xlink="http://www.w3.org/1999/xlink" width="214" height="266" fill="none" viewBox="0 0 214 266"><linearGradient id="a" x1="181.5" x2="20.5" y1="210.5" y2="271" gradientUnits="userSpaceOnUse"><stop offset="0" stop-color="#c4c4c5"/><stop offset=".627" stop-color="#dedede"/></linearGradient><linearGradient id="b" x1="186" x2="189" y1="12" y2="212" gradientUnits="userSpaceOnUse"><stop offset="0" stop-color="#4b4f52"/><stop offset="1" stop-opacity="0"/></linearGradient><path stroke="#4b4f52" stroke-linecap="round" stroke-width="2.8" d="m115.221 3.99979 85.844 42.70981-19.922 4.185-7.913 19.4894-.408-18.4514-26.419 1.5475z"/><g stroke-linecap="square"><g stroke="#4b4f52"><path stroke-width="2.4" d="m128.804 15.1743 43.696 35.5544"/><path stroke-linejoin="bevel" stroke-width="2.6" d="m159.057 53.3097 13.394 15.4395"/><path stroke-width="2.2" d="m177.169 47.4566-25.566-17.3041"/></g><path stroke="url(#a)" stroke-width="3" d="m185.762 88.2423c24.238 55.7577 14 138.4997-24.5 141.9997-23.85 3.692-43.329-39.323-57.733-37.094-14.4041 2.23-14.2834 44.944-35.3068 34.252-21.0234-10.691-28.0841 33.788-45.4862 36.481"/><path stroke="url(#b)" stroke-opacity=".5" stroke-width="3" d="m185.762 88.2423c24.238 55.7577 14 138.4997-24.5 141.9997-23.85 3.692-43.329-39.323-57.733-37.094-14.4041 2.23-14.2834 44.944-35.3068 34.252-21.0234-10.691-28.0841 33.788-45.4862 36.481"/></g><circle cx="49.262" cy="232.742" r="2" fill="#7f858a" stroke="#7f858a" stroke-width="3"/><g fill="#fffffe"><circle cx="118.762" cy="201.242" r="3.75" stroke="#6e7378" stroke-width="2.5"/><circle cx="199" cy="160.742" r="6" stroke="#4b4f52" stroke-width="3"/></g></svg>