<?xml version="1.0" encoding="utf-8"?>
<!-- Generator: Adobe Illustrator 19.2.1, SVG Export Plug-In . SVG Version: 6.00 Build 0)  -->
<!DOCTYPE svg PUBLIC "-//W3C//DTD SVG 1.1//EN" "http://www.w3.org/Graphics/SVG/1.1/DTD/svg11.dtd">
<svg version="1.1" id="Layer_1" xmlns="http://www.w3.org/2000/svg" xmlns:xlink="http://www.w3.org/1999/xlink" x="0px" y="0px"
	 viewBox="0 0 1125.1 53" style="enable-background:new 0 0 1125.1 53;" xml:space="preserve">
<style type="text/css">
	.st0{fill:#F3F6F8;}
</style>
<g>
	<path id="SVGID_1_" class="st0" d="M0,53h1125.1V27.5c-11.5,0.1-22.9,2.3-32.3,6.3c-11.5-15.1-33.3-25.4-58.2-25.4
		c-18.4,0-35,5.5-47.1,14.5c-6.5-3-14.1-4.7-22.2-4.7c-17.2,0-31.9,7.6-38.7,18.6c-4.3-1.1-8.9-1.7-13.7-1.7
		c-13.8,0-26,4.9-33.8,12.5c-7.1-3.9-15.8-6.2-25.2-6.2c-7.9,0-15.3,1.6-21.7,4.4c-12-13.7-32.6-22.7-56-22.7
		c-6.4,0-12.6,0.7-18.5,1.9c-12.3-10.2-30-16.7-49.8-16.7c-24.4,0-45.8,9.8-57.5,24.5c-9.1-3.5-19.5-5.5-30.5-5.5
		c-17.2,0-32.8,4.8-44.6,12.8c-8.9-3.2-18.8-5.1-29.3-5.1c-7.5,0-14.7,0.9-21.5,2.6c-10.6-17.3-33.9-29.4-60.9-29.4
		c-7.4,0-14.5,0.9-21.2,2.6C434.5,4.3,423,0,410.2,0S385.8,4.3,378,11c-6.7-1.7-13.8-2.6-21.2-2.6c-18.8,0-35.7,5.8-47.9,15.1
		c-2.7-0.3-5.5-0.4-8.3-0.4c-22.9,0-43.2,8.7-55.2,21.9c-12.1-13.2-32.3-21.9-55.2-21.9c-2.1,0-4.1,0.1-6.1,0.2
		C172.1,9.3,151.2,0,127.4,0c-16.9,0-32.3,4.7-44,12.4c-6.1-2.5-13.1-4-20.6-4c-18.6,0-34.4,8.9-40.2,21.4C16,28.3,7.2,27.4,0,27.4
		V53z"/>
</g>
</svg>
