<?xml version="1.0" encoding="UTF-8" standalone="no"?>
<svg width="137px" height="96px" viewBox="0 0 137 96" version="1.1" xmlns="http://www.w3.org/2000/svg" xmlns:xlink="http://www.w3.org/1999/xlink">
    <!-- Generator: Sketch 3.7.2 (28276) - http://www.bohemiancoding.com/sketch -->
    <title>stars-left</title>
    <desc>Created with Sketch.</desc>
    <defs>
        <path d="M0.5,5 C0.5,2.2 2.7,0 5.5,0 C8.3,0 10.5,2.2 10.5,5 C10.5,7.8 8.3,10 5.5,10 C2.7,10 0.5,7.8 0.5,5" id="path-1"></path>
        <polyline id="path-3" points="6 9.9 12 12.5 9.4 6.5 12 0.5 6 3.1 0 0.5 2.6 6.5 0 12.5 6 9.9"></polyline>
        <polyline id="path-5" points="128.2 36.7 137 33.2 128.2 29.7 124.6 20.8 121.1 29.7 112.3 33.2 121.1 36.7 124.6 45.6 128.2 36.7"></polyline>
    </defs>
    <g id="Page-1" stroke="none" stroke-width="1" fill="none" fill-rule="evenodd">
        <g id="stars-left">
            <g id="Clipped" transform="translate(33.000000, 1.000000)">
                <mask id="mask-2" fill="white">
                    <use xlink:href="#path-1"></use>
                </mask>
                <use id="SVGID_21_" fill="#F3F6F8" xlink:href="#path-1"></use>
            </g>
            <g id="Clipped" transform="translate(1.000000, 83.000000)">
                <mask id="mask-4" fill="white">
                    <use xlink:href="#path-3"></use>
                </mask>
                <use id="SVGID_25_" fill="#F3F6F8" xlink:href="#path-3"></use>
            </g>
            <mask id="mask-6" fill="white">
                <use xlink:href="#path-5"></use>
            </mask>
            <use id="SVGID_29_" fill="#F3F6F8" xlink:href="#path-5"></use>
        </g>
    </g>
</svg>