<svg xmlns="http://www.w3.org/2000/svg" viewBox="0 0 24 24"><rect x="0" fill="none" width="24" height="24"/><g><path d="M13.582 8.182c-1.648.185-3.802.308-5.344.984-1.781.769-3.03 2.337-3.03 4.644 0 2.953 1.86 4.429 4.253 4.429 2.02 0 3.125-.477 4.685-2.065.516.747.685 1.109 1.629 1.894a.589.589 0 00.672-.066l.006.006c.567-.505 1.599-1.401 2.18-1.888.231-.188.19-.496.009-.754-.52-.718-1.072-1.303-1.072-2.634V8.305c0-1.876.133-3.599-1.249-4.891C15.23 2.369 13.422 2 12.04 2 9.336 2 6.318 3.01 5.686 6.351c-.068.355.191.542.423.594l2.754.298c.258-.013.445-.266.494-.523.236-1.151 1.2-1.706 2.284-1.706.584 0 1.249.215 1.595.738.398.584.346 1.384.346 2.061v.369zm-.533 5.906c-.451.8-1.169 1.291-1.967 1.291-1.09 0-1.728-.83-1.728-2.061 0-2.42 2.171-2.86 4.227-2.86v.615c.001 1.108.027 2.031-.532 3.015zm7.634 5.251C18.329 21.076 14.917 22 11.979 22c-4.118 0-7.826-1.522-10.632-4.057-.22-.199-.024-.471.241-.317 3.027 1.762 6.771 2.823 10.639 2.823 2.608 0 5.476-.541 8.115-1.66.397-.169.73.262.341.55zm.653 1.704c-.194.163-.379.076-.293-.139.284-.71.92-2.298.619-2.684-.301-.386-1.99-.183-2.749-.092-.23.027-.266-.173-.059-.319 1.348-.946 3.555-.673 3.811-.356.26.32-.066 2.533-1.329 3.59z"/></g></svg>