<svg xmlns="http://www.w3.org/2000/svg" viewBox="0 0 24 24"><rect x="0" fill="none" width="24" height="24"/><g><path d="M7.799 5.698c.589 0 1.12.051 1.606.156.482.102.894.273 1.241.507.344.235.612.546.804.938.188.387.281.871.281 1.443 0 .619-.141 1.137-.421 1.551-.284.413-.7.751-1.255 1.014.756.218 1.317.601 1.689 1.146.374.549.557 1.205.557 1.975 0 .623-.12 1.161-.359 1.612a3.144 3.144 0 01-.973 1.114c-.408.288-.876.5-1.399.637A6.144 6.144 0 017.963 18H2V5.698h5.799m-.35 4.97c.481 0 .878-.114 1.192-.345.311-.228.463-.603.463-1.119 0-.286-.051-.523-.152-.707a1.123 1.123 0 00-.416-.427 1.733 1.733 0 00-.596-.216 3.616 3.616 0 00-.697-.06H4.709v2.874h2.74zm.151 5.237c.267 0 .521-.024.759-.077.243-.053.457-.137.637-.261.182-.12.332-.283.441-.491.11-.206.163-.474.163-.798 0-.633-.18-1.084-.533-1.357-.356-.27-.83-.404-1.413-.404H4.709v3.388H7.6zm8.562-.041c.367.358.897.538 1.583.538.493 0 .92-.125 1.277-.374.354-.248.571-.514.654-.79h2.155c-.347 1.072-.872 1.838-1.589 2.299-.708.463-1.572.693-2.58.693-.701 0-1.332-.113-1.899-.337a4.041 4.041 0 01-1.439-.958 4.364 4.364 0 01-.904-1.484 5.433 5.433 0 01-.32-1.899c0-.666.11-1.288.329-1.863a4.36 4.36 0 01.933-1.492c.406-.42.885-.751 1.444-.994a4.63 4.63 0 011.857-.363c.754 0 1.414.145 1.98.44a3.941 3.941 0 011.389 1.181 4.82 4.82 0 01.783 1.69c.16.632.217 1.292.171 1.983h-6.428c-.001.706.237 1.372.604 1.73m2.811-4.68c-.291-.321-.783-.496-1.384-.496-.39 0-.714.066-.973.2a1.972 1.972 0 00-.621.491 1.772 1.772 0 00-.328.628 2.695 2.695 0 00-.111.587h3.98c-.058-.625-.271-1.085-.563-1.41zm-3.916-3.446h4.985V6.524h-4.985v1.214z"/></g></svg>