<svg xmlns="http://www.w3.org/2000/svg" viewBox="0 0 24 24"><rect x="0" fill="none" width="24" height="24"/><g><path d="M7.8 5.698c.588 0 1.12.05 1.605.156.482.102.894.273 1.24.507.345.236.613.547.805.94.188.386.28.87.28 1.442 0 .62-.14 1.137-.42 1.55-.284.414-.7.752-1.255 1.015.756.218 1.317.6 1.69 1.146.373.55.556 1.205.556 1.975 0 .623-.12 1.16-.358 1.612-.24.457-.57.828-.973 1.114-.41.288-.877.5-1.4.637-.518.14-1.056.21-1.607.21H2V5.698h5.8m-.35 4.97c.48 0 .877-.114 1.19-.345.312-.228.464-.603.464-1.12 0-.285-.05-.522-.152-.706-.104-.182-.24-.326-.416-.427-.174-.104-.37-.176-.596-.216-.224-.044-.457-.06-.697-.06H4.71v2.874h2.74zm.15 5.237c.267 0 .52-.024.76-.077.242-.053.456-.137.636-.26.182-.12.332-.284.44-.492.11-.206.164-.474.164-.798 0-.633-.18-1.084-.533-1.357-.356-.27-.83-.403-1.413-.403H4.71v3.388H7.6zm8.562-.04c.367.357.897.537 1.583.537.493 0 .92-.125 1.277-.374.354-.248.57-.514.654-.79h2.155c-.346 1.072-.87 1.838-1.588 2.3-.708.462-1.572.692-2.58.692-.7 0-1.332-.113-1.9-.337-.566-.227-1.04-.544-1.438-.958-.39-.415-.69-.907-.904-1.484-.213-.573-.32-1.21-.32-1.898 0-.666.11-1.288.33-1.863.22-.578.528-1.076.932-1.493.406-.42.885-.75 1.444-.994.558-.24 1.175-.363 1.857-.363.754 0 1.414.145 1.98.44.563.29 1.026.686 1.39 1.18.362.494.62 1.058.782 1.69.16.633.217 1.293.17 1.984H15.56c0 .706.237 1.372.604 1.73m2.81-4.68c-.29-.32-.782-.496-1.383-.496-.39 0-.715.066-.974.2-.254.132-.46.297-.62.49-.158.198-.266.406-.33.63-.062.216-.1.412-.11.586h3.98c-.058-.625-.27-1.085-.563-1.41zm-3.915-3.446h4.985V6.524h-4.985v1.214z"/></g></svg>