<svg xmlns="http://www.w3.org/2000/svg" viewBox="0 0 24 24"><rect x="0" fill="none" width="24" height="24"/><g><path d="M19.78 9.904h-1.002c-.615 0-1.118-.475-1.16-1.078l-.002-.013c0-3.21-2.602-5.813-5.813-5.813H8.87C5.66 3 3.06 5.602 3.06 8.813v6.375C3.058 18.398 5.66 21 8.87 21h6.258c3.21 0 5.813-2.602 5.813-5.812l.003-4.12c0-.644-.522-1.164-1.164-1.164zM8.725 7.714h3.29c.618 0 1.118.5 1.118 1.116 0 .617-.5 1.117-1.117 1.117h-3.29c-.618 0-1.118-.5-1.118-1.117 0-.616.5-1.117 1.116-1.117zm6.6 8.656H8.72c-.584 0-1.057-.473-1.057-1.057s.473-1.057 1.057-1.057h6.607c.584 0 1.057.473 1.057 1.057s-.473 1.057-1.057 1.057z"/></g></svg>