<svg xmlns="http://www.w3.org/2000/svg" viewBox="0 0 24 24"><rect x="0" fill="none" width="24" height="24"/><g><path d="M19.779 9.904h-.981l-.021.001a1.163 1.163 0 01-1.16-1.079l-.001-.013A5.813 5.813 0 0011.803 3H8.871a5.813 5.813 0 00-5.813 5.813v6.375a5.813 5.813 0 005.813 5.813h6.257a5.814 5.814 0 005.813-5.813l.002-4.121a1.164 1.164 0 00-1.164-1.163zM8.726 7.713h3.291a1.117 1.117 0 110 2.234H8.726a1.117 1.117 0 110-2.234zm6.601 8.657H8.72a1.057 1.057 0 110-2.114h6.607a1.057 1.057 0 110 2.114z"/></g></svg>