<svg xmlns="http://www.w3.org/2000/svg" viewBox="0 0 24 24"><rect x="0" fill="none" width="24" height="24"/><g><path d="M14.722 14.02c0 .36-.293.653-.654.653h-4.09c-.362 0-.655-.293-.655-.654s.293-.655.654-.655h4.09c.362 0 .655.293.655.654zm-4.74-3.322h2.037c.38 0 .69-.31.69-.692 0-.382-.31-.692-.69-.692H9.98c-.38 0-.69.31-.69.692 0 .382.31.692.69.692zM21 5v14c0 1.105-.895 2-2 2H5c-1.105 0-2-.895-2-2V5c0-1.105.895-2 2-2h14c1.105 0 2 .895 2 2zm-3.456 6.39c0-.398-.322-.72-.72-.72h-.62c-.38 0-.692-.294-.718-.667v-.008c0-1.988-1.612-3.6-3.6-3.6H10.07c-1.988 0-3.6 1.612-3.6 3.6v3.947c0 1.987 1.612 3.6 3.6 3.6h3.874c1.988 0 3.6-1.612 3.6-3.6V11.39z"/></g></svg>