<svg xmlns="http://www.w3.org/2000/svg" viewBox="0 0 24 24"><rect x="0" fill="none" width="24" height="24"/><g><path d="M14.722 14.019a.654.654 0 01-.654.654H9.977a.654.654 0 010-1.308h4.091c.361 0 .654.293.654.654zm-4.741-3.321h2.038a.692.692 0 000-1.384H9.981a.692.692 0 000 1.384zM21 5v14a2 2 0 01-2 2H5a2 2 0 01-2-2V5a2 2 0 012-2h14a2 2 0 012 2zm-3.456 6.39a.72.72 0 00-.72-.72h-.607l-.013.001a.72.72 0 01-.718-.668l-.001-.008a3.599 3.599 0 00-3.599-3.599H10.07a3.599 3.599 0 00-3.599 3.599v3.947a3.6 3.6 0 003.599 3.599h3.874a3.599 3.599 0 003.599-3.599l.001-2.552z"/></g></svg>