<svg xmlns="http://www.w3.org/2000/svg" viewBox="0 0 24 24"><rect x="0" fill="none" width="24" height="24"/><g><path d="M22.016 8.84l-.007-.037c-.005-.025-.008-.048-.015-.072-.003-.015-.01-.028-.013-.042l-.023-.062-.02-.042a.391.391 0 00-.03-.057.357.357 0 00-.025-.038l-.035-.052-.03-.037c-.015-.017-.028-.032-.043-.045-.01-.012-.022-.023-.035-.035a.442.442 0 00-.048-.04l-.037-.03-.015-.012-9.161-6.096a.864.864 0 00-.955 0L2.359 8.237l-.015.012-.038.028-.048.04a.638.638 0 00-.078.082c-.012.013-.022.023-.03.037-.011.017-.025.035-.035.052a.498.498 0 01-.025.038c-.011.022-.021.039-.03.059a.39.39 0 01-.02.041 1.184 1.184 0 00-.034.106c-.007.023-.011.046-.016.071-.001.014-.005.025-.006.037a.73.73 0 00-.009.114v6.093c0 .037.003.075.008.112l.007.038c.005.023.008.047.015.072a.209.209 0 00.013.04c.007.022.013.042.022.063l.02.04a.4.4 0 00.055.096l.035.052.03.037a.603.603 0 00.042.045l.035.035c.015.013.032.028.048.04l.038.03.013.01 9.163 6.095a.858.858 0 00.959.004l9.163-6.095.015-.01c.013-.01.027-.02.037-.03a.534.534 0 00.048-.04c.013-.012.025-.023.035-.035.017-.015.03-.032.043-.045l.03-.037a.678.678 0 00.035-.052l.025-.038a.4.4 0 00.03-.058l.02-.04.023-.063c.003-.013.01-.027.013-.04.007-.025.01-.048.015-.072l.007-.037c.003-.042.007-.079.007-.117V8.954a.625.625 0 00-.008-.114zm-9.154-4.376l6.751 4.49-3.016 2.013-3.735-2.492V4.464zm-1.724 0v4.009l-3.735 2.494-3.014-2.013 6.749-4.49zm-7.439 6.098L5.853 12l-2.155 1.438v-2.876zm7.439 8.974l-6.749-4.491 3.015-2.011 3.735 2.492v4.01zM12 14.035L8.953 12 12 9.966 15.047 12 12 14.035zm.862 5.501v-4.009l3.735-2.492 3.016 2.011-6.751 4.49zm7.441-6.098L18.147 12l2.156-1.438v2.876z"/></g></svg>