<svg xmlns="http://www.w3.org/2000/svg" viewBox="0 0 24 24"><rect x="0" fill="none" width="24" height="24"/><g><path d="M12 22C6.486 22 2 17.514 2 12S6.486 2 12 2s10 4.486 10 10-4.486 10-10 10zm8.434-8.63c-.292-.093-2.644-.795-5.32-.366 1.117 3.07 1.572 5.57 1.66 6.09 1.915-1.296 3.28-3.35 3.66-5.725zm-5.098 6.506c-.127-.75-.623-3.36-1.822-6.477-.02.005-.038.012-.056.018-4.818 1.68-6.547 5.02-6.7 5.334 1.447 1.13 3.267 1.803 5.242 1.803 1.183 0 2.31-.242 3.336-.68zm-9.682-2.152c.193-.33 2.538-4.213 6.943-5.637.11-.036.224-.07.337-.102-.214-.485-.448-.97-.692-1.45-4.266 1.277-8.405 1.223-8.778 1.216-.003.088-.004.175-.004.262-.002 2.195.83 4.198 2.194 5.712zm-2.015-7.46c.38.005 3.9.02 7.896-1.04C10.12 6.706 8.594 4.59 8.37 4.283c-2.39 1.126-4.177 3.33-4.73 5.98zM9.997 3.71c.236.315 1.787 2.428 3.187 5 3.037-1.14 4.323-2.868 4.477-3.086C16.154 4.286 14.17 3.47 12 3.47c-.69 0-1.36.084-2.002.24zm8.614 2.902c-.18.243-1.612 2.078-4.77 3.367.2.406.39.82.567 1.236l.183.44c2.842-.356 5.666.216 5.948.276-.018-2.016-.74-3.867-1.928-5.32z"/></g></svg>