<svg xmlns="http://www.w3.org/2000/svg" viewBox="0 0 24 24"><rect x="0" fill="none" width="24" height="24"/><g><path d="M18.04 3.93L5.96 3C4.324 3 3 4.325 3 5.96V18.04C3 19.675 4.325 21 5.96 21l12.082-.93C19.7 19.982 21 18.743 21 17.11V6.89c0-1.634-1.26-2.863-2.96-2.96zm-1.107 4.24c-.082.215-.192.432-.378.55-.188.123-.49.133-.8.133-1.52 0-3.06-.048-4.606-.048-.153.708-.305 1.416-.452 2.128.932-.004 1.873.005 2.81.005.726 0 1.462-.07 1.586.525.04.19 0 .426-.052.615-.105.38-.258.676-.625.783-.185.055-.408.06-.646.06-1.144 0-2.344.016-3.492.02-.17.77-.328 1.552-.49 2.332 1.57-.005 3.068-.04 4.634-.058.627-.007 1.085.194 1.01.85-.032.262-.1.497-.212.725-.102.207-.248.375-.488.45-.237.076-.54.065-.862.08-.304.013-.614.007-.924.015-.31.01-.62.022-.92.022-1.252 0-2.428.08-3.682.073-.603-.004-1.014-.25-1.124-.757-.06-.273-.018-.58.036-.84.54-2.593 1.083-5.177 1.63-7.764.055-.266.113-.512.224-.715.17-.304.424-.52.79-.62.368-.1.883-.047 1.344-.047.305 0 .612.008.914.016.925.026 1.817.03 2.747.053.304.007.615.016.915.016.62 0 1.17.073 1.245.614.04.288-.05.567-.132.783z" fill-rule="evenodd" clip-rule="evenodd"/></g></svg>