<svg viewBox="0 0 743 743" xmlns="http://www.w3.org/2000/svg"><rect x="0" fill="none" width="24" height="24"/><g><path d="M181.131 275.137a68.894 68.894 0 01-29.465 29.328l161.758 162.389 38.998-19.764-171.291-171.953zm213.363 214.187l-38.998 19.764 81.963 82.283a68.895 68.895 0 0129.471-29.332l-72.436-72.715zM581.646 339.391l-91.576 46.41 6.752 43.189 103.616-52.513a68.896 68.896 0 01-18.792-37.086zm-144.738 73.351L220.383 522.477a68.895 68.895 0 0118.795 37.089L443.66 455.934l-6.752-43.192zM367.275 142.438l-104.48 203.97 30.848 30.967 110.623-215.957a68.899 68.899 0 01-36.991-18.98zM235.621 399.459l-52.922 103.314a68.896 68.896 0 0136.987 18.979l46.781-91.328-30.846-30.965zM150.768 304.918a68.888 68.888 0 01-34.416 7.195 68.979 68.979 0 01-6.651-.695l30.903 197.662a68.883 68.883 0 0134.416-7.195 68.91 68.91 0 016.646.695l-30.898-197.662zM239.342 560.545c.707 4.589.949 9.239.72 13.877a68.902 68.902 0 01-7.267 27.18l197.629 31.712c-.708-4.59-.95-9.24-.723-13.878a68.892 68.892 0 017.27-27.178l-197.629-31.713zM601.133 377.199l-91.219 178.082a68.895 68.895 0 0136.994 18.983l91.217-178.08a68.895 68.895 0 01-36.992-18.985zM476.723 125.33a68.895 68.895 0 01-29.471 29.332l141.266 141.811a68.889 68.889 0 0129.468-29.332L476.723 125.33zM347.787 104.631l-178.576 90.498a68.897 68.897 0 0118.793 37.086l178.574-90.502a68.896 68.896 0 01-18.791-37.082zM446.926 154.826a68.902 68.902 0 01-34.983 7.483 69.274 69.274 0 01-6.029-.633l15.818 101.291 43.163 6.926-17.969-115.067zm-16 167.028l37.4 239.482a68.895 68.895 0 0133.914-6.943c2.415.137 4.82.401 7.207.791L474.09 328.777l-43.164-6.923zM188.131 232.975c.734 4.66.988 9.383.758 14.095a68.91 68.91 0 01-7.16 26.983l101.369 16.281 19.923-38.908-114.89-18.451zm173.736 27.9l-19.926 38.912 239.514 38.467a68.897 68.897 0 01-.695-13.719 68.893 68.893 0 017.349-27.324l-226.242-36.336z"/><path d="M412.284 156.054c34.538 1.882 64.061-24.592 65.943-59.13 1.881-34.538-24.592-64.062-59.131-65.943-34.538-1.882-64.061 24.592-65.943 59.13-1.881 34.538 24.593 64.062 59.131 65.943zM646.144 390.82c34.538 1.881 64.062-24.593 65.943-59.131 1.882-34.538-24.592-64.061-59.13-65.943-34.538-1.881-64.062 24.593-65.943 59.131-1.882 34.538 24.592 64.061 59.13 65.943zM495.086 685.719c34.538 1.881 64.062-24.592 65.943-59.13 1.881-34.538-24.592-64.062-59.13-65.943-34.538-1.882-64.062 24.592-65.943 59.13-1.882 34.538 24.592 64.062 59.13 65.943zM167.866 633.211c34.538 1.882 64.062-24.592 65.943-59.13 1.882-34.538-24.592-64.062-59.13-65.943-34.538-1.881-64.062 24.592-65.943 59.13-1.881 34.538 24.592 64.062 59.13 65.943zM116.692 305.86c34.538 1.882 64.062-24.592 65.943-59.13 1.881-34.538-24.592-64.062-59.131-65.943-34.538-1.881-64.061 24.592-65.943 59.13-1.881 34.538 24.593 64.062 59.131 65.943z" fill-opacity=".996"/></g></svg>