<svg xmlns="http://www.w3.org/2000/svg" viewBox="0 0 24 24"><rect x="0" fill="none" width="24" height="24"/><g><path d="M17.573 2H6.905S5 3.107 5 3.805v16.948c0 .785.422 1.077.66 1.172.238.097.892.177 1.285-.275 0 0 5.035-5.843 5.122-5.93.132-.132.132-.132.262-.132h3.26c1.367 0 1.587-.977 1.73-1.552.08-.318.693-3.428 1.226-6.122l.675-3.368C19.56 2.893 19.14 2 17.574 2zm-1.078 5.22c-.053.252-.372.518-.665.518h-4.157c-.467 0-.802.318-.802.787v.508c0 .467.338.798.806.798h3.528s.655.363.583.716c-.072.353-.407 2.102-.448 2.295-.04.194-.263.524-.656.524h-2.88c-.523 0-.683.068-1.033.503-.35.437-3.504 4.223-3.504 4.223-.032.035-.063.027-.063-.015V4.852c0-.298.26-.648.648-.648h8.563c.315 0 .61.297.528.683l-.445 2.333z"/></g></svg>