<svg xmlns="http://www.w3.org/2000/svg" viewBox="0 0 24 24"><rect x="0" fill="none" width="24" height="24"/><g><path d="M17.573 2H6.905C5.434 2 5 3.107 5 3.805v16.948c0 .785.422 1.077.66 1.172.238.097.892.177 1.285-.275 0 0 5.035-5.843 5.122-5.93.132-.132.132-.132.262-.132h3.26c1.368 0 1.588-.977 1.732-1.552.078-.318.692-3.428 1.225-6.122l.675-3.368C19.56 2.893 19.14 2 17.573 2zm-1.078 5.22c-.053.252-.372.518-.665.518h-4.157c-.467 0-.802.318-.802.787v.508c0 .467.337.798.805.798h3.528c.331 0 .655.362.583.715-.072.353-.407 2.102-.448 2.295-.04.193-.262.523-.655.523h-2.88c-.523 0-.683.068-1.033.503-.35.437-3.505 4.223-3.505 4.223-.032.035-.063.027-.063-.015V4.852c0-.298.26-.648.648-.648h8.562c.315 0 .61.297.528.683l-.446 2.333z"/></g></svg>