<svg xmlns="http://www.w3.org/2000/svg" viewBox="0 0 24 24"><rect x="0" fill="none" width="24" height="24"/><g><path d="M12 2C6.477 2 2 6.477 2 12s4.477 10 10 10 10-4.477 10-10S17.523 2 12 2zm-1.919 14.05a4.051 4.051 0 010-8.1c1.094 0 2.009.401 2.709 1.057l-1.15 1.118a2.229 2.229 0 00-1.559-.599c-1.341 0-2.434 1.114-2.434 2.479s1.094 2.479 2.434 2.479c1.551 0 2.122-1.073 2.227-1.709h-2.232v-1.511h3.791c.057.255.101.494.101.83.001 2.312-1.55 3.956-3.887 3.956zM19 12.75h-1.25V14h-1.5v-1.25H15v-1.5h1.25V10h1.5v1.25H19v1.5z"/></g></svg>