<svg xmlns="http://www.w3.org/2000/svg" viewBox="0 0 24 24"><rect x="0" fill="none" width="24" height="24"/><g><path d="M5.31 3h13.38C19.96 3 21 4.04 21 5.31v13.38c0 1.27-1.04 2.31-2.31 2.31H5.31C4.04 21 3 19.96 3 18.69V5.31C3 4.04 4.04 3 5.31 3zm10.802 2c-.446 0-.81.365-.81.81v1.94c0 .446.365.81.81.81h2.035c.446 0 .81-.365.81-.81V5.81c0-.446-.365-.81-.81-.81h-2.035zm2.854 5.612h-1.584c.15.49.23 1.008.23 1.544 0 2.994-2.504 5.42-5.594 5.42-3.09 0-5.595-2.426-5.595-5.42 0-.537.08-1.055.23-1.544H5v7.604c0 .394.322.716.716.716H18.25c.394 0 .716-.322.716-.716v-7.604zm-6.95-2.154c-1.996 0-3.614 1.568-3.614 3.503 0 1.936 1.62 3.504 3.615 3.504 1.997 0 3.615-1.568 3.615-3.503 0-1.934-1.618-3.502-3.615-3.502z" fill-rule="evenodd" clip-rule="evenodd"/></g></svg>