<svg xmlns="http://www.w3.org/2000/svg" viewBox="0 0 24 24"><rect x="0" fill="none" width="24" height="24"/><g><path d="M18.924 10.615h-1.567c.114.443.182.906.182 1.385 0 3.06-2.48 5.54-5.54 5.54-3.058 0-5.537-2.48-5.537-5.54 0-.48.068-.942.182-1.385h-1.57v7.616c0 .383.31.693.694.693h12.46c.383 0 .693-.31.693-.692v-7.615zm0-4.846c0-.383-.31-.693-.693-.693h-2.075c-.382 0-.692.31-.692.692v2.076c0 .382.31.692.692.692h2.076c.384 0 .694-.31.694-.692V5.77zM12 8.537c-1.912 0-3.462 1.55-3.462 3.46 0 1.913 1.55 3.463 3.462 3.463s3.462-1.55 3.462-3.46c0-1.912-1.55-3.462-3.462-3.462M18.924 21H5.076C3.93 21 3 20.07 3 18.922V5.077C3 3.93 3.93 3 5.076 3h13.847C20.07 3 21 3.93 21 5.077v13.846C21 20.07 20.07 21 18.924 21" fill-rule="evenodd" clip-rule="evenodd"/></g></svg>