<svg xmlns="http://www.w3.org/2000/svg" viewBox="0 0 24 24"><rect x="0" fill="none" width="24" height="24"/><g><path d="M19.7 3H4.3C3.582 3 3 3.582 3 4.3v15.4c0 .718.582 1.3 1.3 1.3h15.4c.718 0 1.3-.582 1.3-1.3V4.3c0-.718-.582-1.3-1.3-1.3zM8.34 18.338H5.666v-8.59H8.34v8.59zM7.003 8.574c-.857 0-1.55-.694-1.55-1.548 0-.855.692-1.548 1.55-1.548.854 0 1.547.694 1.547 1.548 0 .855-.692 1.548-1.546 1.548zm11.335 9.764h-2.67V14.16c0-.995-.017-2.277-1.387-2.277-1.39 0-1.6 1.086-1.6 2.206v4.248h-2.668v-8.59h2.56v1.174h.036c.357-.675 1.228-1.387 2.527-1.387 2.703 0 3.203 1.78 3.203 4.092v4.71z"/></g></svg>