<svg xmlns="http://www.w3.org/2000/svg" viewBox="0 0 24 24"><rect x="0" fill="none" width="24" height="24"/><g><path d="M0 0h24v24H0z"/><path d="M19 3H5c-1.105 0-2 .895-2 2v14c0 1.105.895 2 2 2h14c1.105 0 2-.895 2-2V5c0-1.105-.895-2-2-2zm-8.92 13.05c-2.235 0-4.05-1.814-4.05-4.05s1.815-4.05 4.05-4.05c1.095 0 2.01.4 2.71 1.057l-1.15 1.118c-.292-.275-.802-.6-1.56-.6-1.34 0-2.433 1.115-2.433 2.48s1.094 2.48 2.434 2.48c1.552 0 2.123-1.074 2.228-1.71h-2.232v-1.51h3.79c.058.255.102.494.102.83 0 2.312-1.55 3.956-3.887 3.956zm8.92-3.3h-1.25V14h-1.5v-1.25H15v-1.5h1.25V10h1.5v1.25H19v1.5z"/></g></svg>