<svg xmlns="http://www.w3.org/2000/svg" viewBox="0 0 24 24"><rect x="0" fill="none" width="24" height="24"/><g><path d="M19 3H5c-1.105 0-2 .895-2 2v14c0 1.105.895 2 2 2h14c1.105 0 2-.895 2-2V5c0-1.105-.895-2-2-2zm-4.08 11.19c-.383.192-.868.34-1.31.34-.484 0-1-.016-1.455-.236v1c0 1.294-.56 2.073-1.912 2.073-.383 0-1.118-.118-1.338-.47v-1.59c.206.236.53.398.853.398.353 0 .56-.205.56-.56v-5.5h1.838v3.236c.31.104.618.148.94.148 1.178 0 2.163-.794 2.163-2.03 0-1.927-1.663-2.676-3.37-2.676-1.588 0-3.235.926-3.235 2.69 0 .545.118.986.5 1.384l-1.34 1.147c-.734-.81-.91-1.456-.91-2.53 0-2.794 2.323-4.382 4.926-4.382 2.634 0 5.266 1.354 5.266 4.295 0 1.472-.868 2.65-2.176 3.266z"/></g></svg>