<svg xmlns="http://www.w3.org/2000/svg" viewBox="0 0 24 24"><rect x="0" fill="none" width="24" height="24"/><g><path d="M0 0h24v24H0z"/><path d="M21 19c0 1.105-.895 2-2 2H5c-1.105 0-2-.895-2-2V5c0-1.105.895-2 2-2h14c1.105 0 2 .895 2 2v14z"/><path d="M16.824 10.67h-.62c-.38 0-.692-.294-.718-.667v-.008c0-1.988-1.612-3.6-3.6-3.6H10.07c-1.988 0-3.6 1.612-3.6 3.6v3.947c0 1.987 1.612 3.6 3.6 3.6h3.874c1.988 0 3.6-1.612 3.6-3.6V11.39c0-.398-.322-.72-.72-.72zM9.98 9.314h2.04c.38 0 .69.31.69.692 0 .382-.31.692-.69.692H9.98c-.38 0-.69-.31-.69-.692 0-.382.31-.692.69-.692zm4.088 5.36h-4.09c-.362 0-.655-.293-.655-.654s.293-.654.654-.654h4.09c.362 0 .655.293.655.654s-.293.654-.654.654z"/></g></svg>