<svg xmlns="http://www.w3.org/2000/svg" viewBox="0 0 24 24"><rect x="0" fill="none" width="24" height="24"/><g><rect x="0" fill="none" width="24" height="24"/><g><path d="M12 20.75c-2.03 0-3.906-.625-5.312-1.875 1.406-2.656 4.062-4.688 6.875-5.625 1.406 3.125 1.875 5.312 2.03 6.72-1.093.468-2.343.78-3.593.78zm5-1.562c-.625-3.28-1.72-5.938-1.875-6.25 2.03-.312 3.75-.312 5.625 0-.312 2.5-1.72 4.843-3.75 6.25zM3.25 11.375c3.28.312 5.47 0 9.062-1.094.312.626.625 1.25.78 1.72-2.81.938-5.937 2.97-7.655 5.78C4.03 16.22 3.25 14.19 3.25 12v-.625zM19.188 7c.938 1.25 1.406 2.812 1.562 4.53-1.406-.31-4.062-.468-6.094 0-.312-.624-.47-1.093-.938-1.718 1.876-.937 3.907-1.562 5.47-2.812zM8.562 3.875c1.25 1.72 2.188 3.28 3.125 5.156-1.406.47-5.312 1.25-8.125.94.626-2.814 2.5-5 5-6.095zM12 3.25c2.5 0 4.688 1.094 6.25 2.656-1.406 1.25-3.906 2.03-5.156 2.5-1.094-1.875-1.72-2.97-2.97-5 .626 0 1.25-.156 1.876-.156zM12 2C6.53 2 2 6.53 2 12s4.53 10 10 10 10-4.53 10-10S17.47 2 12 2z"/></g></g></svg>