<svg xmlns="http://www.w3.org/2000/svg" viewBox="0 0 24 24"><rect x="0" fill="none" width="24" height="24"/><g><path d="M12.144 2c-5.384 0-9.75 4.365-9.75 9.75 0 2.672 1.416 5.06 1.416 5.06L2.107 22l5.34-1.708s1.984 1.204 4.697 1.204c5.384 0 9.75-4.365 9.75-9.75 0-5.38-4.366-9.746-9.75-9.746zm0 17.938c-2.506 0-4.512-1.355-4.512-1.355l-3.08 1.005 1-2.98s-1.596-2.21-1.596-4.858c0-4.523 3.666-8.19 8.19-8.19s8.188 3.667 8.188 8.19c0 4.52-3.667 8.188-8.19 8.188zm4.792-6.128s-1.597-.774-1.925-.924c-.328-.15-.494.095-.494.095l-.64.813c-.156.2-.245.378-.65.244-.407-.132-1.222-.57-1.887-1.17-.667-.595-1.176-1.384-1.32-1.624-.145-.24.022-.39.022-.39s.42-.485.624-.745c.2-.26.076-.55.028-.668-.05-.117-.696-1.64-.79-1.854-.095-.215-.3-.25-.3-.25h-.767c-.137 0-.4.167-.4.167-.794.507-.928 1.686-.95 1.94-.024.255-.046.795.37 1.705s1.434 2.144 2.69 3.316 3.185 1.676 3.768 1.84c.582.162 1.814-.127 2.392-.752.58-.625.445-1.274.434-1.49-.01-.218-.204-.252-.204-.252z"/></g></svg>