<svg xmlns="http://www.w3.org/2000/svg" viewBox="0 0 24 24"><rect x="0" fill="none" width="24" height="24"/><g><path d="M14.068 13.365h-4.09c-.362 0-.655.293-.655.654s.293.653.654.653h4.09c.362 0 .655-.293.655-.654s-.293-.655-.654-.655zM9.98 10.698h2.04c.38 0 .69-.31.69-.692 0-.382-.31-.692-.69-.692H9.98c-.38 0-.69.31-.69.692 0 .382.31.692.69.692z"/><path d="M19 3H5c-1.105 0-2 .895-2 2v14c0 1.105.895 2 2 2h14c1.105 0 2-.895 2-2V5c0-1.105-.895-2-2-2zm-1.457 10.94c0 1.988-1.61 3.6-3.6 3.6H10.07c-1.988 0-3.6-1.61-3.6-3.6V9.996c0-1.988 1.612-3.6 3.6-3.6h1.816c1.988 0 3.6 1.612 3.6 3.6v.008c.026.374.338.668.718.668h.62c.398 0 .72.322.72.72v2.55z"/></g></svg>