<svg xmlns="http://www.w3.org/2000/svg" viewBox="0 0 24 24"><rect x="0" fill="none" width="24" height="24"/><g><path d="M0 0h24v24H0z"/><path d="M19 21H5c-1.105 0-2-.895-2-2V5c0-1.105.895-2 2-2h14c1.105 0 2 .895 2 2v14c0 1.105-.895 2-2 2z"/><path d="M14.835 15.006c-.21.1-.608.186-.906.194-.9.024-1.074-.63-1.082-1.107v-3.495h2.254v-1.7h-2.246v-2.86H11.21c-.026 0-.073.024-.08.084-.096.875-.506 2.41-2.21 3.025v1.45h1.137v3.668c0 1.256.927 3.04 3.372 2.998.824-.014 1.74-.36 1.943-.658l-.538-1.6z"/></g></svg>