<svg xmlns="http://www.w3.org/2000/svg" viewBox="0 0 24 24"><rect x="0" fill="none" width="24" height="24"/><g><path d="M12.29 2C6.616 2 3.605 5.648 3.605 9.622c0 1.846 1.025 4.146 2.666 4.878.25.11.38.063.44-.17.043-.174.266-1.028.364-1.427.032-.128.017-.237-.09-.362-.54-.63-.976-1.79-.976-2.872 0-2.777 2.194-5.464 5.933-5.464 3.23 0 5.49 2.108 5.49 5.122 0 3.407-1.794 5.768-4.13 5.768-1.29 0-2.257-1.02-1.948-2.277.372-1.495 1.09-3.112 1.09-4.19 0-.968-.543-1.776-1.664-1.776-1.318 0-2.378 1.31-2.378 3.06 0 1.115.394 1.87.394 1.87s-1.302 5.278-1.54 6.26c-.405 1.666.053 4.368.094 4.604.02.126.167.17.25.063.13-.165 1.7-2.42 2.142-4.05.158-.59.817-2.996.817-2.996.43.785 1.68 1.447 3.012 1.447 3.963 0 6.822-3.494 6.822-7.833C20.394 5.112 16.85 2 12.29 2"/></g></svg>