<svg xmlns="http://www.w3.org/2000/svg" viewBox="0 0 24 24"><rect x="0" fill="none" width="24" height="24"/><g><rect x="0" fill="none" width="24" height="24"/><g><path d="M19.438 3.004c-2.908-.093-4.882 1.533-5.914 4.883.532-.225 1.05-.342 1.555-.342 1.067 0 1.536.595 1.412 1.783-.063.718-.534 1.767-1.413 3.142-.883 1.375-1.543 2.064-1.982 2.064-.565 0-1.084-1.06-1.555-3.18-.16-.622-.44-2.212-.85-4.77-.377-2.367-1.382-3.476-3.017-3.32-.69.064-1.73.686-3.11 1.87C3.56 6.036 2.538 6.94 1.5 7.842l.99 1.262c.94-.654 1.49-.98 1.648-.98.72 0 1.395 1.12 2.023 3.358l1.696 6.158C8.7 19.88 9.736 21 10.96 21c1.976 0 4.392-1.84 7.247-5.516 2.76-3.522 4.19-6.293 4.282-8.32.123-2.71-.894-4.097-3.052-4.16z"/></g></g></svg>