<svg xmlns="http://www.w3.org/2000/svg" viewBox="0 0 24 24"><rect x="0" fill="none" width="24" height="24"/><g><path d="M0 0h24v24H0z"/><path d="M21.927 4.827c-.26-.714-.945-1.194-1.705-1.194H3.84c-.748 0-1.43.47-1.696 1.17-.078.207-.118.423-.118.643v6.035l.07 1.2c.29 2.73 1.706 5.116 3.898 6.78l.12.088.024.018c1.175.86 2.49 1.44 3.91 1.727.655.132 1.325.2 1.99.2.616 0 1.233-.057 1.84-.17l.22-.044c.02-.005.04-.013.063-.024 1.36-.297 2.622-.864 3.754-1.69l.025-.02c.04-.028.08-.057.118-.088 2.192-1.664 3.61-4.05 3.898-6.778l.07-1.2V5.446c0-.208-.026-.415-.1-.62zm-4.235 6.286l-4.704 4.512c-.266.254-.608.382-.95.382-.34 0-.683-.128-.948-.382l-4.705-4.512c-.547-.524-.565-1.392-.04-1.94.524-.546 1.392-.564 1.94-.04l3.755 3.602 3.755-3.6c.547-.525 1.415-.507 1.94.04.52.546.503 1.414-.043 1.938z"/></g></svg>