<svg xmlns="http://www.w3.org/2000/svg" viewBox="0 0 24 24"><rect x="0" fill="none" width="24" height="24"/><g><rect x="0" fill="none" width="24" height="24"/><g><path d="M21.43 14.15c.146-.656.222-1.343.222-2.046 0-5.27-4.272-9.542-9.542-9.542-.558 0-1.103.052-1.63.14-.854-.538-1.862-.848-2.946-.848C4.48 1.854 2 4.332 2 7.388c0 1.02.278 1.98.76 2.796-.126.622-.196 1.26-.196 1.92 0 5.27 4.273 9.54 9.542 9.54.594 0 1.178-.056 1.75-.156.778.416 1.665.658 2.612.658 3.054 0 5.533-2.48 5.533-5.534.004-.888-.203-1.717-.57-2.46zm-4.424 2.514c-.446.628-1.09 1.12-1.944 1.47-.833.35-1.838.524-2.98.524-1.367 0-2.517-.24-3.415-.715-.64-.348-1.174-.818-1.57-1.394-.408-.585-.61-1.17-.61-1.724 0-.35.132-.654.4-.902.26-.25.596-.367.993-.367.33 0 .61.096.844.29.223.185.406.462.558.817.172.388.355.715.55.97.185.247.456.458.8.616.342.164.812.245 1.39.245.785 0 1.433-.168 1.92-.497.475-.323.704-.713.704-1.193 0-.375-.12-.673-.37-.907-.257-.242-.602-.43-1.02-.558-.435-.133-1.018-.28-1.746-.43-.99-.212-1.834-.462-2.5-.748-.683-.293-1.237-.697-1.634-1.197-.413-.514-.614-1.155-.614-1.916 0-.723.215-1.37.645-1.93.426-.557 1.053-.987 1.852-1.286.79-.293 1.728-.442 2.8-.442.85 0 1.597.1 2.23.29.624.197 1.156.464 1.573.787.42.33.732.677.928 1.044.184.367.287.73.287 1.084 0 .344-.132.654-.393.92-.262.272-.59.412-.985.412-.356 0-.63-.088-.816-.254-.178-.158-.364-.406-.574-.76-.24-.45-.525-.813-.855-1.058-.32-.242-.857-.37-1.592-.37-.684 0-1.242.14-1.654.407-.4.26-.592.558-.592.912 0 .215.064.4.19.558.135.164.323.31.57.43.255.126.508.23.77.3.264.076.71.183 1.318.324.773.163 1.484.347 2.112.55.633.203 1.184.457 1.628.748.458.3.82.678 1.078 1.135.26.458.387 1.02.387 1.68 0 .788-.223 1.502-.664 2.13z"/></g></g></svg>