<svg xmlns="http://www.w3.org/2000/svg" viewBox="0 0 24 24"><rect x="0" fill="none" width="24" height="24"/><g><path d="M12 2C6.477 2 2 6.477 2 12c0 4.236 2.636 7.855 6.356 9.312-.087-.79-.166-2.005.035-2.87.183-.78 1.174-4.97 1.174-4.97s-.3-.6-.3-1.484c0-1.39.807-2.43 1.81-2.43.853 0 1.265.642 1.265 1.41 0 .858-.547 2.14-.83 3.33-.235.995.5 1.806 1.482 1.806 1.777 0 3.144-1.874 3.144-4.58 0-2.393-1.72-4.067-4.177-4.067-2.846 0-4.516 2.134-4.516 4.34 0 .86.33 1.78.744 2.282.082.098.094.185.07.286-.078.316-.247.995-.28 1.134-.044.183-.145.222-.334.134-1.25-.58-2.03-2.407-2.03-3.874 0-3.154 2.292-6.05 6.607-6.05 3.47 0 6.166 2.47 6.166 5.774 0 3.446-2.173 6.22-5.19 6.22-1.012 0-1.965-.526-2.29-1.148l-.624 2.377c-.226.87-.835 1.957-1.243 2.622.935.29 1.93.445 2.96.445 5.523 0 10-4.477 10-10S17.523 2 12 2z"/></g></svg>