<svg xmlns="http://www.w3.org/2000/svg" viewBox="0 0 24 24"><rect x="0" fill="none" width="24" height="24"/><g><rect x="0" fill="none" width="24" height="24"/><g><path d="M13.058 9.618l1.367.625 2.037-.597V8.258C16.39 5.895 14.422 4 12 4 9.585 4 7.625 5.882 7.538 8.232v6.343c0 .573-.473 1.038-1.058 1.038s-1.058-.467-1.058-1.038v-2.69H2v2.723C2 17.035 4.002 19 6.472 19c2.447 0 4.432-1.93 4.465-4.328l.005-6.263c0-.576.475-1.04 1.058-1.04s1.058.464 1.058 1.04v1.208zm5.52 2.267v2.813c0 .577-.473 1.042-1.058 1.042-.587 0-1.06-.465-1.06-1.042V11.94l-2.035.597-1.367-.625v2.738c.022 2.405 2.015 4.35 4.47 4.35C19.998 19 22 17.035 22 14.608v-2.723h-3.422z"/></g></g></svg>