<svg xmlns="http://www.w3.org/2000/svg" viewBox="0 0 24 24"><rect x="0" fill="none" width="24" height="24"/><g><path d="M21.927 4.194C21.667 3.48 20.982 3 20.222 3H3.84c-.748 0-1.43.47-1.695 1.17-.08.208-.12.424-.12.644v6.035l.07 1.2c.29 2.73 1.707 5.114 3.9 6.777l.118.09.025.017c1.175.86 2.49 1.44 3.91 1.727.655.133 1.325.2 1.99.2.616 0 1.233-.056 1.84-.17.073-.013.145-.027.22-.043.02-.004.04-.012.063-.023 1.36-.297 2.622-.864 3.754-1.69l.025-.02c.04-.028.08-.057.118-.088 2.192-1.664 3.61-4.05 3.898-6.778l.07-1.2V4.814c0-.21-.026-.416-.1-.62zm-4.235 6.287l-4.704 4.513c-.266.254-.608.382-.95.382-.34 0-.683-.128-.948-.382L6.385 10.48c-.547-.523-.565-1.39-.04-1.938.523-.547 1.39-.565 1.938-.04l3.756 3.6 3.754-3.6c.547-.524 1.415-.506 1.94.04.522.547.504 1.414-.042 1.94z"/></g></svg>