<svg xmlns="http://www.w3.org/2000/svg" viewBox="0 0 24 24"><rect x="0" fill="none" width="24" height="24"/><g><path d="M22.016 8.84l-.007-.037-.016-.072c-.003-.014-.01-.027-.013-.04l-.022-.063-.02-.042c-.008-.02-.018-.037-.03-.057-.007-.013-.017-.027-.025-.038l-.035-.052-.03-.037-.043-.044c-.01-.012-.022-.023-.035-.035-.015-.014-.032-.027-.048-.04l-.037-.03c-.005-.002-.01-.007-.015-.01l-9.16-6.097c-.29-.192-.667-.192-.956 0L2.36 8.237c-.006.003-.01.008-.016.012l-.038.027-.048.04c-.012.014-.024.025-.036.035-.015.015-.028.03-.042.047-.012.012-.022.022-.03.036-.01.017-.025.035-.035.052l-.025.038-.03.06-.02.04c-.008.022-.015.044-.02.064-.006.013-.01.027-.014.042-.007.023-.01.046-.016.07 0 .015-.005.026-.006.038-.006.04-.01.075-.01.114v6.093c0 .037.004.075.01.112 0 .01.004.024.006.037.005.023.008.047.015.072.003.014.008.027.013.04.007.02.013.04.022.062l.02.04c.008.02.018.038.03.058.007.013.015.027.025.038l.035.052.03.037c.013.015.028.032.042.045l.035.035c.015.013.032.028.048.04l.038.03.013.01 9.163 6.095c.148.1.313.148.48.148.167 0 .332-.047.478-.144l9.163-6.095.016-.01c.013-.01.027-.02.037-.03.018-.012.035-.027.048-.04.014-.01.026-.022.036-.034.017-.015.03-.032.043-.045l.03-.036.034-.052.025-.038.03-.058c.006-.013.012-.027.02-.04l.022-.063c.003-.013.01-.027.013-.04.007-.025.01-.048.015-.072l.007-.036c.003-.042.007-.08.007-.117V8.954c0-.04-.002-.075-.008-.114zm-9.154-4.376l6.75 4.49-3.015 2.013-3.735-2.492v-4.01zm-1.724 0v4.01l-3.735 2.493L4.39 8.954l6.748-4.49zm-7.44 6.098L5.854 12l-2.155 1.438v-2.876zm7.44 8.974l-6.75-4.49 3.016-2.012 3.735 2.492v4.01zm.862-5.5L8.953 12 12 9.966 15.047 12 12 14.035zm.862 5.5v-4.01l3.735-2.49 3.016 2.01-6.75 4.49zm7.44-6.098L18.148 12l2.156-1.438v2.876z"/></g></svg>