<svg xmlns="http://www.w3.org/2000/svg" viewBox="0 0 24 24"><rect x="0" fill="none" width="24" height="24"/><g><path d="M20.617 13.92c-.265 1.361-2.37 2.851-4.788 3.14-1.261.15-2.502.288-3.826.228-2.165-.1-3.873-.517-3.873-.517 0 .211.013.411.039.599.282 2.136 2.119 2.264 3.859 2.324 1.756.06 3.32-.433 3.32-.433l.072 1.588s-1.228.659-3.417.781c-1.207.066-2.705-.031-4.45-.493-3.785-1.001-4.436-5.036-4.536-9.13-.03-1.215-.011-2.361-.011-3.32 0-4.186 2.742-5.413 2.742-5.413 1.383-.635 3.756-.902 6.224-.923h.06c2.467.021 4.842.288 6.225.923 0 0 2.742 1.227 2.742 5.413 0 0 .035 3.089-.382 5.233zm-2.854-4.909v5.069h-2.008V9.16c0-1.037-.436-1.563-1.309-1.563-.965 0-1.448.624-1.448 1.859v2.693h-1.996V9.456c0-1.235-.484-1.859-1.449-1.859-.873 0-1.309.526-1.309 1.563v4.92H6.236V9.011c0-1.035.263-1.859.793-2.468.547-.609 1.262-.921 2.15-.921 1.028 0 1.806.395 2.32 1.185l.501.839.5-.839c.514-.79 1.292-1.185 2.32-1.185.888 0 1.604.312 2.15.921.53.609.793 1.433.793 2.468z" fill-rule="evenodd"/></g></svg>