<svg width="24" height="24" viewBox="0 0 24 24" xmlns="http://www.w3.org/2000/svg"><rect x="0" fill="none" width="24" height="24"/><g><path d="M7.423 6c3.27 0 5.922 2.686 5.922 6s-2.651 6-5.922 6S1.5 15.313 1.5 12s2.652-6 5.923-6zm9.458.351c1.635 0 2.961 2.53 2.961 5.65 0 3.118-1.325 5.648-2.96 5.648-1.636 0-2.962-2.53-2.962-5.649s1.325-5.649 2.96-5.649zm4.577.589c.576 0 1.042 2.265 1.042 5.06 0 2.794-.466 5.06-1.042 5.06-.575 0-1.04-2.265-1.04-5.06 0-2.794.465-5.06 1.04-5.06z" fill-rule="nonzero"/></g></svg>