<svg xmlns="http://www.w3.org/2000/svg" viewBox="0 0 24 24"><rect x="0" fill="none" width="24" height="24"/><g><path d="M20.962 7.257l-5.457 8.867-3.923-6.375 3.126-5.08c.112-.183.32-.287.527-.287.05 0 .1.008.15.02.038.01.077.023.113.04l5.43 2.716.006.002.01.008c.027.02.036.057.018.087zM9.86 8.592v5.783l5.14 2.57-5.14-8.353zm5.912 8.74l4.23 2.114c.552.275.998.083.998-.43V8.836l-5.228 8.495zM8.968 7.177l-5.303-2.65c-.096-.05-.187-.072-.27-.072-.232 0-.395.18-.395.482v11.45c0 .306.224.67.498.806l4.67 2.335c.12.06.235.087.338.087.29 0 .494-.225.494-.602V7.23c0-.022-.012-.042-.032-.052z"/></g></svg>