<svg xmlns="http://www.w3.org/2000/svg" viewBox="0 0 24 24"><rect x="0" fill="none" width="24" height="24"/><g><path d="M20.962 7.257l-5.457 8.867-3.923-6.375 3.126-5.08a.621.621 0 01.79-.225l5.43 2.715.006.003.011.008a.067.067 0 01.017.087zM9.86 8.592v5.783l5.14 2.57-5.14-8.353zm5.912 8.739l4.231 2.115c.551.275.997.083.997-.43V8.835l-5.228 8.496zM8.968 7.178L3.665 4.527a.608.608 0 00-.27-.071c-.232 0-.395.18-.395.482v11.45a.99.99 0 00.498.806l4.671 2.335c.12.06.234.088.337.088.29 0 .494-.225.494-.602V7.231a.058.058 0 00-.032-.053z"/></g></svg>