<svg xmlns="http://www.w3.org/2000/svg" viewBox="0 0 24 24"><rect x="0" fill="none" width="24" height="24"/><g><path d="M17.19 16.38c-.676.338-1.536.6-2.317.6-.86 0-1.77-.027-2.577-.417v1.77c0 2.29-.99 3.672-3.385 3.672-.676 0-1.98-.21-2.37-.833V18.36c.365.415.938.702 1.51.702.626 0 .99-.364.99-.99V8.334h3.255v5.728c.546.182 1.094.26 1.666.26 2.084 0 3.83-1.406 3.83-3.594 0-3.41-2.944-4.738-5.964-4.738-2.813 0-5.73 1.64-5.73 4.764 0 .964.21 1.745.887 2.448l-2.37 2.03C3.313 13.803 3 12.657 3 10.756c0-4.947 4.114-7.76 8.722-7.76 4.66 0 9.322 2.396 9.322 7.604 0 2.603-1.535 4.686-3.853 5.78z"/></g></svg>