<svg xmlns="http://www.w3.org/2000/svg" viewBox="0 0 24 24"><rect x="0" fill="none" width="24" height="24"/><g><path d="M12 2C6.477 2 2 6.477 2 12c0 4.236 2.636 7.855 6.356 9.312-.087-.791-.166-2.005.035-2.869.182-.78 1.173-4.971 1.173-4.971s-.299-.599-.299-1.484c0-1.39.806-2.429 1.809-2.429.853 0 1.265.641 1.265 1.409 0 .858-.546 2.141-.828 3.329-.236.996.499 1.807 1.481 1.807 1.777 0 3.144-1.874 3.144-4.579 0-2.394-1.72-4.068-4.177-4.068-2.845 0-4.515 2.134-4.515 4.34 0 .859.331 1.781.744 2.282a.297.297 0 01.069.287c-.077.316-.246.995-.279 1.134-.044.183-.145.222-.334.134-1.249-.581-2.03-2.407-2.03-3.874 0-3.154 2.292-6.051 6.607-6.051 3.469 0 6.165 2.472 6.165 5.775 0 3.446-2.173 6.22-5.189 6.22-1.013 0-1.966-.526-2.292-1.148l-.623 2.377c-.226.869-.835 1.957-1.243 2.622.936.289 1.93.445 2.961.445 5.523 0 10-4.477 10-10S17.523 2 12 2z"/></g></svg>