<svg xmlns="http://www.w3.org/2000/svg" viewBox="0 0 24 24"><rect x="0" fill="none" width="24" height="24"/><g><path d="M12.289 2C6.617 2 3.606 5.648 3.606 9.622c0 1.846 1.025 4.146 2.666 4.878.25.111.381.063.439-.169.044-.175.267-1.029.365-1.428a.365.365 0 00-.091-.362c-.54-.63-.975-1.791-.975-2.873 0-2.777 2.194-5.464 5.933-5.464 3.23 0 5.49 2.108 5.49 5.122 0 3.407-1.794 5.768-4.13 5.768-1.291 0-2.257-1.021-1.948-2.277.372-1.495 1.089-3.112 1.089-4.191 0-.967-.542-1.775-1.663-1.775-1.319 0-2.379 1.309-2.379 3.059 0 1.115.394 1.869.394 1.869s-1.302 5.279-1.54 6.261c-.405 1.666.053 4.368.094 4.604.021.126.167.169.25.063.129-.165 1.699-2.419 2.142-4.051.158-.59.817-2.995.817-2.995.43.784 1.681 1.446 3.013 1.446 3.963 0 6.822-3.494 6.822-7.833C20.394 5.112 16.849 2 12.289 2"/></g></svg>