<svg xmlns="http://www.w3.org/2000/svg" viewBox="0 0 24 24"><rect x="0" fill="none" width="24" height="24"/><g><path d="M21.927 4.194A1.82 1.82 0 0020.222 3H3.839a1.823 1.823 0 00-1.813 1.814v6.035l.069 1.2c.29 2.73 1.707 5.115 3.899 6.778l.119.089.025.018a9.897 9.897 0 003.91 1.727 10.06 10.06 0 004.049-.014.261.261 0 00.064-.023 9.906 9.906 0 003.753-1.691l.025-.018c.04-.029.08-.058.119-.089 2.192-1.664 3.609-4.049 3.898-6.778l.069-1.2V4.814a1.792 1.792 0 00-.098-.62zm-4.235 6.287l-4.704 4.512a1.372 1.372 0 01-1.898 0l-4.705-4.512a1.371 1.371 0 111.898-1.979l3.756 3.601 3.755-3.601a1.372 1.372 0 011.898 1.979z"/></g></svg>