<svg xmlns="http://www.w3.org/2000/svg" viewBox="0 0 24 24"><rect x="0" fill="none" width="24" height="24"/><g><path d="M12 2C6.487 2 2 6.487 2 12c0 5.514 4.487 10 10 10 5.514 0 10-4.486 10-10 0-5.513-4.486-10-10-10zm.99 1.68c2.362.084 4.658 1.25 6.198 3.136.283.334.54.693.774 1.067-1.427-1.79-3.627-2.94-6.094-2.94-2.357 0-4.467 1.047-5.896 2.703-.006.003-.01.01-.016.014l-.152.16-.03.03C6.76 8.948 6.14 10.41 6.14 12.017c0 3.387 2.756 6.143 6.143 6.143.57 0 1.123-.082 1.65-.228-1.85.84-4.132.747-5.927-.324-1.84-1.09-3.17-3.11-3.433-5.313-.294-2.205.483-4.548 2.117-6.158 1.604-1.637 3.944-2.574 6.3-2.457zm3.374 8.52c-.05-2.025-1.587-3.89-3.544-4.175-1.927-.343-3.917.857-4.45 2.66-.272.884-.19 1.848.2 2.654.39.8 1.066 1.45 1.893 1.758 1.664.654 3.63-.27 4.173-1.863.593-1.58-.396-3.423-1.94-3.776-1.52-.408-3.16.756-3.204 2.242-.05.716.253 1.42.753 1.88.5.475 1.23.666 1.87.528.647-.127 1.2-.557 1.47-1.134.27-.576.22-1.256-.087-1.767-.297-.514-.86-.864-1.43-.882-.57-.03-1.12.246-1.436.68-.326.435-.38 1.025-.18 1.488.004.01.01.02.016.03.193.634.774 1.1 1.467 1.117-.33.04-.674-.02-.97-.183-.466-.244-.81-.747-.893-1.29-.083-.544.09-1.137.5-1.54.398-.412.988-.65 1.58-.605.592.04 1.158.35 1.516.86.364.495.51 1.155.383 1.772-.115.62-.528 1.174-1.092 1.514-.557.34-1.264.455-1.914.287-.65-.16-1.226-.606-1.584-1.206-.36-.594-.49-1.337-.34-2.03.142-.7.572-1.32 1.175-1.753 1.193-.883 3.056-.75 4.106.41 1.107 1.1 1.328 3.028.407 4.372-.877 1.375-2.74 2.085-4.374 1.593-1.64-.45-2.913-2.08-3.03-3.853-.07-.884.13-1.797.582-2.577C8.43 8.636 9.14 7.98 9.957 7.55c1.64-.88 3.816-.742 5.35.425 1.25.924 2.082 2.42 2.235 4.01v.03c0 2.9-2.358 5.26-5.26 5.26-.686 0-1.343-.135-1.946-.377.866.207 1.777.176 2.613-.08 1.005-.303 1.893-.926 2.513-1.75.618-.828.95-1.86.9-2.87zM12 21.112c-5.024 0-9.11-4.087-9.11-9.113 0-4.79 3.712-8.723 8.41-9.08-.133.015-.266.035-.397.06-2.644.452-5.017 2.105-6.32 4.408-1.31 2.3-1.39 5.19-.3 7.527 1.056 2.34 3.253 4.156 5.776 4.553 2.496.44 5.132-.483 6.786-2.3 1.72-1.798 2.27-4.53 1.486-6.797-.583-1.81-1.976-3.33-3.7-4.045 3.417.594 6.174 3.22 6.174 6.78 0 1.005-.24 2.02-.657 2.967-1.5 2.984-4.587 5.04-8.15 5.04z"/></g></svg>