<svg xmlns="http://www.w3.org/2000/svg" viewBox="0 0 24 24"><rect x="0" fill="none" width="24" height="24"/><g><path d="M7 12c0-2.757 2.243-5 5-5 1.523 0 2.945.685 3.902 1.88.344.43.973.5 1.405.154.432-.345.5-.975.155-1.405C16.125 5.957 14.134 5 12 5c-3.52 0-6.442 2.612-6.93 6H2v2h5v-1zm10-1v1c0 2.757-2.243 5-5 5-1.523 0-2.946-.685-3.902-1.88-.346-.43-.976-.502-1.406-.154-.43.345-.5.975-.156 1.405C7.876 18.043 9.866 19 12 19c3.52 0 6.442-2.612 6.93-6H22v-2h-5zm-7 1c0 1.105.895 2 2 2s2-.895 2-2-.895-2-2-2-2 .895-2 2z"/></g></svg>