<svg xmlns="http://www.w3.org/2000/svg" viewBox="0 0 24 24"><rect x="0" fill="none" width="24" height="24"/><g><path d="M10.113 2.7l.1-.02c.033.016.066.032.098.05l-.197-.03zM2.72 10.222c-.006.034-.01.07-.017.103.018.032.033.064.05.095l-.033-.197zm18.555 3.548c.007-.034.01-.07.018-.105-.018-.03-.033-.064-.052-.095l.035.2zm-7.712 7.43c.032.018.065.034.096.052.035-.006.07-.01.104-.017l-.2-.036zM22 16.385c0 1.494-.58 2.898-1.637 3.953-1.056 1.056-2.46 1.636-3.953 1.636-.967 0-1.914-.25-2.75-.725l.105-.016-.202-.035c.032.018.065.034.096.052-.544.096-1.1.147-1.655.147-1.275 0-2.512-.25-3.676-.744-1.126-.474-2.136-1.156-3.003-2.023-.867-.867-1.548-1.877-2.023-3.002-.493-1.163-.743-2.4-.743-3.675 0-.546.05-1.093.143-1.628.018.032.033.064.05.095l-.033-.2c-.006.035-.01.07-.017.104C2.243 9.5 2 8.566 2 7.616c0-1.494.582-2.9 1.637-3.954 1.056-1.056 2.46-1.638 3.953-1.638.915 0 1.818.228 2.622.655-.033.006-.067.012-.1.02l.2.03c-.033-.018-.067-.034-.1-.05.003 0 .004-.002.005-.002.586-.112 1.187-.17 1.788-.17 1.275 0 2.512.25 3.676.743 1.125.477 2.136 1.157 3.003 2.025.868.867 1.548 1.877 2.024 3.002.493 1.164.743 2.4.743 3.676 0 .575-.054 1.15-.157 1.712-.018-.03-.033-.064-.052-.095l.035.2c.007-.034.01-.07.018-.105.46.83.707 1.767.707 2.72zm-5.183-2.248c0-1.33-.613-2.743-3.033-3.282l-2.21-.49c-.84-.192-1.806-.444-1.806-1.237 0-.795.68-1.35 1.903-1.35 2.47 0 2.244 1.697 3.47 1.697.644 0 1.208-.38 1.208-1.03 0-1.522-2.435-2.664-4.5-2.664-2.242 0-4.63.952-4.63 3.488 0 1.222.436 2.522 2.84 3.124l2.983.745c.904.222 1.13.73 1.13 1.188 0 .762-.758 1.507-2.13 1.507-2.678 0-2.306-2.062-3.742-2.062-.645 0-1.113.444-1.113 1.078 0 1.237 1.5 2.887 4.856 2.887 3.196 0 4.777-1.538 4.777-3.6z"/></g></svg>