<svg xmlns="http://www.w3.org/2000/svg" viewBox="0 0 24 24"><rect x="0" fill="none" width="24" height="24"/><g><path d="M10.113 2.699l.1-.02c.033.017.066.033.098.051l-.198-.031zM2.72 10.223l-.017.103c.018.032.033.064.051.095l-.034-.198zm18.555 3.548c.007-.035.011-.071.018-.106-.018-.031-.033-.064-.052-.095l.034.201zm-7.712 7.428c.032.019.065.035.096.053l.105-.017-.201-.036zM22 16.386a5.55 5.55 0 01-1.637 3.953 5.548 5.548 0 01-3.953 1.637 5.575 5.575 0 01-2.75-.725l.105-.017-.202-.035c.032.019.065.035.096.053a9.524 9.524 0 01-1.654.147 9.375 9.375 0 01-3.676-.743 9.38 9.38 0 01-3.002-2.023 9.397 9.397 0 01-2.023-3.002 9.375 9.375 0 01-.743-3.676c0-.546.049-1.093.142-1.628.018.032.033.064.051.095l-.034-.199-.017.103A5.586 5.586 0 012 7.615c0-1.493.582-2.898 1.637-3.953A5.555 5.555 0 017.59 2.024c.915 0 1.818.228 2.622.655l-.1.02.199.031c-.032-.018-.066-.034-.098-.051l.004-.001a9.543 9.543 0 011.788-.169 9.41 9.41 0 016.678 2.766 9.4 9.4 0 012.024 3.002 9.375 9.375 0 01.743 3.676c0 .575-.054 1.15-.157 1.712-.018-.031-.033-.064-.052-.095l.034.201c.007-.035.011-.071.018-.106.461.829.707 1.767.707 2.721zm-5.183-2.248c0-1.331-.613-2.743-3.033-3.282l-2.209-.49c-.84-.192-1.807-.444-1.807-1.237 0-.794.679-1.348 1.903-1.348 2.468 0 2.243 1.696 3.468 1.696.645 0 1.209-.379 1.209-1.031 0-1.521-2.435-2.663-4.5-2.663-2.242 0-4.63.952-4.63 3.488 0 1.221.436 2.521 2.839 3.123l2.984.745c.903.223 1.129.731 1.129 1.189 0 .762-.758 1.507-2.129 1.507-2.679 0-2.307-2.062-3.743-2.062-.645 0-1.113.444-1.113 1.078 0 1.236 1.501 2.886 4.856 2.886 3.195 0 4.776-1.538 4.776-3.599z"/></g></svg>