<svg xmlns="http://www.w3.org/2000/svg" viewBox="0 0 24 24"><rect x="0" fill="none" width="24" height="24"/><g><path d="M12 2C6.477 2 2 6.477 2 12s4.477 10 10 10 10-4.477 10-10S17.523 2 12 2m4.586 14.424c-.18.295-.563.387-.857.207-2.35-1.434-5.305-1.76-8.786-.963-.335.077-.67-.133-.746-.47-.077-.334.132-.67.47-.745 3.808-.87 7.076-.496 9.712 1.115.293.18.386.563.206.857M17.81 13.7c-.226.367-.706.482-1.072.257-2.687-1.652-6.785-2.13-9.965-1.166-.413.127-.848-.106-.973-.517-.125-.413.108-.848.52-.973 3.632-1.102 8.147-.568 11.234 1.328.366.226.48.707.256 1.072m.105-2.835C14.692 8.95 9.375 8.775 6.297 9.71c-.493.15-1.016-.13-1.166-.624-.148-.495.13-1.017.625-1.167 3.532-1.073 9.404-.866 13.115 1.337.445.264.59.838.327 1.282-.264.443-.838.59-1.282.325"/></g></svg>