<svg xmlns="http://www.w3.org/2000/svg" viewBox="0 0 24 24"><rect x="0" fill="none" width="24" height="24"/><g><path d="M12 2C6.43 2 2 6.43 2 12s4.43 10 10 10 10-4.43 10-10S17.57 2 12 2zm4 14.714c-.143 0-.286 0-.43-.143-1.428-.856-3.285-1.285-5.142-1.285-1 0-2.143.143-3.143.286-.143 0-.43.144-.43.144-.428 0-.57-.286-.57-.57 0-.43.286-.572.57-.715 1.144-.287 2.287-.572 3.572-.572 2.143 0 4.143.57 5.857 1.57.286.144.43.287.43.715 0 .286-.285.57-.714.57zm1.143-2.57c-.286 0-.286-.144-.57-.144-1.572-1-3.858-1.57-6.287-1.57-1.286 0-2.43.14-3.286.427-.143 0-.286.143-.43.143-.428-.143-.856-.57-.856-1s.143-.714.57-.857c1.144-.286 2.287-.57 4-.57 2.572 0 5.144.713 7.144 1.856.286.142.43.428.43.856s-.287.857-.715.857zM18.43 11c-.144 0-.287 0-.572-.143C16 9.714 13.286 9.143 10.57 9.143c-1.428 0-2.713.143-4 .43-.14-.002-.284.14-.57.14-.57 0-1-.428-1-1s.286-.856.714-1c1.43-.428 3-.57 4.714-.57 3 0 6 .57 8.286 2 .286.143.572.428.572.857 0 .57-.43 1-.857 1z"/></g></svg>