<svg xmlns="http://www.w3.org/2000/svg" viewBox="0 0 24 24"><rect x="0" fill="none" width="24" height="24"/><g><path d="M20.87 9.271a3.86 3.86 0 00-5.458 0l-6.141 6.141a.964.964 0 101.365 1.364l6.14-6.14a1.929 1.929 0 112.729 2.729l-6.022 6.022a1.929 1.929 0 002.729 0l4.658-4.658a3.86 3.86 0 000-5.458zm-2.047 2.047a.965.965 0 00-1.365 0l-6.14 6.14a1.929 1.929 0 01-2.729 0 .964.964 0 10-1.364 1.364 3.86 3.86 0 005.458 0l6.14-6.14a.966.966 0 000-1.364zm-2.047-6.141a3.858 3.858 0 00-5.458 0l-6.14 6.14a.964.964 0 101.364 1.364l6.141-6.14a1.929 1.929 0 012.729 0 .965.965 0 101.364-1.364zm-2.047 2.047a.964.964 0 00-1.364 0l-6.14 6.141a1.929 1.929 0 11-2.729-2.729l6.022-6.022a1.929 1.929 0 00-2.729 0L3.13 9.271a3.86 3.86 0 005.458 5.458l6.14-6.141a.963.963 0 00.001-1.364z"/></g></svg>