<svg xmlns="http://www.w3.org/2000/svg" viewBox="0 0 24 24"><rect x="0" fill="none" width="24" height="24"/><g><path d="M20.87 9.27c-1.507-1.506-3.95-1.506-5.458 0l-6.14 6.142c-.378.377-.378.988 0 1.364.376.377.987.377 1.364 0l6.14-6.14c.754-.754 1.976-.754 2.73 0 .753.754.753 1.975 0 2.73l-6.023 6.02c.754.755 1.975.755 2.73 0l4.657-4.657c1.507-1.508 1.507-3.952 0-5.46zm-2.047 2.048c-.377-.377-.988-.377-1.365 0l-6.14 6.14c-.754.754-1.976.754-2.73 0-.376-.377-.987-.377-1.363 0-.377.377-.377.988 0 1.364 1.507 1.507 3.95 1.507 5.458 0l6.14-6.14c.376-.376.376-.988 0-1.364zm-2.047-6.14c-1.507-1.51-3.95-1.51-5.458 0l-6.14 6.14c-.377.376-.377.987 0 1.363.377.378.988.378 1.364 0l6.14-6.14c.755-.753 1.976-.753 2.73 0 .377.378.988.378 1.365 0 .376-.375.376-.986 0-1.363zM14.73 7.223c-.378-.377-.99-.377-1.365 0l-6.14 6.14c-.754.755-1.976.755-2.73 0-.753-.752-.753-1.974 0-2.728l6.023-6.022c-.754-.754-1.976-.754-2.73 0L3.13 9.27c-1.507 1.51-1.507 3.952 0 5.46 1.507 1.506 3.95 1.506 5.458 0l6.14-6.142c.378-.376.378-.987 0-1.364z"/></g></svg>