<svg xmlns="http://www.w3.org/2000/svg" viewBox="0 0 24 24"><rect x="0" fill="none" width="24" height="24"/><g><path d="M12 4.294c-2.47 0-4.47 2.002-4.47 4.47v6.354c0 .585-.475 1.06-1.06 1.06-.585 0-1.06-.475-1.06-1.06v-2.824H2v2.94c0 2.47 2.002 4.472 4.47 4.472 2.47 0 4.472-2.002 4.472-4.47v-6.47c0-.586.474-1.06 1.06-1.06s1.058.474 1.058 1.06v1.293l1.412.646 2-.647V8.764c0-2.47-2.003-4.47-4.472-4.47zm1.06 8.06v2.88c0 2.47 2 4.472 4.47 4.472S22 17.704 22 15.236V12.41h-3.412v2.825c0 .585-.474 1.06-1.06 1.06-.584 0-1.058-.475-1.058-1.06v-2.882l-2 .647-1.41-.647z"/></g></svg>