<svg xmlns="http://www.w3.org/2000/svg" viewBox="0 0 24 24"><rect x="0" fill="none" width="24" height="24"/><g><path d="M19 3H5c-1.1 0-2 .9-2 2v14c0 1.1.9 2 2 2h14c1.1 0 2-.9 2-2V5c0-1.1-.9-2-2-2zm-2.5 6.7v.3c0 3-2.3 6.6-6.6 6.6-1.3 0-2.5-.4-3.5-1h.5c1.1 0 2.1-.4 2.9-1-1 0-1.9-.7-2.2-1.6H8c.2 0 .4 0 .6-.1-1.1-.2-1.8-1.1-1.8-2.3.3.2.7.3 1 .3-.6-.4-1-1.1-1-1.9 0-.4.1-.8.3-1.2 1.1 1.4 2.8 2.3 4.7 2.4 0-.2-.1-.3-.1-.5 0-1.3 1-2.3 2.3-2.3.7 0 1.3.3 1.7.7.5-.1 1-.3 1.5-.6-.2.5-.5 1-1 1.3.5-.1.9-.2 1.3-.4-.2.6-.6 1-1 1.3z"/></g></svg>