<svg xmlns="http://www.w3.org/2000/svg" viewBox="0 0 24 24"><rect x="0" fill="none" width="24" height="24"/><g><path d="M19 3H5a2 2 0 00-2 2v14a2 2 0 002 2h14a2 2 0 002-2V5a2 2 0 00-2-2zm-2.534 6.71c.004.099.007.198.007.298 0 3.045-2.318 6.556-6.556 6.556a6.52 6.52 0 01-3.532-1.035 4.626 4.626 0 003.412-.954 2.307 2.307 0 01-2.152-1.6 2.295 2.295 0 001.04-.04 2.306 2.306 0 01-1.848-2.259v-.029c.311.173.666.276 1.044.288a2.303 2.303 0 01-.713-3.076 6.54 6.54 0 004.749 2.407 2.305 2.305 0 013.926-2.101 4.602 4.602 0 001.463-.559 2.31 2.31 0 01-1.013 1.275c.466-.056.91-.18 1.323-.363-.31.461-.7.867-1.15 1.192z"/></g></svg>