<svg xmlns="http://www.w3.org/2000/svg" viewBox="0 0 24 24"><rect x="0" fill="none" width="24" height="24"/><g><path d="M22.396 7.164c-.093 2.026-1.507 4.799-4.245 8.32C15.322 19.161 12.928 21 10.97 21c-1.214 0-2.24-1.119-3.079-3.359l-1.68-6.159c-.623-2.239-1.29-3.36-2.005-3.36-.156 0-.701.328-1.634.98l-.978-1.261c1.027-.902 2.04-1.805 3.037-2.708C6.001 3.95 7.03 3.327 7.715 3.264c1.619-.156 2.616.951 2.99 3.321.404 2.557.685 4.147.841 4.769.467 2.121.981 3.181 1.542 3.181.435 0 1.09-.688 1.963-2.065.871-1.376 1.338-2.422 1.401-3.142.125-1.187-.343-1.782-1.401-1.782-.498 0-1.012.115-1.541.341 1.023-3.35 2.977-4.977 5.862-4.884 2.139.063 3.148 1.45 3.024 4.161z"/></g></svg>