<svg xmlns="http://www.w3.org/2000/svg" viewBox="0 0 24 24"><rect x="0" fill="none" width="24" height="24"/><g><path d="M2.048 22l1.406-5.136C2.587 15.36 2.13 13.656 2.13 11.91 2.134 6.445 6.58 2 12.043 2c2.65 0 5.14 1.033 7.01 2.906 1.872 1.873 2.902 4.363 2.9 7.01 0 5.465-4.447 9.91-9.91 9.91h-.003c-1.66 0-3.29-.416-4.737-1.205L2.048 22zm5.497-3.172l.3.18c1.266.75 2.715 1.147 4.194 1.147h.002c4.54 0 8.235-3.695 8.237-8.237 0-2.2-.856-4.27-2.41-5.828-1.556-1.557-3.624-2.415-5.825-2.416-4.544 0-8.24 3.695-8.24 8.237-.002 1.557.434 3.073 1.258 4.385l.196.312-.833 3.04 3.118-.82zm9.49-4.554c-.062-.103-.227-.165-.475-.29-.248-.123-1.465-.722-1.692-.805-.227-.084-.392-.125-.557.123-.164.248-.64.806-.783.97-.144.166-.29.187-.536.063-.247-.124-1.045-.385-1.99-1.23-.736-.656-1.233-1.467-1.378-1.714-.144-.248-.015-.382.11-.505.11-.11.247-.29.37-.434.124-.145.165-.248.248-.413.083-.165.04-.31-.02-.434-.063-.124-.558-1.343-.764-1.84-.202-.482-.407-.416-.56-.424-.143-.007-.31-.01-.474-.01-.165 0-.433.063-.66.31-.226.25-.866.848-.866 2.067 0 1.218.887 2.395 1.01 2.56.125.166 1.747 2.667 4.23 3.74.592.255 1.053.408 1.413.522.592.19 1.132.162 1.56.098.475-.07 1.464-.6 1.67-1.177.206-.58.206-1.075.145-1.18z"/></g></svg>