<svg xmlns="http://www.w3.org/2000/svg" viewBox="0 0 24 24"><rect x="0" fill="none" width="24" height="24"/><g><path d="M2.048 22l1.406-5.136a9.894 9.894 0 01-1.323-4.955C2.133 6.446 6.579 2 12.042 2a9.848 9.848 0 017.011 2.906 9.85 9.85 0 012.9 7.011c-.002 5.464-4.448 9.91-9.91 9.91h-.004a9.913 9.913 0 01-4.736-1.206L2.048 22zm5.497-3.172l.301.179a8.214 8.214 0 004.193 1.148h.003c4.54 0 8.235-3.695 8.237-8.237a8.189 8.189 0 00-2.41-5.828 8.182 8.182 0 00-5.824-2.416c-4.544 0-8.239 3.695-8.241 8.237a8.222 8.222 0 001.259 4.384l.196.312-.832 3.04 3.118-.819zm9.49-4.554c-.062-.103-.227-.165-.475-.289-.248-.124-1.465-.723-1.692-.806-.227-.083-.392-.124-.557.124-.165.248-.64.806-.784.971-.144.165-.289.186-.536.062-.248-.124-1.046-.385-1.991-1.229-.736-.657-1.233-1.468-1.378-1.715-.144-.248-.015-.382.109-.505.111-.111.248-.289.371-.434.124-.145.165-.248.248-.413.083-.165.041-.31-.021-.434s-.557-1.343-.763-1.839c-.202-.483-.407-.417-.559-.425-.144-.007-.31-.009-.475-.009a.91.91 0 00-.66.31c-.226.248-.866.847-.866 2.066 0 1.219.887 2.396 1.011 2.562.124.165 1.746 2.666 4.23 3.739.591.255 1.052.408 1.412.522.593.189 1.133.162 1.56.098.476-.071 1.465-.599 1.671-1.177.206-.58.206-1.075.145-1.179z"/></g></svg>