<svg xmlns="http://www.w3.org/2000/svg" viewBox="0 0 24 24"><rect x="0" fill="none" width="24" height="24"/><g><path d="M12.158 12.786L9.46 20.625a8.984 8.984 0 005.526-.144.852.852 0 01-.065-.124l-2.763-7.571zM3.009 12a8.993 8.993 0 005.067 8.092L3.788 8.341A8.952 8.952 0 003.009 12zm15.06-.454c0-1.112-.399-1.881-.741-2.48-.456-.741-.883-1.368-.883-2.109 0-.826.627-1.596 1.51-1.596.04 0 .078.005.116.007A8.963 8.963 0 0012 3.009a8.982 8.982 0 00-7.512 4.052c.211.007.41.011.579.011.94 0 2.396-.114 2.396-.114.484-.028.541.684.057.741 0 0-.487.057-1.029.085l3.274 9.739 1.968-5.901-1.401-3.838c-.484-.028-.943-.085-.943-.085-.485-.029-.428-.769.057-.741 0 0 1.484.114 2.368.114.94 0 2.397-.114 2.397-.114.485-.028.542.684.057.741 0 0-.488.057-1.029.085l3.249 9.665.897-2.996c.456-1.169.684-2.137.684-2.907zm1.82-3.86c.039.286.06.593.06.924 0 .912-.171 1.938-.684 3.22l-2.746 7.94a8.984 8.984 0 004.47-7.771 8.922 8.922 0 00-1.1-4.313zM12 22C6.486 22 2 17.514 2 12S6.486 2 12 2s10 4.486 10 10-4.486 10-10 10z"/></g></svg>