<?xml version="1.0" encoding="utf-8"?>
<!-- Generator: Adobe Illustrator 15.0.0, SVG Export Plug-In . SVG Version: 6.00 Build 0)  -->
<!DOCTYPE svg PUBLIC "-//W3C//DTD SVG 1.1//EN" "http://www.w3.org/Graphics/SVG/1.1/DTD/svg11.dtd">
<svg version="1.1" id="Layer_1" xmlns="http://www.w3.org/2000/svg" xmlns:xlink="http://www.w3.org/1999/xlink" x="0px" y="0px"
	 width="59.998px" height="59.997px" viewBox="0 0 59.998 59.997" enable-background="new 0 0 59.998 59.997" xml:space="preserve">
<path fill="#FFFFFF" d="M29.999,0C13.431,0,0,13.431,0,29.999s13.431,30,29.999,30c16.568,0,29.999-13.431,29.999-30
	C59.998,13.431,46.567,0,29.999,0z M29.999,56C15.639,56,3.998,44.359,3.998,29.999S15.639,3.998,29.999,3.998
	C44.358,3.998,56,15.639,56,29.999S44.358,56,29.999,56z"/>
<g>
	<path fill="#FFFFFF" d="M20.96,20.884l1.886-2.321l18.681,18.68l-2.47,1.742c-0.688,0.689-1.847,1.264-3.47,1.72
		c-1.624,0.456-3.105,0.685-4.449,0.685h-8.044l-1.571,1.568c-0.606,0.609-1.339,0.912-2.197,0.912c-0.856,0-1.59-0.303-2.196-0.912
		c-0.608-0.593-0.913-1.322-0.913-2.188c0-0.861,0.302-1.598,0.913-2.205l1.569-1.571V28.95c0-1.327,0.212-2.833,0.633-4.519
		C19.756,22.744,20.296,21.562,20.96,20.884z M37.546,17.215l-6.717,6.717l-3.878-3.876l6.716-6.718
		c0.362-0.357,0.86-0.474,1.496-0.341s1.214,0.466,1.74,1.005c0.539,0.526,0.871,1.104,0.996,1.732
		C38.021,16.361,37.904,16.857,37.546,17.215z M36.013,29.114l6.717-6.716c0.343-0.358,0.834-0.478,1.469-0.353
		c0.636,0.125,1.215,0.456,1.742,0.995c0.538,0.525,0.871,1.104,0.994,1.732c0.127,0.629,0.008,1.124-0.352,1.482l-6.717,6.737
		L36.013,29.114z"/>
</g>
</svg>
