<svg id="connectJetpack" xmlns="http://www.w3.org/2000/svg" viewBox="0 0 1426.4 1421.5"><title>jetPack-poweringUp</title><path d="M916.26,1036.81l-9.76-67.89c0-401.7-282.29-404.05-282.29-404.05l-325.73-1.14C108.64,651.94,95,818.13,93,880.27c-1.7,52.92,43,190.61,43.73,232.18,102.39.29,566,131.76,746.25,4.71C908.48,1099.21,920.69,1067.66,916.26,1036.81Z" transform="translate(-43.6 -33)" style="fill:#00a9de"/><polygon points="426.68 526.15 400.75 490.91 448.94 490.1 426.68 526.15" style="fill:#c8d7e2"/><path d="M559.05,480.28V452.85c-50.86,5.93-106.36,14.67-145.92,5.78S485.59,481,559.05,480.28Z" transform="translate(-43.6 -33)" style="fill:#004f84"/><rect x="368.53" y="233.98" width="24.61" height="43.93" rx="12.31" ry="12.31" style="fill:#004f84"/><path d="M344.17,295.61c3.54,23,2.85,46,6.55,68.34,3.43,22.09,9.7,44.28,24.1,59.35C389,438.57,410.91,444.87,433,447.83s45.4,3.54,68.19,3.4c22.36-.17,44.76-4,63.53-14.36s32.23-28.24,39.92-48.86,11.3-43.31,13.55-66.06c2.45-22.79,3.6-45.92,5.69-69.1a2.38,2.38,0,0,1,4.74,0,553.87,553.87,0,0,1,2,70c-1.31,23.41-3.94,47.3-12.45,70.21-8.15,22.76-23.87,44.61-46,56.83-21.95,12.35-46.82,16.45-70.63,16.88-23.57.28-46.92.09-70.71-3.33-11.84-1.76-23.8-4.29-35.43-8.84s-22.85-11.38-31.55-20.93c-17.78-19.23-23.95-44.38-27.44-67.6-3-23.6-5-47.14-1.65-70.49a4.79,4.79,0,0,1,5.42-4.05A4.84,4.84,0,0,1,344.17,295.61Z" transform="translate(-43.6 -33)" style="fill:#004f84"/><path d="M499.92,268.79c2.46,11.4,2.94,22.81,3.51,34.22,0,11.4.15,22.81-1.91,34.22a5.24,5.24,0,0,1-10.31,0c-2.06-11.41-1.92-22.81-1.91-34.22.57-11.41,1-22.81,3.51-34.22a3.63,3.63,0,0,1,7.1,0Z" transform="translate(-43.6 -33)" style="fill:#004f81"/><rect x="509.8" y="233.98" width="24.61" height="43.93" rx="12.31" ry="12.31" style="fill:#004f84"/><path d="M448.56,368.52c4-1,4.7,1.22,7.66,2.09a52.7,52.7,0,0,0,8.14,2.78c5.73,1.62,11.83,2.35,17.85,3.38,6.07.76,12.19,1.44,18.22,1.68,6.16,0,11.48.13,18.18,1.87l.69.18a2.59,2.59,0,0,1,1.85,3.15,2.64,2.64,0,0,1-.44.91c-5.27,7-13.21,8.15-19.94,8.53a100.75,100.75,0,0,1-20.64-.57,102.14,102.14,0,0,1-20.21-4.7,66.79,66.79,0,0,1-10-4.17c-3-1.71-7.68-3.34-8.36-8.8a5.08,5.08,0,0,1,3.84-5.56Z" transform="translate(-43.6 -33)" style="fill:#004f84"/><path d="M534.06,216.4c4.42-4.86,9.46-6.38,14.22-7.77a56.8,56.8,0,0,1,14.53-1.32c9.49.63,19.74,2.36,27.82,10.1a4.74,4.74,0,0,1-5,7.84l-.68-.27a50.46,50.46,0,0,0-10.74-2.73,95.94,95.94,0,0,0-11.8-.88,98,98,0,0,0-11.83.41,52.13,52.13,0,0,0-10.2,1.66l-1.75.46a4.59,4.59,0,0,1-5.61-3.26A4.63,4.63,0,0,1,534.06,216.4Z" transform="translate(-43.6 -33)" style="fill:#004f81"/><path d="M563.79,453.46c3.4,18.51,2,38,2.67,55.72a47.26,47.26,0,0,0,25.92,38.55,44.47,44.47,0,0,0,11.39,3.86L617.45,554c9.3,1.65,18.61,3.45,27.89,5.47a444.23,444.23,0,0,1,55,15.32c36,12.58,71,29.93,100.52,55.05,29.77,24.55,52.35,59.22,59.5,96.88a2.38,2.38,0,0,1-4.53,1.39c-14.78-34.19-36.29-63.91-64.3-87.18s-61.47-39.55-96.28-51.3C677.79,583.82,660,579,641.93,574.81c-9-2.07-18.1-3.93-27.24-5.64l-14-2.63a59.6,59.6,0,0,1-15.1-5.31,62.09,62.09,0,0,1-33.61-51c0-19.78-.92-37.78,2.32-56.76a4.8,4.8,0,0,1,5.55-3.93A4.9,4.9,0,0,1,563.79,453.46Z" transform="translate(-43.6 -33)" style="fill:#004f84"/><path d="M361.53,147.62c5.46,21.38,21.2,53.09,68.48,77,21.47,10.83,52.69-1.5,82.37,12.67,25.11,12,40.64,42,64.49,48,33.6,8.46,54.35,30.3,64.73,44.48a8.18,8.18,0,0,0,14.26-2c7.4-19.84,18.37-55.85,14.33-86.33C666.55,213.93,649.68,2.45,451.4,36.75,352.38,53.88,354.67,120.76,361.53,147.62Z" transform="translate(-43.6 -33)" style="fill:#0084c0"/><path d="M334.74,269.48c-4-4-3.13-8.52-3.88-12.86-.45-4.36-.81-8.73-1-13.11-.4-8.76-.84-17.59.06-26.45a125.16,125.16,0,0,1,4.65-26.49c2.38-8.65,6.3-17.79,14.77-23.15a2.6,2.6,0,0,1,4,2.4l0,.2c-.71,9.12-2.65,16.23-4.51,24.1-1.68,7.8-2.32,16-3,24.12-.46,8.18-1,16.46-.82,24.77,0,4.15.17,8.32.4,12.47-.07,4.18,1.59,8.2-1.2,12.63l-.25.4a5.85,5.85,0,0,1-8.07,1.82A6.15,6.15,0,0,1,334.74,269.48Z" transform="translate(-43.6 -33)" style="fill:#74dcfc"/><path d="M557.7,526.12c-7.25,3.38-14.5,2.11-21.75,2.51l-21.75.3c-14.5.11-29,.59-43.51.4-14.5,0-29-.26-43.51-.62-14.5-.2-29-.71-43.51-5a2.47,2.47,0,0,1-1.67-3.06,2.5,2.5,0,0,1,1.67-1.67c14.5-4.25,29-4.76,43.51-5,14.5-.36,29-.65,43.51-.62,14.5-.2,29,.28,43.51.4l21.75.3c7.25.4,14.5-.87,21.75,2.51a5.22,5.22,0,0,1,0,9.47Z" transform="translate(-43.6 -33)" style="fill:#004f84"/><path d="M441.37,226.88c-3,2-3.11.47-5.05.22a35.34,35.34,0,0,0-5.29-1c-3.77-.53-7.74-.27-11.65-.36-3.91.15-7.84.3-11.62.82a24.75,24.75,0,0,1-12.36,0l-.61-.14a3,3,0,0,1-2.25-3.59v-.06c1.63-6.5,7.09-9.14,11.78-10.44a53.29,53.29,0,0,1,14.59-2.46,57,57,0,0,1,14.71,1.37,49.28,49.28,0,0,1,7.52,2.22c2.25,1.14,6.1,1.64,6.56,6.41a4.44,4.44,0,0,1-1.94,4.11Z" transform="translate(-43.6 -33)" style="fill:#004f84"/><circle cx="269.76" cy="315.59" r="9.64" style="fill:#74dcfc"/><path d="M258.17,1081.52c2.84-17.21,4.92-34.42,6.42-51.63l7.77-76.57L279,876.75l3.33-38.84c0-13.32,2.22-25.53,1.11-38.85-1.11-1.1-2.22-2.22-3.33-2.22-2.22-1.1-3.33,0-4.44,2.22-3.33,12.21-4.44,25.53-5.55,37.74l-3.33,38.84-6.66,76.57-6.66,76.57c-1.58,18.1-3.1,36.2-3.48,54.29A44.65,44.65,0,0,1,258.17,1081.52Z" transform="translate(-43.6 -33)" style="fill:#004f81"/><path d="M700.26,931.41l8.24,76.42,5.37,49.78a46.54,46.54,0,0,1,4.93-.49,47.92,47.92,0,0,1,6.66.66l-4.78-51.22-8.23-76.41-4.23-38.75c-2.57-13.07-2.75-25.48-6.41-38.32-1.3-.88-2.61-1.75-3.7-1.54-2.39-.66-3.26.64-3.92,3-.91,12.62.57,25.9,1.83,38.09Z" transform="translate(-43.6 -33)" style="fill:#004f81"/><path d="M200.87,1272.17V940.59a37,37,0,0,1,37-36.93H800.14v353" transform="translate(-43.6 -33)" style="fill:#fff"/><path d="M197.47,1272.17c-2.47-39.66-1.5-79.32-1.7-119V945c-.74-10,2.2-22.6,9.56-31a42.18,42.18,0,0,1,29.21-15.2c10.7-.33,20-.09,30.14-.16h59.49c158.65.3,317.3-.67,475.95.67a4.44,4.44,0,0,1,4.42,4.42q-.83,176.52-2.72,353a1.7,1.7,0,0,1-3.39,0q-2-176.52-2.72-353l4.42,4.42c-158.65,1.34-317.3.37-475.95.67H264.7c-9.74.06-20.23-.13-29.34.13A32,32,0,0,0,213.2,920.4c-5.58,6.88-7.78,14.82-7.24,24.55v208.23c-.2,39.66.78,79.32-1.7,119a3.4,3.4,0,0,1-6.79,0Z" transform="translate(-43.6 -33)" style="fill:#bbcdda"/><path d="M181.75,1454.5c-18.48,0-39.15-9.92-51-24.69-22-27.38-39.82-70.32-29.88-104.57a5.37,5.37,0,1,1,10.32,3c-8.86,30.53,7.64,69.62,27.94,94.83,8.77,10.89,26.86,21.3,44.53,20.65,10.86-.51,19.37-5.35,25.29-14.33a5.37,5.37,0,1,1,9,5.91c-7.81,11.86-19.48,18.48-33.75,19.16C183.34,1454.49,182.54,1454.5,181.75,1454.5Z" transform="translate(-43.6 -33)" style="fill:#004f84"/><path d="M210.86,1436.24c-23,0-45.19-9.22-46.7-9.86a5.38,5.38,0,0,1,4.19-9.91c.53.23,53.72,22.28,74.3-3.42a5.37,5.37,0,1,1,8.39,6.72C240.95,1432.36,225.75,1436.24,210.86,1436.24Z" transform="translate(-43.6 -33)" style="fill:#004f84"/><path d="M237.39,1419.54c-23.31,0-55.6-16.75-59.91-19a5.37,5.37,0,1,1,5.05-9.49c18,9.54,51.14,22.41,63.62,16.21,2.7-1.34,4.22-3.56,4.78-7h0c-.12,0-1.62-7.67-23.45-20.22a5.37,5.37,0,0,1,5.35-9.32c28.76,16.5,29.25,28.12,28.71,31.29-1.13,6.84-4.81,12-10.63,14.86A30.41,30.41,0,0,1,237.39,1419.54Z" transform="translate(-43.6 -33)" style="fill:#004f84"/><path d="M777.9,1414.47c-25.72,0-45.12-22.83-46.1-24a4.86,4.86,0,0,1,7.45-6.23c.25.29,25.17,29.52,52.61,17.51a4.86,4.86,0,0,1,3.9,8.9A44,44,0,0,1,777.9,1414.47Z" transform="translate(-43.6 -33)" style="fill:#004f84"/><path d="M797.47,1419.24a79.5,79.5,0,0,1-18.65-2.24,4.86,4.86,0,1,1,2.28-9.44c30.27,7.28,60.61-6.29,77.16-34.67,11.52-19.79,7.26-39.17,1-60.65a4.85,4.85,0,0,1,9.32-2.72c6.67,22.79,11.55,45.17-1.91,68.26C851.3,1404.14,825.37,1419.24,797.47,1419.24Z" transform="translate(-43.6 -33)" style="fill:#004f84"/><path d="M768.65,1362.67h82.86v13.9a25.59,25.59,0,0,1-25.62,25.55H162.37a25.59,25.59,0,0,1-25.62-25.55v-13.9H736.33" transform="translate(-43.6 -33)" style="fill:#fff"/><path d="M768.65,1361.4l82.86-1.7a2.91,2.91,0,0,1,3,2.85h0v.12l.24,12.94a29.17,29.17,0,0,1-26.18,30.29c-17.95.64-34.71.57-52.12.76l-103.54.62V1397l10.43,0v10.37l-287.52.56-143.76.26-71.88-.14-18,0a31.64,31.64,0,0,1-20.21-7.58,31.11,31.11,0,0,1-10.53-18.83,62,62,0,0,1-.41-9.87l0-9a5.73,5.73,0,0,1,5.72-5.72l299.79.54c99.93.24,199.86.72,299.79,3.91a1.27,1.27,0,0,1,0,2.55c-99.93,3.18-199.86,3.67-299.79,3.91l-299.79.54,5.72-5.72,0,9a52.88,52.88,0,0,0,.3,8.06,19.54,19.54,0,0,0,6.69,11.85,20,20,0,0,0,12.76,4.73l17.93,0,71.88-.14,143.76.26,287.52.56v10.37l-10.43,0a5.16,5.16,0,1,1-.06-10.32h.06l103.54.62,51.42.53a22,22,0,0,0,17.8-11.56,22.57,22.57,0,0,0,2.64-10.94l.24-12.94,3,3-82.86-1.7a1.27,1.27,0,0,1,0-2.55Z" transform="translate(-43.6 -33)" style="fill:#bbcdda"/><path d="M793.76,1362.67" transform="translate(-43.6 -33)" style="fill:#fff"/><path d="M676.61,1362.67" transform="translate(-43.6 -33)" style="fill:#fff"/><path d="M544.88,1382.4h-89.5a19.73,19.73,0,0,1-19.73-19.73h129A19.73,19.73,0,0,1,544.88,1382.4Z" transform="translate(-43.6 -33)" style="fill:#bbcdda"/><path d="M200.33,1272.17c24.23,14.25,35.82,62.54,31.43,88-3.27,19-13.25,22.56-25,6.91-9.71-12.88-12.32-29.21-17.53-44.9" transform="translate(-43.6 -33)" style="fill:#fff"/><path d="M220.41,1382.25c-4.61,0-10.85-2.5-18-12-7.82-10.38-11.35-22.67-14.76-34.55-1.13-4-2.27-7.94-3.58-11.89a5.37,5.37,0,0,1,10.2-3.38c1.36,4.08,2.54,8.21,3.71,12.31,3.29,11.44,6.39,22.25,13,31,5.05,6.71,8.42,7.94,9.81,7.65s4.11-3.29,5.65-12.24c4-23.38-6.56-69.31-28.86-82.42a5.37,5.37,0,0,1,5.44-9.27c26.4,15.52,38.63,66.63,34,93.52-2.61,15.13-8.9,19.69-13.72,20.85A12.72,12.72,0,0,1,220.41,1382.25Z" transform="translate(-43.6 -33)" style="fill:#004f84"/><path d="M196.38,1105.47s23.9,65,12.55,109.39a113.54,113.54,0,0,0,.56,31.28,31,31,0,0,1-21.78,34.5c-21.34,6.4-49,20.09-69.93,49.36-8.52,11.91-26.25,11.85-33.9-.64-14.21-23.19-31.39-63.53-34.64-125.85,0,0-41.36-317.46,99.75-514.79Z" transform="translate(-43.6 -33)" style="fill:#00a9de"/><path d="M97.25,1206c6.38-8.49,15.76-11.69,24.89-14.77a102.8,102.8,0,0,1,28.91-5.36,73.67,73.67,0,0,1,29.66,5.63c9.34,4,18.12,10.76,21.22,20.79a1.51,1.51,0,0,1-2,1.86l-.15-.06c-9.53-3.55-15.44-8.75-23.52-11.58a73.89,73.89,0,0,0-24.93-3.48c-8.6,0-17.3,1.63-25.94,3.61s-16.77,5.58-26.81,5.79H98.5a1.52,1.52,0,0,1-1.25-2.44Z" transform="translate(-43.6 -33)" style="fill:#004f84"/><path d="M120.83,1106.49c4.26-5.48,10.37-7.81,16.45-9.68a75.94,75.94,0,0,1,19.07-3.6A52.35,52.35,0,0,1,175.9,1097c6.24,2.52,11.9,7.14,14,13.66a1,1,0,0,1-1.3,1.23l-.1,0c-6.21-2.44-10.25-5.7-15.5-7.71a44.25,44.25,0,0,0-16.48-2.24,67.81,67.81,0,0,0-17.14,2.32c-5.68,1.56-11.1,3.63-17.68,3.89h-.07a1,1,0,0,1-.83-1.61Z" transform="translate(-43.6 -33)" style="fill:#004f84"/><line x1="756.54" y1="1326.83" x2="756.54" y2="1281.92" style="fill:#fff"/><path d="M796.79,1359.83c-2.39-1.87-1.49-3.74-1.78-5.61l-.21-5.61c-.08-3.74-.42-7.49-.28-11.23,0-3.74.19-7.49.44-11.23s.5-7.49,3.5-11.23a2.15,2.15,0,0,1,3-.33,2.23,2.23,0,0,1,.33.33c3,3.74,3.37,7.49,3.5,11.23s.46,7.49.44,11.23c.14,3.74-.2,7.49-.28,11.23l-.21,5.61c-.28,1.87.61,3.74-1.78,5.61A5.43,5.43,0,0,1,796.79,1359.83Z" transform="translate(-43.6 -33)" style="fill:#bbcdda"/><path d="M755.22,1378.66c-5.66,0-10.78-3-15.23-9-9.54-12.73,1.75-33,9.22-46.39,1.28-2.3,2.44-4.39,3.35-6.15,3.1-6.11,5.06-12.75,7-19.16,3.1-10.45,6.3-21.23,14.38-30.45a4.86,4.86,0,1,1,7.31,6.4c-6.68,7.63-9.44,16.94-12.37,26.81-2,6.84-4.12,13.9-7.63,20.79-.94,1.88-2.17,4.07-3.52,6.49-5.86,10.53-15.68,28.16-9.93,35.86,4,5.32,6.91,5.12,7.92,5,6.22-.44,14.16-9.46,23.63-26.8,5.14-9.39,11.62-17.65,17.9-25.65s12-15.25,16.37-23.38a4.87,4.87,0,0,1,8.56,4.63c-4.79,8.84-11.14,16.93-17.27,24.74s-12.28,15.63-17,24.27c-5.05,9.24-16.83,30.82-31.47,31.86C756,1378.65,755.6,1378.66,755.22,1378.66Z" transform="translate(-43.6 -33)" style="fill:#004f84"/><path d="M792.45,1145.58s-32.54,41.5-28.7,99.72a65.5,65.5,0,0,1-3.28,18.82c-3.42,10.38,2.88,21.23,13.71,22.72,20.11,2.76,57.33,8.09,82.25,25.77,10.46,7.42,25,5.84,32.15-4.79,9.3-13.79,19.42-36,22.3-69.36,0,0,26.57-170.22-15.58-397.39Z" transform="translate(-43.6 -33)" style="fill:#00a9de"/><path d="M767.35,1246.37c5-8.23,13.32-11.51,21.41-14.53a80.49,80.49,0,0,1,26-5,58.32,58.32,0,0,1,26.36,6.3c8.27,3.81,15.48,10.31,18,19.27a1.47,1.47,0,0,1-1.87,1.81l-.19-.06c-8.8-2.8-13.68-8.09-20.81-10.61a55.37,55.37,0,0,0-21.48-4,88.9,88.9,0,0,0-22.51,3.21c-7.55,2.05-14.43,5.42-23.42,5.85h-.13a1.49,1.49,0,0,1-1.34-2.26Z" transform="translate(-43.6 -33)" style="fill:#004f84"/><rect x="204.75" y="932.01" width="503.56" height="350.84" style="fill:#f3f6f8"/><path d="M406.82,1276.17c-40.16,1.25-82,1.48-123.23,1.44a2.73,2.73,0,0,1-2.73-2.73v-264.7a2.73,2.73,0,0,1,2.73-2.73h122.6a2.73,2.73,0,0,1,2.73,2.72h0c-.06,44.41.07,89-.34,133.34l-1.75,132Zm-1.29-2.56-1.74-132.08c-.41-43.88-.28-87.54-.34-131.36l2.73,2.73H283.59l2.73-2.73v264.7l-2.73-2.73c40.3,0,79.93.18,121.31,1.44Z" transform="translate(-43.6 -33)" style="fill:#c8d7e2"/><path d="M722.37,1276.17c-46,1-93.27,1.09-140.24,1.23l-141.7.21a2.73,2.73,0,0,1-2.73-2.72h0V1098.15a2.73,2.73,0,0,1,2.73-2.73H721.74a2.71,2.71,0,0,1,2.73,2.68v.05c-.55,59.43-.88,119.24-2.09,177.37Zm-1.28-2.57c-1.2-59.47-1.53-117.28-2.08-175.45l2.73,2.73H440.43l2.73-2.73v176.72l-2.73-2.73,139.61.21c46.58.14,92.87.2,140.42,1.23Z" transform="translate(-43.6 -33)" style="fill:#c8d7e2"/><path d="M440.42,1008.35c46.89-1.62,93.77-.62,140.66-.91H721.74a2.73,2.73,0,0,1,2.73,2.73v54.55a2.73,2.73,0,0,1-2.73,2.73H581.08c-46.89.2-93.77-.55-140.66-1.11a1.58,1.58,0,0,1-1.62-1.54v-.08l.71-27.28a.91.91,0,0,1,1.82,0l.71,27.28-1.62-1.62c46.89-.56,93.77-1.31,140.66-1.11H721.74l-2.73,2.73v-54.55l2.73,2.73H581.08c-46.89-.29-93.77.71-140.66-.91a1.82,1.82,0,0,1,0-3.64Z" transform="translate(-43.6 -33)" style="fill:#c8d7e2"/><path d="M438.8,1252.23c5.12-13,13.53-24.45,23.2-34.55,9.87-9.92,21.62-18.3,35.11-22.95a54.59,54.59,0,0,1,21.1-3.33,96.73,96.73,0,0,1,20.88,2.71c13.78,3.19,26.22,9.79,38.6,15,12.18,5.33,25.77,8.57,38.34,6.84,12.47-2.72,22.77-12.2,32.65-21.39,9.87-9.35,20.12-19,32.29-26s26.25-11.12,40.15-10.21a.91.91,0,0,1,.87,1,.93.93,0,0,1-.87.87,77,77,0,0,0-37.64,12.53c-11.31,7.13-21,16.57-31.08,25.91-10,9.15-20.58,19.43-35.32,22.75-14.69,2-28.72-1.69-41.5-7.16s-24.75-11.77-37.76-14.78c-13-2.81-26.61-4.25-38.92.48-12.49,4.29-23.62,12.18-33,21.62s-16.6,20.91-23.84,32.36a1.83,1.83,0,0,1-3.25-1.64Z" transform="translate(-43.6 -33)" style="fill:#c8d7e2"/><circle cx="1039.6" cy="841.8" r="12.39" style="fill:#c8d7e2"/><circle cx="1039.6" cy="895.68" r="12.39" style="fill:#c8d7e2"/><circle cx="942.26" cy="949.57" r="12.39" style="fill:#c8d7e2"/><circle cx="1039.6" cy="949.57" r="12.39" style="fill:#c8d7e2"/><circle cx="989.01" cy="949.57" r="12.39" style="fill:#c8d7e2"/><circle cx="1039.6" cy="549.18" r="12.39" style="fill:#c8d7e2"/><circle cx="1039.6" cy="605.42" r="12.39" style="fill:#c8d7e2"/><circle cx="1039.6" cy="790.39" r="12.39" style="fill:#c8d7e2"/><ellipse cx="1288.39" cy="284.45" rx="132.01" ry="131.67" style="fill:#74dcfc"/><path d="M1252.06,216c-24.73,21.68-41.13,51.5-45.55,83.14-4.24,31.58,2.82,64.62,21,90.76a125.85,125.85,0,0,0,77,51.73c30.93,6.7,64.25,1.45,91.3-14.81,27.1-16.08,48.1-42.41,56.92-72.8a125,125,0,0,0-8.52-92.21,126.65,126.65,0,0,0-69.66-61.43c-14.94-5.58-30.69-8-46.93-8.17-8.21,0-16.27,0-23.93,1.19s-15.06,4.14-22.32,7.76l-.22.11a3.37,3.37,0,0,1-4.34-4.84c7.37-11.45,14.81-22.86,22.48-34.14a1.37,1.37,0,0,1,2.35,1.39c-6.14,12.18-12.51,24.21-19,36.21l-4.56-4.72c7.29-4.25,15.27-8.05,23.89-10s17.23-2.37,25.56-2.52c16.88-.34,34.41,1.68,50.67,7.43a137.31,137.31,0,0,1,86.36,167.4c-9.53,33.37-32.19,62.9-62.29,80.34-30,17.71-66.6,23.19-100.41,15.6a137.58,137.58,0,0,1-83.8-57.1,135.13,135.13,0,0,1-21.34-98.71c5.51-34,25.89-64.9,53.59-83.77a1.37,1.37,0,0,1,1.67,2.16Z" transform="translate(-43.6 -33)" style="fill:#00a9de"/><polyline points="1258.15 249.07 1292.45 291.94 1225.97 350.46" style="fill:#74dcfc"/><path d="M1304.6,279.79c4.83,2,7,6.11,10.08,9.51l8.75,10.58c5.79,7.08,11.75,14,17.41,21.23a6.19,6.19,0,0,1-.74,8.43q-16.6,14.65-33.55,28.91c-11.19,9.63-22.46,19.17-35.78,26.38a1.87,1.87,0,0,1-2.41-2.74c8.84-12.3,19.73-22.27,30.7-32.14s21.84-19.87,32.94-29.61l-.73,8.42c-5.78-7.1-11.25-14.44-16.89-21.64l-8.4-10.86c-2.64-3.75-6.19-6.77-7.07-11.92a4.16,4.16,0,0,1,5.69-4.55Z" transform="translate(-43.6 -33)" style="fill:#00a9de"/><line x1="1236.18" y1="165.13" x2="1271.03" y2="185.17" style="fill:#65d3fa"/><path d="M1280.46,196.95c5.11-2.17,7.83-.18,10.93,1.15s6.06,2.9,9,4.46c2.84,1.78,5.71,3.52,8.4,5.56s5.8,3.36,6.49,8.87a2.27,2.27,0,0,1-1.36,2.37c-5.11,2.17-7.83.18-10.93-1.15s-6.06-2.9-9-4.46c-2.84-1.78-5.71-3.52-8.4-5.56s-5.79-3.36-6.49-8.87A2.27,2.27,0,0,1,1280.46,196.95Z" transform="translate(-43.6 -33)" style="fill:#00a9de"/><circle cx="1288.39" cy="206.71" r="6.57" style="fill:#00a9de"/><circle cx="1288.39" cy="376.13" r="6.57" style="fill:#00a9de"/><circle cx="1375.83" cy="288.69" r="6.57" style="fill:#00a9de"/><circle cx="1200.94" cy="288.69" r="6.57" style="fill:#00a9de"/><path d="M800.3,393.22c-40.28.12-69.62.23-69.62.23s-18.92-61.88,31.33-74.9c15.05-3.9,23.76-2.41,28.24-.54a2.83,2.83,0,0,0,4-2.12c1.08-12.37,8.16-46.43,53.54-46.43,49.94,0,71.83,46.86,71.83,46.86s11.14-16.18,30.85-17.76c21.49-1.72,37,5.93,48,16.27" transform="translate(-43.6 -33)" style="fill:#fff"/><path d="M800.3,395.06q-17.4,1.62-34.8,2.09l-34.81.65h-.07a4.18,4.18,0,0,1-4.11-3.08,95.83,95.83,0,0,1-3-38.43c1.62-12.89,8.14-26.31,19.54-34.22a54.48,54.48,0,0,1,18.26-8.22,67.67,67.67,0,0,1,19.58-2.45,32.94,32.94,0,0,1,10.51,2l.63.25-.28-.09a1.54,1.54,0,0,0-.6,0,1.83,1.83,0,0,0-1.21.85,2.36,2.36,0,0,0-.35,1l.13-1.14.33-2.46a60.52,60.52,0,0,1,6-18.89,48.65,48.65,0,0,1,30.39-24.79,79.9,79.9,0,0,1,38.57-.79c25.74,5.93,45.69,24.81,58.37,47.16l-7.26-.6A48.53,48.53,0,0,1,935,298.88c7.35-3.51,15.82-4.35,23.38-3.78,15.55.75,30.72,7.66,41,18.85a1.23,1.23,0,0,1,0,1.74,1.25,1.25,0,0,1-1.64.05A59.73,59.73,0,0,0,958.2,301.6c-7.21.16-13.87,1.05-19.89,4.23a45.82,45.82,0,0,0-15.23,12.88l-.12.16a4.22,4.22,0,0,1-5.92.75,4.28,4.28,0,0,1-1.22-1.52c-10-20.84-29.81-38.14-52.51-42.89A71.87,71.87,0,0,0,829,276.33a39.75,39.75,0,0,0-24.83,20.73,51.43,51.43,0,0,0-4.89,16.13l-.25,2.11-.12,1.15a7,7,0,0,1-1.12,3.15,7.52,7.52,0,0,1-5,3.24,7.82,7.82,0,0,1-2.89,0,8.09,8.09,0,0,1-1.38-.42l-.44-.16a24.71,24.71,0,0,0-7.53-1.31c-10.9,0-23.29,2.64-32.08,8.78-9,6.21-14.42,16.6-16,27.95s-.53,23.52,2.4,34.56l-4.17-3.07,34.81.42q17.41.34,34.82,1.85a1.85,1.85,0,0,1,0,3.68Z" transform="translate(-43.6 -33)" style="fill:#c8d7e2"/><path d="M1085.28,495.28c98.71.24,184.4.57,184.4.57s30.25-98.93-50.09-119.74c-24.07-6.23-38-3.86-45.15-.86-2.86,1.2-6.15-.54-6.4-3.39-1.72-19.77-13-74.23-85.59-74.23-79.84,0-114.84,74.91-114.84,74.91s-17.81-25.87-49.32-28.39c-93.18-7.46-116,95.29-116,95.29" transform="translate(-43.6 -33)" style="fill:#fff"/><path d="M1085.29,493.44c30.74-.93,61.47-1.56,92.21-1.63l92.2-.3-4.17,3.07c4.84-18.13,6.73-37.86,4-56.42-2.54-18.6-11.5-36.12-26.65-46.55-7.44-5.34-16.18-8.77-25.25-11.1-9.22-2.28-18.65-3.83-27.77-3.49a41.84,41.84,0,0,0-12.93,2.31l-.77.29a9.89,9.89,0,0,1-1.71.51,9.71,9.71,0,0,1-3.58,0,9.22,9.22,0,0,1-6.11-4,8.45,8.45,0,0,1-1.34-3.79l-.19-1.82-.42-3.48a84.81,84.81,0,0,0-8.16-26.61,66.22,66.22,0,0,0-41.37-34.34,117.4,117.4,0,0,0-56.17-1.72c-37.3,7.86-68.83,36.22-85.67,69.89a4.27,4.27,0,0,1-7.19.7l-.07-.1c-10.34-13.51-26.08-24.66-43.45-26.85-17.69-2.19-36.32-.2-52.66,7.38s-30.24,20.1-40.9,34.87a157.38,157.38,0,0,0-23.67,49.38l0,.08a1.23,1.23,0,0,1-2.37-.61,160.64,160.64,0,0,1,22.4-51.41c10.63-15.52,24.77-29.18,42.08-37.57s37-11.12,56.05-9.23c19.75,2.26,37.38,13.41,49.46,29.2l-7.26.6c9.53-18.3,22.71-33.54,37.91-46.84,15.31-13.08,33.76-22.91,53.63-27.32a125.4,125.4,0,0,1,60.39,1.4c9.79,3,19.42,7.46,27.51,14.16a76.69,76.69,0,0,1,19.42,24.24,93.88,93.88,0,0,1,9.29,29.37l.5,3.83.21,1.84a.94.94,0,0,0-.11-.36c-.13-.19-.14-.13-.08-.13h.08l1-.38a50.09,50.09,0,0,1,15.91-3c10.54-.41,20.69,1.33,30.49,3.81s19.76,6.49,28.29,12.67c17.51,12.13,27.61,32.68,30.18,52.82,2.79,20.38.75,40.57-4.6,60.29a4.17,4.17,0,0,1-4.06,3.08h-.11l-92.19-.87c-30.73-.27-61.46-1.09-92.19-2.21a1.84,1.84,0,0,1,0-3.68Z" transform="translate(-43.6 -33)" style="fill:#c8d7e2"/><path d="M793,495.86c1.47-.5,37.91-.73,90-.79" transform="translate(-43.6 -33)" style="fill:#fff"/><path d="M792.45,494.11c8.52-2.14,15.33-2.35,23.06-2.79l22.53-.77c7.51-.5,15,.68,22.53.74,7.5-1.24,15,.9,22.52,2.54a1.26,1.26,0,0,1,0,2.45c-7.5,1.66-15,3.83-22.51,2.63-7.5.1-15,1.33-22.5.9l-22.5-.48a160.33,160.33,0,0,1-21.95-1.73l-1.07-.19a1.69,1.69,0,0,1-.12-3.3Z" transform="translate(-43.6 -33)" style="fill:#c8d7e2"/><ellipse cx="940.55" cy="474.39" rx="77.48" ry="77.28" style="fill:#74dcfc"/><line x1="940.55" y1="432.43" x2="940.55" y2="516.36" style="fill:#00a9de"/><path d="M985.54,465.43c4.5,7,4.12,14,4.52,21s.64,14,.65,21-.26,14-.64,21,0,14-4.53,21h-2.78c-4.5-7-4.12-14-4.53-21s-.64-14-.64-21,.26-14,.64-21,0-14,4.53-21Z" transform="translate(-43.6 -33)" style="fill:#00a9de"/><line x1="982.62" y1="474.39" x2="898.47" y2="474.39" style="fill:#00a9de"/><path d="M1026.22,508.78c-7,4.48-14,4.11-21,4.51s-14,.64-21,.64-14-.26-21-.64-14,0-21-4.51V506c7-4.49,14-4.11,21-4.51s14-.64,21-.64,14,.26,21,.64,14,0,21,4.51Z" transform="translate(-43.6 -33)" style="fill:#00a9de"/><path d="M1035.34,40.37s-29,35.93-79.17,31.67c0,0-26.78,143.69,82.41,174.52,0,0,106.45-14.76,85.16-174.52C1123.73,72,1063.49,76.68,1035.34,40.37Z" transform="translate(-43.6 -33)" style="fill:#74dcfc"/><path d="M1035.86,246.56S1145.55,231.8,1124.26,72c0,0-60.77,1.41-88.92-34.9,0,0-31.75,39.16-81.89,34.9,0,0-26.78,143.69,82.41,174.52" transform="translate(-43.6 -33)" style="fill:#74dcfc"/><polyline points="959.82 118.27 987.93 140.65 1045.13 76" style="fill:#74dcfc"/><path d="M1005,149.29c3.41.52,5.41,2.81,7.86,4.55l7.12,5.47c4.72,3.69,9.57,7.21,14.17,11l-5.78.5,28.85-32.1c9.51-10.79,19.33-21.31,30.56-30.59a1.28,1.28,0,0,1,1.9,1.68c-7.84,12.28-17.09,23.3-26.64,34.06l-28.35,32.54a4.18,4.18,0,0,1-5.67.59l-.11-.09c-4.77-3.63-9.28-7.57-13.94-11.34l-6.93-5.72c-2.24-2-4.92-3.43-6.19-6.64a2.92,2.92,0,0,1,3.15-4Z" transform="translate(-43.6 -33)" style="fill:#00a9de"/><circle cx="1039.6" cy="697.91" r="47.86" style="fill:#5ed37f"/><path d="M1083.09,698.71l-16.67,26.56s-4.17,9.38,3.13,12l13.54,3.13Z" transform="translate(-43.6 -33)" style="fill:#fff"/><path d="M1087.76,763.59,1104.43,737s4.17-9.38-3.13-12l-13.54-3.13Z" transform="translate(-43.6 -33)" style="fill:#fff"/></svg>