<?xml version="1.0" encoding="utf-8"?>
<!-- Generator: Adobe Illustrator 21.0.2, SVG Export Plug-In . SVG Version: 6.00 Build 0)  -->
<!DOCTYPE svg PUBLIC "-//W3C//DTD SVG 1.1//EN" "http://www.w3.org/Graphics/SVG/1.1/DTD/svg11.dtd">
<svg version="1.1" id="customizeTheme" xmlns="http://www.w3.org/2000/svg" xmlns:xlink="http://www.w3.org/1999/xlink" x="0px"
	 y="0px" viewBox="0 0 596.8 370" style="enable-background:new 0 0 596.8 370;" xml:space="preserve">
<style type="text/css">
	.st0{fill:none;}
	.st1{fill:#F3F6F8;}
	.st2{fill:#C2F4FF;}
	.st3{fill:#00A9DE;}
	.st4{fill:#E1EFF9;}
	.st5{fill:#A6C1D1;}
	.st6{fill:#004F82;}
	.st7{fill:#004F84;}
	.st8{fill:#74DCFC;}
	.st9{opacity:0.26;fill:#86A6BD;enable-background:new    ;}
	.st10{fill:#C8D7E2;}
	.st11{fill:#E9EFF4;}
</style>
<title>customizeTheme</title>
<path class="st0" d="M391.8,161.5v116.2h71.4V154.1h-64C395.1,154.1,391.8,157.4,391.8,161.5C391.8,161.5,391.8,161.5,391.8,161.5z"
	/>
<path class="st1" d="M358.1,82V56.6H280c0.5,0.9,1.1,1.9,1.5,2.9c8.8,18.5,1,40.7-17.5,49.6l-0.4,0.2l-0.6,0.3
	c-1.5,0.7-3.1,1.2-4.7,1.7l-0.7,0.2c-0.3,0.1-0.6,0.1-0.9,0.2c-0.4,0.1-0.9,0.2-1.3,0.3c-0.8-1.4-1-4.8-1.1-6.8
	c-0.2-3.3-0.3-5.1-1.7-5.6c-2.1-0.8-4.8,1.3-6.6,5.2c-1.1,2.4-1.7,5.1-1.6,7.8c-20.5-2-35.4-20.3-33.4-40.7
	c0.4-4.3,1.6-8.4,3.4-12.3c0.5-1,1-1.9,1.5-2.9h-81.2v131.9c11.7,0.2,34.8-4.1,35.1,6.8v-39.2h151v46.6c12-0.1,24.1,2.8,36.1,0.8
	c0.5-0.1,1,0.2,1.1,0.7c1.2,7,5.8,70.6,6.3,76.9c0.4,5.7,1.4,11.3,0.2,17.1c-0.1,0.4-0.5,0.7-1,0.7c-4.3,0.2-8.6,0.8-12.9,0.8
	c-4,0-19.4-0.4-20.5-0.8c-1.4-0.5-8,1.1-11.4,1.3c-3.2,0.2-16.1,1.1-19.2,1.1c-4,0.1-8.1,0-8.2-3.9c-0.1-2.1-2.1-17.6-1.8-19.8
	H170.9c0,0.5-24.5-0.1-36.3-0.2v34.8h353V82H358.1z M463.2,277.6h-71.4V161.5c0-4.1,3.3-7.4,7.4-7.4l0,0h64L463.2,277.6z"/>
<path class="st2" d="M281.5,59.4c-0.5-1-1-1.9-1.5-2.9c-0.4-0.7-0.9-1.5-1.4-2.2c-11.6-17-34.8-21.3-51.8-9.7
	c-3.8,2.6-7.1,5.9-9.7,9.7c-0.5,0.7-0.9,1.4-1.4,2.2c-0.5,0.9-1.1,1.9-1.5,2.9c-8.8,18.6-0.9,40.8,17.7,49.6c3.9,1.8,8,3,12.3,3.4
	c-0.1-2.7,0.5-5.3,1.6-7.8c1.8-3.9,4.5-6.1,6.6-5.2c1.3,0.5,1.4,2.3,1.7,5.6c0.1,2,0.4,5.5,1.1,6.8c0.4-0.1,0.9-0.2,1.3-0.3
	c0.3-0.1,0.6-0.1,0.9-0.2l0.7-0.2c1.6-0.5,3.2-1,4.7-1.7l0.6-0.3l0.4-0.2C282.5,100.1,290.3,78,281.5,59.4L281.5,59.4z"/>
<path class="st0" d="M463.1,154.4h-64c-4.1,0-7.4,3.3-7.4,7.4l0,0v116.2h71.4V154.4z"/>
<polygon class="st3" points="358,27.2 358,56.9 358,82.3 487.4,82.3 507.3,82.3 507.3,27.2 "/>
<path class="st1" d="M144.9,242.9l19.9-0.1l1.4,15.8l-16.2-1.5C150.1,257.1,143.6,255.8,144.9,242.9z"/>
<path class="st4" d="M140.8,59.4h-6.4c-1.4,0-2.6-1.1-2.6-2.6v-6.4c0-1.4,1.1-2.6,2.6-2.6c1.4,0,2.6,1.1,2.6,2.6l0,0v3.8h3.8
	c1.4,0,2.6,1.1,2.6,2.6C143.3,58.3,142.2,59.4,140.8,59.4z"/>
<path class="st4" d="M134.3,40c-1.4,0-2.6-1.1-2.6-2.6V24.4c0-1.4,1.1-2.6,2.6-2.6c1.4,0,2.6,1.1,2.6,2.6v13.1
	C136.9,38.8,135.8,40,134.3,40C134.3,40,134.3,40,134.3,40z M137.8,14.6c-1.4,0-2.6-1.1-2.6-2.6c0-0.5,0.1-1,0.4-1.4
	c2.7-4.1,6.6-7.3,11.2-9c1.3-0.5,2.8,0.2,3.3,1.5c0.5,1.3-0.2,2.8-1.5,3.3l0,0c-3.6,1.4-6.7,3.9-8.8,7.1
	C139.5,14.1,138.7,14.6,137.8,14.6z M483.9,14.5c-0.9,0-1.7-0.4-2.1-1.1c-2.1-3.2-5.2-5.7-8.8-7c-1.3-0.5-2-2-1.5-3.3s2-2,3.3-1.5
	c4.6,1.7,8.5,4.9,11.3,9c0.8,1.2,0.5,2.8-0.7,3.6C484.9,14.3,484.4,14.5,483.9,14.5L483.9,14.5z M461,5.1h-13.1
	c-1.4,0-2.6-1.1-2.6-2.6c0-1.4,1.1-2.6,2.6-2.6H461c1.4,0,2.6,1.1,2.6,2.6C463.5,4,462.4,5.1,461,5.1L461,5.1z M434.9,5.1h-13.1
	c-1.4,0-2.6-1.1-2.6-2.6c0-1.4,1.1-2.6,2.6-2.6l0,0h13c1.4,0,2.6,1.1,2.6,2.6C437.4,4,436.3,5.1,434.9,5.1L434.9,5.1z M408.8,5.1
	h-13.1c-1.4,0-2.6-1.1-2.6-2.6c0-1.4,1.1-2.6,2.6-2.6h13.1c1.4,0,2.6,1.1,2.6,2.6C411.3,4,410.2,5.1,408.8,5.1z M382.7,5.1h-13.1
	c-1.4,0-2.6-1.1-2.6-2.6c0-1.4,1.1-2.6,2.6-2.6h13.1c1.4,0,2.6,1.1,2.6,2.6C385.2,4,384.1,5.1,382.7,5.1z M356.5,5.1h-13.1
	c-1.4,0-2.6-1.1-2.6-2.6c0-1.4,1.1-2.6,2.6-2.6h13c1.4,0,2.6,1.1,2.6,2.6C359.1,4,357.9,5.1,356.5,5.1L356.5,5.1z M330.4,5.1h-13.1
	c-1.4,0-2.6-1.1-2.6-2.6c0-1.4,1.1-2.6,2.6-2.6l0,0h13.1c1.4,0,2.6,1.1,2.6,2.6C333,4,331.9,5.1,330.4,5.1z M304.3,5.1h-13.1
	c-1.4,0-2.6-1.1-2.6-2.6c0-1.4,1.1-2.6,2.6-2.6h13.1c1.4,0,2.6,1.1,2.6,2.6C306.9,4,305.7,5.1,304.3,5.1z M278.2,5.1h-13.1
	c-1.4,0-2.6-1.1-2.6-2.6c0-1.4,1.1-2.6,2.6-2.6h13.1c1.4,0,2.6,1.1,2.6,2.6C280.8,4,279.6,5.1,278.2,5.1z M252.1,5.1h-13.1
	c-1.4,0-2.6-1.1-2.6-2.6c0-1.4,1.1-2.6,2.6-2.6h13.1c1.4,0,2.6,1.1,2.6,2.6C254.7,4,253.5,5.1,252.1,5.1z M226,5.1H213
	c-1.4,0-2.6-1.1-2.6-2.6c0-1.4,1.1-2.6,2.6-2.6H226c1.4,0,2.6,1.1,2.6,2.6C228.6,4,227.4,5.1,226,5.1z M199.9,5.1h-13.1
	c-1.4,0-2.6-1.1-2.6-2.6c0-1.4,1.1-2.6,2.6-2.6h13.1c1.4,0,2.6,1.1,2.6,2.6C202.5,4,201.3,5.1,199.9,5.1z M173.8,5.1h-13.1
	c-1.4,0-2.6-1.1-2.6-2.6c0-1.4,1.1-2.6,2.6-2.6h13.1c1.4,0,2.6,1.1,2.6,2.6C176.4,4,175.2,5.1,173.8,5.1z"/>
<path class="st5" d="M320.5,299.2c0,0-1.8,39.6-7.8,63.8l-35,0.5c0,0-2.8-1.8,0.9-3.7c3.9-2,14.4-4.1,15.5-6.4
	c2.3-4.6,1.4-51.7,1.4-51.7"/>
<path class="st5" d="M334.2,300.4c0,0,1.8,37,7.8,61.3l30.6,0.5c0,0,2.8-1.8-0.9-3.7c-3.9-2-14.4-4.1-15.5-6.4
	c-2.3-4.6,4.5-54.3,4.5-54.3"/>
<path class="st0" d="M256.6,113.3c0,0,0.8,0.7,1.1-2c-1.2,0.3-2.4,0.6-3.6,0.8C254.7,113.2,255.4,113.7,256.6,113.3z"/>
<path class="st5" d="M256.6,113.3c-1.2,0.4-2-0.1-2.5-1.2c-2.1,0.4-4.2,0.5-6.3,0.5c-0.8,0-1.5,0-2.2-0.1c0.3,4.2,2.4,8.5,8.1,11.5
	l4.2,2.3l7-4.3c0.7-5.8-0.5-10-1.8-12.6c-1.7,0.8-3.5,1.4-5.3,1.9C257.4,114,256.6,113.3,256.6,113.3z"/>
<path class="st5" d="M254.1,112.1c-1.6-3.2-0.9-11.2-2.1-11.7c-2.3-0.9-6.9,5.4-6.4,12.2c0.7,0,1.5,0.1,2.2,0.1
	C250,112.7,252.1,112.5,254.1,112.1z"/>
<path class="st3" d="M348.8,244.7c-0.7,0-1.3-0.6-1.2-1.3c0-0.6,0.5-1.2,1.1-1.2l14.2-1.5c0.7-0.1,1.4,0.4,1.5,1.1
	c0.1,0.7-0.4,1.4-1.1,1.5c0,0-0.1,0-0.1,0l-14.2,1.5L348.8,244.7z"/>
<path class="st3" d="M358.6,252.3c-2.4,0.1-4.8-0.9-6.6-2.5c-1.6-1.5-2.4-3.5-2.3-5.7c0-0.7,0.6-1.2,1.2-1.2c0,0,0.1,0,0.1,0
	c0.7,0,1.2,0.6,1.2,1.4c0,0,0,0,0,0c-0.1,1.4,0.5,2.7,1.5,3.7c1.5,1.4,3.5,2,5.5,1.8l2.5-0.7c0.7-0.2,1.4,0.2,1.6,0.9
	c0.2,0.7-0.2,1.4-0.9,1.6l0,0l-2.7,0.7C359.3,252.3,359,252.3,358.6,252.3z"/>
<path class="st6" d="M288,167.6c-0.7,0-1.3-0.6-1.3-1.3c0-0.5,0.3-1,0.8-1.2l11.1-5c0.6-0.3,1.4-0.1,1.7,0.5
	c0.3,0.6,0.1,1.4-0.5,1.7c0,0-0.1,0-0.1,0.1l-11.1,5C288.3,167.5,288.1,167.6,288,167.6z"/>
<path class="st0" d="M301.7,91.5c0.1,1.5,0.5,2.7,1,3c0.4,0.2,0.9,0,1.3-0.3c-0.1-0.6-0.1-1.3-0.1-1.9L301.7,91.5z"/>
<path class="st0" d="M303.2,87.2c-0.5,0.4-0.9,1-1.1,1.7l2,0.7c0.1-0.8,0.2-1.7,0.3-2.5c-0.1-0.1-0.3-0.2-0.4-0.3
	C303.7,86.9,303.4,87,303.2,87.2z"/>
<path class="st5" d="M314.7,104.7c-2.4-1.4-3.8-3.9-3.9-6.6l0.4-3.5l-4.6-1.5c0.1,1.2,0.2,2.4,0.5,3.5c1.3,6.1,2.8,10.8,9.4,11.8
	c0.6,0.1,1,0.5,1.1,1.1l0.8,7c0.1,0.7-0.4,1.3-1.1,1.4h-0.2c-0.3,0-0.6-0.1-0.8-0.3v3.2l16,0.9v-14.3c-0.7,0.4-1.4,0.6-2.2,0.8
	C323.5,109.9,318.2,106.7,314.7,104.7z"/>
<path class="st5" d="M328.5,94.7l-4.1-11.1c0,0-5.5-3.1-10.6-2.7C316.4,87,321.8,93,328.5,94.7z"/>
<path class="st5" d="M307.2,85.8c-0.4,1.5-0.6,3-0.6,4.6l4.9,1.6l0.6-5.5C312.1,86.5,309.1,86.9,307.2,85.8z"/>
<path class="st7" d="M338.2,93.9c-3.1,1.3-6.5,1.6-9.7,0.8c-6.7-1.7-12.1-7.7-14.7-13.8c-1.5-3.4-2.1-6.9-1.6-9.8
	c-2.6,2-4.7,5.2-6.3,10.2c-0.1,0.3-0.2,0.7-0.3,1c-0.3,0.7-0.5,1.4-0.7,2.2c-0.5-0.2-1-0.2-1.5-0.1c-1.7,0.4-3.7,2.2-4.1,5.2
	c-0.3,2.5,0.1,5.8,2.2,7.1c0.5,0.3,1.1,0.5,1.7,0.5c0.5,0,1-0.1,1.4-0.3c0,0.1,0,0.2,0.1,0.3c1.3,6.3,3.1,12,10.6,13.7l0.7,6.1
	c0.1,0.6,0.6,1.1,1.3,1.1h0.2c0.7-0.1,1.2-0.7,1.1-1.4l-0.8-7c-0.1-0.6-0.5-1-1.1-1.1c-6.7-1.1-8.2-5.8-9.4-11.8
	c-0.2-1.2-0.4-2.3-0.5-3.5l4.6,1.5l-0.4,3.5c0,2.7,1.5,5.2,3.9,6.6c3.5,2,8.7,5.2,15.4,3.6c0.8-0.2,1.5-0.4,2.2-0.8
	c4.5-2.3,7.1-8.2,7.9-14.6C339.6,93.3,338.9,93.6,338.2,93.9z M302.8,94.5c-0.5-0.3-1-1.5-1-3l2.2,0.7c0,0.6,0.1,1.3,0.1,1.9
	C303.7,94.5,303.1,94.7,302.8,94.5L302.8,94.5z M304,89.6l-2-0.7c0.2-0.7,0.6-1.2,1.1-1.7c0.2-0.2,0.5-0.3,0.8-0.4
	c0.1,0.1,0.2,0.2,0.4,0.3C304.2,87.9,304.1,88.7,304,89.6L304,89.6z M311.5,92.1l-4.9-1.6c0.1-1.5,0.3-3.1,0.6-4.6
	c1.9,1.1,4.9,0.7,4.9,0.7L311.5,92.1z"/>
<path class="st8" d="M316.2,65.8c-2.2,1-3.5,2.9-3.9,5.3c-1.8,10.2,10.8,29.1,26,22.8c0.7-0.3,1.4-0.6,2-1
	C355.3,84,334.5,57.8,316.2,65.8z"/>
<path class="st9" d="M105.2,237.9h57.4c1.8,0,3.3-1.5,3.3-3.3c0,0,0-0.1,0-0.1l-1.6-38.2c-0.1-1.3-1.1-2.4-2.5-2.3h-57.3l0.8,38.9"
	/>
<path class="st10" d="M166,258.5c-1.1-6.1-1.6-12.2-2.1-18.4l-0.3-4.6l-0.2-2.3l0-0.6c0-0.3,0-0.5,0-0.8c0.1-0.7,0.3-1.3,0.7-1.8
	c0.8-0.9,1.9-1.4,3.1-1.5l2.3,0l4.6,0l4.6,0l2.3,0c1.2,0,2.3,0.5,3.1,1.4c0.4,0.5,0.7,1.1,0.7,1.8l0.1,1.2l0.1,2.3l0.2,4.6
	c0.2,6.2,0.4,12.3,0.3,18.5c0,0.3-0.3,0.5-0.5,0.5c-0.2,0-0.4-0.2-0.5-0.4c-0.8-6.1-1.3-12.3-1.8-18.4l-0.3-4.6l-0.2-2.3l-0.1-1.1
	c0-0.1-0.1-0.2-0.1-0.3c-0.3-0.3-0.6-0.4-1-0.4l-2.3,0l-4.6,0l-4.6,0h-2.3c-0.4,0-0.7,0.1-1,0.4c-0.1,0.1-0.1,0.2-0.1,0.3
	c0,0,0,0.2,0,0.4l0,0.6l0.1,2.3l0.2,4.6c0.2,6.2,0.4,12.3,0,18.5c0,0.1-0.1,0.2-0.3,0.2C166.1,258.8,166,258.7,166,258.5L166,258.5z
	"/>
<polygon class="st1" points="180.3,251.4 179.3,234.4 169.3,234.4 170.2,251.4 "/>
<line class="st0" x1="150.1" y1="268.2" x2="163.9" y2="268.2"/>
<path class="st11" d="M150.1,267.9c1.1-0.6,2.2-1,3.5-1c1.2-0.1,2.3-0.2,3.5-0.2c1.1,0,2.3,0.1,3.5,0.2c1.2,0.1,2.3,0.4,3.5,0.8
	c0.3,0.1,0.4,0.4,0.3,0.7c-0.1,0.1-0.2,0.3-0.3,0.3c-1.1,0.4-2.3,0.7-3.5,0.8c-1.1,0.1-2.3,0.2-3.5,0.2c-1.2,0-2.3,0-3.5-0.2
	c-1.2-0.1-2.4-0.4-3.5-1c-0.1-0.1-0.2-0.3-0.1-0.4C150,268,150,267.9,150.1,267.9z"/>
<path class="st11" d="M162.2,256.6c-6.6-0.5-13.2-0.6-19.7-0.7l-9.9-0.1l-4.9,0l-2.5,0c-0.7,0-1.3-0.1-2-0.3
	c-2.6-0.9-4.4-3.4-4.4-6.1l-0.1-6.7c-0.9,0-1.8-0.1-2.6-0.1l-0.1,6.8c-0.1,4,2.4,7.6,6.2,8.9c0.9,0.3,1.9,0.4,2.9,0.4l2.5,0l4.9,0
	l9.9-0.1c6.6-0.1,13.2-0.3,19.7-0.7c0.3,0,0.5-0.3,0.5-0.6C162.6,256.8,162.4,256.6,162.2,256.6L162.2,256.6z"/>
<path class="st11" d="M152.7,256.6c-3.3-0.4-5.8-2.9-6.3-5.8c-0.2-1.3,0-3.3,0-5l0.1-3.7h-2.9l0.1,3.7c0.1,1.8-0.1,3.4,0.3,5.5
	c0.5,2,1.7,3.7,3.3,4.9c1.6,1.1,3.5,1.7,5.5,1.4c0.2,0,0.4-0.2,0.5-0.5C153.1,256.9,152.9,256.6,152.7,256.6z"/>
<path class="st10" d="M165.1,241.3c-0.7,0.2-1.4,0.3-2.1,0.3h-1.8l0,0h-0.2c-10.8,0-21.6,0.2-32.4,0.3c-11.6,0.2-23.3,0.4-34.9,0.8
	c-0.1,0-0.3,0.1-0.3,0.3c0,0.1,0.1,0.3,0.3,0.3c11.6,0.4,23.3,0.6,34.9,0.8c11.6,0.1,23.3,0.3,34.9,0.3h0.1c0.1,0,0.2,0,0.2,0
	c0.4,0,0.9-0.1,1.3-0.2L165.1,241.3z"/>
<path class="st10" d="M172.1,227.1l-0.9-23.4l-0.2-5.8c-0.1-1,0-1.8-0.2-3.1c-0.5-3.6-3.3-6.5-6.9-7.1c-0.8-0.1-1.6-0.1-2.3-0.1
	c-0.1,0-0.2,0-0.3,0l-60.8,0.2l-3.8,0c-1.6-0.1-3.1,0.5-4.3,1.5c-1.2,1-1.9,2.5-2.1,4.1c0,1.5,0,2.6,0.1,3.9l0.4,15.2
	c0.2,10.1,0.6,20.3,0.9,30.4c0,0.3,0.2,0.5,0.5,0.5c0.3,0,0.5-0.2,0.5-0.5l0,0c0-10.1,0.1-20.3-0.1-30.4l-0.1-15.2
	c0-1.2,0-2.6,0-3.7c0.1-1,0.6-1.9,1.3-2.5c0.8-0.6,1.8-0.9,2.8-0.9h1.5l0.6,21c0.2,7.4,0.5,14.8,0.8,22.2c0,0.3,0.2,0.5,0.5,0.5
	c0.3,0,0.5-0.2,0.5-0.5l0,0c0-7.4,0-14.8-0.1-22.2l-0.2-21h0.1l59.4,0.2l0,0h0.8c0.9,0,1.8,0,2.7,0.1c1.5,0.3,2.9,1.2,3.7,2.5
	c0.4,0.7,0.7,1.4,0.8,2.2c0.1,0.7,0.1,1.9,0.1,2.8l0.3,5.8l0.5,11.7l0.5,11.7l0.1,2.3c0.9,0,1.8,0,2.7,0.1L172.1,227.1z"/>
<path class="st10" d="M166,258.5c-1.1-6.1-1.6-12.2-2.1-18.4l-0.3-4.6l-0.2-2.3l0-0.6c0-0.3,0-0.5,0-0.8c0.1-0.7,0.3-1.3,0.7-1.8
	c0.8-0.9,1.9-1.4,3.1-1.5l2.3,0l4.6,0l4.6,0l2.3,0c1.2,0,2.3,0.5,3.1,1.4c0.4,0.5,0.7,1.1,0.7,1.8l0.1,1.2l0.1,2.3l0.2,4.6
	c0.2,6.2,0.4,12.3,0.3,18.5c0,0.3-0.3,0.5-0.5,0.5c-0.2,0-0.4-0.2-0.5-0.4c-0.8-6.1-1.3-12.3-1.8-18.4l-0.3-4.6l-0.2-2.3l-0.1-1.1
	c0-0.1-0.1-0.2-0.1-0.3c-0.3-0.3-0.6-0.4-1-0.4l-2.3,0l-4.6,0l-4.6,0h-2.3c-0.4,0-0.7,0.1-1,0.4c-0.1,0.1-0.1,0.2-0.1,0.3
	c0,0,0,0.2,0,0.4l0,0.6l0.1,2.3l0.2,4.6c0.2,6.2,0.4,12.3,0,18.5c0,0.1-0.1,0.2-0.3,0.2C166.1,258.8,166,258.7,166,258.5L166,258.5z
	"/>
<polygon class="st1" points="180.3,251.4 179.3,234.4 169.3,234.4 170.2,251.4 "/>
<line class="st0" x1="150.1" y1="268.2" x2="163.9" y2="268.2"/>
<path class="st11" d="M150.1,267.9c1.1-0.6,2.2-1,3.5-1c1.2-0.1,2.3-0.2,3.5-0.2c1.1,0,2.3,0.1,3.5,0.2c1.2,0.1,2.3,0.4,3.5,0.8
	c0.3,0.1,0.4,0.4,0.3,0.7c-0.1,0.1-0.2,0.3-0.3,0.3c-1.1,0.4-2.3,0.7-3.5,0.8c-1.1,0.1-2.3,0.2-3.5,0.2c-1.2,0-2.3,0-3.5-0.2
	c-1.2-0.1-2.4-0.4-3.5-1c-0.1-0.1-0.2-0.3-0.1-0.4C150,268,150,267.9,150.1,267.9z"/>
<path class="st11" d="M0.5,366.6c49.6-1.4,99.2-1.7,148.8-2.1l148.8-0.3c99.2,0.3,198.4,0.1,297.7,1.9c0.6,0,1,0.5,1,1.1
	c0,0.5-0.4,0.9-1,1c-99.2,1.7-198.4,1.6-297.7,1.9l-148.8-0.3c-49.6-0.4-99.2-0.6-148.8-2.1c-0.3,0-0.5-0.2-0.5-0.5
	C0,366.8,0.2,366.6,0.5,366.6L0.5,366.6z"/>
<path class="st6" d="M296.1,350.4c-0.7,0-1.3-0.6-1.3-1.3c0-0.1,0-0.2,0.1-0.4c1.9-6.1,1.1-18.6,0.3-30.6
	c-0.4-5.9-0.8-11.5-0.8-16.4c0-0.7,0.6-1.3,1.3-1.3c0,0,0,0,0,0l0,0c0.7,0,1.3,0.6,1.3,1.3c0.1,4.8,0.4,10.3,0.8,16.2
	c0.8,12.3,1.6,24.9-0.4,31.5C297.1,350.1,296.6,350.4,296.1,350.4z"/>
<path class="st6" d="M341.9,363c-0.6,0-1.2-0.5-1.3-1.1c0-0.3-4.6-31-7.8-61.3c-0.1-0.7,0.4-1.4,1.1-1.5c0.7-0.1,1.4,0.4,1.5,1.1
	c0,0.1,0,0.1,0,0.2c3.1,30.3,7.7,60.9,7.8,61.2c0.1,0.7-0.4,1.4-1.1,1.5C342.1,363,342,363,341.9,363z"/>
<path class="st4" d="M484.9,26.9v-2.6c0-1.4,1.1-2.6,2.6-2.6c1.4,0,2.6,1.1,2.6,2.6l0,0v2.8"/>
<path class="st5" d="M397.9,82.3v-0.7c-1,0.8-2.2,1.4-3.4,1.7c0,0,2.9-10.4-0.2-11.1c-3-0.7-14.7,19.9-14.7,19.9l4.2,10.1
	c0,0,4.5-4.1,19.1-11.5c3.3-3.1,5.2-6,6.2-8.4L397.9,82.3z"/>
<path class="st6" d="M391.7,97.7c-0.7,0-1.3-0.6-1.2-1.4c0-0.7,0.6-1.2,1.2-1.2c1.4-0.1,11.5-5.3,16.4-14.6c0.3-0.6,1.1-0.9,1.7-0.6
	c0.6,0.3,0.9,1.1,0.6,1.7c0,0,0,0.1,0,0.1C405.2,91.4,394.3,97.7,391.7,97.7z"/>
<path class="st6" d="M383.8,89.5c-0.7,0-1.3-0.6-1.3-1.3c0-0.4,0.2-0.7,0.4-1c1.1-0.9,2.8-4.4,4.3-7.5c3.1-6.2,4.5-8.8,6.3-9
	c0.6-0.1,1.3,0.2,1.7,0.7c1.8,2.1,1.3,7.1,0.8,10.1c1.1-0.5,2.3-1.2,3-2.1c0.4-0.6,1.2-0.8,1.8-0.4c0.6,0.4,0.8,1.2,0.4,1.8
	c0,0,0,0.1-0.1,0.1c-2,2.8-6.3,3.7-6.4,3.8c-0.7,0.2-1.4-0.3-1.5-1c0-0.2,0-0.4,0-0.5c0.6-2.9,1.1-7.6,0.4-9.5c-1,1.2-2.8,4.8-4,7.3
	c-1.8,3.6-3.5,7-4.9,8.3C384.4,89.3,384.1,89.5,383.8,89.5z"/>
<path class="st0" d="M255.6,112.4c0.1,0,0.2,0.1,0.5,0c0.2-0.1,0.3-0.4,0.4-0.8c-0.4,0.1-0.9,0.2-1.3,0.3
	C255.3,112.1,255.4,112.3,255.6,112.4z"/>
<path class="st0" d="M252,100.4c1.2,0.5,0.5,8.5,2.1,11.7c0.4-0.1,0.7-0.1,1.1-0.2c-0.8-1.4-1-4.8-1.1-6.8c-0.2-3.3-0.3-5.1-1.7-5.6
	c-2.1-0.8-4.8,1.3-6.6,5.2c-1.1,2.4-1.7,5.1-1.6,7.8c0.5,0,0.9,0.1,1.4,0.1C245.2,105.8,249.8,99.5,252,100.4z"/>
<path class="st0" d="M255.6,112.4c0.1,0,0.2,0.1,0.5,0c0.2-0.1,0.3-0.4,0.4-0.8c-0.4,0.1-0.9,0.2-1.3,0.3
	C255.3,112.1,255.4,112.3,255.6,112.4z"/>
<path class="st0" d="M255.6,112.4c0.1,0,0.2,0.1,0.5,0c0.2-0.1,0.3-0.4,0.4-0.8c-0.4,0.1-0.9,0.2-1.3,0.3
	C255.3,112.1,255.4,112.3,255.6,112.4z"/>
<path class="st0" d="M256.5,111.6l0.9-0.2C257.1,111.5,256.8,111.6,256.5,111.6z"/>
<path class="st0" d="M263.9,109l-0.4,0.2L263.9,109z"/>
<path class="st4" d="M166,54.3h-12.6c-1.4,0-2.6,1.1-2.6,2.6c0,1.4,1.1,2.6,2.6,2.6H166c1.4,0,2.6-1.1,2.6-2.6
	C168.5,55.5,167.4,54.3,166,54.3z"/>
<path class="st4" d="M191.2,54.3h-12.6c-1.4,0-2.6,1.1-2.6,2.6c0,1.4,1.1,2.6,2.6,2.6h12.6c1.4,0,2.6-1.1,2.6-2.6
	C193.7,55.5,192.6,54.3,191.2,54.3z"/>
<path class="st4" d="M317.2,54.3h-12.6c-1.4,0-2.6,1.1-2.6,2.6c0,1.4,1.1,2.6,2.6,2.6l0,0h12.6c1.4,0,2.6-1.1,2.6-2.6
	C319.8,55.5,318.6,54.3,317.2,54.3z"/>
<path class="st4" d="M355,54.3c-1.4,0-2.6,1.1-2.6,2.6c0,1.4,1.1,2.6,2.6,2.6h3.1v-5.1H355z"/>
<path class="st4" d="M342.4,52.1h-12.6c-1.4,0-2.6,1.1-2.6,2.6c0,1.4,1.1,2.6,2.6,2.6h12.6c1.4,0,2.6-1.1,2.6-2.6
	C344.9,53.3,343.8,52.1,342.4,52.1z"/>
<path class="st4" d="M216.4,54.3h-12.6c-1.4,0-2.6,1.1-2.6,2.6c0,1.4,1.1,2.6,2.6,2.6h10.5c0.8-1.7,1.8-3.4,2.9-5
	C216.9,54.3,216.6,54.3,216.4,54.3z"/>
<path class="st4" d="M292,54.3h-12.6c-0.3,0-0.5,0-0.8,0.1c1.1,1.6,2.1,3.3,2.9,5H292c1.4,0,2.6-1.1,2.6-2.6
	C294.5,55.5,293.4,54.3,292,54.3L292,54.3z"/>
<path class="st0" d="M255.6,112.4c0.1,0,0.2,0.1,0.5,0c0.2-0.1,0.3-0.4,0.4-0.8c-0.4,0.1-0.9,0.2-1.3,0.3
	C255.3,112.1,255.4,112.3,255.6,112.4z"/>
<path class="st6" d="M257.4,111.4l-0.9,0.2c-0.1,0.4-0.2,0.7-0.4,0.8c-0.4,0.1-0.5,0-0.5,0c-0.2-0.1-0.3-0.3-0.4-0.5
	c-0.8-1.4-1-4.8-1.1-6.8c-0.2-3.3-0.3-5.1-1.7-5.6c-2.1-0.8-4.8,1.3-6.6,5.2c-1.1,2.4-1.7,5.1-1.6,7.8c0.1,4.8,2.5,9.7,8.9,13
	c0.2,0.1,0.4,0.1,0.6,0.1c0.7,0,1.3-0.6,1.3-1.3c0-0.5-0.3-0.9-0.7-1.1c-9.1-4.8-7.8-12.5-6.8-15.7c1.1-3.4,2.9-5.3,3.7-5.6
	c0.2,1.1,0.3,2.2,0.3,3.3c0.2,3.7,0.5,7.8,2.6,9.3c0.8,0.5,1.8,0.6,2.8,0.3c1.9-0.6,2.2-2.1,2.2-3.9c-0.2,0.1-0.6,0.2-1,0.3
	l-0.4,0.1L257.4,111.4z"/>
<path class="st6" d="M257.7,111.3l0.4-0.1l-0.7,0.2L257.7,111.3z"/>
<path class="st6" d="M263.1,109.4l-0.2,0.1c-0.5,0.2-1,0.4-1.3,0.5c1.2,2.9,1.8,6,1.8,9.2c0,0.7,0.6,1.3,1.3,1.3l0,0
	c0.7,0,1.3-0.6,1.3-1.3c0.1-3.5-0.6-7-2-10.2l-0.4,0.2L263.1,109.4z"/>
<path class="st6" d="M263.5,109.2l-0.6,0.3l0.2-0.1L263.5,109.2z"/>
<path class="st3" d="M301.9,303.2c-4.4,0-8.3-0.5-10.4-2.2c-1.1-0.8-1.7-2-1.8-3.3c-0.1-1.1-0.2-2.8-0.4-4.9
	c-1.1-13-3.8-43.6,1.7-78.3c0.1-0.7,0.8-1.2,1.5-1c0.7,0.1,1.1,0.7,1,1.4c-5.5,34.4-2.8,64.7-1.7,77.7c0.2,2.2,0.3,3.9,0.4,5
	c0,0.6,0.3,1.1,0.8,1.4c4.4,3.4,22.1,0.6,28.6-0.7c0.7-0.1,1.4,0.4,1.5,1.1c0.1,0.7-0.3,1.3-0.9,1.5
	C320.5,301.1,310.4,303.2,301.9,303.2z"/>
<path class="st3" d="M338.6,301.3c-4.8,0-8.8-0.4-10.6-1.6c-4-2.6-3.2-38.8-2.7-54.2c0-0.7,0.5-1.2,1.2-1.2c0,0,0.1,0,0.1,0
	c0.7,0,1.3,0.6,1.2,1.3c-0.8,23.8-0.4,49.8,1.6,52c3.5,2.3,22.2,0.7,34-1l-2.2-39.1c0-0.7,0.5-1.3,1.2-1.4c0.7-0.1,1.3,0.4,1.3,1.1
	c0,0,0,0.1,0,0.1l2.3,40.3c0,0.7-0.4,1.2-1.1,1.3C362.9,299.3,349,301.3,338.6,301.3z"/>
<path class="st3" d="M360.8,237.7c-0.7,0-1.2-0.5-1.3-1.2l-2.7-33.8c-0.1-0.7,0.5-1.3,1.2-1.4c0.7-0.1,1.3,0.5,1.4,1.2l2.7,33.8
	c0.1,0.7-0.5,1.3-1.2,1.4L360.8,237.7z"/>
<path class="st8" d="M395.1,99.7l-12.3-12.8c-6,12.1-23.9,30-37.5,33.4c-0.3-0.1-0.6-0.2-1-0.4c-4.3-1.6-29.2-3.3-35.2-0.8
	c-3.8,1.6-6.5,2.9-8.2,4.5c-11.7,9.2-19.1,17.2-19.1,17.2l-14.3-22.4l-12.8,9.1c0,0,11,40.2,27.9,39.3c5.6-0.3,11-1.8,16-4.3
	L300,203l56.7-1l-1.4-57.9C376.4,133.4,395.1,99.7,395.1,99.7z"/>
<path class="st6" d="M297.4,204.4c-0.7,0-1.3-0.6-1.2-1.4c0-0.7,0.6-1.2,1.2-1.2l60.7-0.6c0.7,0,1.3,0.5,1.3,1.2c0,0,0,0.1,0,0.1
	c0,0.7-0.6,1.3-1.3,1.3L297.4,204.4L297.4,204.4z"/>
<path class="st6" d="M288,167.6c-0.7,0-1.3-0.6-1.3-1.3c0-0.5,0.3-1,0.8-1.2l11.1-5c0.6-0.3,1.4-0.1,1.7,0.5
	c0.3,0.6,0.1,1.4-0.5,1.7c0,0-0.1,0-0.1,0.1l-11.1,5C288.3,167.5,288.1,167.6,288,167.6z"/>
<path class="st10" d="M231.9,278.8h-0.2l-36.9,0.6l-37.2,0.4L82.8,280c-0.8,0-1.4-0.6-1.4-1.4l0,0l0-20.9c0-0.8,0.6-1.4,1.4-1.5h0
	l0,0l74.4,0.2l74.4,0.6l0,0c0.4,0,0.7,0.3,0.7,0.7c0,0,0,0,0,0l0,0L231.9,278.8z M231.1,278.4v-0.2l-0.4-20.5l0.7,0.7l-74.4,0.6
	l-74.4,0.2l1.5-1.5l0,20.9l-1.4-1.4l73.9,0.3l37.1,0.4L231.1,278.4z"/>
<line class="st0" x1="82.7" y1="270.9" x2="82.7" y2="362.2"/>
<path class="st10" d="M83,270.9c0.7,7.6,0.9,15.2,1,22.8l0.2,22.8c-0.2,15.2-0.1,30.4-0.9,45.6c0,0.3-0.3,0.5-0.6,0.5
	c-0.2,0-0.4-0.2-0.5-0.5c-0.9-15.2-0.8-30.4-0.9-45.6l0.2-22.8c0.2-7.6,0.3-15.2,1-22.8c0-0.1,0.1-0.3,0.3-0.3
	C82.9,270.7,83,270.8,83,270.9L83,270.9z"/>
<line class="st0" x1="231.5" y1="278.6" x2="231.5" y2="362.2"/>
<path class="st10" d="M231.7,278.6c0.7,7,0.9,13.9,1,20.9l0.2,20.9c-0.2,13.9-0.1,27.9-0.9,41.8c0,0.3-0.3,0.5-0.6,0.5
	c-0.2,0-0.4-0.2-0.5-0.5c-0.9-13.9-0.8-27.9-0.9-41.8l0.2-20.9c0.2-7,0.3-13.9,1-20.9c0-0.1,0.1-0.3,0.3-0.3
	C231.6,278.4,231.7,278.5,231.7,278.6L231.7,278.6z"/>
</svg>
