<?xml version="1.0" encoding="utf-8"?>
<!-- Generator: Adobe Illustrator 21.0.2, SVG Export Plug-In . SVG Version: 6.00 Build 0)  -->
<!DOCTYPE svg PUBLIC "-//W3C//DTD SVG 1.1//EN" "http://www.w3.org/Graphics/SVG/1.1/DTD/svg11.dtd">
<svg version="1.1" id="Layer_1" xmlns="http://www.w3.org/2000/svg" xmlns:xlink="http://www.w3.org/1999/xlink" x="0px" y="0px"
	 viewBox="0 0 228.1 143.5" style="enable-background:new 0 0 228.1 143.5;" xml:space="preserve">
<style type="text/css">
	.st0{fill:#FFFFFF;}
	.st1{fill:#CCCED0;}
	.st2{fill:#F6F6F6;}
	.st3{fill:#FFFFFF;stroke:#204A69;stroke-linecap:round;stroke-linejoin:round;stroke-miterlimit:10;}
	.st4{fill:#4F758F;}
	.st5{fill:#204A69;stroke:#204A69;stroke-width:0.7347;stroke-miterlimit:10;}
	.st6{fill:#6F93AD;}
	.st7{fill:#BBC9D5;}
	.st8{fill:none;stroke:#204A69;stroke-linecap:round;stroke-linejoin:round;stroke-miterlimit:10;}
	.st9{fill:none;stroke:#BBC9D5;stroke-linecap:round;stroke-linejoin:round;stroke-miterlimit:10;}
	.st10{fill:none;stroke:#FFFFFF;stroke-linecap:round;stroke-linejoin:round;stroke-miterlimit:10;}
	.st11{fill:#204A69;}
	.st12{fill:none;stroke:#CCCED0;stroke-width:2;stroke-linecap:round;stroke-linejoin:round;}
	.st13{fill:none;stroke:#CCCED0;stroke-width:2;stroke-linecap:round;stroke-linejoin:round;stroke-dasharray:5.0882,5.0882;}
	.st14{opacity:0.26;fill:#969CA1;}
	.st15{fill:none;stroke:#FFFFFF;stroke-width:2;stroke-linecap:round;stroke-linejoin:round;}
	.st16{fill:none;stroke:#FFFFFF;stroke-width:2;stroke-linecap:round;stroke-linejoin:round;stroke-dasharray:4.6103,4.6103;}
	.st17{fill:none;stroke:#FFFFFF;stroke-width:2;stroke-linecap:round;stroke-linejoin:round;stroke-dasharray:5.267,5.267;}
	.st18{opacity:0.26;fill:#4F758F;}
	.st19{fill:none;stroke:#CCCED0;stroke-width:2;stroke-linecap:round;stroke-linejoin:round;stroke-dasharray:5.2793,5.2793;}
	.st20{fill:none;stroke:#CCCED0;stroke-width:2;stroke-linecap:round;stroke-linejoin:round;stroke-dasharray:5.7214,5.7214;}
	.st21{fill:none;stroke:#CCCED0;stroke-width:2;stroke-linecap:round;stroke-linejoin:round;stroke-dasharray:5.2341,5.2341;}
	.st22{fill:none;stroke:#CCCED0;stroke-width:2;stroke-linecap:round;stroke-linejoin:round;stroke-dasharray:5.2928,5.2928;}
</style>
<g>
	<g>
		<line class="st0" x1="33.5" y1="86.1" x2="32.6" y2="73.1"/>
		<path class="st1" d="M33.4,86.1c-0.3-1.1-0.5-2.1-0.6-3.2c-0.1-1.1-0.2-2.2-0.3-3.2c-0.1-1.1-0.1-2.2-0.2-3.3c0-1.1,0-2.2,0.1-3.3
			c0-0.1,0.1-0.2,0.2-0.2c0.1,0,0.2,0.1,0.2,0.2c0.2,1.1,0.4,2.1,0.5,3.2c0.1,1.1,0.2,2.2,0.3,3.2c0.1,1.1,0.1,2.2,0.2,3.3
			c0,1.1,0,2.2-0.2,3.3C33.6,86.2,33.6,86.2,33.4,86.1C33.5,86.2,33.5,86.2,33.4,86.1z"/>
	</g>
	<g>
		<line class="st0" x1="36.2" y1="89" x2="36" y2="76"/>
		<path class="st2" d="M36.1,89c-0.3-1.1-0.4-2.2-0.5-3.2c-0.1-1.1-0.1-2.2-0.1-3.2c0-1.1,0-2.2,0-3.3c0-1.1,0.1-2.2,0.2-3.3
			c0-0.1,0.1-0.2,0.2-0.2c0.1,0,0.2,0.1,0.2,0.2c0.2,1.1,0.3,2.2,0.3,3.2c0.1,1.1,0.1,2.2,0.1,3.2c0,1.1,0,2.2,0,3.3
			c0,1.1-0.1,2.2-0.3,3.3C36.3,89,36.2,89.1,36.1,89C36.1,89,36.1,89,36.1,89z"/>
	</g>
	<g>
		<line class="st0" x1="38.7" y1="90" x2="40.4" y2="77.1"/>
		<path class="st2" d="M38.6,90c-0.1-1.1-0.1-2.2,0-3.3c0.1-1.1,0.2-2.2,0.3-3.2c0.1-1.1,0.3-2.1,0.5-3.2c0.2-1.1,0.4-2.1,0.7-3.2
			c0-0.1,0.1-0.2,0.3-0.1c0.1,0,0.1,0.1,0.1,0.2c0,1.1,0,2.2-0.1,3.3c-0.1,1.1-0.2,2.2-0.3,3.2c-0.1,1.1-0.3,2.1-0.5,3.2
			c-0.2,1.1-0.4,2.1-0.8,3.2C38.8,90.1,38.8,90.1,38.6,90C38.7,90.1,38.6,90.1,38.6,90z"/>
	</g>
	<g>
		<polygon class="st0" points="41,99.2 30.3,99.2 29.2,83.2 42.1,83.2 		"/>
		<g>
			<path class="st2" d="M41.2,99.2L41.2,99.2c-3.5,0.2-7.2,0.3-10.9,0.4c-0.2,0-0.4-0.2-0.5-0.4l0,0c-0.4-5.3-0.8-10.6-1.2-15.9
				c0-0.3,0.2-0.6,0.5-0.6l0,0l0,0c4.3-0.1,8.6,0,12.9,0l0,0c0.3,0,0.5,0.2,0.5,0.5l0,0C42.2,88.7,41.7,94,41.2,99.2z M40.9,99.1
				L40.9,99.1c0.2-5.5,0.5-10.7,0.7-15.9l0.5,0.5c-4.3,0-8.6,0.1-12.9,0l0.5-0.6c0.3,5.3,0.7,10.6,1,15.9l-0.5-0.4
				C33.7,98.8,37.2,98.9,40.9,99.1z"/>
		</g>
	</g>
	<path class="st1" d="M33.1,72.2L33.1,72.2c-0.3,0.3-0.8,0.4-1.1,0.1h0c-0.3-0.3-0.2-0.9-0.1-1.1c0.1-0.2,0.5-0.9,0.5-0.9
		s0.4,0.4,0.6,0.8C33.2,71.5,33.3,71.8,33.1,72.2z"/>
	<path class="st2" d="M36.5,75L36.5,75c-0.3,0.3-0.8,0.4-1.1,0.1l0,0c-0.3-0.3-0.2-0.9-0.1-1.1c0.1-0.2,0.5-0.9,0.5-0.9
		s0.4,0.4,0.6,0.8C36.7,74.3,36.8,74.6,36.5,75z"/>
	<path class="st2" d="M41.1,76.3L41.1,76.3c-0.3,0.3-0.8,0.2-1.1-0.1l0,0c-0.3-0.3,0-0.9,0.1-1.1c0.2-0.2,0.6-0.8,0.6-0.8
		s0.3,0.5,0.5,0.9C41.3,75.6,41.4,76,41.1,76.3z"/>
</g>
<g>
	<line class="st0" x1="227.7" y1="99.1" x2="208.2" y2="99.1"/>
	<path class="st1" d="M227.7,99.2c-1.6,0.3-3.3,0.4-4.9,0.4c-1.6,0-3.3,0.1-4.9,0.1c-3.3-0.1-6.5,0-9.8-0.4c-0.1,0-0.2-0.1-0.2-0.2
		c0-0.1,0.1-0.2,0.2-0.2c3.3-0.3,6.5-0.3,9.8-0.4c1.6,0,3.3,0,4.9,0.1c1.6,0,3.3,0.1,4.9,0.4C227.7,99,227.8,99,227.7,99.2
		C227.8,99.1,227.7,99.2,227.7,99.2z"/>
</g>
<g>
	<line class="st0" x1="220.8" y1="138.1" x2="220.8" y2="99.1"/>
	<path class="st2" d="M220.7,138.1c-0.3-3.2-0.3-6.5-0.4-9.7l-0.1-9.7c0.1-6.5,0-13,0.4-19.5c0-0.1,0.1-0.2,0.2-0.2
		c0.1,0,0.2,0.1,0.2,0.2c0.3,6.5,0.3,13,0.4,19.5l-0.1,9.7c-0.1,3.2-0.1,6.5-0.4,9.7C220.8,138.1,220.8,138.1,220.7,138.1
		C220.7,138.1,220.7,138.1,220.7,138.1z"/>
</g>
<g>
	<g>
		<rect x="20.9" y="60.9" class="st0" width="3.8" height="22.5"/>
		<path class="st0" d="M25.7,60.9H14.6v0c0-1.2,0.7-2.2,1.7-2.7c1.9-0.9,5.3-2.1,9.3-2.1V60.9z"/>
		<path class="st0" d="M29,60.9h-1.8v-4.8H29c0.6,0,1,0.5,1,1v2.8C30,60.5,29.6,60.9,29,60.9z"/>
	</g>
	<g>
		<path class="st2" d="M24.9,83.5L24.9,83.5c-1.3,0.1-2.6,0.2-4,0.3c-0.2,0-0.3-0.1-0.3-0.3l0,0c-0.2-3.7-0.2-7.5-0.3-11.2
			l-0.1-11.2c0-0.4,0.3-0.6,0.6-0.6h0l3.8,0l0,0c0.3,0,0.6,0.3,0.6,0.6l0,0c0,3.8,0,7.7-0.1,11.4L24.9,83.5z M24.5,83.3L24.5,83.3
			L24.2,72c-0.1-3.7-0.1-7.4-0.1-11l0.6,0.6l-3.8,0l0.6-0.6l-0.1,11.2c0,3.7-0.1,7.5-0.3,11.2l-0.3-0.3
			C22.1,83.1,23.3,83.2,24.5,83.3z"/>
		<path class="st2" d="M25.8,61L25.8,61c-1.9,0.2-3.9,0.3-6,0.4c-1,0-2.1,0.1-3.1,0.1l-1.6,0l-0.4,0l-0.1,0l0,0h0
			c-1.3-1.3-0.4-0.4-0.6-0.6l0,0l0,0l0-0.2c0-0.3,0.1-0.6,0.2-0.9c0.2-0.6,0.5-1.1,1-1.5c0.2-0.2,0.5-0.4,0.7-0.5
			c0.3-0.1,0.5-0.2,0.7-0.3c1-0.4,1.9-0.7,2.9-1c2-0.5,4-0.8,6.1-0.8l0,0c0.3,0,0.4,0.2,0.4,0.5C26.1,57.8,25.9,59.5,25.8,61z
			 M25.5,60.8L25.5,60.8c-0.1-1.7-0.3-3.2-0.3-4.7l0.5,0.5c-2,0.1-3.9,0.4-5.8,1c-0.9,0.3-1.9,0.6-2.7,1c-0.5,0.2-0.8,0.4-1.1,0.6
			c-0.3,0.3-0.5,0.6-0.7,1c-0.1,0.2-0.1,0.4-0.1,0.6l0,0.1l0,0l0,0c-0.3-0.3,0.6,0.6-0.6-0.6l0,0l0,0l0.1,0l0.4,0l1.4,0
			c1,0,1.9,0,2.9,0.1C21.4,60.5,23.4,60.7,25.5,60.8z"/>
		<path class="st2" d="M29,61c-0.6,0.1-1.2,0.3-1.8,0.3c-0.2,0-0.4-0.1-0.4-0.3l0-0.1c-0.1-0.8-0.1-1.6-0.2-2.4c0-0.8,0-1.6-0.1-2.4
			c0-0.4,0.3-0.6,0.6-0.6h0l1,0l0.5,0c0.2,0,0.3,0,0.6,0c0.5,0.1,1,0.4,1.2,0.9c0.1,0.2,0.2,0.5,0.2,0.7l0,0.5
			c0,0.6-0.1,1.3-0.1,1.9c0,0.2,0,0.3-0.1,0.5c0,0.2-0.1,0.4-0.3,0.6c-0.3,0.3-0.7,0.5-1.1,0.5V61z M29,60.7c0.3,0,0.5-0.2,0.6-0.4
			c0.1-0.2,0.1-0.4,0-0.7c-0.1-0.6-0.1-1.3-0.1-1.9l0-0.5c0-0.1,0-0.1-0.1-0.2c-0.1-0.1-0.2-0.2-0.3-0.2l-1.9,0l0.6-0.6
			c0,0.8,0,1.6-0.1,2.4c0,0.8-0.1,1.6-0.2,2.4l-0.4-0.4c0.6,0.1,1.2,0.2,1.8,0.3V60.7z"/>
	</g>
</g>
<g>
	<line class="st0" x1="0.2" y1="99.1" x2="55.2" y2="99.1"/>
	<path class="st1" d="M0.2,99c4.6-0.3,9.2-0.3,13.8-0.4l13.8-0.1c9.2,0.1,18.3,0,27.5,0.4c0.1,0,0.2,0.1,0.2,0.2
		c0,0.1-0.1,0.2-0.2,0.2c-9.2,0.3-18.3,0.3-27.5,0.4L14,99.6c-4.6-0.1-9.2-0.1-13.8-0.4C0.1,99.2,0.1,99.1,0.2,99
		C0.1,99,0.1,99,0.2,99z"/>
</g>
<g>
	<polyline class="st0" points="51.2,108.1 51.2,118.6 16.7,118.6 16.7,108.1 	"/>
	<path class="st2" d="M51.3,108.1c0.2,3.5,0.3,7,0.4,10.5c0,0.2-0.2,0.4-0.4,0.4l0,0c-2.9,0.1-5.8,0.1-8.6,0.1l-8.6,0
		c-5.8,0-11.5,0-17.3-0.1l0,0c-0.2,0-0.4-0.2-0.4-0.4c0-3.5,0.1-7,0.2-10.5c0-0.1,0.1-0.2,0.2-0.2c0.1,0,0.2,0.1,0.2,0.2
		c0.1,3.5,0.2,7,0.2,10.5l-0.4-0.4c5.8-0.1,11.5-0.1,17.3-0.1l8.6,0c2.9,0,5.8,0,8.6,0.1l-0.5,0.5c0-3.5,0.2-7,0.4-10.5
		C51.1,108,51.2,108,51.3,108.1C51.3,108,51.3,108,51.3,108.1z"/>
</g>
<path class="st3" d="M58,45.8c0.8,0,1.1-0.1,1.9-0.4c3.2-1.1,4.7-3.8,4.6-6.9c0-0.9,1.5-1.5,1.2-2.4c-0.4-1.2-2.5-1.1-3.5-3.3
	c-1.2-2.5-4.3-3.2-7.2-2.2c-4.1,1.4-6.3,5.8-4.9,9.9"/>
<path class="st4" d="M57.1,36.1c1.1,2.8,0.9,7.6-2.1,8.7c-2.9,1.1-5-4.3-5-4.3L57.1,36.1z"/>
<path class="st5" d="M48.9,77.3c-2.6,19.8-0.4,62-0.4,62h9.7l0.9-35.4"/>
<path class="st5" d="M48.5,138.3c2.9,0.1,11.8,0.7,13.2,1.1s1.4,0.7-0.2,1c-1.6,0.4-13,0-13,0V138.3z"/>
<g>
	<path class="st6" d="M64.7,76.9c0,0,1.1,15,1.6,30.4c0.4,12.9-1.1,26.5-1,32H54.8c0.1-31.5-6.1-44.6-5.8-62"/>
</g>
<g>
	<path class="st6" d="M48.1,55.5c-1.2,10.8,0.8,21.8,0.8,21.8l15.9-0.4l-0.2-9.8l-3.7-2l4.5-8.7l-3-3.1l-4.5-4.7
		C53.2,47.5,48.6,50.7,48.1,55.5z"/>
</g>
<polygon class="st7" points="59.4,64.4 60.2,116.1 66.8,116.1 65.8,67.5 "/>
<path class="st3" d="M57.6,62.2c6.3,5.4,12.4,7,14.9,4.8c3.8-3.2-3-15.8-3.4-17.6c-1.6-6.4-5.1-6.4-6-5.7c-0.9,0.7,0.9,4.7,0.9,4.7
	l1.6,8.5"/>
<line class="st8" x1="61.9" y1="53.6" x2="67.7" y2="59.1"/>
<g>
	<path class="st6" d="M54.8,138.3c2.9,0.1,11.8,0.7,13.2,1.1c1.3,0.5,1.4,1.2-0.2,1.6c-1.6,0.4-13,0-13,0V138.3z"/>
</g>
<polygon class="st8" points="59.3,46 58.4,48.6 57.8,45.9 "/>
<path class="st9" d="M62.1,76.6c-4.8,2.1-14.2,1-14.2,1"/>
<path class="st10" d="M67.6,91c-1.6,0.3-3.5,0.2-5.4-0.1"/>
<path class="st9" d="M54.3,48.9c2.5-0.9-2.9-3.8-3.3-1.8S52.2,49.6,54.3,48.9z"/>
<path class="st9" d="M55.5,48.5c0,0,3.1,0.4,4.7,2"/>
<line class="st9" x1="49.5" y1="41.2" x2="65.1" y2="30.6"/>
<path class="st8" d="M62.6,41c0.7,0.1,1.3-0.2,1.3-0.2"/>
<path class="st11" d="M61.9,37.7L61.9,37.7c-0.2,0-0.5-0.1-0.5-0.4l-0.1-0.7c0-0.2,0.1-0.5,0.4-0.5h0c0.2,0,0.5,0.1,0.5,0.4l0.1,0.7
	C62.3,37.4,62.1,37.7,61.9,37.7z"/>
<g>
	<g>
		<line class="st0" x1="172.7" y1="63" x2="171.5" y2="63"/>
		<path class="st2" d="M172.7,63.1c-0.1,0.2-0.2,0.3-0.3,0.3c-0.1,0-0.2,0.1-0.3,0.1c-0.2-0.1-0.4,0-0.6-0.3c-0.1-0.1-0.1-0.2,0-0.3
			c0.2-0.3,0.4-0.3,0.6-0.3c0.1,0,0.2,0,0.3,0.1c0.1,0,0.2,0.1,0.3,0.3C172.7,63,172.7,63,172.7,63.1z"/>
	</g>
	<g>
		<line class="st0" x1="172.7" y1="69.1" x2="171.5" y2="69.1"/>
		<path class="st2" d="M172.7,69.2c-0.1,0.2-0.2,0.3-0.3,0.3c-0.1,0-0.2,0.1-0.3,0.1c-0.2-0.1-0.4,0-0.6-0.3c-0.1-0.1-0.1-0.2,0-0.3
			c0.2-0.3,0.4-0.3,0.6-0.3c0.1,0,0.2,0,0.3,0.1c0.1,0,0.2,0.1,0.3,0.3C172.7,69.1,172.7,69.1,172.7,69.2z"/>
	</g>
	<g>
		<line class="st0" x1="172.7" y1="71.3" x2="171.5" y2="71.3"/>
		<path class="st2" d="M172.7,71.4c-0.1,0.2-0.2,0.3-0.3,0.3c-0.1,0-0.2,0.1-0.3,0.1c-0.2-0.1-0.4,0-0.6-0.3c-0.1-0.1-0.1-0.2,0-0.3
			c0.2-0.3,0.4-0.3,0.6-0.3c0.1,0,0.2,0,0.3,0.1c0.1,0,0.2,0.1,0.3,0.3C172.7,71.3,172.7,71.3,172.7,71.4z"/>
	</g>
	<g>
		<line class="st0" x1="172.7" y1="77.6" x2="171.5" y2="77.6"/>
		<path class="st2" d="M172.7,77.7c-0.1,0.2-0.2,0.3-0.3,0.3c-0.1,0-0.2,0.1-0.3,0.1c-0.2-0.1-0.4,0-0.6-0.3c-0.1-0.1-0.1-0.2,0-0.3
			c0.2-0.3,0.4-0.3,0.6-0.3c0.1,0,0.2,0,0.3,0.1c0.1,0,0.2,0.1,0.3,0.3C172.7,77.6,172.7,77.7,172.7,77.7z"/>
	</g>
	<g>
		<line class="st0" x1="172.7" y1="83.7" x2="171.5" y2="83.7"/>
		<path class="st2" d="M172.7,83.8c-0.1,0.2-0.2,0.3-0.3,0.3c-0.1,0-0.2,0.1-0.3,0.1c-0.2-0.1-0.4,0-0.6-0.3c-0.1-0.1-0.1-0.2,0-0.3
			c0.2-0.3,0.4-0.3,0.6-0.3c0.1,0,0.2,0,0.3,0.1c0.1,0,0.2,0.1,0.3,0.3C172.7,83.7,172.7,83.7,172.7,83.8z"/>
	</g>
	<g>
		<line class="st0" x1="172.7" y1="89.4" x2="171.5" y2="89.4"/>
		<path class="st2" d="M172.7,89.5c-0.1,0.2-0.2,0.3-0.3,0.3c-0.1,0-0.2,0.1-0.3,0.1c-0.2-0.1-0.4,0-0.6-0.3c-0.1-0.1-0.1-0.2,0-0.3
			c0.2-0.3,0.4-0.3,0.6-0.3c0.1,0,0.2,0,0.3,0.1c0.1,0,0.2,0.1,0.3,0.3C172.7,89.4,172.7,89.4,172.7,89.5z"/>
	</g>
</g>
<g>
	<line class="st0" x1="30.9" y1="111.5" x2="37" y2="111.5"/>
	<path class="st2" d="M30.9,111.4c0.5-0.3,1-0.4,1.5-0.4c0.5,0,1-0.1,1.5-0.1c0.5,0,1,0,1.5,0.1c0.5,0,1,0.1,1.5,0.3
		c0.1,0,0.2,0.2,0.1,0.3c0,0.1-0.1,0.1-0.1,0.1c-0.5,0.2-1,0.2-1.5,0.3c-0.5,0-1,0.1-1.5,0.1c-0.5,0-1,0-1.5-0.1
		c-0.5,0-1-0.1-1.5-0.4C30.8,111.5,30.8,111.5,30.9,111.4C30.8,111.4,30.9,111.4,30.9,111.4z"/>
</g>
<g>
	<path class="st2" d="M0.2,142.1c19-0.6,37.9-0.7,56.9-0.8l56.9-0.1c37.9,0.1,75.8,0.1,113.7,0.7c0.2,0,0.4,0.2,0.4,0.4
		c0,0.2-0.2,0.4-0.4,0.4c-37.9,0.7-75.8,0.6-113.7,0.7l-56.9-0.1c-19-0.1-37.9-0.3-56.9-0.8c-0.1,0-0.2-0.1-0.2-0.2
		C0,142.2,0.1,142.1,0.2,142.1z"/>
</g>
<g>
	<g>
		<path class="st0" d="M69.8,22.2l-0.2-7.8V9.2c0-4.5,3.7-8.2,8.2-8.2H199c4.5,0,8.2,3.7,8.2,8.2v13"/>
		<g>
			<line class="st12" x1="69.8" y1="22.2" x2="69.7" y2="19.7"/>
			<path class="st13" d="M69.6,14.6l0-0.2V9.2c0-4.5,3.7-8.2,8.2-8.2H199c4.5,0,8.2,3.7,8.2,8.2v7.9"/>
			<line class="st12" x1="207.2" y1="19.7" x2="207.2" y2="22.2"/>
		</g>
	</g>
	<g>
		<line class="st0" x1="214" y1="23.2" x2="62.7" y2="23.2"/>
		<path class="st1" d="M214,23.4c-12.6,0.8-25.2,0.8-37.8,0.8l-37.8,0.1l-37.8-0.1c-12.6,0-25.2,0-37.8-0.8v-0.5
			c12.6-0.8,25.2-0.8,37.8-0.8l37.8-0.1l37.8,0.1c12.6,0,25.2,0,37.8,0.8V23.4z"/>
	</g>
	<rect x="86.8" y="65" class="st0" width="57.4" height="36.9"/>
	<g>
		<path class="st0" d="M144.2,54.4H86.8v-8.2c0-5.9,4.8-10.7,10.7-10.7h46.7V54.4z"/>
	</g>
	<path class="st0" d="M135.2,73.3c-7,0-9.4,3.2-10.9,5.9c-1.4,2.5-4.5,5.9-9.3,7.2c-4.8,1.3-6.8,4.1-6.8,6.8h27.2L135.2,73.3z"/>
	<polygon class="st14" points="72.8,127.8 72.8,31.7 210.4,31.7 210.4,127.8 107.4,127.8 	"/>
	<g>
		<g>
			<polyline class="st15" points="144.6,105.6 144.6,108.1 142.1,108.1 			"/>
			<line class="st16" x1="137.5" y1="108.1" x2="93.7" y2="108.1"/>
			<polyline class="st15" points="91.4,108.1 88.9,108.1 88.9,105.6 			"/>
			<line class="st17" x1="88.9" y1="100.3" x2="88.9" y2="60.8"/>
			<polyline class="st15" points="88.9,58.2 88.9,55.7 91.4,55.7 			"/>
			<line class="st16" x1="96" y1="55.7" x2="139.8" y2="55.7"/>
			<polyline class="st15" points="142.1,55.7 144.6,55.7 144.6,58.2 			"/>
			<line class="st17" x1="144.6" y1="63.4" x2="144.6" y2="102.9"/>
		</g>
	</g>
	<path class="st0" d="M141.3,81.4H97.6v-9.9h51.9v1.7C149.5,77.7,145.8,81.4,141.3,81.4z"/>
	<path class="st18" d="M121.8,99.8H97.6v-9.9H130v1.7C130,96.1,126.3,99.8,121.8,99.8z"/>
	<g>
		<path class="st6" d="M198.4,118.7h-39.7V90.8c0-3.9,3.1-7,7-7h32.7V118.7z"/>
		<g>
			<g>
				<path class="st0" d="M217.7,74.7h-42V41.1h36.1c3.2,0,5.8,2.6,5.8,5.8V74.7z"/>
				<g>
					<polyline class="st12" points="217.7,72.2 217.7,74.7 215.2,74.7 					"/>
					<line class="st19" x1="209.9" y1="74.7" x2="180.9" y2="74.7"/>
					<polyline class="st12" points="178.3,74.7 175.8,74.7 175.8,72.2 					"/>
					<line class="st20" x1="175.8" y1="66.5" x2="175.8" y2="46.5"/>
					<polyline class="st12" points="175.8,43.6 175.8,41.1 178.3,41.1 					"/>
					<path class="st21" d="M183.5,41.1h28.4c3.2,0,5.8,2.6,5.8,5.8v22.7"/>
				</g>
			</g>
			<g>
				<line class="st0" x1="175.6" y1="41.3" x2="216.6" y2="74.3"/>
				<g>
					<line class="st12" x1="175.6" y1="41.3" x2="177.5" y2="42.9"/>
					<line class="st22" x1="181.7" y1="46.2" x2="212.6" y2="71.1"/>
					<line class="st12" x1="214.6" y1="72.7" x2="216.6" y2="74.3"/>
				</g>
			</g>
		</g>
	</g>
	<circle class="st14" cx="84.8" cy="11.6" r="2"/>
	<circle class="st14" cx="95.5" cy="11.6" r="2"/>
	<circle class="st14" cx="106.3" cy="11.6" r="2"/>
</g>
</svg>
