<?xml version="1.0" encoding="utf-8"?>
<svg version="1.1" id="generatingCash-2" xmlns="http://www.w3.org/2000/svg" xmlns:xlink="http://www.w3.org/1999/xlink" x="0px"
	 y="0px" viewBox="0 0 1495 856.6" style="enable-background:new 0 0 1495 856.6;" xml:space="preserve">
<style type="text/css">
	.st0{fill:#FFFFFF;}
	.st1{fill:none;}
	.st2{opacity:0.26;fill:#86A6BD;enable-background:new    ;}
	.st3{fill:#00A9DE;}
	.st4{fill:#C2F4FF;}
	.st5{fill:#0084C0;}
	.st6{fill:#07A8DC;}
	.st7{fill:#004F84;}
	.st8{fill:#C7D6E1;}
	.st9{fill:#005081;}
	.st10{fill:#74DCFC;}
	.st11{fill:#C8D7E2;}
</style>
<path class="st0" d="M770.5,755.5l-11.7-44.7l-19-73.3c0-0.2-0.1-0.3-0.1-0.5l-1.9-26.8l-1-13.4c-0.3-4.6-0.5-8.6-1.7-12.7
	c-0.1-0.3-0.2-0.6-0.3-0.9c-2.6-4.8-5.2-9.6-7.8-14.4c-1.6-1.9-3.5-3.6-5.5-5.2c-3.3-2.5-7-4.4-11-5.4c-2-0.5-4-0.8-6-0.8h-41.6
	h-0.5h-26.6h0h-2.4H631H483.4c-4.6-0.1-8.5,0-12.4,1.3c-3.9,1.3-7.4,3.4-10.3,6.3c-6.1,5.9-10.4,13.4-12.3,21.6
	c-1,4.2-1.5,8.5-1.6,12.8l-0.9,13.4l-1.8,26.8c0,0.2,0,0.3-0.1,0.5l-29.4,116.2l177.4-0.6L770.5,755.5z M620.1,736.4
	c-6.3,0.8-12.6,1.2-18.9,1.1c-0.7,0-1.3-0.6-1.3-1.3l-0.1-9.1v-4.6v-2.3v-1.4c0-0.3,0-0.5,0.1-0.8c0.2-0.5,0.5-0.8,0.9-1.1
	c0.6-0.4,1.2-0.6,1.9-0.6h1.2h2.3h4.6l9.1,0.1c0.7,0,1.3,0.6,1.3,1.3C621.4,723.9,621,730.1,620.1,736.4z M620.1,706.9
	c-6.3,0.8-12.6,1.2-18.9,1.1c-0.7,0-1.3-0.6-1.3-1.3l-0.1-9.1V693v-2.3v-1.4c0-0.3,0-0.5,0.1-0.8c0.2-0.5,0.5-0.8,0.9-1.1
	c0.6-0.4,1.2-0.6,1.9-0.6h1.2h2.3h4.6l9.1,0.1c0.7,0,1.3,0.6,1.3,1.3C621.4,694.4,621,700.7,620.1,706.9z M620.1,677.5
	c-6.3,0.8-12.6,1.2-18.9,1.1c-0.7,0-1.3-0.6-1.3-1.3l-0.1-9.1v-4.6v-2.3v-1.4c0-0.3,0-0.5,0.1-0.8c0.2-0.5,0.5-0.8,0.9-1.1
	c0.6-0.4,1.2-0.6,1.9-0.6h1.2h2.3h4.6l9.1,0.1c0.7,0,1.3,0.6,1.3,1.3C621.4,665,621,671.3,620.1,677.5z M657,736.4
	c-6.3,0.8-12.6,1.2-18.9,1.1c-0.7,0-1.3-0.6-1.3-1.3l-0.1-9.1v-4.6v-2.3v-1.4c0-0.3,0-0.5,0.1-0.8c0.2-0.5,0.5-0.8,0.9-1.1
	c0.6-0.4,1.2-0.6,1.9-0.6h1.2h2.3h4.6l9.1,0.1c0.7,0,1.3,0.6,1.3,1.3C658.2,723.9,657.8,730.1,657,736.4z M657,706.9
	c-6.3,0.8-12.6,1.2-18.9,1.1c-0.7,0-1.3-0.6-1.3-1.3l-0.1-9.1V693v-2.3v-1.4c0-0.3,0-0.5,0.1-0.8c0.2-0.5,0.5-0.8,0.9-1.1
	c0.6-0.4,1.2-0.6,1.9-0.6h1.2h2.3h4.6l9.1,0.1c0.7,0,1.3,0.6,1.3,1.3C658.2,694.4,657.8,700.7,657,706.9z M657,677.5
	c-6.3,0.8-12.6,1.2-18.9,1.1c-0.7,0-1.3-0.6-1.3-1.3l-0.1-9.1v-4.6v-2.3v-1.4c0-0.3,0-0.5,0.1-0.8c0.2-0.5,0.5-0.8,0.9-1.1
	c0.6-0.4,1.2-0.6,1.9-0.6h1.2h2.3h4.6l9.1,0.1c0.7,0,1.3,0.6,1.3,1.3C658.2,665,657.8,671.3,657,677.5z M693.8,736.4
	c-6.3,0.8-12.6,1.2-18.9,1.1c-0.7,0-1.3-0.6-1.3-1.3l-0.1-9.1v-4.6v-2.3v-1.4c0-0.3,0-0.5,0.1-0.8c0.2-0.5,0.5-0.8,0.9-1.1
	c0.6-0.4,1.2-0.6,1.9-0.6h1.2h2.3h4.6l9.1,0.1c0.7,0,1.3,0.6,1.3,1.3C695.1,723.9,694.7,730.1,693.8,736.4z M693.8,706.9
	c-6.3,0.8-12.6,1.2-18.9,1.1c-0.7,0-1.3-0.6-1.3-1.3l-0.1-9.1V693v-2.3v-1.4c0-0.3,0-0.5,0.1-0.8c0.2-0.5,0.5-0.8,0.9-1.1
	c0.6-0.4,1.2-0.6,1.9-0.6h1.2h2.3h4.6l9.1,0.1c0.7,0,1.3,0.6,1.3,1.3C695.1,694.4,694.7,700.7,693.8,706.9z M693.8,677.5
	c-6.3,0.8-12.6,1.2-18.9,1.1c-0.7,0-1.3-0.6-1.3-1.3l-0.1-9.1v-4.6v-2.3v-1.4c0-0.3,0-0.5,0.1-0.8c0.2-0.5,0.5-0.8,0.9-1.1
	c0.6-0.4,1.2-0.6,1.9-0.6h1.2h2.3h4.6l9.1,0.1c0.7,0,1.3,0.6,1.3,1.3C695.1,665,694.7,671.3,693.8,677.5z M475.6,639.7
	c0-0.2,0.2-0.5,0.5-0.5v0c19.6-1.4,39.1-1.4,58.7-1.5l58.7-0.2l58.7,0.2c19.6,0.1,39.1,0.1,58.7,1.5c0.3,0,0.5,0.2,0.5,0.5
	c0,0.2-0.2,0.5-0.5,0.5c-19.6,1.4-39.1,1.4-58.7,1.5l-58.7,0.2l-58.7-0.2c-19.6-0.1-39.1-0.1-58.7-1.5
	C475.8,640.1,475.6,639.9,475.6,639.7z M509.6,736.4c-6.3,0.8-12.6,1.2-18.9,1.1c-0.7,0-1.3-0.6-1.3-1.3l-0.1-9.1v-4.6v-2.3v-1.4
	c0-0.3,0-0.5,0.1-0.8c0.2-0.5,0.5-0.8,0.9-1.1c0.6-0.4,1.2-0.6,1.9-0.6h1.2h2.3h4.6l9.1,0.1c0.7,0,1.3,0.6,1.3,1.3
	C510.8,723.9,510.4,730.1,509.6,736.4z M509.6,706.9c-6.3,0.8-12.6,1.2-18.9,1.1c-0.7,0-1.3-0.6-1.3-1.3l-0.1-9.1V693v-2.3v-1.4
	c0-0.3,0-0.5,0.1-0.8c0.2-0.5,0.5-0.8,0.9-1.1c0.6-0.4,1.2-0.6,1.9-0.6h1.2h2.3h4.6l9.1,0.1c0.7,0,1.3,0.6,1.3,1.3
	C510.8,694.4,510.4,700.7,509.6,706.9z M509.6,677.5c-6.3,0.8-12.6,1.2-18.9,1.1c-0.7,0-1.3-0.6-1.3-1.3l-0.1-9.1v-4.6v-2.3v-1.4
	c0-0.3,0-0.5,0.1-0.8c0.2-0.5,0.5-0.8,0.9-1.1c0.6-0.4,1.2-0.6,1.9-0.6h1.2h2.3h4.6l9.1,0.1c0.7,0,1.3,0.6,1.3,1.3
	C510.8,665,510.4,671.3,509.6,677.5z M546.4,736.4c-6.3,0.8-12.6,1.2-18.9,1.1c-0.7,0-1.3-0.6-1.3-1.3l-0.1-9.1v-4.6v-2.3v-1.4
	c0-0.3,0-0.5,0.1-0.8c0.2-0.5,0.5-0.8,0.9-1.1c0.6-0.4,1.2-0.6,1.9-0.6h1.2h2.3h4.6l9.1,0.1c0.7,0,1.3,0.6,1.3,1.3
	C547.7,723.9,547.3,730.1,546.4,736.4z M546.4,706.9c-6.3,0.8-12.6,1.2-18.9,1.1c-0.7,0-1.3-0.6-1.3-1.3l-0.1-9.1V693v-2.3v-1.4
	c0-0.3,0-0.5,0.1-0.8c0.2-0.5,0.5-0.8,0.9-1.1c0.6-0.4,1.2-0.6,1.9-0.6h1.2h2.3h4.6l9.1,0.1c0.7,0,1.3,0.6,1.3,1.3
	C547.7,694.4,547.3,700.7,546.4,706.9z M546.4,677.5c-6.3,0.8-12.6,1.2-18.9,1.1c-0.7,0-1.3-0.6-1.3-1.3l-0.1-9.1v-4.6v-2.3v-1.4
	c0-0.3,0-0.5,0.1-0.8c0.2-0.5,0.5-0.8,0.9-1.1c0.6-0.4,1.2-0.6,1.9-0.6h1.2h2.3h4.6l9.1,0.1c0.7,0,1.3,0.6,1.3,1.3
	C547.7,665,547.3,671.3,546.4,677.5z M563,693v-2.3v-1.4c0-0.3,0-0.5,0.1-0.8c0.2-0.5,0.5-0.8,0.9-1.1c0.6-0.4,1.2-0.6,1.9-0.6h1.2
	h2.3h4.6l9.1,0.1c0.7,0,1.3,0.6,1.3,1.3c0.1,6.3-0.3,12.6-1.2,18.8c-6.3,0.8-12.6,1.2-18.9,1.1c-0.7,0-1.3-0.6-1.3-1.3l-0.1-9.2V693
	z M583.3,736.4c-6.3,0.8-12.6,1.2-18.9,1.1c-0.7,0-1.3-0.6-1.3-1.3L563,727v-4.6v-2.3v-1.4c0-0.3,0-0.5,0.1-0.8
	c0.2-0.5,0.5-0.8,0.9-1.1c0.6-0.4,1.2-0.6,1.9-0.6h1.2h2.3h4.6l9.1,0.1c0.7,0,1.3,0.6,1.3,1.3C584.5,723.9,584.1,730.1,583.3,736.4z
	 M583.3,677.5c-6.3,0.8-12.6,1.2-18.9,1.1c-0.7,0-1.3-0.6-1.3-1.3l-0.1-9.1v-4.6v-2.3v-1.4c0-0.3,0-0.5,0.1-0.8
	c0.2-0.5,0.5-0.8,0.9-1.1c0.6-0.4,1.2-0.6,1.9-0.6h1.2h2.3h4.6l9.1,0.1c0.7,0,1.3,0.6,1.3,1.3C584.5,665,584.1,671.3,583.3,677.5z"
	/>
<title>jetpack-generatingCash-2</title>
<path class="st1" d="M876.9,732.7c-1.1,0.1-2.2,0.2-3.3,0.2c-41,0-90.4-64.7-131.2-135.9l1,13l1.9,26.5l18.3,73.2l11.3,45.9l4.9,0
	c1.6,0,2.9,1.3,2.9,2.9c0.1,15.7-0.3,31.4-0.5,46.9c-0.1,7.8-0.5,15.5-0.8,23.1l-0.6,11.2l-0.6,8.8l97.9,0.1
	C876.7,807.6,876,765,876.9,732.7z"/>
<path class="st1" d="M898.9,330L897,332c0.7-0.2,1.4-0.3,2-0.4L898.9,330z"/>
<g>
	<path class="st2" d="M708.5,576.2c-0.1-1.3-1.6-2.3-3.5-2.3H549.3l1.1,45.1l-0.1,4.8h155.9c1.2,0,2.4-0.3,3.4-1
		c0.8-0.5,1.3-1.4,1.3-2.3L708.5,576.2z"/>
	<path class="st2" d="M524,573.9h-45.4l-2.6,45.1l0,4.8h45.5c1.2,0,2.4-0.3,3.4-1c0.8-0.5,1.3-1.4,1.3-2.3l1.3-44.4
		C527.5,574.9,525.9,573.9,524,573.9z"/>
</g>
<path class="st3" d="M462.3,173.7l13-0.1l4.2,12.5c0.4,1.2,1.7,1.8,2.8,1.4c0.7-0.2,1.2-0.8,1.4-1.4l4.1-12.5l12.6-0.1
	c1.2,0,2.3-1,2.3-2.2c0-0.8-0.4-1.5-1-1.9l-10.2-6.9l4.4-13.2c0.4-1.2-0.2-2.5-1.4-2.8c-0.7-0.2-1.5-0.1-2.1,0.3l-11,8.3l-11-8.2
	c-1-0.7-2.4-0.5-3.2,0.4c-0.4,0.6-0.6,1.4-0.3,2.1l4.4,12.9l-10.4,7.3c-1,0.7-1.3,2.1-0.6,3.1C460.8,173.3,461.5,173.7,462.3,173.7z
	"/>
<circle class="st4" cx="573.7" cy="146.2" r="12"/>
<path class="st3" d="M622.3,69.6l4.2,9l0.8-0.4c1.6-3.3,0.3-5.3-0.4-7.5c-0.3-1-0.7-1.9-1.1-2.9C624.7,68.5,623.5,69.1,622.3,69.6
	C622.3,69.6,622.3,69.6,622.3,69.6z"/>
<path class="st3" d="M614.7,53.3l4.2,9c0,0,0,0,0,0c1.2-0.6,2.4-1.1,3.6-1.5c-0.5-0.9-1-1.8-1.6-2.7c-1.2-2-2-4.2-5.5-5.1l-1.6,0.7
	c-1.6,3.3-0.3,5.3,0.4,7.5c0.3,1,0.7,1.9,1.1,2.9c1.1-0.6,2.3-1.2,3.5-1.8L614.7,53.3z"/>
<path class="st3" d="M618.8,71.2c0.5,0.9,1,1.8,1.5,2.7c1.2,2,2,4.2,5.5,5.1l0.8-0.4l-4.2-9C621.1,70.2,620,70.7,618.8,71.2z"/>
<path class="st3" d="M615.9,72.2c1-0.3,1.9-0.7,2.9-1.1c-0.6-1.1-1.2-2.3-1.8-3.5l-9,4.2l9-4.2c0,0,0,0,0,0
	c-0.6-1.2-1.1-2.4-1.5-3.6c-0.9,0.5-1.8,1-2.7,1.5c-2,1.2-4.2,2-5.1,5.5l0.7,1.6C611.6,74.2,613.6,73,615.9,72.2z"/>
<path class="st3" d="M624.3,64.2l9-4.2L624.3,64.2c0.6,1.2,1.1,2.4,1.5,3.6c0.9-0.5,1.8-1,2.7-1.6c2-1.2,4.2-2,5.1-5.5l-0.7-1.6
	c-3.3-1.6-5.3-0.3-7.5,0.4c-1,0.3-1.9,0.7-2.9,1.1C623.1,61.9,623.7,63,624.3,64.2C624.3,64.2,624.3,64.2,624.3,64.2z"/>
<path class="st3" d="M620.6,66l-3.7,1.7c0.6,1.2,1.2,2.3,1.8,3.5c1.2-0.5,2.4-1,3.6-1.5L620.6,66z"/>
<path class="st3" d="M617,67.7l3.7-1.7l-1.7-3.7c-1.2,0.6-2.3,1.2-3.5,1.8C615.9,65.3,616.4,66.5,617,67.7
	C617,67.7,617,67.7,617,67.7z"/>
<path class="st3" d="M618.9,62.3l1.7,3.7l3.7-1.7c0,0,0,0,0,0c-0.6-1.2-1.2-2.3-1.8-3.5C621.3,61.2,620.1,61.7,618.9,62.3
	C618.9,62.3,618.9,62.3,618.9,62.3z"/>
<path class="st3" d="M620.6,66l1.7,3.7c0,0,0,0,0,0c1.2-0.6,2.3-1.2,3.5-1.8c-0.5-1.2-1-2.4-1.5-3.6L620.6,66z"/>
<path class="st5" d="M431.9,190.5c4.8,0.9,9.6,2.3,14.1,4.2c4.5,1.8,8.6,4.3,12.2,7.4c3.3,3.1,5.8,7.1,8.2,11.7
	c1.3,2.5,2.8,4.9,4.5,7.1c2,2.5,4.5,4.5,7.4,5.9c5.6,2.8,12,2.8,17.4,2.1s10.4-1.7,14.7-1.5s8.3,2.2,12.6,5.4l1.4-1
	c-2-5.7-7-9.9-13-11c-6-1-11.5,0.2-16.4,0.6s-9.4,0.2-13.1-1.8c-3.6-1.7-5.9-5.4-8.5-9.8s-5.6-9.6-10.1-13.5
	c-8.9-6.9-19.6-11-30.8-11.8c-5.5-0.2-11.3,0.6-16.1,3.4l0.5,1.6C422,189.2,427,189.6,431.9,190.5z"/>
<path class="st3" d="M502,115.5h7.7l2.5,7.7c0.1,0.4,0.5,0.7,0.9,0.9c0.7,0.2,1.5-0.2,1.7-0.9l2.6-7.6h8c0.5,0,0.9-0.2,1.2-0.6
	c0.4-0.6,0.3-1.5-0.4-1.9l-6.4-4.4l2.7-7.8c0.1-0.4,0.1-0.9-0.2-1.3c-0.5-0.6-1.3-0.7-1.9-0.3l-6.8,5l-6.7-5.1
	c-0.4-0.3-0.8-0.4-1.3-0.2c-0.7,0.2-1.1,1-0.9,1.7l2.7,8.1l-6.2,4.2c-0.4,0.3-0.6,0.7-0.6,1.1C500.6,114.9,501.2,115.5,502,115.5z"
	/>
<path class="st4" d="M553.5,20.2c-1,3.7-1.4,8.6,0.2,13c0.8,2.3,2.2,4.4,3.9,6.1c1.5,1.4,3.1,2.7,4.9,3.8c2.8,1.7,5.3,3.8,7.4,6.3
	c1.9,2.6,3.3,5.6,4.3,8.7c1,3.2,1.7,6.5,2.1,9.9c0.5,3.4,0.6,6.9,0.4,10.4l1.6,0.7c2.5-3.2,4-7.1,4.1-11.2c0.2-4-0.2-8-1.3-11.8
	c-1-4-2.7-7.8-4.9-11.2c-2.5-3.6-6-6.2-9-8.3s-5.1-3.8-5.9-6c-1-2.5-0.9-5.3-0.4-8.7s1.8-7.2,1.4-11.8c-0.2-2.3-1.1-4.5-2.5-6.3
	c-1.3-1.7-3.1-3-5.1-3.7l-1.1,1.3c1.6,3.6,2.4,6.2,2.1,9C555.5,13.1,554.5,16.5,553.5,20.2z"/>
<path class="st6" d="M1277.2,849.3c0,0,0-0.1,0-0.1c-18.6-57.3-40.3-93.8-55-143.4c-0.8-2.7-1.6-5.4-2.3-8.2c-0.3-1.2-0.6-2.4-1-3.6
	c-0.4-1.5-0.8-3.1-1.2-4.6c-29.6-118,18.1-152.1-68.5-283.7c-1.4-2.1-2.8-4.2-4.2-6.3c-2.8,2.3-5.7,4.5-8.8,6.4
	c-4.1,2.5-8.4,4.6-12.9,6.3c-36.6,13.6-82.7-2.2-116.7-39c-7.2-7.8-13.8-16.4-19.7-26c-5.9-9.6-10.7-19.4-14.4-29.3
	c-18.1,2.2-38,6.3-60,12.5c19.5,0.4,43.3,13.2,53.1,69.6c0.2,0.9,0.3,1.8,0.5,2.7c16.1,99.3-22.8,312.3-82.6,328.9
	c-2.1,0.6-4.3,1-6.6,1.2c-0.9,32.3-0.3,74.9,1.3,116"/>
<path class="st3" d="M637.6,282.5c1.1,0.1,2.3,0.3,3.5,0.5l-20.5-58.3l0,0l-0.2-0.4l76.6-26.9l6.4,18.2l0,0l39.8,113.1l-31.9,11.2
	c7.3,8.4,14.3,17.3,21.1,26.1l19.3-6.8c8.5-3,12.9-12.2,9.9-20.7l-52.9-150.3c-3-8.5-12.2-12.9-20.7-9.9l-72.5,25.5
	c-8.5,3-12.9,12.2-9.9,20.7l21.1,60C629.8,282.9,633.5,282.2,637.6,282.5z"/>
<path class="st3" d="M677.3,385.2c-2-11.1-3.1-23.6-0.5-33.2l-10.2,3.6l-18.1-51.4c-4.7-2.9-8.9-4.6-12.2-4.8c-0.2,0-0.4,0-0.6,0
	l0,0c-0.9-0.1-1.9,0.2-2.4,1c-0.2,0.3-0.4,0.6-0.6,0.9l25.8,73.5C661.1,382.6,669.3,387,677.3,385.2z"/>
<path class="st3" d="M715.5,371.9c-0.1-0.1-0.2-0.2-0.3-0.3c0.1,0.1,0.1,0.3,0.2,0.4L715.5,371.9z"/>
<path class="st3" d="M644.5,292.8L641,283c-1.2-0.2-2.3-0.4-3.5-0.5c-4.1-0.3-7.8,0.3-11,1.9l2.8,8.1
	C633.3,290.2,638.4,290.5,644.5,292.8z"/>
<path class="st3" d="M702.6,342.9c7.2,8.3,14.4,17.1,21.3,26l8.4-3c-6.7-8.8-13.8-17.6-21.1-26.1L702.6,342.9z"/>
<path class="st3" d="M715.2,371.5c0.1,0.1,0.2,0.2,0.3,0.3l8.4-3c-6.9-8.9-14.1-17.7-21.3-26l-2.7,1
	C703.7,348.2,708.8,356.3,715.2,371.5z"/>
<path class="st3" d="M633.2,300.4c0.6-0.8,1.5-1.1,2.4-1l0,0c0.2,0,0.4,0,0.6,0c3.3,0.3,7.5,2,12.2,4.8l-4-11.4
	c-6.1-2.4-11.2-2.7-15-0.3l3.1,8.7C632.7,301,633,300.6,633.2,300.4z"/>
<path class="st0" d="M635.9,537.6l-0.1,14.3h25.7c-0.4-5.3-0.8-10.5-1-15.5c-3,0.2-5.9,0.5-8.9,0.7
	C646.3,537.5,641.1,537.6,635.9,537.6z"/>
<path class="st0" d="M500.2,660.2h-4.6h-2.3h-1.1c0,0,0,0-0.1,0v1v2.3v4.6l-0.1,7.8c5.7,0.1,11.4,0.4,17,1.1
	c-0.7-5.6-1-11.3-1.1-16.9L500.2,660.2z"/>
<path class="st0" d="M537.1,660.2h-4.6h-2.3h-1.1c0,0,0,0-0.1,0v1v2.3v4.6l-0.1,7.8c5.7,0.1,11.4,0.4,17,1.1l0,0
	c-0.7-5.6-1.1-11.3-1.1-16.9L537.1,660.2z"/>
<path class="st0" d="M573.9,660.2h-4.6H567H566c0,0,0,0-0.1,0v1v2.3v4.6l-0.1,7.8c5.7,0.1,11.4,0.4,17,1.1c-0.7-5.6-1-11.3-1.1-16.9
	L573.9,660.2z"/>
<path class="st0" d="M610.8,660.2h-4.6h-2.3h-1.1c0,0,0,0-0.1,0v1v2.3v4.6l-0.1,7.8c5.7,0.1,11.4,0.4,17,1.1
	c-0.7-5.6-1-11.3-1.1-16.9L610.8,660.2z"/>
<path class="st0" d="M647.6,660.2H643h-2.3h-1.1c0,0,0,0-0.1,0v1v2.3v4.6l-0.1,7.8c5.7,0.1,11.4,0.4,17,1.1
	c-0.7-5.6-1-11.3-1.1-16.9L647.6,660.2z"/>
<path class="st0" d="M684.5,660.2h-4.6h-2.3h-1.1c0,0,0,0-0.1,0v1v2.3v4.6l-0.1,7.8c5.7,0.1,11.4,0.4,17,1.1
	c-0.7-5.6-1-11.3-1.1-16.9L684.5,660.2z"/>
<path class="st0" d="M500.2,689.6h-4.6h-2.3h-1.1c0,0,0,0-0.1,0v1v2.3v4.6l-0.1,7.8c5.7,0.1,11.4,0.5,17,1.2l0,0
	c-0.7-5.6-1.1-11.3-1.1-16.9L500.2,689.6z"/>
<path class="st0" d="M537.1,689.6h-4.6h-2.3h-1.1c0,0,0,0-0.1,0v1v2.3v4.6l-0.1,7.8c5.7,0.1,11.4,0.5,17,1.2l0,0
	c-0.7-5.6-1.1-11.3-1.1-16.9L537.1,689.6z"/>
<path class="st0" d="M582.8,706.5c-0.7-5.6-1.1-11.3-1.1-16.9l-7.8,0.1h-4.6H567H566c0,0,0,0-0.1,0v1v2.3v4.6l-0.1,7.8
	C571.5,705.4,577.2,705.8,582.8,706.5L582.8,706.5z"/>
<path class="st0" d="M618.6,689.6l-7.8,0.1h-4.6h-2.3h-1.1c0,0,0,0-0.1,0v1v2.3v4.6l-0.1,7.8c5.7,0.1,11.4,0.5,17,1.2l0,0
	C619,700.9,618.6,695.2,618.6,689.6z"/>
<path class="st0" d="M655.4,689.6l-7.8,0.1H643h-2.3h-1.1c0,0,0,0-0.1,0v1v2.3v4.6l-0.1,7.8c5.7,0.1,11.4,0.5,17.1,1.2l0,0
	C655.8,700.9,655.5,695.2,655.4,689.6z"/>
<path class="st0" d="M684.5,689.6h-4.6h-2.3h-1.1c0,0,0,0-0.1,0v1v2.3v4.6l-0.1,7.8c5.7,0.1,11.4,0.5,17,1.2l0,0
	c-0.7-5.6-1.1-11.3-1.1-16.9L684.5,689.6z"/>
<path class="st0" d="M500.2,719.1h-4.6h-2.3h-1.1c0,0,0,0-0.1,0v1v2.3v4.6l-0.1,7.8c5.7,0.1,11.4,0.4,17,1.2l0,0
	c-0.7-5.6-1.1-11.3-1.1-16.9L500.2,719.1z"/>
<path class="st0" d="M537.1,719.1h-4.6h-2.3h-1.1c0,0,0,0-0.1,0v1v2.3v4.6l-0.1,7.8c5.7,0.1,11.4,0.4,17,1.2l0,0
	c-0.7-5.6-1.1-11.3-1.1-16.9L537.1,719.1z"/>
<path class="st0" d="M573.9,719.1h-4.6H567H566c0,0,0,0-0.1,0v1v2.3v4.6l-0.1,7.8c5.7,0.1,11.4,0.4,17,1.2
	c-0.7-5.6-1.1-11.3-1.1-16.9L573.9,719.1z"/>
<path class="st0" d="M610.8,719.1h-4.6h-2.3h-1.1c0,0,0,0-0.1,0v1v2.3v4.6l-0.1,7.8c5.7,0.1,11.4,0.4,17,1.2
	c-0.7-5.6-1.1-11.3-1.1-16.9L610.8,719.1z"/>
<path class="st0" d="M647.6,719.1H643h-2.3h-1.1c0,0,0,0-0.1,0v1v2.3v4.6l-0.1,7.8c5.7,0.1,11.4,0.4,17,1.2
	c-0.7-5.6-1.1-11.3-1.1-16.9L647.6,719.1z"/>
<path class="st0" d="M684.5,719.1h-4.6h-2.3h-1.1c0,0,0,0-0.1,0v1v2.3v4.6l-0.1,7.8c5.7,0.1,11.4,0.4,17,1.2l0,0
	c-0.7-5.6-1.1-11.3-1.1-16.9L684.5,719.1z"/>
<path class="st0" d="M779,850.2l-0.6-10.7l-0.5-11.7c-0.2-7.7-0.5-15.3-0.6-22.8c0-3.5,0-7-0.1-10.5c0-0.9,0-1.7,0-2.6
	c0-1.1,0-2.2,0-3.3c0-2.2,0-4.4,0-6.6c0-2.8,0-5.7,0-8.5c0-2.9,0-5.7,0.1-8.6c0-0.7,0-1.4,0-2l-0.5,0l-2.2,0l-2.2,0l-180.1-1.8
	L413.9,759l-2.8,0l-2.9,0l-1.7,0c0,2.3-0.1,4.6-0.1,6.9c-0.1,3.9-0.1,7.8-0.2,11.7c-0.1,4-0.1,8-0.2,12c0,1.3,0,2.7-0.1,4
	c-0.3,17.8-0.7,35.6-1.1,53.5c0,0.2,0,0.3,0,0.5l374,3.7l0.4,0L779,850.2z M527.1,798.3C527.1,798.3,527.1,798.3,527.1,798.3l0.1,0
	c10.8-0.3,21.6-0.5,32.4-0.4l32.4,0.1l32.4,0.5c10.8,0.1,21.6,0.5,32.4,0.8l0.1,0c1,0,1.8,0.9,1.7,1.9c0,0,0,0,0,0
	c-0.1,3.1-0.2,6.1-0.4,9.2c0,0.9-0.1,1.7-0.1,2.6c0,0.9-0.1,1.7-0.1,2.6c-0.2,3.1-0.3,6.1-0.5,9.2c-0.1,0.5-0.5,0.9-1,0.8
	c-0.4,0-0.8-0.4-0.8-0.8c-0.1-3.1-0.2-6.1-0.3-9.2c0-0.9-0.1-1.8-0.1-2.6c0-0.9,0-1.7-0.1-2.6c-0.1-2.4-0.1-4.9-0.2-7.3
	c-10.2,0.1-20.4,0.2-30.6,0.2l-32.4-0.1l-32.4-0.5c-10.3-0.1-20.5-0.5-30.8-0.9c-0.1,2.4-0.3,4.9-0.4,7.3c-0.1,0.9-0.1,1.8-0.2,2.7
	c-0.1,0.9-0.1,1.8-0.2,2.8c-0.2,2-0.3,3.9-0.5,5.9c0,0.3-0.3,0.4-0.5,0.4c-0.2,0-0.4-0.2-0.4-0.4l0,0c-0.2-2-0.3-3.9-0.4-5.9
	c-0.1-0.9-0.1-1.8-0.2-2.8c0-0.9-0.1-1.8-0.1-2.8c-0.1-3-0.3-6-0.4-9.1C525.5,799,526.2,798.3,527.1,798.3z"/>
<path class="st0" d="M615,528.5c0.5,1.4,1.5,2.5,2.9,3c0.3,0.1,0.7,0.2,1,0.3c0.2,0,0.4,0,0.5,0h0.9h3.5c2.4,0,4.7,0,7.1,0.1
	c0.9,0,1.7,0,2.6,0c0.8,0,1.7,0,2.5,0c5.2,0,10.4,0.1,15.6,0.4c2.9,0.2,5.8,0.4,8.8,0.7c0.7,0.1,1.4,0.1,2.1,0.2
	c0.7,0.1,1.4,0.1,2.1,0.2c5,0.4,9.9,0.8,14.9,0.8v0c2.1,0,4.1-1,5.4-2.8c0.6-0.8,1-1.8,1.1-2.8c0.1-1.1,0-2.1-0.1-3.2l-1.1-13.9
	c-0.2-2.3-0.3-4.6-0.3-6.9c-0.2-2.2,0.1-5.1-0.4-6.1c-0.5-1.4-1.6-2.5-3-3c-0.3-0.1-0.7-0.2-1.1-0.2c-0.2,0-0.4,0-0.6,0h-0.9H675
	l-55.6,0.4c-1.4,0-2.7,0.6-3.6,1.7c-0.4,0.5-0.7,1.1-0.9,1.8c-0.1,0.9-0.2,1.8-0.1,2.7l-0.1,13.9v7
	C614.8,524.7,614.6,527.7,615,528.5z"/>
<polygon class="st0" points="668.5,285.9 682.7,281.1 680.4,274.6 666.3,279.7 "/>
<path class="st0" d="M653.7,272.9c-0.5,0.2-1.1,0.2-1.5,0c1.2,2.5,2.3,4.7,3.3,6.9c2.2-0.9,4.4-1.7,6.6-2.5c0.2-0.2,0.4-0.4,0.7-0.6
	c0,0,0.1,0,0.2-0.1l6.6-2.3l-2.2-6.4L653.7,272.9z"/>
<polygon class="st0" points="667.4,263.9 665.1,257.5 652.1,262.1 654.3,268.3 "/>
<path class="st0" d="M692.2,255.6c-0.6-1.3-1.2-2.5-1.8-3.7l1.2,3.5C691.8,255.5,692,255.6,692.2,255.6z"/>
<path class="st0" d="M644.5,292.8l4,11.4l18.1,51.4l10.2-3.6c1.1-4.3,3-8.1,5.9-10.7c1.3-1.3,3-2.1,4.7-2.5c1.5-0.4,3.1-0.4,4.6,0
	c1.4,0.3,4,0.9,7.9,5.2l2.7-1l8.7-3l31.9-11.2l-39.8-113.1l-76.6,26.9l-6.2-17.8l0,0L641,283L644.5,292.8z M685.3,312.3
	c2.1-0.8,4.2-1.6,6.3-2.5c2.6-1,5.2-1.8,7.8-2.7s5.2-1.9,8.2-1.6l0.3,0.7c-2.1,2.1-4.8,3-7.3,4s-5.1,2-7.7,3
	c-1.6,0.6-3.2,1.2-4.8,1.7c-1,0.3-2,0.6-3,1c-2.1,0.7-4.2,1.5-6.6,1.6c-0.5,0-1.1,0-1.6,0l-0.1-0.4l-0.1-0.4
	c0.2-0.2,0.4-0.3,0.6-0.5c2-1.8,4.4-2.6,6.8-3.5C684.4,312.7,684.8,312.5,685.3,312.3z M688,324.9c-0.5,0.2-1.1,0.3-1.6,0.5
	c-2.1,0.7-4.2,1.3-6.6,1.1l-0.3-0.7c1.3-1.3,2.8-2.2,4.4-2.8c1-0.4,1.9-0.8,2.9-1.2c1.9-0.7,3.8-1.5,5.7-2.2c0.7-0.3,1.3-0.5,2-0.8
	c2.6-1,5.2-1.8,7.8-2.7s5.2-1.9,8.2-1.6l0.1,0.4l0.1,0.4c-2.1,2.1-4.8,3-7.3,4s-5.1,2-7.7,3c-0.1,0.1-0.3,0.1-0.4,0.2
	C693,323.4,690.5,324.2,688,324.9z M713.6,295.4c-2.9,2.1-6.3,3.2-9.5,4.5l-9.8,3.7l-9.9,3.4c-1.2,0.4-2.4,0.8-3.6,1.2
	c-2.1,0.7-4.3,1.2-6.6,1.4l-0.1-0.3l-0.1-0.3c1.5-1.1,3.1-1.9,4.8-2.6c1.6-0.7,3.1-1.2,4.7-1.9l9.8-3.7l9.9-3.4
	c3.3-1.1,6.6-2.3,10.2-2.6L713.6,295.4z M648.8,259.1C648.8,259.1,648.8,259.1,648.8,259.1l20.1-7c6.7-2.3,13.4-4.7,20.2-6.7h0.2
	c0.8-0.2,1.6,0.2,1.8,1c0,0,0,0,0,0c1.1,3.8,2,7.5,2.6,10.8l0.1,0.3c-0.1,0-0.2,0.1-0.3,0.1l2.6,7.5c2.4-0.8,4.7-1.5,7.1-2.2h0.2
	c0.8-0.2,1.6,0.2,1.8,1c0,0,0,0,0,0c1.1,3.8,2,7.5,2.6,10.8l0.1,0.4c-3,1.5-6,2.8-9.2,3.9l-10.2,3.8l-20.7,7.6
	c-1,0.4-2.2-0.1-2.6-1.2c0,0,0,0,0-0.1l-3-8.4c-2.3,0.8-4.7,1.5-7.1,2.2h-0.2c-0.8,0.2-1.6-0.2-1.8-1c0,0,0,0,0,0
	c-1.1-3.8-2-7.5-2.6-10.8l-0.1-0.3c0.1,0,0.2-0.1,0.3-0.1l-3.2-9.1C647.2,260.6,647.8,259.5,648.8,259.1z"/>
<polygon class="st7" points="703.4,215.6 703.4,215.6 697,197.4 620.4,224.3 620.5,224.7 697.2,197.8 "/>
<rect x="621.4" y="210.7" transform="matrix(0.9434 -0.3317 0.3317 0.9434 -35.5405 232.0163)" class="st7" width="81.2" height="18.8"/>
<g>
	<path class="st8" d="M964.2,247.4c-13-3.8-24.2-11.1-33.4-20.6c-15.5-16-25.2-38.2-27.7-59.8c-1.2-10-0.9-20,1.1-29.1
		c-42.7-2.9-64.3-47.2-65.6-93.3c-11.9,9.7-20.4,22.9-23.2,39.8c-4.3,26.2-18.8,40.8-29.4,51.4c-7.6,7.6-12.2,12.6-12.5,18
		c-0.2,3.4,4.1,6.2,11.1,10.5c7.7,4.7,16.4,10.1,18.8,20.2c2.1,8.8,4.9,16.9,8.5,24.5c4.5-3.1,10-8,13-14.9
		c1.8-4.3,6.8-6.3,11.1-4.4c4.3,1.8,6.3,6.8,4.4,11.1c-4.8,11.3-13.7,18.7-20.3,23.1c16.8,25.4,42.7,41.4,74.4,44.9
		c2.5,0.3,5,0.5,7.6,0.6c13.4,0.7,18.7,0.7,30.2-2.3c0.5-0.1,1-0.2,1.6-0.2c4-0.2,7.7,2.5,8.6,6.5c0.1,0.3,0.1,0.7,0.2,1
		c0.3,0.5,0.6,1,0.8,1.6l1.8,5.2l-4.9,4.7L898.9,330l0.1,1.6c3.4-0.7,6.9-1.1,10.6-1.3c0.9,0,1.9-0.1,2.8,0
		c22-6.2,41.8-10.3,60-12.5C963.4,293.6,960.8,269.1,964.2,247.4z M832.6,137.5c0,4.2-3.4,7.6-7.6,7.6h0c-4.2,0-7.6-3.4-7.6-7.6
		v-12.8c0-4.2,3.4-7.6,7.6-7.6h0c4.2,0,7.6,3.4,7.6,7.6V137.5z"/>
	<path class="st8" d="M1320.2,604.1c-20.6-54.2-109.8-169.1-167.9-212c-2.3,2.6-4.8,5-7.4,7.2c1.4,2.1,2.8,4.2,4.2,6.3
		c86.6,131.6,38.9,165.7,68.5,283.7c37.2-12.1,86.7-33.3,100.9-59.8C1323,621.2,1323.5,612.8,1320.2,604.1z"/>
	<path class="st8" d="M948.4,399.8c-4.8-25.9-14.9-53.9-38-52.7c-3.5,0.2-6.9,0.7-10.1,1.5c-2.6,0.6-5.2,1.5-7.6,2.5
		c-70.6,28.9-77.4,203.5-77.5,205.4c-0.2,4.7-3.9,8.8-8.7,8.2c-4.7-0.2-8.3-4.1-8.2-8.7c0,0,0,0,0,0c1-22.4,3.4-44.7,7.1-66.9
		c-3.8-2.8-30.3-23.7-51.3-60.6c-10.1-17.8-23.9-37.8-38.6-56.6l-0.1,0c0.2,0.4,0.3,0.8,0.5,1.2c1.8,4.3-0.3,9.3-4.6,11
		c-2.5,1.1-5.3,0.8-7.5-0.5c-1.5-0.9-2.8-2.3-3.5-4.1c-0.3-0.7-0.6-1.3-0.9-2c-2.2-5.1-4.6-10.1-7.2-14.9c-0.1,4.6,0.4,10.5,1.5,17
		c0.8,5,1.9,10.3,3.3,15.7c0.6,2.5,1.3,5,2.1,7.5c1.4,4.5-1.1,9.2-5.6,10.6c-0.8,0.2-1.6,0.4-2.5,0.4l0,0.1c-3.7,0-7-2.4-8.1-6
		c-1.4-4.5-3.8-13-5.6-22.6c-7.9,1.8-16.1-2.6-18.9-10.4l-25.8-73.5c-4.3,6.6-4.7,20.6-0.8,37.8c7.6,34.3,28.7,71.6,45.1,79.8
		c2.1,1,3.6,2.9,4.3,5.1c24.5,78.8,137.2,304.5,196.5,291.5c0.4-0.1,0.9-0.2,1.3-0.3c43.1-12,87.2-206.1,70.4-309.9
		C949.1,403.4,948.7,401.7,948.4,399.8z"/>
</g>
<g>
	<path class="st9" d="M1336,598.1c-18.4-48.3-107.5-170.8-174.1-219.3c19.9-34.7,16.8-87-11.5-132.8c-9.6-15.7-21.9-29.7-36.2-41.4
		c-12.3-9.8-20.5-23.9-22.9-39.4c-3.3-21.6-10.8-42.6-21.1-57.5c-14.3-20.7-38.8-36.7-64.3-43.3c-23.2-41.2-44.2-47.3-73.4-56
		c-48-14.4-92.9,12.8-92.9,12.8c-0.1,0.7-0.2,1.4-0.2,2.1c-21.8,13.3-36.6,33.5-40.7,58.2c-3.4,20.9-14.7,32.2-24.7,42.2
		c-8.6,8.7-16.8,16.9-17.4,29.1c-0.6,13.6,10.8,20.6,19.1,25.8c5.1,3.2,10.5,6.4,11.2,9.7c3.1,13.1,7.7,25.1,13.6,35.9
		c0.2,0.3,0.4,0.7,0.6,1c17.2,30.9,45.1,51.5,79.9,58.5l11.5,49.5C844,348,820.3,413.7,808.9,470c-15.9-14.4-29.4-31.2-40.1-49.8
		c-8.6-15.1-21.6-34.6-36.5-54.2l-8.4,3l-8.4,3c14.7,18.8,28.5,38.8,38.6,56.6c20.9,36.8,47.5,57.7,51.3,60.6
		c-3.7,22.1-6,44.4-7.1,66.9c0,0,0,0,0,0c-0.2,4.7,3.5,8.6,8.2,8.7c4.8,0.6,8.6-3.5,8.7-8.2c0.1-1.9,6.9-176.5,77.5-205.4
		c2.5-1,5-1.8,7.6-2.5c3.3-0.8,6.6-1.3,10.1-1.5c23.1-1.2,33.2,26.9,38,52.7c0.3,1.8,0.6,3.6,0.9,5.4
		c16.8,103.9-27.3,297.9-70.4,309.9c-0.4,0.1-0.9,0.2-1.3,0.3c-59.4,12.9-172-212.7-196.5-291.5c-0.7-2.2-2.2-4-4.3-5.1
		c-16.4-8.2-37.4-45.5-45.1-79.8c-3.8-17.2-3.5-31.1,0.8-37.8l-3.1-8.7l-2.8-8.1c-2.6,1.3-4.8,3.1-6.7,5.5
		c-10.6,13.4-8.4,36.2-4.7,52.9c7.4,33.2,28.5,75.4,50.7,89.4c8.5,25.9,28.5,73.9,54.4,124c0.9,1.7,1.7,3.3,2.6,5
		c1.3,2.5,2.7,5.1,4,7.7c2.6,4.8,5.2,9.6,7.8,14.4c1.5,2.7,3,5.4,4.5,8.1c1,1.9,2.1,3.7,3.2,5.6c40.8,71.2,90.2,135.9,131.2,135.9
		c1.1,0,2.2-0.1,3.3-0.2c2.2-0.2,4.4-0.6,6.6-1.2c59.8-16.6,98.7-229.7,82.6-328.9c-0.1-0.9-0.3-1.8-0.5-2.7
		c-9.8-56.4-33.7-69.2-53.1-69.6c-1,0-1.9,0-2.8,0c-3.6,0.2-7.2,0.6-10.6,1.3c-0.7,0.1-1.4,0.3-2,0.4l1.9-2.1l41.4-44.2l4.9-4.7
		l-1.8-5.2c-0.2-0.6-0.5-1.1-0.8-1.6c0-0.3-0.1-0.7-0.2-1c-0.9-4-4.6-6.7-8.6-6.5c-0.5,0-1,0.1-1.6,0.2c-11.5,3-16.8,3-30.2,2.3
		c-2.6-0.1-5.1-0.3-7.6-0.6c-31.7-3.5-57.6-19.5-74.4-44.9c6.7-4.3,15.5-11.8,20.3-23.1c1.8-4.3-0.2-9.3-4.4-11.1
		c-4.3-1.8-9.3,0.2-11.1,4.4c-3,6.9-8.5,11.8-13,14.9c-3.5-7.6-6.4-15.8-8.5-24.5c-2.4-10.1-11.1-15.4-18.8-20.2
		c-7-4.3-11.2-7.2-11.1-10.5c0.3-5.4,4.9-10.4,12.5-18c10.6-10.6,25.1-25.2,29.4-51.4c2.8-16.9,11.4-30,23.2-39.8
		c1.3,46.1,22.8,90.4,65.6,93.3c-2,9.2-2.3,19.1-1.1,29.1c2.6,21.7,12.2,43.8,27.7,59.8c9.2,9.5,20.4,16.8,33.4,20.6
		c-3.4,21.7-0.8,46.2,8.3,70.3c3.7,9.9,8.5,19.7,14.4,29.3c5.9,9.5,12.5,18.2,19.7,26c34,36.8,80.1,52.7,116.7,39
		c4.4-1.7,8.7-3.7,12.9-6.3c3.1-1.9,6.1-4.1,8.8-6.4c2.6-2.2,5.1-4.7,7.4-7.2c58.1,42.9,147.3,157.8,167.9,212
		c3.3,8.7,2.8,17-1.7,25.4c-14.1,26.5-63.7,47.7-100.9,59.8c0.4,1.5,0.8,3,1.2,4.6c0.3,1.2,0.6,2.4,1,3.6c0.8,2.8,1.5,5.5,2.3,8.2
		c36.8-11.8,93.4-34.8,111.3-68.2C1340.2,624.7,1341.1,611.5,1336,598.1z"/>
	<path class="st9" d="M825.1,117.2c-4.2,0-7.6,3.4-7.6,7.6v12.8c0,4.2,3.4,7.6,7.6,7.6h0c4.2,0,7.6-3.4,7.6-7.6v-12.8
		C832.6,120.6,829.2,117.2,825.1,117.2L825.1,117.2z"/>
	<path class="st9" d="M682.8,407.8c1.1,3.6,4.4,6,8.1,6l0-0.1c0.8,0,1.7-0.1,2.5-0.4c4.5-1.4,7-6.1,5.6-10.6c-0.8-2.5-1.5-5-2.1-7.5
		c-1.4-5.4-2.5-10.7-3.3-15.7c-1-6.5-1.5-12.4-1.5-17c2.6,4.9,5.1,9.8,7.2,14.9c0.3,0.7,0.6,1.3,0.9,2c0.7,1.8,2,3.2,3.5,4.1
		c2.2,1.3,5,1.6,7.5,0.5c4.3-1.8,6.4-6.7,4.6-11c-0.2-0.4-0.3-0.8-0.5-1.2c-0.1-0.1-0.1-0.3-0.2-0.4c-6.4-15.3-11.5-23.3-15.4-27.6
		c-3.8-4.3-6.4-4.9-7.9-5.2c-1.5-0.3-3.1-0.3-4.6,0c-1.7,0.4-3.4,1.3-4.7,2.5c-2.9,2.7-4.8,6.4-5.9,10.7c-2.5,9.6-1.5,22.1,0.5,33.2
		C679,394.8,681.4,403.3,682.8,407.8z"/>
</g>
<path class="st3" d="M694.3,303.5l9.8-3.7c3.3-1.3,6.6-2.3,9.5-4.5l-0.2-0.6c-3.6,0.2-6.9,1.5-10.2,2.6l-9.9,3.4l-9.8,3.7
	c-1.6,0.6-3.2,1.2-4.7,1.9c0.3,0.3,0.7,0.6,1,0.9l33.8-12l-33.8,12c0.3,0.3,0.7,0.6,1.1,0.9c1.2-0.4,2.4-0.8,3.6-1.2L694.3,303.5z"
	/>
<path class="st3" d="M678.7,306.3c-1.7,0.7-3.3,1.5-4.8,2.6l0.1,0.3l5.7-2C679.4,306.8,679.1,306.5,678.7,306.3z"/>
<path class="st3" d="M674,309.2l0.1,0.3c2.3-0.1,4.5-0.7,6.6-1.4c-0.4-0.3-0.7-0.6-1.1-0.9L674,309.2z"/>
<path class="st3" d="M707.8,306l-21.1,7.7c0.5,0.5,0.9,0.9,1.4,1.4c1.6-0.5,3.2-1.1,4.8-1.7c2.6-1,5.1-2,7.7-3s5.2-1.9,7.3-4
	l-0.3-0.7c-3-0.2-5.6,0.8-8.2,1.6s-5.2,1.7-7.8,2.7c-2.1,0.8-4.2,1.6-6.3,2.5c0.5,0.4,0.9,0.9,1.4,1.3L707.8,306z"/>
<path class="st3" d="M688.1,315c-0.5-0.5-0.9-0.9-1.4-1.4l-8.9,3.2c0.3,0.2,0.5,0.5,0.8,0.7c2.3-0.1,4.4-0.9,6.6-1.6
	C686.1,315.7,687.1,315.3,688.1,315z"/>
<path class="st3" d="M686.7,313.6c-0.5-0.4-0.9-0.9-1.4-1.3c-0.5,0.2-0.9,0.4-1.4,0.5c-2.3,0.9-4.7,1.7-6.8,3.5
	c0.2,0.2,0.4,0.4,0.6,0.5L686.7,313.6z"/>
<path class="st3" d="M676.7,317.2l0.1,0.4c0.6,0,1.1,0,1.6,0c-0.3-0.2-0.5-0.5-0.8-0.7L676.7,317.2z"/>
<path class="st3" d="M677.2,316.4c-0.2,0.2-0.4,0.3-0.6,0.5l0.1,0.4l1-0.4C677.5,316.7,677.4,316.5,677.2,316.4z"/>
<path class="st3" d="M710.8,314.9l-0.1-0.4c-3-0.2-5.6,0.8-8.2,1.6s-5.2,1.7-7.8,2.7c-0.7,0.3-1.3,0.5-2,0.8
	c0.5,0.5,0.9,0.9,1.4,1.4L710.8,314.9z"/>
<path class="st3" d="M695.4,322.5c0.1-0.1,0.3-0.1,0.4-0.2c2.6-1,5.1-2,7.7-3s5.2-1.9,7.3-4l-0.1-0.4L694,321
	C694.5,321.5,695,322,695.4,322.5z"/>
<path class="st3" d="M685.2,324.2l8.8-3.2c-0.5-0.5-0.9-0.9-1.4-1.4c-1.9,0.7-3.8,1.5-5.7,2.2c-1,0.4-2,0.7-2.9,1.2
	C684.4,323.4,684.8,323.8,685.2,324.2z"/>
<path class="st3" d="M695.4,322.5c-0.5-0.5-0.9-1-1.4-1.5l-8.8,3.2c0.4,0.4,0.8,0.8,1.2,1.3c0.5-0.2,1.1-0.4,1.6-0.5
	C690.5,324.2,693,323.4,695.4,322.5z"/>
<path class="st3" d="M679.7,326.2l5.5-2c-0.4-0.4-0.8-0.8-1.2-1.2c-1.6,0.7-3.1,1.5-4.4,2.8l0.3,0.7c2.4,0.2,4.5-0.4,6.6-1.1
	c-0.4-0.4-0.8-0.8-1.2-1.3L679.7,326.2z"/>
<path class="st4" d="M671.8,262.4l1.3-0.4l17.5-6.4c0.3-0.1,0.6-0.1,1-0.1l-1.2-3.5c-0.5-1.1-1-2.2-1.5-3.2
	c-6.1,2.5-12.4,4.6-18.7,6.9l-5.1,1.8l2.3,6.4L671.8,262.4z"/>
<path class="st4" d="M690.1,260.1l-17.5,5.9l-1.3,0.4l-3.9,1.4l2.2,6.4l13.5-4.7c0.1,0,0.3-0.1,0.4-0.1l8.8-3.1L690.1,260.1z"/>
<path class="st4" d="M695.8,276.8c3.4-1.2,6.9-2.2,10.4-3l0.4,0c-1.3-2.7-2.5-5.1-3.6-7.5c-2.2,0.9-4.5,1.8-6.7,2.6
	c-0.2,0.2-0.4,0.3-0.7,0.4c0,0,0,0,0,0l-12.8,4.4l-2.3,0.8l2.3,6.5l3.3-1.1L695.8,276.8z"/>
<path class="st10" d="M707.9,274.7c-0.6-3.3-1.5-7.1-2.6-10.8c0,0,0,0,0,0c-0.2-0.8-1-1.2-1.8-1h-0.2c-2.4,0.7-4.7,1.4-7.1,2.2
	l-2.6-7.5c0.1,0,0.2-0.1,0.3-0.1l-0.1-0.3c-0.6-3.3-1.5-7.1-2.6-10.8c0,0,0,0,0,0c-0.2-0.8-1-1.2-1.8-1h-0.2
	c-6.8,2-13.5,4.4-20.2,6.7l-20.1,6.9c0,0,0,0,0,0c-1,0.4-1.6,1.5-1.2,2.6l3.2,9.1c-0.1,0-0.2,0.1-0.3,0.1l0.1,0.3
	c0.6,3.3,1.5,7.1,2.6,10.8c0,0,0,0,0,0c0.2,0.8,1,1.2,1.8,1h0.2c2.4-0.7,4.7-1.4,7.1-2.2l3,8.4c0,0,0,0,0,0.1c0.4,1,1.5,1.6,2.6,1.2
	l20.7-7.6l10.2-3.8c3.1-1.1,6.2-2.4,9.2-3.9L707.9,274.7z M665.1,257.5l5.1-1.8c6.2-2.3,12.5-4.4,18.7-6.9c0.5,1.1,1,2.1,1.5,3.2
	c0.6,1.2,1.2,2.4,1.8,3.7c-0.2-0.1-0.4-0.1-0.6-0.1c-0.3,0-0.6,0-1,0.1l-17.5,6.4l-1.3,0.4l-4.5,1.5l-13.1,4.4l-2.2-6.2L665.1,257.5
	z M652.2,272.8c0.5,0.2,1,0.2,1.5,0l13.6-5l3.9-1.4l1.3-0.4l17.5-5.9l2.2,6.2l-8.8,3.1c-0.1,0-0.3,0.1-0.4,0.1l-13.5,4.7l-6.6,2.3
	c-0.1,0-0.1,0-0.2,0.1c-0.3,0.1-0.5,0.3-0.7,0.6c-2.2,0.8-4.4,1.7-6.6,2.5C654.5,277.5,653.4,275.3,652.2,272.8z M668.5,285.9
	l-2.2-6.2l14.1-5.1l2.3-0.8l12.8-4.4c0,0,0,0,0,0c0.3-0.1,0.5-0.3,0.7-0.4c2.3-0.8,4.5-1.7,6.7-2.6c1.1,2.4,2.3,4.8,3.6,7.5l-0.4,0
	c-3.5,0.8-7,1.8-10.4,3L686,280l-3.3,1.1L668.5,285.9z"/>
<g>
	<path class="st11" d="M509.4,657.4l-9.1-0.1h-4.6h-2.3h-1.2c-0.7,0-1.4,0.2-1.9,0.6c-0.4,0.3-0.7,0.7-0.9,1.1
		c-0.1,0.3-0.1,0.5-0.1,0.8v1.4v2.3v4.6l0.1,9.1c0,0.7,0.6,1.3,1.3,1.3c6.3,0.1,12.6-0.3,18.9-1.1c0.8-6.2,1.2-12.5,1.2-18.8
		C510.8,658,510.2,657.4,509.4,657.4z M492.1,668.1v-4.6v-2.3v-1c0,0,0,0,0.1,0h1.1h2.3h4.6l7.8-0.1c0,5.7,0.4,11.3,1.1,16.9
		c-5.7-0.7-11.3-1.1-17-1.1L492.1,668.1z"/>
	<path class="st11" d="M546.3,657.4l-9.1-0.1h-4.6h-2.3h-1.2c-0.7,0-1.4,0.2-1.9,0.6c-0.4,0.3-0.7,0.7-0.9,1.1
		c-0.1,0.3-0.1,0.5-0.1,0.8v1.4v2.3v4.6l0.1,9.1c0,0.7,0.6,1.3,1.3,1.3c6.3,0.1,12.6-0.3,18.9-1.1c0.8-6.2,1.2-12.5,1.2-18.8
		C547.6,658,547,657.4,546.3,657.4z M529,668.1v-4.6v-2.3v-1c0,0,0,0,0.1,0h1.1h2.3h4.6l7.8-0.1c0,5.7,0.4,11.3,1.1,16.9l0,0
		c-5.6-0.7-11.3-1.1-17-1.1L529,668.1z"/>
	<path class="st11" d="M583.1,657.4l-9.1-0.1h-4.6h-2.3h-1.2c-0.7,0-1.4,0.2-1.9,0.6c-0.4,0.3-0.7,0.7-0.9,1.1
		c-0.1,0.3-0.1,0.5-0.1,0.8v1.4v2.3v4.6l0.1,9.1c0,0.7,0.6,1.3,1.3,1.3c6.3,0.1,12.6-0.3,18.9-1.1c0.8-6.2,1.2-12.5,1.2-18.8
		C584.5,658,583.9,657.4,583.1,657.4z M565.9,668.1v-4.6v-2.3v-1c0,0,0,0,0.1,0h1.1h2.3h4.6l7.8-0.1c0,5.7,0.4,11.3,1.1,16.9
		c-5.6-0.7-11.3-1.1-17-1.1L565.9,668.1z"/>
	<path class="st11" d="M620,657.4l-9.1-0.1h-4.6H604h-1.2c-0.7,0-1.4,0.2-1.9,0.6c-0.4,0.3-0.7,0.7-0.9,1.1
		c-0.1,0.3-0.1,0.5-0.1,0.8v1.4v2.3v4.6l0.1,9.1c0,0.7,0.6,1.3,1.3,1.3c6.3,0.1,12.6-0.3,18.9-1.1c0.8-6.2,1.2-12.5,1.2-18.8
		C621.3,658,620.7,657.4,620,657.4z M602.7,668.1v-4.6v-2.3v-1c0,0,0,0,0.1,0h1.1h2.3h4.6l7.8-0.1c0,5.7,0.4,11.3,1.1,16.9
		c-5.7-0.7-11.3-1.1-17-1.1L602.7,668.1z"/>
	<path class="st11" d="M656.8,657.4l-9.1-0.1h-4.6h-2.3h-1.2c-0.7,0-1.4,0.2-1.9,0.6c-0.4,0.3-0.7,0.7-0.9,1.1
		c-0.1,0.3-0.1,0.5-0.1,0.8v1.4v2.3v4.6l0.1,9.1c0,0.7,0.6,1.3,1.3,1.3c6.3,0.1,12.6-0.3,18.9-1.1c0.8-6.2,1.2-12.5,1.2-18.8
		C658.2,658,657.6,657.4,656.8,657.4z M639.5,668.1v-4.6v-2.3v-1c0,0,0,0,0.1,0h1.1h2.3h4.6l7.8-0.1c0,5.7,0.4,11.3,1.1,16.9
		c-5.7-0.7-11.3-1.1-17-1.1L639.5,668.1z"/>
	<path class="st11" d="M693.7,657.4l-9.1-0.1H680h-2.3h-1.2c-0.7,0-1.4,0.2-1.9,0.6c-0.4,0.3-0.7,0.7-0.9,1.1
		c-0.1,0.3-0.1,0.5-0.1,0.8v1.4v2.3v4.6l0.1,9.1c0,0.7,0.6,1.3,1.3,1.3c6.3,0.1,12.6-0.3,18.9-1.1c0.8-6.2,1.2-12.5,1.2-18.8
		C695,658,694.4,657.4,693.7,657.4z M676.4,668.1v-4.6v-2.3v-1c0,0,0,0,0.1,0h1.1h2.3h4.6l7.8-0.1c0,5.7,0.4,11.3,1.1,16.9
		c-5.7-0.7-11.3-1.1-17-1.1L676.4,668.1z"/>
	<path class="st11" d="M509.4,686.8l-9.1-0.1h-4.6h-2.3h-1.2c-0.7,0-1.4,0.2-1.9,0.6c-0.4,0.3-0.7,0.7-0.9,1.1
		c-0.1,0.3-0.1,0.5-0.1,0.8v1.4v2.3v4.6l0.1,9.1c0,0.7,0.6,1.3,1.3,1.3c6.3,0.1,12.6-0.3,18.9-1.1c0.8-6.2,1.2-12.5,1.2-18.8
		C510.8,687.4,510.2,686.8,509.4,686.8z M492.1,697.5v-4.6v-2.3v-1c0,0,0,0,0.1,0h1.1h2.3h4.6l7.8-0.1c0,5.7,0.4,11.3,1.1,16.9l0,0
		c-5.7-0.7-11.3-1.1-17-1.2L492.1,697.5z"/>
	<path class="st11" d="M546.3,686.8l-9.1-0.1h-4.6h-2.3h-1.2c-0.7,0-1.4,0.2-1.9,0.6c-0.4,0.3-0.7,0.7-0.9,1.1
		c-0.1,0.3-0.1,0.5-0.1,0.8v1.4v2.3v4.6l0.1,9.1c0,0.7,0.6,1.3,1.3,1.3c6.3,0.1,12.6-0.3,18.9-1.1c0.8-6.2,1.2-12.5,1.2-18.8
		C547.6,687.4,547,686.8,546.3,686.8z M529,697.5v-4.6v-2.3v-1c0,0,0,0,0.1,0h1.1h2.3h4.6l7.8-0.1c0,5.7,0.4,11.3,1.1,16.9l0,0
		c-5.6-0.7-11.3-1.1-17-1.2L529,697.5z"/>
	<path class="st11" d="M564.4,708.1c6.3,0.1,12.6-0.3,18.9-1.1c0.8-6.2,1.2-12.5,1.2-18.8c0-0.7-0.6-1.3-1.3-1.3l-9.1-0.1h-4.6h-2.3
		h-1.2c-0.7,0-1.4,0.2-1.9,0.6c-0.4,0.3-0.7,0.7-0.9,1.1c-0.1,0.3-0.1,0.5-0.1,0.8v1.4v2.3v4.6l0.1,9.2
		C563.1,707.5,563.7,708.1,564.4,708.1z M565.9,697.5v-4.6v-2.3v-1c0,0,0,0,0.1,0h1.1h2.3h4.6l7.8-0.1c0,5.7,0.4,11.3,1.1,16.9v0
		c-5.6-0.7-11.3-1.1-17-1.2L565.9,697.5z"/>
	<path class="st11" d="M620,686.8l-9.1-0.1h-4.6H604h-1.2c-0.7,0-1.4,0.2-1.9,0.6c-0.4,0.3-0.7,0.7-0.9,1.1
		c-0.1,0.3-0.1,0.5-0.1,0.8v1.4v2.3v4.6l0.1,9.1c0,0.7,0.6,1.3,1.3,1.3c6.3,0.1,12.6-0.3,18.9-1.1c0.8-6.2,1.2-12.5,1.2-18.8
		C621.3,687.4,620.7,686.8,620,686.8z M602.7,697.5v-4.6v-2.3v-1c0,0,0,0,0.1,0h1.1h2.3h4.6l7.8-0.1c0,5.7,0.4,11.3,1.1,16.9l0,0
		c-5.7-0.7-11.3-1.1-17-1.2L602.7,697.5z"/>
	<path class="st11" d="M656.8,686.8l-9.1-0.1h-4.6h-2.3h-1.2c-0.7,0-1.4,0.2-1.9,0.6c-0.4,0.3-0.7,0.7-0.9,1.1
		c-0.1,0.3-0.1,0.5-0.1,0.8v1.4v2.3v4.6l0.1,9.1c0,0.7,0.6,1.3,1.3,1.3c6.3,0.1,12.6-0.3,18.9-1.1c0.8-6.2,1.2-12.5,1.2-18.8
		C658.2,687.4,657.6,686.8,656.8,686.8z M639.5,697.5v-4.6v-2.3v-1c0,0,0,0,0.1,0h1.1h2.3h4.6l7.8-0.1c0,5.7,0.4,11.3,1.1,16.9l0,0
		c-5.7-0.7-11.4-1.1-17.1-1.2L639.5,697.5z"/>
	<path class="st11" d="M693.7,686.8l-9.1-0.1H680h-2.3h-1.2c-0.7,0-1.4,0.2-1.9,0.6c-0.4,0.3-0.7,0.7-0.9,1.1
		c-0.1,0.3-0.1,0.5-0.1,0.8v1.4v2.3v4.6l0.1,9.1c0,0.7,0.6,1.3,1.3,1.3c6.3,0.1,12.6-0.3,18.9-1.1c0.8-6.2,1.2-12.5,1.2-18.8
		C695,687.4,694.4,686.8,693.7,686.8z M676.4,697.5v-4.6v-2.3v-1c0,0,0,0,0.1,0h1.1h2.3h4.6l7.8-0.1c0,5.7,0.4,11.3,1.1,16.9l0,0
		c-5.7-0.7-11.3-1.1-17-1.2L676.4,697.5z"/>
	<path class="st11" d="M500.3,716.2h-4.6h-2.3h-1.2c-0.7,0-1.4,0.2-1.9,0.6c-0.4,0.3-0.7,0.7-0.9,1.1c-0.1,0.3-0.1,0.5-0.1,0.8v1.4
		v2.3v4.6l0.1,9.1c0,0.7,0.6,1.3,1.3,1.3c6.3,0.1,12.6-0.3,18.9-1.1c0.8-6.2,1.2-12.5,1.2-18.8c0-0.7-0.6-1.3-1.3-1.3L500.3,716.2z
		 M492.1,726.9v-4.6v-2.3v-1c0,0,0,0,0.1,0h1.1h2.3h4.6l7.8-0.1c0,5.7,0.4,11.3,1.1,16.9l0,0c-5.7-0.7-11.3-1.1-17-1.2L492.1,726.9z
		"/>
	<path class="st11" d="M537.1,716.2h-4.6h-2.3h-1.2c-0.7,0-1.4,0.2-1.9,0.6c-0.4,0.3-0.7,0.7-0.9,1.1c-0.1,0.3-0.1,0.5-0.1,0.8v1.4
		v2.3v4.6l0.1,9.1c0,0.7,0.6,1.3,1.3,1.3c6.3,0.1,12.6-0.3,18.9-1.1c0.8-6.2,1.2-12.5,1.2-18.8c0-0.7-0.6-1.3-1.3-1.3L537.1,716.2z
		 M529,726.9v-4.6v-2.3v-1c0,0,0,0,0.1,0h1.1h2.3h4.6l7.8-0.1c0,5.7,0.4,11.3,1.1,16.9l0,0c-5.6-0.7-11.3-1.1-17-1.2L529,726.9z"/>
	<path class="st11" d="M564.4,737.5c6.3,0.1,12.6-0.3,18.9-1.1c0.8-6.2,1.2-12.5,1.2-18.8c0-0.7-0.6-1.3-1.3-1.3l-9.1-0.1h-4.6h-2.3
		h-1.2c-0.7,0-1.4,0.2-1.9,0.6c-0.4,0.3-0.7,0.7-0.9,1.1c-0.1,0.3-0.1,0.5-0.1,0.8v1.4v2.3v4.6l0.1,9.1
		C563.1,736.9,563.7,737.5,564.4,737.5z M565.9,726.9v-4.6v-2.3v-1c0,0,0,0,0.1,0h1.1h2.3h4.6l7.8-0.1c0,5.7,0.4,11.3,1.1,16.9
		c-5.6-0.7-11.3-1.1-17-1.2L565.9,726.9z"/>
	<path class="st11" d="M610.8,716.2h-4.6H604h-1.2c-0.7,0-1.4,0.2-1.9,0.6c-0.4,0.3-0.7,0.7-0.9,1.1c-0.1,0.3-0.1,0.5-0.1,0.8v1.4
		v2.3v4.6l0.1,9.1c0,0.7,0.6,1.3,1.3,1.3c6.3,0.1,12.6-0.3,18.9-1.1c0.8-6.2,1.2-12.5,1.2-18.8c0-0.7-0.6-1.3-1.3-1.3L610.8,716.2z
		 M602.7,726.9v-4.6v-2.3v-1c0,0,0,0,0.1,0h1.1h2.3h4.6l7.8-0.1c0,5.7,0.4,11.3,1.1,16.9c-5.7-0.7-11.3-1.1-17-1.2L602.7,726.9z"/>
	<path class="st11" d="M647.7,716.2h-4.6h-2.3h-1.2c-0.7,0-1.4,0.2-1.9,0.6c-0.4,0.3-0.7,0.7-0.9,1.1c-0.1,0.3-0.1,0.5-0.1,0.8v1.4
		v2.3v4.6l0.1,9.1c0,0.7,0.6,1.3,1.3,1.3c6.3,0.1,12.6-0.3,18.9-1.1c0.8-6.2,1.2-12.5,1.2-18.8c0-0.7-0.6-1.3-1.3-1.3L647.7,716.2z
		 M639.5,726.9v-4.6v-2.3v-1c0,0,0,0,0.1,0h1.1h2.3h4.6l7.8-0.1c0,5.7,0.4,11.3,1.1,16.9c-5.7-0.7-11.3-1.1-17-1.2L639.5,726.9z"/>
	<path class="st11" d="M684.6,716.2H680h-2.3h-1.2c-0.7,0-1.4,0.2-1.9,0.6c-0.4,0.3-0.7,0.7-0.9,1.1c-0.1,0.3-0.1,0.5-0.1,0.8v1.4
		v2.3v4.6l0.1,9.1c0,0.7,0.6,1.3,1.3,1.3c6.3,0.1,12.6-0.3,18.9-1.1c0.8-6.2,1.2-12.5,1.2-18.8c0-0.7-0.6-1.3-1.3-1.3L684.6,716.2z
		 M676.4,726.9v-4.6v-2.3v-1c0,0,0,0,0.1,0h1.1h2.3h4.6l7.8-0.1c0,5.7,0.4,11.3,1.1,16.9l0,0c-5.7-0.7-11.3-1.1-17-1.2L676.4,726.9z
		"/>
	<path class="st11" d="M711.3,639.7c0-0.3-0.2-0.5-0.5-0.5c-19.6-1.4-39.1-1.4-58.7-1.5l-58.7-0.2l-58.7,0.2
		c-19.6,0.1-39.1,0.1-58.7,1.5v0c-0.2,0-0.5,0.2-0.5,0.5c0,0.3,0.2,0.5,0.5,0.5c19.6,1.4,39.1,1.4,58.7,1.5l58.7,0.2l58.7-0.2
		c19.6-0.1,39.1-0.1,58.7-1.5C711.1,640.1,711.3,639.9,711.3,639.7z"/>
	<path class="st11" d="M656.8,798.7L656.8,798.7c-10.9-0.2-21.7-0.5-32.5-0.5l-32.4-0.2l-32.4,0.2c-10.8,0-21.6,0.3-32.4,0.7H527
		c0,0,0,0,0,0c-0.9,0-1.6,0.8-1.5,1.7c0.1,3,0.3,6,0.4,9.1c0.1,0.9,0.1,1.8,0.2,2.8c0.1,0.9,0.1,1.8,0.2,2.8c0.1,2,0.3,3.9,0.4,5.9
		l0,0c0,0.2,0.2,0.4,0.4,0.4c0.3,0,0.5-0.1,0.5-0.4c0.2-2,0.3-3.9,0.4-5.9c0.1-0.9,0.1-1.8,0.2-2.8c0.1-0.9,0.1-1.8,0.2-2.8
		c0.1-2.4,0.3-4.9,0.4-7.3c10.3,0.4,20.5,0.6,30.8,0.6l32.4,0.2l32.4-0.2c10.2,0,20.4-0.2,30.6-0.5c0.1,2.4,0.2,4.9,0.2,7.3
		c0,0.9,0.1,1.7,0.1,2.6c0,0.9,0.1,1.8,0.1,2.6c0.1,3.1,0.3,6.1,0.4,9.2c0,0.4,0.4,0.8,0.8,0.8c0.5,0.1,1-0.3,1-0.8
		c0.2-3.1,0.3-6.1,0.4-9.2c0-0.9,0.1-1.7,0.1-2.6c0-0.9,0.1-1.7,0.1-2.6c0.1-3.1,0.2-6.1,0.3-9.2c0,0,0,0,0,0
		C658.6,799.5,657.8,798.7,656.8,798.7z"/>
	<path class="st11" d="M458.3,264.1c4.9,3.1,10.2,5.2,15.9,6.4c1.4,0.4,2.9,0.6,4.3,0.8c1.6-0.1,3.4-0.8,5.7-2.8l1.3-3.2
		c-0.3-3.1-1.1-4.9-2.2-6c-1.1-0.9-2.3-1.8-3.6-2.5c-4.9-3.1-10.2-5.2-15.9-6.4c-1.4-0.4-2.9-0.7-4.3-0.8c-1.6,0.1-3.4,0.8-5.7,2.8
		l-0.6,1.6l-0.7,1.6c0.3,3.1,1.1,4.9,2.2,6C455.8,262.6,457,263.4,458.3,264.1z"/>
	<path class="st11" d="M1493.8,851.3c-72.2-1.2-144.5-1.9-216.7-2.2c0,0,0,0.1,0,0.1c-122.6,1.8-265.8,0.5-398.8-0.7
		c0-0.9-0.1,0.9-0.1,0l-97.9-0.1l0.6-8.8l0.6-11.2c0.3-7.6,0.6-15.3,0.8-23.1c0.2-15.6,0.6-31.3,0.5-46.9c0-1.6-1.3-2.9-2.9-2.9
		l-4.9,0l-11.3-45.9l-18.3-73.2l-1.9-26.5l-1-13c-1.1-1.8-2.1-3.7-3.2-5.6c-1.5-2.7-3-5.4-4.5-8.1c0.1,0.3,0.2,0.6,0.3,0.9
		c1.2,4.1,1.4,8.1,1.7,12.7l1,13.4l1.9,26.8c0,0.2,0,0.3,0.1,0.5l19,73.3l11.7,44.7l-178.6,0.2l-177.4,0.6L444,640.1
		c0-0.2,0.1-0.3,0.1-0.5l1.8-26.8l0.9-13.4c0.1-4.3,0.7-8.6,1.6-12.8c1.9-8.2,6.2-15.8,12.3-21.6c2.9-2.8,6.5-5,10.3-6.3
		c3.9-1.3,7.8-1.3,12.4-1.3H631h2.4h2.4h0h26.6h0.5h41.6c2,0,4,0.3,6,0.8c4,1,7.7,2.9,11,5.4c2,1.6,3.8,3.3,5.5,5.2
		c-1.4-2.6-2.7-5.1-4-7.7c-0.9-1.7-1.7-3.3-2.6-5c-2.6-1.5-5.4-2.6-8.3-3.3c-2.4-0.6-4.8-1-7.3-1h-41.4c0.4-4.5,0.7-9.2,0.9-14
		c0-0.6,0-1.2,0.1-1.8c5-0.4,10-0.7,15-0.7c2.6,0,5.1-1.2,6.8-3.2c0.9-1,1.5-2.2,1.8-3.4c0.3-1.2,0.5-2.5,0.5-3.7l1.1-13.9
		c0.1-2.3,0.2-4.7,0.3-7v-3.5c0-0.6,0-1.3,0-1.9c-0.1-0.8-0.2-1.6-0.5-2.3c-1-3-3.4-5.5-6.4-6.6c-0.7-0.3-1.5-0.5-2.3-0.6
		c-0.4-0.1-0.8-0.1-1.2-0.1h-0.9H675l-55.6-0.4c-3.3,0-6.5,1.6-8.6,4.2c-1,1.3-1.7,2.8-2.1,4.4c-0.2,1.4-0.3,2.8-0.2,4.3l0.1,13.9
		l0.1,7v3.5c0,0.6,0,1.3,0.1,1.9c0.1,0.8,0.3,1.6,0.5,2.4c1.1,3.1,3.5,5.5,6.6,6.6c0.8,0.3,1.5,0.5,2.3,0.5c0.4,0.1,0.8,0.1,1.2,0.1
		h0.9h3.5c2.4,0,4.8,0,7.1,0l0.1,14.3H483.4c-4.3-0.1-9.5-0.1-14.1,1.5c-4.7,1.5-8.9,4.1-12.4,7.5c-6.9,6.6-11.7,15.1-13.9,24.4
		c-1,4.5-1.6,9.1-1.8,13.8l-0.9,13.4l-1.8,26.5l-29.7,117.4l-4.9,0c0,0,0,0,0,0c-1.1,0-2.1,1-2.1,2.1c0.1,8.1,0.2,16.2,0.2,24.3
		l-0.8,3.2c-0.1,0.3-0.1,0.6-0.1,0.8c0.1,1.3,0.4,2.5,1,3.6c0.2,19.4,0.4,38.8,0.7,58.2l-27.6,0l-186.4,0.1
		c-62.1,0.2-124.3-0.4-186.4,1.3l0,0c-1.4,0-2.5,1.1-2.5,2.5c0,1.4,1.1,2.5,2.5,2.5c62.1,1.7,124.3,1.1,186.4,1.3l186.4,0.1
		l372.9,0.1l372.9-0.3c124.3,0,248.6-0.4,372.9-2.5c0.6-0.1,1.1-0.5,1.1-1.1C1495,852,1494.5,851.4,1493.8,851.3z M405.1,848.6
		c0.3-17.8,0.5-35.6,0.7-53.5c0-1.3,0-2.7,0-4c0-4,0.1-8,0.1-12c0-3.9,0.1-7.8,0.1-11.7c0-2.3,0-4.6,0.1-6.9l1.7,0l2.9,0l2.8,0
		l178.5,0.6l180.1,0.2l2.2,0l2.2,0l0.5,0c0,0.7,0,1.4,0,2c0,2.9,0,5.7,0,8.6c0,2.8,0,5.6,0.1,8.5c0,2.2,0.1,4.4,0.1,6.6
		c0,1.1,0,2.2,0.1,3.3c0,0.9,0,1.7,0,2.6c0.1,3.5,0.1,7,0.2,10.5c0.1,7.5,0.5,15.1,0.8,22.8l0.6,11.7l0.7,10.7l0.1,1l-0.4,0
		l-374-0.4C405.1,849,405.1,848.8,405.1,848.6z M623.7,531.8h-3.5h-0.9c-0.2,0-0.4,0-0.5,0c-0.3,0-0.7-0.1-1-0.3
		c-1.4-0.5-2.4-1.6-2.9-3c-0.4-0.9-0.2-3.8-0.2-6v-7l0.1-13.9c-0.1-0.9,0-1.8,0.1-2.7c0.2-0.7,0.5-1.3,0.9-1.8
		c0.9-1.1,2.2-1.7,3.6-1.7l55.6-0.4h3.5h0.9c0.2,0,0.4,0,0.6,0c0.4,0,0.7,0.1,1.1,0.2c1.4,0.5,2.5,1.6,3,3c0.5,1,0.2,3.9,0.4,6.1
		c0,2.3,0.1,4.6,0.3,6.9l1.1,13.9c0.1,1.1,0.2,2.1,0.1,3.2c-0.1,1-0.5,2-1.1,2.8c-1.3,1.7-3.3,2.8-5.4,2.8v0c-5,0-9.9-0.3-14.9-0.8
		c-0.7-0.1-1.4-0.1-2.1-0.2c-0.7-0.1-1.4-0.1-2.1-0.2c-2.9-0.3-5.8-0.5-8.8-0.7c-5.2-0.3-10.4-0.4-15.6-0.4c-0.8,0-1.7,0-2.5,0
		c-0.9,0-1.7,0-2.6,0C628.5,531.8,626.1,531.8,623.7,531.8z M635.9,537.6c5.2,0,10.4-0.1,15.6-0.4c3-0.2,5.9-0.5,8.9-0.7
		c0.2,5,0.6,10.1,1,15.5h-25.7L635.9,537.6z"/>
</g>
</svg>
