<svg viewBox="0 0 270 127" fill="none" xmlns="http://www.w3.org/2000/svg">
<g>
<path d="M64.3796 0H208.718V117.561H56.5472V7.83237C56.5472 5.7551 57.3724 3.7629 58.8413 2.29405C60.3101 0.825194 62.3023 0 64.3796 0V0Z" fill="#5198D9"/>
<path d="M66.0728 107.588V28.7932H200.407V107.588H73.3339" fill="#C6DEF6"/>
<path d="M66.0728 28.3975V9.94531H200.407V28.3975H73.3339" fill="#C6DEF6"/>
<path d="M190.169 47.8718V107.588H149.847V41.2473H190.169V47.8718ZM133.856 107.516H77.1709V77.1227H139.596V107.516" fill="white"/>
<path d="M93.603 107.588H86.5966V100.578C86.5966 100.348 86.6421 100.119 86.7305 99.906C86.8189 99.6929 86.9485 99.4992 87.1118 99.3362C87.2752 99.1732 87.469 99.044 87.6824 98.956C87.8957 98.868 88.1243 98.8229 88.3551 98.8234H93.603V107.588ZM105.599 107.588H98.5998V97.3884C98.5998 96.922 98.785 96.4747 99.1148 96.1449C99.4446 95.8151 99.8919 95.6299 100.358 95.6299H105.599V107.588ZM117.603 107.588H110.6V92.7908C110.6 92.3244 110.785 91.8771 111.115 91.5474C111.444 91.2176 111.892 91.0323 112.358 91.0323H117.603V107.588ZM123.855 107.588H130.855V90.5918C130.855 90.0935 130.657 89.6156 130.305 89.2632C129.952 88.9108 129.474 88.7129 128.976 88.7129H123.855V107.588Z" fill="#2FB41F"/>
<path d="M133.856 67.8348H77.1709V40.8689H139.596V67.8348" fill="white"/>
<path d="M182.288 83.458C175.557 83.458 174.666 86.3659 173.224 89.6007C172.078 92.1748 168.062 93.9918 163.671 94.8659C159.197 95.7572 157.721 99.226 157.721 101.883H182.498L182.288 83.458Z" fill="#2FB41F"/>
<path d="M159.517 67.4941L169.704 52.2285L181.352 67.2428" fill="#2FB41F"/>
<path d="M119.137 67.8415C118.91 66.902 118.749 65.9557 118.607 65.0059C118.466 64.0561 118.356 63.1063 118.263 62.1565L117.998 59.3002L117.778 56.4405C117.654 54.534 117.551 52.6241 117.455 50.7142C117.358 48.8043 117.313 46.8944 117.375 44.9707C117.377 44.9136 117.4 44.8593 117.44 44.8183C117.48 44.7773 117.533 44.7524 117.59 44.7486C117.647 44.7447 117.704 44.7621 117.748 44.7974C117.793 44.8328 117.823 44.8834 117.833 44.9397C118.177 46.8324 118.391 48.7251 118.576 50.635C118.762 52.545 118.921 54.4411 119.075 56.3476L119.268 59.2073L119.416 62.0739C119.457 63.0271 119.485 63.9838 119.482 64.9439C119.478 65.904 119.454 66.8607 119.365 67.8277C119.361 67.8582 119.346 67.886 119.322 67.9054C119.298 67.9247 119.268 67.9338 119.237 67.9309C119.213 67.9286 119.191 67.9186 119.173 67.9025C119.155 67.8864 119.142 67.865 119.137 67.8415Z" fill="#2FB41F"/>
<path d="M119.148 67.8864C118.662 67.2533 118.209 66.5951 117.792 65.9145C117.372 65.2263 116.98 64.538 116.598 63.8498L115.476 61.7609L114.399 59.648C113.71 58.2302 113.022 56.8043 112.334 55.3704C111.666 53.9354 111.03 52.4866 110.496 50.9828C110.476 50.9253 110.48 50.8623 110.507 50.8075C110.533 50.7527 110.58 50.7106 110.637 50.6903C110.685 50.6729 110.738 50.6719 110.786 50.6875C110.835 50.7031 110.877 50.7343 110.906 50.7763C111.797 52.0978 112.582 53.4743 113.339 54.8646C114.096 56.2549 114.829 57.6555 115.552 59.0629L116.608 61.1862L117.623 63.3301C117.967 64.0494 118.277 64.772 118.566 65.5119C118.866 66.2525 119.127 67.0083 119.347 67.7763C119.355 67.8028 119.354 67.8313 119.343 67.8568C119.332 67.8822 119.313 67.903 119.288 67.9154C119.263 67.9278 119.235 67.931 119.208 67.9244C119.181 67.9179 119.157 67.9019 119.141 67.8795L119.148 67.8864Z" fill="#2FB41F"/>
<path d="M119.168 67.9172C118.346 67.3288 117.565 66.6921 116.801 66.0417C116.037 65.3913 115.29 64.7203 114.557 64.0389L112.372 61.9741L110.221 59.8784C108.801 58.4675 107.391 57.0451 105.992 55.6112C104.598 54.1727 103.239 52.7102 101.938 51.165C101.892 51.1221 101.865 51.0629 101.864 51.0003C101.862 50.9377 101.885 50.8769 101.927 50.8312C101.97 50.7856 102.03 50.7589 102.092 50.7569C102.155 50.755 102.216 50.778 102.261 50.8209C103.831 52.077 105.317 53.4225 106.78 54.7887C108.242 56.1549 109.691 57.5418 111.129 58.9355L113.267 61.0484L115.366 63.1958C116.054 63.9139 116.736 64.6492 117.413 65.4017C118.077 66.1519 118.728 66.9227 119.33 67.7348C119.348 67.7596 119.355 67.7904 119.351 67.8206C119.346 67.8508 119.33 67.8781 119.306 67.8966C119.288 67.9139 119.265 67.9251 119.24 67.9288C119.216 67.9325 119.191 67.9285 119.168 67.9172Z" fill="#2FB41F"/>
<path d="M119.206 67.9413C118.485 67.8096 117.773 67.635 117.073 67.4182C116.384 67.2152 115.696 66.9778 115.008 66.73L112.974 65.966L110.954 65.1573C109.615 64.5998 108.287 64.0217 106.959 63.4367C105.626 62.8553 104.325 62.2052 103.06 61.4889C103.007 61.4579 102.968 61.4074 102.952 61.3482C102.936 61.289 102.944 61.2258 102.974 61.1723C102.999 61.1283 103.038 61.0939 103.084 61.0746C103.131 61.0553 103.183 61.0521 103.232 61.0656C104.633 61.4367 106.013 61.88 107.368 62.394C108.724 62.9033 110.08 63.4263 111.425 63.9529L113.435 64.7856L115.428 65.6597C116.088 65.9591 116.746 66.2688 117.389 66.6095C118.041 66.9439 118.672 67.3174 119.279 67.728C119.291 67.7363 119.303 67.7471 119.311 67.7599C119.32 67.7727 119.326 67.787 119.329 67.8022C119.332 67.8173 119.331 67.8329 119.328 67.8479C119.325 67.863 119.318 67.8772 119.309 67.8897C119.298 67.9065 119.283 67.9201 119.265 67.9291C119.247 67.9382 119.226 67.9424 119.206 67.9413Z" fill="#2FB41F"/>
<path d="M125.029 47.3349C124.943 48.2331 124.798 49.1141 124.63 49.9882C124.461 50.8623 124.268 51.7295 124.058 52.5932L123.408 55.1742L122.72 57.7449C122.236 59.4517 121.736 61.154 121.219 62.8517C120.7 64.5483 120.149 66.238 119.482 67.8967C119.46 67.9485 119.42 67.9905 119.369 68.0149C119.318 68.0393 119.261 68.0444 119.207 68.0291C119.152 68.0139 119.106 67.9795 119.075 67.9323C119.045 67.8851 119.033 67.8283 119.041 67.7728C119.316 66.0108 119.709 64.2764 120.135 62.5523C120.562 60.8282 121.009 59.111 121.467 57.3904L122.186 54.8266L122.954 52.2766C123.215 51.4301 123.491 50.5835 123.797 49.7473C124.103 48.9111 124.43 48.0817 124.829 47.2696C124.842 47.2463 124.862 47.2278 124.886 47.2173C124.91 47.2067 124.937 47.2047 124.963 47.2114C124.988 47.2182 125.011 47.2334 125.026 47.2546C125.042 47.2758 125.05 47.3017 125.05 47.3281L125.029 47.3349Z" fill="#2FB41F"/>
<path d="M132.266 50.8177C131.853 51.623 131.392 52.3938 130.889 53.1474C130.387 53.9011 129.905 54.641 129.386 55.3671L127.82 57.542L126.213 59.6825C125.125 61.1003 124.025 62.5066 122.913 63.9015C121.798 65.2952 120.655 66.6717 119.416 67.9725C119.372 68.0152 119.314 68.0391 119.253 68.0391C119.192 68.0391 119.133 68.0152 119.089 67.9725C119.051 67.9363 119.027 67.8883 119.02 67.8363C119.013 67.7844 119.024 67.7317 119.051 67.6869C119.967 66.1418 120.978 64.6654 122.014 63.2132C123.05 61.761 124.11 60.3191 125.177 58.8875L126.801 56.7608L128.467 54.6616C129.024 53.9734 129.595 53.2851 130.187 52.5968C130.779 51.9086 131.395 51.2719 132.059 50.656C132.081 50.6341 132.111 50.6218 132.142 50.6218C132.173 50.6218 132.203 50.6341 132.225 50.656C132.251 50.6724 132.27 50.6984 132.278 50.7285C132.286 50.7587 132.281 50.7906 132.266 50.8177Z" fill="#2FB41F"/>
<path d="M135.735 57.614C135.14 58.172 134.516 58.6982 133.866 59.1901C133.219 59.6822 132.558 60.1468 131.887 60.5976L129.864 61.9397L127.82 63.2405C126.443 64.0871 125.059 64.9221 123.666 65.7458C122.272 66.5648 120.858 67.3528 119.382 68.0411C119.354 68.0544 119.325 68.0621 119.295 68.0637C119.264 68.0654 119.234 68.0609 119.205 68.0507C119.177 68.0404 119.151 68.0245 119.128 68.004C119.106 67.9834 119.088 67.9586 119.075 67.931C119.054 67.8847 119.048 67.8326 119.059 67.7827C119.071 67.7329 119.098 67.6882 119.137 67.6557C120.4 66.6233 121.725 65.6941 123.067 64.7925C124.409 63.8909 125.765 63.0099 127.128 62.1393L129.193 60.8591L131.278 59.6203C131.967 59.2142 132.682 58.8185 133.405 58.4502C134.128 58.0665 134.871 57.7219 135.631 57.4178C135.661 57.4077 135.693 57.4091 135.721 57.4219C135.749 57.4347 135.771 57.4579 135.783 57.4867C135.789 57.5103 135.788 57.5352 135.779 57.5581C135.771 57.5809 135.755 57.6005 135.735 57.614Z" fill="#2FB41F"/>
<path d="M204.96 28.6831C199.003 29.1821 193.046 29.4195 187.089 29.571C181.132 29.7224 175.172 29.7396 169.215 29.8153C157.298 29.9701 145.381 30.0527 133.463 30.1594C121.546 30.2661 109.626 30.2489 97.7085 30.2248C91.7516 30.2248 85.7913 30.2248 79.8138 30.1801C73.8363 30.1353 67.8966 29.922 61.9363 29.4918V28.9068C67.8897 28.4078 73.85 28.1704 79.8069 28.0189C85.7638 27.8675 91.7241 27.8503 97.6809 27.7746C109.598 27.6197 121.515 27.5372 133.432 27.4305C145.35 27.3892 157.267 27.341 169.187 27.3651C175.144 27.3651 181.105 27.3651 187.062 27.4098C193.018 27.4546 198.982 27.6679 204.956 28.0981L204.96 28.6831Z" fill="#2271B1"/>
<path d="M44.1827 121.44L44.1827 54.8473C44.1827 51.8292 41.736 49.3826 38.7179 49.3826H5.46475C2.44664 49.3826 -7.62939e-06 51.8292 -7.62939e-06 54.8473L-7.62939e-06 121.44C-7.62939e-06 124.458 2.44664 126.904 5.46475 126.904H38.7179C41.736 126.904 44.1827 124.458 44.1827 121.44Z" fill="#5198D9"/>
<path d="M3.00079 57.9583H41.1991V114.034H3.00079V57.9583Z" fill="white"/>
<path d="M2.98358 57.7793H41.2025V65.5772H2.98358V57.7793Z" fill="#C6DEF6"/>
<path d="M2.98358 107.392H41.2025V114.175H2.98358V107.392Z" fill="#C6DEF6"/>
<path d="M8.81317 95.8329H15.4308V105.197H8.81317V95.8329ZM18.7826 90.7364H25.4002V105.197H18.7826V90.7364ZM28.752 83.3789H35.3696V105.197H28.752V83.3789Z" fill="#E3DFE2"/>
<path d="M8.81317 101.181H15.4308V105.2H8.81317V101.181ZM18.7826 98.9921H25.4002V105.197H18.7826V98.9921ZM28.752 95.833H35.3696V105.197H28.752V95.833Z" fill="#2FB41F"/>
<path d="M7.72913 79.7519L18.0427 79.7312L7.72913 79.7519Z" fill="#DDF8FF"/>
<path d="M7.72571 79.5386C8.10052 79.2393 8.54407 79.0382 9.01619 78.9536C9.44635 78.8779 9.87651 78.8744 10.3032 78.8366C11.1636 78.7815 12.0239 78.7402 12.8842 78.7368C13.7445 78.7333 14.6048 78.7746 15.4617 78.8262C15.8919 78.8607 16.322 78.8641 16.7522 78.9364C17.2241 79.0196 17.6677 79.2195 18.0427 79.5179V79.9447C17.6681 80.2416 17.226 80.4414 16.7556 80.5262C16.3255 80.602 15.8953 80.602 15.4652 80.6398C14.6083 80.6949 13.7445 80.7362 12.8876 80.7396C12.0308 80.743 11.167 80.7018 10.3067 80.6536C9.87995 80.6157 9.44979 80.6157 9.01963 80.54C8.54771 80.4568 8.10409 80.2569 7.72915 79.9584L7.72571 79.5386Z" fill="#72AEE6"/>
<path d="M7.72913 73.3374C22.9568 73.0449 26.873 73.2823 33.4115 73.2823L7.72913 73.3374Z" fill="#DDF8FF"/>
<path d="M7.72223 73.1274C8.76148 72.7889 9.83671 72.5729 10.9261 72.4839C11.9963 72.3909 13.0665 72.3772 14.1368 72.3324C16.2773 72.2464 18.4212 72.1913 20.5686 72.1879C22.7159 72.1845 24.8598 72.2395 27.0003 72.3221C28.0706 72.3703 29.1408 72.3806 30.2076 72.4666C31.2947 72.5474 32.3693 72.7494 33.4114 73.0689V73.4956C32.3653 73.8116 31.2851 74.0011 30.1938 74.06C29.1202 74.1288 28.0499 74.1116 26.9797 74.1322C24.8392 74.1667 22.7022 74.1884 20.5686 74.1976C18.435 74.1976 16.2979 74.1735 14.1574 74.1426C13.0906 74.1185 12.0204 74.1426 10.9502 74.0806C9.86082 74.0282 8.78115 73.8504 7.73255 73.5507L7.72223 73.1274Z" fill="#72AEE6"/>
<path d="M269.924 121.436V44.1139C269.924 41.0958 267.478 38.6492 264.46 38.6492H227.627C224.609 38.6492 222.163 41.0958 222.163 44.1139V121.436C222.163 124.454 224.609 126.901 227.627 126.901H264.46C267.478 126.901 269.924 124.454 269.924 121.436Z" fill="#5198D9"/>
<path d="M222.166 53.0613H269.928V112.3H222.166V53.0613Z" fill="#C6DEF6"/>
<path d="M222.166 61.8364H270V112.327H222.166V61.8364Z" fill="white"/>
<path d="M249.115 78.506C248.062 82.9797 243.86 85.8049 239.2 84.2598C234.844 82.8179 232.4 79.528 232.855 74.9683C233.367 69.8408 238.079 67.487 242.587 68.3542C247.294 69.2558 250.182 74.0392 249.115 78.506Z" fill="#C6DEF6"/>
<path d="M232.841 83.1381C232.664 83.4299 232.521 83.7418 232.418 84.0672C232.32 84.3516 232.32 84.6604 232.418 84.9448C232.6 85.3921 233.302 85.3577 233.908 85.1753C234.547 84.9619 235.158 84.6719 235.728 84.3116C236.324 83.9602 236.898 83.5741 237.449 83.1553C238.564 82.3138 239.626 81.4036 240.629 80.4298C241.661 79.4697 242.631 78.4545 243.588 77.4221C244.545 76.3897 245.467 75.3332 246.341 74.232C247.208 73.1488 247.974 71.9888 248.63 70.7667C248.945 70.1761 249.195 69.553 249.376 68.9084C249.46 68.6106 249.498 68.3021 249.49 67.993C249.495 67.7443 249.415 67.5013 249.263 67.3047C248.977 66.9606 248.272 66.9606 247.652 67.1636C246.999 67.367 246.375 67.6563 245.797 68.0239C245.752 68.0456 245.7 68.0507 245.651 68.0383C245.602 68.0259 245.559 67.9968 245.529 67.956C245.499 67.9152 245.485 67.8653 245.488 67.8148C245.491 67.7644 245.512 67.7167 245.546 67.6798C246.113 67.202 246.751 66.8144 247.435 66.5304C247.801 66.3755 248.192 66.288 248.588 66.2723C249.053 66.245 249.509 66.4021 249.858 66.7094C250.184 67.0388 250.38 67.4753 250.409 67.9379C250.444 68.3399 250.417 68.745 250.33 69.1389C250.167 69.8735 249.915 70.5854 249.579 71.2588C248.929 72.5635 248.155 73.8023 247.267 74.9581C246.403 76.1179 245.467 77.2122 244.514 78.2755C242.588 80.4247 240.44 82.3638 238.106 84.0603C236.912 84.8759 235.642 85.6537 234.128 85.984C233.73 86.07 233.318 86.0781 232.917 86.0081C232.691 85.9626 232.478 85.8673 232.294 85.7294C232.105 85.575 231.967 85.3676 231.898 85.134C231.818 84.7228 231.881 84.2964 232.077 83.9261C232.242 83.5921 232.457 83.2847 232.714 83.0142C232.724 83.0042 232.735 82.9963 232.748 82.9909C232.761 82.9855 232.775 82.9827 232.789 82.9827C232.803 82.9827 232.817 82.9855 232.83 82.9909C232.843 82.9963 232.855 83.0042 232.865 83.0142C232.884 83.0303 232.897 83.0527 232.901 83.0774C232.904 83.1021 232.899 83.1273 232.886 83.1484L232.841 83.1381Z" fill="#2FB41F"/>
<path d="M255.072 71.4204C254.122 71.6854 254.407 72.7212 255.313 72.4528C256.218 72.1844 256.032 71.1554 255.072 71.4204ZM260.12 72.8073C259.136 72.8486 259.456 74.1046 260.361 73.8397C261.266 73.5747 260.585 72.7866 260.12 72.8073ZM255.02 79.3354C255.388 78.4235 256.465 79.1496 255.922 79.9135C255.378 80.6775 254.845 79.7656 255.02 79.3354ZM260.561 80.2301C260.929 79.3182 262.525 79.7449 261.682 80.7498C261.599 80.8729 261.475 80.9623 261.331 81.0021C261.188 81.0419 261.035 81.0295 260.9 80.967C260.766 80.9045 260.657 80.7961 260.595 80.6611C260.533 80.5261 260.521 80.3733 260.561 80.2301ZM251.193 85.1409C250.533 85.8704 251.61 87.1196 252.15 85.922C252.535 85.0652 251.506 84.7967 251.193 85.1409Z" fill="#C6DEF6"/>
<path d="M259.463 96.9478L229.117 96.9891L259.463 96.9478Z" fill="#DDF8FF"/>
<path d="M259.473 97.1272C258.228 97.4024 256.962 97.5705 255.688 97.6296C254.425 97.695 253.158 97.695 251.902 97.7259C249.373 97.7844 246.844 97.7982 244.331 97.8188C241.819 97.8395 239.273 97.7982 236.761 97.7466C235.498 97.7191 234.231 97.7225 232.975 97.6606C231.702 97.605 230.435 97.4403 229.19 97.1684V96.8243C230.435 96.5495 231.701 96.3814 232.975 96.3219C234.242 96.2565 235.505 96.2565 236.761 96.2255C239.286 96.167 241.816 96.1533 244.331 96.1326C246.847 96.112 249.39 96.1533 251.902 96.2049C253.169 96.2324 254.432 96.229 255.688 96.2909C256.961 96.347 258.228 96.5116 259.473 96.783V97.1272Z" fill="#2FB41F"/>
<path d="M244.39 104.46L229.117 104.498L244.39 104.46Z" fill="#DDF8FF"/>
<path d="M244.39 104.639C243.786 104.909 243.142 105.078 242.483 105.142C241.847 105.207 241.21 105.207 240.574 105.238C239.3 105.29 238.027 105.327 236.754 105.331C235.48 105.334 234.211 105.303 232.937 105.255C232.301 105.228 231.664 105.231 231.027 105.169C230.368 105.11 229.723 104.943 229.117 104.677V104.333C229.722 104.063 230.365 103.893 231.024 103.831C231.661 103.765 232.297 103.769 232.934 103.734C234.207 103.683 235.477 103.648 236.75 103.641C238.024 103.634 239.297 103.669 240.57 103.717C241.207 103.744 241.843 103.741 242.48 103.803C243.139 103.863 243.784 104.029 244.39 104.295V104.639Z" fill="#2FB41F"/>
<path d="M40.2631 116.859H224.812V120.177C224.812 121.961 224.104 123.672 222.842 124.934C221.58 126.195 219.869 126.904 218.085 126.904H45.6762C44.9644 126.903 44.2598 126.762 43.6026 126.489C42.9453 126.216 42.3483 125.816 41.8457 125.312C41.343 124.808 40.9446 124.21 40.673 123.552C40.4015 122.894 40.2622 122.189 40.2631 121.477V116.859Z" fill="#2271B1"/>
<path d="M144.727 121.88H120.352C119.802 121.881 119.257 121.773 118.749 121.562C118.241 121.352 117.779 121.044 117.39 120.655C117.001 120.266 116.692 119.804 116.482 119.295C116.272 118.787 116.164 118.242 116.164 117.692V116.856H148.911V117.692C148.912 118.242 148.804 118.787 148.594 119.295C148.384 119.803 148.076 120.264 147.687 120.653C147.298 121.042 146.837 121.351 146.329 121.561C145.821 121.772 145.277 121.88 144.727 121.88Z" fill="#01263A"/>
</g>
</svg>
