<svg xmlns="http://www.w3.org/2000/svg" viewBox="0 0 784.59 368.76"><defs><style>.cls-1{fill:#74dcfc}.cls-2{fill:#c2f4ff}.cls-3{fill:#00a6db}.cls-4{fill:#fff}.cls-5{fill:#00be28}.cls-6{fill:#c8d7e2}.cls-7{fill:#004f84}.cls-8{fill:#00a9de}.cls-9{fill:#f3f6f8}.cls-10{fill:#ddf8ff}.cls-11{fill:#0084c0}</style></defs><title>Asset 28</title><g id="Layer_2" data-name="Layer 2"><g id="Layer_1-2" data-name="Layer 1"><path class="cls-1" d="M187.08 0h419.43v341.62H164.32V22.76A22.76 22.76 0 0 1 187.08 0z"/><path class="cls-2" d="M192 312.64V83.67h390.36v228.97H213.1"/><path class="cls-3" d="M192 82.52V28.9h390.36v53.62H213.1"/><path class="cls-4" d="M552.61 139.11v173.53H435.44V119.86h117.17M388.97 312.43H224.25v-88.32h181.4v88.32"/><path class="cls-5" d="M272 312.64h-20.36v-20.37a5.1 5.1 0 0 1 5.11-5.1H272zM306.86 312.64h-20.34V283a5.11 5.11 0 0 1 5.11-5.11h15.23zM341.74 312.64h-20.35v-43a5.11 5.11 0 0 1 5.11-5.11h15.24zM359.91 312.64h20.34v-49.39a5.46 5.46 0 0 0-5.46-5.46h-14.88z"/><path class="cls-4" d="M388.97 197.12H224.25v-78.36h181.4v78.36"/><path class="cls-1" d="M529.71 242.52c-19.56 0-22.15 8.45-26.34 17.85-3.33 7.48-15 12.76-27.76 15.3-13 2.59-17.29 12.67-17.29 20.39h72z"/><path class="cls-5" d="M463.54 196.13l29.6-44.36 33.85 43.63"/><path class="cls-6" d="M346.2 197.14c-.66-2.73-1.13-5.48-1.54-8.24s-.73-5.52-1-8.28l-.77-8.3-.64-8.31c-.36-5.54-.66-11.09-.94-16.64s-.41-11.1-.23-16.69a.67.67 0 0 1 1.33-.09c1 5.5 1.62 11 2.16 16.55s1 11.06 1.45 16.6l.56 8.31.43 8.33c.12 2.77.2 5.55.19 8.34s-.08 5.57-.34 8.38a.34.34 0 0 1-.37.3.33.33 0 0 1-.29-.26z"/><path class="cls-6" d="M346.23 197.27a66.21 66.21 0 0 1-3.94-5.73c-1.22-2-2.36-4-3.47-6l-3.26-6.07-3.13-6.14q-3-6.18-6-12.43c-1.94-4.17-3.79-8.38-5.34-12.75a.67.67 0 0 1 .41-.85.67.67 0 0 1 .78.25c2.59 3.84 4.87 7.84 7.07 11.88s4.33 8.11 6.43 12.2l3.07 6.17 2.95 6.23c1 2.09 1.9 4.19 2.74 6.34a66.27 66.27 0 0 1 2.27 6.58.34.34 0 0 1-.6.3z"/><path class="cls-6" d="M346.29 197.36c-2.39-1.71-4.66-3.56-6.88-5.45s-4.39-3.84-6.52-5.82l-6.35-6-6.25-6.09q-6.19-6.15-12.29-12.4c-4.05-4.18-8-8.43-11.78-12.92a.67.67 0 0 1 .94-1c4.56 3.65 8.88 7.56 13.13 11.53s8.46 8 12.64 12.05l6.21 6.14 6.1 6.24q3 3.13 5.95 6.41c1.93 2.18 3.82 4.42 5.57 6.78a.34.34 0 0 1-.07.47.35.35 0 0 1-.4.06z"/><path class="cls-6" d="M346.4 197.43a53.41 53.41 0 0 1-6.2-1.52c-2-.59-4-1.28-6-2l-5.91-2.22-5.87-2.35c-3.89-1.62-7.75-3.3-11.61-5a122.08 122.08 0 0 1-11.33-5.66.68.68 0 0 1-.25-.92.66.66 0 0 1 .75-.31 121.94 121.94 0 0 1 12.02 3.86c3.94 1.48 7.88 3 11.79 4.53l5.84 2.42 5.79 2.54c1.92.87 3.83 1.77 5.7 2.76a52.74 52.74 0 0 1 5.49 3.25.33.33 0 0 1 .09.47.34.34 0 0 1-.3.15z"/><path class="cls-6" d="M363.32 137.55c-.25 2.61-.67 5.17-1.16 7.71s-1.05 5.06-1.66 7.57l-1.89 7.5-2 7.47q-2.11 7.44-4.36 14.84c-1.51 4.93-3.11 9.84-5.05 14.66a.67.67 0 0 1-1.28-.36c.8-5.12 1.94-10.16 3.18-15.17s2.54-10 3.87-15l2.09-7.45 2.23-7.41c.76-2.46 1.56-4.92 2.45-7.35s1.84-4.84 3-7.2a.34.34 0 0 1 .64.17z"/><path class="cls-6" d="M384.35 147.67c-1.2 2.34-2.54 4.58-4 6.77s-2.86 4.34-4.37 6.45l-4.55 6.32-4.67 6.22q-4.74 6.18-9.59 12.26c-3.24 4.05-6.56 8.05-10.16 11.83a.68.68 0 0 1-.95 0 .67.67 0 0 1-.11-.83c2.66-4.49 5.6-8.78 8.61-13s6.09-8.41 9.19-12.57l4.72-6.18 4.84-6.1c1.62-2 3.28-4 5-6s3.51-3.85 5.44-5.64a.34.34 0 0 1 .48 0 .35.35 0 0 1 .12.47z"/><path class="cls-6" d="M394.43 167.42A67 67 0 0 1 389 172c-1.88 1.43-3.8 2.78-5.75 4.09l-5.88 3.9-5.94 3.78q-6 3.69-12.07 7.28c-4.05 2.38-8.16 4.67-12.45 6.67a.66.66 0 0 1-.89-.32.67.67 0 0 1 .18-.8c3.67-3 7.52-5.7 11.42-8.32s7.84-5.18 11.8-7.71l6-3.72 6.06-3.6c2-1.18 4.08-2.33 6.18-3.4a66.44 66.44 0 0 1 6.47-3 .35.35 0 0 1 .44.2.34.34 0 0 1-.14.37z"/><path class="cls-7" d="M595.59 83.35c-17.31 1.45-34.62 2.14-51.93 2.58s-34.63.49-51.94.71c-34.63.45-69.26.69-103.89 1s-69.27.26-103.9.19c-17.31 0-34.63 0-52-.13s-34.63-.75-51.95-2V84c17.3-1.45 34.62-2.14 51.93-2.58s34.63-.49 51.94-.71c34.63-.45 69.26-.69 103.89-1 34.63-.12 69.26-.26 103.9-.19 17.31 0 34.63 0 51.94.13s34.64.75 52 2z"/><rect class="cls-8" x="-48.44" y="191.94" width="225.27" height="128.39" rx="15.88" ry="15.88" transform="rotate(90 64.195 256.135)"/><path class="cls-4" d="M8.72 168.42h111v162.95h-111z"/><path class="cls-7" d="M8.67 167.9h111.06v22.66H8.67z"/><path class="cls-9" d="M8.67 312.07h111.06v19.71H8.67z"/><path class="cls-1" d="M25.61 278.48h19.23v27.21H25.61zM54.58 263.67h19.23v42.02H54.58zM83.55 242.29h19.23v63.4H83.55z"/><path class="cls-5" d="M25.61 294.02h19.23v11.68H25.61zM54.58 287.66h19.23v18.03H54.58zM83.55 278.48h19.23v27.21H83.55z"/><path class="cls-10" d="M22.46 231.75l29.97-.06"/><path class="cls-8" d="M22.45 231.13a8.38 8.38 0 0 1 3.75-1.7c1.25-.22 2.5-.23 3.74-.34 2.5-.16 5-.28 7.5-.29s5 .11 7.49.26c1.25.1 2.5.11 3.75.32a8.35 8.35 0 0 1 3.75 1.69v1.24a8.43 8.43 0 0 1-3.74 1.69c-1.25.22-2.5.22-3.75.33-2.49.16-5 .28-7.49.29s-5-.11-7.5-.25c-1.24-.11-2.49-.11-3.74-.33a8.35 8.35 0 0 1-3.75-1.69z"/><path class="cls-10" d="M22.46 213.11c44.25-.85 55.63-.16 74.63-.16"/><path class="cls-8" d="M22.44 212.5a40.79 40.79 0 0 1 9.31-1.87c3.11-.27 6.22-.31 9.33-.44 6.22-.25 12.45-.41 18.69-.42s12.47.15 18.69.39c3.11.14 6.22.17 9.32.42a42.51 42.51 0 0 1 9.31 1.75v1.24a39.74 39.74 0 0 1-9.35 1.64c-3.12.2-6.23.15-9.34.21q-9.33.15-18.63.19c-6.2 0-12.41-.07-18.63-.16-3.1-.07-6.21 0-9.32-.18a41.22 41.22 0 0 1-9.35-1.54z"/><rect class="cls-8" x="586.75" y="171.15" width="256.45" height="138.79" rx="15.88" ry="15.88" transform="rotate(90 714.98 240.54)"/><path class="cls-2" d="M645.59 154.19h138.79v172.14H645.59z"/><path class="cls-4" d="M645.59 179.69h139v146.72h-139z"/><path class="cls-2" d="M723.9 228.13c-3.06 13-15.27 21.21-28.81 16.72-12.66-4.19-19.76-13.75-18.44-27 1.49-14.9 15.18-21.74 28.28-19.22 13.68 2.62 22.07 16.52 18.97 29.5z"/><path class="cls-5" d="M676.61 241.59a12.53 12.53 0 0 0-1.23 2.7 3.92 3.92 0 0 0 0 2.55c.53 1.3 2.57 1.2 4.33.67A24.28 24.28 0 0 0 685 245a51.24 51.24 0 0 0 5-3.36 97.56 97.56 0 0 0 9.24-7.92c3-2.79 5.82-5.74 8.6-8.74s5.46-6.07 8-9.27a66.4 66.4 0 0 0 6.65-10.07 26.87 26.87 0 0 0 2.17-5.4 9 9 0 0 0 .33-2.66 3.15 3.15 0 0 0-.66-2c-.83-1-2.88-1-4.68-.41a22.45 22.45 0 0 0-5.39 2.5.63.63 0 0 1-.73-1 21 21 0 0 1 5.49-3.34 9.55 9.55 0 0 1 3.35-.75 5.13 5.13 0 0 1 3.69 1.27 5.57 5.57 0 0 1 1.6 3.57 11.46 11.46 0 0 1-.23 3.49 26.79 26.79 0 0 1-2.18 6.16 65.79 65.79 0 0 1-6.72 10.75c-2.51 3.37-5.23 6.55-8 9.64a118.7 118.7 0 0 1-18.62 16.81c-3.47 2.37-7.16 4.63-11.56 5.59a9.2 9.2 0 0 1-3.52.07 4.51 4.51 0 0 1-1.81-.81 3.54 3.54 0 0 1-1.15-1.73 5.32 5.32 0 0 1 .52-3.51 10.85 10.85 0 0 1 1.85-2.65.31.31 0 0 1 .44 0 .3.3 0 0 1 .06.39z"/><path class="cls-2" d="M741.21 207.54c-2.76.77-1.93 3.78.7 3s2.09-3.77-.7-3zM755.88 211.57c-2.86.12-1.93 3.77.7 3s.65-3.06-.7-3zM741.06 230.54c1.07-2.65 4.2-.54 2.62 1.68s-3.13-.43-2.62-1.68zM757.16 233.14c1.07-2.65 5.71-1.41 3.26 1.51a1.82 1.82 0 0 1-3.26-1.51zM729.94 247.41c-1.92 2.12 1.21 5.75 2.78 2.27 1.12-2.49-1.87-3.27-2.78-2.27z"/><path class="cls-10" d="M753.97 281.72l-88.18.12"/><path class="cls-5" d="M754 282.24a64.91 64.91 0 0 1-11 1.46c-3.67.19-7.35.19-11 .28-7.35.17-14.7.21-22 .27s-14.7-.06-22-.21c-3.67-.08-7.35-.07-11-.25a64.84 64.84 0 0 1-11-1.43v-1a65.17 65.17 0 0 1 11-1.46c3.68-.19 7.35-.19 11-.28 7.34-.17 14.69-.21 22-.27s14.7.06 22 .21c3.68.08 7.35.07 11 .25a65.1 65.1 0 0 1 11 1.43z"/><path class="cls-10" d="M710.17 303.55l-44.38.11"/><path class="cls-5" d="M710.17 304.07a17.79 17.79 0 0 1-5.54 1.46c-1.85.19-3.7.19-5.55.28-3.7.15-7.4.26-11.1.27s-7.39-.08-11.09-.22c-1.85-.08-3.7-.07-5.55-.25a17.78 17.78 0 0 1-5.55-1.43v-1a17.72 17.72 0 0 1 5.54-1.46c1.85-.19 3.7-.18 5.55-.28 3.7-.15 7.39-.25 11.09-.27s7.4.08 11.1.22c1.85.08 3.7.07 5.55.25a17.78 17.78 0 0 1 5.55 1.43z"/><path class="cls-11" d="M117 339.58h536.28v9.64a19.55 19.55 0 0 1-19.55 19.55h-501A15.75 15.75 0 0 1 117 353v-13.42z"/><path class="cls-7" d="M420.56 354.17h-70.83A12.16 12.16 0 0 1 337.56 342v-2.43h95.16V342a12.16 12.16 0 0 1-12.16 12.17z"/></g></g></svg>