<svg id="Layer_1" xmlns="http://www.w3.org/2000/svg" viewBox="0 0 339 176" enable-background="new 0 0 339 176"><style>.st0{fill:#e8eef3}.st1{fill:#fff}.st2{fill:#CCCED0}.st3{fill:none;stroke:#BBC9D5;stroke-width:.999;stroke-linecap:round;stroke-linejoin:round}.st4{fill:#BBC9D5}.st5{fill:none;stroke:#204A69;stroke-width:.999;stroke-linecap:round;stroke-linejoin:round}.st6{fill:#204A69}.st7{fill:none;stroke:#6F93AD;stroke-width:.999;stroke-linecap:round;stroke-linejoin:round}.st8{fill:#6F93AD}.st9{filter:url(#Adobe_OpacityMaskFilter)}.st10{mask:url(#b_2_);fill:#BBC9D5}.st11{fill:#204A69}.st12,.st13{fill:none;stroke:#fff;stroke-width:.999;stroke-linecap:round;stroke-linejoin:round}.st13{stroke:#204A69;stroke-width:1.1039}.st14{fill:#F6F6F6}.st15,.st16{fill:none;stroke:#CCCED0;stroke-width:2.2898;stroke-linecap:round;stroke-linejoin:round}.st16{stroke-dasharray:5.8259,5.8259}.st17{fill:#CCCED0}.st18{fill:#e1e7ee}.st19,.st20,.st21{fill:none;stroke:#fff;stroke-width:2.2898;stroke-linecap:round;stroke-linejoin:round}.st20,.st21{stroke-dasharray:5.2783,5.2783}.st21{stroke-dasharray:6.0301,6.0301}.st22{fill:#00be28}.st23{opacity:.26;fill:#969CA1}</style><title>Page 1</title><path class="st0" d="M13.3 17.5c2.7-.1 5.4-.2 8.1-.2 2.7-.1 5.4-.1 8.1-.1l-.5.4c.8-2.5 1.9-4.9 3.4-7.1 1.5-2.2 3.4-4.3 6-5.4 5.5-2.3 12.2 1.2 13.5 6.8.1.7.2 1.4 0 2.2-.2.7-.6 1.5-1.3 2-.7.5-1.6.6-2.3.6-.7 0-1.7-.2-2.3-.9-.6-.8-.6-1.7-.3-2.4.2-.7.7-1.3 1.2-1.9 1-1.1 2.3-1.8 3.6-2.2 1.4-.4 2.8-.6 4.2-.4 1.4.1 2.9.6 4 1.5s1.8 2.3 2.1 3.6c.3 1.3.4 2.7.2 4l-.5-.6c5.8 0 11.7.1 17.5.3.1 0 .2.1.2.2s-.1.2-.2.2c-6-.1-11.8 0-17.7.1-.3 0-.5-.2-.6-.5v-.1c.2-2.4-.2-5.1-2-6.6-.9-.7-2.1-1.1-3.3-1.2-1.2-.1-2.5 0-3.7.4-1.2.4-2.3 1-3 1.9-.4.4-.7.9-.9 1.4-.2.5-.1 1 .1 1.2.4.6 2.1.6 2.8.1.8-.5 1-1.7.7-2.8-.5-2.3-2.2-4.3-4.4-5.4-1.1-.6-2.3-.9-3.6-1-1.2 0-2.5 0-3.6.6-2.3.8-4.1 2.7-5.5 4.8-1.4 2.1-2.6 4.4-3.4 6.8-.1.2-.3.3-.5.3-2.7 0-5.4-.1-8.1-.1-2.7 0-5.4-.2-8.1-.2-.1 0-.1-.1-.1-.1.1-.1.1-.2.2-.2"/><path class="st1" d="M153 163s71-46.3 181.8-50M153 145c10.6 4 17 7 17 7"/><path class="st2" d="M153.1 162.8c3.3-2.1 6.8-4.2 10.3-6.1 1.7-1 3.5-1.9 5.3-2.8 1.8-.9 3.5-1.8 5.3-2.7 3.6-1.7 7.2-3.5 10.8-5 3.6-1.6 7.3-3.2 11-4.7l5.6-2.2c1.8-.7 3.7-1.4 5.6-2 3.8-1.3 7.5-2.8 11.3-3.9l11.4-3.6 11.5-3.2 2.9-.8 2.9-.7 5.8-1.4c3.9-.9 7.7-1.9 11.7-2.6l11.7-2.3c3.9-.7 7.9-1.2 11.8-1.8 7.9-1.3 15.8-1.9 23.8-2.7 2-.2 4-.4 6-.5l6-.3 11.9-.5c.1 0 .3.1.3.2s-.1.2-.2.3l-11.9.8c-4 .3-7.9.4-11.9.9-7.9.9-15.8 1.6-23.7 3-3.9.6-7.9 1.1-11.8 1.8l-11.7 2.3c-3.9.7-7.8 1.7-11.6 2.6l-5.8 1.4-2.9.7-2.9.8L230 131c-3.8 1.1-7.6 2.4-11.4 3.6-3.8 1.1-7.5 2.6-11.3 3.9-1.9.7-3.8 1.3-5.6 2l-5.5 2.2c-1.8.7-3.7 1.4-5.5 2.2l-5.5 2.3c-3.7 1.5-7.3 3.2-10.9 4.8-1.8.8-3.6 1.7-5.4 2.6-1.8.9-3.6 1.8-5.3 2.7-3.5 1.8-7 3.7-10.4 5.7h-.2c0-.1 0-.2.1-.2"/><path class="st2" d="M153.2 145c1.6.3 3.1.8 4.7 1.3l4.5 1.8c2.9 1.3 5.9 2.6 8.6 4.4.1.1.2.2.1.4-.1.1-.2.1-.3.1-3.1-1-6-2.3-8.9-3.5-1.5-.6-2.9-1.3-4.4-1.9-1.5-.7-2.9-1.4-4.3-2.3-.1 0-.1-.1 0-.2-.1-.1-.1-.1 0-.1"/><path class="st1" d="M.2 131c23-8.9 49.7-9.4 74.9-6.1"/><path class="st2" d="M.2 130.8c5.8-2.7 12-4.5 18.3-5.9 6.3-1.3 12.7-2.2 19.1-2.6 12.8-.7 25.7-.1 38.3 2 .1 0 .2.1.2.3 0 .1-.1.2-.3.2-12.7-1.2-25.5-2-38.2-1.1-6.3.4-12.7 1.1-18.9 2.4-6.2 1.2-12.4 2.9-18.4 4.9-.1 0-.1 0-.2-.1.1 0 .1-.1.1-.1"/><path class="st1" d="M77.3 147l-.2-125.9M246.9 27.1V145H101.1"/><path class="st0" d="M1.4 174.2c28.1-.7 56.2-.9 84.2-1.1l84.2-.2c56.2.2 112.3.1 168.5 1 .3 0 .5.2.5.5s-.2.5-.5.5c-56.2.9-112.3.8-168.5 1l-84.2-.2c-28.1-.2-56.2-.3-84.2-1.1-.1 0-.2-.1-.2-.3 0 .1.1-.1.2-.1"/><path class="st2" d="M281.8 61.1l-1.2-4.2c-3.6.5-5.1-1.4-6.4-4.5-.4-.9-2.1-.7-2.3-1.7-.2-1.3 1.9-2.2 1.8-4.9 0-1.5.3-3.4 1.7-3.7 0 0 6.8 2.8 10.2 6.3 1.5 4.1 2.4 6 2.4 6l1.8 4.2-8 2.5z"/><path class="st1" d="M58.9 118.2c5.7 10.4 6.6 14.6 5.7 20.6-.9 6-6.9 13.7-6.9 13.7"/><path class="st3" d="M58.9 118.2c5.7 10.4 6.6 14.6 5.7 20.6-.9 6-6.9 13.7-6.9 13.7"/><path class="st4" d="M43.1 76.1c-1.6 8.8-1.9 25.3-1.9 25.3l17 .7s3.3-19 1.4-22.5"/><path class="st1" d="M61.1 65.8c1.4 12-3.9 16.1-5.6 13.8"/><path class="st3" d="M61.1 65.8c1.4 12-3.9 16.1-5.6 13.8"/><path class="st1" d="M62 49.2c1.3.8 2.2 2.1 2.4 3.7.4 2.8 2.7 3.5 2.7 4.9 0 1.1-1.9 1.2-2.1 2.2-1 3.4-3.6 5.9-7.5 5.9"/><path class="st5" d="M62 49.2c1.3.8 2.2 2.1 2.4 3.7.4 2.8 2.7 3.5 2.7 4.9 0 1.1-1.9 1.2-2.1 2.2-1 3.4-3.6 5.9-7.5 5.9m4.6-4.8c.5 1.4 2 2 2 2"/><path class="st6" d="M63.5 57.1c-.2 0-.4-.3-.4-.6v-.9c0-.3.2-.5.4-.5s.4.3.4.6v.9c0 .3-.2.5-.4.5m-17 14.1c4.7-2 14.3 16 14.3 16l9.8-16.1 5.5 2.2S71.1 96 61.5 97C52 98 44.3 83.5 44.3 83.5s-3.8-9.7 2.2-12.3"/><path class="st1" d="M42.1 101.2c-4.4 11 .7 73.8.7 73.8h12.8s6.4-60.3 1.9-73.1"/><path class="st3" d="M42.1 101.2c-4.4 11 .7 73.8.7 73.8h12.8s6.4-60.3 1.9-73.1m4.6-52.8c-3.2 2.6-3.5 9.1-4.1 11.9-.8 3.6-2 6.9 1.3 7.1"/><path class="st1" d="M44.9 65.8c-3.3-7.1.3-19 7.9-20.5 2.5-.5 5.6.7 7.1 1.2"/><path class="st3" d="M44.9 65.8c-3.3-7.1.3-19 7.9-20.5 2.5-.5 5.6.7 7.1 1.2M40.2 152l-8.1 11.1 10 10.9"/><path class="st1" d="M70.1 72.6c.3-3.7 1.8-14.4 3.5-13.7 1.7.7.3 5.9.8 7.7.5 1.7 1.2 4.2-.2 7.3"/><path class="st5" d="M70.1 72.6c.3-3.7 1.8-14.4 3.5-13.7 1.7.7.3 5.9.8 7.7.5 1.7 1.2 4.2-.2 7.3m1.9-7.2s.7-2 1-1.5c.3.5-.7 2.9-.7 2.9"/><path class="st1" d="M51.6 60.1c0 3.4 1.4 6.4 3 7.1"/><path class="st3" d="M51.6 60.1c0 3.4 1.4 6.4 3 7.1m-10.5 41.9l4 7"/><path class="st1" d="M47.1 59.3c-2.2 8.3-.8 19.8 7.9 18.5"/><path class="st3" d="M47.1 59.3c-2.2 8.3-.8 19.8 7.9 18.5"/><path class="st1" d="M256.9 96.3l1.1 11.6s6.4 16.4 1.1 10.2c7.1 8.3 15.6-2 15.7-11.6.2-10.6-3.5-17.8-7.7-19.9-2.3-1.1-5.7-.1-7.5 1.7-1.9 2.1-2.9 5-2.7 8"/><path class="st7" d="M256.9 96.3l1.1 11.6s6.4 16.4 1.1 10.2c7.1 8.3 15.6-2 15.7-11.6.2-10.6-3.5-17.8-7.7-19.9-2.3-1.1-5.7-.1-7.5 1.7-1.9 2.1-2.9 5-2.7 8z"/><path class="st3" d="M263.9 81.2c-5.3-.9-7 4.9-7 4.9m3 .1c-2.1-.3-6.4-.3-6.9 2.4-.2 1 .2 2.7 1.3 3.4m7.6-7.8c2.6-2 5.6-3 7.5-.9.8.9.6 3.4-1.3 4.8"/><path class="st5" d="M302.6 120.1c-1.6 10.6 16.3 40.8 16.3 40.8l-8.2 12.2s-15.7-23-18.8-32.5m-14.3-6.7l-7.7 40.6 12.8 1.5 12.2-48"/><path class="st8" d="M286.8 64.3c-9 4.7-8.3 19-9.4 25.4-1.1 6.4-2.5 43.3-2.5 43.3l34-1.3s.9-79.3-22.1-67.4"/><path class="st4" d="M256.2 136l-6 34c-.2 1-1 1.8-2 1.9-1.8.3-4.3 1-4.3 3.2 0 .5 4.4.8 7.8.8 2.2.1 4.3-1.4 4.9-3.6l10.2-33.3"/><g transform="translate(264 133)"><defs><filter id="Adobe_OpacityMaskFilter" filterUnits="userSpaceOnUse" x=".1" y="1.2" width="25.3" height="41.8"><feColorMatrix values="1 0 0 0 0 0 1 0 0 0 0 0 1 0 0 0 0 0 1 0"/></filter></defs><mask maskUnits="userSpaceOnUse" x=".1" y="1.2" width="25.3" height="41.8" id="b_2_"><g class="st9"><path id="a_2_" class="st1" d="M.1 1.2h25.3V43H.1V1.2z"/></g></mask><path class="st10" d="M.1 6.4L18.6 35c.6.9.5 2-.2 2.7-1.1 1.4-2.4 3.7-1 5.2.4.4 3.7-2.5 6.2-4.8 1.7-1.5 2.1-3.9 1.2-6L9.9 1.2"/></g><path class="st11" d="M253.9 66.7l2.8 8.2c.7 2.1 2.9 3.4 5.2 3.1l7-1.1c0 .1-3.8-13.9-15-10.2"/><path class="st5" d="M275.9 52.1c-.3 1.4-1 2-1 2"/><path class="st1" d="M258 107.5l-7.1 48.5 40-4.8-16.4-45.2-16.5 1.5z"/><path class="st7" d="M258 107.5l-7.1 48.5 40-4.8-16.4-45.2-16.5 1.5z"/><path class="st4" d="M263.1 89.3c-4 1.5-.5 20-.5 20l-3.6 16.3 1.3.3c2.9.7 5.7-1.1 6.6-3.9l3.1-11.2c-.1 0-.1-24.1-6.9-21.5"/><path class="st5" d="M295.4 74.1c1.9 13.9 2.8 17.7-2.7 26.4-2.7 4.3-7.8 9.6-7.8 9.6m1-31s-.1 5.5 0 8m-2 3.5l4-.5m-6 2l2 .9"/><path class="st12" d="M277.9 103.1l10 12"/><path class="st5" d="M281.9 95.1l-4 8m5-55l-12-3m.6-2l-.6 4m5-7c.2 4.2 7.3 5.5 9.5 8.4 2.2 3 1.4 5.5 1.4 5.5m-7.9-13.7c2.1-3.2 10.8-2.9 13.6 1.6 3.4 5.6-.6 14.2-.6 14.2"/><path class="st7" d="M292.9 58.1l-13 4.1 1.1 3.9"/><path class="st5" d="M275.5 42.1c-1.1.9-1.8 2.2-1.7 3.7 0 2.7-2 3.6-1.8 4.9.1 1 1.9.9 2.3 1.7 1.4 3 2.9 5 6.5 4.5l1.2 4.2"/><path class="st11" d="M265.9 69.1h-2v-2c0-1.1.9-2 2-2s2 .9 2 2-.9 2-2 2"/><path class="st1" d="M253.6 67.3c-1.6.7-2.2 1.8-2.4 3.2-.3 2.6-2.5 3.2-2.5 4.5 0 1 1.7 1.1 2 2 .9 3.2 3.3 5.5 6.9 5.5"/><path class="st5" d="M253.6 67.3c-1.6.7-2.2 1.8-2.4 3.2-.3 2.6-2.5 3.2-2.5 4.5 0 1 1.7 1.1 2 2 .9 3.2 3.3 5.5 6.9 5.5"/><path class="st13" d="M253.9 79.1c-1 .5-2 .5-2 .5"/><path class="st11" d="M253 67.1c-1 1.5-2.1 3.5-2.1 3.5l5 .5-.3-2.6-2.6-1.4"/><path class="st6" d="M253.4 76.1c.2 0 .4-.3.4-.6v-.9c0-.3-.2-.5-.4-.5s-.4.3-.4.6v.9c0 .3.1.5.4.5"/><g><path class="st1" d="M192.5 74.2h-1.4"/><path class="st14" d="M192.5 74.3c-.1.3-.2.3-.3.4-.1 0-.2.1-.3.1-.2 0-.5 0-.7-.3-.1-.1-.1-.3 0-.4.2-.3.5-.3.7-.3.1 0 .2 0 .3.1.1 0 .2.1.3.4.1-.2.1-.1 0 0z"/><path class="st1" d="M192.5 81.1h-1.4"/><path class="st14" d="M192.5 81.2c-.1.3-.2.3-.3.4-.1 0-.2.1-.3.1-.2 0-.5 0-.7-.3-.1-.1-.1-.3 0-.4.2-.3.5-.3.7-.3.1 0 .2 0 .3.1.1 0 .2.1.3.4.1-.1.1 0 0 0z"/><path class="st1" d="M192.5 83.7h-1.4"/><path class="st14" d="M192.5 83.8c-.1.3-.2.3-.3.4-.1 0-.2.1-.3.1-.2 0-.5 0-.7-.3-.1-.1-.1-.3 0-.4.2-.3.5-.3.7-.3.1 0 .2 0 .3.1.1 0 .2.1.3.4.1-.1.1-.1 0 0z"/><g><path class="st1" d="M192.5 90.9h-1.4"/><path class="st14" d="M192.5 91c-.1.3-.2.3-.3.4-.1 0-.2.1-.3.1-.2 0-.5 0-.7-.3-.1-.1-.1-.3 0-.4.2-.3.5-.3.7-.3.1 0 .2 0 .3.1.1 0 .2.1.3.4.1-.1.1 0 0 0z"/></g><g><path class="st1" d="M192.5 97.9h-1.4"/><path class="st14" d="M192.5 97.9c-.1.3-.2.3-.3.4-.1 0-.2.1-.3.1-.2 0-.5 0-.7-.3-.1-.1-.1-.3 0-.4.2-.3.5-.3.7-.3.1 0 .2 0 .3.1.1 0 .2.1.3.4.1-.1.1 0 0 0z"/></g><g><path class="st1" d="M192.5 104.4h-1.4"/><path class="st14" d="M192.5 104.5c-.1.3-.2.3-.3.4-.1 0-.2.1-.3.1-.2 0-.5 0-.7-.3-.1-.1-.1-.3 0-.4.2-.3.5-.3.7-.3.1 0 .2 0 .3.1.1 0 .2.1.3.4.1-.1.1-.1 0 0z"/></g><g><path class="st1" d="M74.7 27.4l-.3-8.9v-5.9c0-5.2 4.2-9.4 9.4-9.4h138.8c5.2 0 9.4 4.2 9.4 9.4v14.9"/><path class="st15" d="M74.7 27.4l-.1-2.8"/><path class="st16" d="M74.4 18.7V12.6c0-5.2 4.2-9.4 9.4-9.4h138.8c5.2 0 9.4 4.2 9.4 9.4v9.1"/><path class="st15" d="M232 24.6v2.8"/><path class="st1" d="M239.8 28.6H66.6"/><path class="st17" d="M239.8 28.9c-3.6.2-7.2.4-10.8.5l-5.4.2-5.4.1c-7.2.1-14.4.1-21.7.1l-43.3.2-43.3-.2c-7.2 0-14.4 0-21.7-.1l-5.4-.1-5.4-.2c-3.6-.1-7.2-.3-10.8-.5v-.6c3.6-.2 7.2-.4 10.8-.5l5.4-.2 5.4-.1c7.2-.1 14.4-.1 21.7-.1l43.3-.2 43.3.2c7.2 0 14.4 0 21.7.1l5.4.1 5.4.2c3.6.1 7.2.3 10.8.5v.6z"/><path class="st1" d="M94.1 76.5h65.7v42.3H94.1zM159.8 64.3H94.1V55c0-6.7 5.5-12.2 12.2-12.2h53.5v21.5z"/><path class="st1" d="M149.6 86c-8 0-10.7 3.7-12.4 6.7-1.6 2.9-5.1 6.8-10.6 8.2-5.5 1.4-7.8 4.7-7.8 7.8h31.1l-.3-22.7z"/><path class="st18" d="M78.2 148.3v-110h157.5v110H117.8z"/><path class="st19" d="M160.3 122.9v2.9h-2.9"/><path class="st20" d="M152.2 125.8H102"/><path class="st19" d="M99.4 125.8h-2.9v-2.9"/><path class="st21" d="M96.5 116.9V71.7"/><path class="st19" d="M96.5 68.6v-2.8h2.9"/><path class="st20" d="M104.7 65.8h50.1"/><path class="st19" d="M157.4 65.8h2.9v2.8"/><path class="st21" d="M160.3 74.7v45.2"/><path class="st1" d="M156.5 95.2h-50.1V83.8h59.4v2c.1 5.2-4.1 9.4-9.3 9.4z"/><path class="st22" d="M134.2 116.3h-27.8v-11.4h37.1v2c.1 5.2-4.1 9.4-9.3 9.4z"/><g><path class="st1" d="M225.3 138.8h-37.8V56.1c0-4.5 3.6-8.1 8.1-8.1h29.7v90.8z"/></g><circle class="st23" cx="91.9" cy="15.3" r="2.3"/><circle class="st23" cx="104.2" cy="15.3" r="2.3"/><circle class="st23" cx="116.4" cy="15.3" r="2.3"/></g></g><g><path class="st1" d="M88.1 170s-3.4-25.3-7-29c6.1 5.4 13 20.4 13 29"/><path class="st2" d="M88.7 170.8c-1-4.9-1.9-9.8-3-14.7-.5-2.4-1.1-4.9-1.7-7.3-.3-1.2-.7-2.4-1.1-3.5-.4-1.1-.9-2.3-1.6-3-.3-.3-.2-.7 0-1 .3-.2.7-.3.9 0 2.1 1.9 3.7 4.1 5.1 6.4 1.4 2.3 2.7 4.7 3.8 7.2 1.1 2.5 2 5.1 2.7 7.7.7 2.6 1.2 5.4 1.1 8.1 0 .1-.1.2-.2.2s-.2-.1-.2-.2c-.1-2.7-.8-5.3-1.6-7.9-.8-2.6-1.8-5.1-2.9-7.5-1.1-2.4-2.4-4.8-3.8-7s-3-4.4-4.9-6.1l.9-1c1 1.1 1.4 2.3 1.9 3.5.4 1.2.8 2.4 1.1 3.6.6 2.4 1.2 4.9 1.7 7.4.4 2.5.9 5 1.2 7.4.3 2.5.6 5 .8 7.5 0 .1 0 .1-.1.1 0 .2-.1.1-.1.1"/><path class="st1" d="M95 170.5s.9-20-2.9-23.5c6.5 5.1 10.7 16.6 9.9 24"/><path class="st2" d="M94.6 170.2c-.2-4-.3-8-.6-12-.1-2-.3-4-.7-5.9-.2-1-.4-1.9-.7-2.8-.3-.9-.7-1.8-1.3-2.3-.3-.3-.3-.7 0-1 .3-.3.7-.3 1 0 1.8 1.5 3.3 3.3 4.6 5.2 1.2 1.9 2.3 4 3.1 6.1.8 2.1 1.4 4.3 1.8 6.5.4 2.2.5 4.5.1 6.8 0 .1-.2.2-.3.2-.1 0-.2-.1-.2-.3.1-2.2-.1-4.4-.6-6.5-.5-2.1-1.1-4.2-2-6.3-1.7-4-4.1-7.9-7.4-10.7l1-1.1c.9.9 1.3 1.9 1.6 2.9.3 1 .5 2 .7 3 .3 2 .5 4 .6 6 .1 2 .1 4 0 6s-.2 4-.4 6c0 .1-.1.1-.1.1-.2.3-.2.2-.2.1"/></g></svg>