<svg viewBox="0 0 339 176" xmlns="http://www.w3.org/2000/svg"><g fill-rule="nonzero" fill="none"><path d="M13.3 15.5c2.7-.1 5.4-.2 8.1-.2 2.7-.1 5.4-.1 8.1-.1l-.5.4c.8-2.5 1.9-4.9 3.4-7.1 1.5-2.2 3.4-4.3 6-5.4C43.9.8 50.6 4.3 51.9 9.9c.1.7.2 1.4 0 2.2-.2.7-.6 1.5-1.3 2-.7.5-1.6.6-2.3.6-.7 0-1.7-.2-2.3-.9-.6-.8-.6-1.7-.3-2.4.2-.7.7-1.3 1.2-1.9 1-1.1 2.3-1.8 3.6-2.2 1.4-.4 2.8-.6 4.2-.4 1.4.1 2.9.6 4 1.5s1.8 2.3 2.1 3.6c.3 1.3.4 2.7.2 4l-.5-.6c5.8 0 11.7.1 17.5.3.1 0 .2.1.2.2s-.1.2-.2.2c-6-.1-11.8 0-17.7.1-.3 0-.5-.2-.6-.5v-.1c.2-2.4-.2-5.1-2-6.6-.9-.7-2.1-1.1-3.3-1.2-1.2-.1-2.5 0-3.7.4-1.2.4-2.3 1-3 1.9-.4.4-.7.9-.9 1.4-.2.5-.1 1 .1 1.2.4.6 2.1.6 2.8.1.8-.5 1-1.7.7-2.8-.5-2.3-2.2-4.3-4.4-5.4-1.1-.6-2.3-.9-3.6-1-1.2 0-2.5 0-3.6.6-2.3.8-4.1 2.7-5.5 4.8-1.4 2.1-2.6 4.4-3.4 6.8-.1.2-.3.3-.5.3-2.7 0-5.4-.1-8.1-.1-2.7 0-5.4-.2-8.1-.2-.1 0-.1-.1-.1-.1.1-.1.1-.2.2-.2" fill="#E3DFE2"/><path d="M153 161s71-46.3 181.8-50M153 143c10.6 4 17 7 17 7" fill="#FFF"/><path d="M153.1 160.8c3.3-2.1 6.8-4.2 10.3-6.1 1.7-1 3.5-1.9 5.3-2.8 1.8-.9 3.5-1.8 5.3-2.7 3.6-1.7 7.2-3.5 10.8-5 3.6-1.6 7.3-3.2 11-4.7l5.6-2.2c1.8-.7 3.7-1.4 5.6-2 3.8-1.3 7.5-2.8 11.3-3.9l11.4-3.6 11.5-3.2 2.9-.8 2.9-.7 5.8-1.4c3.9-.9 7.7-1.9 11.7-2.6l11.7-2.3c3.9-.7 7.9-1.2 11.8-1.8 7.9-1.3 15.8-1.9 23.8-2.7 2-.2 4-.4 6-.5l6-.3 11.9-.5c.1 0 .3.1.3.2s-.1.2-.2.3l-11.9.8c-4 .3-7.9.4-11.9.9-7.9.9-15.8 1.6-23.7 3-3.9.6-7.9 1.1-11.8 1.8l-11.7 2.3c-3.9.7-7.8 1.7-11.6 2.6l-5.8 1.4-2.9.7-2.9.8L230 129c-3.8 1.1-7.6 2.4-11.4 3.6-3.8 1.1-7.5 2.6-11.3 3.9-1.9.7-3.8 1.3-5.6 2l-5.5 2.2c-1.8.7-3.7 1.4-5.5 2.2l-5.5 2.3c-3.7 1.5-7.3 3.2-10.9 4.8-1.8.8-3.6 1.7-5.4 2.6-1.8.9-3.6 1.8-5.3 2.7-3.5 1.8-7 3.7-10.4 5.7h-.2c0-.1 0-.2.1-.2" fill="#E3DFE2"/><path d="M153.2 143c1.6.3 3.1.8 4.7 1.3l4.5 1.8c2.9 1.3 5.9 2.6 8.6 4.4.1.1.2.2.1.4-.1.1-.2.1-.3.1-3.1-1-6-2.3-8.9-3.5-1.5-.6-2.9-1.3-4.4-1.9-1.5-.7-2.9-1.4-4.3-2.3-.1 0-.1-.1 0-.2-.1-.1-.1-.1 0-.1" fill="#E3DFE2"/><path d="M.2 129c23-8.9 49.7-9.4 74.9-6.1" fill="#FFF"/><path d="M.2 128.8c5.8-2.7 12-4.5 18.3-5.9 6.3-1.3 12.7-2.2 19.1-2.6 12.8-.7 25.7-.1 38.3 2 .1 0 .2.1.2.3 0 .1-.1.2-.3.2-12.7-1.2-25.5-2-38.2-1.1-6.3.4-12.7 1.1-18.9 2.4-6.2 1.2-12.4 2.9-18.4 4.9-.1 0-.1 0-.2-.1.1 0 .1-.1.1-.1" fill="#E3DFE2"/><path d="M1.4 172.2c28.1-.7 56.2-.9 84.2-1.1l84.2-.2c56.2.2 112.3.1 168.5 1 .3 0 .5.2.5.5s-.2.5-.5.5c-56.2.9-112.3.8-168.5 1l-84.2-.2c-28.1-.2-56.2-.3-84.2-1.1-.1 0-.2-.1-.2-.3 0 .1.1-.1.2-.1M281.8 59.1l-1.2-4.2c-3.6.5-5.1-1.4-6.4-4.5-.4-.9-2.1-.7-2.3-1.7-.2-1.3 1.9-2.2 1.8-4.9 0-1.5.3-3.4 1.7-3.7 0 0 6.8 2.8 10.2 6.3 1.5 4.1 2.4 6 2.4 6l1.8 4.2-8 2.5z" fill="#CDC9CD"/><path d="M58.9 116.2c5.7 10.4 6.6 14.6 5.7 20.6-.9 6-6.9 13.7-6.9 13.7" fill="#FFF"/><path d="M58.462 116.44c5.44 9.927 6.564 14.15 5.644 20.286-.15.998-.454 2.091-.896 3.264-.597 1.58-1.428 3.262-2.436 4.994a53.076 53.076 0 0 1-3.174 4.82c-.141.19-.242.322-.294.389a.5.5 0 1 0 .788.614 48.59 48.59 0 0 0 1.11-1.522 54.063 54.063 0 0 0 2.434-3.799c1.033-1.776 1.888-3.507 2.506-5.143.466-1.235.789-2.395.95-3.469.958-6.387-.22-10.813-5.756-20.914a.5.5 0 1 0-.876.48z" fill="#2FB41F"/><path d="M43.1 74.1c-1.6 8.8-1.9 25.3-1.9 25.3l17 .7s3.3-19 1.4-22.5" fill="#C6DEF6"/><path d="M61.1 63.8c1.4 12-3.9 16.1-5.6 13.8" fill="#FFF"/><path d="M60.604 63.858c.619 5.303-.046 9.445-1.568 11.945-1.145 1.88-2.504 2.352-3.134 1.5a.5.5 0 1 0-.804.594c1.164 1.574 3.333.82 4.791-1.575 1.65-2.71 2.35-7.072 1.707-12.58a.5.5 0 1 0-.992.116z" fill="#2FB41F"/><path d="M62 47.2c1.3.8 2.2 2.1 2.4 3.7.4 2.8 2.7 3.5 2.7 4.9 0 1.1-1.9 1.2-2.1 2.2-1 3.4-3.6 5.9-7.5 5.9" fill="#FFF"/><path d="M61.738 47.625c1.208.744 1.99 1.929 2.166 3.337.173 1.209.641 2.102 1.437 3.033.021.025.832.92.989 1.136.188.26.27.464.27.669 0 .227-.17.388-.802.75l-.005.002c-.84.481-1.164.755-1.283 1.35-.995 3.377-3.546 5.498-7.01 5.498a.5.5 0 0 0 0 1c3.93 0 6.854-2.432 7.98-6.26.048-.235.232-.39.81-.721.951-.545 1.31-.881 1.31-1.619 0-.443-.16-.839-.461-1.256-.195-.268-1.05-1.212-1.039-1.199-.682-.798-1.064-1.526-1.206-2.516-.213-1.704-1.17-3.154-2.632-4.054a.5.5 0 0 0-.524.85z" fill="#2271B1"/><path d="M61.63 59.268c.21.59.58 1.094 1.06 1.516.454.4.906.652 1.224.78a.5.5 0 1 0 .372-.928 3.83 3.83 0 0 1-.936-.602c-.36-.317-.63-.685-.78-1.102a.5.5 0 0 0-.94.336zM63.5 55.1c-.2 0-.4-.3-.4-.6v-.9c0-.3.2-.5.4-.5s.4.3.4.6v.9c0 .3-.2.5-.4.5M46.5 69.2c4.7-2 14.3 16 14.3 16l9.8-16.1 5.5 2.2S71.1 94 61.5 95C52 96 44.3 81.5 44.3 81.5s-3.8-9.7 2.2-12.3" fill="#2271B1"/><path d="M42.1 99.2c-4.4 11 .7 73.8.7 73.8h12.8s6.4-60.3 1.9-73.1" fill="#FFF"/><path d="M43.261 172.5l-.07-.899a1020.486 1020.486 0 0 1-1.137-16.735 807.3 807.3 0 0 1-.947-19.6c-.653-18.667-.269-31.567 1.457-35.88a.5.5 0 1 0-.928-.372c-1.802 4.507-2.188 17.426-1.527 36.286a808.28 808.28 0 0 0 .948 19.626 1021.477 1021.477 0 0 0 1.138 16.752c.03.386.056.724.08 1.012l.027.35a.5.5 0 0 0 .498.46h12.8a.5.5 0 0 0 .497-.447 182.404 182.404 0 0 0 .15-1.465c.12-1.184.254-2.54.398-4.048.41-4.307.821-8.964 1.205-13.8.506-6.385.925-12.596 1.228-18.45.926-17.869.689-30.448-1.107-35.556a.5.5 0 1 0-.942.332c1.733 4.93 1.969 17.464 1.052 35.173a679.804 679.804 0 0 1-1.227 18.422 871.613 871.613 0 0 1-1.6 17.827l-.104 1.012H43.261zM61.785 46.712c-1.564 1.271-2.558 3.39-3.24 6.332-.189.817-.348 1.664-.513 2.688-.059.363-.3 1.935-.361 2.307-.057.34-.108.618-.16.856a68.2 68.2 0 0 1-.198.865c-.636 2.694-.767 3.411-.685 4.415.12 1.476.977 2.323 2.642 2.424a.5.5 0 0 0 .06-.998c-1.166-.07-1.626-.525-1.706-1.507-.07-.85.058-1.549.66-4.105.083-.35.145-.618.204-.88.055-.26.109-.551.168-.906.064-.38.305-1.956.362-2.311.162-1.004.317-1.83.5-2.623.637-2.744 1.546-4.684 2.897-5.781a.5.5 0 1 0-.63-.776z" fill="#2FB41F"/><path d="M44.9 63.8c-3.3-7.1.3-19 7.9-20.5 2.5-.5 5.6.7 7.1 1.2" fill="#FFF"/><path d="M45.353 63.59c-3.352-7.212.632-18.436 7.544-19.8.594-.119 1.26-.14 1.991-.071.977.091 2.012.33 3.196.701.284.09.563.181.904.297-.024-.008.604.207.754.257a.5.5 0 1 0 .316-.948c-.145-.048-.769-.262-.749-.255a39.382 39.382 0 0 0-.926-.304c-1.245-.39-2.343-.644-3.402-.743-.822-.077-1.583-.053-2.279.086-7.616 1.503-11.857 13.451-8.255 21.2a.5.5 0 1 0 .906-.42zM40.603 150.294a.5.5 0 0 0-.806-.588l-8.1 11.1a.5.5 0 0 0 .035.632l10 10.9a.5.5 0 1 0 .736-.676l-9.723-10.598 7.858-10.77z" fill="#2FB41F"/><path d="M70.1 70.6c.3-3.7 1.8-14.4 3.5-13.7 1.7.7.3 5.9.8 7.7.5 1.7 1.2 4.2-.2 7.3" fill="#FFF"/><path d="M73.35 57.465c-.155.176-.329.497-.508.945-.348.871-.696 2.17-1.028 3.79-.546 2.666-1.034 6.188-1.216 8.44a.5.5 0 0 1-.996-.08c.186-2.291.679-5.853 1.234-8.56.343-1.674.704-3.023 1.078-3.96.509-1.274 1.083-1.928 1.876-1.602 1.136.468 1.303 1.759 1.12 4.61l-.033.495c-.122 1.778-.131 2.435.002 2.916.877 2.981.98 4.983-.224 7.647a.5.5 0 0 1-.91-.412c1.082-2.397.992-4.18.174-6.96-.181-.651-.171-1.324-.039-3.26l.033-.49c.147-2.297.005-3.408-.5-3.62.018.007.015.012-.064.101zm2.585 7.706a.5.5 0 0 1-.306-.636 10.451 10.451 0 0 1 .335-.832 4.94 4.94 0 0 1 .278-.535c.123-.2.243-.346.393-.441a.621.621 0 0 1 .893.216c.226.375.146.932-.115 1.805-.048.162-.103.332-.162.506a18.956 18.956 0 0 1-.39 1.038.5.5 0 0 1-.922-.384 18.665 18.665 0 0 0 .277-.722.497.497 0 0 1-.281-.015z" fill="#2271B1"/><path d="M51.6 58.1c0 3.4 1.4 6.4 3 7.1" fill="#FFF"/><path d="M51.1 58.1c0 3.47 1.424 6.737 3.3 7.558a.5.5 0 1 0 .4-.916c-1.439-.63-2.7-3.526-2.7-6.642a.5.5 0 0 0-1 0zM43.666 107.348l4 7a.5.5 0 0 0 .868-.496l-4-7a.5.5 0 0 0-.868.496z" fill="#2FB41F"/><path d="M47.1 57.3c-2.2 8.3-.8 19.8 7.9 18.5" fill="#FFF"/><path d="M46.617 57.172c-1.18 4.45-1.274 9.44-.132 13.126 1.35 4.356 4.29 6.638 8.589 5.996a.5.5 0 0 0-.148-.988c-3.764.562-6.271-1.384-7.486-5.304-1.083-3.492-.992-8.293.143-12.574a.5.5 0 1 0-.966-.256z" fill="#2FB41F"/><path d="M258 105.9l16.8-1.4c.2-10.6-3.5-17.8-7.7-19.9-2.3-1.1-5.7-.1-7.5 1.7-1.9 2.1-2.9 5-2.7 8l1.1 11.6z" fill="#FFF"/><path d="M258.041 106.398l16.8-1.4a.5.5 0 0 0 .458-.489c.19-10.009-3.148-17.942-7.976-20.356-2.404-1.15-6.03-.252-8.076 1.794-2.022 2.233-3.053 5.272-2.845 8.386l1.1 11.614a.5.5 0 0 0 .54.45zm-.644-12.145c-.188-2.833.753-5.605 2.573-7.618 1.747-1.746 4.929-2.534 6.914-1.584 4.346 2.172 7.5 9.541 7.423 18.989l-15.856 1.321-1.054-11.108z" fill="#2271B1"/><g fill="#2FB41F"><path d="M259.97 83.706a.5.5 0 0 1-.14.988c-3.14-.448-6 .164-6.34 2.004-.194.968.273 2.368 1.078 2.88a.5.5 0 1 1-.536.843c-1.184-.753-1.79-2.574-1.523-3.912.322-1.741 1.918-2.639 4.027-2.888a9.547 9.547 0 0 1 1.25-2.315c1.476-2 3.532-3.051 6.198-2.598a.5.5 0 0 1-.168.984c-2.255-.382-3.957.488-5.226 2.207a8.56 8.56 0 0 0-.947 1.65c.743-.012 1.528.042 2.328.157z"/><path d="M262.205 82.596a.5.5 0 0 1-.61-.792c3.17-2.437 6.229-2.99 8.178-.836 1.14 1.282.559 4.108-1.377 5.534a.5.5 0 1 1-.592-.804c1.495-1.102 1.938-3.261 1.226-4.063-1.498-1.655-4.017-1.2-6.825.96z"/></g><path d="M283.184 174.123a.5.5 0 0 1-.542.373l-12.8-1.5a.5.5 0 0 1-.433-.59l7.7-40.6a.5.5 0 1 1 .982.187l-7.6 40.073 11.833 1.387 12.092-47.576a.5.5 0 0 1 .968.246l-3.092 12.167a.498.498 0 0 1 .083.155c1.026 3.144 3.526 8.019 7.134 14.136a260.946 260.946 0 0 0 1.954 3.255 375.045 375.045 0 0 0 6.635 10.46 389.716 389.716 0 0 0 2.6 3.911l7.612-11.325a117.881 117.881 0 0 1-.548-.945 232.947 232.947 0 0 1-1.862-3.3 243.363 243.363 0 0 1-5.65-10.811 169.19 169.19 0 0 1-3.216-6.94c-3.677-8.463-5.515-14.973-4.928-18.86a.5.5 0 1 1 .988.149c-.549 3.635 1.255 10.023 4.857 18.314.96 2.21 2.032 4.518 3.197 6.898a242.38 242.38 0 0 0 5.626 10.765 231.951 231.951 0 0 0 2.373 4.182l.183.311a.5.5 0 0 1-.015.534l-8.2 12.2a.5.5 0 0 1-.828.003l-.218-.322a390.743 390.743 0 0 1-2.807-4.216 376.021 376.021 0 0 1-6.652-10.488 261.935 261.935 0 0 1-1.961-3.268c-3.211-5.443-5.553-9.912-6.786-13.11l-8.679 34.145z" fill="#2271B1"/><path d="M286.8 62.3c-9 4.7-8.3 19-9.4 25.4-1.1 6.4-2.5 43.3-2.5 43.3l34-1.3s.9-79.3-22.1-67.4" fill="#5198D9"/><path d="M256.2 134l-6 34c-.2 1-1 1.8-2 1.9-1.8.3-4.3 1-4.3 3.2 0 .5 4.4.8 7.8.8 2.2.1 4.3-1.4 4.9-3.6l10.2-33.3" fill="#C6DEF6"/><path d="M264.1 137.4l18.5 28.6c.6.9.5 2-.2 2.7-1.1 1.4-2.4 3.7-1 5.2.4.4 3.7-2.5 6.2-4.8 1.7-1.5 2.1-3.9 1.2-6l-14.9-30.9" fill="#C6DEF6"/><path d="M257.506 105.428l-7.1 48.5a.5.5 0 0 0 .554.568l40-4.8a.5.5 0 0 0 .41-.666l-16.4-45.2a.5.5 0 0 0-.515-.327l-16.5 1.5a.5.5 0 0 0-.45.425z" fill="#2271B1"/><path fill="#FFF" d="M274.162 104.532l16.054 44.247-38.727 4.647 6.948-47.464z"/><path d="M263.1 87.3c-4 1.5-.5 20-.5 20l-3.6 16.3 1.3.3c2.9.7 5.7-1.1 6.6-3.9l3.1-11.2c-.1 0-.1-24.1-6.9-21.5" fill="#C6DEF6"/><path d="M294.905 72.168a.5.5 0 1 1 .99-.136c1.794 13.127 1.923 14.973.817 19.117-.624 2.337-1.738 4.69-3.589 7.617a35.853 35.853 0 0 1-1.457 2.128 59.23 59.23 0 0 1-1.66 2.149 90.295 90.295 0 0 1-3.262 3.802 91.73 91.73 0 0 1-1.484 1.601.5.5 0 1 1-.72-.692 90.745 90.745 0 0 0 1.463-1.58c1.1-1.215 2.2-2.49 3.225-3.759a58.243 58.243 0 0 0 1.632-2.113 34.881 34.881 0 0 0 1.418-2.069c1.801-2.85 2.874-5.113 3.469-7.342 1.055-3.955.929-5.77-.842-18.723zM285.4 77.09a.5.5 0 0 1 1 .02 181.908 181.908 0 0 0-.023 1.515 279.589 279.589 0 0 0-.022 3.081 89.706 89.706 0 0 0 .044 3.374.5.5 0 1 1-.998.04 90.48 90.48 0 0 1-.045-3.415 280.551 280.551 0 0 1 .045-4.614zM283.962 89.096a.5.5 0 1 1-.124-.992l4-.5a.5.5 0 1 1 .124.992l-4 .5zM281.695 90.556a.5.5 0 1 1 .41-.912l2 .9a.5.5 0 1 1-.41.912l-2-.9z" fill="#2271B1"/><path d="M277.516 101.42l10 12a.5.5 0 0 0 .768-.64l-10-12a.5.5 0 0 0-.768.64z" fill="#FFF"/><path d="M281.453 92.877l-4 8a.5.5 0 1 0 .894.446l4-8a.5.5 0 1 0-.894-.446zM283.021 45.615l-12-3a.5.5 0 0 0-.242.97l12 3a.5.5 0 0 0 .242-.97z" fill="#2271B1"/><path d="M271.006 41.026l-.6 4a.5.5 0 0 0 .988.148l.6-4a.5.5 0 0 0-.988-.148zM275.401 38.124c.11 2.309 1.591 3.636 5.326 5.706l.756.418c1.949 1.083 2.908 1.748 3.52 2.554 1.302 1.777 1.611 3.45 1.376 4.798a2.164 2.164 0 0 1-.055.248.5.5 0 0 0 .952.304c.024-.076.056-.204.087-.38.28-1.6-.08-3.55-1.56-5.567-.73-.963-1.762-1.678-3.835-2.83l-.756-.42c-3.425-1.897-4.727-3.063-4.813-4.879a.5.5 0 0 0-.998.048z" fill="#2271B1"/><path d="M279.318 38.574c2.025-3.087 10.286-2.383 12.758 1.59.773 1.274 1.185 2.793 1.275 4.508.11 2.096-.259 4.359-.944 6.607a25.035 25.035 0 0 1-.664 1.906c-.134.34-.238.58-.296.704a.5.5 0 0 0 .906.422c.065-.141.177-.4.32-.759.235-.595.47-1.261.69-1.982.716-2.35 1.103-4.722.986-6.95-.098-1.87-.553-3.548-1.422-4.98-2.841-4.565-11.996-5.345-14.445-1.614a.5.5 0 0 0 .836.548zM293.05 56.576a.5.5 0 1 0-.3-.952l-13 4.1a.5.5 0 0 0-.33.612l1.1 3.9a.5.5 0 0 0 .96-.272l-.968-3.433 12.538-3.955zM275.412 49.995a4.23 4.23 0 0 1-.387 1.092c-.181.344-.354.551-.45.634a.5.5 0 1 0 .65.758c.187-.16.44-.464.684-.926.206-.391.37-.84.48-1.348a.5.5 0 0 0-.977-.21z" fill="#2271B1"/><path d="M280.436 55.445l1.084 3.792a.5.5 0 1 0 .96-.274l-1.2-4.2a.5.5 0 0 0-.549-.358c-2.927.407-4.367-.763-5.978-4.216-.236-.473-.559-.656-1.382-.971-.67-.256-.856-.383-.874-.568a.858.858 0 0 1 .054-.457c.057-.15.148-.318.295-.546.06-.095.376-.565.467-.707.657-1.023.987-1.932.987-3.14-.086-1.295.474-2.46 1.516-3.313a.5.5 0 1 0-.632-.774c-1.283 1.05-1.989 2.521-1.882 4.12-.002.958-.268 1.692-.83 2.567-.083.131-.399.6-.467.707a3.871 3.871 0 0 0-.389.735c-.117.313-.158.62-.11.934.07.704.472.979 1.502 1.373l.005.002c.567.217.77.332.84.472 1.695 3.632 3.411 5.123 6.583 4.822zM256.7 72.9c.7 2.1 2.9 3.4 5.2 3.1l7-1.1c0 .1-3.8-13.9-15-10.2l2.8 8.2z" fill="#2271B1"/><path d="M263.9 67.1v-2c0-1.1.9-2 2-2s2 .9 2 2-.9 2-2 2h-2z" fill="#2271B1"/><path d="M253.6 65.3c-1.6.7-2.2 1.8-2.4 3.2-.3 2.6-2.5 3.2-2.5 4.5 0 1 1.7 1.1 2 2 .9 3.2 3.3 5.5 6.9 5.5" fill="#FFF"/><path d="M253.4 64.842c-1.646.72-2.45 1.872-2.694 3.587-.109.937-.459 1.6-1.112 2.334-.004.004-.741.787-.917 1.014-.312.404-.476.786-.476 1.223 0 .699.348 1.027 1.224 1.52l.053.029c.506.285.69.433.748.609 1.004 3.571 3.71 5.841 7.374 5.841a.5.5 0 0 0 0-.998c-3.194 0-5.524-1.955-6.42-5.136-.174-.527-.483-.777-1.213-1.187l-.053-.03c-.562-.316-.714-.46-.714-.648 0-.184.079-.368.267-.611.141-.182.84-.924.873-.962.779-.875 1.223-1.716 1.356-2.87.197-1.373.79-2.225 2.104-2.8a.5.5 0 0 0-.4-.915z" fill="#2271B1"/><path d="M253.677 76.653c-.39.195-.811.321-1.234.392a3.623 3.623 0 0 1-.543.055.5.5 0 0 0 0 1c.15 0 .397-.018.707-.07a5.356 5.356 0 0 0 1.516-.483.5.5 0 1 0-.446-.894zM253.494 64.81c-.348.108-2.594 3.79-2.594 3.79l5 .5-1.063-1.936-.044-2.728c-.634.178-1.067.302-1.299.374zM253.8 73.5v-.9c0-.3-.2-.5-.4-.5s-.4.3-.4.6v.9c0 .3.1.5.4.5.2 0 .4-.3.4-.6z" fill="#2271B1"/><g transform="translate(66 1)"><path d="M8.7 24.4l-.3-8.9V9.6c0-5.2 4.2-9.4 9.4-9.4h138.8c5.2 0 9.4 4.2 9.4 9.4v14.9" fill="#FFF"/><path d="M9.844 24.36l-.1-2.8a1.145 1.145 0 1 0-2.288.08l.1 2.8a1.145 1.145 0 1 0 2.288-.08zM9.545 15.7V9.874a1.145 1.145 0 0 0-2.29 0V15.7a1.145 1.145 0 0 0 2.29 0zM10.98 4.94a8.26 8.26 0 0 1 4.047-3.12 1.145 1.145 0 1 0-.766-2.158A10.55 10.55 0 0 0 9.09 3.648a1.145 1.145 0 0 0 1.89 1.292zm9.347-3.595h5.826a1.145 1.145 0 0 0 0-2.29h-5.826a1.145 1.145 0 0 0 0 2.29zm11.652 0h5.826a1.145 1.145 0 1 0 0-2.29h-5.826a1.145 1.145 0 0 0 0 2.29zm11.652 0h5.826a1.145 1.145 0 0 0 0-2.29H43.63a1.145 1.145 0 0 0 0 2.29zm11.652 0h5.826a1.145 1.145 0 0 0 0-2.29h-5.826a1.145 1.145 0 0 0 0 2.29zm11.652 0h5.825a1.145 1.145 0 0 0 0-2.29h-5.825a1.145 1.145 0 0 0 0 2.29zm11.651 0h5.826a1.145 1.145 0 0 0 0-2.29h-5.826a1.145 1.145 0 0 0 0 2.29zm11.652 0h5.826a1.145 1.145 0 0 0 0-2.29h-5.826a1.145 1.145 0 0 0 0 2.29zm11.652 0h5.826a1.145 1.145 0 1 0 0-2.29h-5.826a1.145 1.145 0 1 0 0 2.29zm11.652 0h5.826a1.145 1.145 0 1 0 0-2.29h-5.826a1.145 1.145 0 1 0 0 2.29zm11.652 0h5.825a1.145 1.145 0 1 0 0-2.29h-5.825a1.145 1.145 0 0 0 0 2.29zm11.651 0h5.826a1.145 1.145 0 0 0 0-2.29h-5.826a1.145 1.145 0 0 0 0 2.29zm11.652 0h5.826a1.145 1.145 0 1 0 0-2.29h-5.826a1.145 1.145 0 1 0 0 2.29zm11.165.584c1.621.645 3 1.795 3.929 3.27a1.145 1.145 0 1 0 1.937-1.22 10.555 10.555 0 0 0-5.019-4.178 1.145 1.145 0 0 0-.847 2.128zm5.193 8.195v5.826a1.145 1.145 0 1 0 2.29 0v-5.826a1.145 1.145 0 1 0-2.29 0zM164.855 21.6v2.8a1.145 1.145 0 1 0 2.29 0v-2.8a1.145 1.145 0 1 0-2.29 0z" fill="#CDC9CD"/><path d="M173.8 25.9c-3.6.2-7.2.4-10.8.5l-5.4.2-5.4.1c-7.2.1-14.4.1-21.7.1l-43.3.2-43.3-.2c-7.2 0-14.4 0-21.7-.1l-5.4-.1-5.4-.2c-3.6-.1-7.2-.3-10.8-.5v-.6c3.6-.2 7.2-.4 10.8-.5l5.4-.2 5.4-.1c7.2-.1 14.4-.1 21.7-.1l43.3-.2 43.3.2c7.2 0 14.4 0 21.7.1l5.4.1 5.4.2c3.6.1 7.2.3 10.8.5v.6z" fill="#2271B1"/><path fill="#C6DEF6" d="M12.2 145.3v-110h157.5v110H51.8z"/><g fill="#FFF"><path d="M91.4 121.655a1.145 1.145 0 0 0 0 2.29h2.9c.632 0 1.145-.513 1.145-1.145v-2.9a1.145 1.145 0 0 0-2.29 0v1.755H91.4zM86.2 121.655h-5.278a1.145 1.145 0 0 0 0 2.29H86.2a1.145 1.145 0 0 0 0-2.29zm-10.557 0h-5.278a1.145 1.145 0 0 0 0 2.29h5.278a1.145 1.145 0 0 0 0-2.29zm-10.556 0h-5.278a1.145 1.145 0 1 0 0 2.29h5.278a1.145 1.145 0 0 0 0-2.29zm-10.557 0h-5.278a1.145 1.145 0 0 0 0 2.29h5.278a1.145 1.145 0 1 0 0-2.29zm-10.556 0h-5.279a1.145 1.145 0 0 0 0 2.29h5.279a1.145 1.145 0 0 0 0-2.29zM31.645 119.9a1.145 1.145 0 0 0-2.29 0v2.9c0 .632.513 1.145 1.145 1.145h2.9a1.145 1.145 0 0 0 0-2.29h-1.755V119.9zM31.645 113.9v-6.03a1.145 1.145 0 0 0-2.29 0v6.03a1.145 1.145 0 0 0 2.29 0zm0-12.06v-6.03a1.145 1.145 0 0 0-2.29 0v6.03a1.145 1.145 0 0 0 2.29 0zm0-12.06v-6.03a1.145 1.145 0 1 0-2.29 0v6.03a1.145 1.145 0 0 0 2.29 0zm0-12.06v-6.03a1.145 1.145 0 0 0-2.29 0v6.03a1.145 1.145 0 0 0 2.29 0zM33.4 63.945a1.145 1.145 0 0 0 0-2.29h-2.9c-.632 0-1.145.513-1.145 1.145v2.8a1.145 1.145 0 0 0 2.29 0v-1.655H33.4zM38.7 63.945h5.278a1.145 1.145 0 0 0 0-2.29H38.7a1.145 1.145 0 0 0 0 2.29zm10.557 0h5.278a1.145 1.145 0 0 0 0-2.29h-5.278a1.145 1.145 0 0 0 0 2.29zm10.556 0h5.278a1.145 1.145 0 1 0 0-2.29h-5.278a1.145 1.145 0 0 0 0 2.29zm10.557 0h5.278a1.145 1.145 0 0 0 0-2.29H70.37a1.145 1.145 0 1 0 0 2.29zm10.556 0h5.279a1.145 1.145 0 0 0 0-2.29h-5.279a1.145 1.145 0 0 0 0 2.29zM93.155 65.6a1.145 1.145 0 0 0 2.29 0v-2.8c0-.632-.513-1.145-1.145-1.145h-2.9a1.145 1.145 0 0 0 0 2.29h1.755V65.6zM93.155 71.7v6.03a1.145 1.145 0 0 0 2.29 0V71.7a1.145 1.145 0 0 0-2.29 0zm0 12.06v6.03a1.145 1.145 0 0 0 2.29 0v-6.03a1.145 1.145 0 0 0-2.29 0zm0 12.06v6.03a1.145 1.145 0 1 0 2.29 0v-6.03a1.145 1.145 0 0 0-2.29 0zm0 12.06v6.03a1.145 1.145 0 0 0 2.29 0v-6.03a1.145 1.145 0 0 0-2.29 0z"/></g><path d="M90.5 92.2H40.4V80.8h59.4v2c.1 5.2-4.1 9.4-9.3 9.4zM68.2 113.3H40.4v-11.4h37.1v2c.1 5.2-4.1 9.4-9.3 9.4z" fill="#2FB41F"/><path d="M159.3 135.8h-37.8V53.1c0-4.5 3.6-8.1 8.1-8.1h29.7v90.8z" fill="#FFF"/><circle fill="#5198D9" cx="25.9" cy="12.3" r="2.3"/><circle fill="#C6DEF6" cx="38.2" cy="12.3" r="2.3"/><circle fill="#C6DEF6" cx="50.4" cy="12.3" r="2.3"/></g><path d="M88.1 168s-3.4-25.3-7-29c6.1 5.4 13 20.4 13 29" fill="#FFF"/><path d="M88.7 168.8c-1-4.9-1.9-9.8-3-14.7-.5-2.4-1.1-4.9-1.7-7.3-.3-1.2-.7-2.4-1.1-3.5-.4-1.1-.9-2.3-1.6-3-.3-.3-.2-.7 0-1 .3-.2.7-.3.9 0 2.1 1.9 3.7 4.1 5.1 6.4 1.4 2.3 2.7 4.7 3.8 7.2 1.1 2.5 2 5.1 2.7 7.7.7 2.6 1.2 5.4 1.1 8.1 0 .1-.1.2-.2.2s-.2-.1-.2-.2c-.1-2.7-.8-5.3-1.6-7.9-.8-2.6-1.8-5.1-2.9-7.5-1.1-2.4-2.4-4.8-3.8-7s-3-4.4-4.9-6.1l.9-1c1 1.1 1.4 2.3 1.9 3.5.4 1.2.8 2.4 1.1 3.6.6 2.4 1.2 4.9 1.7 7.4.4 2.5.9 5 1.2 7.4.3 2.5.6 5 .8 7.5 0 .1 0 .1-.1.1 0 .2-.1.1-.1.1" fill="#CDC9CD"/><path d="M95 168.5s.9-20-2.9-23.5c6.5 5.1 10.7 16.6 9.9 24" fill="#FFF"/><path d="M94.6 168.2c-.2-4-.3-8-.6-12-.1-2-.3-4-.7-5.9-.2-1-.4-1.9-.7-2.8-.3-.9-.7-1.8-1.3-2.3-.3-.3-.3-.7 0-1 .3-.3.7-.3 1 0 1.8 1.5 3.3 3.3 4.6 5.2 1.2 1.9 2.3 4 3.1 6.1.8 2.1 1.4 4.3 1.8 6.5.4 2.2.5 4.5.1 6.8 0 .1-.2.2-.3.2-.1 0-.2-.1-.2-.3.1-2.2-.1-4.4-.6-6.5-.5-2.1-1.1-4.2-2-6.3-1.7-4-4.1-7.9-7.4-10.7l1-1.1c.9.9 1.3 1.9 1.6 2.9.3 1 .5 2 .7 3 .3 2 .5 4 .6 6 .1 2 .1 4 0 6s-.2 4-.4 6c0 .1-.1.1-.1.1-.2.3-.2.2-.2.1" fill="#CDC9CD"/></g></svg>