<?xml version="1.0" encoding="utf-8"?>
<!-- Generator: Adobe Illustrator 21.0.2, SVG Export Plug-In . SVG Version: 6.00 Build 0)  -->
<!DOCTYPE svg PUBLIC "-//W3C//DTD SVG 1.1//EN" "http://www.w3.org/Graphics/SVG/1.1/DTD/svg11.dtd">
<svg version="1.1" id="jetpack-header" xmlns="http://www.w3.org/2000/svg" xmlns:xlink="http://www.w3.org/1999/xlink" x="0px"
	 y="0px" viewBox="0 0 1472.8 817.9" style="enable-background:new 0 0 1472.8 817.9;" xml:space="preserve">
<style type="text/css">
	.st0{fill:#E9EFF4;}
	.st1{display:none;fill:#E9EFF4;}
	.st2{fill:#004F82;}
	.st3{fill:#D5E5EB;}
	.st4{display:none;}
	.st5{display:inline;fill:#D5E5EB;}
	.st6{fill:#0084C0;}
	.st7{fill:#004F81;}
	.st8{fill:#004F84;}
	.st9{fill:#00A9DE;}
	.st10{fill:#74DCFC;}
	.st11{fill:none;}
</style>
<title>jetpack-header</title>
<path class="st0" d="M529.7,605.5c-192.1,86.3-352.1,157.7-402,180.1l2,0.4l140.1-51l-114.4,56.5l7.4,1.6L273,743.4l-90.6,53.9
	l8.1,1.7c72.6-35.9,202-99.7,350.3-172.2L529.7,605.5L529.7,605.5z"/>
<path class="st1" d="M649.4,275.8l-0.7-0.1c-5-3.2-11.3-6.7-16.8-10.7l4.1-2.6c2.2,6.1,3.8,12.1,5.3,18.1l0.4,1.5l-1,1.2l-11.7,15
	l-3.7-5.7l18.6-4.5l1.5-0.4l1.2,1l15.1,11.7L656,304c-1.5-6-2.9-12.6-4.5-18.6l-0.4-1.5l1-1.2c3.9-4.8,8.4-9.5,12.2-14.3l2.7,4.1
	C661.7,274.3,655.2,275,649.4,275.8L649.4,275.8z"/>
<path class="st1" d="M648.3,274.1c6.8-2.1,12.9-4.3,18.2-6l6.8-2.1l-4.2,6.2c-4,5.5-7.2,10.4-11.2,15.9l0.6-2.7
	c1.5,6,2.9,12.6,4.5,18.6l2.7,10.4l-8.6-6.1L642,296.8l3.4,0.7l-18.6,4.5l-11.1,2.5l6.8-8.4l11.7-15.1l-0.6,2.7
	c-1.5-6-2.2-12.5-3.6-19.1l-1.2-7.3l5.3,4.7C639.4,265.1,644.3,269.3,648.3,274.1L648.3,274.1z"/>
<path class="st0" d="M671.8,561.4l13,18.3c251-123.8,543.3-266.1,711.5-346.3C1225.7,311.6,928,446.5,671.8,561.4L671.8,561.4z"/>
<path class="st2" d="M1440.2,213.2c-4.3-9.4-64.4,7.3-64.4,7.3s14.7,3.9,19.2,12.6c1.6-1.1,4-2,5.6-3c-1.6,1.1-4,2-5.6,3
	c0.4,0.1,0.6,0.4,0.5,0.8l0,0c4.3,9.4-2.2,23.5-2.2,23.5S1444.5,222.6,1440.2,213.2z"/>
<path class="st2" d="M1439.2,214.4c-1.2-1-4-0.9-6.4,0c-2.6,0.3-5.1,1-7.5,1.9c-5.2,1-10.4,2.7-15.6,3.7
	c-10.4,2.7-20.9,5.4-31.5,8.7l0.2-14.1c2.7,0.6,4.6,1.7,6.6,2.1c1.9,1.1,3.9,1.5,6.4,2.8c4.6,2.5,8.5,6.3,11.1,10.9l-9.8-3.5l5.6-3
	c3.9-1.9,8.6-0.2,10.5,3.7s0.2,8.6-3.7,10.5l-5.6,3l3.7-10.5c1.4,2.8,2.1,5.9,2.3,9c0.2,2.6,0.1,5.2-0.2,7.7l-1.6,7.4
	c-0.6,2.7-1.7,4.6-2.9,7.1l-10.8-8.7c9-5.8,17.5-12.5,26.5-18.3c4.2-3.3,8.5-6.6,12.6-9.3c1.8-1.7,4.2-3.3,5.3-5.2
	c0.9-0.6,1.5-1.4,1.9-2.4c0.5-0.3,0.8-0.7,1-1.2L1439.2,214.4L1439.2,214.4z M1442.5,212.3c1.4,3.1,0.3,5,0,6.4
	c-0.4,1.7-1.2,3.2-2.4,4.4c-1.4,2.6-3.2,5.1-5.1,7.4c-3.7,4.3-7.7,8.4-11.8,12.3c-7.9,7.8-16.6,14.9-25.7,21.3
	c-3.3,2.3-7.8,1.7-10.3-1.5c-1.6-1.8-1.9-4.4-0.7-6.5l0.2-0.7c0.3-1.4,1.4-3.2,1.7-4.6l1-4.7c0.1-3.5,0-6.4-1.2-7.3
	c-2.1-3.3-1.9-7.5,1.4-9.6l0.8-0.5l0.8-0.5l5.6-3l6.8,14.2l-5.6,3c-4,2-7.8,0.4-9.8-3.5c-1.6-2.2-3.6-4.1-5.9-5.5
	c-1.2-1-2.6-1.2-4.4-2.4c-1.4-0.9-2.9-1.5-4.6-1.7l-0.7-0.1c-3.9-1.5-5.9-5.5-4.3-9.4c0.6-2.5,2.7-4.3,5.2-4.5
	c11.1-2.5,21.6-5.2,33.1-6.3c5.6-0.9,11.4-1,17.1-0.6c3,0,6,0.4,8.9,1.2c1.6,0.3,3.2,0.9,4.6,1.7c1.9,0.5,3.5,1.9,4.1,3.7
	L1442.5,212.3L1442.5,212.3z"/>
<path class="st2" d="M1395.5,233.9c2-0.8,3.8-1.8,5.6-3C1399.4,232.1,1397.5,233.1,1395.5,233.9z"/>
<path class="st2" d="M1396.9,234.2l0.3-1.4l-2-0.4c-0.2-1.4-0.2-2.8,0.2-4.2l0.4-2c0.7-0.9,1.6-1.7,2.6-2.3l6.8,14.2
	c-0.3-0.5-0.7-0.8-1.2-1c-0.5-0.8-3.1-2.1-5.1-2.5L1396.9,234.2z M1393,232.7c-0.4-1.5-0.8-3,0.3-4.9c1.1-1.7,2.6-3,4.4-4
	c4-2,8.7-1,10.6,3c2.1,3.4,1.1,7.9-2.2,10.1l-1.6,1.1c-0.9,0.6-1.9,0.8-3,0.8l-2-0.4c-1.3-0.6-2.3-1.5-2.9-2.8l-2-0.4l0.3-1.4
	L1393,232.7L1393,232.7z"/>
<g id="Rectangle-66">
	<path class="st3" d="M105,163.2c-2.4-5.9-8.8-12.9-15.3-15.3L35,128.5c-5.9-2.4-5.9-5.9,0-7.6l54.7-19.4
		c5.9-2.4,12.9-8.8,15.3-15.3l19.4-54.7c2.4-5.9,5.9-5.9,7.6,0l19.4,54.7c2.4,5.9,8.8,12.9,15.3,15.3l54.7,19.4
		c5.9,2.4,5.9,5.9,0,7.6L166.7,148c-5.9,2.4-12.9,8.8-15.3,15.3L132,217.9c-2.4,5.9-5.9,5.9-7.6,0L105,163.2z"/>
	<path class="st3" d="M104.4,163.2c-2.4-5.9-7.1-10-12.4-12.9c-5.3-2.4-11.8-4.1-17.6-5.9l-35.9-11.7l-4.7-1.8
		c-2.1-0.5-4-1.8-5.3-3.5c-0.8-1.4-1-3.1-0.6-4.7c0.6-1.1,1.4-2.1,2.3-2.9c1.5-0.9,3.1-1.7,4.7-2.4l17.6-6.5L87.9,98
		c4.7-1.8,9.4-6.5,12.4-11.2c1.3-2.6,2.3-5.4,2.9-8.2l2.9-8.8l12.4-35.3l1.8-4.7c0.5-2.1,1.8-4,3.5-5.3c1.4-1.4,3.6-1.6,5.3-0.6
		c1.4,0.5,2.5,1.6,2.9,2.9c1,1.6,1.8,3.4,2.4,5.3l6.5,17.6L153.3,85c2,5.1,5.8,9.2,10.6,11.8c2.6,1.3,5.4,2.3,8.3,2.9l8.8,2.9
		l35.3,12.4l4.7,1.8c2.1,0.5,4,1.8,5.3,3.5c1.4,1.4,1.6,3.6,0.6,5.3c-0.5,1.4-1.6,2.5-2.9,2.9c-1.6,1-3.4,1.8-5.3,2.4l-17.6,6.5
		l-35.3,12.4c-5.3,2.2-9.6,6.1-12.4,11.2c-1.2,2.4-2.4,5.3-3.5,8.2L147,178l-12.9,35.3l-1.8,4.7c-0.6,1.8-1.2,3.5-2.9,4.7
		c-1.2,0.6-2.9,1.2-4.1,0.6s-1.8-1.8-2.4-2.4c-0.9-1.5-1.7-3.1-2.4-4.7l-5.9-17.6L104.4,163.2z M106.1,162.7L119,198l6.5,17.6
		c0.5,1.4,1.1,2.8,1.8,4.1l0.6,0.6c1.2-1.2,2.4-4.7,2.9-7.6l12.4-35.9l2.9-8.8c1.2-2.9,1.8-5.9,3.5-9.4c3.5-5.9,8.2-11.2,15.3-13.5
		l35.3-12.4l17.6-6.5c1.3-0.3,2.5-0.9,3.5-1.8c0.3,0,0.6-0.2,0.6-0.6l0,0v0.6c-0.6-0.6-4.1-1.8-7.1-2.9l-35.3-12.4l-8.8-2.9
		c-2.9-1.2-5.9-1.8-9.4-3.5c-6.3-3.4-11.2-8.8-14.1-15.3l-12.4-35.3l-6.5-17.6c-0.3-1.3-0.9-2.5-1.8-3.5c0-0.3-0.2-0.6-0.6-0.6l0,0
		h1.2c-0.6,0.6-1.8,4.1-2.9,7.1L112,72.7l-2.9,8.8c-1.2,2.9-1.8,5.9-3.5,9.4c-3.5,5.9-8.8,11.2-15.3,13.5l-35.9,12.4l-17.7,5.9
		c-1.3,0.3-2.5,0.9-3.5,1.8c-0.3,0-0.6,0.2-0.6,0.6l0,0l0,0c0.6,1.2,4.1,2.4,7.1,3.5L75,141.5c5.9,2.4,11.8,4.1,17.6,7.1
		C98.5,151.7,103.2,156.7,106.1,162.7L106.1,162.7z"/>
</g>
<g id="Rectangle-66-2">
	<path class="st3" d="M1004.2,236.7c-1.4-3.4-4.8-7.6-9-9l-19.3-6.9c-3.4-1.4-3.4-3.4,0-4.8l19.3-6.9c3.4-1.4,7.6-4.8,9-9l6.9-19.3
		c1.4-3.4,3.4-3.4,4.8,0l6.9,19.3c1.4,3.4,4.8,7.6,9,9l19.3,6.9c3.4,1.4,3.4,3.4,0,4.8l-19.3,6.9c-3.4,1.4-7.6,4.8-9,9l-6.9,19.3
		c-1.4,3.4-3.4,3.4-4.8,0L1004.2,236.7z"/>
	<path class="st3" d="M1003.5,236.7c-1.2-2.1-2.9-4-4.8-5.5c-1.9-1.2-4-2.1-6.2-2.8l-14.5-4.1c-1.3-0.6-2.7-1-4.1-1.4
		c-0.7-0.7-2.1-0.7-2.8-2.1c-0.7-0.8-0.7-2,0-2.8c0-0.7,0.7-1.4,1.4-2.1c2.1-1.4,3.4-2.1,4.1-2.1l3.4-1.4l14.5-5.5
		c1.8-0.9,3.4-2.1,4.8-3.4c1.4-1.4,2.1-2.8,2.8-5.5l4.8-14.5c0.6-1.3,1-2.7,1.4-4.1c0.7-0.7,0.7-2.1,2.8-2.8
		c0.7-0.7,2.8-0.7,3.4-0.7c1.4,0.7,2.1,0.7,2.8,1.4c2.1,2.1,2.1,3.4,2.8,4.8l1.4,3.4l4.8,14.5c0.9,1.8,2.1,3.4,3.4,4.8
		c1.4,1.4,2.8,2.1,5.5,2.8l14.5,5.5c1.3,0.6,2.7,1,4.1,1.4c0.7,0.7,2.1,0.7,2.8,2.8c0.7,1,0.7,2.4,0,3.4c-0.7,1.4-0.7,2.1-1.4,2.1
		c-1.2,1.4-3,2.2-4.8,2.1l-3.4,1.4l-14.5,4.8c-1.8,0.9-3.4,2.1-4.8,3.4c-1.4,1.4-2.1,2.8-2.8,5.5l-5.5,14.5c-0.6,1.3-1,2.7-1.4,4.1
		c-0.7,0.7-0.7,1.4-2.1,2.8c-0.8,0.7-2,0.7-2.8,0c-0.7,0-1.4-0.7-2.1-1.4c-1.4-1.4-1.4-3.4-2.1-4.1l-1.4-3.4L1003.5,236.7
		L1003.5,236.7z M1005.6,236l5.5,14.5l1.4,3.4c0.7,1.4,0.7,2.1,1.4,2.8c-0.4-0.4-1-0.4-1.4,0V256c0.3-1.2,0.7-2.4,1.4-3.4l4.8-14.5
		c0.7-2.1,2.1-5.5,4.1-7.6c2.1-2.4,4.7-4.3,7.6-5.5l14.5-5.5l3.4-1.4c0.6-0.4,1.3-0.6,2.1-0.7l-0.7,0.7v2.1l0,0
		c-1.2-0.3-2.4-0.7-3.4-1.4l-14.5-4.8c-2.1-0.7-6.2-2.1-8.3-4.1c-2.4-2.1-4.3-4.7-5.5-7.6l-4.8-14.5l-1.4-3.4
		c-0.4-0.6-0.6-1.3-0.7-2.1l0.7,0.7h2.1c0.7-0.7,0.7-0.7,0.7,0c-0.3,1.2-0.7,2.4-1.4,3.4l-5.5,14.5c-0.7,2.1-2.1,5.5-4.1,7.6
		c-2.1,2.4-4.7,4.3-7.6,5.5l-14.5,4.8l-3.4,1.4c-0.8,0.5-1.8,0.7-2.8,0.7v-2.1l0,0c1.2,0.3,2.4,0.7,3.4,1.4l14.5,5.5
		C998.6,227.1,1003.2,230.9,1005.6,236L1005.6,236z"/>
</g>
<g id="Rectangle-66-3">
	<path class="st3" d="M1383.2,636.4l-17.2,8.3l8.3-17.2l-8.3-17.2l17.2,8.3l17.2-8.3l-8.3,17.2l8.3,17.2L1383.2,636.4z"/>
	<path class="st3" d="M1382.5,637c-5.5,3.4-10.3,6.9-15.9,9.6c-1.2,0.5-2.6,0.3-3.4-0.7c-0.6-0.4-0.7-1.2-0.3-1.8
		c0.1-0.1,0.2-0.2,0.3-0.3v-0.7c2.1-6.2,4.8-11.7,7.6-17.9v2.8l-8.3-17.2c-0.7-2.1,0-4.1,1.4-4.8c1-0.7,2.4-0.7,3.4,0l17.2,8.3h-3.4
		l17.2-8.3c2.1-0.7,4.1,0,4.8,2.1c0.7,1,0.7,2.4,0,3.4c-2.8,5.5-5.5,11.7-8.3,17.2V626c2.8,5.5,4.8,11.7,7.6,17.9
		c0.6,1.3,0.1,2.8-1.2,3.4c-0.1,0-0.1,0.1-0.2,0.1h-2.1C1393.5,643.9,1388.7,640.5,1382.5,637L1382.5,637z M1383.9,635
		c5.5,2.1,11.7,4.1,17.2,6.9l-3.4,3.4c-2.8-5.5-6.2-11-9-16.6c-0.7-0.8-0.7-2,0-2.8c2.8-5.5,5.5-11.7,8.3-17.2l4.8,4.8l-17.2,8.3
		c-1,0.7-2.4,0.7-3.4,0l-17.2-8.3l4.8-4.8l8.3,17.2c0.7,0.8,0.7,2,0,2.8c-2.8,5.5-6.2,11-9,16.6l-3.4-3.4c6.2-2.8,12.4-4.8,18.6-6.9
		H1383.9L1383.9,635z"/>
</g>
<g id="Rectangle-66-4">
	<path class="st3" d="M1283.3,473.4l-17.2,8.3l8.3-17.2l-8.3-17.2l17.2,8.3l17.2-8.3l-8.3,17.2l8.3,17.2L1283.3,473.4z"/>
	<path class="st3" d="M1282.6,474.8c-5.5,3.4-10.3,6.9-15.9,9.6c-1.2,0.5-2.6,0.3-3.4-0.7c-0.6-0.4-0.7-1.2-0.3-1.8
		c0.1-0.1,0.2-0.2,0.3-0.3V481c2.1-6.2,4.8-11.7,7.6-17.9v2.8l-8.3-17.2c-0.7-2.1,0-4.1,1.4-4.8c1-0.7,2.4-0.7,3.4,0l17.2,8.3h-3.4
		l17.2-8.3c2.1-0.7,4.1,0,4.8,2.1c0.7,1,0.7,2.4,0,3.4c-2.8,5.5-5.5,11.7-8.3,17.2v-2.8c2.8,5.5,4.8,11.7,7.6,17.9
		c0.6,1.3,0.1,2.8-1.2,3.4c-0.1,0-0.1,0.1-0.2,0.1h-2.1C1293.9,481.3,1288.4,477.8,1282.6,474.8L1282.6,474.8z M1284,472.7
		c5.5,2.1,11.7,4.1,17.2,6.9l-3.4,3.4c-2.8-5.5-6.2-11-9-16.6c-0.7-0.8-0.7-2,0-2.8c2.8-5.5,5.5-11.7,8.3-17.2l4.8,4.8l-17.2,8.3
		c-1,0.7-2.4,0.7-3.4,0l-17.2-8.3l4.8-4.8l8.3,17.2c0.7,0.8,0.7,2,0,2.8c-2.8,5.5-6.2,11-9,16.6l-3.4-3.4c6.2-2.8,12.4-4.8,18.6-6.9
		H1284L1284,472.7z"/>
</g>
<g id="Rectangle-66-5">
	<path class="st3" d="M289,375c-3.4-1.2-7.2-1.2-10.6,0l-21.8,10.6c-2.9,1.2-4.1,0-2.9-2.9l10.6-21.8c1.2-3.4,1.2-7.2,0-10.6
		l-10.6-21.8c-1.2-2.9,0-4.1,2.9-2.9l21.8,10.6c3.4,1.2,7.2,1.2,10.6,0l21.8-10.6c2.9-1.2,4.1,0,2.9,2.9l-10.6,21.8
		c-1.2,3.4-1.2,7.2,0,10.6l10.6,21.8c1.2,2.9,0,4.1-2.9,2.9L289,375z"/>
	<path class="st3" d="M288.4,375.6c-2.5-0.6-5.1-0.6-7.6,0c-2.4,0.6-4.7,2.4-7.1,3.5l-14.7,7.6c-1.5,0.8-3.1,1.4-4.7,1.8H252
		c-0.9-0.4-1.6-1.3-1.8-2.4c-0.6-1.8,0-2.4,0.6-3.5l3.5-7.6l7.1-14.7c0.8-2.1,1-4.3,0.6-6.5c0-1.8-1.8-4.1-2.9-6.5l-7.1-14.7
		c-0.8-1.5-1.4-3.1-1.8-4.7c0-1,0.2-2,0.6-2.9c0.6-1.2,1.8-2.4,2.9-2.4c1.4-0.5,2.9-0.3,4.1,0.6l7.6,3.5l14.7,7.1
		c1.8,0.6,4.1,1.2,5.9,0.6c1.8,0,4.1-1.8,6.5-2.9l14.7-7.1c1.5-0.8,3.1-1.4,4.7-1.8c1,0,2,0.2,2.9,0.6c1.2,0.6,2.4,1.8,2.4,2.9
		c0.5,1.2,0.3,2.6-0.6,3.5l-3.5,7.6l-7.1,14.7c-0.8,2.1-1,4.3-0.6,6.5c0,1.8,1.8,4.1,2.9,7.1l6.5,14.7c0.8,1.5,1.4,3.1,1.8,4.7v2.4
		c-0.6,1.2-1.2,1.8-2.4,1.8c-1.8,0-2.4,0-2.9-0.6l-7.6-3.5L288.4,375.6L288.4,375.6z M289,373.8l14.7,6.5l7.6,3.5h0.6
		c-0.3,0-0.6,0.2-0.6,0.6l0,0c-0.2-1-0.6-2-1.2-2.9l-7.6-14.7l-1.8-3.5c-0.7-1.5-1.3-3.1-1.8-4.7c-0.7-3.4-0.3-6.9,1.2-10l7.1-14.7
		l3.5-7.1l0,0c0,0.6,0.5,1.1,1.2,1.2h0.6c-1,0.3-2,0.7-2.9,1.2l-14.7,7.1l-3.5,1.8c-1.5,0.7-3.1,1.3-4.7,1.8
		c-3.5,0.6-6.5,0.6-10-1.2l-14.7-7.1l-7.1-3.5l0,0c0.6,0,1.1-0.5,1.2-1.2v-0.6c0.3,1,0.7,2,1.2,2.9l7.1,14.7l1.8,3.5
		c0.7,1.5,1.3,3.1,1.8,4.7c0.6,3.5,0.6,6.5-1.2,10l-7.7,14.7l-3.5,7.1v0.6c-0.3-0.3-0.5-0.7-0.6-1.2l0,0c1-0.2,2-0.6,2.9-1.2
		l15.3-6.5c2.6-1.4,5.3-2.4,8.2-2.9C283.9,372.7,286.5,373.1,289,373.8L289,373.8z"/>
</g>
<g id="Rectangle-66-6" class="st4">
	<path class="st5" d="M1741.7,363.3c-1.4-3.4-4.8-7.6-9-9l-19.3-6.9c-3.4-1.4-3.4-3.4,0-4.8l19.3-6.9c3.4-1.4,7.6-4.8,9-9l6.9-19.3
		c1.4-3.4,3.4-3.4,4.8,0l6.9,19.3c1.4,3.4,4.8,7.6,9,9l19.3,6.9c3.4,1.4,3.4,3.4,0,4.8l-19.3,6.9c-3.4,1.4-7.6,4.8-9,9l-6.9,19.3
		c-1.4,3.4-3.4,3.4-4.8,0L1741.7,363.3z"/>
	<path class="st5" d="M1741,363.3c-1.2-2.1-2.9-4-4.8-5.5c-1.9-1.2-4-2.1-6.2-2.8l-14.5-4.1c-1.3-0.6-2.7-1-4.1-1.4
		c-0.7-0.7-2.1-0.7-2.8-2.1c-0.7-0.8-0.7-2,0-2.8c0-0.7,0.7-1.4,1.4-2.1c2.1-1.4,3.4-2.1,4.1-2.1l3.4-1.4l14.5-5.5
		c1.8-0.9,3.4-2.1,4.8-3.4c1.4-1.4,2.1-2.8,2.8-5.5l4.8-14.5c0.6-1.3,1-2.7,1.4-4.1c0.7-0.7,0.7-2.1,2.8-2.8
		c0.7-0.7,2.8-0.7,3.4-0.7c1.4,0.7,2.1,0.7,2.8,1.4c2.1,2.1,2.1,3.4,2.8,4.8l1.4,3.4l4.8,14.5c0.9,1.8,2.1,3.4,3.4,4.8
		c1.4,1.4,2.8,2.1,5.5,2.8l14.5,5.5c1.3,0.6,2.7,1,4.1,1.4c0.7,0.7,2.1,0.7,2.8,2.8c0.7,1,0.7,2.4,0,3.4c-0.7,1.4-0.7,2.1-1.4,2.1
		c-1.2,1.4-3,2.2-4.8,2.1l-3.4,1.4l-14.5,4.8c-1.8,0.9-3.4,2.1-4.8,3.4c-1.4,1.4-2.1,2.8-2.8,5.5l-5.5,14.5c-0.6,1.3-1,2.7-1.4,4.1
		c-0.7,0.7-0.7,1.4-2.1,2.8c-0.8,0.7-2,0.7-2.8,0c-0.7,0-1.4-0.7-2.1-1.4c-1.4-1.4-1.4-3.4-2.1-4.1l-1.4-3.4L1741,363.3L1741,363.3z
		 M1743.1,362.6l5.5,14.5l1.4,3.4c0.7,1.4,0.7,2.1,1.4,2.8c-0.4-0.4-1-0.4-1.4,0v-0.7c0.3-1.2,0.7-2.4,1.4-3.4l4.8-14.5
		c0.7-2.1,2.1-5.5,4.1-7.6c2.1-2.4,4.7-4.3,7.6-5.5l14.5-5.5l3.4-1.4c0.6-0.4,1.3-0.6,2.1-0.7l-0.7,0.7v2.1l0,0
		c-1.2-0.3-2.4-0.7-3.4-1.4l-14.5-4.8c-2.1-0.7-6.2-2.1-8.3-4.1c-2.4-2.1-4.3-4.7-5.5-7.6l-4.8-14.5l-1.4-3.4
		c-0.4-0.6-0.6-1.3-0.7-2.1l0.7,0.7h2.1c0.7-0.7,0.7-0.7,0.7,0c-0.3,1.2-0.7,2.4-1.4,3.4l-5.5,14.5c-0.7,2.1-2.1,5.5-4.1,7.6
		c-2.1,2.4-4.7,4.3-7.6,5.5l-14.5,4.8l-3.4,1.4c-0.8,0.5-1.8,0.7-2.8,0.7v-2.1l0,0c1.2,0.3,2.4,0.7,3.4,1.4l14.5,5.5
		C1736.1,353.7,1740.7,357.5,1743.1,362.6L1743.1,362.6z"/>
</g>
<g id="Rectangle-66-7">
	<path class="st3" d="M80.9,613.7c-1.2-2.9-4.1-6.5-7.6-7.6l-16.5-5.9c-2.9-1.2-2.9-2.9,0-4.1l16.5-5.9c2.9-1.2,6.5-4.1,7.6-7.6
		l5.9-16.5c1.2-2.9,2.9-2.9,4.1,0l5.9,16.5c1.2,2.9,4.1,6.5,7.6,7.6l16.5,5.9c2.9,1.2,2.9,2.9,0,4.1l-16.5,5.9
		c-2.9,1.2-6.5,4.1-7.6,7.6l-5.9,16.5c-1.2,2.9-2.9,2.9-4.1,0L80.9,613.7z"/>
	<path class="st3" d="M80.3,613.7c-1-1.8-2.4-3.4-4.1-4.7c-1.6-1-3.4-1.8-5.3-2.4l-12.3-3.5c-1.1-0.5-2.3-0.9-3.5-1.2
		c-0.6-0.6-1.8-0.6-2.3-1.8c-0.6-0.7-0.6-1.7,0-2.4c0-0.6,0.6-1.2,1.2-1.8c1.8-1.2,2.9-1.8,3.5-1.8l2.9-1.2l12.4-4.7
		c1.5-0.8,2.9-1.8,4.1-2.9c1.2-1.3,2.1-2.9,2.3-4.7l4.1-12.4c0.5-1.1,0.9-2.3,1.2-3.5c0.6-0.6,0.6-1.8,2.3-2.4
		c0.6-0.6,2.3-0.6,2.9-0.6c1.2,0.6,1.8,0.6,2.3,1.2c1.8,1.8,1.8,2.9,2.3,4.1l1.2,2.9l4.1,12.4c0.8,1.5,1.8,2.9,2.9,4.1
		c1.3,1.2,2.9,2.1,4.7,2.4l12.3,4.7c1.1,0.5,2.3,0.9,3.5,1.2c0.6,0.6,1.8,0.6,2.3,2.4c0.6,0.9,0.6,2,0,2.9c-0.6,1.2-0.6,1.8-1.2,1.8
		c-1,1.2-2.5,1.9-4.1,1.8l-2.9,1.2L105,609c-1.5,0.8-2.9,1.8-4.1,2.9c-1.2,1.3-2.1,2.9-2.3,4.7L93.8,629c-0.5,1.1-0.9,2.3-1.2,3.5
		c-0.6,0.6-0.6,1.2-1.8,2.4c-0.7,0.6-1.7,0.6-2.3,0c-0.6,0-1.2-0.6-1.8-1.2c-1.2-1.2-1.2-2.9-1.8-3.5l-1.2-2.9L80.3,613.7z
		 M82,613.1l4.7,12.4l1.2,2.9c0.6,1.2,0.6,1.8,1.2,2.4c-0.3-0.3-0.8-0.3-1.1,0l0,0v-0.6c0.2-1,0.6-2,1.2-2.9l4.1-12.4
		c0.7-2.4,1.9-4.6,3.5-6.5c1.8-2,4-3.6,6.5-4.7l12.3-4.7l2.9-1.2c0.5-0.3,1.1-0.5,1.8-0.6l-0.6,0.6v1.8l0,0c-1-0.2-2-0.6-2.9-1.2
		l-12.3-4.1c-1.8-0.6-5.3-1.8-7.1-3.5c-2-1.8-3.6-4-4.7-6.5l-4.1-12.4l-1.2-2.9c-0.3-0.5-0.5-1.1-0.6-1.8l0.6,0.6h1.8
		c0.6-0.6,0.6-0.6,0.6,0c-0.2,1-0.6,2-1.2,2.9l-4.7,12.4c-0.7,2.4-1.9,4.6-3.5,6.5c-1.8,2-4,3.6-6.5,4.7l-12.3,4.1l-2.9,1.2
		c-0.7,0.4-1.5,0.6-2.3,0.6v-1.8l0,0c1,0.2,2,0.6,2.9,1.2l12.3,4.7C76.1,605.5,80,608.8,82,613.1L82,613.1z"/>
</g>
<path class="st6" d="M823.4,697.2c0-103.6-57.3-186.5-137.2-200.6c-11.6,38.4-73.8,39.6-87.2,1.8l-0.6-1.8
	c-89,18.3-151.2,101.8-160.3,198.1c-13.4,138.4-3,116.4-3,116.4h389.5"/>
<path class="st7" d="M549.7,638c0.6,7.3-0.6,14-0.6,21.3l-1.8,21.3l-3.7,42l-4.3,42.1c-1.1,14.1-3.2,28.2-6.1,42.1
	c0,0.6-0.6,0.6-1.2,0.6s-0.6-0.6-0.6-1.2c-0.6-14,0.6-28,1.8-42.1l3.7-42.1l3.7-42.1l1.8-21.3c0.6-6.7,1.2-14,3-20.7
	c0.6-1.2,1.2-1.8,2.4-1.2C548.4,636.8,549,637.4,549.7,638L549.7,638z M683.8,464.9c1.2,3.7,1.2,7.9,1.2,11.6
	c-0.1,3.7,0.1,7.4,0.6,11c0.7,3,2.4,5.6,4.9,7.3c1.4,0.7,2.8,1.3,4.3,1.8c1.8,0.6,4.3,1.2,6.1,1.8c15.2,5.5,28,14,40.8,23.2
	c12.4,9.4,24.1,19.8,34.7,31.1c10.4,11.6,19.5,24.4,25.6,39c0,0.6,0,1.2-0.6,1.2s-1.2,0-1.2-0.6c-8.5-12.7-17.8-24.7-28-36
	c-10.4-11.1-21.8-21.1-34.2-29.8c-6.1-4.4-12.4-8.5-18.9-12.2c-6.7-3.7-13.4-7.3-20.1-9.8c-1.7-0.5-3.3-1.1-4.9-1.8
	c-2.2-0.4-4.2-1.3-6.1-2.4c-3.8-2.7-6.6-6.5-7.9-11c-0.5-2.2-0.7-4.5-0.6-6.7v-5.5c0-3.7-0.6-7.9,1.2-11.6
	C681.3,464.3,682.5,463.7,683.8,464.9C683.1,463.7,683.1,464.3,683.8,464.9L683.8,464.9z"/>
<path class="st7" d="M700.2,301.5c7.3,14,11.6,29.9,15.2,45.1c3.8,15.6,6.1,31.5,6.7,47.6c0,15.9-2.4,32.9-11,46.9
	c-4.4,7.2-10.2,13.4-17.1,18.3c-7.3,4.9-15.2,7.3-23.2,9.1c-16.4,3-33.3,0.7-48.2-6.7c-14.6-6.7-28-17.1-39-28.6
	c-22.5-23.2-37.8-51.8-47.5-81.7c0-0.6,0-1.2,0.6-1.2s1.2,0,1.2,0.6c13.4,28.6,28.7,56.1,50.6,78.6c11,11,23.2,20.7,37.2,26.8
	s29.3,8.5,43.9,5.5c7.3-1.8,14.6-4.3,20.7-8.5c6.1-4.2,11.3-9.6,15.2-15.9c7.9-12.8,10.4-28.6,10.4-43.9s-2.4-31.1-6.1-46.3
	s-9.1-29.9-13.4-45.1c-0.6-1.2,0-2.4,1.2-2.4C699,300.3,699.6,300.3,700.2,301.5L700.2,301.5z"/>
<path class="st7" d="M607.6,255.8c48.8-19.5,91.4-8.5,88.4,14.6c-2.4,20.1-100.6,26.8-112.2,54.9c-7.3,18.3,3.7,45.7,12.8,63.4
	c5.3,10.1,3.3,22.5-4.9,30.5l-8.5,10.4C529,375.9,480.2,306.4,607.6,255.8z M667.3,361.9c3,4.9,5.5,10.4,7.9,15.2
	c1.8,5.5,4.3,11,5.5,16.5c0,1.2-0.6,2.4-1.8,2.4s-1.8,0-2.4-1.2c-3-4.9-4.9-10.4-7.3-15.9c-1.9-5.4-3.5-10.9-4.9-16.5
	c0-0.6,0.6-1.8,1.2-1.8C666.1,361.3,666.7,361.3,667.3,361.9L667.3,361.9z"/>
<path class="st8" d="M696.6,366.7c3.1-1.2,4.7-4.7,3.7-7.9l-3.7-9.1c-1.2-3.2-4.7-4.8-7.9-3.7c-3.2,1.2-4.8,4.7-3.7,7.9l0,0l3.7,9.1
	C689.9,366.2,693.4,367.8,696.6,366.7z M636.8,389.9c3.1-1.2,4.7-4.7,3.7-7.9l-3.7-9.1c-1.2-3.2-4.7-4.8-7.9-3.7
	c-3.2,1.2-4.8,4.7-3.7,7.9l3.7,9.1c0.9,3.1,4.2,4.9,7.3,3.9C636.4,390.1,636.6,390,636.8,389.9L636.8,389.9z"/>
<path class="st7" d="M670.8,431.4c-3.2,0-6.4-0.9-9.1-2.7c-1.6-1.1-2-3.2-1-4.8c1.1-1.6,3.2-2,4.8-1c0,0,0.1,0,0.1,0.1
	c2.5,1.7,6.1,2,10,0.6c4.2-1.5,7.6-4.6,8.5-7.9c0.5-1.8,2.4-2.9,4.2-2.4h0.1c1.8,0.5,2.9,2.4,2.4,4.3l0,0
	c-1.5,5.4-6.5,10.2-12.8,12.5C675.7,431,673.2,431.4,670.8,431.4z"/>
<path class="st7" d="M622.2,350.9c-1.2,0-3,1.2-4.9,1.8c-1.9,0.8-3.8,1.8-5.5,3c-1.8,1.2-3,2.4-4.9,3.7c-1.2,1.2-3,2.4-3.7,4.3
	c-0.6,1.2-1.8,1.2-3,0.6c-0.6-0.6-1.2-1.2-0.6-2.4c1.2-5.5,5.5-8.5,9.1-11.6c2.1-1.4,4.3-2.4,6.7-3c2.6-0.8,5.3-1,7.9-0.6
	c1.2,0,1.8,1.2,1.2,2.4C624,349.8,623.1,350.5,622.2,350.9z M670.4,327.7c1.8-2.4,4.3-3.7,6.1-4.9c2.1-1.1,4.4-1.7,6.7-1.8
	c4.9-0.6,9.8-0.6,14.6,2.4c1.2,0.6,1.2,1.8,0.6,3c-0.6,0.6-1.2,1.2-2.4,0.6c-1.8-0.5-3.6-0.7-5.5-0.6c-2.1-0.1-4.1,0.1-6.1,0.6
	c-1.8,0.6-4.3,0.6-6.1,1.2c-1.7,0.5-3.3,1.1-4.9,1.8l-0.6,0.6c-1.2,0.6-2.4,0-2.4-0.6L670.4,327.7L670.4,327.7z"/>
<path class="st9" d="M700.9,269.8c-48.8-85.3-211.5-17.7-170.7,87.2"/>
<path class="st10" d="M741.1,255.2c-17.1,10.4-35.4,19.5-53,28.6l-53.7,26.9l-54.2,26.8c-18.3,9.1-36,17.7-54.2,26.2
	c-1.2,0.6-2.4,0-2.4-1.2c-0.6-1.2,0-1.8,0.6-2.4c17.7-9.8,35.4-18.9,53.6-28l53.6-26.8l54.2-26.8c18.3-9.1,36-17.7,54.9-25
	c0.7-0.1,1.3,0.1,1.8,0.6C741.7,254.1,741.7,255.3,741.1,255.2L741.1,255.2z"/>
<path class="st10" d="M608.8,316.8c34.8-32.9,91.4-86.6,131.1-62.8 M608.2,316.2c8.5-9.8,17.7-18.9,27.4-27.4
	c9.8-8.6,20.2-16.5,31.1-23.8c11-7.3,22.5-13.4,36-17.1l4.9-1.2c1.8,0,3.7-0.6,4.9-0.6c1.8,0,3.7-0.6,4.9-0.6l4.9,0.6
	c3.7,0,6.7,1.2,9.8,2.4s6.1,3,9.1,4.3c0.9,0.5,1.4,1.5,1.2,2.4c0,0.6-1.8,1.2-2.4,1.2c-11-5.5-23.8-5.5-35.4-2.4
	c-12.2,3-23.2,9.8-33.5,16.5c-10.7,7-20.9,14.7-30.5,23.2c-9.8,8.5-19.5,17.1-29.9,25c-0.4,0.5-1.1,0.6-1.6,0.2
	c-0.1-0.1-0.2-0.1-0.2-0.2C607.6,317.4,607.6,316.8,608.2,316.2L608.2,316.2z M683.8,809.3h275.5v-23.2h-256
	c-10.6-0.1-19.4,8.4-19.5,19c0,0.2,0,0.3,0,0.5V809.3z"/>
<path class="st10" d="M834.4,809.3h322.5l28.6-206.6c2.4-18.9-12.2-36-31.1-36H895.3c-15.9-0.2-29.3,11.7-31.1,27.4L834.4,809.3
	L834.4,809.3z"/>
<path class="st0" d="M1472.3,813c-45.3,2.4-90.5,3-135.8,4.3l-1029.8,0.6c-90.5-0.6-215.2,0-305.8-3.7c-0.4-0.1-0.8-0.9-0.8-1.8
	c-0.1-0.9,0.2-1.7,0.6-1.8c0.1,0,0.1,0,0.2,0c90.5-3.7,215.2-3,305.8-3.7l1029.8,0.6c45.3,0.6,90.5,1.2,135.8,4.3
	c0.3,0,0.5,0.6,0.5,1.2C1472.7,812.6,1472.4,812.6,1472.3,813C1472.3,812.9,1472.3,813,1472.3,813L1472.3,813z"/>
<path class="st7" d="M599,466.7c1.2,5,2,10.1,2.4,15.2c0,4.9,0.6,9.8,0.6,15.2V496c1.2,2.4,2.4,5.5,3.7,8.5c1.3,2.7,2.9,5.1,4.9,7.3
	c1.9,2.3,4.2,4.4,6.7,6.1c2.4,2,5.1,3.6,7.9,4.9c0.5,0.5,0.7,1.2,0.6,1.8c0,0.6-0.6,0.6-1.2,0.6c-3.7-0.6-6.7-1.2-9.8-3
	s-6.1-3.7-8.5-6.7c-2.4-2.6-4.4-5.4-6.1-8.5c-1.8-3.1-3.2-6.3-4.3-9.8V496c-0.1-5.1,0.1-10.2,0.6-15.2c0.6-4.9,1.2-9.8,2.4-15.2
	C597.8,466.8,598.4,466.2,599,466.7L599,466.7z"/>
<path class="st11" d="M274.2,743.8l-110.8,49.5l20.2,4.4L274.2,743.8z M269.8,735.1l-140.1,51l26.3,5.6L269.8,735.1z"/>
</svg>
