<svg viewBox="0 0 275 201" fill="none" xmlns="http://www.w3.org/2000/svg">
<path d="M33.55 191.105L35.4922 37.6014V29.8229C35.4922 23.0943 40.975 17.6218 47.6781 17.6218H227.855C234.575 17.6218 240.041 23.1115 240.041 29.8229V190.933H54.0375" fill="#C6DEF6"/>
<path d="M35.4922 49.6304V29.4788C35.4922 21.5283 40.975 14.9717 47.6781 14.9717H227.855C234.575 14.9717 240.041 21.5111 240.041 29.4788V49.6476H35.4922V49.6304Z" fill="#5198D9"/>
<path d="M245.695 49.6306C227.683 51.0417 209.653 50.8696 191.641 51.0417L137.414 51.2138L83.3594 51.0417C65.3469 51.0417 47.3172 51.0417 29.3047 49.6306V48.7529C47.3172 47.3418 65.3469 47.5139 83.3594 47.3418L137.414 47.1697L191.469 47.3418C209.481 47.3418 227.511 47.3418 245.523 48.7529V49.6306H245.695Z" fill="#2271B1"/>
<path d="M168.963 158.531C191.733 142.507 197.192 110.998 181.155 88.1527C165.119 65.3075 133.659 59.7775 110.889 75.8012C88.1191 91.8249 82.6603 123.334 98.6968 146.18C114.733 169.025 146.192 174.555 168.963 158.531Z" fill="white"/>
<path d="M190.506 110.464C191.589 116.986 191.194 123.732 189.956 130.082C189.372 133.248 188.616 136.467 187.327 139.581C186.605 141.354 183.803 140.115 184.387 138.411C185.333 135.623 185.866 132.56 186.416 129.463C187.412 123.336 187.533 117.21 186.416 111.221C184.302 99.106 177.684 88.2644 167.853 80.8818C158.056 73.5336 145.836 70.1951 133.667 71.6062C121.636 72.9313 110.344 79.1265 102.489 88.2816C94.5656 97.4368 90.4063 109.655 90.9047 121.77C91.4031 134.023 96.5594 145.656 105.325 154.226C114.005 162.813 125.984 167.632 138.17 168.131C150.373 168.51 162.68 164.293 172.494 156.394C172.7 156.274 172.975 156.291 173.147 156.394C173.353 156.584 173.37 156.945 173.164 157.134C164.227 166.341 151.233 172.003 138.05 171.848C124.695 171.848 111.856 166.617 102.248 157.307C92.6063 147.997 86.8828 135.331 86.2297 121.925C85.5938 108.674 90.0625 95.2168 98.7078 85.0636C107.25 74.8415 119.866 68.2333 133.066 66.8393C160.755 63.8966 185.934 82.9985 190.506 110.464Z" fill="#2FB41F"/>
<path d="M102.336 137.909C103.929 137.29 104.719 135.495 104.1 133.9C103.482 132.305 101.689 131.514 100.097 132.134C98.5037 132.753 97.7139 134.548 98.3323 136.142C98.9508 137.737 100.743 138.528 102.336 137.909Z" fill="#2FB41F"/>
<path d="M101.41 117.934C101.522 116.227 100.232 114.752 98.5269 114.639C96.822 114.526 95.3486 115.818 95.2359 117.525C95.1231 119.232 96.4138 120.708 98.1187 120.821C99.8236 120.933 101.297 119.641 101.41 117.934Z" fill="#2FB41F"/>
<path d="M105.709 102.33C106.532 100.83 105.985 98.9472 104.488 98.1234C102.99 97.2997 101.109 97.8473 100.286 99.3467C99.4636 100.846 100.011 102.729 101.508 103.553C103.006 104.377 104.887 103.829 105.709 102.33Z" fill="#2FB41F"/>
<path d="M116.197 90.014C117.576 89.0033 117.875 87.065 116.865 85.6848C115.856 84.3045 113.92 84.005 112.541 85.0158C111.163 86.0266 110.864 87.9648 111.873 89.3451C112.883 90.7253 114.819 91.0248 116.197 90.014Z" fill="#2FB41F"/>
<path d="M130.899 83.2703C132.575 82.9375 133.665 81.3074 133.332 79.6293C133 77.9512 131.372 76.8606 129.696 77.1934C128.02 77.5261 126.931 79.1563 127.263 80.8343C127.595 82.5124 129.223 83.603 130.899 83.2703Z" fill="#2FB41F"/>
<path d="M150.804 81.1032C151.211 79.4417 150.195 77.7644 148.536 77.3569C146.876 76.9494 145.201 77.966 144.794 79.6275C144.387 81.2891 145.403 82.9663 147.062 83.3738C148.721 83.7813 150.397 82.7647 150.804 81.1032Z" fill="#2FB41F"/>
<path d="M166.041 89.8589C167.111 88.5254 166.899 86.5756 165.567 85.504C164.236 84.4324 162.288 84.6447 161.218 85.9782C160.148 87.3118 160.36 89.2615 161.692 90.3332C163.023 91.4048 164.971 91.1925 166.041 89.8589Z" fill="#2FB41F"/>
<path d="M176.131 104.215C177.663 103.46 178.294 101.603 177.539 100.068C176.784 98.5332 174.93 97.9019 173.397 98.6577C171.864 99.4136 171.233 101.271 171.988 102.805C172.743 104.34 174.598 104.971 176.131 104.215Z" fill="#2FB41F"/>
<path d="M179.216 121.514C180.924 121.478 182.28 120.062 182.243 118.352C182.207 116.641 180.793 115.284 179.084 115.32C177.376 115.357 176.021 116.773 176.057 118.483C176.093 120.194 177.508 121.551 179.216 121.514Z" fill="#2FB41F"/>
<path d="M178.804 136.896C179.493 135.331 178.785 133.502 177.221 132.812C175.657 132.122 173.831 132.832 173.142 134.398C172.453 135.963 173.162 137.791 174.726 138.481C176.289 139.171 178.115 138.462 178.804 136.896Z" fill="#2FB41F"/>
<path d="M169.709 94.8212C169.469 94.6319 169.108 94.5802 168.798 94.7179C162.577 97.7295 157.214 101.86 151.937 106.059C150.305 107.366 146.334 110.43 143.67 112.495C142.364 111.738 140.852 111.307 139.236 111.359C134.698 111.514 131.141 115.334 131.295 119.877C131.45 124.42 135.266 127.983 139.803 127.828C144.341 127.673 147.898 123.853 147.744 119.309C147.709 118.38 147.52 117.503 147.211 116.694C149.48 114.818 152.986 111.91 155.134 110.085C160.342 105.783 165.55 101.429 169.83 95.9914C170.122 95.63 170.07 95.1137 169.709 94.8212ZM139.666 124.18C137.139 124.266 135.025 122.287 134.939 119.757C134.853 117.227 136.83 115.11 139.356 115.024C141.883 114.938 143.997 116.917 144.083 119.447C144.169 121.96 142.192 124.094 139.666 124.18Z" fill="#2FB41F"/>
</svg>
