<svg viewBox="0 0 294 215" fill="none" xmlns="http://www.w3.org/2000/svg">
<path d="M44.541 196.261C43.2915 183.486 43.365 170.711 43.2731 157.937L42.9975 119.612L43.1261 81.2876C43.1813 68.5128 43.0526 55.738 44.247 42.9631H45.0004C46.2499 55.738 46.1764 68.5128 46.2683 81.2876L46.5439 119.612L46.4336 157.937C46.3785 170.711 46.5071 183.486 45.3128 196.261H44.541ZM252.509 194.715L252.362 122.613C252.252 110.592 252.252 98.5723 252.031 86.5706C251.866 74.5505 251.646 62.5303 251.26 50.5286H250.506C250.121 62.5488 249.9 74.5689 249.735 86.5706C249.514 98.5907 249.533 110.611 249.404 122.613L249.257 193.077L206.535 192.948L162.178 193.058L117.821 193.205C103.029 193.353 88.2551 193.482 73.4633 194.347V195.101C88.2551 195.967 103.029 196.095 117.821 196.243L162.178 196.39L206.535 196.5L250.892 196.353H252.528L252.509 194.715Z" fill="#2271B1"/>
<path d="M43.1261 50.5288V30.9063C43.1261 24.0587 48.657 18.5181 55.4925 18.5181H238.508C245.343 18.5181 250.874 24.0587 250.874 30.9063V50.5288H43.1261ZM77.175 107.555C70.1374 107.555 64.4228 113.28 64.4228 120.33C64.4228 127.38 70.1374 133.105 77.175 133.105C84.2126 133.105 89.9273 127.38 89.9273 120.33C89.9273 113.28 84.231 107.555 77.175 107.555Z" fill="#5198D9"/>
<path d="M261.201 50.8968C242.164 52.0381 223.128 52.0381 204.091 52.0933L147 52.3142L89.8905 52.0933C70.854 52.0197 51.8175 52.0381 32.781 50.8968V50.1421C51.8175 49.0009 70.854 49.0009 89.8905 48.9456L147 48.7432L204.109 48.9456C223.146 49.0193 242.182 49.0009 261.219 50.1421V50.8968H261.201Z" fill="#2271B1"/>
<path d="M225.406 87.0861H100.934V70.1511H230.294V82.1896C230.294 84.8956 228.107 87.0861 225.406 87.0861ZM230.294 176.841V152.175H100.934V181.738H225.406C228.107 181.738 230.294 179.547 230.294 176.841ZM230.294 133.013V100.984H100.934V137.909H225.406C228.107 137.909 230.294 135.719 230.294 133.013Z" fill="#C6DEF6"/>
<path d="M77.1566 95.4799C77.5609 96.1057 77.7263 96.75 77.7998 97.3943C77.8733 98.0385 77.9284 98.6828 77.9284 99.3455C77.9284 99.9897 77.8916 100.634 77.8549 101.297C77.7998 101.941 77.7079 102.585 77.4506 103.229C77.3771 103.395 77.1934 103.469 77.028 103.414C76.9361 103.377 76.881 103.321 76.8443 103.248L76.8259 103.229C76.5503 102.585 76.4216 101.941 76.3481 101.297C76.2746 100.652 76.2195 100.027 76.2012 99.3823C76.1828 98.738 76.2011 98.1122 76.2563 97.4679C76.3114 96.8236 76.44 96.1794 76.8259 95.5167C76.8626 95.4247 76.9729 95.4063 77.0648 95.4431C77.1199 95.4247 77.1383 95.4615 77.1566 95.4799ZM77.0648 136.97C76.9729 136.934 76.881 136.989 76.8626 137.062C76.4951 138.149 76.3849 139.198 76.3298 140.265C76.2746 141.333 76.2563 142.401 76.2563 143.45C76.3298 145.585 76.293 147.702 76.7156 149.837C76.734 149.948 76.8259 150.04 76.9361 150.077C77.1015 150.132 77.2669 150.021 77.322 149.856C77.6344 148.788 77.763 147.72 77.8365 146.653C77.91 145.585 77.9468 144.518 77.9651 143.432C77.9651 142.364 77.9284 141.296 77.8365 140.229C77.7446 139.161 77.5793 138.093 77.1566 137.044C77.1383 137.026 77.1015 136.989 77.0648 136.97Z" fill="#2271B1"/>
<path d="M66.1867 37.2201C67.8916 37.2201 69.2737 35.8355 69.2737 34.1276C69.2737 32.4197 67.8916 31.0352 66.1867 31.0352C64.4818 31.0352 63.0997 32.4197 63.0997 34.1276C63.0997 35.8355 64.4818 37.2201 66.1867 37.2201Z" fill="white"/>
<path d="M89.9273 78.3056C89.9273 85.3557 84.2126 91.0804 77.175 91.0804C70.1374 91.0804 64.4228 85.3557 64.4228 78.3056C64.4228 71.2555 70.1374 65.5308 77.175 65.5308C84.2126 65.5308 89.9273 71.2555 89.9273 78.3056ZM77.175 154.089C70.1374 154.089 64.4228 159.814 64.4228 166.864C64.4228 173.914 70.1374 179.639 77.175 179.639C84.2126 179.639 89.9273 173.914 89.9273 166.864C89.9273 159.814 84.231 154.089 77.175 154.089Z" fill="#2FB41F"/>
<path d="M85.4805 34.1275C85.4805 35.8394 84.1024 37.2199 82.3935 37.2199C80.6846 37.2199 79.3065 35.8394 79.3065 34.1275C79.3065 32.4156 80.6846 31.035 82.3935 31.035C84.1024 31.035 85.4805 32.4156 85.4805 34.1275ZM98.6002 31.0166C96.8914 31.0166 95.5132 32.3972 95.5132 34.1091C95.5132 35.821 96.8914 37.2015 98.6002 37.2015C100.309 37.2015 101.687 35.821 101.687 34.1091C101.706 32.4156 100.309 31.0166 98.6002 31.0166Z" fill="white"/>
</svg>
