<svg viewBox="0 0 300 235" fill="none" xmlns="http://www.w3.org/2000/svg"><title>jetpack-google-analytics</title>
<path d="M113.436 209.028C108.575 209.512 103.715 209.654 98.854 209.694C93.9909 209.774 89.1276 209.552 84.2921 209.028C83.9653 208.986 83.6648 208.827 83.447 208.58C83.2292 208.332 83.1091 208.014 83.1091 207.685C83.1091 207.355 83.2292 207.037 83.447 206.79C83.6648 206.543 83.9653 206.383 84.2921 206.342C89.1276 205.817 93.9909 205.595 98.854 205.676C103.715 205.676 108.575 205.856 113.436 206.342C113.763 206.383 114.063 206.543 114.281 206.79C114.499 207.037 114.619 207.355 114.619 207.685C114.619 208.014 114.499 208.332 114.281 208.58C114.063 208.827 113.763 208.986 113.436 209.028V209.028ZM187.471 34.6214C195.549 34.3982 203.626 34.1966 211.706 34.1156H214.815C215.958 34.1261 217.097 34.2687 218.208 34.5404C220.401 35.0818 222.463 36.0616 224.267 37.4207C226.113 38.7867 227.663 40.5113 228.826 42.4911C229.988 44.4709 230.739 46.6651 231.033 48.9421C231.196 51.0447 231.243 53.1548 231.173 55.2626V73.4448C231.052 81.5241 230.932 89.6016 230.633 97.6792C230.623 98.038 230.47 98.3779 230.209 98.6244C229.948 98.8708 229.6 99.0035 229.241 98.9933C228.902 98.9731 228.581 98.8276 228.342 98.5848C228.104 98.3421 227.963 98.0194 227.949 97.6792C227.646 89.6016 227.526 81.5241 227.409 73.4448V49.4245C227.197 47.6742 226.633 45.9849 225.752 44.4579C224.871 42.9309 223.69 41.5978 222.28 40.5387C220.083 38.9097 217.451 37.9698 214.719 37.8384H211.745C203.668 37.8384 195.59 37.5774 187.511 37.3541C187.154 37.3383 186.817 37.1838 186.572 36.9237C186.327 36.6635 186.193 36.3181 186.198 35.9608C186.201 35.6177 186.334 35.2885 186.57 35.0398C186.807 34.7911 187.129 34.6415 187.471 34.6214V34.6214ZM84.2921 34.6214C89.907 34.3784 95.502 34.1768 101.115 34.1768C106.728 34.1768 112.345 34.076 117.958 34.0148C123.571 33.9535 129.168 34.0148 134.781 34.0148C140.394 34.0148 146.011 34.2578 151.604 34.5548C151.789 34.5413 151.976 34.5661 152.151 34.6278C152.327 34.6895 152.488 34.7868 152.624 34.9135C152.76 35.0402 152.869 35.1936 152.944 35.3642C153.018 35.5348 153.056 35.7189 153.056 35.905C153.056 36.0911 153.018 36.2752 152.944 36.4458C152.869 36.6164 152.76 36.7698 152.624 36.8965C152.488 37.0232 152.327 37.1204 152.151 37.1821C151.976 37.2438 151.789 37.2687 151.604 37.2551C146.011 37.5594 140.396 37.68 134.781 37.7952C129.166 37.9104 123.553 37.9374 117.958 37.896C112.363 37.8546 106.73 37.896 101.115 37.7358C95.5002 37.5756 89.907 37.4928 84.2921 37.2497C83.9511 37.2248 83.6321 37.0717 83.3993 36.8213C83.1665 36.5708 83.037 36.2415 83.037 35.8996C83.037 35.5576 83.1665 35.2283 83.3993 34.9779C83.6321 34.7274 83.9511 34.5743 84.2921 34.5494V34.6214Z" fill="#5198D9"/>
<path d="M82.9402 207.692C82.7169 199.452 82.5351 191.232 82.4559 182.993C82.3767 174.753 82.2759 166.534 82.2759 158.314C82.2759 150.094 82.2759 141.854 82.3767 133.635C82.4775 125.415 82.6179 117.175 82.9168 108.936C82.9583 108.609 83.1176 108.308 83.3648 108.091C83.6121 107.873 83.9302 107.753 84.2597 107.753C84.5892 107.753 84.9074 107.873 85.1546 108.091C85.4018 108.308 85.5611 108.609 85.6027 108.936C85.9249 117.175 86.0455 125.395 86.1679 133.635C86.2903 141.874 86.3083 150.094 86.3083 158.314C86.3083 166.534 86.3084 174.773 86.1481 182.993C85.9879 191.213 85.8655 199.452 85.6423 207.692C85.6007 208.019 85.4414 208.319 85.1942 208.537C84.947 208.755 84.6288 208.875 84.2993 208.875C83.9698 208.875 83.6517 208.755 83.4044 208.537C83.1572 208.319 82.9979 208.019 82.9564 207.692H82.9402ZM176.101 75.2935C179.03 75.0523 181.957 74.91 184.886 74.8092C187.815 74.7084 190.742 74.7084 193.671 74.6472C196.6 74.586 199.527 74.6472 202.456 74.7498C205.385 74.8524 208.312 74.991 211.241 75.2899C211.582 75.3148 211.901 75.4679 212.134 75.7183C212.367 75.9688 212.496 76.2981 212.496 76.64C212.496 76.982 212.367 77.3113 212.134 77.5617C211.901 77.8122 211.582 77.9653 211.241 77.9902C208.312 78.2926 205.383 78.4132 202.456 78.5303C199.529 78.6473 196.598 78.6707 193.671 78.6311C190.744 78.5915 187.815 78.6311 184.886 78.4691C181.957 78.307 179.03 78.226 176.101 77.9848C175.76 77.9599 175.441 77.8068 175.208 77.5563C174.975 77.3059 174.846 76.9766 174.846 76.6346C174.846 76.2927 174.975 75.9634 175.208 75.7129C175.441 75.4625 175.76 75.3094 176.101 75.2845V75.2935ZM166.891 96.419C169.82 96.1561 172.749 96.0355 175.676 95.9347C178.603 95.8339 181.534 95.9347 184.461 95.7727C187.388 95.6107 190.319 95.7727 193.246 95.7727C196.173 95.7727 199.104 96.0355 202.031 96.3379C202.388 96.3734 202.717 96.5492 202.944 96.8267C203.172 97.1042 203.28 97.4606 203.245 97.8177V97.8321C203.213 98.1409 203.075 98.429 202.854 98.6466C202.633 98.8643 202.342 98.9977 202.033 99.0239C199.106 99.3263 196.177 99.4487 193.248 99.5891C190.319 99.7295 187.392 99.7313 184.463 99.5891C181.534 99.4469 178.607 99.5891 175.678 99.4091C172.749 99.2291 169.822 99.1877 166.893 98.9248C166.541 98.8995 166.213 98.7352 165.982 98.4682C165.75 98.2012 165.635 97.8532 165.66 97.5009V97.4703C165.724 97.1856 165.879 96.9294 166.101 96.7399C166.323 96.5504 166.6 96.4378 166.891 96.419V96.419ZM107.032 138.87C110.647 138.627 114.262 138.486 117.879 138.384C121.495 138.281 125.108 138.283 128.723 138.223C132.338 138.164 135.953 138.223 139.568 138.223C143.182 138.223 146.797 138.465 150.412 138.763C150.587 138.776 150.757 138.822 150.914 138.901C151.07 138.979 151.21 139.087 151.325 139.22C151.439 139.352 151.527 139.505 151.582 139.671C151.637 139.838 151.659 140.013 151.647 140.187V140.216C151.623 140.535 151.486 140.836 151.259 141.062C151.033 141.288 150.733 141.426 150.414 141.449C146.799 141.772 143.184 141.892 139.569 142.015C135.955 142.137 132.34 142.155 128.725 142.015C125.11 141.874 121.495 142.015 117.88 141.835C114.266 141.655 110.649 141.611 107.034 141.35C106.707 141.309 106.407 141.15 106.189 140.902C105.971 140.655 105.851 140.337 105.851 140.007C105.851 139.678 105.971 139.36 106.189 139.113C106.407 138.865 106.707 138.706 107.034 138.664L107.032 138.87ZM99.9845 159.986C103.054 159.723 106.044 159.583 109.194 159.482C112.345 159.381 115.252 159.482 118.403 159.32C121.553 159.158 124.462 159.32 127.612 159.32C130.763 159.32 133.67 159.561 136.793 159.885C136.971 159.9 137.143 159.95 137.301 160.032C137.459 160.113 137.599 160.225 137.714 160.361C137.828 160.497 137.915 160.655 137.968 160.824C138.022 160.993 138.042 161.172 138.027 161.349V161.36C137.991 161.672 137.85 161.963 137.626 162.184C137.401 162.404 137.108 162.541 136.795 162.571C133.746 162.874 130.738 162.996 127.614 163.111C124.491 163.227 121.555 163.252 118.404 163.111C115.254 162.971 112.347 163.111 109.196 162.949C106.046 162.787 103.137 162.708 99.9863 162.465C99.6595 162.424 99.359 162.264 99.1412 162.017C98.9234 161.77 98.8033 161.452 98.8033 161.122C98.8033 160.793 98.9234 160.474 99.1412 160.227C99.359 159.98 99.6595 159.821 99.9863 159.779L99.9845 159.986ZM99.9845 181.09C102.199 180.649 104.452 180.426 106.71 180.424C108.972 180.345 111.234 180.569 113.436 181.09C113.789 181.179 114.092 181.405 114.279 181.717C114.466 182.03 114.521 182.404 114.433 182.757V182.788C114.372 183.026 114.248 183.243 114.074 183.417C113.9 183.591 113.683 183.715 113.445 183.776C111.243 184.298 108.981 184.522 106.719 184.442C104.461 184.442 102.208 184.219 99.9935 183.776C99.6377 183.699 99.327 183.483 99.1299 183.177C98.9327 182.871 98.8652 182.499 98.9422 182.143C98.9983 181.888 99.1262 181.654 99.3109 181.468C99.4955 181.283 99.7292 181.154 99.9845 181.097V181.09Z" fill="#5198D9"/>
<path d="M129.611 182.653H158.693V219.933H129.611V182.653ZM173.435 134.063H202.516V219.933H173.435V134.063ZM217.239 114.081H246.32V219.933H217.239V114.081Z" fill="#C6DEF6"/>
<path d="M129.611 199.476H158.693V219.933H129.611V199.476ZM173.435 173.868H202.516V219.933H173.435V173.868ZM217.239 155.934H246.32V219.933H217.239V155.934Z" fill="#2FB41F"/>
<path d="M139.951 78.1829C141.971 74.4672 144.111 70.8308 146.272 67.2016C148.432 63.5724 150.675 59.9918 152.958 56.4003C155.24 52.8089 157.481 49.2715 159.762 45.7179C162.043 42.1643 164.468 38.6971 166.963 35.2767C167.18 34.9908 167.5 34.8012 167.855 34.7484C168.21 34.6955 168.572 34.7837 168.862 34.994C169.123 35.1849 169.306 35.4642 169.377 35.7797C169.447 36.0953 169.401 36.4258 169.246 36.7096C167.226 40.4667 165.206 44.1013 162.985 47.7359C160.763 51.3705 158.603 54.9674 156.324 58.521C154.045 62.0746 151.823 65.6696 149.458 69.1638C147.092 72.658 144.752 76.1846 142.288 79.6446C142.081 79.936 141.768 80.1336 141.416 80.1944C141.064 80.2551 140.702 80.174 140.41 79.9687C140.118 79.7877 139.907 79.5008 139.822 79.168C139.736 78.8353 139.782 78.4823 139.951 78.1829ZM103.862 68.5086C106.953 70.1542 109.934 71.996 112.789 74.0226C115.658 75.9984 118.36 78.207 120.867 80.6258C121.087 80.8561 121.22 81.1556 121.243 81.4732C121.266 81.7907 121.179 82.1064 120.995 82.3664C120.811 82.6264 120.543 82.8146 120.236 82.8987C119.929 82.9828 119.602 82.9576 119.312 82.8274C116.244 81.2301 113.315 79.3791 110.555 77.2936C107.722 75.2692 105.021 73.0655 102.469 70.6958C102.281 70.4751 102.169 70.2 102.149 69.9109C102.129 69.6217 102.203 69.3339 102.359 69.0896C102.515 68.8454 102.745 68.6576 103.016 68.554C103.286 68.4504 103.583 68.4363 103.862 68.514V68.5086ZM68.137 91.3712C69.9314 87.8081 71.9145 84.3432 74.0777 80.9912C76.189 77.5946 78.5515 74.3608 81.1454 71.3169C81.3666 71.0847 81.6622 70.9373 81.9807 70.9002C82.2993 70.8631 82.6208 70.9386 82.8895 71.1137C83.1582 71.2888 83.3572 71.5523 83.452 71.8587C83.5467 72.1652 83.5312 72.4951 83.4082 72.7913C81.6604 76.4036 79.6344 79.8746 77.3487 83.1731C75.1881 86.5291 72.8336 89.7564 70.2973 92.8384C70.0717 93.0344 69.7876 93.1501 69.4893 93.1675C69.1909 93.1849 68.8952 93.103 68.6484 92.9345C68.4016 92.7661 68.2175 92.5206 68.125 92.2364C68.0325 91.9523 68.0367 91.6455 68.137 91.364V91.3712Z" fill="#5198D9"/>
<path d="M174.344 31.066C177.467 31.066 179.998 28.5344 179.998 25.4115C179.998 22.2887 177.467 19.7571 174.344 19.7571C171.221 19.7571 168.69 22.2887 168.69 25.4115C168.69 28.5344 171.221 31.066 174.344 31.066Z" fill="#2FB41F"/>
<path d="M174.344 32.6015C178.928 32.6015 182.645 28.8852 182.645 24.3008C182.645 19.7164 178.928 16 174.344 16C169.76 16 166.043 19.7164 166.043 24.3008C166.043 28.8852 169.76 32.6015 174.344 32.6015Z" fill="#2FB41F"/>
<path d="M132.721 98.419C137.306 98.419 141.022 94.7027 141.022 90.1183C141.022 85.5339 137.306 81.8175 132.721 81.8175C128.137 81.8175 124.421 85.5339 124.421 90.1183C124.421 94.7027 128.137 98.419 132.721 98.419Z" fill="#2FB41F"/>
<path d="M91.8458 68.2062C96.4302 68.2062 100.147 64.4898 100.147 59.9054C100.147 55.321 96.4302 51.6046 91.8458 51.6046C87.2614 51.6046 83.545 55.321 83.545 59.9054C83.545 64.4898 87.2614 68.2062 91.8458 68.2062Z" fill="#2FB41F"/>
<path d="M62.3008 111.445C66.8852 111.445 70.6015 107.729 70.6015 103.145C70.6015 98.5603 66.8852 94.8439 62.3008 94.8439C57.7164 94.8439 54 98.5603 54 103.145C54 107.729 57.7164 111.445 62.3008 111.445Z" fill="#2FB41F"/>
</svg>
