<svg viewBox="0 0 263 192" fill="none" xmlns="http://www.w3.org/2000/svg"><title>jetpack-video-hosting</title>
<path d="M24.5938 84.8219V44.9786C24.5936 43.8644 24.8128 42.761 25.2391 41.7315C25.6653 40.702 26.2902 39.7666 27.0779 38.9786C27.8657 38.1906 28.801 37.5656 29.8303 37.1391C30.8597 36.7127 31.963 36.4932 33.0772 36.4932H81.239V84.8219H24.5938Z" fill="#5198D9"/>
<path d="M137.37 65.0498L136.844 39.2597L136.709 26.2455V24.549C136.708 23.9443 136.747 23.3402 136.827 22.7408C137.018 21.5031 137.441 20.3128 138.075 19.2329C139.345 17.094 141.355 15.4946 143.725 14.737C144.325 14.563 144.937 14.4328 145.556 14.3474C146.121 14.3178 146.688 14.3178 147.254 14.3474H194.827C195.277 14.3474 195.709 14.5261 196.027 14.8443C196.345 15.1624 196.523 15.5939 196.523 16.0438V64.4383C196.523 64.8883 196.345 65.3198 196.027 65.6379C195.709 65.956 195.277 66.1348 194.827 66.1348C185.19 66.1348 175.553 65.9704 165.984 65.8455L137.37 65.0498ZM138.966 63.4389L167.112 62.8948C176.392 62.76 185.64 62.64 194.891 62.6071L193.195 64.3035L193.16 15.8449L194.858 17.5414H145.904C145.474 17.5925 145.049 17.6777 144.632 17.7962C142.954 18.3185 141.528 19.4425 140.628 20.9523C140.182 21.7037 139.883 22.5325 139.745 23.3951C139.676 23.8388 139.642 24.2873 139.643 24.7364V26.28L139.508 38.6088L138.966 63.4389Z" fill="#2271B1"/>
<path d="M181.822 87.2597V47.4213C181.822 45.1713 182.716 43.0134 184.306 41.4224C185.897 39.8313 188.055 38.9375 190.305 38.9375H238.406V87.2663L181.822 87.2597Z" fill="#5198D9"/>
<path d="M179.294 171.401V131.563C179.294 129.313 180.187 127.155 181.778 125.564C183.369 123.973 185.527 123.079 187.777 123.079H235.878V171.408L179.294 171.401Z" fill="#5198D9"/>
<path d="M36.6753 153.008C38.6938 152.329 215.399 153.008 215.399 153.008C215.399 153.008 226.732 115.816 196.617 108C187.591 105.658 182.366 106.54 179.65 107.671C179.239 107.852 178.772 107.863 178.352 107.7C177.933 107.537 177.595 107.215 177.413 106.803C177.356 106.674 177.316 106.537 177.293 106.397C176.647 98.9836 172.39 78.4866 145.192 78.4866C115.247 78.4866 102.126 106.652 102.126 106.652C102.126 106.652 95.441 96.9304 83.6323 95.9803C48.7043 93.1644 40.1354 131.799 40.1354 131.799" fill="white"/>
<path d="M36.4715 152.398C36.7618 152.337 37.0563 152.297 37.3526 152.28H42.2559L47.8446 152.16L59.0221 151.995L81.3508 151.588C96.2465 151.453 111.144 151.351 126.039 151.384H215.402L213.923 152.471C215.836 145.574 216.35 138.364 215.433 131.265C215.071 127.802 213.994 124.452 212.271 121.426C210.548 118.4 208.216 115.765 205.423 113.686C202.55 111.737 199.339 110.339 195.955 109.563C192.547 108.649 189.031 108.204 185.504 108.24C183.859 108.297 182.233 108.612 180.686 109.174L180.415 109.275C180.213 109.361 180.002 109.423 179.787 109.461C179.117 109.588 178.425 109.52 177.793 109.264C177.161 109.009 176.616 108.577 176.223 108.02C175.95 107.602 175.781 107.125 175.73 106.629V105.932L175.566 104.627C175.101 101.14 174.069 97.753 172.512 94.5993C170.971 91.4793 168.804 88.7105 166.145 86.4656C163.439 84.2542 160.318 82.6045 156.967 81.613C153.56 80.5596 150.023 79.9874 146.458 79.9133C142.885 79.8167 139.314 80.1479 135.82 80.8996C121.823 83.8848 109.929 94.4727 103.584 107.216C103.402 107.574 103.086 107.845 102.705 107.972C102.324 108.099 101.908 108.071 101.548 107.895C101.315 107.799 101.107 107.654 100.936 107.471C97.0296 102.064 91.1562 98.4084 84.5808 97.2903C77.8549 96.3722 71.0063 97.3485 64.8048 100.109C58.6659 103.094 53.4048 107.619 49.5344 113.242C45.5157 118.897 42.5182 125.212 40.6779 131.901C40.6464 132.014 40.5716 132.109 40.4699 132.166C40.3682 132.224 40.2479 132.238 40.1354 132.207C40.0281 132.179 39.9361 132.11 39.879 132.014C39.8218 131.919 39.8042 131.805 39.8297 131.697C41.4756 124.824 44.3189 118.293 48.2293 112.405C52.1647 106.408 57.5979 101.542 63.9912 98.2897C70.5402 95.2257 77.8143 94.0501 84.995 94.8952C86.8212 95.1071 88.6191 95.5166 90.3569 96.1166C92.0879 96.7429 93.7529 97.5385 95.3276 98.4919C98.4415 100.392 101.169 102.861 103.369 105.771L100.773 105.993C102.519 102.606 104.636 99.4252 107.085 96.5078C109.463 93.5756 112.097 90.8613 114.957 88.3971C120.727 83.3936 127.628 79.8702 135.064 78.1314C138.777 77.3091 142.576 76.9333 146.379 77.0119C150.212 77.0452 154.022 77.6163 157.696 78.7084C161.448 79.782 164.944 81.6001 167.978 84.0541C170.992 86.556 173.458 89.6515 175.224 93.1478C176.943 96.6052 178.089 100.319 178.618 104.143L178.804 105.585V106.264C178.814 106.236 178.814 106.206 178.804 106.178H178.991L179.346 106.044C181.256 105.342 183.268 104.958 185.302 104.906C189.158 104.834 193.004 105.32 196.721 106.348C200.516 107.264 204.106 108.881 207.308 111.115C210.518 113.412 213.16 116.412 215.034 119.886C216.85 123.326 218.045 127.06 218.563 130.915C219.077 134.688 219.168 138.507 218.834 142.3C218.518 146.093 217.848 149.848 216.832 153.516C216.743 153.832 216.551 154.111 216.288 154.307C216.024 154.503 215.703 154.607 215.374 154.603L126.012 154.144L81.313 153.863L58.9679 153.699H36.6129C36.4465 153.702 36.2852 153.64 36.1645 153.526C36.0437 153.411 35.9733 153.253 35.9685 153.087C35.9462 152.929 35.9862 152.769 36.0801 152.64C36.1741 152.512 36.3145 152.425 36.4715 152.398Z" fill="#C6DEF6"/>
<path d="M197.296 52.7145H228.904V60.3665H191.426V58.5682C191.431 57.0142 192.051 55.5253 193.151 54.428C194.252 53.3307 195.742 52.7145 197.296 52.7145ZM210.236 67.4252H228.187V75.0608H204.438V73.2788C204.443 71.7374 205.053 70.2596 206.138 69.1645C207.223 68.0693 208.694 67.4446 210.236 67.4252Z" fill="white"/>
<path d="M35.2321 75.5359C36.6836 71.715 39.3706 68.489 42.866 66.3707C46.3614 64.2523 50.4645 63.3633 54.5232 63.845C58.1151 64.3503 61.7756 63.7432 65.012 62.1054C68.2485 60.4675 70.9056 57.8775 72.6258 54.6839C72.6944 54.5647 72.8002 54.4714 72.927 54.4182C73.0538 54.365 73.1946 54.3549 73.3276 54.3894C73.4607 54.4239 73.5788 54.5012 73.6637 54.6093C73.7487 54.7175 73.7958 54.8505 73.7978 54.988V75.5359H35.2321Z" fill="#C6DEF6"/>
<path d="M79.0397 31.6586H88.4222V44.995H74.069V36.6295C74.069 35.3111 74.5927 34.0468 75.5249 33.1145C76.4571 32.1823 77.7214 31.6586 79.0397 31.6586ZM154.728 41.4493H161.513V52.8328H149.349V46.8493C149.348 45.4202 149.913 44.049 150.922 43.0365C151.93 42.024 153.299 41.4532 154.728 41.4493Z" fill="#2271B1"/>
<path d="M158.816 31.726C159.318 31.2338 159.921 30.8561 160.583 30.6189C161.245 30.3816 161.95 30.2905 162.651 30.3518C163.939 30.2334 165.212 30.1479 166.502 30.1479C167.792 30.1479 169.063 30.2334 170.337 30.3518C171.037 30.2908 171.742 30.382 172.404 30.6192C173.066 30.8564 173.668 31.234 174.17 31.726V32.5743C173.667 33.0652 173.064 33.4432 172.403 33.6833C171.743 33.9234 171.038 34.0199 170.337 33.9666C169.063 34.0849 167.774 34.1523 166.502 34.1523C165.23 34.1523 163.939 34.1523 162.651 33.9666C161.949 34.02 161.245 33.9234 160.583 33.6833C159.922 33.4433 159.32 33.0652 158.816 32.5743V31.726Z" fill="#2271B1"/>
<path d="M71.9815 186.52V146.68C71.9815 144.429 72.8753 142.272 74.4662 140.681C76.0571 139.09 78.2149 138.196 80.4649 138.196H128.627V186.603L71.9815 186.52Z" fill="#2FB41F"/>
<path d="M95.2093 154.604L109.528 163.562L95.2093 173.232V154.604Z" fill="white"/>
</svg>
