<svg viewBox="0 0 428 226" fill="none" xmlns="http://www.w3.org/2000/svg">
<path d="M87.3082 170.291L89.2062 21.8404V14.402C89.2062 7.91318 94.4257 2.53223 101.069 2.53223H275.211C281.696 2.53223 287.073 7.75492 287.073 14.402V170.133H107.079" fill="#C6DEF6"/>
<path d="M218.331 138.741C240.343 123.261 245.605 92.7985 230.084 70.7017C214.563 48.605 184.137 43.2412 162.125 58.7213C140.113 74.2015 134.851 104.664 150.372 126.761C165.893 148.857 196.319 154.221 218.331 138.741Z" fill="white"/>
<path d="M89.2062 33.5518V14.0854C89.2062 6.33053 94.4257 0 100.911 0H275.211C281.695 0 287.073 6.33053 287.073 14.0854V33.5518H89.2062ZM183.632 50.1695C170.82 51.4356 158.642 57.9244 150.417 67.7367C142.034 77.549 137.764 90.5266 138.396 103.346C139.029 116.324 144.565 128.51 153.897 137.531C163.228 146.552 175.565 151.616 188.535 151.616C201.347 151.775 213.842 146.235 222.541 137.373C222.699 137.214 222.699 136.898 222.541 136.581C222.383 136.423 222.067 136.423 221.908 136.581C212.418 144.178 200.556 148.293 188.693 147.976C176.831 147.501 165.285 142.912 156.902 134.524C148.361 126.294 143.458 115.057 142.983 103.188C142.509 91.4762 146.463 79.6064 154.213 70.7437C161.805 61.8809 172.718 55.8669 184.423 54.6008C196.127 53.1765 207.99 56.5 217.48 63.6218C226.97 70.7437 233.455 81.1891 235.511 92.9006C236.618 98.7563 236.46 104.612 235.511 110.468C235.036 113.475 234.404 116.482 233.613 119.172C232.98 120.755 235.827 122.021 236.46 120.28C237.725 117.273 238.358 114.108 238.99 111.101C240.098 104.929 240.572 98.4398 239.465 92.1092C234.72 65.8375 210.362 47.3207 183.632 50.1695Z" fill="#5198D9"/>
<path d="M292.609 33.5518C275.211 34.9762 257.812 34.8179 240.256 34.9762L187.744 35.1344L135.391 34.8179C117.993 34.8179 100.594 34.8179 83.0377 33.3935V32.6022C100.436 31.1779 117.834 31.3361 135.391 31.1779L187.744 31.0196L240.098 31.1779C257.496 31.1779 274.894 31.1779 292.451 32.6022V33.3935H292.609V33.5518ZM155.478 115.057C154.846 113.475 153.106 112.683 151.682 113.317C150.101 113.95 149.31 115.69 149.942 117.115C150.575 118.697 152.315 119.489 153.738 118.856C155.32 118.223 156.111 116.482 155.478 115.057ZM149.784 102.396C148.203 102.238 146.937 100.814 146.937 99.2311C146.937 97.6484 148.519 96.3823 150.101 96.3823C151.682 96.5406 152.948 97.965 152.948 99.5476C152.789 101.289 151.366 102.396 149.784 102.396ZM153.106 85.6204C151.682 84.8291 151.208 83.0882 151.999 81.5056C152.789 80.0812 154.529 79.6064 156.111 80.3977C157.534 81.1891 158.009 82.93 157.218 84.5126C156.269 85.937 154.529 86.4118 153.106 85.6204ZM163.07 71.8515C162.121 70.5854 162.438 68.6863 163.703 67.7367C164.968 66.7871 166.866 67.1036 167.815 68.3697C168.764 69.6358 168.448 71.535 167.183 72.4846C165.917 73.5924 164.019 73.2759 163.07 71.8515ZM177.938 63.6218C177.622 62.0392 178.729 60.4566 180.31 60.14C181.892 59.8235 183.474 60.9314 183.79 62.514C184.106 64.0966 182.999 65.6793 181.418 65.9958C179.836 66.3123 178.254 65.3627 177.938 63.6218ZM194.862 62.514C195.178 60.9314 196.918 59.9818 198.5 60.2983C200.081 60.6148 201.03 62.3557 200.714 63.9384C200.398 65.521 198.658 66.4706 197.076 66.154C196.32 65.932 195.675 65.4359 195.265 64.7627C194.856 64.0895 194.712 63.2877 194.862 62.514ZM210.837 68.6863C211.944 67.4202 213.684 67.2619 215.107 68.2115C216.373 69.3193 216.531 71.0602 215.582 72.4846C214.633 73.909 212.735 73.9089 211.311 72.9594C209.888 71.8515 209.73 69.9524 210.837 68.6863ZM222.541 80.8725C223.965 80.0812 225.863 80.7143 226.495 82.2969C227.286 83.7213 226.653 85.6204 225.072 86.2535C223.49 86.8865 221.75 86.4118 221.118 84.8291C220.485 83.2465 221.118 81.6639 222.541 80.8725ZM228.077 97.0154C229.659 97.0154 231.082 98.2815 231.082 99.8641C231.082 101.447 229.817 102.871 228.235 102.871C226.653 102.871 225.23 101.605 225.23 100.022C225.23 98.4398 226.495 97.0154 228.077 97.0154ZM226.337 113.95C227.919 114.583 228.551 116.324 227.919 117.906C227.286 119.489 225.546 120.122 223.965 119.489C222.383 118.856 221.75 117.115 222.383 115.532C223.016 113.95 224.755 113.317 226.337 113.95Z" fill="#2271B1"/>
<path d="M219.061 77.2325C218.745 77.0742 218.429 77.0742 218.112 77.0742C212.102 79.923 206.882 84.0378 201.821 87.9944C200.239 89.2605 196.443 92.2675 193.755 94.1667C192.489 93.3753 191.066 93.0588 189.484 93.0588C185.055 93.2171 181.576 96.8571 181.734 101.289C181.892 105.72 185.53 109.202 189.959 109.043C194.387 108.885 197.867 105.245 197.709 100.814C197.709 99.8641 197.551 99.0728 197.234 98.2815C199.449 96.5406 202.77 93.6919 204.826 91.951C209.888 87.8361 214.949 83.563 219.061 78.3403C219.378 78.0238 219.378 77.549 219.061 77.2325ZM189.959 105.562C187.586 105.72 185.53 103.662 185.372 101.289C185.214 98.9146 187.27 96.8571 189.642 96.6989C192.015 96.5406 194.071 98.598 194.229 100.972C194.229 103.504 192.331 105.562 189.959 105.562Z" fill="#2FB41F"/>
<path d="M379.443 179.154C379.443 179.154 378.652 169.817 379.601 163.011L381.341 149.875C382.132 144.336 386.718 140.063 392.096 140.063H409.653C416.137 140.063 421.357 145.919 420.408 152.724L418.668 165.86C418.352 168.55 417.086 170.924 415.347 172.665" fill="white"/>
<path d="M418.51 165.86C404.275 167.759 392.571 175.039 391.305 181.845C389.882 188.492 387.826 196.405 387.826 196.405H415.188L418.51 165.86Z" fill="white"/>
<path d="M420.724 147.818C419.459 143.387 415.505 139.747 410.918 139.272C409.653 139.113 408.704 139.113 407.596 139.113H391.622C389.407 139.113 387.035 140.063 385.295 141.329C383.555 142.754 382.132 144.653 381.341 146.71C380.866 147.818 380.708 148.926 380.55 150.034L380.075 153.199L379.285 159.529C378.968 161.587 378.652 163.961 378.652 166.018C378.494 170.291 378.81 174.723 379.285 178.838C379.285 178.996 379.443 178.996 379.443 178.679C379.601 178.679 379.601 178.679 379.601 178.521C379.601 174.248 379.601 169.975 379.917 165.86C380.075 163.803 380.392 161.587 380.708 159.529L381.657 153.199L382.132 150.034C382.132 148.926 382.448 148.134 382.764 147.185C383.397 145.444 384.662 143.703 386.244 142.437C387.826 141.171 389.724 140.538 391.622 140.538H410.602C414.714 140.854 418.035 144.02 419.301 147.818C419.617 148.926 419.775 149.717 419.775 150.825C419.933 151.3 419.775 151.933 419.775 152.408L419.617 154.148L418.826 160.479C418.51 162.22 418.352 164.119 418.194 165.86C417.877 165.86 417.403 165.86 416.928 166.018L415.347 166.176C414.239 166.335 413.449 166.651 412.341 166.81C410.443 167.284 408.545 167.917 406.647 168.55C402.851 169.975 399.055 171.716 395.892 174.248C394.152 175.514 392.887 176.938 391.622 178.838C391.147 179.787 390.673 180.737 390.356 181.845L389.724 184.693C388.775 188.65 387.984 192.606 386.877 196.405V196.563C386.877 196.721 386.877 196.88 387.035 197.038C386.56 198.62 386.402 200.361 386.086 202.102L385.137 209.224C384.662 213.972 383.871 218.562 383.871 223.468C383.871 223.626 384.03 223.784 384.188 223.784C384.346 223.784 384.504 223.626 384.504 223.468C385.611 218.72 386.244 213.972 386.718 209.224C387.035 206.85 387.351 204.476 387.509 202.102C387.667 200.678 387.826 199.095 387.826 197.513L415.03 197.354C415.347 197.354 415.821 197.038 415.821 196.563C416.454 191.34 416.928 186.276 417.403 181.053L418.668 167.759C418.668 167.601 418.826 167.443 418.826 167.284C419.459 165.227 419.617 163.011 419.933 160.954L420.882 154.623L421.041 152.882C421.199 152.249 421.199 151.775 421.199 151.141C421.199 150.034 421.041 148.768 420.724 147.818ZM418.035 169.5L416.454 181.528C415.663 186.276 415.188 191.024 414.556 195.772L388.933 195.613C389.882 192.132 390.673 188.492 391.622 184.852L392.254 182.003C392.412 181.053 392.887 180.262 393.361 179.471C394.31 177.73 395.576 176.464 397.157 175.197C400.163 172.824 403.642 170.924 407.28 169.5C409.02 168.709 410.918 168.076 412.816 167.601C413.765 167.284 414.714 167.126 415.663 166.81L417.245 166.493C417.561 166.335 417.877 166.335 418.035 166.335V169.5Z" fill="#64CA43"/>
<path d="M48.241 166.176C55.833 160.479 56.1493 147.976 49.19 134.207C42.2306 120.438 22.4597 106.511 13.4442 120.28C4.42869 134.049 31.9498 174.09 43.496 167.917L48.241 166.176ZM60.1035 173.773C55.2003 165.86 58.3637 152.724 68.0118 144.178L70.7007 153.515L72.1242 142.753C75.762 141.487 81.456 141.487 84.6194 144.811C97.2728 158.263 74.4967 179.471 64.0577 175.039L60.1035 173.773ZM100.911 180.578C97.5891 180.262 96.0074 177.413 96.0074 177.413C96.0074 177.413 98.0636 175.039 101.385 175.356C103.125 175.514 104.232 176.464 105.023 177.255C105.656 178.046 105.497 179.154 104.548 179.787C103.599 180.42 102.492 180.895 100.911 180.578ZM107.712 174.09C108.819 173.773 109.293 172.507 108.819 171.716C108.186 170.608 107.237 169.5 105.656 169.025C102.65 167.917 100.12 169.817 100.12 169.817C100.12 169.817 100.911 172.982 104.074 174.09C105.497 174.564 106.605 174.406 107.712 174.09ZM95.6911 177.255C95.6911 177.255 95.6911 173.773 92.8441 172.19C91.4206 171.399 89.9971 171.241 88.8899 171.399C87.7827 171.557 87.1501 172.665 87.4664 173.457C87.7827 174.564 88.5736 175.672 89.9971 176.622C93.1604 178.521 95.6911 177.255 95.6911 177.255ZM99.6453 169.658C99.6453 169.658 100.12 166.335 97.7472 164.277C96.6401 163.328 95.5329 163.011 94.4257 162.853C93.0022 162.695 92.0532 163.961 92.3696 165.227C92.6859 166.335 93.3186 167.284 94.2676 168.234C96.9564 170.45 99.6453 169.658 99.6453 169.658Z" fill="white"/>
<path d="M393.836 154.307C393.203 154.307 392.571 154.782 392.571 155.573C392.571 156.364 393.045 156.839 393.836 156.839C394.469 156.839 395.101 156.364 395.101 155.573C395.101 154.782 394.627 154.307 393.836 154.307ZM406.964 154.307C406.331 154.307 405.698 154.782 405.698 155.573C405.698 156.364 406.173 156.839 406.964 156.839C407.755 156.839 408.229 156.364 408.229 155.573C408.229 154.782 407.596 154.307 406.964 154.307ZM22.776 126.927C22.6179 126.769 22.6179 126.611 22.6179 126.452C22.776 126.294 22.9342 126.294 23.0924 126.294C27.9955 128.985 32.1079 132.466 35.7457 136.581C39.3836 140.696 42.2306 145.444 44.4449 150.667C46.6592 155.889 47.9246 161.112 48.8736 166.651C49.6644 171.874 49.8226 177.097 49.3481 182.478H56.7819C56.9401 179.945 57.7309 177.413 58.8381 175.039C60.1034 172.507 61.527 169.975 63.2668 167.759C66.9046 163.328 71.1751 159.529 75.762 156.364C75.9202 156.206 76.0783 156.364 76.2365 156.364C76.3947 156.522 76.2365 156.681 76.2365 156.839C72.2823 160.796 68.0118 164.436 64.8485 168.867C63.1086 170.924 61.6851 173.298 60.4198 175.672C59.3126 177.888 58.3636 180.104 57.5728 182.478H67.3791C67.6955 182.478 68.0118 182.794 68.17 183.111L72.5986 198.146V198.304C73.2313 204.16 71.4915 210.49 67.8536 215.08C66.1138 217.296 63.7413 219.353 61.0524 220.619C58.5218 222.043 55.5166 222.518 52.5114 222.36C49.6644 222.518 46.6592 221.885 43.9704 220.619C41.2816 219.195 38.9091 217.454 37.1692 215.08C33.5314 210.332 31.7915 204.16 32.4242 198.304V198.146L36.8529 183.111C37.0111 182.794 37.3274 182.478 37.6437 182.478H48.8736C48.3991 177.255 48.0828 172.19 47.2919 166.968C46.3429 161.587 44.9194 156.522 42.8632 151.458C40.8071 146.394 37.9601 141.804 34.6386 137.689C31.317 133.574 27.2047 129.934 22.776 126.927ZM38.1182 184.06L33.6896 198.462V198.304C33.3732 200.994 33.5314 203.843 34.3222 206.692C35.1131 209.382 36.2202 212.073 37.9601 214.289C41.2816 218.878 46.6592 222.043 52.3533 222.202V221.885C55.2003 221.885 57.8891 221.094 60.5779 219.828C62.9505 218.403 65.323 216.662 66.9046 214.447C70.2261 209.857 71.8078 204.16 71.017 198.462V198.62L66.5883 184.218H38.1182V184.06ZM414.556 201.786C414.239 200.203 414.081 198.62 413.607 197.038H412.658C412.658 198.62 412.816 200.203 412.816 201.786C412.974 204.16 413.29 206.534 413.607 208.908C414.239 213.814 414.872 218.403 415.821 223.151C415.821 223.31 415.979 223.468 416.137 223.468C416.296 223.468 416.454 223.31 416.454 223.151C416.296 218.403 415.663 213.655 415.188 208.908C415.188 206.534 414.872 204.318 414.556 201.786ZM405.066 223.151L384.662 222.835V223.151C384.662 223.31 384.504 223.468 384.346 223.468C384.188 223.468 384.03 223.31 384.03 223.151V222.835H381.499L357.932 222.676H350.656C351.605 218.087 352.238 213.497 352.871 208.908C353.187 206.534 353.503 204.16 353.661 201.786C353.978 200.045 353.978 198.146 353.978 196.246C354.452 196.563 355.085 196.721 355.559 196.88C357.141 197.196 358.248 197.038 359.672 197.038H367.58C374.223 196.88 380.708 196.88 387.193 196.721C387.193 196.563 387.035 196.563 387.035 196.405V196.246C387.035 196.088 387.193 195.93 387.193 195.772C380.708 195.613 374.065 195.613 367.58 195.455H359.672C358.248 195.455 356.983 195.455 355.876 195.297C354.61 194.98 353.661 194.347 352.871 193.556C351.131 191.973 350.814 189.283 351.605 187.225C352.554 185.168 354.769 183.585 356.983 183.585L388.616 183.427H390.04L390.356 182.003H388.616L356.983 181.845C355.401 181.845 353.661 182.478 352.396 183.427L352.712 182.161C353.029 181.211 353.187 180.578 353.503 179.945C354.927 176.938 357.616 174.564 360.305 172.824C365.84 169.183 372.167 167.126 378.652 165.543V165.069C375.33 165.385 372.009 166.018 368.845 166.968C365.524 168.076 362.361 169.342 359.355 171.399C356.35 173.298 353.503 175.672 351.763 179.154C351.447 180.104 351.131 181.053 350.973 181.845L350.498 184.377C350.498 184.852 350.34 185.326 350.34 185.643C350.182 185.959 350.024 186.118 350.024 186.434C348.758 189.125 349.549 192.448 351.763 194.664C352.238 195.139 352.712 195.455 353.187 195.772C352.712 197.829 352.238 199.728 352.08 201.786L351.131 208.908C350.656 213.497 350.024 217.929 349.865 222.676L310.64 222.36L216.056 222.202L121.472 222.36C89.997 222.518 58.3636 222.676 26.8884 223.468C26.7302 223.468 26.572 223.626 26.572 223.784C26.572 223.943 26.7302 224.101 26.8884 224.101C58.3636 224.892 89.997 225.05 121.472 225.209L216.056 225.367L310.64 225.209L357.932 224.892L381.499 224.734L405.066 224.417C405.382 224.259 405.698 224.101 405.698 223.784C405.698 223.468 405.382 223.151 405.066 223.151Z" fill="#64CA43"/>
<path d="M384.662 222.835L405.066 223.151C405.382 223.151 405.698 223.468 405.698 223.784C405.698 224.101 405.382 224.259 405.066 224.417L381.499 224.734L357.932 224.892L310.64 225.209L216.056 225.367L121.472 225.209L121.354 225.208C89.9176 225.05 58.3241 224.891 26.8884 224.101C26.7302 224.101 26.572 223.943 26.572 223.784C26.572 223.626 26.7302 223.468 26.8884 223.468C58.3241 222.677 89.9176 222.519 121.354 222.361L121.472 222.36L216.056 222.202L310.64 222.36L349.865 222.676H357.932L381.499 222.835H384.03H384.662Z" fill="#2271B1"/>
<path d="M34.4804 167.443C31.9497 165.86 29.4191 163.803 27.3629 161.745C23.0924 157.314 19.6127 152.566 16.6075 147.185C13.7605 141.804 11.2298 136.106 10.7553 130.092C10.439 127.085 10.5972 123.762 12.337 120.913C14.0769 118.223 16.4494 115.849 19.6127 114.899C22.776 113.95 25.9394 114.266 28.9446 115.374C31.7916 116.482 34.4804 117.906 37.0111 119.805C41.9142 123.445 46.0266 128.193 49.0318 133.416C51.8788 138.797 54.0931 144.653 54.4094 150.667C54.5676 153.674 54.4094 156.839 53.3023 159.688C52.1951 162.536 50.4553 165.069 47.9246 166.968H47.7664C48.0828 166.335 48.0828 166.335 48.2409 166.176C50.4553 164.436 52.1951 161.587 52.9859 158.896C53.7768 156.048 53.9349 153.199 53.6186 150.034C52.9859 144.178 50.9298 138.48 48.0828 133.416C45.2358 128.352 41.1234 123.92 36.3784 120.438C34.0059 118.697 31.3171 117.273 28.6282 116.324C25.9394 115.374 23.0924 115.057 20.2454 116.007C17.7147 116.957 15.3422 118.856 13.9187 121.388C12.4952 123.762 12.1788 126.769 12.4952 129.618C13.1279 135.315 15.3422 141.013 18.031 146.235C20.7199 151.458 24.1995 156.364 28.1537 160.796C30.0517 162.853 32.4242 164.91 34.7967 166.493C36.0621 167.284 37.3274 167.917 38.7509 168.234C40.1744 168.55 41.5979 168.55 42.8633 167.917C43.0214 167.759 43.1796 167.917 43.3378 168.076C43.3378 168.234 43.3377 168.392 43.1796 168.55C41.7561 169.342 40.1744 169.5 38.5927 169.184C37.0111 168.867 35.7457 168.234 34.4804 167.443ZM86.201 145.761C85.4102 144.653 84.4612 143.861 83.354 143.07C82.0887 142.437 80.9815 141.962 79.558 141.646C77.0273 141.171 74.3385 141.487 71.8078 142.279C71.4915 142.279 71.1752 142.595 71.1752 142.912L70.2262 149.875L68.4863 144.02C68.4863 143.861 68.4863 143.861 68.3281 143.703C68.0118 143.387 67.5373 143.387 67.221 143.703C63.1086 147.501 59.9453 152.408 58.3636 157.63C57.5728 160.321 57.0983 163.169 57.2564 166.018C57.4146 168.709 58.3636 171.557 59.7871 173.931C59.7871 173.931 59.9453 173.931 60.1035 173.615V173.457C58.68 171.241 58.2054 168.392 58.2054 165.702C58.2054 163.169 58.68 160.321 59.629 157.789C61.3688 153.041 64.0576 148.768 67.6955 145.444L69.9098 153.357V153.674H70.068V153.832C70.068 154.148 70.3843 154.465 70.7006 154.465C71.1752 154.623 71.6497 154.307 71.6497 153.832L73.0732 143.545C77.3437 142.437 82.5632 142.912 85.0938 146.71C86.6755 148.451 87.4664 150.825 87.6245 153.041C87.7827 155.256 87.3082 157.63 86.3592 159.846C84.6193 164.436 81.1397 168.234 77.5018 171.083C75.6038 172.665 73.3895 173.773 71.1752 174.564C68.9608 175.356 66.4301 175.831 64.2158 174.881C64.0576 174.881 63.7413 174.881 63.7413 175.039C63.7413 175.198 63.7413 175.514 63.8995 175.514C66.272 176.622 69.119 176.464 71.4915 175.672C73.864 174.881 76.2365 173.931 78.2927 172.349C82.405 169.342 85.8847 165.385 87.7827 160.637C88.8899 158.422 89.3644 155.573 89.2062 153.041C88.7317 150.508 87.9409 147.976 86.201 145.761ZM73.0732 190.074C66.4301 189.441 59.7871 189.599 53.1441 189.441L43.1796 189.599C39.8581 189.758 36.5366 189.758 33.2151 190.233C33.0569 190.549 33.0569 190.549 33.2151 190.549C36.5366 191.024 39.8581 191.024 43.1796 191.182L53.1441 191.34C59.7871 191.182 66.4301 191.182 73.0732 190.707C73.2313 190.707 73.3895 190.549 73.3895 190.391C73.3895 190.233 73.2313 190.074 73.0732 190.074ZM109.135 171.083C108.503 169.817 107.712 169.025 106.605 168.392C105.497 167.917 104.232 167.601 102.967 167.759C102.65 167.759 102.492 167.759 102.176 167.917C102.176 167.759 102.176 167.759 102.018 167.601C101.86 167.284 101.701 167.284 101.701 167.443L101.227 166.968C100.911 167.126 100.752 167.443 100.594 167.601C100.594 167.443 100.594 167.284 100.436 167.126C100.278 166.018 99.6452 165.069 98.8544 164.277C97.9054 163.486 97.1145 162.853 96.0074 162.536C95.8492 162.536 95.5329 162.378 95.2165 162.378H94.2675C93.4767 162.378 92.6859 162.695 92.3695 163.328C91.895 163.961 91.5787 164.594 91.5787 165.227C91.5787 165.86 91.895 166.493 92.0532 166.968C92.5277 168.076 93.1604 168.867 93.9512 169.5C94.742 170.133 95.691 170.608 96.7982 170.766H97.7472C96.9564 171.874 96.1655 173.14 95.691 174.248C95.3747 173.298 94.5839 172.349 93.793 171.874C92.844 171.083 91.895 170.766 90.7879 170.608H89.048C88.2572 170.608 87.4664 171.083 87.15 171.716C86.6755 172.349 86.6755 173.14 86.8337 173.773C87.15 174.406 87.3082 174.881 87.6245 175.356C88.2572 176.305 89.2062 177.097 89.997 177.571C90.946 178.046 91.895 178.363 93.0022 178.363C93.3185 178.363 93.793 178.363 94.2675 178.205C93.9512 179.787 93.6349 181.528 93.4767 183.269C93.3185 182.952 93.0022 182.636 92.844 182.319C92.2114 181.37 91.1042 180.737 90.1552 180.578C89.2062 180.42 87.9409 180.262 86.8337 180.578C86.3592 180.737 85.7265 180.895 85.252 181.212C84.6193 181.528 83.9867 182.161 83.8285 182.952C83.6703 183.744 83.8285 184.535 84.303 185.01C84.7775 185.485 85.0938 185.959 85.5684 186.276C86.5173 187.067 87.4664 187.542 88.5735 187.7C89.6807 187.859 90.6297 187.7 91.7369 187.384C92.2114 187.067 92.6859 186.909 93.1604 186.592L93.3185 186.434V191.815C89.8389 191.657 86.3592 191.499 82.8795 191.499H82.5632C82.2468 191.657 82.0887 192.132 82.2468 192.448L85.4102 198.779C84.303 200.994 83.5122 203.21 82.8795 205.584C82.2468 208.116 81.7723 210.807 82.0887 213.339C82.405 216.029 83.6703 218.72 85.7265 220.461C87.6245 221.885 89.997 222.677 92.3695 222.835C92.5277 222.993 92.6859 222.993 93.0022 222.993H93.3185C95.8492 222.993 98.538 222.36 100.594 220.619C102.65 218.878 103.916 216.029 104.232 213.497C104.548 210.807 104.074 208.116 103.441 205.742C102.809 203.527 102.018 201.153 100.911 198.937C101.86 196.88 102.967 194.822 103.916 192.606V192.29C103.916 191.973 103.599 191.657 103.283 191.657C100.752 191.815 98.0635 191.815 95.3747 191.973V187.384C95.5329 187.384 95.5329 187.542 95.691 187.542C96.4819 188.175 97.4309 188.492 98.2217 188.65C99.9615 188.966 101.86 188.333 103.283 187.067C103.758 186.751 104.232 186.118 104.39 185.326C104.39 185.01 104.39 184.535 104.232 184.219C104.074 183.744 103.758 183.427 103.599 183.269C102.65 182.478 101.543 181.686 100.278 181.528C99.0126 181.212 97.9054 181.528 96.64 182.003L95.691 182.478C95.8492 181.37 96.0074 180.42 96.1655 179.471L96.9564 180.262C97.7472 180.895 98.6962 181.37 99.487 181.528C101.227 181.845 103.283 181.37 104.707 180.262C105.181 179.945 105.814 179.312 106.13 178.679C106.13 178.363 106.13 177.888 105.972 177.571C105.814 177.097 105.497 176.78 105.339 176.622C104.548 175.672 103.441 174.881 102.176 174.723C100.752 174.406 99.6452 174.406 98.3799 174.881L97.4309 175.356C98.0635 174.09 98.6962 172.824 99.8034 171.399C99.9615 171.716 100.278 172.032 100.436 172.349C100.911 173.14 101.701 173.773 102.492 174.09C104.232 175.039 106.13 174.881 107.87 174.248L107.712 174.09C108.344 174.09 108.977 173.615 109.293 172.982C109.452 172.665 109.452 172.191 109.452 171.874C109.452 171.716 109.293 171.399 109.135 171.083ZM99.0125 176.78C99.9615 176.464 100.752 176.305 101.701 176.464C102.492 176.622 103.441 177.097 104.074 177.73L104.548 178.205C104.548 178.363 104.707 178.521 104.707 178.679C104.707 179.154 104.548 179.629 104.232 179.945C102.65 180.42 101.069 180.578 99.9615 180.104C99.3289 179.787 98.6962 179.471 98.2217 178.996C97.7472 178.679 97.4309 178.363 97.2727 177.888C97.9054 177.255 98.3799 176.938 99.0125 176.78ZM98.2217 169.5C97.9054 169.5 97.4309 169.342 96.9564 169.184C96.1655 168.867 95.3747 168.55 94.9002 167.917C94.2675 167.284 93.793 166.651 93.4767 166.018C93.0022 165.069 93.1604 164.752 93.4767 164.277C93.6349 164.119 93.793 163.961 94.1094 163.961H94.5839C94.742 163.961 95.0584 164.119 95.2165 164.119C96.0074 164.277 96.7982 164.752 97.2727 165.227C97.9054 165.702 98.538 166.493 98.8544 167.126C99.0125 167.443 99.1707 167.917 99.3289 168.392C99.3289 168.55 99.3289 168.55 99.487 168.709C99.3289 169.025 99.0125 169.183 98.8544 169.5H98.2217ZM94.5839 177.097C94.1094 177.097 93.6349 177.097 93.1604 176.938C92.2114 176.78 91.4205 176.464 90.7879 175.989C89.997 175.514 89.5225 174.881 89.048 174.248C88.8899 173.931 88.7317 173.457 88.5735 173.14C88.5735 172.824 88.5735 172.665 88.7317 172.507C88.8899 172.349 88.8899 172.191 89.2062 172.191H90.4715C91.2624 172.349 92.0532 172.507 92.6859 172.982C93.4767 173.298 94.1094 173.931 94.4257 174.723L94.9002 175.672C94.9002 176.147 94.742 176.622 94.5839 177.097ZM93.0022 185.168L92.6859 185.326C92.5277 185.485 92.2114 185.485 92.0532 185.643C91.7369 185.801 91.2624 185.959 90.7879 185.959C89.8389 186.118 89.048 185.959 88.2572 185.801C87.4664 185.643 86.6755 185.326 86.201 184.693C85.8847 184.377 85.5684 184.06 85.4102 183.744V183.111C85.5684 182.952 85.5684 182.794 85.8847 182.636C86.3592 182.478 86.6755 182.319 87.15 182.161C87.9409 181.845 88.8899 181.845 89.5225 182.003C90.3134 182.161 91.1042 182.636 91.7369 183.111C92.2114 183.427 92.5277 183.744 92.844 184.06L93.3185 184.535L93.4767 184.693V185.01L93.0022 185.168ZM102.492 213.022C102.176 215.238 101.227 217.454 99.487 218.72C98.0635 219.986 95.8492 220.461 93.793 220.619C93.6349 220.619 93.4767 220.461 93.3185 220.461C91.1042 220.461 88.5735 219.828 86.9919 218.562C85.252 217.137 84.303 215.08 83.9867 212.864C83.6703 210.648 83.9867 208.116 84.6193 205.901C85.252 203.527 86.0428 201.153 86.9919 199.095C87.15 198.937 87.15 198.62 86.9919 198.462L83.9867 192.765C87.4664 192.606 90.946 192.606 94.4257 192.448H94.5839C97.2727 192.606 99.8034 192.606 102.492 192.765C101.543 194.664 100.594 196.563 99.487 198.462C99.3289 198.779 99.3289 199.095 99.487 199.254C100.594 201.311 101.227 203.843 101.86 206.059C102.492 208.433 102.65 210.807 102.492 213.022ZM97.2727 183.902C98.2217 183.585 99.0126 183.427 99.9615 183.427C100.911 183.585 101.701 183.902 102.492 184.535C102.65 184.693 102.809 184.693 102.967 184.852C103.125 185.01 103.283 185.168 103.283 185.326C103.441 185.643 103.283 186.118 102.967 186.592C101.543 187.226 99.9615 187.384 98.3799 187.067C97.589 186.909 96.9564 186.592 96.4819 186.118C96.1655 185.801 95.8492 185.485 95.5329 185.326V185.168C96.1655 184.693 96.7982 184.377 97.2727 183.902ZM107.712 173.931C105.972 173.931 104.548 173.615 103.283 172.824C102.65 172.349 102.176 171.874 101.701 171.241C101.385 170.924 101.227 170.608 101.069 170.133C101.701 169.817 102.492 169.658 103.125 169.5C104.074 169.342 105.023 169.5 105.814 169.817C106.605 170.291 107.395 170.924 107.87 171.557C108.028 171.716 108.186 171.874 108.186 172.032C108.344 172.19 108.344 172.507 108.344 172.665C108.344 173.298 108.186 173.615 107.712 173.931Z" fill="#64CA43"/>
<path d="M331.202 175.356C331.202 175.356 340.217 192.606 338.952 209.066L337.528 213.339L308.9 173.773" fill="#CDC9CD"/>
<path d="M331.202 175.356C331.202 175.356 340.217 192.606 338.952 209.066L337.528 213.339L308.9 173.773" stroke="#2271B1"/>
<path d="M296.721 172.19C296.721 172.19 298.778 213.181 300.992 220.144L309.533 219.986C310.007 205.584 314.911 187.226 315.385 168.709L296.721 172.19ZM314.278 97.1737C319.023 96.5406 331.993 112.842 334.365 119.014C336.738 125.345 321.237 128.985 321.237 128.985" fill="#CDC9CD"/>
<path d="M314.278 97.1737C319.023 96.5406 331.993 112.842 334.365 119.014C336.738 125.345 321.237 128.985 321.237 128.985M296.721 172.19C296.721 172.19 298.778 213.181 300.992 220.144L309.533 219.986C310.007 205.584 314.911 187.226 315.385 168.709L296.721 172.19Z" stroke="#2271B1"/>
<path d="M293.242 88.944C295.298 89.4188 297.67 88.7857 297.67 88.7857C297.828 88.7857 297.828 88.944 297.828 88.944L294.191 92.7423L293.242 88.6274" fill="#2271B1"/>
<path d="M293.242 88.944C295.298 89.4188 297.67 88.7857 297.67 88.7857C297.828 88.7857 297.828 88.944 297.828 88.944L294.191 92.7423L293.242 88.6274" stroke="#2271B1" stroke-width="0.876" stroke-miterlimit="10"/>
<path d="M304.313 100.181H294.823L293.242 78.3403H304.313V100.181Z" fill="#CDC9CD"/>
<path d="M295.772 64.0967C290.869 63.9384 286.44 66.1541 285.808 70.5855C285.175 74.3838 282.012 75.1751 281.854 77.2325C281.854 78.6569 284.384 78.9734 284.701 80.3978C285.808 85.1457 289.288 88.6275 294.665 88.944C295.931 88.944 296.563 88.944 297.67 88.6275" fill="#CDC9CD"/>
<path d="M295.772 64.0967C290.869 63.9384 286.44 66.1541 285.808 70.5855C285.175 74.3838 282.012 75.1751 281.854 77.2325C281.854 78.6569 284.384 78.9734 284.701 80.3978C285.808 85.1457 289.288 88.6275 294.665 88.944C295.931 88.944 296.563 88.944 297.67 88.6275" stroke="#2271B1" stroke-linecap="round"/>
<path d="M288.022 81.1891C287.39 82.7717 285.808 83.4048 285.808 83.4048" stroke="#2271B1" stroke-miterlimit="10" stroke-linecap="round" stroke-linejoin="round"/>
<path d="M287.39 76.2829C287.706 76.2829 288.022 75.9664 288.022 75.6498V74.3837C288.022 74.0672 287.706 73.7507 287.39 73.7507C287.073 73.7507 286.757 74.0672 286.757 74.3837V75.6498C286.599 75.9664 286.915 76.2829 287.39 76.2829Z" fill="#2271B1"/>
<path d="M285.966 107.936C285.966 107.936 283.435 106.036 281.379 102.555C278.374 97.1736 270.624 87.9944 268.726 90.5266C266.828 92.9005 270.149 101.447 272.996 102.871C275.052 109.676 285.966 132.466 292.451 130.725C298.936 128.985 304.155 94.3249 295.14 94.7997C286.124 95.2745 285.491 115.216 285.491 115.216" fill="#CDC9CD"/>
<path d="M285.966 107.936C285.966 107.936 283.435 106.036 281.379 102.555C278.374 97.1736 270.624 87.9944 268.726 90.5266C266.828 92.9005 270.149 101.447 272.996 102.871C275.052 109.676 285.966 132.466 292.451 130.725C298.936 128.985 304.155 94.3249 295.14 94.7997C286.124 95.2745 285.491 115.216 285.491 115.216" stroke="#2271B1" stroke-linecap="round" stroke-linejoin="round"/>
<path d="M317.758 85.7787C316.809 84.1961 315.701 82.93 314.436 81.9804C313.329 81.0308 312.538 79.7647 312.222 78.3403C311.905 76.2829 311.273 74.3838 310.324 72.9594C309.058 71.0602 306.686 69.4776 304.313 68.8445C302.099 65.0462 300.201 64.4132 297.512 63.6219C293.084 62.1975 288.813 64.888 288.813 64.888C288.18 69.9524 290.237 75.4916 294.823 75.8081C294.033 79.6065 296.247 84.8291 300.517 86.0953C300.043 88.944 300.676 92.4258 302.574 95.4328C306.053 101.13 312.38 103.504 316.492 100.972C320.763 98.1233 321.237 91.4762 317.758 85.7787Z" fill="#2271B1"/>
<path d="M293.716 94.1667C307.002 89.8936 312.538 93.0588 317.599 100.655C325.824 113.158 321.079 116.324 324.084 127.719C327.089 139.113 334.049 144.02 332.783 176.464H294.823C294.823 176.464 291.186 138.955 292.293 128.035L293.716 94.1667ZM333.1 208.749C333.1 208.749 341.957 224.259 344.804 223.626C346.544 223.31 343.697 215.713 342.748 212.231C342.115 209.699 341.483 208.116 338.952 208.433L333.1 208.749Z" fill="#2FB41F"/>
<path d="M300.517 218.403C298.461 219.036 292.135 220.302 290.237 220.936C288.655 221.41 288.971 223.784 290.711 223.784H307.793C309.691 223.784 311.273 222.043 310.956 220.144L310.64 218.245L300.517 218.403Z" fill="#2FB41F"/>
</svg>
