<svg viewBox="0 0 375 274" fill="none" xmlns="http://www.w3.org/2000/svg"><title>jetpack-spam</title>
<path d="M289.268 145.063V243.384C289.268 245.705 288.812 248.004 287.924 250.149C287.037 252.294 285.736 254.243 284.096 255.884C282.456 257.526 280.509 258.828 278.367 259.717C276.224 260.605 273.927 261.062 271.608 261.062H103.277C98.5929 261.062 94.1004 259.2 90.788 255.884C87.4757 252.569 85.6148 248.072 85.6148 243.384V145.063" fill="#5198D9"/>
<path d="M93.5156 92.0011V20.7446H250.024V132.597" fill="white"/>
<path d="M92.9508 92.001C92.2594 80.1402 91.8281 68.2489 91.4836 56.3881C91.1391 44.5273 91.0148 32.6359 90.7641 20.7446C90.7375 20.394 90.7802 20.0416 90.8898 19.7076C90.9993 19.3735 91.1736 19.0643 91.4026 18.7977C91.6315 18.531 91.9107 18.3121 92.2242 18.1535C92.5377 17.9949 92.8794 17.8997 93.2297 17.8733H93.4101L132.645 17.6387H171.764L250.034 17.8404C250.411 17.8404 250.786 17.9149 251.135 18.0597C251.484 18.2045 251.801 18.4168 252.068 18.6843C252.335 18.9518 252.547 19.2694 252.691 19.6189C252.836 19.9684 252.91 20.343 252.909 20.7212L252.391 76.6613C252.075 95.29 251.759 114.09 251.156 132.573C251.143 132.882 251.009 133.174 250.783 133.384C250.556 133.595 250.256 133.707 249.947 133.697C249.657 133.682 249.383 133.558 249.18 133.35C248.978 133.141 248.861 132.864 248.855 132.573C248.222 113.944 247.917 95.29 247.589 76.6613L247.099 20.7493L249.975 23.6277L171.708 23.9749H132.588L93.5156 23.5362L96.3914 20.6578C96.0187 32.6359 96.0187 44.4968 95.557 56.3881C95.0953 68.2794 94.7812 80.1402 94.0922 92.001C94.0843 92.1539 94.0163 92.2975 93.903 92.4003C93.7897 92.5032 93.6403 92.557 93.4875 92.55C93.4156 92.55 93.3444 92.5358 93.278 92.5081C93.2116 92.4805 93.1513 92.44 93.1005 92.389C93.0498 92.338 93.0096 92.2775 92.9823 92.2109C92.955 92.1443 92.9411 92.073 92.9414 92.001H92.9508Z" fill="#2FB41F"/>
<path d="M121.341 141.263V49.679H277.849V143.594" fill="white"/>
<path d="M120.766 141.293C120.333 133.662 120.075 126.045 119.759 118.259L119.039 95.4776L118.666 72.4457L118.359 49.5639C118.359 48.8017 118.66 48.0704 119.197 47.5303C119.735 46.9903 120.464 46.6856 121.226 46.6831C147.401 46.4141 173.519 46.3273 199.58 46.4227L277.821 46.7981C278.584 46.7981 279.315 47.1013 279.855 47.6411C280.394 48.1809 280.697 48.9131 280.697 49.6765L280.12 96.6341C279.804 112.298 279.487 127.931 278.885 143.592C278.882 143.739 278.849 143.885 278.79 144.02C278.73 144.155 278.645 144.276 278.538 144.378C278.431 144.48 278.306 144.56 278.168 144.613C278.031 144.666 277.884 144.691 277.737 144.687H277.704C277.415 144.675 277.141 144.557 276.934 144.354C276.727 144.152 276.602 143.881 276.584 143.592C275.979 127.931 275.662 112.298 275.346 96.6341L274.856 49.6765L277.734 52.5596L199.58 52.9607C173.502 52.9607 147.412 52.8458 121.312 52.6159L124.188 49.7328L123.9 72.7647L123.497 95.7967L122.836 118.831C122.519 126.46 122.262 134.079 121.83 141.863C121.831 142.008 121.774 142.148 121.672 142.251C121.57 142.354 121.432 142.413 121.287 142.414H121.226C121.152 142.445 121.073 142.461 120.994 142.461C120.914 142.462 120.835 142.446 120.761 142.416C120.687 142.386 120.62 142.341 120.564 142.285C120.507 142.229 120.462 142.162 120.431 142.088C120.4 142.014 120.384 141.936 120.384 141.856C120.384 141.776 120.399 141.697 120.43 141.623C120.46 141.549 120.504 141.482 120.56 141.425C120.617 141.369 120.683 141.324 120.757 141.293H120.766Z" fill="#2271B1"/>
<path d="M211.875 67.5288H262.242V120.764" fill="#2FB41F"/>
<path d="M298.99 103.576V146.475H75.8929V103.576" fill="#5198D9"/>
<path d="M225.469 176.042V187.732C225.546 189.273 225.32 190.814 224.803 192.267C224.285 193.72 223.487 195.057 222.454 196.201C221.42 197.345 220.171 198.275 218.779 198.936C217.386 199.597 215.878 199.978 214.338 200.055H160.46C157.348 199.899 154.426 198.514 152.333 196.204C150.24 193.894 149.148 190.847 149.297 187.732V176.042" fill="white"/>
<path d="M76.7835 144.488C81.3867 144.056 85.9898 143.826 90.5906 143.51L104.419 142.876C113.623 142.473 122.827 142.299 132.061 142.156L159.703 141.839H187.355L242.728 142.243C261.166 142.529 279.602 142.876 298.012 143.911C298.317 143.926 298.604 144.062 298.809 144.288C299.015 144.515 299.122 144.814 299.107 145.119C299.081 145.4 298.957 145.664 298.757 145.863C298.557 146.063 298.294 146.187 298.012 146.212C279.602 147.221 261.166 147.566 242.728 147.854L187.469 148.323H159.827L132.187 148C122.953 148 113.749 147.683 104.545 147.28L90.7171 146.646C86.1164 146.329 81.5132 146.1 76.9101 145.708C76.8349 145.701 76.7618 145.679 76.6949 145.644C76.6281 145.609 76.5689 145.561 76.5207 145.503C76.4726 145.444 76.4364 145.377 76.4143 145.305C76.3923 145.233 76.3847 145.157 76.3921 145.081C76.3764 144.952 76.4071 144.821 76.4788 144.713C76.5505 144.604 76.6586 144.524 76.7835 144.488Z" fill="#2271B1"/>
</svg>
