<svg viewBox="0 0 276 201" fill="none" xmlns="http://www.w3.org/2000/svg"><path d="M38.7832 49.0455V31.3392C38.7832 28.3771 39.9627 25.5364 42.0622 23.4419C44.1617 21.3473 47.0093 20.1707 49.9785 20.1707H215.716C218.686 20.1707 221.533 21.3473 223.633 23.4419C225.732 25.5364 226.912 28.3771 226.912 31.3392V49.0455H38.7832Z" fill="#5198D9"/><path d="M226.912 179.079V151.499C226.917 158.807 224.012 165.818 218.836 170.99C213.66 176.162 206.638 179.072 199.312 179.079H38.7832" fill="#CCCED0"/><path d="M38.7832 49.0454H226.931V116.632H38.7832V49.0454Z" fill="#C6DEF6"/><path d="M60.7942 134.402H118.076V179.074H60.7942V134.402Z" fill="#C6DEF6"/><path d="M175.852 91.1729H60.7942V78.2817H164.146C167.258 78.2817 170.243 79.5142 172.445 81.7083C174.647 83.9025 175.886 86.8789 175.89 89.9838L175.852 91.1729Z" fill="white"/><path d="M135.413 134.402H205.334V179.074H135.413V134.402Z" fill="#C6DEF6"/><path d="M56.392 179.553L39.0868 179.666H38.4986V179.079C38.4986 168.744 38.2519 158.408 38.0242 148.074L37.3601 117.086L37.0151 86.0807L36.8633 55.0944V31.8503C36.8044 30.3497 36.9789 28.8491 37.3808 27.4018C37.85 25.9526 38.5552 24.5904 39.468 23.3698C41.342 20.9003 44.0301 19.1706 47.058 18.4859C48.4579 18.2172 49.8839 18.1092 51.3084 18.1641H132.858L194.978 17.9369H214.407C215.872 17.8888 217.337 18.0159 218.771 18.3155C221.806 19.0287 224.493 20.7844 226.361 23.2751C227.324 24.5115 228.057 25.9105 228.525 27.4053C228.953 28.8573 229.158 30.366 229.132 31.8796V55.1116L228.942 179.097V180.99H184.437C170.226 180.99 155.974 180.857 141.802 180.725L99.1668 179.967C84.8148 179.647 70.6025 179.685 56.392 179.553ZM56.392 178.606C70.6025 178.474 84.8545 178.493 99.0254 178.171L141.66 177.414C155.873 177.3 170.123 177.13 184.296 177.149H226.903L225.006 179.042L224.816 55.0565V31.8503C224.847 30.7824 224.712 29.7161 224.417 28.689C224.086 27.6968 223.593 26.7664 222.956 25.9356C221.695 24.2611 219.88 23.0873 217.833 22.6229C216.733 22.4114 215.612 22.3351 214.493 22.3957H194.978L132.858 22.2822H51.3067C50.1623 22.2184 49.0145 22.3011 47.8912 22.5282C45.8381 22.9859 44.0085 24.1419 42.7162 25.7979C41.3966 27.5282 40.7253 29.6644 40.8187 31.8365V86.0807L40.5375 117.086L40.02 148.074C39.8475 158.399 39.675 168.744 39.675 179.079L39.0868 178.474L56.392 178.606Z" fill="#2271B1"/><path d="M236.247 49.5101C219.018 51.0435 201.772 50.9299 184.542 51.0245L132.839 51.2706L81.1147 51.0245C63.8854 50.9299 46.6388 51.0245 29.4095 49.5101V48.5637C46.6388 47.0303 63.8854 47.1439 81.1147 47.0493L132.839 46.8083L184.542 47.0544C201.772 47.0544 219.018 47.0544 236.247 48.5688V49.5101Z" fill="#2271B1"/><path d="M241.729 135.845H190.481C186.814 135.845 183.84 138.812 183.84 142.471V181.995C183.84 185.654 186.814 188.62 190.481 188.62H241.729C245.397 188.62 248.371 185.654 248.371 181.995V142.471C248.371 138.812 245.397 135.845 241.729 135.845Z" fill="#2FB41F"/><path d="M241.731 189.962L213.8 190.057H192.855C191.589 190.109 190.322 190.077 189.06 189.962C187.642 189.747 186.303 189.174 185.17 188.296C184.05 187.353 183.189 186.143 182.665 184.777C182.238 183.491 182.058 182.136 182.134 180.783V173.798L181.962 159.903V142.509C181.957 140.223 182.861 138.028 184.476 136.406C186.091 134.784 188.285 133.868 190.576 133.858H239.454C240.721 133.82 241.989 133.87 243.249 134.009C244.699 134.305 246.045 134.98 247.148 135.964C248.251 136.949 249.072 138.208 249.528 139.612C249.958 140.904 250.12 142.27 250.003 143.626V150.59L249.851 164.529V181.945C249.839 183.352 249.466 184.733 248.769 185.956C248.055 187.184 247.028 188.202 245.792 188.906C244.555 189.609 243.154 189.974 241.731 189.962ZM241.731 187.255C242.668 187.243 243.586 186.983 244.389 186.501C245.192 186.019 245.852 185.332 246.302 184.512C246.752 183.701 246.99 182.789 246.992 181.862V164.517L246.86 150.578V143.626C246.944 142.665 246.827 141.698 246.515 140.786C246.206 139.978 245.689 139.266 245.016 138.721C244.351 138.178 243.552 137.824 242.702 137.699C242 137.585 240.632 137.699 239.515 137.699H190.633C189.814 137.699 189.009 137.914 188.3 138.323C187.59 138.731 187.001 139.319 186.592 140.027C186.18 140.742 185.958 141.55 185.946 142.374V159.79L185.833 173.729V180.714C185.736 181.676 185.833 182.648 186.117 183.573C186.403 184.398 186.908 185.131 187.578 185.693C188.25 186.262 189.062 186.641 189.931 186.789C190.997 186.892 192.068 186.93 193.138 186.903H214.085L241.731 187.255Z" fill="#2FB41F"/><path d="M224.595 173.154L220.326 164.163C220.119 163.737 220.048 163.258 220.122 162.791C220.197 162.324 220.414 161.891 220.743 161.55C221.627 160.64 222.222 159.489 222.455 158.243C222.688 156.996 222.548 155.709 222.052 154.542C221.556 153.375 220.727 152.379 219.667 151.679C218.608 150.979 217.365 150.605 216.094 150.605C214.823 150.605 213.581 150.979 212.521 151.679C211.462 152.379 210.632 153.375 210.137 154.542C209.641 155.709 209.5 156.996 209.733 158.243C209.966 159.489 210.561 160.64 211.445 161.55C211.777 161.893 211.997 162.328 212.075 162.798C212.153 163.268 212.086 163.751 211.882 164.182L207.614 173.154C207.554 173.276 207.545 173.417 207.588 173.546C207.631 173.675 207.724 173.781 207.845 173.843C207.915 173.878 207.992 173.896 208.07 173.896H224.14C224.277 173.896 224.408 173.842 224.506 173.745C224.603 173.648 224.657 173.517 224.657 173.38C224.654 173.301 224.633 173.224 224.595 173.154Z" fill="white"/><path d="M233.61 135.845H225.113V123.693C225.082 121.674 224.257 119.749 222.816 118.332C221.374 116.915 219.432 116.121 217.409 116.121H214.809C212.786 116.121 210.844 116.915 209.403 118.332C207.961 119.749 207.137 121.674 207.107 123.693V135.845H197.316V122.784C197.316 118.181 199.148 113.767 202.411 110.512C205.673 107.257 210.097 105.428 214.711 105.427H217.5C222.115 105.427 226.54 107.256 229.803 110.511C233.066 113.766 234.9 118.18 234.9 122.784V135.845" fill="#2FB41F"/><path d="M233.61 137.189L225.113 137.327C224.756 137.335 224.411 137.203 224.152 136.958C223.894 136.713 223.743 136.376 223.733 136.021V135.983L223.505 123.357C223.442 122.488 223.192 121.643 222.773 120.879C222.354 120.114 221.775 119.449 221.076 118.927C220.412 118.421 219.647 118.059 218.834 117.867C218.424 117.764 218.004 117.707 217.581 117.695H214.521C214.105 117.706 213.691 117.764 213.288 117.867C212.088 118.19 211.018 118.877 210.226 119.833C209.434 120.788 208.959 121.966 208.866 123.202V135.809C208.866 136.311 208.667 136.793 208.311 137.148C207.955 137.503 207.472 137.702 206.969 137.702H197.178C196.675 137.702 196.192 137.503 195.836 137.148C195.48 136.793 195.28 136.311 195.28 135.809V122.803C195.297 121.846 195.38 120.891 195.529 119.946C195.8 118.031 196.376 116.172 197.236 114.439C198.503 111.836 200.343 109.552 202.62 107.759C204.897 105.966 207.552 104.71 210.384 104.086C212.258 103.719 214.168 103.566 216.077 103.632C217.95 103.586 219.823 103.759 221.656 104.148C223.522 104.59 225.312 105.304 226.969 106.269C230.272 108.213 232.916 111.1 234.559 114.558C235.386 116.269 235.925 118.105 236.153 119.991C236.28 120.926 236.344 121.868 236.342 122.811V125.424L236.247 135.854C236.21 136.161 236.06 136.444 235.828 136.649C235.596 136.854 235.296 136.968 234.986 136.968C234.675 136.968 234.376 136.854 234.143 136.649C233.911 136.444 233.762 136.161 233.724 135.854L233.534 125.424V122.803C233.499 122.01 233.417 121.22 233.287 120.437C233.04 118.874 232.547 117.36 231.826 115.95C230.424 113.107 228.187 110.757 225.413 109.213C224.041 108.451 222.564 107.896 221.029 107.566C219.447 107.273 217.837 107.157 216.229 107.222C214.618 107.164 213.007 107.297 211.428 107.619C209.14 108.14 207 109.17 205.167 110.631C203.333 112.093 201.855 113.949 200.842 116.06C200.159 117.456 199.705 118.951 199.495 120.49C199.383 121.255 199.32 122.026 199.305 122.799V135.842L197.407 133.949H207.198L205.301 135.842V122.954C205.476 120.995 206.259 119.138 207.541 117.643C208.822 116.148 210.539 115.088 212.453 114.611C213.075 114.461 213.71 114.372 214.35 114.346H217.671C218.312 114.368 218.949 114.463 219.568 114.63C220.823 114.957 221.997 115.537 223.018 116.334C224.031 117.132 224.866 118.132 225.47 119.269C226.074 120.406 226.435 121.657 226.529 122.94V135.813L225.149 134.436L233.65 134.569C233.977 134.569 234.29 134.698 234.522 134.929C234.753 135.16 234.883 135.473 234.883 135.799V135.837C234.913 136.167 234.81 136.495 234.598 136.749C234.385 137.004 234.08 137.164 233.75 137.195C233.701 137.188 233.656 137.189 233.61 137.189Z" fill="#2FB41F"/></svg>
