<svg viewBox="0 0 254 253" fill="none" xmlns="http://www.w3.org/2000/svg">
<g clip-path="url(#clip0)">
<path d="M155.402 178.657L153.657 166.573C153.657 95.0776 103.388 94.6682 103.388 94.6682L45.3901 94.4724C11.5745 110.153 9.15277 139.733 8.79663 150.803C8.49391 160.219 16.4537 184.727 16.5783 192.131C34.8127 192.184 117.366 215.588 149.455 192.967C154.013 189.763 156.186 184.157 155.402 178.657Z" fill="#5198D9"/>
<path d="M75.9828 93.6536L71.3707 87.3708L79.9359 87.2285L75.9828 93.6536Z" fill="#C6DEF6"/>
<path d="M91.7955 79.6109V74.7343C82.7317 75.7843 72.8488 77.3506 65.815 75.7665C58.7812 74.1825 78.7073 79.7355 91.7955 79.6109Z" fill="#2271B1"/>
<path d="M67.8093 41.6475C69.0202 41.6475 69.9996 42.6264 69.9996 43.8367V47.2717C69.9996 48.482 69.0202 49.4609 67.8093 49.4609C66.5984 49.4609 65.619 48.482 65.619 47.2717V43.8367C65.619 42.6264 66.5984 41.6475 67.8093 41.6475Z" fill="#2271B1"/>
<path d="M53.528 46.7378C54.1513 50.8313 54.0444 54.9249 54.6855 58.8939C55.2909 62.8273 56.4128 66.7784 58.977 69.466C61.5056 72.1891 65.4054 73.3103 69.3407 73.8265C73.2761 74.3426 77.4251 74.4494 81.4851 74.4316C85.4739 74.396 89.4627 73.7197 92.7926 71.8687C96.1404 70.0177 98.5265 66.8496 99.8977 63.1654C101.269 59.4812 101.91 55.4588 102.302 51.4009C102.747 47.3429 102.943 43.2315 103.317 39.1024C103.334 38.871 103.548 38.693 103.78 38.7108C103.975 38.7286 104.136 38.8888 104.171 39.1024C104.545 43.2493 104.67 47.3963 104.527 51.5611C104.296 55.7258 103.833 59.9796 102.302 64.0553C100.841 68.1133 98.0457 71.9933 94.1104 74.1647C90.1928 76.3716 85.7766 77.1013 81.5386 77.1725C77.3361 77.2259 73.1871 77.1903 68.949 76.5852C66.8477 76.2648 64.7109 75.8199 62.6453 75.019C60.5796 74.2181 58.5674 72.99 57.036 71.2992C53.8664 67.8819 52.7623 63.3968 52.1569 59.2676C51.6227 55.0673 51.2665 50.8847 51.872 46.72C51.9432 46.2572 52.3706 45.9369 52.8336 46.008C53.1897 46.0792 53.4746 46.364 53.528 46.7378Z" fill="#2271B1"/>
<path d="M81.2537 41.9679C81.6989 43.9969 81.7701 46.0259 81.8769 48.0549C81.8769 50.0839 81.8947 52.1129 81.5386 54.1418C81.4496 54.6402 80.9688 54.9783 80.4524 54.8894C80.0784 54.8182 79.7757 54.5156 79.7045 54.1418C79.3305 52.1129 79.3661 50.0839 79.3661 48.0549C79.473 46.0259 79.5442 43.9969 79.9894 41.9679C80.0606 41.612 80.399 41.3984 80.7551 41.4696C81.0044 41.523 81.2003 41.7187 81.2537 41.9679Z" fill="#2271B1"/>
<path d="M92.9707 41.6475C94.1815 41.6475 95.1609 42.6264 95.1609 43.8367V47.2717C95.1609 48.482 94.1815 49.4609 92.9707 49.4609C91.7598 49.4609 90.7804 48.482 90.7804 47.2717V43.8367C90.7804 42.6264 91.7598 41.6475 92.9707 41.6475Z" fill="#2271B1"/>
<path d="M72.1186 59.7127C72.8309 59.5347 72.9556 59.9262 73.4898 60.0864C73.9528 60.2822 74.4514 60.4602 74.9322 60.5848C75.9472 60.8695 77.0334 61.0119 78.1196 61.1899C79.2059 61.3323 80.2921 61.4391 81.3605 61.4925C82.4645 61.4925 83.4083 61.5103 84.6014 61.8306L84.726 61.8662C84.9753 61.9374 85.1178 62.1866 85.0466 62.418C85.0288 62.4714 85.0109 62.5247 84.9753 62.5781C84.0316 63.824 82.6248 64.0198 81.4317 64.091C80.203 64.18 78.9744 64.1444 77.7635 63.9842C76.5348 63.824 75.3239 63.5392 74.1665 63.1477C73.561 62.9519 72.9556 62.7027 72.3858 62.4002C71.8515 62.0976 71.0146 61.8128 70.89 60.8339C70.8365 60.3712 71.1215 59.944 71.5666 59.8372L72.1186 59.7127Z" fill="#2271B1"/>
<path d="M87.3436 32.6417C88.1271 31.7696 89.0353 31.5026 89.8722 31.2534C90.727 31.0577 91.5995 30.9865 92.4542 31.0221C94.1459 31.1289 95.9622 31.4492 97.4046 32.8197C97.7429 33.14 97.7608 33.674 97.4224 34.0121C97.1909 34.2613 96.817 34.3325 96.5143 34.2079L96.3896 34.1545C95.7664 33.9231 95.1253 33.763 94.4842 33.674C93.7898 33.585 93.0775 33.5316 92.383 33.5138C91.6885 33.496 90.9763 33.5138 90.2818 33.585C89.6763 33.6206 89.0531 33.7274 88.4654 33.8875L88.1449 33.9765C87.7176 34.0833 87.2546 33.8342 87.1477 33.3892C87.0765 33.1222 87.1477 32.8553 87.3436 32.6417Z" fill="#204A69"/>
<path d="M92.6324 74.8409C93.2378 78.1335 92.9885 81.6042 93.1132 84.7544C93.3447 87.6911 95.0898 90.2896 97.7252 91.6067C98.3663 91.9271 99.0429 92.1584 99.7552 92.3008L102.195 92.728C103.851 93.0306 105.507 93.3509 107.163 93.7069C110.475 94.401 113.752 95.3087 116.957 96.43C123.367 98.6725 129.6 101.752 134.853 106.219C140.159 110.579 144.166 116.755 145.448 123.465C145.502 123.697 145.341 123.91 145.11 123.964C144.914 123.999 144.718 123.892 144.629 123.714C141.994 117.628 138.165 112.341 133.179 108.195C128.193 104.048 122.228 101.164 116.031 99.0641C112.915 98.0318 109.763 97.1775 106.54 96.43C104.937 96.0562 103.317 95.7359 101.696 95.4333L99.2032 94.9705C98.2772 94.7748 97.3691 94.4544 96.5143 94.0272C93.0597 92.2652 90.7983 88.8124 90.5311 84.9502C90.5311 81.4262 90.3709 78.2225 90.9407 74.8409C91.0119 74.3781 91.4571 74.0578 91.9201 74.1468C92.2762 74.2002 92.5612 74.4849 92.6324 74.8409Z" fill="#2271B1"/>
<path d="M56.6087 20.3967C57.5881 24.2055 60.3838 29.8475 68.8065 34.1012C72.6351 36.0234 78.1909 33.8343 83.4796 36.3616C87.9491 38.4974 90.7092 43.8368 94.9651 44.9047C100.948 46.4175 104.634 50.2975 106.486 52.8248C106.967 53.4656 107.875 53.6079 108.516 53.1274C108.748 52.9672 108.926 52.7358 109.015 52.4689C110.333 48.9448 112.291 42.5197 111.561 37.1091C110.92 32.2146 107.911 -5.42835 72.5995 0.676401C54.9883 3.71988 55.3978 15.6268 56.6087 20.3967Z" fill="#5198D9"/>
<path d="M51.8363 42.0924C51.1241 41.3805 51.2843 40.5796 51.1419 39.7964C51.0528 39.0133 50.9994 38.248 50.9638 37.4649C50.8926 35.8987 50.8213 34.3324 50.9816 32.7662C51.0884 31.1644 51.3733 29.5803 51.8007 28.0497C52.2281 26.5191 52.9226 24.8816 54.4362 23.9383C54.6499 23.7959 54.9348 23.8671 55.0772 24.0807C55.1306 24.1697 55.1663 24.2765 55.1485 24.3655V24.4011C55.0238 26.0207 54.6855 27.2844 54.3471 28.6904C54.0444 30.0787 53.9376 31.5381 53.8129 32.9798C53.7239 34.4392 53.6348 35.9165 53.6705 37.3937C53.6705 38.1234 53.7061 38.8709 53.7417 39.6185C53.7239 40.366 54.0266 41.0779 53.528 41.861L53.4924 41.9322C53.1897 42.4128 52.5486 42.5551 52.05 42.2526C51.9788 42.1992 51.9076 42.1458 51.8363 42.0924Z" fill="#C6DEF6"/>
<path d="M91.5462 87.7623C90.2462 88.3675 88.9641 88.1361 87.6642 88.2073L83.7823 88.2607C81.2003 88.2785 78.6182 88.3675 76.0362 88.3319C73.4542 88.3319 70.8722 88.2785 68.2901 88.2251C65.7081 88.1895 63.1261 88.1005 60.5441 87.3352C60.3126 87.264 60.1701 87.0148 60.2413 86.7835C60.2769 86.6411 60.4016 86.5343 60.5441 86.4809C63.1261 85.7334 65.7081 85.6266 68.2901 85.591C70.8722 85.5198 73.4542 85.4664 76.0362 85.4842C78.6182 85.4486 81.2003 85.5376 83.7823 85.5554L87.6642 85.6088C88.9463 85.68 90.2462 85.4486 91.5462 86.0537C92.0091 86.2673 92.2228 86.8191 91.9913 87.2818C91.9023 87.4954 91.742 87.6556 91.5462 87.7623Z" fill="#2271B1"/>
<path d="M70.8365 34.5105C70.3023 34.8665 70.2845 34.5995 69.9462 34.5461C69.6435 34.4571 69.3229 34.4037 69.0024 34.3681C68.3257 34.2791 67.6313 34.3147 66.9368 34.2969C66.2423 34.3147 65.5478 34.3503 64.8712 34.4393C64.1411 34.6173 63.3932 34.6173 62.6631 34.4393L62.5563 34.4215C62.2713 34.3503 62.0933 34.0656 62.1645 33.7808V33.763C62.4494 32.6061 63.4288 32.1434 64.2657 31.912C65.1027 31.645 65.9752 31.5026 66.8656 31.467C67.7381 31.4314 68.6285 31.5204 69.4832 31.7162C69.9462 31.8052 70.3914 31.9476 70.8187 32.1078C71.2105 32.3035 71.905 32.3925 71.994 33.2468C72.0296 33.5316 71.8871 33.8164 71.6557 33.9766L70.8365 34.5105Z" fill="#2271B1"/>
<path d="M48.0435 57.8794C48.9876 57.8794 49.7529 57.1144 49.7529 56.1708C49.7529 55.2271 48.9876 54.4622 48.0435 54.4622C47.0993 54.4622 46.334 55.2271 46.334 56.1708C46.334 57.1144 47.0993 57.8794 48.0435 57.8794Z" fill="#C6DEF6"/>
<path d="M38.214 186.613C38.7126 183.552 39.0865 180.49 39.3536 177.429L40.7426 163.796L41.9178 150.162L42.5055 143.257C42.5055 140.89 42.8972 138.718 42.7013 136.351C42.5055 136.155 42.3096 135.96 42.1137 135.96C41.7219 135.764 41.5261 135.96 41.3302 136.351C40.7426 138.523 40.5467 140.89 40.3508 143.061L39.7632 149.967L38.5701 163.6L37.377 177.233C37.0921 180.455 36.825 183.676 36.7538 186.898C37.2346 186.755 37.7154 186.666 38.214 186.613Z" fill="#2271B1"/>
<path d="M116.939 159.898L118.399 173.496L119.361 182.359C119.646 182.306 119.948 182.288 120.233 182.27C120.625 182.288 121.035 182.324 121.426 182.395L120.572 173.282L119.111 159.685L118.364 152.779C117.901 150.447 117.865 148.24 117.224 145.962C116.992 145.802 116.761 145.642 116.565 145.695C116.138 145.571 115.977 145.802 115.871 146.229C115.71 148.472 115.977 150.839 116.191 153.01L116.939 159.898Z" fill="#2271B1"/>
<path d="M28.0105 220.554V161.535C28.0105 157.905 30.9665 154.968 34.5991 154.968H134.728V217.795" fill="white"/>
<path d="M27.4051 220.554C26.9599 213.488 27.138 206.44 27.1024 199.374V162.319C26.9777 160.539 27.4941 158.296 28.8119 156.801C30.1118 155.235 31.9815 154.256 34.0115 154.096C35.9169 154.043 37.5729 154.078 39.3715 154.06H49.9667C78.2087 154.114 106.468 153.936 134.728 154.185C135.156 154.185 135.512 154.541 135.512 154.968C135.405 175.916 135.245 196.847 135.031 217.795C135.013 217.956 134.871 218.08 134.71 218.08C134.568 218.062 134.443 217.956 134.426 217.795C134.194 196.847 134.034 175.916 133.945 154.968L134.728 155.751C106.468 155.982 78.2265 155.822 49.9667 155.876H39.3715C37.6442 155.894 35.7744 155.858 34.154 155.894C32.6226 156.018 31.198 156.748 30.2008 157.94C29.2036 159.168 28.8119 160.574 28.9187 162.301V199.357C28.8831 206.422 29.0612 213.47 28.616 220.536C28.5982 220.874 28.3133 221.124 27.9749 221.106C27.6544 221.106 27.4229 220.857 27.4051 220.554Z" fill="#2271B1"/>
<path d="M24.5916 253C21.2973 253 17.629 251.238 15.51 248.604C11.5924 243.727 8.42278 236.092 10.1857 229.987C10.3281 229.489 10.8623 229.186 11.3788 229.329C11.8774 229.471 12.1801 230.005 12.0376 230.521C10.4528 235.949 13.391 242.909 17.0058 247.394C18.5728 249.334 21.7959 251.185 24.9299 251.078C26.8709 250.989 28.3845 250.135 29.4351 248.533C29.72 248.088 30.3255 247.963 30.7707 248.266C31.2158 248.551 31.3405 249.156 31.0378 249.601C29.6488 251.719 27.5654 252.893 25.019 253.018C24.8765 253 24.7341 253 24.5916 253Z" fill="#2271B1"/>
<path d="M29.7912 249.743C25.6956 249.743 21.7424 248.105 21.4753 247.981C20.9945 247.767 20.763 247.198 20.9767 246.717C21.1904 246.237 21.7424 246.023 22.2232 246.219C22.3123 246.254 31.7856 250.188 35.4539 245.614C35.7922 245.204 36.3798 245.133 36.8072 245.471C37.2168 245.809 37.288 246.397 36.9497 246.824C35.1512 249.067 32.4267 249.743 29.7912 249.743Z" fill="#2271B1"/>
<path d="M34.5101 246.771C30.361 246.771 24.6093 243.781 23.8436 243.389C23.3806 243.14 23.2026 242.57 23.4519 242.09C23.7012 241.609 24.271 241.449 24.7518 241.698C27.9571 243.389 33.8512 245.685 36.0771 244.582C36.5579 244.35 36.825 243.941 36.9318 243.336C36.914 243.336 36.6469 241.965 32.765 239.741C32.302 239.474 32.1417 238.886 32.4088 238.441C32.6759 237.996 33.2636 237.818 33.7087 238.085C38.8372 241.022 38.9084 243.087 38.8194 243.656C38.6235 244.866 37.9646 245.792 36.9318 246.308C36.1661 246.646 35.3292 246.806 34.5101 246.771Z" fill="#2271B1"/>
<path d="M130.757 245.881C126.181 245.881 122.726 241.823 122.548 241.609C122.263 241.235 122.334 240.684 122.708 240.399C123.065 240.132 123.581 240.168 123.884 240.506C123.919 240.559 128.371 245.756 133.25 243.62C133.695 243.442 134.194 243.656 134.372 244.101C134.55 244.528 134.354 245.009 133.945 245.204C132.93 245.649 131.861 245.881 130.757 245.881Z" fill="#204A69"/>
<path d="M134.248 246.717C133.126 246.717 132.022 246.575 130.918 246.326C130.455 246.237 130.152 245.774 130.241 245.311C130.33 244.849 130.793 244.546 131.256 244.635C131.274 244.635 131.309 244.653 131.327 244.653C136.723 245.952 142.118 243.531 145.074 238.477C147.122 234.953 146.374 231.5 145.252 227.673C145.11 227.211 145.377 226.73 145.84 226.605C146.303 226.463 146.784 226.73 146.908 227.193C148.101 231.251 148.956 235.238 146.57 239.349C143.828 244.03 139.216 246.717 134.248 246.717Z" fill="#2271B1"/>
<path d="M129.119 236.661H143.881V239.135C143.881 241.645 141.833 243.691 139.323 243.691H21.1548C18.644 243.691 16.5962 241.662 16.5962 239.135V236.661H123.367" fill="white"/>
<path d="M129.119 236.43L143.881 236.127C144.166 236.109 144.397 236.341 144.415 236.626V236.643L144.451 238.939C144.576 241.68 142.528 244.047 139.785 244.332C136.58 244.439 133.606 244.439 130.508 244.475L112.078 244.581V242.766H113.93V244.617L62.7342 244.724L37.1277 244.777L24.3244 244.759H21.1191C19.8014 244.741 18.5193 244.261 17.5221 243.407C16.5249 242.552 15.8482 241.36 15.6524 240.061C15.5811 239.473 15.5633 238.886 15.5811 238.299V236.697C15.5811 236.127 16.0441 235.682 16.5961 235.682L69.9817 235.771C87.771 235.807 105.578 235.896 123.367 236.465C123.492 236.465 123.599 236.572 123.599 236.697C123.599 236.821 123.492 236.928 123.367 236.928C105.578 237.498 87.771 237.587 69.9817 237.622L16.5961 237.711L17.6111 236.697V238.299C17.5933 238.779 17.6111 239.26 17.6646 239.74C17.7892 240.559 18.2166 241.306 18.8576 241.84C19.4987 242.374 20.3 242.677 21.1369 242.677H24.3244L37.1277 242.659L62.7342 242.712L113.93 242.819V244.67H112.078C111.579 244.67 111.152 244.261 111.152 243.763C111.152 243.264 111.561 242.837 112.06 242.837H112.078L130.508 242.944L139.661 243.033C140.996 242.944 142.189 242.161 142.83 240.968C143.151 240.363 143.311 239.705 143.293 239.028L143.329 236.732L143.863 237.266L129.101 236.964C128.977 236.964 128.87 236.857 128.87 236.732C128.87 236.608 128.977 236.501 129.101 236.501L129.119 236.43Z" fill="#5198D9"/>
<path d="M89.2668 240.167H73.3295C71.3886 240.167 69.8215 238.601 69.8215 236.661H92.7926C92.7926 238.601 91.2078 240.167 89.2668 240.167Z" fill="#5198D9"/>
<path d="M27.9037 220.554C32.213 223.081 34.2786 231.678 33.4951 236.216C32.9075 239.598 31.1446 240.239 29.0434 237.444C27.3161 235.148 26.8531 232.247 25.9271 229.453" fill="white"/>
<path d="M31.4829 240.132C30.6638 240.132 29.542 239.687 28.2777 237.996C26.8887 236.145 26.2477 233.956 25.6422 231.838C25.4463 231.126 25.2327 230.432 25.0012 229.72C24.8409 229.222 25.108 228.67 25.6066 228.51C26.1052 228.35 26.6572 228.617 26.8175 229.115C27.0668 229.845 27.2627 230.574 27.4764 231.304C28.064 233.333 28.616 235.255 29.7913 236.821C30.6994 238.014 31.2871 238.228 31.5364 238.192C31.7857 238.139 32.2665 237.605 32.5336 236.021C33.2458 231.856 31.3583 223.687 27.3873 221.355C26.9243 221.088 26.7819 220.501 27.049 220.038C27.3161 219.575 27.9037 219.433 28.3667 219.7C33.0678 222.458 35.2402 231.553 34.4211 236.341C33.9581 239.028 32.8363 239.847 31.9815 240.043C31.8391 240.114 31.661 240.132 31.4829 240.132Z" fill="#2271B1"/>
<path d="M27.2092 190.885C27.2092 190.885 31.4651 202.454 29.4529 210.356C29.2214 212.207 29.257 214.076 29.5597 215.927C29.9871 218.65 28.331 221.284 25.6778 222.067C21.8849 223.206 16.9523 225.645 13.2306 230.859C11.717 232.977 8.5652 232.96 7.19405 230.753C4.66545 226.623 1.60264 219.451 1.03281 208.363C1.03281 208.363 -6.33932 151.854 18.8043 116.738L27.2092 190.885Z" fill="#5198D9"/>
<path d="M9.56244 208.772C10.7021 207.259 12.376 206.689 13.9964 206.138C15.6525 205.568 17.3976 205.248 19.1426 205.177C20.959 205.141 22.7575 205.479 24.4313 206.173C26.0874 206.885 27.6544 208.095 28.2064 209.875C28.2599 210.018 28.1708 210.16 28.0284 210.213C27.9749 210.231 27.9037 210.231 27.8503 210.213L27.8325 210.196C26.1408 209.555 25.0902 208.629 23.6478 208.131C22.2233 207.668 20.7097 207.455 19.2139 207.508C17.6825 207.508 16.1333 207.793 14.6018 208.149C13.0704 208.505 11.6103 209.146 9.82955 209.181H9.81174C9.66929 209.181 9.54464 209.074 9.52683 208.914C9.49122 208.879 9.50902 208.825 9.56244 208.772Z" fill="#2271B1"/>
<path d="M13.747 191.062C14.5127 190.084 15.599 189.674 16.6674 189.336C17.7714 188.98 18.9111 188.767 20.0685 188.695C21.2616 188.695 22.4369 188.927 23.5409 189.372C24.645 189.817 25.66 190.635 26.0339 191.81C26.0695 191.899 26.0161 192.006 25.9093 192.024C25.8737 192.041 25.838 192.041 25.8024 192.024H25.7846C24.6806 191.596 23.9683 191.009 23.0245 190.653C22.0807 190.333 21.0836 190.208 20.0864 190.262C19.0535 190.262 18.0385 190.404 17.0413 190.671C16.0263 190.956 15.0648 191.312 13.8895 191.365C13.7827 191.365 13.7114 191.294 13.7114 191.187C13.7114 191.151 13.7292 191.098 13.747 191.062Z" fill="#2271B1"/>
<path d="M134.123 236.145C133.695 235.807 133.856 235.487 133.802 235.149L133.767 234.152C133.749 233.493 133.695 232.817 133.713 232.159C133.713 231.5 133.749 230.824 133.785 230.165C133.82 229.507 133.874 228.83 134.408 228.172C134.532 228.012 134.782 227.976 134.942 228.118C134.96 228.136 134.978 228.154 134.995 228.172C135.53 228.83 135.601 229.507 135.619 230.165C135.636 230.824 135.708 231.5 135.69 232.159C135.708 232.817 135.654 233.493 135.636 234.152L135.601 235.149C135.547 235.487 135.708 235.807 135.28 236.145C134.96 236.43 134.479 236.43 134.123 236.145Z" fill="#2271B1"/>
<path d="M126.715 239.509C125.7 239.509 124.792 238.975 124.008 237.907C122.317 235.647 124.329 232.034 125.647 229.649C125.878 229.24 126.074 228.866 126.234 228.546C126.786 227.46 127.142 226.267 127.481 225.128C128.033 223.277 128.603 221.355 130.045 219.718C130.348 219.344 130.9 219.291 131.256 219.593C131.63 219.896 131.683 220.447 131.381 220.803C131.363 220.821 131.363 220.821 131.345 220.839C130.152 222.192 129.671 223.847 129.137 225.609C128.781 226.819 128.407 228.083 127.784 229.311C127.623 229.649 127.392 230.041 127.16 230.468C126.11 232.337 124.365 235.487 125.397 236.857C126.11 237.801 126.626 237.765 126.804 237.747C127.908 237.676 129.333 236.056 131.007 232.977C131.915 231.304 133.072 229.827 134.194 228.403C135.316 226.979 136.331 225.698 137.114 224.238C137.364 223.829 137.898 223.687 138.308 223.936C138.699 224.167 138.842 224.648 138.646 225.057C137.791 226.623 136.669 228.065 135.565 229.453C134.461 230.842 133.375 232.23 132.538 233.778C131.648 235.416 129.546 239.26 126.929 239.456C126.858 239.509 126.786 239.509 126.715 239.509Z" fill="#2271B1"/>
<path d="M133.357 198.022C133.357 198.022 127.57 205.408 128.246 215.766C128.211 216.905 128.015 218.027 127.659 219.112C127.053 220.963 128.175 222.886 130.098 223.153C133.678 223.651 140.302 224.594 144.736 227.744C146.606 229.062 149.188 228.777 150.47 226.89C152.126 224.434 153.924 220.483 154.441 214.538C154.441 214.538 159.177 184.246 151.663 143.809L133.357 198.022Z" fill="#5198D9"/>
<path d="M128.888 215.962C129.778 214.503 131.256 213.915 132.698 213.382C134.176 212.83 135.743 212.527 137.328 212.492C138.966 212.492 140.569 212.883 142.029 213.613C143.507 214.289 144.789 215.446 145.234 217.048C145.27 217.19 145.199 217.333 145.056 217.368C145.003 217.386 144.95 217.386 144.896 217.368L144.861 217.351C143.294 216.852 142.421 215.909 141.157 215.464C139.946 214.983 138.646 214.734 137.328 214.752C135.975 214.77 134.621 214.966 133.322 215.322C131.986 215.695 130.757 216.283 129.155 216.354H129.137C128.994 216.354 128.87 216.247 128.852 216.105C128.834 216.051 128.852 215.998 128.888 215.962Z" fill="#2271B1"/>
<path d="M126.145 165.878H36.4689V228.314H126.145V165.878Z" fill="#C6DEF6"/>
<path d="M64.6753 221.266C57.5169 221.48 50.0735 221.533 42.737 221.515C42.4699 221.515 42.2562 221.302 42.2562 221.035V173.923C42.2562 173.656 42.4699 173.443 42.737 173.443H64.5685C64.8356 173.443 65.0493 173.656 65.0493 173.923C65.0315 181.825 65.0671 189.763 64.9958 197.648L64.6753 221.141V221.266ZM64.4438 220.803L64.1411 197.292C64.0699 189.479 64.0877 181.719 64.0877 173.905L64.5685 174.386H42.737L43.2178 173.905V221.017L42.737 220.536C49.9133 220.536 56.9649 220.572 64.337 220.785L64.4438 220.803Z" fill="#5198D9"/>
<path d="M120.874 221.266C112.683 221.444 104.26 221.462 95.9088 221.48L70.6762 221.515C70.4091 221.515 70.1954 221.302 70.1954 221.035V189.585C70.1954 189.318 70.4091 189.105 70.6762 189.105H120.767C121.035 189.105 121.248 189.318 121.248 189.585V189.603C121.159 200.175 121.088 210.819 120.874 221.177V221.266ZM120.643 220.803C120.429 210.213 120.376 199.926 120.269 189.585L120.75 190.066H70.6584L71.1392 189.585V221.035L70.6584 220.554L95.5171 220.59C103.815 220.608 112.06 220.625 120.518 220.803H120.643Z" fill="#5198D9"/>
<path d="M70.6584 173.585C79.0099 173.3 87.3614 173.478 95.713 173.425H120.768C121.035 173.425 121.248 173.638 121.248 173.905V183.605C121.248 183.872 121.035 184.086 120.768 184.086H95.713C87.3614 184.121 79.0099 183.979 70.6584 183.89C70.4982 183.89 70.3735 183.765 70.3735 183.623V183.605L70.4982 178.746C70.4982 178.657 70.5694 178.586 70.6584 178.586C70.7475 178.586 70.8187 178.657 70.8187 178.746L70.9433 183.605L70.6584 183.32C79.0099 183.214 87.3614 183.089 95.713 183.125H120.768L120.287 183.605V173.905L120.768 174.386H95.713C87.3614 174.332 79.0099 174.51 70.6584 174.226C70.4803 174.226 70.3379 174.083 70.3379 173.905C70.3379 173.727 70.4803 173.585 70.6584 173.585Z" fill="#5198D9"/>
<path d="M70.3735 216.995C71.2817 214.681 72.7775 212.652 74.5048 210.836C76.2677 209.074 78.3511 207.579 80.7551 206.761C81.9481 206.316 83.2302 206.12 84.5124 206.173C85.7589 206.191 87.0053 206.351 88.234 206.654C90.6914 207.223 92.8995 208.398 95.1076 209.324C97.28 210.267 99.7018 210.854 101.928 210.534C104.154 210.053 105.988 208.363 107.751 206.725C109.513 205.07 111.33 203.343 113.502 202.098C115.675 200.852 118.168 200.122 120.661 200.282C120.75 200.282 120.821 200.353 120.821 200.442C120.821 200.442 120.821 200.442 120.821 200.46C120.821 200.549 120.75 200.603 120.661 200.62C118.275 200.763 115.96 201.528 113.965 202.845C111.953 204.109 110.226 205.8 108.427 207.455C106.647 209.092 104.759 210.908 102.141 211.513C99.5237 211.869 97.0307 211.21 94.7514 210.231C92.4721 209.252 90.3353 208.131 88.0203 207.597C85.7054 207.099 83.2837 206.85 81.0934 207.686C78.8675 208.451 76.8909 209.858 75.2171 211.531C73.5432 213.204 72.2611 215.25 70.979 217.297C70.89 217.457 70.6763 217.493 70.5338 217.404C70.3735 217.315 70.3201 217.155 70.3735 216.995Z" fill="#5198D9"/>
<path d="M185.122 152.031C186.342 152.031 187.33 151.043 187.33 149.824C187.33 148.606 186.342 147.617 185.122 147.617C183.903 147.617 182.914 148.606 182.914 149.824C182.914 151.043 183.903 152.031 185.122 152.031Z" fill="#64CA43"/>
<path d="M185.122 161.625C186.342 161.625 187.33 160.637 187.33 159.418C187.33 158.199 186.342 157.211 185.122 157.211C183.903 157.211 182.914 158.199 182.914 159.418C182.914 160.637 183.903 161.625 185.122 161.625Z" fill="#64CA43"/>
<path d="M167.796 171.218C169.015 171.218 170.004 170.229 170.004 169.011C170.004 167.792 169.015 166.804 167.796 166.804C166.576 166.804 165.588 167.792 165.588 169.011C165.588 170.229 166.576 171.218 167.796 171.218Z" fill="#64CA43"/>
<path d="M185.122 171.218C186.342 171.218 187.33 170.229 187.33 169.011C187.33 167.792 186.342 166.804 185.122 166.804C183.903 166.804 182.914 167.792 182.914 169.011C182.914 170.229 183.903 171.218 185.122 171.218Z" fill="#64CA43"/>
<path d="M176.112 171.218C177.331 171.218 178.32 170.229 178.32 169.011C178.32 167.792 177.331 166.804 176.112 166.804C174.892 166.804 173.904 167.792 173.904 169.011C173.904 170.229 174.892 171.218 176.112 171.218Z" fill="#64CA43"/>
<path d="M185.122 99.9542C186.342 99.9542 187.33 98.9661 187.33 97.7472C187.33 96.5284 186.342 95.5403 185.122 95.5403C183.903 95.5403 182.914 96.5284 182.914 97.7472C182.914 98.9661 183.903 99.9542 185.122 99.9542Z" fill="#64CA43"/>
<path d="M185.122 109.957C186.342 109.957 187.33 108.969 187.33 107.75C187.33 106.531 186.342 105.543 185.122 105.543C183.903 105.543 182.914 106.531 182.914 107.75C182.914 108.969 183.903 109.957 185.122 109.957Z" fill="#64CA43"/>
<path d="M185.122 142.883C186.342 142.883 187.33 141.895 187.33 140.676C187.33 139.457 186.342 138.469 185.122 138.469C183.903 138.469 182.914 139.457 182.914 140.676C182.914 141.895 183.903 142.883 185.122 142.883Z" fill="#64CA43"/>
<path d="M229.426 74.0758C242.408 74.0758 252.932 63.5813 252.932 50.6357C252.932 37.6901 242.408 27.1956 229.426 27.1956C216.445 27.1956 205.921 37.6901 205.921 50.6357C205.921 63.5813 216.445 74.0758 229.426 74.0758Z" fill="#EFF3F7"/>
<path d="M215.198 32.5706C210.8 36.4328 207.88 41.7366 207.078 47.3608C206.33 52.985 207.577 58.8584 210.818 63.5215C214.041 68.2202 218.956 71.5129 224.529 72.7231C230.032 73.9156 235.961 72.9901 240.787 70.089C245.613 67.2235 249.352 62.5426 250.919 57.132C252.54 51.668 251.988 45.7946 249.406 40.7221C246.806 35.6319 242.372 31.7341 236.994 29.7941C234.341 28.7974 231.527 28.3703 228.643 28.3347C227.183 28.3347 225.74 28.3347 224.387 28.5482C223.034 28.7618 221.698 29.278 220.416 29.9365L220.38 29.9543C220.078 30.0967 219.721 29.9899 219.579 29.6873C219.49 29.4915 219.49 29.278 219.615 29.1C220.932 27.071 222.25 25.0242 223.621 23.0308C223.692 22.924 223.853 22.8884 223.959 22.9774C224.049 23.0486 224.084 23.1732 224.031 23.28C222.944 25.4514 221.805 27.5871 220.647 29.7229L219.828 28.8864C221.128 28.1389 222.553 27.4448 224.084 27.1066C225.616 26.7684 227.147 26.6794 228.643 26.6616C231.652 26.6083 234.768 26.9642 237.671 27.9787C249.887 32.268 256.618 45.3319 253.056 57.7727C251.365 63.7173 247.322 68.9677 241.962 72.0646C236.62 75.2149 230.103 76.1938 224.084 74.8411C217.994 73.4706 212.652 69.8398 209.162 64.6784C205.672 59.5347 204.3 53.2342 205.369 47.1117C206.348 41.0603 209.981 35.5607 214.913 32.1969C215.02 32.1257 215.181 32.1613 215.252 32.268C215.287 32.357 215.27 32.4816 215.198 32.5706Z" fill="#64CA43"/>
<path d="M224.048 44.335L230.138 51.9526L218.315 62.3823" fill="#EFF3F7"/>
<path d="M224.547 43.9256C225.402 44.2816 225.794 45.0113 226.346 45.6165L227.913 47.5031C228.945 48.7667 230.014 49.9948 231.011 51.2763C231.367 51.739 231.314 52.3975 230.886 52.7713C228.91 54.5155 226.933 56.2241 224.903 57.9149C222.909 59.6236 220.897 61.3322 218.528 62.6136C218.368 62.7026 218.172 62.6492 218.083 62.4891C218.03 62.3823 218.03 62.2399 218.101 62.1331C219.668 59.9439 221.609 58.1641 223.568 56.4199C225.526 54.6757 227.45 52.8781 229.426 51.1517L229.302 52.6467C228.269 51.383 227.307 50.0838 226.292 48.8023L224.796 46.8623C224.333 46.186 223.692 45.6521 223.532 44.7443C223.461 44.335 223.728 43.9612 224.138 43.89C224.28 43.8544 224.422 43.8722 224.547 43.9256Z" fill="#2FB41F"/>
<path d="M220.256 29.1712C221.164 28.7796 221.645 29.1356 222.197 29.367C222.749 29.5983 223.283 29.8831 223.799 30.1679C224.298 30.4882 224.814 30.7908 225.295 31.1646C225.776 31.5383 226.328 31.7697 226.452 32.7486C226.47 32.9266 226.381 33.1046 226.203 33.1758C225.295 33.5673 224.814 33.2114 224.262 32.98C223.71 32.7486 223.176 32.4638 222.66 32.1791C222.161 31.8587 221.645 31.5561 221.164 31.1824C220.683 30.8086 220.131 30.5772 220.006 29.5983C219.988 29.4204 220.077 29.2424 220.256 29.1712Z" fill="#64CA43"/>
<path d="M229.426 37.9632C230.075 37.9632 230.602 37.4373 230.602 36.7886C230.602 36.1398 230.075 35.6139 229.426 35.6139C228.777 35.6139 228.251 36.1398 228.251 36.7886C228.251 37.4373 228.777 37.9632 229.426 37.9632Z" fill="#2FB41F"/>
<path d="M229.426 68.1134C230.075 68.1134 230.602 67.5875 230.602 66.9387C230.602 66.29 230.075 65.764 229.426 65.764C228.777 65.764 228.251 66.29 228.251 66.9387C228.251 67.5875 228.777 68.1134 229.426 68.1134Z" fill="#2FB41F"/>
<path d="M244.99 52.5577C245.639 52.5577 246.165 52.0318 246.165 51.383C246.165 50.7343 245.639 50.2084 244.99 50.2084C244.341 50.2084 243.814 50.7343 243.814 51.383C243.814 52.0318 244.341 52.5577 244.99 52.5577Z" fill="#2FB41F"/>
<path d="M213.845 52.5577C214.494 52.5577 215.02 52.0318 215.02 51.383C215.02 50.7343 214.494 50.2084 213.845 50.2084C213.196 50.2084 212.67 50.7343 212.67 51.383C212.67 52.0318 213.196 52.5577 213.845 52.5577Z" fill="#2FB41F"/>
<path d="M134.746 64.1088C127.57 64.1266 122.352 64.1444 122.352 64.1444C122.352 64.1444 118.987 53.1274 127.926 50.8136C130.597 50.1195 132.164 50.3865 132.948 50.7246C133.197 50.8492 133.5 50.7424 133.624 50.4755C133.642 50.4399 133.66 50.3865 133.66 50.3331C133.856 48.1261 135.12 42.0748 143.187 42.0748C152.072 42.0748 155.972 50.4221 155.972 50.4221C155.972 50.4221 157.949 47.5388 161.457 47.254C165.285 46.9514 168.045 48.3041 170.004 50.1551" fill="white"/>
<path d="M134.746 64.447C132.68 64.6428 130.615 64.7674 128.549 64.8208L122.352 64.9276H122.335C121.996 64.9276 121.693 64.714 121.604 64.3758C120.963 62.1511 120.785 59.8373 121.07 57.5414C121.355 55.2454 122.513 52.8605 124.543 51.4544C125.522 50.7781 126.626 50.2797 127.801 49.995C128.941 49.6746 130.116 49.5322 131.291 49.55C131.933 49.5678 132.556 49.6924 133.161 49.906L133.268 49.9416L133.215 49.9238C133.179 49.9238 133.143 49.9238 133.108 49.9238C133.019 49.9416 132.948 49.995 132.894 50.084C132.858 50.1374 132.841 50.1908 132.841 50.2619L132.858 50.0662L132.912 49.6212C133.072 48.4465 133.446 47.3075 133.98 46.2574C135.084 44.086 137.043 42.4842 139.394 41.8434C141.637 41.2383 143.988 41.1849 146.267 41.7011C150.844 42.7512 154.405 46.115 156.667 50.1018L155.367 49.995C156.239 48.8381 157.397 47.9126 158.732 47.3253C160.032 46.7023 161.546 46.5421 162.899 46.6489C165.659 46.7913 168.366 48.0194 170.2 50.0128C170.289 50.1018 170.289 50.2442 170.2 50.3153C170.111 50.3865 169.986 50.3865 169.915 50.3153C167.956 48.6601 165.445 47.7524 162.881 47.8058C161.599 47.8414 160.406 47.9838 159.338 48.5533C158.269 49.1051 157.343 49.8882 156.631 50.8493L156.613 50.8849C156.364 51.2052 155.883 51.2764 155.563 51.0273C155.473 50.9561 155.402 50.8671 155.349 50.7603C153.568 47.0583 150.042 43.9792 146 43.1249C143.97 42.6978 141.887 42.7689 139.892 43.3207C137.969 43.8724 136.349 45.2073 135.476 47.0049C135.031 47.9126 134.728 48.8737 134.604 49.8704L134.568 50.2441L134.55 50.4399C134.532 50.6357 134.461 50.8315 134.354 50.9917C134.158 51.2942 133.82 51.5078 133.464 51.5612C133.286 51.5968 133.126 51.5968 132.948 51.5612C132.858 51.5434 132.787 51.5256 132.698 51.49L132.627 51.4544C132.2 51.312 131.737 51.223 131.291 51.223C129.351 51.223 127.142 51.6858 125.575 52.7893C123.973 53.8928 123.011 55.7438 122.726 57.7727C122.441 59.8017 122.637 61.9553 123.154 63.9309L122.406 63.3791L128.603 63.4503C130.668 63.4859 132.734 63.5927 134.799 63.7885C134.978 63.8063 135.12 63.9665 135.084 64.1445C135.031 64.3046 134.906 64.4292 134.746 64.447Z" fill="#C6DEF6"/>
<path d="M185.496 82.2805C203.072 82.3161 218.332 82.3873 218.332 82.3873C218.332 82.3873 223.71 64.785 209.411 61.083C205.12 59.9795 202.644 60.3888 201.362 60.9228C200.846 61.1363 200.258 60.8338 200.223 60.3176C199.92 56.7936 197.908 47.1115 184.98 47.1115C170.77 47.1115 164.537 60.4422 164.537 60.4422C164.537 60.4422 161.368 55.8325 155.758 55.3876C139.162 54.0527 135.102 72.3492 135.102 72.3492" fill="white"/>
<path d="M185.496 81.9424C190.963 81.7823 196.447 81.6577 201.914 81.6577L218.332 81.6043L217.584 82.156C218.439 78.9346 218.778 75.4105 218.297 72.1179C217.852 68.8074 216.249 65.6928 213.542 63.8418C212.224 62.8985 210.657 62.2755 209.055 61.8662C207.417 61.4568 205.725 61.1899 204.104 61.2432C203.321 61.261 202.537 61.4034 201.807 61.6526L201.665 61.706C201.558 61.7416 201.469 61.7772 201.362 61.795C201.149 61.8306 200.935 61.8306 200.721 61.795C200.276 61.7238 199.884 61.4568 199.635 61.0831C199.51 60.8873 199.421 60.6559 199.403 60.4067L199.368 60.0864L199.297 59.4634C199.083 57.8082 198.584 56.2242 197.836 54.7291C196.358 51.7391 193.687 49.5143 190.464 48.6244C187.206 47.7167 183.769 47.6099 180.457 48.3218C173.815 49.7279 168.205 54.7647 165.196 60.7627C165 61.1365 164.555 61.2966 164.181 61.1009C164.074 61.0475 163.985 60.9763 163.914 60.8873L163.896 60.8695C162.062 58.4667 159.249 56.4734 156.15 56.0818C152.998 55.6902 149.686 56.0462 146.766 57.3989C143.845 58.7515 141.388 60.9763 139.483 63.6104C137.577 66.2801 136.153 69.2524 135.262 72.4027V72.4205C135.227 72.5272 135.102 72.5984 134.977 72.545C134.888 72.5094 134.817 72.4027 134.835 72.3137C135.619 69.0566 136.972 65.9597 138.824 63.1654C140.711 60.4067 143.24 57.9684 146.321 56.4734C149.401 54.9783 152.909 54.4978 156.293 54.8359C159.818 55.2453 162.952 57.2209 165.107 60.033L163.807 60.1398C165.499 56.8827 167.849 54.1774 170.556 51.8103C173.28 49.4787 176.575 47.7345 180.101 46.9514C183.644 46.1505 187.348 46.2394 190.856 47.2005C192.601 47.7345 194.311 48.5354 195.753 49.7279C197.195 50.9203 198.371 52.3798 199.208 54.035C200.044 55.6724 200.596 57.4345 200.864 59.2677L200.953 59.944L200.988 60.2644C200.988 60.2466 200.988 60.2288 200.97 60.1932C200.953 60.1576 200.953 60.1754 200.953 60.1754H200.97L201.149 60.1042C202.057 59.766 203.018 59.588 203.98 59.5702C205.85 59.499 207.666 59.8016 209.411 60.2466C211.156 60.6915 212.937 61.4034 214.45 62.5069C217.567 64.6605 219.365 68.3269 219.828 71.9043C220.327 75.5351 219.971 79.1303 219.009 82.6366C218.92 82.9569 218.617 83.1883 218.279 83.1883H218.261L201.843 83.0281C196.376 82.9747 190.892 82.8323 185.425 82.6366C185.247 82.6366 185.104 82.4942 185.104 82.3162C185.176 82.0848 185.318 81.9424 185.496 81.9424Z" fill="#C6DEF6"/>
<path d="M133.446 82.3874C133.713 82.2984 140.195 82.2628 149.472 82.245Z" fill="white"/>
<path d="M133.357 82.0671C134.871 81.6934 136.082 81.64 137.471 81.5688L141.477 81.4264C142.813 81.3374 144.148 81.551 145.484 81.551C146.819 81.3374 148.155 81.7112 149.49 81.996C149.615 82.0316 149.686 82.1383 149.651 82.2629C149.633 82.3519 149.562 82.4053 149.49 82.4231C148.155 82.7257 146.819 83.0994 145.484 82.8859C144.148 82.9037 142.813 83.1172 141.477 83.046L137.471 82.957C136.171 82.9393 134.853 82.8325 133.553 82.6545L133.357 82.6189C133.197 82.5833 133.09 82.4409 133.108 82.2629C133.144 82.1917 133.233 82.1027 133.357 82.0671Z" fill="#C6DEF6"/>
<path d="M167.476 98.1921C175.097 98.1921 181.276 92.0324 181.276 84.4341C181.276 76.8358 175.097 70.6762 167.476 70.6762C159.854 70.6762 153.675 76.8358 153.675 84.4341C153.675 92.0324 159.854 98.1921 167.476 98.1921Z" fill="#EFF3F7"/>
<path d="M167.725 76.959C168.526 78.2049 168.455 79.4508 168.526 80.6966C168.597 81.9425 168.633 83.1884 168.651 84.4342C168.669 85.6801 168.597 86.926 168.544 88.1718C168.49 89.4177 168.544 90.6636 167.743 91.9094H167.244C166.443 90.6636 166.514 89.4177 166.443 88.1718C166.371 86.926 166.336 85.6801 166.336 84.4342C166.336 83.1884 166.389 81.9425 166.443 80.6966C166.496 79.4508 166.443 78.2049 167.244 76.959H167.725Z" fill="#2FB41F"/>
<path d="M174.972 84.6834C173.726 85.4843 172.479 85.4131 171.233 85.4843C169.986 85.5555 168.74 85.5911 167.493 85.5911C166.247 85.5911 165 85.5377 163.754 85.4843C162.507 85.4309 161.261 85.4843 160.014 84.6834V84.1851C161.261 83.3841 162.507 83.4553 163.754 83.3841C165 83.3129 166.247 83.2773 167.493 83.2773C168.74 83.2773 169.986 83.3307 171.233 83.3841C172.479 83.4375 173.726 83.3841 174.972 84.1851V84.6834Z" fill="#2FB41F"/>
<path d="M176.593 1.31714C176.593 1.31714 171.429 7.70666 162.489 6.95914C162.489 6.95914 157.717 32.535 177.163 38.0168C177.163 38.0168 196.109 35.3827 192.334 6.95914C192.334 6.94134 181.614 7.77785 176.593 1.31714Z" fill="#BBC9D5"/>
<path d="M176.699 38.0166C176.699 38.0166 196.234 35.3825 192.441 6.94115C192.441 6.94115 181.614 7.19032 176.61 0.729614C176.61 0.729614 170.948 7.70647 162.026 6.94115C162.009 6.94115 157.254 32.517 176.699 38.0166Z" fill="#2FB41F"/>
<path d="M170.912 21.0551L175.916 25.0241L186.102 13.5266" fill="#2FB41F"/>
<path d="M171.197 20.6993C171.803 20.7883 172.159 21.1976 172.604 21.518L173.868 22.4969C174.705 23.1554 175.578 23.7783 176.397 24.4547L175.364 24.5437L180.492 18.8305C182.184 16.9083 183.929 15.0395 185.941 13.3843C186.03 13.2953 186.173 13.3131 186.262 13.4021C186.333 13.4732 186.333 13.5978 186.28 13.669C184.891 15.8582 183.235 17.816 181.543 19.7382L176.504 25.5226C176.254 25.8251 175.809 25.8607 175.489 25.6293L175.471 25.6115C174.616 24.9708 173.815 24.2589 172.996 23.6004L171.767 22.5859C171.375 22.2299 170.894 21.9807 170.663 21.4112C170.556 21.1442 170.681 20.8417 170.948 20.7349C171.001 20.6815 171.108 20.6637 171.197 20.6993Z" fill="white"/>
<path d="M185.104 118.482L182.131 123.216C182.131 123.216 181.383 124.889 182.683 125.352L185.087 125.904L185.104 118.482Z" fill="white"/>
<path d="M185.941 130.033L188.915 125.299C188.915 125.299 189.663 123.626 188.363 123.163L185.959 122.611L185.941 130.033Z" fill="white"/>
<path d="M185.122 115.688C180.403 115.688 176.593 119.496 176.593 124.213C176.593 128.929 180.403 132.738 185.122 132.738C189.841 132.738 193.652 128.929 193.652 124.213C193.652 119.496 189.841 115.688 185.122 115.688ZM184.695 125.637H180.439L184.695 117.378V125.637ZM185.55 131.047V122.789H189.806L185.55 131.047Z" fill="#2FB41F"/>
</g>
<defs>
<clipPath id="clip0">
<rect width="254" height="253" fill="white"/>
</clipPath>
</defs>
</svg>
