<svg viewBox="0 0 264 192" fill="none" xmlns="http://www.w3.org/2000/svg"><title>jetpack-support</title>
<path d="M213.431 92.3357C213.37 134.707 178.843 169.007 136.313 168.948C132.664 168.943 129.02 168.679 125.408 168.159C114.578 166.603 101.688 178.583 59.2119 175.487C78.8865 155.025 73.1313 135.643 73.1313 135.643C49.066 100.767 57.9331 53.0596 92.9395 29.0842C127.946 5.1089 175.832 13.9445 199.897 48.8218C208.731 61.6246 213.451 76.7998 213.431 92.3357Z" fill="white"/>
<path d="M214.386 92.3358C214.396 100.737 213.226 109.099 210.911 117.177C208.576 125.382 204.952 133.166 200.173 140.24C197.766 143.817 195.027 147.16 191.991 150.225C188.974 153.349 185.659 156.171 182.091 158.651C174.945 163.657 167.008 167.435 158.61 169.83C150.212 172.26 141.475 173.318 132.738 172.963C130.55 172.963 128.38 172.706 126.21 172.45L124.666 172.248C124.298 172.228 123.93 172.228 123.562 172.248C122.749 172.249 121.938 172.31 121.135 172.432C117.67 172.981 113.652 174.263 109.606 175.391C101.364 177.723 92.9057 179.221 84.3612 179.86C75.8537 180.499 67.3104 180.511 58.801 179.896L49.6072 179.293L56.0257 172.553C60.8013 167.737 64.5548 162.012 67.0626 155.72C68.236 152.651 69.0026 149.443 69.3429 146.176C69.5114 144.57 69.5605 142.954 69.4897 141.34C69.4897 140.535 69.4897 139.746 69.2884 138.976L69.1036 137.84C69.0743 137.542 69.0129 137.247 68.9205 136.961L69.5079 138.207C44.0781 101.48 53.3478 51.1692 90.2121 25.8344C97.0345 21.1447 104.538 17.5251 112.462 15.1018C124.621 11.4624 137.462 10.6848 149.973 12.83C162.459 14.9551 174.248 20.0449 184.341 27.6689C194.255 35.3227 202.067 45.3488 207.05 56.8158C211.931 68.0241 214.429 80.1182 214.386 92.3358ZM212.548 92.3358C212.51 80.5252 209.339 68.9345 203.354 58.7391C194.439 43.856 181.016 32.1728 165.015 25.3692C151.831 19.8899 137.32 18.3961 123.289 21.0738C109.259 23.7516 96.3299 30.4826 86.1118 40.4284C82.0521 44.3543 78.4725 48.7448 75.4479 53.5084C72.39 58.2497 69.9201 63.3427 68.0922 68.6761C64.428 79.3689 63.2952 90.7609 64.7823 101.962C66.2554 113.174 70.363 123.882 76.7712 133.215L77.1952 133.82L77.3602 134.461C77.527 135.064 77.6619 135.675 77.7645 136.292C77.875 136.823 77.9476 137.356 78.0219 137.868C78.1506 138.93 78.243 139.956 78.2793 140.982C78.3685 143.029 78.3007 145.081 78.0763 147.118C77.6465 151.136 76.693 155.081 75.24 158.854C72.3183 166.227 67.942 172.942 62.37 178.601L59.5204 171.274C67.5786 171.912 75.673 171.955 83.7375 171.403C91.7511 170.824 99.6859 169.443 107.422 167.28C111.55 166.027 115.742 164.994 119.98 164.185C121.197 164 122.427 163.914 123.658 163.928C124.328 163.941 124.997 163.99 125.662 164.074L127.207 164.295C129.137 164.551 131.104 164.734 133.054 164.826C140.94 165.217 148.838 164.339 156.443 162.223C171.726 157.785 185.348 148.938 195.591 136.797C200.835 130.658 205.017 123.694 207.966 116.188C209.451 112.407 210.571 108.493 211.312 104.5C212.023 100.483 212.405 96.4147 212.452 92.3358H212.548Z" fill="#5198D9"/>
<path d="M111.477 98.5714C112.087 94.8264 109.535 91.2978 105.776 90.6899C102.017 90.082 98.4746 92.6251 97.8645 96.37C97.2543 100.115 99.8069 103.644 103.566 104.252C107.325 104.859 110.867 102.316 111.477 98.5714Z" fill="#2FB41F"/>
<path d="M139.897 104.336C143.705 104.336 146.792 101.26 146.792 97.4663C146.792 93.6723 143.705 90.5967 139.897 90.5967C136.089 90.5967 133.001 93.6723 133.001 97.4663C133.001 101.26 136.089 104.336 139.897 104.336Z" fill="#2FB41F"/>
<path d="M175.11 104.336C178.918 104.336 182.005 101.26 182.005 97.4663C182.005 93.6723 178.918 90.5967 175.11 90.5967C171.301 90.5967 168.214 93.6723 168.214 97.4663C168.214 101.26 171.301 104.336 175.11 104.336Z" fill="#2FB41F"/>
</svg>
