<?xml version="1.0" encoding="utf-8"?>
<!-- Generator: Adobe Illustrator 21.0.2, SVG Export Plug-In . SVG Version: 6.00 Build 0)  -->
<!DOCTYPE svg PUBLIC "-//W3C//DTD SVG 1.1//EN" "http://www.w3.org/Graphics/SVG/1.1/DTD/svg11.dtd">
<svg version="1.1" id="connectJetpack" xmlns="http://www.w3.org/2000/svg" xmlns:xlink="http://www.w3.org/1999/xlink" x="0px"
	 y="0px" viewBox="0 0 1426.4 1421.5" style="enable-background:new 0 0 1426.4 1421.5;" xml:space="preserve">
<style type="text/css">
	.st0{fill:#00A9DE;}
	.st1{fill:#C8D7E2;}
	.st2{fill:#004F84;}
	.st3{fill:#004F81;}
	.st4{fill:#0084C0;}
	.st5{fill:#74DCFC;}
	.st6{fill:#FFFFFF;}
	.st7{fill:#BBCDDA;}
	.st8{fill:none;}
	.st9{fill:#F3F6F8;}
	.st10{fill:#00BE28;}
</style>
<title>jetPack-poweringUp</title>
<path class="st0" d="M872.7,1003.8l-9.8-67.9c0-401.7-282.3-404-282.3-404l-325.7-1.1C65,618.9,51.4,785.1,49.4,847.3
	c-1.7,52.9,43,190.6,43.7,232.2c102.4,0.3,566,131.8,746.2,4.7C864.9,1066.2,877.1,1034.7,872.7,1003.8z"/>
<polygon class="st1" points="426.7,526.2 400.8,490.9 448.9,490.1 "/>
<path class="st2" d="M515.5,447.3v-27.4c-50.9,5.9-106.4,14.7-145.9,5.8S442,448,515.5,447.3z"/>
<path class="st2" d="M380.8,234L380.8,234c6.8,0,12.3,5.5,12.3,12.3v19.3c0,6.8-5.5,12.3-12.3,12.3l0,0c-6.8,0-12.3-5.5-12.3-12.3
	v-19.3C368.5,239.5,374,234,380.8,234z"/>
<path class="st2" d="M300.6,262.6c3.5,23,2.9,46,6.5,68.3c3.4,22.1,9.7,44.3,24.1,59.4c14.2,15.3,36.1,21.6,58.2,24.5
	s45.4,3.5,68.2,3.4c22.4-0.2,44.8-4,63.5-14.4c18.8-10.4,32.2-28.2,39.9-48.9s11.3-43.3,13.5-66.1c2.5-22.8,3.6-45.9,5.7-69.1
	c0.1-1.3,1.3-2.3,2.6-2.2c1.1,0.1,2,1,2.2,2.2c2.1,23.3,2.8,46.6,2,70c-1.3,23.4-3.9,47.3-12.5,70.2c-8.2,22.8-23.9,44.6-46,56.8
	c-22,12.4-46.8,16.5-70.6,16.9c-23.6,0.3-46.9,0.1-70.7-3.3c-11.8-1.8-23.8-4.3-35.4-8.8s-22.9-11.4-31.5-20.9
	c-17.8-19.2-24-44.4-27.4-67.6c-3-23.6-5-47.1-1.6-70.5c0.4-2.6,2.8-4.4,5.4-4C298.7,258.9,300.3,260.5,300.6,262.6z"/>
<path class="st3" d="M456.3,235.8c2.5,11.4,2.9,22.8,3.5,34.2c0,11.4,0.1,22.8-1.9,34.2c-0.5,2.8-3.2,4.7-6.1,4.2
	c-2.1-0.4-3.8-2.1-4.2-4.2c-2.1-11.4-1.9-22.8-1.9-34.2c0.6-11.4,1-22.8,3.5-34.2c0.4-2,2.3-3.2,4.3-2.8
	C454.9,233.3,456,234.4,456.3,235.8L456.3,235.8z"/>
<path class="st2" d="M522.1,234L522.1,234c6.8,0,12.3,5.5,12.3,12.3v19.3c0,6.8-5.5,12.3-12.3,12.3l0,0c-6.8,0-12.3-5.5-12.3-12.3
	v-19.3C509.8,239.5,515.3,234,522.1,234z"/>
<path class="st2" d="M405,335.5c4-1,4.7,1.2,7.7,2.1c2.6,1.1,5.4,2.1,8.1,2.8c5.7,1.6,11.8,2.4,17.9,3.4c6.1,0.8,12.2,1.4,18.2,1.7
	c6.2,0,11.5,0.1,18.2,1.9l0.7,0.2c1.4,0.4,2.2,1.8,1.8,3.1c-0.1,0.3-0.2,0.6-0.4,0.9c-5.3,7-13.2,8.1-19.9,8.5
	c-6.9,0.5-13.8,0.3-20.6-0.6c-6.9-0.9-13.7-2.5-20.2-4.7c-3.4-1.1-6.8-2.5-10-4.2c-3-1.7-7.7-3.3-8.4-8.8c-0.3-2.6,1.3-5,3.8-5.6
	L405,335.5z"/>
<path class="st3" d="M490.5,183.4c4.4-4.9,9.5-6.4,14.2-7.8c4.8-1.1,9.7-1.5,14.5-1.3c9.5,0.6,19.7,2.4,27.8,10.1
	c1.9,1.8,2,4.8,0.1,6.7c-1.3,1.4-3.4,1.8-5.1,1.1l-0.7-0.3c-3.5-1.3-7.1-2.2-10.7-2.7c-3.9-0.5-7.9-0.8-11.8-0.9
	c-3.9-0.1-7.9,0-11.8,0.4c-3.4,0.2-6.9,0.8-10.2,1.7l-1.8,0.5c-2.4,0.6-5-0.8-5.6-3.3C489,186.1,489.4,184.6,490.5,183.4z"/>
<path class="st2" d="M520.2,420.5c3.4,18.5,2,38,2.7,55.7c1.3,16.5,11.1,31.1,25.9,38.5c3.6,1.8,7.4,3.1,11.4,3.9l13.7,2.4
	c9.3,1.7,18.6,3.5,27.9,5.5c18.6,3.9,37,9,55,15.3c36,12.6,71,29.9,100.5,55c29.8,24.5,52.3,59.2,59.5,96.9c0.3,1.3-0.6,2.5-1.9,2.8
	c-1.1,0.2-2.2-0.4-2.7-1.4c-14.8-34.2-36.3-63.9-64.3-87.2s-61.5-39.5-96.3-51.3c-17.5-5.8-35.2-10.6-53.3-14.8
	c-9-2.1-18.1-3.9-27.2-5.6l-14-2.6c-5.2-1.1-10.3-2.9-15.1-5.3c-19.4-9.9-32.1-29.3-33.6-51c0-19.8-0.9-37.8,2.3-56.8
	c0.4-2.6,2.9-4.4,5.5-3.9l0,0C518.2,416.9,519.8,418.5,520.2,420.5z"/>
<path class="st4" d="M317.9,114.6c5.5,21.4,21.2,53.1,68.5,77c21.5,10.8,52.7-1.5,82.4,12.7c25.1,12,40.6,42,64.5,48
	c33.6,8.5,54.3,30.3,64.7,44.5c2.7,3.6,7.8,4.4,11.4,1.7c1.3-0.9,2.3-2.2,2.8-3.7c7.4-19.8,18.4-55.9,14.3-86.3
	C622.9,181,606-30.5,407.7,3.8C308.8,20.9,311.1,87.8,317.9,114.6z"/>
<path class="st5" d="M291.1,236.5c-4-4-3.1-8.5-3.9-12.9c-0.5-4.4-0.8-8.7-1-13.1c-0.4-8.8-0.8-17.6,0.1-26.4
	c0.6-9,2.2-17.9,4.6-26.5s6.3-17.8,14.8-23.1c1.2-0.8,2.8-0.4,3.6,0.8c0.3,0.5,0.5,1.1,0.4,1.6v0.2c-0.7,9.1-2.6,16.2-4.5,24.1
	c-1.7,7.8-2.3,16-3,24.1c-0.5,8.2-1,16.5-0.8,24.8c0,4.1,0.2,8.3,0.4,12.5c-0.1,4.2,1.6,8.2-1.2,12.6l-0.2,0.4
	c-1.7,2.7-5.3,3.5-8.1,1.8C291.9,237.1,291.5,236.8,291.1,236.5z"/>
<path class="st2" d="M514.1,493.1c-7.3,3.4-14.5,2.1-21.8,2.5l-21.8,0.3c-14.5,0.1-29,0.6-43.5,0.4c-14.5,0-29-0.3-43.5-0.6
	c-14.5-0.2-29-0.7-43.5-5c-1.3-0.4-2.1-1.8-1.7-3.1c0.2-0.8,0.9-1.4,1.7-1.7c14.5-4.2,29-4.8,43.5-5c14.5-0.4,29-0.7,43.5-0.6
	c14.5-0.2,29,0.3,43.5,0.4l21.8,0.3c7.2,0.4,14.5-0.9,21.8,2.5c2.6,1.2,3.8,4.3,2.5,6.9C516.1,491.6,515.2,492.5,514.1,493.1
	L514.1,493.1z"/>
<path class="st2" d="M397.8,193.9c-3,2-3.1,0.5-5,0.2c-1.7-0.5-3.5-0.8-5.3-1c-3.8-0.5-7.7-0.3-11.6-0.4c-3.9,0.1-7.8,0.3-11.6,0.8
	c-4.1,1-8.3,1-12.4,0l-0.6-0.1c-1.6-0.4-2.6-2-2.2-3.6v-0.1c1.6-6.5,7.1-9.1,11.8-10.4c4.7-1.5,9.6-2.3,14.6-2.5
	c4.9-0.2,9.9,0.3,14.7,1.4c2.6,0.5,5.1,1.3,7.5,2.2c2.2,1.1,6.1,1.6,6.6,6.4c0.2,1.6-0.6,3.2-1.9,4.1L397.8,193.9z"/>
<circle class="st5" cx="269.8" cy="315.6" r="9.6"/>
<path class="st3" d="M214.6,1048.5c2.8-17.2,4.9-34.4,6.4-51.6l7.8-76.6l6.6-76.6l3.3-38.8c0-13.3,2.2-25.5,1.1-38.8
	c-1.1-1.1-2.2-2.2-3.3-2.2c-2.2-1.1-3.3,0-4.4,2.2c-3.3,12.2-4.4,25.5-5.5,37.7l-3.3,38.8l-6.7,76.6l-6.7,76.6
	c-1.6,18.1-3.1,36.2-3.5,54.3C209.1,1049.3,211.8,1048.8,214.6,1048.5z"/>
<path class="st3" d="M656.7,898.4l8.2,76.4l5.4,49.8c1.6-0.3,3.3-0.4,4.9-0.5c2.2,0.1,4.5,0.3,6.7,0.7l-4.8-51.2l-8.2-76.4
	l-4.2-38.8c-2.6-13.1-2.8-25.5-6.4-38.3c-1.3-0.9-2.6-1.8-3.7-1.5c-2.4-0.7-3.3,0.6-3.9,3c-0.9,12.6,0.6,25.9,1.8,38.1L656.7,898.4z
	"/>
<path class="st6" d="M157.3,1239.2V907.6c0-20.4,16.6-36.9,37-36.9h562.3v353"/>
<path class="st7" d="M153.9,1239.2c-2.5-39.7-1.5-79.3-1.7-119V912c-0.7-10,2.2-22.6,9.6-31c7.3-8.8,17.8-14.3,29.2-15.2
	c10.7-0.3,20-0.1,30.1-0.2h59.5c158.6,0.3,317.3-0.7,476,0.7c2.4,0,4.4,2,4.4,4.4c-0.6,117.7-1.5,235.3-2.7,353
	c-0.1,0.9-0.9,1.6-1.8,1.6c-0.8-0.1-1.5-0.7-1.6-1.6c-1.3-117.7-2.2-235.3-2.7-353l4.4,4.4c-158.7,1.3-317.3,0.4-476,0.7h-59.5
	c-9.7,0.1-20.2-0.1-29.3,0.1c-8.6,0.7-16.6,4.8-22.2,11.5c-5.6,6.9-7.8,14.8-7.2,24.5v208.2c-0.2,39.7,0.8,79.3-1.7,119
	c-0.1,1.9-1.7,3.3-3.6,3.2C155.3,1242.3,154,1240.9,153.9,1239.2L153.9,1239.2z"/>
<path class="st2" d="M138.1,1421.5c-18.5,0-39.1-9.9-51-24.7c-22-27.4-39.8-70.3-29.9-104.6c0.8-2.8,3.8-4.5,6.7-3.7
	c2.8,0.8,4.5,3.8,3.7,6.7l0,0c-8.9,30.5,7.6,69.6,27.9,94.8c8.8,10.9,26.9,21.3,44.5,20.7c10.9-0.5,19.4-5.3,25.3-14.3
	c1.6-2.5,5-3.2,7.5-1.5c2.5,1.6,3.2,5,1.5,7.5c-7.8,11.9-19.5,18.5-33.8,19.2C139.7,1421.5,138.9,1421.5,138.1,1421.5z"/>
<path class="st2" d="M167.3,1403.2c-23,0-45.2-9.2-46.7-9.9c-2.7-1.2-4-4.4-2.8-7.1s4.3-3.9,7-2.8c0.5,0.2,53.7,22.3,74.3-3.4
	c1.9-2.3,5.2-2.7,7.6-0.8c2.3,1.9,2.7,5.2,0.8,7.6l0,0C197.4,1399.4,182.1,1403.2,167.3,1403.2z"/>
<path class="st2" d="M193.8,1386.5c-23.3,0-55.6-16.8-59.9-19c-2.6-1.4-3.6-4.6-2.2-7.3s4.6-3.6,7.3-2.2c18,9.5,51.1,22.4,63.6,16.2
	c2.7-1.3,4.2-3.6,4.8-7l0,0c-0.1,0-1.6-7.7-23.4-20.2c-2.6-1.5-3.5-4.8-2-7.3s4.8-3.5,7.3-2c28.8,16.5,29.2,28.1,28.7,31.3
	c-1.1,6.8-4.8,12-10.6,14.9C203.1,1385.8,198.4,1386.7,193.8,1386.5z"/>
<path class="st2" d="M734.3,1381.5c-25.7,0-45.1-22.8-46.1-24c-1.6-2.1-1.2-5.2,0.9-6.8c2-1.5,4.9-1.3,6.6,0.6
	c0.2,0.3,25.2,29.5,52.6,17.5c2.5-1,5.3,0.2,6.3,2.7c1,2.4-0.1,5.1-2.4,6.2C746.5,1380.2,740.5,1381.5,734.3,1381.5z"/>
<path class="st2" d="M753.9,1386.2c-6.3,0-12.5-0.8-18.7-2.2c-2.6-0.5-4.3-3.1-3.8-5.7s3.1-4.3,5.7-3.8c0.1,0,0.3,0.1,0.4,0.1
	c30.3,7.3,60.6-6.3,77.2-34.7c11.5-19.8,7.3-39.2,1-60.7c-0.8-2.6,0.7-5.3,3.3-6c2.6-0.8,5.3,0.7,6,3.3c6.7,22.8,11.5,45.2-1.9,68.3
	C807.7,1371.1,781.8,1386.2,753.9,1386.2z"/>
<path class="st6" d="M725.1,1329.7H808v13.9c0,14.1-11.5,25.6-25.6,25.6H118.8c-14.1,0-25.6-11.4-25.6-25.6v-13.9h599.6"/>
<path class="st7" d="M725.1,1328.4l82.9-1.7c1.6-0.1,2.9,1.2,3,2.8l0,0l0,0v0.1l0.2,12.9c0.7,15.4-10.8,28.7-26.2,30.3
	c-18,0.6-34.7,0.6-52.1,0.8l-103.5,0.6V1364h10.4v10.4l-287.5,0.6l-143.8,0.3l-71.9-0.1h-18c-7.4-0.1-14.6-2.8-20.2-7.6
	c-5.6-4.8-9.4-11.5-10.5-18.8c-0.4-3.3-0.5-6.6-0.4-9.9v-9c0-3.2,2.6-5.7,5.7-5.7l299.8,0.5c99.9,0.2,199.9,0.7,299.8,3.9
	c0.7,0,1.3,0.6,1.3,1.3s-0.6,1.3-1.3,1.3c-99.9,3.2-199.9,3.7-299.8,3.9l-299.8,0.5l5.7-5.7v9c-0.1,2.7,0,5.4,0.3,8.1
	c0.7,4.6,3.1,8.8,6.7,11.8s8.1,4.7,12.8,4.7h17.9l71.9-0.1l143.8,0.3l287.5,0.6v10.4h-10.4c-2.8,0-5.2-2.3-5.2-5.1
	c0-2.8,2.3-5.2,5.1-5.2h0.1l103.5,0.6l51.4,0.5c7.5-0.5,14.2-4.9,17.8-11.6c1.8-3.4,2.7-7.1,2.6-10.9l0.2-12.9l3,3l-82.9-1.7
	c-0.7,0-1.3-0.6-1.3-1.3s0.6-1.3,1.3-1.3L725.1,1328.4z"/>
<path class="st6" d="M750.2,1329.7"/>
<path class="st6" d="M633,1329.7"/>
<path class="st7" d="M501.3,1349.4h-89.5c-10.9,0-19.7-8.8-19.7-19.7h129C521.1,1340.6,512.2,1349.4,501.3,1349.4L501.3,1349.4z"/>
<path class="st6" d="M156.7,1239.2c24.2,14.2,35.8,62.5,31.4,88c-3.3,19-13.2,22.6-25,6.9c-9.7-12.9-12.3-29.2-17.5-44.9"/>
<path class="st2" d="M176.8,1349.2c-4.6,0-10.9-2.5-18-12c-7.8-10.4-11.4-22.7-14.8-34.6c-1.1-4-2.3-7.9-3.6-11.9
	c-0.9-2.8,0.6-5.9,3.4-6.8s5.9,0.6,6.8,3.4c1.4,4.1,2.5,8.2,3.7,12.3c3.3,11.4,6.4,22.2,13,31c5.1,6.7,8.4,7.9,9.8,7.7
	c1.4-0.3,4.1-3.3,5.6-12.2c4-23.4-6.6-69.3-28.9-82.4c-2.6-1.5-3.4-4.8-1.9-7.4s4.8-3.4,7.4-1.9c26.4,15.5,38.6,66.6,34,93.5
	c-2.6,15.1-8.9,19.7-13.7,20.8C178.8,1349.1,177.8,1349.2,176.8,1349.2z"/>
<path class="st0" d="M152.8,1072.5c0,0,23.9,65,12.6,109.4c-1.3,10.4-1.1,20.9,0.6,31.3c2.4,15.3-6.9,30.1-21.8,34.5
	c-21.3,6.4-49,20.1-69.9,49.4c-8.5,11.9-26.2,11.8-33.9-0.6C26.2,1273.3,9,1233,5.8,1170.7c0,0-41.4-317.5,99.8-514.8L152.8,1072.5z
	"/>
<path class="st2" d="M53.7,1173c6.4-8.5,15.8-11.7,24.9-14.8c9.3-3.2,19.1-5,28.9-5.4c10.2-0.2,20.3,1.7,29.7,5.6
	c9.3,4,18.1,10.8,21.2,20.8c0.3,0.8-0.2,1.6-1,1.9c-0.3,0.1-0.7,0.1-1,0l-0.1-0.1c-9.5-3.6-15.4-8.8-23.5-11.6
	c-8-2.6-16.5-3.8-24.9-3.5c-8.6,0-17.3,1.6-25.9,3.6s-16.8,5.6-26.8,5.8h-0.1c-0.8,0-1.5-0.6-1.6-1.5
	C53.3,1173.6,53.4,1173.3,53.7,1173L53.7,1173z"/>
<path class="st2" d="M77.2,1073.5c4.3-5.5,10.4-7.8,16.4-9.7c6.2-2,12.6-3.2,19.1-3.6c6.7,0,13.3,1.3,19.5,3.8s11.9,7.1,14,13.7
	c0.2,0.5-0.1,1.1-0.7,1.2c-0.2,0.1-0.4,0.1-0.6,0h-0.1c-6.2-2.4-10.2-5.7-15.5-7.7c-5.3-1.8-10.9-2.5-16.5-2.2
	c-5.8,0-11.5,0.8-17.1,2.3c-5.7,1.6-11.1,3.6-17.7,3.9h0c-0.6,0-1-0.4-1-1C77,1074,77.1,1073.7,77.2,1073.5L77.2,1073.5z"/>
<line class="st8" x1="756.5" y1="1326.8" x2="756.5" y2="1281.9"/>
<path class="st7" d="M753.2,1326.8c-2.4-1.9-1.5-3.7-1.8-5.6l-0.2-5.6c-0.1-3.7-0.4-7.5-0.3-11.2c0-3.7,0.2-7.5,0.4-11.2
	s0.5-7.5,3.5-11.2c0.7-0.9,2.1-1.1,3-0.3c0.1,0.1,0.2,0.2,0.3,0.3c3,3.7,3.4,7.5,3.5,11.2s0.5,7.5,0.4,11.2
	c0.1,3.7-0.2,7.5-0.3,11.2l-0.2,5.6c-0.3,1.9,0.6,3.7-1.8,5.6C757.9,1328.4,755.2,1328.4,753.2,1326.8z"/>
<path class="st2" d="M711.6,1345.7c-5.7,0-10.8-3-15.2-9c-9.5-12.7,1.8-33,9.2-46.4c1.3-2.3,2.4-4.4,3.3-6.2
	c3.1-6.1,5.1-12.8,7-19.2c3.1-10.4,6.3-21.2,14.4-30.4c1.7-2.1,4.8-2.4,6.8-0.7c2.1,1.7,2.4,4.8,0.7,6.8c-0.1,0.1-0.1,0.1-0.2,0.2
	c-6.7,7.6-9.4,16.9-12.4,26.8c-2,6.8-4.1,13.9-7.6,20.8c-0.9,1.9-2.2,4.1-3.5,6.5c-5.9,10.5-15.7,28.2-9.9,35.9c4,5.3,6.9,5.1,7.9,5
	c6.2-0.4,14.2-9.5,23.6-26.8c5.1-9.4,11.6-17.7,17.9-25.7s12-15.2,16.4-23.4c1.4-2.3,4.4-3.1,6.7-1.7c2.2,1.3,3,4,1.9,6.3
	c-4.8,8.8-11.1,16.9-17.3,24.7s-12.3,15.6-17,24.3c-5,9.2-16.8,30.8-31.5,31.9C712.4,1345.7,712,1345.7,711.6,1345.7z"/>
<path class="st0" d="M748.9,1112.6c0,0-32.5,41.5-28.7,99.7c-0.2,6.4-1.3,12.7-3.3,18.8c-3.4,10.4,2.9,21.2,13.7,22.7
	c20.1,2.8,57.3,8.1,82.2,25.8c10.5,7.4,25,5.8,32.2-4.8c9.3-13.8,19.4-36,22.3-69.4c0,0,26.6-170.2-15.6-397.4L748.9,1112.6z"/>
<path class="st2" d="M723.8,1213.4c5-8.2,13.3-11.5,21.4-14.5c8.3-3.1,17.1-4.8,26-5c9.2,0,18.2,2.2,26.4,6.3
	c8.3,3.8,15.5,10.3,18,19.3c0.2,0.8-0.2,1.6-1,1.8c-0.3,0.1-0.6,0.1-0.9,0l-0.2-0.1c-8.8-2.8-13.7-8.1-20.8-10.6
	c-6.8-2.7-14.1-4.1-21.5-4c-7.6,0.1-15.2,1.2-22.5,3.2c-7.5,2.1-14.4,5.4-23.4,5.8h-0.1c-0.8,0-1.5-0.6-1.6-1.4
	C723.5,1213.9,723.6,1213.6,723.8,1213.4L723.8,1213.4z"/>
<rect x="204.8" y="932" class="st9" width="503.6" height="350.8"/>
<path class="st1" d="M363.2,1243.2c-40.2,1.2-82,1.5-123.2,1.4c-1.5,0-2.7-1.2-2.7-2.7V977.2c0-1.5,1.2-2.7,2.7-2.7h122.6
	c1.5,0,2.7,1.2,2.7,2.7l0,0c-0.1,44.4,0.1,89-0.3,133.3l-1.8,132L363.2,1243.2z M361.9,1240.6l-1.7-132.1
	c-0.4-43.9-0.3-87.5-0.3-131.4l2.7,2.7H240l2.7-2.7v264.7l-2.7-2.7c40.3,0,79.9,0.2,121.3,1.4L361.9,1240.6z"/>
<path class="st1" d="M678.8,1243.2c-46,1-93.3,1.1-140.2,1.2l-141.7,0.2c-1.5,0-2.7-1.2-2.7-2.7l0,0v-176.7c0-1.5,1.2-2.7,2.7-2.7
	h281.3c1.5,0,2.7,1.2,2.7,2.7v0.1c-0.5,59.4-0.9,119.2-2.1,177.4V1243.2z M677.5,1240.6c-1.2-59.5-1.5-117.3-2.1-175.4l2.7,2.7
	H396.8l2.7-2.7v176.7l-2.7-2.7l139.6,0.2c46.6,0.1,92.9,0.2,140.4,1.2L677.5,1240.6z"/>
<path class="st1" d="M396.8,975.3c46.9-1.6,93.8-0.6,140.7-0.9h140.7c1.5,0,2.7,1.2,2.7,2.7v54.5c0,1.5-1.2,2.7-2.7,2.7H537.5
	c-46.9,0.2-93.8-0.6-140.7-1.1c-0.9,0-1.6-0.7-1.6-1.5l0,0v-0.1l0.7-27.3c0-0.5,0.4-0.9,0.9-0.9s0.9,0.4,0.9,0.9l0.7,27.3l-1.6-1.6
	c46.9-0.6,93.8-1.3,140.7-1.1h140.7l-2.7,2.7v-54.5l2.7,2.7H537.5c-46.9-0.3-93.8,0.7-140.7-0.9c-1,0-1.8-0.8-1.8-1.8
	S395.8,975.3,396.8,975.3z"/>
<path class="st1" d="M395.2,1219.2c5.1-13,13.5-24.4,23.2-34.6c9.9-9.9,21.6-18.3,35.1-22.9c6.7-2.5,13.9-3.6,21.1-3.3
	c7,0.1,14,1,20.9,2.7c13.8,3.2,26.2,9.8,38.6,15c12.2,5.3,25.8,8.6,38.3,6.8c12.5-2.7,22.8-12.2,32.7-21.4c9.9-9.3,20.1-19,32.3-26
	s26.2-11.1,40.2-10.2c0.5,0,0.9,0.4,0.9,0.9c0,0,0,0,0,0.1c0,0.5-0.4,0.8-0.9,0.9c-13.4,0.8-26.4,5.1-37.6,12.5
	c-11.3,7.1-21,16.6-31.1,25.9c-10,9.2-20.6,19.4-35.3,22.8c-14.7,2-28.7-1.7-41.5-7.2s-24.8-11.8-37.8-14.8
	c-13-2.8-26.6-4.2-38.9,0.5c-12.5,4.3-23.6,12.2-33,21.6s-16.6,20.9-23.8,32.4c-0.5,0.9-1.7,1.1-2.5,0.6
	C395.2,1221,394.9,1220.1,395.2,1219.2L395.2,1219.2z"/>
<circle class="st1" cx="1039.6" cy="841.8" r="12.4"/>
<circle class="st1" cx="1039.6" cy="895.7" r="12.4"/>
<circle class="st1" cx="942.3" cy="949.6" r="12.4"/>
<circle class="st1" cx="1039.6" cy="949.6" r="12.4"/>
<circle class="st1" cx="989" cy="949.6" r="12.4"/>
<circle class="st1" cx="1039.6" cy="549.2" r="12.4"/>
<circle class="st1" cx="1039.6" cy="605.4" r="12.4"/>
<circle class="st1" cx="1039.6" cy="790.4" r="12.4"/>
<ellipse class="st5" cx="1288.4" cy="284.5" rx="132" ry="131.7"/>
<path class="st0" d="M1208.5,183c-24.7,21.7-41.1,51.5-45.6,83.1c-4.2,31.6,2.8,64.6,21,90.8c18.1,26.4,45.7,44.9,77,51.7
	c30.9,6.7,64.2,1.5,91.3-14.8c27.1-16.1,48.1-42.4,56.9-72.8c9.1-30.7,6-63.7-8.5-92.2c-14.6-28.6-39.5-50.5-69.7-61.4
	c-14.9-5.6-30.7-8-46.9-8.2c-8.2,0-16.3,0-23.9,1.2s-15.1,4.1-22.3,7.8l-0.2,0.1c-1.7,0.8-3.7,0.2-4.5-1.5c-0.5-1.1-0.5-2.3,0.2-3.3
	c7.4-11.4,14.8-22.9,22.5-34.1c0.4-0.6,1.3-0.8,1.9-0.3c0.5,0.4,0.7,1.1,0.4,1.7c-6.1,12.2-12.5,24.2-19,36.2l-4.6-4.7
	c7.3-4.2,15.3-8.1,23.9-10s17.2-2.4,25.6-2.5c16.9-0.3,34.4,1.7,50.7,7.4c68.6,24.1,106.4,97.5,86.4,167.4
	c-9.5,33.4-32.2,62.9-62.3,80.3c-30,17.7-66.6,23.2-100.4,15.6c-34.2-7.7-64.2-28.1-83.8-57.1c-19.6-28.9-27.3-64.3-21.3-98.7
	c5.5-34,25.9-64.9,53.6-83.8c0.6-0.4,1.5-0.2,1.9,0.4C1209,181.8,1208.9,182.5,1208.5,183L1208.5,183z"/>
<polyline class="st5" points="1258.2,249.1 1292.4,291.9 1226,350.5 "/>
<path class="st0" d="M1261,246.8c4.8,2,7,6.1,10.1,9.5l8.8,10.6c5.8,7.1,11.8,14,17.4,21.2c2,2.6,1.7,6.3-0.7,8.4
	c-11.1,9.8-22.2,19.4-33.6,28.9c-11.2,9.6-22.5,19.2-35.8,26.4c-0.9,0.5-2,0.2-2.5-0.7c-0.3-0.6-0.3-1.4,0.1-2
	c8.8-12.3,19.7-22.3,30.7-32.1s21.8-19.9,32.9-29.6l-0.7,8.4c-5.8-7.1-11.2-14.4-16.9-21.6l-8.4-10.9c-2.6-3.8-6.2-6.8-7.1-11.9
	c-0.4-2.3,1.1-4.4,3.4-4.8C1259.5,246.4,1260.3,246.5,1261,246.8L1261,246.8z"/>
<line class="st8" x1="1236.2" y1="165.1" x2="1271" y2="185.2"/>
<path class="st0" d="M1236.9,163.9c5.1-2.2,7.8-0.2,10.9,1.1s6.1,2.9,9,4.5c2.8,1.8,5.7,3.5,8.4,5.6s5.8,3.4,6.5,8.9
	c0.1,1-0.4,2-1.4,2.4c-5.1,2.2-7.8,0.2-10.9-1.1s-6.1-2.9-9-4.5c-2.8-1.8-5.7-3.5-8.4-5.6s-5.8-3.4-6.5-8.9
	C1235.4,165.3,1235.9,164.3,1236.9,163.9z"/>
<circle class="st0" cx="1288.4" cy="206.7" r="6.6"/>
<circle class="st0" cx="1288.4" cy="376.1" r="6.6"/>
<circle class="st0" cx="1375.8" cy="288.7" r="6.6"/>
<circle class="st0" cx="1200.9" cy="288.7" r="6.6"/>
<path class="st6" d="M756.7,360.2c-40.3,0.1-69.6,0.2-69.6,0.2s-18.9-61.9,31.3-74.9c15-3.9,23.8-2.4,28.2-0.5
	c1.4,0.7,3.1,0.1,3.8-1.4c0.1-0.2,0.2-0.5,0.2-0.8c1.1-12.4,8.2-46.4,53.5-46.4c49.9,0,71.8,46.9,71.8,46.9s11.1-16.2,30.8-17.8
	c21.5-1.7,37,5.9,48,16.3"/>
<path class="st1" d="M756.7,362.1c-11.6,1.1-23.2,1.8-34.8,2.1l-34.8,0.6H687c-1.9,0-3.6-1.2-4.1-3.1c-3.6-12.5-4.6-25.5-3-38.4
	s8.1-26.3,19.5-34.2c5.5-3.8,11.7-6.6,18.3-8.2c6.4-1.8,13-2.6,19.6-2.5c3.6,0.1,7.1,0.8,10.5,2l0.6,0.2l-0.3-0.1
	c-0.2,0-0.4,0-0.6,0c-0.5,0.1-0.9,0.4-1.2,0.9c-0.2,0.3-0.3,0.6-0.3,1l0.1-1.1l0.3-2.5c0.9-6.6,3-13,6-18.9
	c6.2-12.2,17.2-21.2,30.4-24.8c12.6-3.4,25.8-3.7,38.6-0.8c25.7,5.9,45.7,24.8,58.4,47.2l-7.3-0.6c4.9-6.5,11.4-11.7,18.9-15
	c7.3-3.5,15.8-4.4,23.4-3.8c15.5,0.8,30.7,7.7,41,18.9c0.5,0.5,0.5,1.3,0,1.7l0,0c-0.5,0.4-1.2,0.4-1.6,0
	c-11-9.3-25.1-14.4-39.5-14.1c-7.2,0.2-13.9,1-19.9,4.2c-6,3.1-11.2,7.5-15.2,12.9l-0.1,0.2c-1.4,1.8-4.1,2.2-5.9,0.8
	c-0.5-0.4-0.9-0.9-1.2-1.5c-10-20.8-29.8-38.1-52.5-42.9c-11.4-2.4-23.1-2-34.3,1.1c-10.8,3.1-19.9,10.6-24.8,20.7
	c-2.5,5.1-4.2,10.5-4.9,16.1l-0.2,2.1l-0.1,1.1c-0.1,1.1-0.5,2.2-1.1,3.1c-1.1,1.7-3,2.9-5,3.2c-1,0.2-1.9,0.2-2.9,0
	c-0.5-0.1-0.9-0.2-1.4-0.4l-0.4-0.2c-2.4-0.8-5-1.3-7.5-1.3c-10.9,0-23.3,2.6-32.1,8.8c-9,6.2-14.4,16.6-16,28s-0.5,23.5,2.4,34.6
	l-4.2-3.1l34.8,0.4c11.6,0.2,23.2,0.8,34.8,1.9c1,0.1,1.8,1,1.6,2C758.3,361.3,757.6,362,756.7,362.1L756.7,362.1z"/>
<path class="st6" d="M1041.7,462.3c98.7,0.2,184.4,0.6,184.4,0.6s30.2-98.9-50.1-119.7c-24.1-6.2-38-3.9-45.2-0.9
	c-2.9,1.2-6.2-0.5-6.4-3.4c-1.7-19.8-13-74.2-85.6-74.2c-79.8,0-114.8,74.9-114.8,74.9s-17.8-25.9-49.3-28.4
	c-93.2-7.5-116,95.3-116,95.3"/>
<path class="st1" d="M1041.7,460.4c30.7-0.9,61.5-1.6,92.2-1.6l92.2-0.3l-4.2,3.1c4.8-18.1,6.7-37.9,4-56.4
	c-2.5-18.6-11.5-36.1-26.7-46.5c-7.4-5.3-16.2-8.8-25.2-11.1c-9.2-2.3-18.7-3.8-27.8-3.5c-4.4,0.1-8.8,0.9-12.9,2.3l-0.8,0.3
	c-0.6,0.2-1.1,0.4-1.7,0.5c-1.2,0.2-2.4,0.2-3.6,0c-2.5-0.4-4.7-1.9-6.1-4c-0.7-1.1-1.2-2.4-1.3-3.8l-0.2-1.8l-0.4-3.5
	c-1.2-9.3-4-18.2-8.2-26.6c-8.3-16.8-23.3-29.3-41.4-34.3c-18.3-5.1-37.6-5.7-56.2-1.7c-37.3,7.9-68.8,36.2-85.7,69.9
	c-1.1,2.1-3.6,3-5.7,1.9c-0.6-0.3-1.1-0.7-1.5-1.2l-0.1-0.1c-10.3-13.5-26.1-24.7-43.5-26.9c-17.7-2.2-36.3-0.2-52.7,7.4
	s-30.2,20.1-40.9,34.9c-10.7,15-18.7,31.7-23.7,49.4v0.1c-0.2,0.6-0.9,1-1.6,0.7c-0.5-0.2-0.9-0.8-0.8-1.3
	c4.4-18.3,12-35.7,22.4-51.4c10.6-15.5,24.8-29.2,42.1-37.6s37-11.1,56-9.2c19.8,2.3,37.4,13.4,49.5,29.2l-7.3,0.6
	c9.5-18.3,22.7-33.5,37.9-46.8c15.3-13.1,33.8-22.9,53.6-27.3c19.9-4.5,40.7-4,60.4,1.4c9.8,3,19.4,7.5,27.5,14.2
	s14.7,14.9,19.4,24.2c4.7,9.2,7.8,19.1,9.3,29.4l0.5,3.8l0.2,1.8c0-0.1,0-0.2-0.1-0.4c-0.1-0.2-0.1-0.1-0.1-0.1h0.1l1-0.4
	c5.1-1.9,10.5-2.9,15.9-3c10.5-0.4,20.7,1.3,30.5,3.8s19.8,6.5,28.3,12.7c17.5,12.1,27.6,32.7,30.2,52.8c2.8,20.4,0.8,40.6-4.6,60.3
	c-0.5,1.8-2.2,3.1-4.1,3.1h-0.1l-92.2-0.9c-30.7-0.3-61.5-1.1-92.2-2.2c-1,0-1.8-0.8-1.8-1.8
	C1039.9,461.2,1040.7,460.4,1041.7,460.4L1041.7,460.4z"/>
<path class="st6" d="M749.4,462.9c1.5-0.5,37.9-0.7,90-0.8"/>
<path class="st1" d="M748.9,461.1c8.5-2.1,15.3-2.4,23.1-2.8l22.5-0.8c7.5-0.5,15,0.7,22.5,0.7c7.5-1.2,15,0.9,22.5,2.5
	c0.7,0.2,1.1,0.8,0.9,1.5c-0.1,0.5-0.5,0.8-0.9,0.9c-7.5,1.7-15,3.8-22.5,2.6c-7.5,0.1-15,1.3-22.5,0.9l-22.5-0.5
	c-7.3-0.1-14.7-0.7-22-1.7l-1.1-0.2c-0.9-0.2-1.5-1-1.4-2C747.7,461.8,748.2,461.3,748.9,461.1L748.9,461.1z"/>
<ellipse class="st5" cx="940.5" cy="474.4" rx="77.5" ry="77.3"/>
<line class="st8" x1="940.5" y1="432.4" x2="940.5" y2="516.4"/>
<path class="st0" d="M941.9,432.4c4.5,7,4.1,14,4.5,21s0.6,14,0.7,21s-0.3,14-0.6,21s0,14-4.5,21h-2.8c-4.5-7-4.1-14-4.5-21
	s-0.6-14-0.6-21s0.3-14,0.6-21s0-14,4.5-21L941.9,432.4L941.9,432.4z"/>
<line class="st8" x1="982.6" y1="474.4" x2="898.5" y2="474.4"/>
<path class="st0" d="M982.6,475.8c-7,4.5-14,4.1-21,4.5s-14,0.6-21,0.6s-14-0.3-21-0.6s-14,0-21-4.5V473c7-4.5,14-4.1,21-4.5
	s14-0.6,21-0.6s14,0.3,21,0.6s14,0,21,4.5V475.8z"/>
<path class="st5" d="M991.7,7.4c0,0-29,35.9-79.2,31.7c0,0-26.8,143.7,82.4,174.5c0,0,106.4-14.8,85.2-174.5
	C1080.1,39,1019.9,43.7,991.7,7.4z"/>
<path class="st10" d="M992.3,213.6c0,0,109.7-14.8,88.4-174.6c0,0-60.8,1.4-88.9-34.9c0,0-31.8,39.2-81.9,34.9
	C909.8,39,883.1,182.7,992.3,213.6"/>
<polyline class="st10" points="959.8,118.3 987.9,140.6 1045.1,76 "/>
<path class="st6" d="M961.4,116.3c3.4,0.5,5.4,2.8,7.9,4.6l7.1,5.5c4.7,3.7,9.6,7.2,14.2,11l-5.8,0.5l28.8-32.1
	c9.5-10.8,19.3-21.3,30.6-30.6c0.5-0.5,1.3-0.4,1.8,0.1c0.4,0.4,0.4,1.1,0.1,1.5c-7.8,12.3-17.1,23.3-26.6,34.1l-28.3,32.5
	c-1.4,1.7-3.9,1.9-5.7,0.6l-0.1-0.1c-4.8-3.6-9.3-7.6-13.9-11.3l-6.9-5.7c-2.2-2-4.9-3.4-6.2-6.6c-0.6-1.5,0.1-3.2,1.6-3.8
	C960.3,116.2,960.9,116.1,961.4,116.3L961.4,116.3z"/>
<path class="st6" d="M1039.5,665.7l-16.7,26.6c0,0-4.2,9.4,3.1,12l13.5,3.1L1039.5,665.7L1039.5,665.7z"/>
<path class="st6" d="M1044.2,730.6l16.7-26.6c0,0,4.2-9.4-3.1-12l-13.5-3.1L1044.2,730.6L1044.2,730.6z"/>
<g>
	<path class="st10" d="M1039.6,650c-26.5,0-47.9,21.4-47.9,47.9s21.4,47.9,47.9,47.9c26.5,0,47.9-21.4,47.9-47.9
		S1066.1,650,1039.6,650z M1037.2,705.9h-23.9l23.9-46.4V705.9z M1042,736.3v-46.4h23.9L1042,736.3z"/>
</g>
</svg>
