<?xml version="1.0" encoding="utf-8"?>
<!-- Generator: Adobe Illustrator 18.1.0, SVG Export Plug-In . SVG Version: 6.00 Build 0)  -->
<!DOCTYPE svg PUBLIC "-//W3C//DTD SVG 1.1//EN" "http://www.w3.org/Graphics/SVG/1.1/DTD/svg11.dtd">
<svg version="1.1" id="Layer_1" xmlns="http://www.w3.org/2000/svg" xmlns:xlink="http://www.w3.org/1999/xlink" x="0px" y="0px"
	 viewBox="477 389.4 190.4 226.7" enable-background="new 477 389.4 190.4 226.7" xml:space="preserve">
<g id="Export_Artboard">
	<g id="Layer_36">
		<g>
			<path fill="#7EB850" d="M572.2,389.4V616c32.1-6.1,59.5-20,77.9-49c11.4-18,17.2-39,17.2-60.4v-89.4L572.2,389.4z"/>
			<path fill="#70AA43" d="M477,417.2v89.4c0,21.3,5.8,42.3,17.2,60.4c18.4,29,45.9,42.9,78,49l0,0V389.4L477,417.2z"/>
			<g>
				<g>
					<circle fill="#609643" cx="572.2" cy="501.5" r="56"/>
				</g>
				<g>
					<path fill="#498F41" d="M572.2,557.5c-30.9,0-56-25.1-56-56s25.1-56,56-56V557.5z"/>
				</g>
				<g>
					<g>
						<path fill="#FFFFFF" d="M569.6,514.6l-17.6-4.5c-4.4-1.2-6.6-6.2-4.3-10.2l21.9-37.9V514.6z"/>
					</g>
					<g>
						<path fill="#FFFFFF" d="M574.8,488.5l17.6,4.5c4.4,1.2,6.6,6.2,4.3,10.2l-21.9,37.9V488.5L574.8,488.5z"/>
					</g>
				</g>
			</g>
		</g>
	</g>
</g>
</svg>
