<svg width="328" height="239" viewBox="0 0 328 239" fill="none" xmlns="http://www.w3.org/2000/svg">
<path d="M254.126 136.857C247.944 120.126 217.941 107.703 191.735 114.544Z" fill="white"/>
<path d="M252.422 137.408C251.859 136.937 251.362 136.392 250.945 135.788C250.752 135.522 250.573 135.246 250.41 134.961C250.2 134.702 249.989 134.444 249.794 134.168L248.667 132.548C248.278 132.014 247.774 131.545 247.352 131.026C246.456 130.005 245.479 129.057 244.431 128.192C243.401 127.297 242.32 126.46 241.194 125.687C236.525 122.555 231.41 120.141 226.022 118.527C220.595 116.86 214.991 115.833 209.324 115.467C203.629 115.208 197.965 115.467 192.011 115.352C191.764 115.345 191.53 115.24 191.36 115.061C191.19 114.883 191.097 114.645 191.102 114.398C191.11 114.235 191.159 114.077 191.244 113.939C191.33 113.8 191.448 113.684 191.59 113.603C197.138 110.787 203.34 109.506 209.552 109.894C215.758 109.969 221.922 110.93 227.855 112.75C233.863 114.525 239.529 117.295 244.617 120.946C245.903 121.872 247.133 122.874 248.3 123.946C249.471 125.015 250.556 126.173 251.546 127.411C252.065 128.042 252.617 128.626 253.169 129.286L254.499 131.359C254.718 131.699 254.919 132.05 255.1 132.411C255.23 132.816 255.392 133.206 255.489 133.611C255.739 134.42 255.875 135.259 255.895 136.105C255.895 136.604 255.698 137.083 255.346 137.438C254.994 137.793 254.517 137.995 254.017 138.001C253.581 138.013 253.155 137.87 252.816 137.596L252.422 137.408Z" fill="#2271B1"/>
<path d="M166.877 117.145C200.774 104.609 232.869 128.061 244.164 139.124Z" fill="white"/>
<path d="M166.244 115.444C169.37 113.42 172.925 112.15 176.628 111.736C177.537 111.574 178.43 111.361 179.354 111.233L182.113 110.991C183.947 110.761 185.796 110.669 187.643 110.716C195.026 110.706 202.359 111.927 209.339 114.327C216.239 116.698 222.817 119.913 228.924 123.899C235.194 127.575 240.604 132.545 244.793 138.477C244.861 138.575 244.909 138.685 244.935 138.802C244.96 138.918 244.962 139.039 244.94 139.156C244.919 139.273 244.874 139.385 244.81 139.485C244.745 139.585 244.661 139.671 244.562 139.739L244.534 139.756C244.388 139.847 244.22 139.895 244.048 139.895C243.876 139.895 243.707 139.847 243.561 139.756C237.428 136.128 231.915 132.143 226.003 128.596C220.134 125.12 213.919 122.26 207.459 120.063C201.06 117.89 194.37 116.694 187.613 116.515C185.941 116.429 184.265 116.472 182.6 116.644L180.084 116.791C179.256 116.888 178.461 117.066 177.601 117.196L175.12 117.625L173.871 117.835L172.668 118.191C171.01 118.698 169.275 118.909 167.544 118.814H167.236C166.741 118.773 166.281 118.539 165.956 118.164C165.632 117.788 165.467 117.301 165.498 116.806C165.521 116.54 165.599 116.281 165.728 116.047C165.856 115.812 166.032 115.607 166.244 115.444Z" fill="#2271B1"/>
<path d="M200.708 174.661C203.798 158.106 191.167 147.126 180.556 144.033C158.766 137.553 132.866 150.171 129.717 135.033C126.958 121.816 182.69 95.4794 236.489 149.106" fill="white"/>
<path d="M198.923 174.319C198.609 172.248 198.43 170.158 198.388 168.063C198.227 166.055 197.771 164.081 197.036 162.205C195.535 158.41 193.082 155.064 189.913 152.487C186.74 149.849 183.046 147.906 179.072 146.785C174.909 145.69 170.624 145.118 166.319 145.084C161.937 144.987 157.475 145.263 152.931 145.555C148.192 145.984 143.424 145.984 138.685 145.555C135.87 145.28 133.181 144.256 130.897 142.591C129.662 141.624 128.656 140.398 127.948 139C127.609 138.334 127.327 137.641 127.105 136.928C126.865 136.174 126.702 135.398 126.618 134.611C126.542 132.926 126.912 131.25 127.689 129.753C128.331 128.519 129.133 127.376 130.074 126.351C131.837 124.498 133.846 122.895 136.046 121.589C140.257 119.124 144.805 117.283 149.546 116.125C154.157 114.945 158.879 114.25 163.635 114.051C173.074 113.692 182.504 114.96 191.511 117.801C200.437 120.612 208.886 124.753 216.572 130.086C224.198 135.308 231.124 141.483 237.178 148.461C237.261 148.544 237.327 148.642 237.372 148.75C237.417 148.858 237.44 148.974 237.44 149.091C237.44 149.208 237.417 149.324 237.372 149.432C237.327 149.54 237.261 149.639 237.178 149.721C237.012 149.867 236.799 149.948 236.578 149.948C236.357 149.948 236.144 149.867 235.978 149.721C229.216 143.786 221.954 138.442 214.274 133.75C206.689 129.129 198.542 125.499 190.031 122.948C181.599 120.39 172.791 119.294 163.988 119.708C159.641 119.935 155.329 120.608 151.121 121.716C146.984 122.759 143.021 124.396 139.356 126.576C137.594 127.619 135.984 128.897 134.57 130.375C133.476 131.37 132.784 132.728 132.622 134.196C132.747 134.922 132.976 135.627 133.303 136.287C133.628 136.913 134.081 137.465 134.633 137.905C136.091 138.851 137.768 139.408 139.502 139.525C143.824 139.863 148.167 139.825 152.482 139.413C157.026 139.12 161.668 138.813 166.383 138.91C171.198 138.956 175.989 139.597 180.646 140.821C185.456 142.174 189.895 144.6 193.628 147.916C197.481 151.199 200.425 155.415 202.179 160.159C203.086 162.556 203.638 165.072 203.819 167.628C204.109 170.143 203.646 172.688 202.487 174.94C202.372 175.163 202.215 175.362 202.024 175.524C201.832 175.687 201.61 175.81 201.371 175.887C201.132 175.964 200.88 175.993 200.63 175.973C200.379 175.953 200.135 175.883 199.912 175.769L199.842 175.733C199.603 175.601 199.396 175.418 199.236 175.196C199.076 174.975 198.968 174.721 198.918 174.453L198.923 174.319Z" fill="#2271B1"/>
<path d="M203.422 174.661L182.729 189.188L119.831 104.545L140.52 90.0156L203.422 174.661Z" fill="#2FB41F"/>
<path d="M113.014 119.958C143.378 119.958 167.993 95.3432 167.993 64.9791C167.993 34.615 143.378 10 113.014 10C82.6497 10 58.0347 34.615 58.0347 64.9791C58.0347 95.3432 82.6497 119.958 113.014 119.958Z" fill="#2FB41F"/>
<path d="M113.079 103.054C133.727 103.054 150.466 86.3457 150.466 65.7355C150.466 45.1253 133.727 28.4174 113.079 28.4174C92.4311 28.4174 75.6924 45.1253 75.6924 65.7355C75.6924 86.3457 92.4311 103.054 113.079 103.054Z" fill="white"/>
<path d="M204.392 227.331C153.602 206.125 138.852 137.569 151.25 133.116C166.21 127.739 184.638 182.078 195.061 180.475C201.016 179.568 202.673 174.756 202.541 169.833" fill="white"/>
<path d="M203.695 229C195.272 226.846 187.97 221.793 181.341 216.398C174.757 210.863 168.901 204.517 163.915 197.513C158.924 190.543 154.723 183.041 151.389 175.146C147.934 167.23 145.595 158.873 144.439 150.316C144.174 148.113 144.048 145.895 144.063 143.676C144.067 141.313 144.383 138.96 145.002 136.679C145.384 135.339 145.987 134.071 146.787 132.929C147.296 132.254 147.903 131.659 148.588 131.163C149.303 130.657 150.107 130.289 150.957 130.079C152.436 129.682 153.989 129.649 155.484 129.981C156.813 130.284 158.084 130.797 159.251 131.5C161.263 132.753 163.092 134.279 164.685 136.034C166.181 137.649 167.585 139.347 168.889 141.121C171.468 144.586 173.756 148.165 175.946 151.761C180.344 158.905 184.369 166.34 188.928 172.818C189.989 174.383 191.225 175.823 192.612 177.11C193.11 177.576 193.694 177.942 194.331 178.188C194.417 178.206 194.506 178.206 194.592 178.188H194.997C195.408 178.151 195.814 178.081 196.213 177.978C197.783 177.586 199.134 176.59 199.97 175.206C200.872 173.538 201.423 171.703 201.591 169.814C201.619 169.575 201.741 169.357 201.93 169.208C202.119 169.059 202.36 168.991 202.6 169.019H202.615C202.81 169.042 202.993 169.129 203.134 169.267C203.274 169.405 203.365 169.585 203.392 169.78C203.828 172.057 203.655 174.409 202.889 176.598C202.432 177.814 201.726 178.921 200.815 179.848C199.904 180.775 198.808 181.502 197.599 181.981C197.014 182.215 196.412 182.403 195.798 182.543L195.326 182.656H194.646C194.216 182.666 193.787 182.633 193.363 182.558C191.985 182.248 190.699 181.621 189.606 180.728C187.822 179.309 186.217 177.68 184.826 175.876C179.504 168.991 175.512 161.671 171.051 154.688C168.827 151.189 166.571 147.751 164.138 144.563C161.968 141.457 159.258 138.764 156.138 136.609C155.605 136.238 155.003 135.976 154.368 135.84C153.732 135.703 153.076 135.696 152.437 135.816C152.097 135.931 152.097 135.914 151.968 136.004C151.814 136.124 151.677 136.266 151.562 136.424C151.172 137.004 150.882 137.645 150.702 138.319C150.253 140.077 150.029 141.884 150.037 143.697C150.036 145.651 150.155 147.604 150.394 149.543C151.539 157.541 153.721 165.356 156.884 172.793C159.982 180.319 163.906 187.479 168.585 194.142C173.204 200.8 178.656 206.843 184.807 212.125C187.882 214.728 191.136 217.115 194.543 219.267C197.965 221.438 201.456 223.43 204.959 225.618C205.275 225.869 205.499 226.219 205.595 226.611C205.692 227.003 205.656 227.415 205.493 227.785C205.33 228.154 205.05 228.46 204.695 228.653C204.34 228.847 203.931 228.918 203.531 228.856L203.695 229Z" fill="#2271B1"/>
</svg>
