<svg viewBox="0 0 323 236" fill="none" xmlns="http://www.w3.org/2000/svg"><title>jetpack-wordads</title>
<path d="M41.1381 187.836C51.894 151.078 89.7112 108.247 118.801 109.702C152.448 111.387 166.801 131.616 192.637 128.608C237.556 123.437 229.346 22.8888 281.9 22.8888V227.546H41.1381V187.836Z" fill="#C6DEF6"/>
<path d="M128.716 147.132C129.831 149.438 130.537 151.921 130.803 154.469C131.09 156.92 131.069 159.373 131.207 161.806C131.409 166.709 131.55 171.593 131.55 176.497C131.55 181.401 131.417 186.266 131.207 191.17C131.071 193.621 131.092 196.054 130.803 198.507C130.549 201.057 129.842 203.542 128.716 205.843H127.203C126.081 203.539 125.369 201.056 125.098 198.507C124.831 196.054 124.831 193.621 124.716 191.17C124.514 186.266 124.371 181.381 124.353 176.497C124.335 171.613 124.506 166.709 124.716 161.806C124.85 159.381 124.831 156.92 125.098 154.469C125.37 151.92 126.083 149.437 127.203 147.132H128.716ZM207.949 160.597C209.06 162.335 209.772 164.298 210.035 166.344C210.321 168.259 210.303 170.183 210.439 172.092C210.64 175.931 210.784 179.619 210.784 183.393C210.784 187.167 210.649 190.94 210.439 194.708C210.305 196.624 210.323 198.547 210.057 200.455C209.78 202.5 209.062 204.461 207.951 206.201H206.439C205.329 204.461 204.611 202.5 204.334 200.455C204.065 198.539 204.086 196.616 203.95 194.708C203.748 190.869 203.607 187.161 203.607 183.393C203.607 179.625 203.74 175.846 203.95 172.092C204.086 170.175 204.065 168.253 204.334 166.344C204.613 164.299 205.331 162.338 206.439 160.597H207.949Z" fill="white"/>
<path d="M281.862 227.085C271.833 228.312 261.785 228.867 251.756 229.175C241.727 229.482 231.68 229.443 221.653 229.556C201.576 229.807 181.461 229.845 161.423 229.922C141.385 229.999 121.232 229.807 101.196 229.556C91.1667 229.443 81.1194 229.443 71.0903 229.175C61.0611 228.906 51.0138 228.322 40.9806 227.085V225.469C51.0077 224.242 61.0369 223.687 71.0842 223.382C81.1315 223.077 91.1607 223.113 101.19 222.998C121.264 222.749 141.379 222.711 161.417 222.634C181.455 222.557 201.609 222.749 221.647 222.998C231.674 223.113 241.703 223.113 251.75 223.382C261.798 223.65 271.827 224.242 281.856 225.469L281.862 227.085ZM40.4194 187.626C43.738 173.567 49.708 160.272 58.0088 148.454C66.1207 136.36 76.3102 125.802 88.1043 117.269C94.1724 112.868 100.969 109.574 108.181 107.538C111.925 106.556 115.799 106.168 119.663 106.388C123.349 106.564 127.018 106.98 130.649 107.633C137.876 109.003 144.934 111.148 151.701 114.032C158.399 116.769 164.754 119.911 171.146 122.172C177.309 124.567 183.913 125.613 190.513 125.238C196.868 124.917 202.882 122.269 207.412 117.798C212.104 113.029 215.983 107.523 218.895 101.498C222.093 95.4062 224.81 88.9324 227.451 82.3413C230.091 75.7503 232.657 69.1633 235.469 62.5743C238.239 55.8808 241.547 49.4235 245.361 43.266C249.257 36.8793 254.478 31.4047 260.671 27.2127C266.972 23.1935 274.427 21.3813 281.868 22.0603V23.5737C275.053 24.0713 268.535 26.5699 263.132 30.7568C260.487 32.8224 258.103 35.2026 256.032 37.8448C253.886 40.4849 251.969 43.3037 250.303 46.2705C243.374 58.1271 238.723 71.4971 233.547 84.7337C230.907 91.3813 228.266 98.1057 224.974 104.618C221.767 111.399 217.424 117.579 212.132 122.892C209.295 125.622 206.019 127.856 202.442 129.501C198.819 131.12 194.934 132.07 190.974 132.305C183.377 132.814 175.761 131.656 168.658 128.911C161.71 126.401 155.357 123.164 148.945 120.54C142.693 117.8 136.169 115.733 129.481 114.371C126.148 113.717 122.776 113.282 119.387 113.07C116.173 112.84 112.943 113.124 109.818 113.912C103.342 115.68 97.2271 118.572 91.7502 122.455C86.0834 126.402 80.815 130.893 76.0201 135.864C71.1735 140.813 66.6592 146.078 62.5065 151.624C54.0111 162.754 47.0915 175.004 41.9435 188.028L40.4194 187.626Z" fill="#5198D9"/>
<path d="M247.499 43.9227C247.436 41.9687 247.871 40.0308 248.762 38.2915C249.709 36.6931 250.78 35.1722 251.966 33.7432C254.271 30.7325 257.021 28.0904 260.12 25.9075C263.305 23.722 266.863 22.1381 270.617 21.234C272.494 20.7453 274.42 20.4695 276.359 20.4116C278.353 20.4217 280.301 21.0136 281.965 22.1149V23.6405C281.209 24.2412 280.38 24.7436 279.498 25.1357C278.742 25.5183 277.954 25.8321 277.142 26.0732C276.359 26.3217 275.594 26.5723 274.826 26.744C274.063 26.9486 273.309 27.1914 272.57 27.4714C269.628 28.5725 266.837 30.0402 264.262 31.8398C261.625 33.6754 259.159 35.7461 256.894 38.0268L255.192 39.8453C254.659 40.4832 254.09 41.0903 253.488 41.6637C252.875 42.2883 252.199 42.847 251.47 43.3307C250.677 43.9025 249.816 44.3722 248.906 44.7289L247.499 43.9227Z" fill="#5198D9"/>
<path d="M125.156 120.047C130.272 120.047 134.418 115.553 134.418 110.009C134.418 104.465 130.272 99.9706 125.156 99.9706C120.041 99.9706 115.894 104.465 115.894 110.009C115.894 115.553 120.041 120.047 125.156 120.047Z" fill="#2FB41F"/>
<path d="M205.9 133.475C211.016 133.475 215.162 128.981 215.162 123.437C215.162 117.893 211.016 113.399 205.9 113.399C200.785 113.399 196.638 117.893 196.638 123.437C196.638 128.981 200.785 133.475 205.9 133.475Z" fill="#2FB41F"/>
<path d="M281.862 32.9269C286.977 32.9269 291.124 28.4327 291.124 22.8888C291.124 17.3449 286.977 12.8507 281.862 12.8507C276.747 12.8507 272.6 17.3449 272.6 22.8888C272.6 28.4327 276.747 32.9269 281.862 32.9269Z" fill="#2FB41F"/>
<path d="M41.1381 197.874C46.2533 197.874 50.4001 193.38 50.4001 187.836C50.4001 182.292 46.2533 177.798 41.1381 177.798C36.0228 177.798 31.876 182.292 31.876 187.836C31.876 193.38 36.0228 197.874 41.1381 197.874Z" fill="#2FB41F"/>
</svg>
