<svg viewBox="0 0 332 242" fill="none" xmlns="http://www.w3.org/2000/svg"><title>jetpack-marketing</title>
<path d="M124.272 216.147C126.243 215.732 127.471 215.571 129.443 215.283L130.791 215.09L132.113 214.777C132.995 214.596 133.863 214.355 134.711 214.056C138.105 212.988 141.3 211.369 144.167 209.264C149.857 205.169 153.94 199.223 155.714 192.448C156.491 188.974 156.774 185.407 156.555 181.854V147.902L159.153 150.641H123.79L126.531 147.902C126.531 159.024 126.268 170.146 126.027 181.34C125.787 192.535 125.305 203.775 124.272 216.147ZM123.404 216.988C122.394 206.442 121.817 194.839 121.601 183.118C121.385 171.397 121.186 159.6 121.095 147.829V145.092H162.041V181.844C162.193 185.837 161.779 189.832 160.813 193.71C158.706 201.62 153.735 208.468 146.86 212.927C143.404 215.156 139.534 216.667 135.481 217.371C134.505 217.564 133.516 217.684 132.522 217.732C131.537 217.816 130.548 217.816 129.563 217.732C127.492 217.662 125.432 217.413 123.404 216.988Z" fill="#5198D9"/>
<path d="M31.652 135.028V118.55C31.653 115.81 32.6166 113.158 34.3748 111.055C36.1331 108.952 38.5746 107.532 41.2738 107.042L42.9338 106.874C103.481 96.1373 161.47 74.1388 213.883 42.0234L247.705 21.0971C249.139 20.5132 250.695 20.2909 252.235 20.4498C253.775 20.6086 255.252 21.1438 256.536 22.0081C257.82 22.8723 258.871 24.039 259.597 25.405C260.322 26.7711 260.699 28.2944 260.695 29.8406V188.38C260.695 189.807 260.37 191.216 259.746 192.5C259.122 193.785 258.214 194.911 257.091 195.794C255.967 196.677 254.658 197.295 253.261 197.599C251.865 197.904 250.417 197.889 249.027 197.554L219.462 184.897C165.329 161.741 107.485 148.44 48.6608 145.621L41.7324 145.309C39.0473 145.228 36.4978 144.112 34.6185 142.195C32.7391 140.279 31.676 137.71 31.652 135.028Z" fill="#00BE28"/>
<path d="M247.707 21.0941L213.883 41.8526C178.104 63.7827 139.661 81.0508 99.4921 93.2362V150.713C140.77 156.995 181.083 168.482 219.464 184.9L249.029 197.539C250.419 197.874 251.867 197.89 253.264 197.585C254.661 197.28 255.971 196.663 257.094 195.779C258.218 194.896 259.126 193.769 259.75 192.484C260.374 191.199 260.698 189.79 260.697 188.362V29.8148C260.697 28.2708 260.317 26.7505 259.59 25.3877C258.863 24.025 257.811 22.8616 256.528 22.0001C255.245 21.1386 253.769 20.6054 252.231 20.4474C250.693 20.2894 249.139 20.5115 247.707 21.0941Z" fill="#C6DEF6"/>
<path d="M50.8977 89.5792C52.418 95.1395 53.0834 100.898 52.871 106.658C53.0619 112.352 53.0785 118.054 53.1345 123.737C53.1905 129.42 53.1345 135.122 52.871 140.816C53.0834 146.576 52.418 152.334 50.8977 157.894H49.6942C48.1707 152.335 47.5135 146.575 47.7457 140.816C47.5528 135.122 47.5051 129.43 47.4573 123.737C47.4096 118.043 47.4573 112.341 47.7457 106.658C47.5135 100.899 48.1707 95.1386 49.6942 89.5792H50.8977Z" fill="#2271B1"/>
<path d="M299.574 55.6122C299.427 56.6632 299.07 57.6741 298.524 58.5848C297.978 59.4955 297.255 60.2876 296.397 60.9142C295.028 62.3066 293.608 63.6512 292.139 64.9255C290.67 66.1997 289.085 67.3268 287.497 68.5285C286.758 69.2718 285.876 69.859 284.905 70.2552C283.934 70.6513 282.892 70.8484 281.843 70.8346L281.073 69.9209C281.221 68.8726 281.579 67.8646 282.124 66.957C282.67 66.0494 283.393 65.2606 284.25 64.6375C285.644 63.2431 287.039 61.8984 288.531 60.6242C290.023 59.3499 291.562 58.2228 293.15 57.0211C293.89 56.2526 294.78 55.6433 295.765 55.2304C296.75 54.8175 297.809 54.6097 298.877 54.6197L299.574 55.6122ZM310.183 99.8124C308.392 101.225 306.129 101.904 303.855 101.71C301.738 101.853 299.647 101.917 297.553 101.917C295.459 101.917 293.343 101.75 291.249 101.557C288.966 101.721 286.709 100.998 284.947 99.5389V98.3393C286.736 96.9238 289 96.2448 291.274 96.4414C293.368 96.2964 295.484 96.2239 297.576 96.2239C299.667 96.2239 301.786 96.3917 303.88 96.5844C306.155 96.4192 308.407 97.1427 310.159 98.6024L310.183 99.8124ZM297.526 132.528C296.635 132.72 295.712 132.7 294.831 132.471C293.949 132.242 293.134 131.809 292.45 131.208C291.037 130.406 289.672 129.524 288.361 128.564C287.055 127.59 285.802 126.548 284.607 125.442C283.832 124.967 283.179 124.318 282.699 123.547C282.219 122.776 281.926 121.904 281.843 121L282.565 120.041C283.454 119.841 284.377 119.855 285.259 120.081C286.141 120.306 286.957 120.737 287.641 121.338C289.049 122.147 290.414 123.029 291.73 123.979C293.029 124.963 294.281 125.997 295.484 127.102C296.258 127.576 296.909 128.226 297.385 128.998C297.861 129.77 298.149 130.643 298.225 131.546L297.526 132.528Z" fill="#5198D9"/>
<path d="M239.191 23.7855C240.724 38.3055 241.382 52.9043 241.163 67.503C241.331 82.0852 241.37 96.6652 241.428 111.245C241.486 125.825 241.331 140.503 241.163 154.917C241.383 169.516 240.725 184.115 239.191 198.635H237.988C236.483 184.113 235.864 169.514 236.135 154.917C235.942 140.335 235.894 125.755 235.847 111.175C235.799 96.5948 235.847 82.0126 236.135 67.4305C235.897 52.832 236.547 38.2326 238.083 23.713L239.191 23.7855Z" fill="#5198D9"/>
</svg>
