<svg viewBox="0 0 302 220" fill="none" xmlns="http://www.w3.org/2000/svg"><title>jetpack-themes</title>
<path d="M102.51 142.61V23.1678C102.51 20.77 103.465 18.4703 105.164 16.7748C106.863 15.0793 109.167 14.1267 111.57 14.1267H245.532C247.935 14.1267 250.239 15.0793 251.938 16.7748C253.637 18.4703 254.592 20.77 254.592 23.1678V142.61H102.51Z" fill="#C6DEF6"/>
<path d="M118.069 59.1269H164.345V122.731H118.069V59.1269ZM181.959 59.1269H236.236V126.21H181.955L181.959 59.1269ZM102.51 44.9173V23.1678C102.51 20.77 103.465 18.4703 105.164 16.7748C106.863 15.0793 109.167 14.1267 111.57 14.1267H245.532C247.935 14.1267 250.239 15.0793 251.938 16.7748C253.637 18.4703 254.592 20.77 254.592 23.1678V44.9173H102.51Z" fill="#5198D9"/>
<path d="M47.1875 211.803V93.6054C47.1929 92.4258 47.4312 91.2588 47.8886 90.171C48.346 89.0833 49.0136 88.0961 49.8533 87.2658C50.693 86.4355 51.6884 85.7784 52.7826 85.332C53.8768 84.8857 55.0484 84.6587 56.2305 84.6642H190.207C192.592 84.6566 194.883 85.594 196.576 87.2705C198.269 88.9469 199.226 91.2253 199.237 93.6054V211.803H47.1875Z" fill="#E3DFE2"/>
<path d="M161.621 113.485H63.4596V109.783C63.4556 107.669 64.2906 105.639 65.7822 104.137C67.2737 102.635 69.3004 101.784 71.4192 101.769H161.621V113.485ZM105.426 137.052H63.4596V125.351H116.374V126.127C116.374 129.024 115.22 131.803 113.167 133.852C111.114 135.901 108.33 137.052 105.426 137.052Z" fill="#2FB41F"/>
<path d="M47.1875 156.432H127.655V210.803H47.1875V156.432Z" fill="#5198D9"/>
<path d="M123.224 156.432H198.346V210.803H123.224V156.432Z" fill="white"/>
<path d="M198.352 157.432V211.017H123.229" fill="white"/>
<path d="M184.724 166.011V198.478H150.354" fill="#2FB41F"/>
<path d="M202.242 156.918C195.636 157.777 189.016 158.165 182.423 158.387C175.83 158.609 169.197 158.575 162.604 158.664C149.379 158.831 136.21 158.852 122.942 158.914C109.675 158.976 96.5475 158.831 83.2935 158.664C76.6873 158.581 70.081 158.568 63.4748 158.387C56.8685 158.206 50.2623 157.846 43.656 156.918V155.837C50.2623 154.963 56.8685 154.575 63.4748 154.352C70.081 154.13 76.6986 154.164 83.2935 154.075C96.5192 153.91 109.69 153.887 122.942 153.827C136.194 153.767 149.337 153.91 162.604 154.075C169.211 154.158 175.817 154.173 182.423 154.352C189.051 154.502 195.666 154.998 202.242 155.837V156.918Z" fill="#204A69"/>
</svg>
