<svg xmlns="http://www.w3.org/2000/svg" id="Layer_1" data-name="Layer 1" viewBox="0 0 504 280"><defs><style>.cls-2{fill:#2271b1}.cls-4{fill:#cdc9cd}.cls-5{fill:#e3dfe2}</style></defs><path fill="#5198d9" d="M197.3 237.7c0-35.5-19.6-63.8-47-68.7-4 13.1-25.3 13.6-29.8.6l-.2-.6c-30.5 6.3-51.7 34.9-54.9 67.8-4.6 47.4-1 39.8-1 39.8h133.3z"/><path d="M103.7 217.5c.2 2.5-.2 4.8-.2 7.3l-.6 7.3-1.3 14.4-1.5 14.4a116.19 116.19 0 0 1-2.1 14.4c0 .2-.2.2-.4.2s-.2-.2-.2-.4a115.61 115.61 0 0 1 .6-14.4l1.3-14.4 1.3-14.4.6-7.3a43.34 43.34 0 0 1 1-7.1c.2-.4.4-.6.8-.4.2 0 .4.2.7.4zm45.9-59.3a13.61 13.61 0 0 1 .4 4 24.2 24.2 0 0 0 .2 3.8 3.94 3.94 0 0 0 1.7 2.5l1.5.6c.6.2 1.5.4 2.1.6 5.2 1.9 9.6 4.8 14 7.9a108.6 108.6 0 0 1 11.9 10.6 47.86 47.86 0 0 1 8.8 13.4c0 .2 0 .4-.2.4s-.4 0-.4-.2a104.1 104.1 0 0 0-9.6-12.3 80.71 80.71 0 0 0-11.7-10.2 72.24 72.24 0 0 0-6.5-4.2 55 55 0 0 0-6.9-3.4c-.6-.2-1.1-.4-1.7-.6a5.39 5.39 0 0 1-2.1-.8 6.57 6.57 0 0 1-2.7-3.8 9 9 0 0 1-.2-2.3v-1.9a9.13 9.13 0 0 1 .4-4c.1-.3.5-.5 1-.1-.3-.4-.3-.2 0 0z" class="cls-2"/><path d="M155.2 102.3a65 65 0 0 1 5.2 15.4 81.06 81.06 0 0 1 2.3 16.3c0 5.4-.8 11.3-3.8 16.1a20.86 20.86 0 0 1-5.9 6.3 22.08 22.08 0 0 1-7.9 3.1 26.83 26.83 0 0 1-16.5-2.3 44.56 44.56 0 0 1-13.3-9.8c-7.7-7.9-12.9-17.7-16.3-28 0-.2 0-.4.2-.4s.4 0 .4.2c4.6 9.8 9.8 19.2 17.3 26.9a42.12 42.12 0 0 0 12.7 9.2 25.16 25.16 0 0 0 15 1.9 22.15 22.15 0 0 0 7.1-2.9 17.84 17.84 0 0 0 5.2-5.4c2.7-4.4 3.6-9.8 3.6-15a67.44 67.44 0 0 0-2.1-15.9c-1.3-5.2-3.1-10.2-4.6-15.4-.2-.4 0-.8.4-.8.6.1.8.1 1 .5z" class="cls-2"/><path d="M123.5 86.6c16.7-6.7 31.3-2.9 30.3 5-.8 6.9-34.4 9.2-38.4 18.8-2.5 6.3 1.3 15.6 4.4 21.7a8.8 8.8 0 0 1-1.7 10.4l-2.9 3.6c-18.6-18.4-35.3-42.2 8.3-59.5zm20.4 36.3c1 1.7 1.9 3.6 2.7 5.2.6 1.9 1.5 3.8 1.9 5.6 0 .4-.2.8-.6.8s-.6 0-.8-.4a52.85 52.85 0 0 1-2.5-5.4c-.6-1.8-1.2-3.7-1.7-5.6 0-.2.2-.6.4-.6.2.2.4.2.6.4z" class="cls-2"/><path d="M154 124.6a2.21 2.21 0 0 0 1.3-2.7l-1.3-3.1a2.12 2.12 0 1 0-4 1.4l1.3 3.1a2.12 2.12 0 0 0 2.7 1.3zm-20.5 7.9a2.21 2.21 0 0 0 1.3-2.7l-1.3-3.1a2.12 2.12 0 1 0-4 1.4l1.3 3.1a1.88 1.88 0 0 0 2.5 1.3c.1.1.1.1.2 0zM145.1 146.7a5.61 5.61 0 0 1-3.1-.9 1.15 1.15 0 0 1 1.3-1.9 3.64 3.64 0 0 0 3.4.2 4.6 4.6 0 0 0 2.9-2.7 1.14 1.14 0 0 1 1.4-.8 1.2 1.2 0 0 1 .8 1.5 7 7 0 0 1-4.4 4.3 8 8 0 0 1-2.3.3zM128.5 119.2a12 12 0 0 0-1.7.6 17.38 17.38 0 0 0-1.9 1c-.6.4-1 .8-1.7 1.3a4.86 4.86 0 0 0-1.3 1.5c-.2.4-.6.4-1 .2-.2-.2-.4-.4-.2-.8.4-1.9 1.9-2.9 3.1-4a6.71 6.71 0 0 1 2.3-1 6.2 6.2 0 0 1 2.7-.2c.4 0 .6.4.4.8a2.17 2.17 0 0 1-.7.6zm16.5-8a7.85 7.85 0 0 1 2.1-1.7 4.65 4.65 0 0 1 2.3-.6 7.34 7.34 0 0 1 5 .8c.4.2.4.6.2 1-.2.2-.4.4-.8.2a5.84 5.84 0 0 0-1.9-.2 7.49 7.49 0 0 0-2.1.2c-.6.2-1.5.2-2.1.4s-1.1.4-1.7.6l-.2.2c-.4.2-.8 0-.8-.2z" class="cls-2"/><path fill="#2fb41f" d="M155.4 91.4c-16.7-29.2-72.4-6-58.4 29.9z"/><path d="M169.2 86.4c-5.9 3.6-12.1 6.7-18.1 9.8l-18.4 9.2-18.5 9.2c-6.3 3.1-12.3 6.1-18.5 9-.4.2-.8 0-.8-.4-.2-.4 0-.6.2-.8 6.1-3.4 12.1-6.5 18.3-9.6l18.3-9.2 18.5-9.2c6.3-3.1 12.3-6.1 18.8-8.6a.73.73 0 0 1 .6.2c-.2 0-.2.5-.4.4z" class="cls-4"/><path d="M123.9 107.5c11.9-11.3 31.3-29.6 44.9-21.5zm-.2-.2a92.68 92.68 0 0 1 9.4-9.4 118.75 118.75 0 0 1 10.6-8.1 43.7 43.7 0 0 1 12.3-5.9l1.7-.4c.6 0 1.3-.2 1.7-.2.6 0 1.3-.2 1.7-.2l1.7.2a9.42 9.42 0 0 1 3.4.8 29.62 29.62 0 0 1 3.1 1.5.74.74 0 0 1 .4.8c0 .2-.6.4-.8.4a16.87 16.87 0 0 0-12.1-.8c-4.2 1-7.9 3.4-11.5 5.6a81.28 81.28 0 0 0-10.4 7.9c-3.4 2.9-6.7 5.9-10.2 8.6a.35.35 0 0 1-.5.1.1.1 0 0 1-.1-.1c-.6-.4-.6-.6-.4-.8zm25.9 168.8h94.3v-7.9h-87.6a6.73 6.73 0 0 0-6.7 6.5v1.4z" class="cls-4"/><path d="M201.1 276.1h110.4l9.8-70.7a10.88 10.88 0 0 0-10.6-12.3H222a10.53 10.53 0 0 0-10.6 9.4z" class="cls-5"/><path fill="#c6def6" d="M503.8 278.3c-15.5.8-31 1-46.5 1.5L105 280c-31-.2-73.6 0-104.6-1.3-.1 0-.3-.3-.3-.6s.1-.6.2-.6h.1c31-1.3 73.6-1 104.6-1.3l352.4.2c15.5.2 31 .4 46.5 1.5.1 0 .2.2.2.4a.19.19 0 0 0-.3 0z"/><path d="M120.6 158.8a31.17 31.17 0 0 1 .8 5.2c0 1.7.2 3.4.2 5.2v-.4c.4.8.8 1.9 1.3 2.9a10.06 10.06 0 0 0 1.7 2.5 9.3 9.3 0 0 0 2.3 2.1 12.35 12.35 0 0 0 2.7 1.7.73.73 0 0 1 .2.6c0 .2-.2.2-.4.2a9.59 9.59 0 0 1-3.4-1 9.23 9.23 0 0 1-2.9-2.3 15.35 15.35 0 0 1-2.1-2.9 20.65 20.65 0 0 1-1.5-3.4v-.4a45.2 45.2 0 0 1 .2-5.2 50.58 50.58 0 0 1 .8-5.2c-.4.5-.2.3.1.4z" class="cls-2"/><path fill="#2c5da8" d="M250.2 81.8A12.25 12.25 0 0 0 238 69.6h-29a12.25 12.25 0 0 0-12.2 12.2v29A12.25 12.25 0 0 0 209 123h29a12.25 12.25 0 0 0 12.2-12.2zm-24.1 9.9c.1.1.1.1.2.1h5.5c.2 0 .2 0 .2.2-.1 1-.3 2-.4 3-.1.8-.2 1.7-.3 2.5 0 .3 0 .3-.3.3h-4.8v15.4H220V97.9h-5c-.2 0-.2 0-.2-.2v-5.6c0-.2.1-.2.2-.2h5v-4.8a9.37 9.37 0 0 1 .8-3.6 6.65 6.65 0 0 1 3.5-3.3 9.6 9.6 0 0 1 3.3-.6c1.3 0 2.6.1 3.9.1a1.7 1.7 0 0 1 .7.1.22.22 0 0 1 .2.2v5c0 .2 0 .2-.2.2h-3a5.85 5.85 0 0 0-1.3.2 1.92 1.92 0 0 0-1.5 1.6 3.4 3.4 0 0 0-.1 1 22.34 22.34 0 0 0-.2 3.7z"/><path fill="#3ca8e0" d="M296.2 15.5A12.25 12.25 0 0 0 284 3.3h-29a12.25 12.25 0 0 0-12.2 12.2v29A12.25 12.25 0 0 0 255 56.7h29a12.25 12.25 0 0 0 12.2-12.2zm-13.3 8.6c0 9.1-7 19.7-19.7 19.7a19.36 19.36 0 0 1-10.6-3.1 8.6 8.6 0 0 0 1.6.1 13.82 13.82 0 0 0 8.6-3 7.14 7.14 0 0 1-6.5-4.8 5.7 5.7 0 0 0 1.3.1 11 11 0 0 0 1.8-.2 6.8 6.8 0 0 1-5.5-6.8V26a8 8 0 0 0 3.1.9 6.85 6.85 0 0 1-3.1-5.8 6.76 6.76 0 0 1 .9-3.5 19.58 19.58 0 0 0 14.3 7.2 7.77 7.77 0 0 1-.2-1.6 6.91 6.91 0 0 1 6.9-6.9 6.5 6.5 0 0 1 5 2.2 13 13 0 0 0 4.4-1.7 6.72 6.72 0 0 1-3 3.8 14 14 0 0 0 4-1.1 13.3 13.3 0 0 1-3.5 3.6 2 2 0 0 1 .2 1z"/><path fill="#0678b6" d="M343.3 117.3a12.25 12.25 0 0 0-12.2-12.2h-29a12.25 12.25 0 0 0-12.2 12.2v29a12.25 12.25 0 0 0 12.2 12.2h29a12.25 12.25 0 0 0 12.2-12.2zm-21.4 14.4c-3.1 0-3.6 2.4-3.6 4.9v9.5h-6v-19.2h5.7v2.6h.1a6.27 6.27 0 0 1 5.7-3.1c6.1 0 7.2 4 7.2 9.2v10.6h-6v-9.4c0-2.2 0-5.1-3.1-5.1zm-16.3-7.4a3.5 3.5 0 1 1 3.5-3.5 3.54 3.54 0 0 1-3.5 3.5zm3 2.6v19.2h-6v-19.2z"/><path d="M223.4 189.4a4 4 0 1 0-4-4 4 4 0 0 0 4 4zM223.4 172.5a4 4 0 1 0-4-4 4 4 0 0 0 4 4zM223.4 154.5a4 4 0 1 0-4-4 4 4 0 0 0 4 4zM223.4 138.4a4 4 0 1 0-4-4 4 4 0 0 0 4 4zM269.5 189.4a4 4 0 1 0-4-4 4 4 0 0 0 4 4zM269.5 172.5a4 4 0 1 0-4-4 4 4 0 0 0 4 4zM269.5 154.5a4 4 0 1 0-4-4 4 4 0 0 0 4 4zM269.5 138.4a4 4 0 1 0-4-4 4 4 0 0 0 4 4zM269.5 123.6a4 4 0 1 0-4-4 4 4 0 0 0 4 4zM269.5 106.8a4 4 0 1 0-4-4 4 4 0 0 0 4 4zM269.5 88.7a4 4 0 1 0-4-4 4 4 0 0 0 4 4zM269.5 72.2a4 4 0 1 0-4-4 4 4 0 0 0 4 4zM376.1 239.9a4 4 0 1 0-4-4 4 4 0 0 0 4 4zM361.1 239.9a4 4 0 1 0-4-4 4 4 0 0 0 4 4zM345.1 239.9a4 4 0 1 0-4-4 4 4 0 0 0 4 4zM330.1 239.9a4 4 0 1 0-4-4 4 4 0 0 0 4 4zM376.1 209a4 4 0 1 0-4-4 4 4 0 0 0 4 4zM376.1 224a4 4 0 1 0-4-4 4 4 0 0 0 4 4zM376.1 191a4 4 0 1 0-4-4 4 4 0 0 0 4 4zM376.1 174.9a4 4 0 1 0-4-4 4 4 0 0 0 4 4zM376.1 160.1a4 4 0 1 0-4-4 4 4 0 0 0 4 4zM376.1 143.3a4 4 0 1 0-4-4 4 4 0 0 0 4 4zM376.1 125.2a4 4 0 1 0-4-4 4 4 0 0 0 4 4zM316.6 189.4a4 4 0 1 0-4-4 4 4 0 0 0 4 4zM316.6 174.6a4 4 0 1 0-4-4 4 4 0 0 0 4 4z" class="cls-5"/><path fill="#001935" d="M392.3 55.1h-31.7a10.5 10.5 0 0 0-10.5 10.5v31.7a10.5 10.5 0 0 0 10.5 10.5h31.7a10.5 10.5 0 0 0 10.5-10.5V65.6a10.56 10.56 0 0 0-10.5-10.5z"/><path fill="#fff" d="M385.6 97.9H380c-5 0-8.7-2.6-8.7-8.7v-9.9h-4.5V74a9.81 9.81 0 0 0 7.3-9.3h5.2v8.5h6.1v6.2h-6.1V88c0 2.6 1.3 3.5 3.4 3.5h2.9v6.4z"/></svg>