<svg viewBox="0 0 504 280" fill="none" xmlns="http://www.w3.org/2000/svg">
<g clip-path="url(#clip0)">
<path d="M181.266 207.287C115.528 236.831 60.7756 261.274 43.6996 268.942L44.384 269.079L92.327 251.62L53.1787 270.962L55.711 271.51L93.422 254.496L62.4182 272.948L65.1901 273.53C90.0342 261.24 134.316 239.398 185.065 214.579L181.266 207.287Z" fill="#2FB41F"/>
<path d="M229.894 192.19L234.342 198.455C320.236 156.073 420.262 107.358 477.821 79.9023C419.441 106.673 317.567 152.855 229.894 192.19Z" fill="#2FB41F"/>
<path d="M492.844 72.9867C491.372 69.7687 470.806 75.4858 470.806 75.4858C470.806 75.4858 475.836 76.821 477.376 79.7993C477.924 79.4227 478.745 79.1146 479.293 78.7723C478.745 79.1489 477.924 79.457 477.376 79.7993C477.513 79.8336 477.582 79.9363 477.547 80.0732C479.019 83.2912 476.795 88.1182 476.795 88.1182C476.795 88.1182 494.315 76.2047 492.844 72.9867Z" fill="#2FB41F"/>
<path d="M492.502 73.3979C492.091 73.0556 491.133 73.0898 490.312 73.3979C489.422 73.5006 488.567 73.7403 487.745 74.0484C485.966 74.3907 484.186 74.9727 482.407 75.315C478.848 76.2394 475.255 77.1637 471.627 78.2934L471.696 73.4664C472.62 73.6718 473.27 74.0484 473.954 74.1853C474.605 74.5619 475.289 74.6988 476.144 75.1439C477.719 75.9997 479.053 77.3006 479.943 78.8754L476.589 77.6772L478.506 76.6502C479.84 75.9997 481.449 76.5817 482.099 77.9168C482.749 79.252 482.167 80.861 480.833 81.5114L478.916 82.5384L480.182 78.9439C480.662 79.9024 480.901 80.9637 480.97 82.0249C481.038 82.915 481.004 83.8051 480.901 84.6609L480.354 87.1943C480.148 88.1186 479.772 88.769 479.361 89.6249L475.665 86.6465C478.745 84.6609 481.654 82.3673 484.734 80.3817C486.171 79.252 487.643 78.1222 489.046 77.1979C489.662 76.6159 490.483 76.0682 490.859 75.4177C491.167 75.2123 491.373 74.9385 491.509 74.5961C491.681 74.4934 491.783 74.3565 491.852 74.1853L492.502 73.3979ZM493.631 72.679C494.11 73.7403 493.734 74.3907 493.631 74.87C493.494 75.452 493.22 75.9655 492.81 76.3763C492.331 77.2664 491.715 78.1222 491.065 78.9096C489.798 80.3817 488.43 81.7853 487.027 83.1204C484.323 85.7907 481.346 88.2213 478.232 90.4123C477.103 91.1997 475.563 90.9942 474.707 89.8988C474.16 89.2825 474.057 88.3925 474.468 87.6735L474.536 87.4339C474.639 86.9546 475.015 86.3384 475.118 85.8591L475.46 84.2501C475.494 83.0519 475.46 82.0592 475.049 81.751C474.331 80.6213 474.399 79.1835 475.529 78.4646L475.802 78.2934L476.076 78.1222L477.992 77.0952L480.319 81.9564L478.403 82.9835C477.034 83.6682 475.734 83.1204 475.049 81.7853C474.502 81.0321 473.818 80.3817 473.03 79.9024C472.62 79.5601 472.141 79.4916 471.525 79.0808C471.046 78.7727 470.532 78.5673 469.951 78.4988L469.711 78.4646C468.376 77.9511 467.692 76.5817 468.24 75.2466C468.445 74.3907 469.164 73.7745 470.019 73.706C473.817 72.8502 477.411 71.9259 481.346 71.5493C483.262 71.2412 485.247 71.2069 487.198 71.3439C488.224 71.3439 489.251 71.4808 490.243 71.7547C490.791 71.8574 491.338 72.0628 491.817 72.3367C492.468 72.5078 493.015 72.9871 493.221 73.6033L493.631 72.679Z" fill="#2FB41F"/>
<path d="M477.547 80.0735C478.232 79.7996 478.848 79.4573 479.464 79.0464C478.882 79.4573 478.232 79.7996 477.547 80.0735Z" fill="#204A69"/>
<path d="M478.027 80.176L478.129 79.6967L477.445 79.5598C477.376 79.0805 477.376 78.6012 477.513 78.122L477.65 77.4373C477.89 77.1292 478.198 76.8553 478.54 76.6499L480.867 81.5111C480.764 81.34 480.627 81.2373 480.456 81.1688C480.285 80.8949 479.395 80.4499 478.711 80.313L478.027 80.176ZM476.692 79.6625C476.555 79.149 476.418 78.6355 476.795 77.985C477.171 77.403 477.684 76.958 478.3 76.6157C479.669 75.931 481.278 76.2733 481.928 77.6427C482.646 78.8066 482.304 80.3472 481.175 81.1003L480.627 81.4769C480.319 81.6823 479.977 81.7508 479.601 81.7508L478.916 81.6138C478.471 81.4084 478.129 81.1003 477.924 80.6553L477.239 80.5184L477.342 80.0391L476.692 79.6625Z" fill="#2FB41F"/>
<path d="M35.9315 55.87C35.1102 53.8502 32.9201 51.4538 30.6958 50.6322L11.9772 43.9908C9.95815 43.1692 9.95815 41.971 11.9772 41.389L30.6958 34.7476C32.7148 33.926 35.1102 31.735 35.9315 29.5098L42.5703 10.7838C43.3916 8.76403 44.5893 8.76403 45.1711 10.7838L51.8098 29.5098C52.6311 31.5296 54.8213 33.926 57.0456 34.7476L75.7642 41.389C77.7832 42.2107 77.7832 43.4088 75.7642 43.9908L57.0456 50.6665C55.0266 51.4881 52.6311 53.6791 51.8098 55.9043L45.1711 74.596C44.3498 76.6158 43.1521 76.6158 42.5703 74.596L35.9315 55.87Z" fill="#C6DEF6"/>
<path d="M35.7262 55.8701C34.9049 53.8503 33.2966 52.4467 31.4829 51.4539C29.6692 50.6323 27.4448 50.0503 25.4601 49.4341L13.1749 45.4287L11.5665 44.8125C10.8479 44.6413 10.1977 44.1963 9.75283 43.6143C9.47907 43.135 9.41062 42.5531 9.54751 42.0053C9.75283 41.6287 10.0266 41.2864 10.3346 41.0125C10.8479 40.7044 11.3954 40.4305 11.9429 40.1909L17.9658 37.9657L30.0798 33.5495C31.6882 32.9333 33.2966 31.3243 34.3232 29.7153C34.768 28.8252 35.1102 27.8667 35.3156 26.9081L36.308 23.8955L40.5513 11.8109L41.1673 10.2019C41.3384 9.48299 41.7833 8.83255 42.365 8.38751C42.8441 7.90823 43.5969 7.83976 44.1787 8.1821C44.6578 8.35327 45.0342 8.72985 45.1711 9.17489C45.5133 9.72263 45.7871 10.3388 45.9924 10.9893L48.2167 17.0145L52.4601 29.0991C53.1445 30.845 54.4449 32.2486 56.0874 33.1387C56.9772 33.5837 57.9354 33.9261 58.9277 34.1315L61.9392 35.1243L74.019 39.3693L75.6274 39.9855C76.346 40.1567 76.9962 40.6017 77.4411 41.1837C77.9201 41.663 77.9886 42.4161 77.6464 42.9981C77.4753 43.4774 77.0989 43.8539 76.654 43.9909C76.1065 44.3332 75.4905 44.6071 74.8403 44.8125L68.8175 47.0377L56.7376 51.2827C54.9239 52.0359 53.4525 53.371 52.4943 55.1169C52.0836 55.9386 51.673 56.9313 51.2966 57.9241L50.3042 60.9367L45.8897 73.0213L45.2738 74.6303C45.0684 75.2465 44.8631 75.8285 44.2814 76.2393C43.8707 76.4447 43.289 76.6501 42.8783 76.4447C42.4677 76.2393 42.2623 75.8285 42.057 75.6231C41.749 75.1096 41.4753 74.5619 41.2357 74.0141L39.2167 67.9889L35.7262 55.8701ZM36.308 55.6989L40.7224 67.7835L42.9468 73.8087C43.1179 74.288 43.3232 74.7673 43.5627 75.2123L43.768 75.4177C44.1787 75.0069 44.5893 73.8087 44.7604 72.8159L49.0038 60.5259L49.9962 57.5133C50.4068 56.5205 50.6122 55.4935 51.1939 54.2953C52.3916 52.2755 54 50.4611 56.4296 49.6737L68.5095 45.4287L74.5323 43.2035C74.9772 43.1008 75.3878 42.8954 75.73 42.5873C75.8327 42.5873 75.9354 42.5188 75.9354 42.3819V42.5873C75.73 42.3819 74.5323 41.9711 73.5057 41.5945L61.4258 37.3495L58.4144 36.3567C57.422 35.9459 56.3954 35.7405 55.1977 35.1585C53.0418 33.9945 51.365 32.1459 50.3726 29.9207L46.1293 17.8361L43.9049 11.8109C43.8023 11.3659 43.5969 10.9551 43.289 10.6127C43.289 10.51 43.2205 10.4073 43.0836 10.4073H43.4943C43.289 10.6127 42.8783 11.8109 42.5019 12.8379L38.327 24.8883L37.3346 27.9009C36.9239 28.8937 36.7186 29.9207 36.1369 31.1189C34.9391 33.1387 33.1255 34.9531 30.9011 35.7405L18.616 39.9855L12.5589 42.0053C12.114 42.108 11.7034 42.3134 11.3612 42.6215C11.2585 42.6215 11.1559 42.69 11.1559 42.8269C11.3612 43.2377 12.5589 43.6485 13.5855 44.0251L25.6654 48.4413C27.6844 49.2629 29.7034 49.8449 31.6882 50.8719C33.7072 51.9332 35.3156 53.6449 36.308 55.6989Z" fill="#C6DEF6"/>
<path d="M343.643 81.0319C343.163 79.868 342 78.4301 340.563 77.9508L333.958 75.5887C332.795 75.1094 332.795 74.4247 333.958 73.9455L340.563 71.5833C341.726 71.104 343.163 69.9401 343.643 68.5023L346.004 61.8951C346.483 60.7311 347.167 60.7311 347.646 61.8951L350.008 68.5023C350.487 69.6662 351.65 71.104 353.087 71.5833L359.692 73.9455C360.855 74.4247 360.855 75.1094 359.692 75.5887L353.087 77.9508C351.924 78.4301 350.487 79.5941 350.008 81.0319L347.646 87.6391C347.167 88.803 346.483 88.803 346.004 87.6391L343.643 81.0319Z" fill="#C6DEF6"/>
<path d="M343.403 81.0321C342.992 80.3131 342.411 79.6627 341.76 79.1492C341.11 78.7384 340.392 78.4303 339.639 78.1906L334.677 76.787C334.232 76.5816 333.753 76.4447 333.274 76.3078C333.034 76.0681 332.555 76.0681 332.316 75.5889C332.076 75.315 332.076 74.9042 332.316 74.6303C332.316 74.3907 332.555 74.151 332.795 73.9114C333.513 73.4321 333.958 73.1925 334.198 73.1925L335.361 72.7132L340.323 70.8303C340.939 70.5222 341.487 70.1114 341.966 69.6664C342.445 69.1871 342.684 68.7078 342.924 67.7835L344.566 62.8196C344.772 62.3745 344.909 61.8952 345.046 61.416C345.285 61.1763 345.285 60.6971 346.004 60.4574C346.243 60.2178 346.962 60.2178 347.167 60.2178C347.646 60.4574 347.886 60.4574 348.125 60.6971C348.844 61.416 348.844 61.861 349.084 62.3403L349.563 63.5042L351.205 68.4682C351.513 69.0844 351.924 69.6321 352.369 70.1114C352.848 70.5907 353.327 70.8303 354.251 71.07L359.213 72.9528C359.658 73.1582 360.137 73.2952 360.616 73.4321C360.855 73.6717 361.334 73.6717 361.574 74.3907C361.814 74.733 361.814 75.2123 361.574 75.5546C361.334 76.0339 361.334 76.2735 361.095 76.2735C360.684 76.7528 360.068 77.0267 359.452 76.9924L358.289 77.4717L353.327 79.115C352.711 79.4231 352.163 79.8339 351.684 80.2789C351.205 80.7582 350.966 81.2375 350.726 82.1618L348.844 87.1257C348.639 87.5708 348.502 88.05 348.365 88.5293C348.125 88.7689 348.125 89.0086 347.646 89.4879C347.373 89.7275 346.962 89.7275 346.688 89.4879C346.449 89.4879 346.209 89.2482 345.97 89.0086C345.49 88.5293 345.49 87.8446 345.251 87.605L344.772 86.441L343.403 81.0321ZM344.122 80.7924L346.004 85.7564L346.483 86.9203C346.722 87.3996 346.722 87.6392 346.962 87.8789C346.825 87.7419 346.62 87.7419 346.483 87.8789V87.6392C346.585 87.2284 346.722 86.8176 346.962 86.4753L348.604 81.5113C348.844 80.7924 349.323 79.6285 350.008 78.9095C350.726 78.0879 351.616 77.4375 352.608 77.0267L357.57 75.1438L358.734 74.6645C358.939 74.5276 359.179 74.4591 359.452 74.4249L359.213 74.6645V75.3834C358.802 75.2807 358.392 75.1438 358.049 74.9042L353.087 73.2609C352.369 73.0213 350.966 72.542 350.247 71.8573C349.426 71.1384 348.776 70.2483 348.365 69.2556L346.722 64.2916L346.243 63.1277C346.106 62.9223 346.038 62.6826 346.004 62.4088L346.243 62.6484H346.962C347.201 62.4088 347.201 62.4088 347.201 62.6484C347.099 63.0592 346.962 63.47 346.722 63.8123L344.84 68.7763C344.601 69.4952 344.122 70.6592 343.437 71.3781C342.719 72.1997 341.829 72.8501 340.836 73.2609L335.874 74.9042L334.711 75.3834C334.437 75.5546 334.095 75.6231 333.753 75.6231V74.9042C334.163 75.0069 334.574 75.1438 334.916 75.3834L339.878 77.2663C341.726 77.7456 343.3 79.0465 344.122 80.7924Z" fill="#C6DEF6"/>
<path d="M473.338 217.865L467.453 220.707L470.293 214.818L467.453 208.93L473.338 211.772L479.224 208.93L476.384 214.818L479.224 220.707L473.338 217.865Z" fill="#C6DEF6"/>
<path d="M473.099 218.07C471.217 219.234 469.574 220.433 467.658 221.357C467.247 221.528 466.768 221.46 466.494 221.117C466.289 220.98 466.255 220.706 466.392 220.501C466.426 220.467 466.46 220.433 466.494 220.398V220.159C467.213 218.036 468.137 216.153 469.095 214.031V214.989L466.255 209.101C466.015 208.382 466.255 207.698 466.734 207.458C467.076 207.218 467.555 207.218 467.897 207.458L473.783 210.299H472.62L478.506 207.458C479.224 207.218 479.909 207.458 480.148 208.177C480.388 208.519 480.388 208.998 480.148 209.341C479.19 211.224 478.266 213.346 477.308 215.229V214.305C478.266 216.188 478.951 218.31 479.909 220.433C480.114 220.878 479.943 221.391 479.498 221.597C479.464 221.597 479.464 221.631 479.43 221.631H478.711C476.863 220.433 475.221 219.269 473.099 218.07ZM473.578 217.386C475.46 218.105 477.582 218.789 479.464 219.748L478.3 220.912C477.342 219.029 476.179 217.146 475.221 215.229C474.981 214.955 474.981 214.544 475.221 214.27C476.179 212.388 477.103 210.265 478.061 208.382L479.704 210.025L473.818 212.867C473.475 213.107 472.996 213.107 472.654 212.867L466.768 210.025L468.411 208.382L471.251 214.27C471.491 214.544 471.491 214.955 471.251 215.229C470.293 217.112 469.129 218.995 468.171 220.912L467.008 219.748C469.129 218.789 471.251 218.105 473.373 217.386H473.578Z" fill="#C6DEF6"/>
<path d="M439.152 162.064L433.266 164.905L436.106 159.017L433.266 153.129L439.152 155.97L445.038 153.129L442.198 159.017L445.038 164.905L439.152 162.064Z" fill="#C6DEF6"/>
<path d="M438.912 162.543C437.03 163.707 435.388 164.905 433.471 165.83C433.061 166.001 432.582 165.932 432.308 165.59C432.103 165.453 432.068 165.179 432.205 164.974C432.24 164.939 432.274 164.905 432.308 164.871V164.666C433.027 162.543 433.951 160.66 434.909 158.538V159.496L432.068 153.608C431.829 152.889 432.068 152.204 432.547 151.965C432.89 151.725 433.369 151.725 433.711 151.965L439.597 154.806H438.433L444.319 151.965C445.038 151.725 445.722 151.965 445.962 152.684C446.201 153.026 446.201 153.505 445.962 153.848C445.004 155.731 444.08 157.853 443.122 159.736V158.777C444.08 160.66 444.764 162.783 445.722 164.905C445.928 165.35 445.757 165.864 445.312 166.069C445.277 166.069 445.277 166.103 445.243 166.103H444.525C442.779 164.768 440.897 163.57 438.912 162.543ZM439.392 161.824C441.274 162.543 443.395 163.228 445.277 164.186L444.114 165.35C443.156 163.467 441.992 161.585 441.034 159.667C440.795 159.394 440.795 158.983 441.034 158.709C441.992 156.826 442.916 154.704 443.874 152.821L445.517 154.464L439.631 157.305C439.289 157.545 438.81 157.545 438.468 157.305L432.582 154.464L434.224 152.821L437.065 158.709C437.304 158.983 437.304 159.394 437.065 159.667C436.106 161.55 434.943 163.433 433.985 165.35L432.821 164.186C434.943 163.228 437.065 162.543 439.186 161.824H439.392Z" fill="#C6DEF6"/>
<path d="M98.8973 128.378C97.7338 127.967 96.4335 127.967 95.27 128.378L87.8099 132.007C86.8175 132.418 86.4069 132.007 86.8175 131.014L90.4449 123.551C90.8555 122.387 90.8555 121.086 90.4449 119.922L86.8175 112.459C86.4069 111.466 86.8175 111.055 87.8099 111.466L95.27 115.095C96.4335 115.506 97.7338 115.506 98.8973 115.095L106.357 111.466C107.35 111.055 107.76 111.466 107.35 112.459L103.722 119.922C103.312 121.086 103.312 122.387 103.722 123.551L107.35 131.014C107.76 132.007 107.35 132.418 106.357 132.007L98.8973 128.378Z" fill="#C6DEF6"/>
<path d="M98.692 128.583C97.8365 128.378 96.9468 128.378 96.0913 128.583C95.27 128.789 94.4829 129.405 93.6616 129.781L88.6312 132.383C88.1179 132.657 87.5703 132.862 87.0228 132.999H86.2357C85.9278 132.862 85.6882 132.554 85.6198 132.178C85.4145 131.562 85.6198 131.356 85.8251 130.98L87.0228 128.378L89.4525 123.345C89.7262 122.626 89.7947 121.873 89.6578 121.12C89.6578 120.504 89.0418 119.717 88.6654 118.895L86.2357 113.863C85.962 113.349 85.7567 112.801 85.6198 112.254C85.6198 111.911 85.6882 111.569 85.8251 111.261C86.0304 110.85 86.4411 110.439 86.8175 110.439C87.2966 110.268 87.8099 110.336 88.2205 110.645L90.8213 111.843L95.8517 114.273C96.4677 114.479 97.2548 114.684 97.8707 114.479C98.4867 114.479 99.2738 113.863 100.095 113.486L105.125 111.055C105.639 110.781 106.186 110.576 106.734 110.439C107.076 110.439 107.418 110.508 107.726 110.645C108.137 110.85 108.548 111.261 108.548 111.637C108.719 112.048 108.65 112.527 108.342 112.835L107.145 115.437L104.715 120.47C104.441 121.189 104.373 121.942 104.51 122.695C104.51 123.311 105.125 124.098 105.502 125.126L107.726 130.158C108 130.671 108.205 131.219 108.342 131.767V132.589C108.137 132.999 107.932 133.205 107.521 133.205C106.905 133.205 106.7 133.205 106.529 132.999L103.928 131.801L98.692 128.583ZM98.8974 127.967L103.928 130.192L106.529 131.39H106.734C106.631 131.39 106.529 131.459 106.529 131.596C106.46 131.253 106.323 130.911 106.118 130.603L103.517 125.571L102.901 124.372C102.662 123.859 102.456 123.311 102.285 122.763C102.046 121.599 102.183 120.401 102.696 119.34L105.125 114.308L106.323 111.877C106.323 112.082 106.494 112.254 106.734 112.288H106.939C106.597 112.39 106.255 112.527 105.947 112.699L100.916 115.129L99.7186 115.745C99.2053 115.985 98.6578 116.19 98.1103 116.362C96.9126 116.567 95.8859 116.567 94.6882 115.951L89.6578 113.52L87.2281 112.322C87.4335 112.322 87.6046 112.151 87.6388 111.911V111.706C87.7415 112.048 87.8783 112.39 88.0494 112.699L90.4791 117.731L91.0951 118.929C91.3346 119.443 91.5399 119.99 91.711 120.538C91.9164 121.736 91.9164 122.763 91.3004 123.962L88.6654 128.994L87.4677 131.425V131.63C87.365 131.527 87.2966 131.39 87.2624 131.219C87.6046 131.151 87.9468 131.014 88.2548 130.808L93.4905 128.583C94.3802 128.104 95.3042 127.762 96.2966 127.59C97.1521 127.59 98.0418 127.727 98.8974 127.967Z" fill="#C6DEF6"/>
<path d="M27.6844 210.094C27.2738 209.102 26.2814 207.869 25.0836 207.493L19.4373 205.473C18.4449 205.062 18.4449 204.48 19.4373 204.069L25.0836 202.049C26.076 201.639 27.308 200.646 27.6844 199.448L29.7034 193.799C30.1141 192.806 30.6958 192.806 31.1065 193.799L33.1255 199.448C33.5361 200.44 34.5285 201.673 35.7262 202.049L41.3726 204.069C42.365 204.48 42.365 205.062 41.3726 205.473L35.7262 207.493C34.7338 207.903 33.5019 208.896 33.1255 210.094L31.1065 215.743C30.6958 216.736 30.1141 216.736 29.7034 215.743L27.6844 210.094Z" fill="#C6DEF6"/>
<path d="M27.4791 210.094C27.1369 209.478 26.6578 208.93 26.0761 208.485C25.5286 208.143 24.9126 207.869 24.2624 207.664L20.0533 206.465C19.6768 206.294 19.2662 206.157 18.8556 206.055C18.6502 205.849 18.2396 205.849 18.0685 205.438C17.8632 205.199 17.8632 204.856 18.0685 204.617C18.0685 204.411 18.2738 204.206 18.4791 204.001C19.0951 203.59 19.4715 203.384 19.6768 203.384L20.6692 202.974L24.9126 201.365C25.4259 201.091 25.905 200.748 26.3156 200.372C26.7263 199.927 27.0343 199.379 27.1027 198.763L28.5057 194.518C28.6769 194.141 28.8137 193.73 28.9164 193.32C29.1217 193.114 29.1217 192.703 29.7035 192.498C29.9088 192.293 30.4905 192.293 30.6959 192.293C31.1065 192.498 31.3118 192.498 31.4829 192.703C32.0989 193.32 32.0989 193.696 32.27 194.107L32.6807 195.1L34.0837 199.345C34.3575 199.858 34.6997 200.338 35.0761 200.748C35.521 201.159 36.0685 201.467 36.6845 201.57L40.8936 203.179C41.27 203.35 41.6807 203.487 42.0913 203.59C42.2966 203.795 42.7073 203.795 42.8784 204.411C43.0837 204.72 43.0837 205.096 42.8784 205.404C42.6731 205.815 42.673 206.02 42.4677 206.02C42.1255 206.431 41.6122 206.671 41.0647 206.637L40.0723 207.047L35.9316 208.485C35.4183 208.759 34.9392 209.102 34.5286 209.478C34.1179 209.923 33.8099 210.471 33.7415 211.087L32.0989 215.332C31.9278 215.709 31.7909 216.12 31.6883 216.53C31.4829 216.736 31.4829 216.941 31.0723 217.352C30.8327 217.557 30.4905 217.557 30.2852 217.352C30.0799 217.352 29.8746 217.147 29.6692 216.941C29.2586 216.53 29.2586 215.948 29.0533 215.743L28.6426 214.75L27.4791 210.094ZM28.0609 209.889L29.6692 214.134L30.0799 215.127C30.2852 215.538 30.2852 215.743 30.4905 215.948C30.3879 215.846 30.2168 215.846 30.1141 215.948V215.743C30.1826 215.401 30.3194 215.058 30.5248 214.75L31.9278 210.505C32.1673 209.684 32.578 208.93 33.1255 208.28C33.7415 207.595 34.4943 207.047 35.3499 206.671L39.559 205.062L40.5514 204.651C40.7225 204.548 40.9278 204.48 41.1673 204.446L40.962 204.651V205.267C40.6198 205.199 40.2776 205.062 39.9696 204.856L35.7605 203.453C35.1445 203.247 33.9468 202.837 33.3308 202.255C32.6464 201.638 32.0989 200.885 31.7225 200.029L30.3194 195.784L29.9088 194.792C29.8061 194.62 29.7377 194.415 29.7035 194.175L29.9088 194.381H30.5248C30.7301 194.175 30.7301 194.175 30.7301 194.381C30.6616 194.723 30.5248 195.066 30.3194 195.374L28.7111 199.619C28.4715 200.44 28.0609 201.193 27.5134 201.844C26.8974 202.529 26.1445 203.076 25.289 203.453L21.0799 204.856L20.0875 205.267C19.848 205.404 19.5742 205.473 19.3004 205.473V204.856C19.6426 204.925 19.9848 205.062 20.2928 205.267L24.5019 206.876C26.0419 207.287 27.3765 208.417 28.0609 209.889Z" fill="#C6DEF6"/>
<path d="M281.772 238.679C281.772 203.213 262.163 174.833 234.821 170.006C230.852 183.152 209.566 183.563 204.981 170.622L204.776 170.006C174.319 176.271 153.034 204.856 149.92 237.824C145.335 285.203 148.893 277.672 148.893 277.672H282.182" fill="#5198D9"/>
<path d="M188.11 218.413C188.316 220.912 187.905 223.206 187.905 225.705L187.289 232.997L186.023 247.375L184.551 261.787C184.175 266.614 183.456 271.441 182.464 276.2C182.464 276.405 182.259 276.405 182.053 276.405C181.848 276.405 181.848 276.2 181.848 275.995C181.643 271.202 182.053 266.409 182.464 261.582L183.73 247.17L184.996 232.757L185.612 225.465C185.817 223.171 186.023 220.672 186.639 218.379C186.844 217.968 187.049 217.763 187.46 217.968C187.665 218.002 187.871 218.208 188.11 218.413ZM234 159.154C234.411 160.421 234.411 161.858 234.411 163.125C234.376 164.392 234.445 165.658 234.616 166.891C234.855 167.918 235.437 168.808 236.293 169.39C236.772 169.629 237.251 169.835 237.764 170.006C238.38 170.211 239.236 170.417 239.852 170.622C245.053 172.505 249.433 175.415 253.814 178.565C258.057 181.783 262.061 185.343 265.688 189.211C269.247 193.182 272.361 197.564 274.449 202.563C274.449 202.768 274.449 202.973 274.243 202.973C274.038 202.973 273.833 202.973 273.833 202.768C270.924 198.42 267.741 194.312 264.251 190.444C260.692 186.644 256.791 183.22 252.548 180.242C250.46 178.736 248.304 177.332 246.08 176.065C243.787 174.799 241.494 173.566 239.202 172.711C238.62 172.539 238.072 172.334 237.525 172.094C236.772 171.957 236.087 171.649 235.437 171.273C234.137 170.348 233.179 169.047 232.734 167.507C232.563 166.754 232.494 165.966 232.528 165.213V163.33C232.528 162.064 232.323 160.626 232.939 159.359C233.144 158.948 233.555 158.743 234 159.154C233.76 158.948 233.76 158.743 234 159.154Z" fill="#2271B1"/>
<path d="M239.612 103.216C242.11 108.008 243.582 113.452 244.814 118.655C246.114 123.996 246.901 129.439 247.106 134.951C247.106 140.394 246.285 146.214 243.342 151.006C241.837 153.471 239.852 155.594 237.491 157.271C234.992 158.949 232.289 159.77 229.551 160.386C223.939 161.413 218.156 160.626 213.057 158.093C208.061 155.799 203.475 152.239 199.711 148.302C192.011 140.36 186.776 130.569 183.456 120.333C183.456 120.127 183.456 119.922 183.662 119.922C183.867 119.922 184.072 119.922 184.072 120.127C188.658 129.918 193.894 139.333 201.388 147.035C205.152 150.801 209.327 154.122 214.118 156.21C218.909 158.298 224.144 159.12 229.141 158.093C231.639 157.477 234.137 156.621 236.224 155.183C238.312 153.745 240.091 151.896 241.426 149.74C244.129 145.358 244.985 139.949 244.985 134.711C244.985 129.473 244.164 124.064 242.897 118.861C241.631 113.657 239.783 108.625 238.312 103.421C238.106 103.01 238.312 102.599 238.722 102.599C239.202 102.805 239.407 102.805 239.612 103.216Z" fill="#2271B1"/>
<path d="M207.924 87.5706C224.624 80.895 239.201 84.6607 238.175 92.5688C237.354 99.4498 203.749 101.743 199.779 111.363C197.281 117.628 201.046 127.008 204.16 133.068C205.973 136.525 205.289 140.77 202.483 143.509L199.574 147.069C181.027 128.686 164.327 104.893 207.924 87.5706ZM228.354 123.893C229.38 125.57 230.236 127.453 231.057 129.096C231.673 130.979 232.528 132.862 232.939 134.745C232.939 135.156 232.734 135.567 232.323 135.567C231.913 135.567 231.707 135.567 231.502 135.156C230.475 133.478 229.825 131.596 229.004 129.713C228.354 127.864 227.806 125.981 227.327 124.064C227.327 123.859 227.532 123.448 227.738 123.448C227.943 123.687 228.148 123.687 228.354 123.893Z" fill="#2271B1"/>
<path d="M238.38 125.536C239.441 125.125 239.989 123.927 239.646 122.831L238.38 119.716C237.97 118.621 236.772 118.073 235.677 118.45C234.582 118.86 234.034 120.059 234.411 121.154L235.677 124.269C236.087 125.365 237.285 125.913 238.38 125.536ZM217.916 133.478C218.977 133.067 219.525 131.869 219.182 130.774L217.916 127.658C217.506 126.563 216.308 126.015 215.213 126.392C214.118 126.803 213.57 128.001 213.947 129.096L215.213 132.212C215.521 133.273 216.65 133.889 217.711 133.547C217.779 133.547 217.848 133.512 217.916 133.478Z" fill="#2271B1"/>
<path d="M229.551 147.685C228.456 147.685 227.361 147.377 226.437 146.761C225.89 146.384 225.753 145.666 226.095 145.118C226.471 144.57 227.19 144.433 227.738 144.775C227.738 144.775 227.772 144.775 227.772 144.81C228.627 145.392 229.859 145.494 231.194 145.015C232.631 144.502 233.795 143.44 234.103 142.311C234.274 141.694 234.924 141.318 235.54 141.489H235.574C236.19 141.66 236.567 142.311 236.395 142.961C235.882 144.81 234.171 146.453 232.015 147.24C231.228 147.548 230.373 147.685 229.551 147.685Z" fill="#2271B1"/>
<path d="M212.92 120.127C212.509 120.127 211.894 120.538 211.243 120.743C210.593 121.017 209.943 121.359 209.361 121.77C208.745 122.181 208.335 122.592 207.684 123.037C207.274 123.448 206.658 123.859 206.418 124.509C206.213 124.92 205.802 124.92 205.392 124.714C205.186 124.509 204.981 124.304 205.186 123.893C205.597 122.01 207.068 120.983 208.3 119.922C209.019 119.442 209.772 119.1 210.593 118.895C211.483 118.621 212.407 118.552 213.297 118.689C213.707 118.689 213.913 119.1 213.707 119.511C213.536 119.75 213.228 119.99 212.92 120.127ZM229.414 112.185C230.03 111.363 230.886 110.918 231.502 110.507C232.22 110.131 233.008 109.925 233.795 109.891C235.471 109.686 237.148 109.686 238.791 110.713C239.201 110.918 239.201 111.329 238.996 111.74C238.791 111.945 238.585 112.151 238.175 111.945C237.559 111.774 236.943 111.705 236.293 111.74C235.574 111.705 234.89 111.774 234.205 111.945C233.589 112.151 232.734 112.151 232.118 112.356C231.536 112.527 230.989 112.733 230.441 112.972L230.236 113.178C229.825 113.383 229.414 113.178 229.414 112.972V112.185Z" fill="#2271B1"/>
<path d="M239.852 92.3633C223.152 63.1617 167.475 86.3039 181.437 122.215Z" fill="#2FB41F"/>
<path d="M253.608 87.3651C247.757 90.9254 241.494 94.0407 235.471 97.156L217.095 106.365L198.548 115.54C192.285 118.655 186.228 121.599 180 124.509C179.589 124.714 179.179 124.509 179.179 124.098C178.973 123.687 179.179 123.482 179.384 123.277C185.441 119.922 191.498 116.806 197.726 113.691L216.068 104.516L234.616 95.3416C240.878 92.2263 246.935 89.2822 253.403 86.7831C253.643 86.7489 253.848 86.8173 254.019 86.9885C253.814 86.9885 253.814 87.3993 253.608 87.3651Z" fill="#CDC9CD"/>
<path d="M208.335 108.453C220.243 97.1904 239.612 78.8067 253.198 86.9544L208.335 108.453ZM208.129 108.248C211.038 104.893 214.186 101.778 217.506 98.8678C220.859 95.9237 224.418 93.2192 228.148 90.7201C231.913 88.221 235.848 86.1328 240.468 84.8661L242.144 84.4553C242.76 84.4553 243.411 84.2499 243.821 84.2499C244.437 84.2499 245.087 84.0445 245.498 84.0445L247.175 84.2499C248.441 84.2499 249.468 84.6607 250.529 85.0715C251.589 85.4823 252.616 86.0985 253.643 86.5436C253.951 86.7147 254.122 87.0571 254.053 87.3652C254.053 87.5706 253.437 87.776 253.232 87.776C249.468 85.8931 245.087 85.8931 241.118 86.9544C236.943 87.9814 233.179 90.3093 229.654 92.603C225.992 94.9994 222.502 97.6354 219.217 100.545C215.863 103.455 212.544 106.399 208.985 109.104C208.848 109.275 208.608 109.309 208.437 109.172C208.403 109.138 208.369 109.138 208.369 109.104C207.924 108.659 207.924 108.453 208.129 108.248ZM234 277.056H328.278V269.114H240.673C237.046 269.079 234.034 271.989 234 275.618C234 275.687 234 275.721 234 275.789V277.056Z" fill="#CDC9CD"/>
<path d="M285.536 277.056H395.897L405.684 206.328C406.506 199.858 401.509 194.004 395.042 194.004H306.376C300.935 193.936 296.35 198.01 295.734 203.384L285.536 277.056Z" fill="#CDC9CD"/>
<path d="M503.829 278.323C488.327 279.144 472.859 279.35 457.357 279.795L104.954 280C73.9848 279.795 31.3118 280 0.307969 278.734C0.171087 278.699 0.0342051 278.425 0.0342051 278.117C-1.54595e-05 277.809 0.102646 277.535 0.239528 277.501C0.273749 277.501 0.273749 277.501 0.307969 277.501C31.2776 276.234 73.9506 276.474 104.954 276.234L457.357 276.44C472.859 276.645 488.327 276.851 503.829 277.912C503.932 277.912 504 278.117 504 278.323C503.966 278.186 503.863 278.186 503.829 278.323C503.829 278.323 503.829 278.288 503.829 278.323Z" fill="#C6DEF6"/>
<path d="M204.981 159.77C205.392 161.482 205.665 163.228 205.802 164.974C205.802 166.651 206.008 168.328 206.008 170.177V169.801C206.418 170.622 206.829 171.683 207.274 172.71C207.719 173.635 208.266 174.456 208.951 175.209C209.601 175.997 210.388 176.716 211.243 177.298C212.065 177.982 212.989 178.53 213.947 178.975C214.118 179.146 214.186 179.386 214.152 179.591C214.152 179.797 213.947 179.797 213.741 179.797C212.475 179.591 211.449 179.386 210.388 178.77C209.327 178.154 208.3 177.503 207.479 176.476C206.658 175.586 205.973 174.627 205.392 173.566C204.776 172.505 204.297 171.41 203.92 170.211V169.801C203.886 168.055 203.954 166.309 204.125 164.597C204.331 162.92 204.536 161.242 204.947 159.393C204.57 159.804 204.776 159.599 204.981 159.77Z" fill="#2271B1"/>
</g>
<defs>
<clipPath id="clip0">
<rect width="504" height="280" fill="white"/>
</clipPath>
</defs>
</svg>
