<svg xmlns="http://www.w3.org/2000/svg" version="1.1" x="0" y="0" viewBox="0 0 648 125" xml:space="preserve"><style type="text/css">
	.st0{display:none;}
	.st1{display:inline;fill:#72AF3A;}
	.st2{fill:#F3F6F8;enable-background:new    ;}
	.st3{fill:#FFFFFF;}
</style><g class="st0"><rect x="-14" y="-15" class="st1" width="667" height="154"/></g><circle class="st2" cx="565" cy="62.5" r="50.1"/><path class="st3" d="M614.9 59c0-0.1 0-0.3 0-0.4 -0.1-1.4-0.3-2.8-0.5-4.2l-3.6-0.7c-7.2-2.1-13.7-6-19-11.3l0 0 0 0c-2.2-2.2-5-3.8-8.3-4.5 -3.3-0.6-6.5-0.2-9.4 1l0 0c0 0 0 0-0.1 0 -6.9 2.9-14.4 4.1-21.8 3.3l-29.9-5.9c-2.1 3.4-3.7 7-5 10.9l32.9 6.5c7.1 2.1 13.5 6 18.7 11.3l0 0 0 0c2.2 2.2 5 3.8 8.3 4.5 3.3 0.6 6.5 0.2 9.4-1l0 0c0 0 0 0 0.1 0 6.8-2.9 14.2-4 21.6-3.3l6.6 1.3C615.1 63.9 615.1 61.5 614.9 59zM562.1 74.8c-1.4-1.4-3.1-2.4-5.1-2.8s-4-0.1-5.8 0.6c-4.3 1.8-8.9 2.5-13.5 2.1l-22.1-4.3c0.4 2.6 1 5.2 1.9 7.7l19 3.7c4.4 1.3 8.4 3.7 11.6 7 1.4 1.4 3.1 2.4 5.1 2.8s4 0.1 5.8-0.6c4.2-1.8 8.8-2.5 13.4-2.1l30.9 6.1c1.7-2 3.2-4.1 4.6-6.4l-34-6.7C569.4 80.5 565.3 78.1 562.1 74.8z"/><circle class="st2" cx="432.2" cy="49.9" r="4"/><polygon class="st2" points="141 51.9 146 49.9 141 47.9 139 42.9 137 47.9 132 49.9 137 51.9 139 56.9 "/><polygon class="st2" points="276.7 75.8 281.7 77.9 279.6 73 281.7 68 276.7 70.2 271.8 68 273.9 73 271.8 77.9 "/></svg>