<?xml version="1.0" encoding="utf-8"?>
<!-- Generator: Adobe Illustrator 21.0.0, SVG Export Plug-In . SVG Version: 6.00 Build 0)  -->
<svg version="1.1" id="Layer_2" xmlns="http://www.w3.org/2000/svg" xmlns:xlink="http://www.w3.org/1999/xlink" x="0px" y="0px"
	 viewBox="0 0 1562 968.3" style="enable-background:new 0 0 1562 968.3;" xml:space="preserve">
<style type="text/css">
	.st0{fill:#E9EFF4;}
	.st1{fill:#FFFFFF;}
	.st2{fill:#C8D7E2;}
	.st3{fill:#74DCFC;}
	.st4{fill:#DDF8FF;}
	.st5{fill:#004F81;}
	.st6{fill:#C2F4FF;}
	.st7{fill:#00A9DE;}
	.st8{fill:#FFFFFF;stroke:#74DCFC;stroke-linecap:round;stroke-linejoin:round;stroke-miterlimit:10;}
	.st9{fill:#FFFFFF;stroke:#004F82;stroke-linecap:round;stroke-linejoin:round;stroke-miterlimit:10;}
	.st10{fill:none;stroke:#004F82;stroke-linecap:round;stroke-linejoin:round;stroke-miterlimit:10;}
	.st11{fill:#004F82;}
	.st12{fill:none;stroke:#74DCFC;stroke-linecap:round;stroke-linejoin:round;stroke-miterlimit:10;}
	.st13{fill:#FFFFFF;stroke:#00A9DE;stroke-linecap:round;stroke-linejoin:round;stroke-miterlimit:10;}
	.st14{fill:#004F84;}
	.st15{fill:none;stroke:#FFFFFF;stroke-linecap:round;stroke-linejoin:round;stroke-miterlimit:10;}
	.st16{fill:none;stroke:#00A9DE;stroke-linecap:round;stroke-linejoin:round;stroke-miterlimit:10;}
	.st17{fill:none;stroke:#004F82;stroke-width:1.1052;stroke-linecap:round;stroke-linejoin:round;stroke-miterlimit:10;}
</style>
<g>
	<path class="st0" d="M74.2,222.2l37.1-0.2l37.1-0.1l-0.4,0.3c1.8-5.9,4.1-11.7,6.7-17.3c2.6-5.6,5.5-11.1,8.9-16.3
		c3.4-5.2,7.2-10.1,11.6-14.5c4.4-4.4,9.5-8.1,15.2-10.7c5.7-2.5,12.1-3.6,18.3-3.1c3.1,0.4,6.2,0.8,9.2,1.7l1.1,0.3l1.1,0.4
		l2.2,0.8c1.4,0.6,2.9,1.2,4.2,2c1.4,0.7,2.7,1.6,4,2.4c1.3,0.9,2.6,1.8,3.7,2.8c1.2,1,2.3,2.1,3.5,3.2c1.1,1.1,2.1,2.3,3.1,3.5
		c3.9,4.9,6.8,10.6,8.1,16.8c0.6,3.1,0.8,6.3,0.1,9.4c-0.2,0.8-0.4,1.6-0.7,2.3c-0.2,0.4-0.3,0.7-0.5,1.1l-0.6,1
		c-0.1,0.2-0.2,0.4-0.3,0.5l-0.4,0.5l-0.8,0.9l-0.9,0.8l-0.4,0.4l-0.5,0.3c-2.7,1.9-6,2.5-9.1,2.4c-0.8,0-1.6-0.1-2.4-0.2
		c-0.8-0.2-1.6-0.3-2.3-0.6c-0.8-0.2-1.5-0.6-2.2-1l-1-0.8c-0.3-0.3-0.6-0.6-0.8-0.9c-1-1.3-1.6-2.9-1.7-4.5
		c-0.1-1.6,0.1-3.2,0.6-4.7c0.9-3,2.7-5.7,4.8-8.1c4.2-4.7,9.7-8.1,15.6-10.1c3-1,6-1.7,9.1-2c3.1-0.3,6.2-0.4,9.3-0.1
		c6.2,0.5,12.5,2.6,17.2,6.8c2.4,2.1,4.4,4.6,5.9,7.3c1.5,2.8,2.6,5.7,3.3,8.7c1.4,6.1,1.7,12.4,1,18.6l-0.4-0.5l80.8,0.2
		c0.1,0,0.2,0.1,0.2,0.2c0,0.1-0.1,0.2-0.2,0.2l-80.8,0.2c-0.2,0-0.4-0.2-0.4-0.4l0,0l0,0c0.7-6.1,0.4-12.3-1-18.2
		c-1.5-5.9-4.3-11.6-8.9-15.6c-4.6-4-10.6-6-16.7-6.5c-3-0.3-6.1-0.2-9.1,0.1c-3,0.3-6,1-8.9,1.9c-5.8,2-11.1,5.2-15.2,9.8
		c-2,2.3-3.7,4.9-4.6,7.7c-1,2.8-0.9,6.1,0.9,8.4c0.2,0.3,0.5,0.6,0.7,0.8l0.9,0.7c0.6,0.3,1.3,0.7,2,0.9c0.7,0.3,1.4,0.4,2.2,0.5
		c0.7,0.1,1.5,0.1,2.2,0.2c3,0,6.1-0.5,8.5-2.3l0.5-0.3l0.4-0.4l0.8-0.7l0.7-0.9l0.3-0.4c0.1-0.2,0.2-0.3,0.3-0.5l0.6-1
		c0.2-0.3,0.3-0.7,0.4-1c0.3-0.7,0.5-1.4,0.7-2.1c0.7-2.9,0.5-6-0.1-9c-1.2-6-4.1-11.6-7.9-16.3c-0.9-1.2-2-2.3-3-3.4
		c-1.1-1.1-2.2-2.1-3.4-3.1c-1.1-1-2.4-1.9-3.7-2.8c-1.3-0.8-2.6-1.6-3.9-2.3c-1.3-0.8-2.8-1.3-4.1-1.9l-2.2-0.8l-1.1-0.4l-1.1-0.3
		c-2.9-0.9-6-1.3-9-1.7c-6.1-0.5-12.3,0.5-17.8,3c-5.6,2.5-10.6,6.2-14.9,10.5c-4.4,4.3-8.1,9.2-11.5,14.4
		c-3.4,5.1-6.3,10.6-8.9,16.1c-2.6,5.6-4.9,11.3-6.8,17.2l0,0c-0.1,0.2-0.2,0.3-0.4,0.3l-37.1-0.1l-37.1-0.2
		C74.2,222.4,74.1,222.4,74.2,222.2C74.1,222.3,74.2,222.2,74.2,222.2z"/>
</g>
<g>
	<path class="st1" d="M718.8,895.1c0,0,329.3-214.9,843.2-231.8"/>
	<path class="st2" d="M718.7,895c15.5-9.9,31.6-19,47.7-27.8c16.2-8.8,32.6-17.1,49.1-25.2c33.1-16.1,66.8-31,100.9-44.8
		c34.1-13.8,68.7-26.4,103.7-38c34.9-11.6,70.2-22.3,105.8-31.7l13.3-3.6l13.4-3.4l13.4-3.4c4.5-1.1,8.9-2.3,13.4-3.3l26.9-6.2
		l6.7-1.5l6.8-1.4l13.5-2.8l13.5-2.8c2.3-0.5,4.5-1,6.8-1.4l6.8-1.3l27.1-5c2.3-0.4,4.5-0.9,6.8-1.2l6.8-1.1l13.6-2.2l13.6-2.2
		l6.8-1.1l6.8-0.9c72.9-10.6,146.3-17.1,219.9-19.6c0.1,0,0.2,0.1,0.2,0.2c0,0.1-0.1,0.2-0.2,0.2c-73.6,2.6-147,9.4-219.8,20.1
		l-6.8,1l-6.8,1.1l-13.6,2.2l-13.6,2.2l-6.8,1.1c-2.3,0.4-4.5,0.8-6.8,1.2l-27.1,5l-6.8,1.3c-2.3,0.4-4.5,0.9-6.8,1.4l-13.5,2.8
		l-13.5,2.8l-6.8,1.4l-6.7,1.5l-26.9,6.2c-4.5,1-8.9,2.2-13.4,3.3l-13.4,3.4l-13.4,3.4l-13.3,3.6c-35.6,9.4-70.8,20.1-105.7,31.7
		c-34.9,11.6-69.5,24.2-103.6,38c-34.1,13.7-67.8,28.5-101,44.5c-16.5,8-33,16.3-49.2,25c-16.2,8.7-32.3,17.7-47.9,27.5
		c0,0-0.1,0-0.1,0C718.7,895.1,718.7,895,718.7,895z"/>
</g>
<g>
	<path class="st1" d="M719.2,811.5c50.1,19.7,80.2,34.2,80.2,34.2"/>
	<path class="st2" d="M719.2,811.4c6.9,2.4,13.6,5,20.4,7.7c6.7,2.7,13.5,5.5,20.2,8.3c6.7,2.9,13.3,5.8,20,8.8
		c6.6,3,13.2,6,19.7,9.3c0.1,0.1,0.1,0.2,0.1,0.3c0,0.1-0.2,0.1-0.3,0.1c-6.6-3-13.3-5.9-19.9-8.8c-6.7-2.9-13.3-5.8-20-8.6
		c-6.7-2.8-13.4-5.7-20.1-8.4c-6.7-2.8-13.4-5.6-20.1-8.5c-0.1,0-0.1-0.1-0.1-0.1C719.1,811.4,719.2,811.3,719.2,811.4z"/>
</g>
<g>
	<path class="st1" d="M11.8,744.7c107.2-42.5,231.7-44.9,349.6-29.3"/>
	<path class="st2" d="M11.8,744.6l20.7-7.8c7-2.3,14.1-4.6,21.1-6.8c7.1-1.9,14.2-4,21.4-5.9l10.8-2.5l5.4-1.3
		c1.8-0.4,3.6-0.9,5.4-1.2c29-5.9,58.4-9.6,87.9-11.5c29.5-1.9,59.1-2,88.6-0.7c29.5,1.4,59,4.1,88.3,8.2c0.1,0,0.2,0.1,0.2,0.2
		c0,0.1-0.1,0.2-0.2,0.2c-29.3-3.7-58.7-6.4-88.2-7.6c-29.5-1.3-59.1-1.2-88.5,0.7c-29.5,1.9-58.8,5.6-87.7,11.5
		c-7.2,1.5-14.4,3.2-21.6,4.8c-7.2,1.8-14.3,3.8-21.4,5.7c-7.1,2.1-14.1,4.4-21.1,6.6l-20.8,7.5c-0.1,0-0.1,0-0.1-0.1
		C11.7,744.7,11.8,744.7,11.8,744.6z"/>
</g>
<g>
	<g>
		<g>
			<g>
				<line class="st1" x1="368.3" y1="818.4" x2="367.2" y2="236"/>
				<path class="st2" d="M368.1,818.4c-0.9-48.5-0.9-97.1-1.1-145.6l-0.4-145.6l-0.1-145.6c0-48.5-0.2-97.1,0.5-145.6l0.5,0
					c0.9,48.5,0.9,97.1,1.1,145.6l0.4,145.6l0.1,145.6c0.1,48.5,0.1,97.1-0.5,145.6L368.1,818.4z"/>
			</g>
			<g>
				<polyline class="st1" points="1152.2,264.7 1152.2,812.6 477,812.6 				"/>
				<path class="st2" d="M1152.4,264.7l0.5,137l0.2,137l0,273.9v1h-1H814.6H645.8c-56.3-0.1-112.5-0.2-168.8-0.8v-0.5
					c56.3-0.6,112.5-0.7,168.8-0.8h168.8h337.6l-1,1l0-273.9l0.2-137l0.5-137H1152.4z"/>
			</g>
			<g>
				<path class="st3" d="M361.5,264.7V220v-29.8c0-26,21.1-47.1,47.1-47.1h696.5c26,0,47.1,21.1,47.1,47.1v74.5H361.5z"/>
			</g>
		</g>
		<g>
			<path class="st5" d="M1191.5,265c-72.4,0.8-144.9,0.8-217.3,0.8H756.8H539.5c-72.4,0-144.9,0-217.3-0.8v-0.5
				c72.4-0.8,144.9-0.8,217.3-0.8h217.3h217.3c72.4,0,144.9,0,217.3,0.8V265z"/>
		</g>
	</g>
	<g>
		<g>
			<polyline class="st2" points="437.7,746 614.3,746 614.3,339.3 437.7,339.3 			"/>
		</g>
		<g>
			<path class="st2" d="M1072.7,403.7H763v-64.4h313v61.1C1076,402.2,1074.5,403.7,1072.7,403.7z"/>
		</g>
		<path class="st6" d="M726.6,401.9h-60.8v-57.5c0-1.8,1.4-3.2,3.2-3.2h57.5V401.9z"/>
		<g>
			<path class="st2" d="M1072.7,746H763V633.7h313v109.1C1076,744.6,1074.5,746,1072.7,746z"/>
		</g>
		<path class="st6" d="M726.6,693.7h-60.8v-57.5c0-1.8,1.4-3.2,3.2-3.2h57.5V693.7z"/>
		<g>
			<path class="st2" d="M1072.7,585.2H763V445h313v137C1076,583.8,1074.5,585.2,1072.7,585.2z"/>
		</g>
		<path class="st7" d="M726.6,505.7h-60.8v-57.5c0-1.8,1.4-3.2,3.2-3.2h57.5V505.7z"/>
		<g>
			<circle class="st1" cx="526" cy="433.9" r="49"/>
		</g>
	</g>
</g>
<path class="st2" d="M1316.7,421.2l-5.5-19.8c-16.3,2.2-23.1-6.8-29.3-21.1c-1.7-4-9.7-3.3-10.3-8.1c-0.8-6.1,8.5-10.4,8.3-22.8
	c-0.1-7,1.3-16.1,7.8-17.4c0,0,31,13.3,46.6,29.8c7,19.2,11.1,28.2,11.1,28.2l8.2,19.6L1316.7,421.2z"/>
<circle class="st1" cx="398.7" cy="286.8" r="8.4"/>
<g>
	<g>
		<path class="st1" d="M421.3,928.7c0,0-16.3-117.9-33.6-134.9c29.2,25,62.3,95,62.3,134.9"/>
		<path class="st2" d="M421.2,928.7c-0.9-5.8-1.8-11.5-2.8-17.3c-0.9-5.8-1.9-11.5-2.9-17.2c-2-11.5-4.2-22.9-6.6-34.3
			c-2.4-11.4-5-22.8-8.1-34c-1.6-5.6-3.3-11.2-5.3-16.6c-1-2.7-2.1-5.4-3.4-8c-1.3-2.6-2.8-5.1-4.7-7.1l0,0c-0.2-0.2-0.2-0.5,0-0.7
			c0.2-0.2,0.5-0.2,0.7,0c4.8,4.2,9.1,8.9,13.1,13.8c4,4.9,7.6,10.1,11.1,15.4c6.9,10.6,12.9,21.8,18.2,33.3
			c5.3,11.5,9.8,23.3,13.4,35.5c3.5,12.1,6.3,24.6,6.3,37.3c0,0.1-0.1,0.2-0.2,0.2c-0.1,0-0.2-0.1-0.2-0.2
			c-0.1-6.3-0.9-12.6-2.1-18.8c-1.2-6.2-2.7-12.3-4.6-18.3c-3.7-12.1-8.3-23.8-13.6-35.3c-5.3-11.4-11.3-22.6-18.2-33.1
			c-3.4-5.3-7.1-10.4-11-15.3c-4-4.9-8.2-9.6-12.9-13.7l0.7-0.7c2.1,2.2,3.6,4.8,4.9,7.4c1.3,2.6,2.4,5.3,3.5,8.1
			c2.1,5.5,3.8,11.1,5.4,16.7c3.1,11.2,5.7,22.6,8.1,34.1c2.3,11.4,4.4,22.9,6.3,34.4c1,5.8,1.9,11.5,2.8,17.3
			c0.9,5.8,1.7,11.5,2.4,17.3c0,0.1,0,0.1-0.1,0.1C421.2,928.8,421.2,928.8,421.2,928.7z"/>
	</g>
	<g>
		<path class="st1" d="M450.5,927.1c0,0,4-92.7-13-108.7c29,23.8,47.8,76.9,43.9,111.1"/>
		<path class="st2" d="M450.4,927.1c0.1-4.6,0.2-9.2,0.2-13.9c0-4.6,0-9.2,0-13.9c-0.1-9.2-0.4-18.5-1-27.7
			c-0.6-9.2-1.4-18.4-3-27.5c-0.8-4.5-1.7-9.1-3.1-13.4c-0.7-2.2-1.5-4.3-2.5-6.4c-1-2-2.2-4-3.8-5.5l0,0c-0.2-0.2-0.2-0.5,0-0.7
			c0.2-0.2,0.5-0.2,0.7,0c8,6.6,14.6,14.7,20.2,23.4c5.6,8.7,10.2,18,13.9,27.6c3.7,9.6,6.5,19.6,8.3,29.7
			c1.8,10.1,2.6,20.5,1.4,30.8c0,0.1-0.1,0.2-0.2,0.2c-0.1,0-0.2-0.1-0.2-0.2l0,0l0.2-3.8c0.1-1.3,0.2-2.6,0.2-3.8l-0.1-3.8l0-1.9
			c0-0.6-0.1-1.3-0.1-1.9c-0.3-5.1-1-10.2-1.9-15.2c-1.9-10.1-4.8-20-8.5-29.5c-3.7-9.6-8.3-18.8-13.8-27.4
			c-5.6-8.6-12.1-16.6-20-23.2l0.7-0.8c1.7,1.7,3,3.7,4,5.8c1,2.1,1.8,4.3,2.5,6.5c1.4,4.4,2.3,9,3.1,13.6c1.5,9.1,2.4,18.4,3,27.6
			c0.5,9.2,0.7,18.5,0.7,27.7c0,9.3-0.2,18.5-0.6,27.7c0,0.1,0,0.1-0.1,0.1C450.4,927.2,450.4,927.1,450.4,927.1z"/>
	</g>
</g>
<path class="st8" d="M283.4,686.5c25.3,48.2,29.4,67.8,25.3,95.5s-31,63.7-31,63.7"/>
<path class="st3" d="M208.9,490.3c-7.1,41.4-8.7,119.5-8.7,119.5l76.7,3.3c0,0,14.7-89.8,6.5-106.1"/>
<path class="st8" d="M293.5,443c6.7,56-19,75.4-27.8,64.3"/>
<path class="st9" d="M298.7,365.6c6.1,4,10.3,9.8,11.3,17.3c1.7,13.3,12.6,16.4,12.7,23c0.1,5.2-8.8,5.7-10,10.3
	c-4.5,16.2-17,27.9-35.2,28.1"/>
<path class="st10" d="M300.5,419.4c2.1,5.3,7.6,7.7,7.6,7.7"/>
<path class="st11" d="M305.5,402.7l-4-0.1c-0.2,0-0.4-0.2-0.4-0.4l0.3-8.1c0-0.2,0.2-0.4,0.4-0.4l4,0.1c0.2,0,0.4,0.2,0.4,0.4
	l-0.3,8.1C305.9,402.6,305.7,402.8,305.5,402.7z"/>
<path class="st11" d="M224.6,469.8c21.8-8.9,66.6,73.2,66.6,73.2l45.3-73.7l25.3,10.2c0,0-23.2,103.7-67.6,108s-79.9-61.7-79.9-61.7
	S196.5,481.3,224.6,469.8z"/>
<path class="st8" d="M204.2,605.6c-20.4,50.6,3.3,340.4,3.3,340.4h58.8c0,0,29.4-278.4,9-337.2"/>
<path class="st12" d="M296.1,363.8c-14.4,12.3-15.7,42.4-18.5,55.5c-3.5,16.8-9,32.1,5.9,33.1"/>
<path class="st8" d="M220.6,443.8c-15.4-33.4,1.4-89.2,37.4-96.4c11.9-2.4,26.6,3.3,33.4,5.7"/>
<polyline class="st12" points="198.5,844 160.2,895.5 207.5,946.1 "/>
<path class="st9" d="M338.1,473c1.3-17.1,9-67.4,17.1-64.1c8.2,3.3,1.6,27.8,4.1,35.9c2.4,8.2,6.1,19.6-0.8,34.3"/>
<path class="st10" d="M361.4,446.1c0,0,4.3-8.7,5.9-6.7c1.6,2-4.5,12.8-4.5,12.8"/>
<path class="st8" d="M248.8,415.3c0,15.4,6.2,28.5,13.1,31.6"/>
<line class="st12" x1="214.9" y1="643.2" x2="231.2" y2="674.2"/>
<path class="st8" d="M227.2,412.1c-10.3,37.5-3.5,90,36.3,83.8"/>
<g>
	<path class="st13" d="M1199.1,583.4l5,53.7c0,0,29.1,75.8,4.9,46.9c31.9,38.1,70.3-9.3,71.1-53.5c0.9-48.9-15.7-82.3-34.9-91.8
		c-10.5-5.3-25.9-0.5-33.7,7.7C1202.4,556.2,1198.1,569.8,1199.1,583.4z"/>
	<path class="st12" d="M1231.3,513.1c-24.7-4.4-32.4,23.3-32.4,23.3"/>
	<path class="st12" d="M1219.2,539.2c-10.2-1.4-31.5-1.4-34.3,11.2c-1.1,4.8,1.1,12.4,6.3,15.9"/>
	<path class="st12" d="M1223.7,527.4c12.8-8.9,27.5-13.3,36.8-4c4,4,2.9,15.1-6.2,21.4"/>
	<path class="st10" d="M1411.9,694.4c-7.4,48.7,76.7,188,76.7,188l-38.6,56c0,0-73.8-106-88.4-149.9"/>
	<polyline class="st10" points="1296.6,756.7 1260.6,944.6 1320.2,951.6 1376.9,729.6 	"/>
	<path class="st7" d="M1341.3,436.3c-42.2,21.7-38.9,88-43.8,117.9c-4.9,29.9-11.9,201.1-11.9,201.1l158.7-6.2
		C1444.3,749,1448.8,381.1,1341.3,436.3z"/>
	<path class="st3" d="M1199.2,767.8l-28,156.4c-0.8,4.7-4.6,8.2-9.3,8.8c-8.2,1.2-19.9,4.6-19.9,14.5c0,2.5,20.7,3.4,36.6,3.8
		c10.5,0.2,19.9-6.5,23-16.5l47.9-152.9"/>
	<path class="st3" d="M1234.8,786.5l86.9,133c2.6,4,2.2,9.1-0.7,12.8c-5.2,6.5-11.4,17-4.5,24.3c1.7,1.8,17.4-11.7,29.2-22.3
		c7.8-7,10-18.4,5.4-27.8L1281,762.4"/>
	<path class="st14" d="M1185.2,448.3l12.7,38.1c3.3,9.9,13.2,16,23.5,14.3l31.8-5C1253.1,495.8,1236.1,431,1185.2,448.3z"/>
	<path class="st10" d="M1292.5,381.1c-1.9,4.9-6.8,7.2-6.8,7.2"/>
	<polygon class="st13" points="1204.1,637.1 1171.6,863.7 1355.6,841.5 1280.2,630.5 	"/>
	<path class="st3" d="M1228.1,552.9c-18.8,7.1-2.5,93.3-2.5,93.3l-17.3,76.3l6.2,1.4c13.6,3.2,27.3-4.9,31.1-18.4l14.9-52.3
		C1260.5,653.3,1260.5,540.6,1228.1,552.9z"/>
	<g>
		<path class="st10" d="M1378.4,480.4c8.6,65.1,13,83.1-12.8,123.9c-12.8,20.2-36.4,45-36.4,45"/>
		<path class="st10" d="M1335.6,506.4c0,0-0.5,27.1,0,39.2"/>
		<line class="st10" x1="1326.3" y1="557.8" x2="1346.8" y2="554.8"/>
		<line class="st10" x1="1318.7" y1="566.4" x2="1330.2" y2="571.8"/>
		<line class="st15" x1="1299.7" y1="614.3" x2="1346.8" y2="670.9"/>
		<line class="st10" x1="1318.7" y1="577" x2="1299.7" y2="614.3"/>
	</g>
	<line class="st10" x1="1323.5" y1="362.2" x2="1266.7" y2="347.8"/>
	<line class="st10" x1="1268.4" y1="338.1" x2="1264.8" y2="358.9"/>
	<path class="st10" d="M1290.4,322c0.9,19.7,33.9,25.8,44,39.8c10.1,14,6.3,26.1,6.3,26.1"/>
	<path class="st10" d="M1302.5,322c9.7-14.4,49.3-13.2,61.9,7.4c15.7,25.6-3,64.6-3,64.6"/>
	<g>
		<polyline class="st16" points="1364.5,405.3 1305.5,424.5 1310.5,442.8 		"/>
		<path class="st10" d="M1287.7,332c-4.9,4.5-8,10.4-7.8,17.4c0.2,12.5-9.1,16.7-8.3,22.8c0.6,4.7,8.6,4.1,10.3,8.1
			c6.1,14.3,12.9,23.3,29.3,21.1l5.5,19.8"/>
	</g>
	<path class="st14" d="M1250.1,459h-18.8v-18.8c0-1,0.8-1.8,1.8-1.8h17c1,0,1.8,0.8,1.8,1.8v17C1251.9,458.2,1251.1,459,1250.1,459z
		"/>
	<path class="st9" d="M1186.4,451.1c-7.6,3.3-10,8.4-10.9,15.3c-1.5,12.4-11.4,15.2-11.4,21.4c-0.1,4.8,7.9,5.3,9.1,9.5
		c4.1,15,15.4,25.9,31.8,26.1"/>
	<path class="st17" d="M1186.4,506.3c-3.5,2.7-7.3,2.7-7.3,2.7"/>
	<path class="st14" d="M1185.2,448.3c-4.6,7.6-9.7,18.1-9.7,18.1l23.5,2.6l-1.3-13.6L1185.2,448.3"/>
	<path class="st11" d="M1183.5,488.1L1183.5,488.1c1.3,0,2.3-1.2,2.2-2.5l-0.1-4c0-1.3-1.1-2.3-2.4-2.3l0,0c-1.3,0-2.3,1.2-2.2,2.5
		l0.1,4C1181.1,487.1,1182.2,488.2,1183.5,488.1z"/>
</g>
<g>
	<circle class="st1" cx="449.2" cy="202.4" r="11.8"/>
	<circle class="st6" cx="510.9" cy="202.4" r="11.8"/>
	<circle class="st6" cx="572.7" cy="202.4" r="11.8"/>
</g>
<path class="st0" d="M1.3,959.4c129.8-3.7,259.7-4.5,389.5-5.4l389.5-0.8c259.7,0.8,519.4,0.3,779,4.9c1.5,0,2.7,1.2,2.6,2.7
	c0,1.4-1.2,2.6-2.6,2.6c-259.7,4.6-519.4,4.1-779,4.9l-389.5-0.8c-129.8-0.9-259.7-1.7-389.5-5.4c-0.7,0-1.3-0.6-1.3-1.4
	C0,960,0.6,959.4,1.3,959.4z"/>
</svg>
