<?xml version="1.0" encoding="utf-8"?>
<!-- Generator: Adobe Illustrator 21.0.0, SVG Export Plug-In . SVG Version: 6.00 Build 0)  -->
<svg version="1.1" id="Layer_3" xmlns="http://www.w3.org/2000/svg" xmlns:xlink="http://www.w3.org/1999/xlink" x="0px" y="0px"
	 viewBox="0 0 1562 968.3" style="enable-background:new 0 0 1562 968.3;" xml:space="preserve">
<style type="text/css">
	.st0{fill:#E9EFF4;}
	.st1{fill:#FFFFFF;}
	.st2{fill:#C8D7E2;}
	.st3{fill:#74DCFC;}
	.st4{fill:#DDF8FF;}
	.st5{fill:#004F81;}
	.st6{fill:#C2F4FF;}
	.st7{fill:#00A9DE;}
	.st8{fill:#004F82;}
	.st9{fill:#004F84;}
</style>
<path class="st0" d="M66.4,216.4c12.4-0.4,24.8-1,37.3-1.2c12.4-0.3,24.8-0.6,37.3-0.7l-2.4,1.8c3.8-12.1,8.8-23.7,15.7-34.4
	c6.9-10.5,15.6-20.9,28-26.2c25.3-11.3,56.6,5.8,62.4,32.6c0.6,3.4,0.8,6.9,0,10.6c-0.8,3.5-2.8,7.3-6.2,9.6
	c-3.3,2.3-7.3,3-10.7,2.9c-3.4-0.1-7.8-0.8-10.8-4.5c-2.9-3.7-2.7-8.4-1.5-11.7c1.1-3.5,3.1-6.5,5.3-9c4.6-5.1,10.5-8.7,16.8-10.8
	c6.3-2.1,13-2.8,19.6-2.1c6.6,0.4,13.4,2.8,18.6,7.4c5.3,4.6,8.3,11,9.8,17.4c1.5,6.5,1.8,12.9,0.9,19.5l-2.5-2.9
	c27,0.2,54,0.7,81.1,1.4c0.6,0,1.1,0.5,1.1,1.2c0,0.6-0.5,1.1-1.1,1.1c-27,0.7-54,1.2-81.1,1.4c-1.4,0-2.5-1.1-2.5-2.5l0-0.3l0-0.2
	c1.1-11.4-1-24.6-9.5-31.8c-4.2-3.5-9.6-5.5-15.4-5.9c-5.7-0.6-11.7,0.1-17.1,1.9c-5.4,1.9-10.4,5-14.1,9.2c-1.8,2.1-3.3,4.4-4,6.8
	c-0.8,2.4-0.6,4.7,0.5,5.9c2,2.7,9.6,2.8,12.9,0.2c3.7-2.5,4.6-8.3,3.4-13.6c-2.2-11-10.4-20.8-20.5-26.2
	c-5.1-2.8-10.7-4.3-16.5-4.9c-5.6-0.1-11.4,0.2-16.6,2.8c-10.7,4.4-18.9,13.9-25.5,23.8c-6.6,10-11.9,21.3-15.8,32.7l0,0.1
	c-0.3,1-1.3,1.7-2.3,1.7c-12.4-0.1-24.8-0.4-37.3-0.7c-12.4-0.2-24.8-0.8-37.3-1.2c-0.3,0-0.6-0.3-0.6-0.6
	C65.9,216.7,66.1,216.4,66.4,216.4z"/>
<g>
	<path class="st1" d="M713.4,892.2c0,0,330.5-215.7,846.4-232.7"/>
	<path class="st2" d="M713,891.8c15.5-10.1,31.4-19.6,47.6-28.5c8.1-4.5,16.2-8.9,24.5-13.1c8.2-4.2,16.4-8.6,24.7-12.6
		c16.7-8,33.2-16.3,50.2-23.7c16.9-7.6,33.7-15.2,51-21.9l25.8-10.3c8.6-3.5,17.4-6.4,26-9.6c17.5-6.1,34.7-13,52.4-18.3
		c17.6-5.6,35.2-11.5,52.9-16.9l53.4-15l13.4-3.7l13.5-3.2l27-6.5c18-4.3,35.9-8.8,54.1-12.1l54.5-10.7c18.2-3.2,36.5-5.7,54.8-8.5
		c36.5-6.1,73.4-8.8,110.2-12.6c9.2-1,18.4-1.9,27.6-2.2l27.7-1.4l55.4-2.5c0.6,0,1.2,0.5,1.2,1.1c0,0.6-0.4,1.2-1.1,1.2l-0.1,0
		l-55.2,3.8c-18.4,1.4-36.9,1.8-55.2,4.3c-36.7,4.3-73.4,7.4-109.8,13.8c-18.2,3-36.5,5.3-54.6,8.6l-54.3,10.7
		c-18.2,3.2-36,7.8-54,12.1l-26.9,6.4l-13.5,3.2l-13.3,3.7l-53.3,15c-17.6,5.4-35.1,11.2-52.7,16.8c-17.7,5.4-34.8,12.2-52.2,18.3
		c-8.6,3.2-17.4,6.1-25.9,9.6l-25.7,10.3c-8.5,3.5-17.2,6.6-25.7,10.3L862,818.4c-17.1,7-33.7,15.1-50.4,22.7
		c-8.4,3.8-16.6,8.1-24.8,12.2c-8.3,4-16.5,8.2-24.6,12.6c-16.4,8.4-32.6,17.3-48.4,26.8c-0.3,0.2-0.6,0.1-0.8-0.2
		C712.7,892.3,712.8,891.9,713,891.8z"/>
</g>
<g>
	<path class="st1" d="M713.8,808.3c50.3,19.7,80.5,34.3,80.5,34.3"/>
	<path class="st2" d="M714,807.8c7.3,1.3,14.3,3.5,21.2,6c6.9,2.5,13.7,5.2,20.4,8.1c13.3,6,26.8,11.7,39.2,19.8
		c0.5,0.3,0.7,1.1,0.3,1.6c-0.3,0.4-0.9,0.6-1.3,0.5c-14-4.5-27.2-10.5-40.7-15.8c-6.7-2.8-13.4-5.7-20-8.7
		c-6.6-3-13.2-6.2-19.4-10.3c-0.3-0.2-0.3-0.5-0.2-0.8C713.5,807.8,713.8,807.8,714,807.8z"/>
</g>
<g>
	<path class="st1" d="M3.8,741.3c107.6-42.7,232.5-45,350.9-29.4"/>
	<path class="st2" d="M3.6,740.8c27-12.4,55.8-21,84.9-27.4c29.2-6.1,58.8-10,88.5-12c59.5-3.4,119.2-0.3,177.9,9.4
		c0.6,0.1,1.1,0.7,1,1.3c-0.1,0.6-0.7,1-1.3,1c-58.9-5.8-118.2-9.2-177.1-5.1c-29.5,1.8-58.8,5.3-87.8,11.1
		c-29,5.5-57.5,13.4-85.6,22.8c-0.3,0.1-0.6-0.1-0.7-0.4C3.2,741.2,3.3,740.9,3.6,740.8z"/>
</g>
<g>
	<g>
		<g>
			<g>
				<line class="st1" x1="361.6" y1="815.3" x2="360.5" y2="230.7"/>
				<path class="st2" d="M360.2,815.3c-4.8-48.7-4.5-97.4-4.9-146.1L354.2,523l0.5-146.2c0.2-48.7-0.3-97.4,4.3-146.2l2.9,0
					c4.8,48.7,4.5,97.4,4.9,146.1l1.1,146.2l-0.5,146.2c-0.2,48.7,0.3,97.4-4.3,146.2L360.2,815.3z"/>
			</g>
			<g>
				<polyline class="st1" points="1148.4,259.6 1148.4,809.4 470.7,809.4 				"/>
				<path class="st2" d="M1149.8,259.6c1.5,45.8,2.3,91.6,3,137.5c0.8,45.8,0.8,91.6,1.2,137.5l0.6,274.9l0,6.2l-6.2,0L979,816.2
					l-169.4-0.4l-169.4-0.5c-56.5-0.6-112.9-1-169.4-4.4V808c56.5-3.3,112.9-3.8,169.4-4.4l169.4-0.5l169.4-0.4l169.4,0.5l-6.2,6.2
					l0.6-274.9c0.4-45.8,0.4-91.6,1.2-137.5c0.7-45.8,1.5-91.6,3-137.5H1149.8z"/>
			</g>
			<g>
				<path class="st3" d="M354.7,259.6v-44.9v-29.9c0-26.1,21.2-47.3,47.3-47.3h699.1c26.1,0,47.3,21.2,47.3,47.3v74.8H354.7z"/>
			</g>
		</g>
		<g>
			<line class="st4" x1="1187.8" y1="259.6" x2="315.3" y2="259.6"/>
			<path class="st5" d="M1187.8,261c-72.7,4.4-145.4,4.3-218.1,4.6l-218.1,0.8l-218.1-0.8c-72.7-0.3-145.4-0.2-218.1-4.6v-2.9
				c72.7-4.4,145.4-4.3,218.1-4.6l218.1-0.8l218.1,0.8c72.7,0.2,145.4,0.2,218.1,4.6V261z"/>
		</g>
	</g>
	<g>
		<g>
			<polyline class="st2" points="431.2,742.6 608.5,742.6 608.5,334.4 431.2,334.4 			"/>
		</g>
		<g>
			<path class="st2" d="M1068.6,399H757.8v-64.6h314.1v61.4C1071.9,397.6,1070.4,399,1068.6,399z"/>
		</g>
		<path class="st6" d="M721.2,397.2h-61v-57.8c0-1.8,1.4-3.2,3.2-3.2h57.8V397.2z"/>
		<g>
			<path class="st2" d="M1068.6,742.6H757.8V629.9h314.1v109.5C1071.9,741.2,1070.4,742.6,1068.6,742.6z"/>
		</g>
		<path class="st6" d="M721.2,690.2h-61v-57.8c0-1.8,1.4-3.2,3.2-3.2h57.8V690.2z"/>
		<g>
			<path class="st2" d="M1068.6,581.2H757.8V440.5h314.1V578C1071.9,579.8,1070.4,581.2,1068.6,581.2z"/>
		</g>
		<path class="st7" d="M721.2,501.5h-61v-57.8c0-1.8,1.4-3.2,3.2-3.2h57.8V501.5z"/>
		<g>
			<circle class="st1" cx="519.8" cy="429.4" r="49.2"/>
		</g>
	</g>
</g>
<path class="st2" d="M1313.5,416.6l-5.6-19.9c-16.4,2.2-23.2-6.8-29.4-21.2c-1.7-4.1-9.7-3.4-10.4-8.1c-0.8-6.2,8.6-10.4,8.3-22.9
	c-0.1-7,1.3-16.2,7.9-17.5c0,0,31.1,13.4,46.8,29.9c7,19.2,11.1,28.3,11.1,28.3l8.2,19.7L1313.5,416.6z"/>
<circle class="st1" cx="392.1" cy="281.7" r="8.5"/>
<g>
	<g>
		<path class="st1" d="M414.7,926c0,0-16.4-118.4-33.7-135.4c29.3,25.1,62.5,95.4,62.5,135.4"/>
		<path class="st2" d="M414.2,926.1c-4.9-22.9-9.1-45.9-14.2-68.7c-2.4-11.4-5.1-22.8-8.3-33.9c-1.6-5.6-3.3-11.1-5.4-16.4
			c-2-5.2-4.4-10.7-7.6-14.1l-0.1-0.2c-1.2-1.3-1.2-3.4,0.2-4.6c1.2-1.2,3.2-1.2,4.4-0.1c9.9,8.8,17.6,19.3,24.6,30.1
			c6.9,10.8,13,22.1,18.3,33.8c5.2,11.7,9.8,23.7,13.2,36c3.4,12.3,5.8,25.1,5.5,38c0,0.6-0.5,1.1-1.2,1.1c-0.6,0-1.1-0.5-1.1-1.1
			l0,0c-0.7-12.5-3.8-24.8-7.6-36.7c-3.9-11.9-8.5-23.6-13.9-35c-5.4-11.3-11.4-22.4-18.3-32.8c-6.9-10.4-14.6-20.4-23.7-28.4
			l4.4-4.8c4.8,5.3,6.8,11,9,16.6c2.1,5.6,3.8,11.3,5.4,17c3.1,11.4,5.7,22.9,8,34.4c2.1,11.6,4.2,23.1,5.8,34.7
			c1.6,11.6,3,23.3,3.9,35c0,0.3-0.2,0.6-0.5,0.6C414.5,926.6,414.2,926.4,414.2,926.1z"/>
	</g>
	<g>
		<path class="st1" d="M444,924.4c0,0,4-93-13-109.1c29.1,23.9,48,77.2,44.1,111.5"/>
		<path class="st2" d="M443.5,924.4c-0.9-18.6-1.3-37.1-2.8-55.5c-0.7-9.2-1.5-18.4-3.1-27.3c-0.8-4.5-1.8-8.9-3.1-13.1
			c-1.3-4.2-3.2-8.3-5.7-10.8l-0.1-0.1c-1.3-1.3-1.3-3.3,0-4.6c1.2-1.2,3.1-1.3,4.4-0.2c8.3,6.9,15,15.3,20.7,24.2
			c5.7,8.9,10.3,18.4,14,28.2c3.6,9.9,6.4,20,8,30.4c1.6,10.3,2,21,0.5,31.3c-0.1,0.6-0.7,1.1-1.3,1c-0.6-0.1-1-0.6-1-1.2
			c0.6-10.2-0.7-20.3-2.7-30.3c-2.1-9.9-5-19.7-8.8-29.1c-7.5-18.7-18.3-36.7-33.4-49.5l4.3-4.9c4,4.2,5.7,9,7.2,13.6
			c1.4,4.7,2.4,9.3,3.1,14c1.5,9.3,2.3,18.7,2.8,28c0.3,9.3,0.5,18.7,0.2,28c-0.3,9.3-0.8,18.6-1.9,27.9c0,0.3-0.3,0.5-0.6,0.5
			C443.7,924.9,443.5,924.6,443.5,924.4z"/>
	</g>
</g>
<g>
	<path class="st1" d="M276.4,682.9c25.4,48.3,29.5,68,25.4,95.9c-4.1,27.9-31.1,63.9-31.1,63.9"/>
	<path class="st3" d="M270.7,845.5c-0.6,0-1.2-0.2-1.7-0.6c-1.3-1-1.5-2.8-0.6-4c0.3-0.4,26.7-35.8,30.6-62.6
		c3.8-25.5,1.1-44.3-25.1-94.1c-0.7-1.4-0.2-3.2,1.2-3.9c1.4-0.7,3.2-0.2,3.9,1.2c24.6,46.8,30.1,67.8,25.7,97.6
		c-4.2,28.3-30.6,63.7-31.7,65.2C272.4,845.2,271.5,845.5,270.7,845.5z"/>
</g>
<path class="st3" d="M201.5,485.9c-7.1,41.5-8.7,119.9-8.7,119.9l77,3.3c0,0,14.8-90.1,6.6-106.5"/>
<g>
	<path class="st1" d="M286.5,438.5c6.8,56.3-19.1,75.7-27.9,64.5"/>
	<path class="st3" d="M264.7,509c-3.3,0-6.2-1.4-8.3-4.1c-1-1.3-0.8-3.1,0.5-4c1.3-1,3.1-0.8,4,0.5c2,2.5,4.7,2.1,6.6,1.3
		c9.1-3.8,21-23.9,16.2-63.7c-0.2-1.6,0.9-3,2.5-3.2c1.6-0.2,3,0.9,3.2,2.5c4.9,40.3-6.8,64.4-19.7,69.7
		C268,508.6,266.3,509,264.7,509z"/>
</g>
<g>
	<path class="st1" d="M291.7,360.9c6.1,4,10.4,9.9,11.3,17.4c1.7,13.4,12.6,16.4,12.7,23.1c0.1,5.2-8.8,5.7-10.1,10.3
		c-4.5,16.3-17.1,28-35.3,28.2"/>
	<path class="st8" d="M270.3,442.8c-1.6,0-2.9-1.3-2.9-2.8c0-1.6,1.3-2.9,2.8-2.9c15.9-0.2,28.1-10,32.6-26.1c0.9-3.3,3.9-5,6.4-6.4
		c2.2-1.2,3.6-2.1,3.6-3.1c0-1.7-1.4-3.3-3.8-5.8c-3.3-3.6-7.8-8.4-8.9-17c-0.8-6.3-4.3-11.6-10-15.3c-1.3-0.9-1.7-2.7-0.8-4
		c0.9-1.3,2.7-1.7,4-0.8c7.2,4.7,11.6,11.4,12.6,19.4c0.9,6.7,4.3,10.5,7.4,13.8c2.7,2.9,5.3,5.7,5.3,9.7c0.1,4.5-3.7,6.6-6.5,8.2
		c-1.6,0.9-3.4,1.9-3.7,2.9C303.3,430.9,288.7,442.5,270.3,442.8C270.3,442.8,270.3,442.8,270.3,442.8z"/>
</g>
<path class="st8" d="M301.1,425.4c-0.4,0-0.8-0.1-1.2-0.2c-0.3-0.1-6.7-3-9.1-9.4c-0.6-1.5,0.2-3.2,1.6-3.7c1.5-0.6,3.2,0.2,3.7,1.6
	c1.6,4.1,6,6.1,6.1,6.2c1.5,0.6,2.1,2.3,1.5,3.8C303.2,424.8,302.2,425.4,301.1,425.4z"/>
<path class="st8" d="M298.5,398.1l-4-0.1c-0.2,0-0.4-0.2-0.4-0.4l0.3-8.1c0-0.2,0.2-0.4,0.4-0.4l4,0.1c0.2,0,0.4,0.2,0.4,0.4
	l-0.3,8.1C299,397.9,298.8,398.1,298.5,398.1z"/>
<path class="st8" d="M217.4,465.4c21.9-8.9,66.8,73.5,66.8,73.5l45.4-74l25.4,10.2c0,0-23.3,104.1-67.9,108.4
	c-44.6,4.3-80.2-62-80.2-62S189.2,476.9,217.4,465.4z"/>
<g>
	<path class="st1" d="M196.9,601.7c-20.5,50.8,3.3,341.7,3.3,341.7h59c0,0,29.5-279.4,9-338.4"/>
	<path class="st3" d="M259.2,946.3h-59c-1.5,0-2.8-1.2-2.9-2.6c-1-11.9-23.6-292.2-3.1-343c0.6-1.5,2.3-2.2,3.8-1.6
		c1.5,0.6,2.2,2.3,1.6,3.8c-19,47,1,308.5,3.3,337.8h53.7c2.9-28.4,27.9-279.9,8.9-334.6c-0.5-1.5,0.3-3.1,1.8-3.7
		c1.5-0.5,3.1,0.3,3.7,1.8c20.5,58.9-7.7,328.2-8.9,339.7C261.9,945.2,260.7,946.3,259.2,946.3z"/>
</g>
<path class="st3" d="M276.5,450.9c-0.1,0-0.1,0-0.2,0c-4.6-0.3-8-1.9-10.1-4.7c-4.3-5.8-2.2-15.3,0.3-26.2c0.4-1.9,0.9-3.8,1.3-5.7
	c0.5-2.6,1-5.9,1.6-9.6c2.4-15.7,5.6-37.2,17.9-47.8c1.2-1,3-0.9,4.1,0.3c1,1.2,0.9,3-0.3,4.1c-10.7,9.2-13.9,30.3-16,44.3
	c-0.6,3.8-1.1,7.2-1.6,9.9c-0.4,2-0.9,3.9-1.3,5.8c-2.1,9.2-4,17.8-1.3,21.5c1.1,1.4,3,2.2,5.9,2.4c1.6,0.1,2.8,1.5,2.7,3.1
	C279.2,449.7,278,450.9,276.5,450.9z"/>
<g>
	<path class="st1" d="M213.4,439.3c-15.5-33.5,1.4-89.5,37.5-96.8c12-2.4,26.7,3.3,33.5,5.7"/>
	<path class="st3" d="M213.4,442.2c-1.1,0-2.1-0.6-2.6-1.7c-9.2-19.9-7.7-48.1,3.6-70.4c8.5-16.7,21.3-27.5,36-30.4
		c11.8-2.4,25.7,2.5,33.3,5.2l1.8,0.6c1.5,0.5,2.3,2.2,1.8,3.7c-0.5,1.5-2.2,2.3-3.7,1.8l-1.8-0.6c-7-2.4-20-7-30.2-4.9
		c-13,2.6-24.4,12.3-32,27.4c-10.5,20.7-11.9,47-3.5,65.3c0.7,1.4,0,3.2-1.4,3.8C214.2,442.1,213.8,442.2,213.4,442.2z"/>
</g>
<path class="st3" d="M200.2,946.3c-0.8,0-1.5-0.3-2.1-0.9l-47.5-50.8c-1-1-1-2.6-0.2-3.7l38.5-51.6c1-1.3,2.8-1.5,4-0.6
	c1.3,1,1.5,2.8,0.6,4l-37.1,49.7l45.9,49c1.1,1.2,1,3-0.1,4.1C201.6,946.1,200.9,946.3,200.2,946.3z"/>
<g>
	<path class="st1" d="M331.3,468.6c1.3-17.2,9-67.6,17.2-64.3s1.6,27.9,4.1,36.1c2.5,8.2,6.1,19.7-0.8,34.4"/>
	<path class="st8" d="M351.8,477.6c-0.4,0-0.8-0.1-1.2-0.3c-1.4-0.7-2.1-2.4-1.4-3.8c6.3-13.4,3.3-23.6,0.8-31.8
		c-1.2-4.1-0.9-9.4-0.5-15.6c0.4-6.9,1.1-17.1-1.7-19c-5,3.7-11.9,40.6-13.6,61.7c-0.1,1.6-1.5,2.7-3.1,2.7
		c-1.6-0.1-2.8-1.5-2.7-3.1c0-0.6,5.8-59.7,16.5-66.3c1.5-0.9,3.1-1.1,4.6-0.5c7.1,2.8,6.4,14,5.7,24.9c-0.3,5.2-0.7,10.5,0.1,13
		c2.6,8.7,6.3,21-1,36.5C353.9,477,352.9,477.6,351.8,477.6z"/>
</g>
<path class="st8" d="M356,450.6c-0.5,0-1-0.1-1.4-0.4c-1.4-0.8-1.9-2.5-1.1-3.9c0.3-0.6,0.7-1.2,1-1.8c-0.4,0-0.7-0.1-1.1-0.3
	c-1.4-0.7-2-2.4-1.3-3.9c4-8.3,6.6-8.5,7.5-8.6c1.3-0.1,2.4,0.4,3.2,1.4c0.8,1,2.8,3.5-4.3,16C358,450.1,357,450.6,356,450.6z"/>
<g>
	<path class="st1" d="M241.6,410.7c0,15.5,6.2,28.6,13.2,31.7"/>
	<path class="st3" d="M254.8,445.3c-0.4,0-0.8-0.1-1.2-0.2c-8.5-3.8-14.9-18.5-14.9-34.4c0-1.6,1.3-2.9,2.9-2.9s2.9,1.3,2.9,2.9
		c0,14.8,5.9,26.7,11.4,29.1c1.5,0.6,2.1,2.4,1.5,3.8C256.9,444.6,255.9,445.3,254.8,445.3z"/>
</g>
<path class="st3" d="M223.9,673.5c-1,0-2-0.6-2.6-1.5L205,640.8c-0.7-1.4-0.2-3.2,1.2-3.9c1.4-0.7,3.2-0.2,3.9,1.2l16.4,31.1
	c0.7,1.4,0.2,3.2-1.2,3.9C224.9,673.4,224.4,673.5,223.9,673.5z"/>
<g>
	<path class="st1" d="M219.9,407.4c-10.3,37.7-3.5,90.3,36.4,84.1"/>
	<path class="st3" d="M250.2,494.9c-9.7,0-17.9-3.6-24.2-10.6c-15.9-17.8-15.7-52.7-8.9-77.7c0.4-1.5,2-2.4,3.5-2
		c1.5,0.4,2.4,2,2,3.5c-6.6,24.3-6.2,56.9,7.6,72.3c6.3,7.1,14.9,9.8,25.5,8.2c1.6-0.2,3,0.8,3.3,2.4c0.2,1.6-0.8,3-2.4,3.3
		C254.5,494.8,252.3,494.9,250.2,494.9z"/>
</g>
<g>
	<g>
		<path class="st1" d="M1195.5,579.4l5,53.9c0,0,29.2,76.1,4.9,47.1c32,38.3,70.5-9.3,71.4-53.7c1-49.1-15.8-82.6-35-92.2
			c-10.6-5.3-26-0.5-33.8,7.8C1198.8,552.1,1194.5,565.8,1195.5,579.4z"/>
		<path class="st7" d="M1230.6,697.3c-6.9,0-15-2.6-23.2-10.6c-1.4-1.3-2.8-2.8-4.1-4.5c-1-1.2-0.9-3,0.4-4.1c1.2-1,3-0.9,4.1,0.4
			c1.3,1.5,2.5,2.9,3.8,4.1c0.3,0.3,0.6,0.5,0.8,0.7c0.1-6.8-7-29.6-14.5-49c-0.1-0.2-0.2-0.5-0.2-0.8l-5-53.9c0,0,0,0,0-0.1
			c-1-14.8,3.8-29.2,13.4-39.3c8.3-8.8,25.3-14.3,37.2-8.4c18.9,9.4,37.6,42.4,36.6,94.8c-0.6,30.6-18.2,61.5-39.2,68.9
			C1237.7,696.6,1234.3,697.3,1230.6,697.3z M1217.2,687.3c6.9,4.4,14.1,5.4,21.4,2.9c18.6-6.5,34.8-35.6,35.3-63.5
			c1-49.8-16.1-80.9-33.4-89.5c-9.5-4.7-23.6,0-30.4,7.2c-8.4,9-12.7,21.7-11.8,34.9l5,53.5C1218.3,671.6,1218.7,683.3,1217.2,687.3
			z"/>
	</g>
	<path class="st3" d="M1195.3,535.2c-0.3,0-0.5,0-0.8-0.1c-1.5-0.4-2.4-2-2-3.5c2.9-10.5,14-29.3,35.8-25.5c1.6,0.3,2.6,1.8,2.3,3.3
		c-0.3,1.6-1.8,2.6-3.3,2.3c-22-3.8-28.9,20.3-29.2,21.3C1197.7,534.3,1196.6,535.2,1195.3,535.2z"/>
	<path class="st3" d="M1187.5,565.2c-0.6,0-1.1-0.2-1.6-0.5c-6.3-4.3-8.9-13.2-7.6-19c3.9-17.4,34.2-13.9,37.6-13.4
		c1.6,0.2,2.7,1.7,2.5,3.2c-0.2,1.6-1.7,2.7-3.2,2.5c-9.8-1.3-29-1.1-31.2,9c-0.9,3.9,1,10.2,5.2,12.9c1.3,0.9,1.7,2.7,0.8,4
		C1189.4,564.7,1188.5,565.2,1187.5,565.2z"/>
	<path class="st3" d="M1250.9,543.6c-0.9,0-1.8-0.4-2.4-1.2c-0.9-1.3-0.6-3.1,0.7-4c4.1-2.8,6.8-7.2,7.2-11.6
		c0.2-2.4-0.3-4.4-1.3-5.5c-10-9.9-26.6-0.3-33.2,4.3c-1.3,0.9-3.1,0.6-4-0.7c-0.9-1.3-0.6-3.1,0.7-4c16.6-11.5,31.4-12.9,40.6-3.7
		c2.3,2.3,3.4,5.9,3,10.1c-0.5,6.1-4.1,12-9.6,15.8C1252,543.4,1251.4,543.6,1250.9,543.6z"/>
	<path class="st8" d="M1447.3,938.7c-0.9,0-1.8-0.5-2.4-1.2c-3-4.4-74.4-107.2-89-151.2c-0.5-1.5,0.3-3.1,1.8-3.6
		c1.5-0.5,3.1,0.3,3.6,1.8c12.9,38.8,73.2,127.7,85.9,146.3l35.3-51.3c-9.8-16.4-83.6-142-76.4-189.1c0.2-1.6,1.7-2.7,3.3-2.4
		c1.6,0.2,2.7,1.7,2.4,3.3c-7.2,47.3,75.8,185.4,76.6,186.8c0.6,1,0.5,2.2-0.1,3.1l-38.7,56.3
		C1449.2,938.3,1448.3,938.7,1447.3,938.7C1447.3,938.7,1447.3,938.7,1447.3,938.7z"/>
	<path class="st8" d="M1317,951.9c-0.1,0-0.2,0-0.3,0l-59.8-7.1c-0.8-0.1-1.5-0.5-2-1.2c-0.5-0.6-0.7-1.5-0.5-2.2l36.2-188.5
		c0.3-1.6,1.8-2.6,3.4-2.3c1.6,0.3,2.6,1.8,2.3,3.4l-35.6,185.5l54.2,6.4l56.3-220.4c0.4-1.5,2-2.5,3.5-2.1c1.5,0.4,2.5,2,2.1,3.5
		l-57,222.9C1319.5,951,1318.3,951.9,1317,951.9z"/>
	<path class="st7" d="M1338.2,431.7c-42.4,21.7-39,88.3-43.9,118.3s-11.9,201.8-11.9,201.8l159.3-6.2
		C1441.6,745.7,1446.1,376.4,1338.2,431.7z"/>
	<path class="st3" d="M1195.6,764.5l-28.1,157c-0.8,4.7-4.6,8.2-9.3,8.9c-8.2,1.2-20,4.6-20,14.6c0,2.5,20.8,3.5,36.7,3.8
		c10.5,0.2,20-6.5,23.1-16.6l48.1-153.5"/>
	<path class="st3" d="M1231.3,783.3l87.2,133.5c2.6,4,2.3,9.1-0.7,12.8c-5.2,6.5-11.4,17.1-4.5,24.4c1.7,1.8,17.5-11.7,29.3-22.4
		c7.8-7.1,10-18.4,5.4-27.9l-70.3-144.6"/>
	<path class="st9" d="M1181.5,443.8l12.7,38.3c3.3,9.9,13.3,16,23.6,14.4l31.9-5C1249.7,491.5,1232.6,426.5,1181.5,443.8z"/>
	<path class="st8" d="M1282.3,386.4c-1.1,0-2.1-0.6-2.6-1.7c-0.7-1.5,0-3.2,1.4-3.8c0,0,4-1.9,5.4-5.6c0.6-1.5,2.2-2.2,3.7-1.7
		c1.5,0.6,2.2,2.2,1.7,3.7c-2.3,6-8.1,8.7-8.4,8.8C1283.1,386.4,1282.7,386.4,1282.3,386.4z"/>
	<g>
		<polygon class="st1" points="1200.5,633.3 1167.9,860.8 1352.6,838.5 1276.9,626.7 		"/>
		<path class="st7" d="M1167.9,863.7c-0.8,0-1.5-0.3-2.1-0.9c-0.6-0.6-0.9-1.5-0.8-2.4l32.6-227.5c0.2-1.3,1.3-2.3,2.6-2.5l76.3-6.7
			c1.3-0.1,2.5,0.7,3,1.9l75.7,211.9c0.3,0.8,0.2,1.7-0.3,2.5c-0.5,0.7-1.2,1.2-2.1,1.3l-184.7,22.3
			C1168.2,863.7,1168,863.7,1167.9,863.7z M1203,636l-31.7,221.5l177.3-21.4l-73.8-206.4L1203,636z"/>
	</g>
	<path class="st3" d="M1224.5,548.8c-18.9,7.1-2.5,93.7-2.5,93.7l-17.4,76.6l6.2,1.4c13.7,3.2,27.4-4.9,31.3-18.4l14.9-52.5
		C1257.1,649.5,1257.1,536.5,1224.5,548.8z"/>
	<g>
		<path class="st8" d="M1326.1,648.4c-0.7,0-1.4-0.3-2-0.8c-1.2-1.1-1.2-2.9-0.1-4.1c0.2-0.2,23.7-25,36.2-44.8
			c23.8-37.6,21.5-54.7,13.9-111.2l-1.5-11.2c-0.2-1.6,0.9-3,2.5-3.2c1.6-0.2,3,0.9,3.2,2.5l1.5,11.2c7.6,56.6,10.2,75.7-14.8,115
			c-12.8,20.3-35.9,44.6-36.9,45.6C1327.6,648.1,1326.8,648.4,1326.1,648.4z"/>
		<path class="st8" d="M1332.5,544.3c-1.5,0-2.8-1.2-2.9-2.8c-0.5-12,0-38.4,0-39.5c0-1.6,1.3-2.9,2.9-2.8c1.6,0,2.9,1.3,2.8,2.9
			c0,0.3-0.5,27.3,0,39.2c0.1,1.6-1.2,2.9-2.8,3C1332.6,544.3,1332.5,544.3,1332.5,544.3z"/>
		<path class="st8" d="M1323.1,556.6c-1.4,0-2.6-1-2.8-2.5c-0.2-1.6,0.9-3,2.4-3.3l20.6-3c1.6-0.2,3,0.9,3.3,2.4
			c0.2,1.6-0.9,3-2.4,3.3l-20.6,3C1323.4,556.6,1323.3,556.6,1323.1,556.6z"/>
		<path class="st8" d="M1327.1,570.6c-0.4,0-0.8-0.1-1.2-0.3l-11.5-5.4c-1.4-0.7-2.1-2.4-1.4-3.8c0.7-1.4,2.4-2.1,3.8-1.4l11.5,5.4
			c1.4,0.7,2.1,2.4,1.4,3.8C1329.2,570,1328.2,570.6,1327.1,570.6z"/>
		<path class="st1" d="M1343.7,670.1c-0.8,0-1.7-0.4-2.2-1l-47.2-56.8c-1-1.2-0.9-3,0.4-4.1s3-0.9,4.1,0.4l47.2,56.8
			c1,1.2,0.9,3-0.4,4.1C1345,669.9,1344.3,670.1,1343.7,670.1z"/>
		<path class="st8" d="M1296.5,613.4c-0.4,0-0.9-0.1-1.3-0.3c-1.4-0.7-2-2.5-1.3-3.9l19.1-37.5c0.7-1.4,2.4-2,3.9-1.3
			c1.4,0.7,2,2.5,1.3,3.9l-19.1,37.5C1298.5,612.8,1297.5,613.4,1296.5,613.4z"/>
	</g>
	<path class="st8" d="M1320.3,360.3c-0.2,0-0.5,0-0.7-0.1l-57-14.5c-1.5-0.4-2.5-2-2.1-3.5c0.4-1.5,2-2.5,3.5-2.1l57,14.5
		c1.5,0.4,2.5,2,2.1,3.5C1322.8,359.4,1321.6,360.3,1320.3,360.3z"/>
	<path class="st8" d="M1261.5,357c-0.2,0-0.3,0-0.5,0c-1.6-0.3-2.6-1.8-2.3-3.3l3.6-20.9c0.3-1.6,1.8-2.6,3.3-2.3
		c1.6,0.3,2.6,1.8,2.3,3.3l-3.6,20.9C1264,356,1262.8,357,1261.5,357z"/>
	<path class="st8" d="M1337.6,386.1c-0.3,0-0.6,0-0.9-0.1c-1.5-0.5-2.4-2.1-1.9-3.6c0.1-0.4,3.2-11.1-5.9-23.7
		c-3.6-5.1-10.9-9.2-18.5-13.5c-12.5-7.1-25.5-14.5-26.2-28c-0.1-1.6,1.2-2.9,2.7-3c1.6-0.1,2.9,1.1,3,2.7
		c0.5,10.3,12.1,16.9,23.2,23.2c8.2,4.7,16,9.1,20.4,15.1c10.8,15,6.9,28.2,6.7,28.8C1339.9,385.3,1338.8,386.1,1337.6,386.1z"/>
	<path class="st8" d="M1358.5,392.2c-0.4,0-0.8-0.1-1.2-0.3c-1.4-0.7-2-2.4-1.4-3.8c0.2-0.4,17.8-38.1,3.1-62.1
		c-5.6-9.2-18.7-15.4-33.3-15.7c-11-0.3-20.5,3-24,8.4c-0.9,1.3-2.7,1.7-4,0.8c-1.3-0.9-1.7-2.7-0.8-4c4.7-7,15.8-11.3,29-10.9
		c13.1,0.3,30,5.3,38.1,18.4c16.4,26.7-2,65.9-2.8,67.6C1360.6,391.6,1359.6,392.2,1358.5,392.2z"/>
	<g>
		<path class="st7" d="M1307.3,441.2c-1.3,0-2.4-0.8-2.8-2.1l-5.1-18.3c-0.4-1.5,0.4-3,1.9-3.5l59.2-19.3c1.5-0.5,3.1,0.3,3.6,1.8
			c0.5,1.5-0.3,3.1-1.8,3.6l-56.6,18.4l4.3,15.7c0.4,1.5-0.5,3.1-2,3.5C1307.8,441.1,1307.6,441.2,1307.3,441.2z"/>
		<path class="st8" d="M1313.5,419.5c-1.3,0-2.4-0.8-2.8-2.1l-4.9-17.5c-17.8,1.3-24.8-11.2-29.9-23.1c-0.3-0.8-2-1.5-3.5-2.1
			c-2.7-1.1-6.5-2.6-7.1-6.8c-0.5-3.7,1.5-6.6,3.5-9.7c2.3-3.4,4.9-7.3,4.8-13.6c-0.1-7.5,2.9-14.3,8.8-19.7c1.2-1.1,3-1,4.1,0.2
			c1.1,1.2,1,3-0.2,4.1c-4.6,4.2-7,9.5-6.9,15.3c0.1,8-3.3,13.1-5.8,16.9c-1.7,2.6-2.8,4.2-2.6,5.7c0.1,0.8,1.4,1.4,3.5,2.2
			c2.4,1,5.4,2.2,6.7,5.1c6.1,14.1,12,21.4,26.3,19.4c1.4-0.2,2.8,0.7,3.2,2.1l5.6,19.9c0.4,1.5-0.5,3.1-2,3.6
			C1314,419.5,1313.8,419.5,1313.5,419.5z"/>
	</g>
	<path class="st9" d="M1246.7,454.6h-18.9v-18.9c0-1,0.8-1.8,1.8-1.8h17.1c1,0,1.8,0.8,1.8,1.8v17.1
		C1248.5,453.8,1247.7,454.6,1246.7,454.6z"/>
	<g>
		<path class="st1" d="M1182.8,446.6c-7.6,3.3-10.1,8.4-11,15.4c-1.6,12.4-11.4,15.2-11.5,21.5c-0.1,4.8,7.9,5.3,9.1,9.6
			c4.1,15.1,15.4,26,31.9,26.2"/>
		<path class="st8" d="M1201.4,522.1C1201.4,522.1,1201.3,522.1,1201.4,522.1c-16.8-0.2-30.1-11.1-34.7-28.3
			c-0.2-0.8-1.8-1.8-3.2-2.6c-2.6-1.5-6.1-3.5-6-7.8c0-3.8,2.4-6.4,4.8-9.1c2.8-3.1,5.9-6.5,6.7-12.7c0.8-6.3,2.9-13.4,12.7-17.7
			c1.5-0.6,3.2,0,3.8,1.5c0.6,1.5,0,3.2-1.5,3.8c-6.7,3-8.5,7.2-9.3,13.1c-1,8-5.1,12.5-8.1,15.8c-2.1,2.4-3.3,3.8-3.4,5.3
			c0,0.8,1.2,1.6,3.1,2.7c2.2,1.3,5,2.9,5.9,6c4,14.9,14.9,23.9,29.2,24c1.6,0,2.9,1.3,2.8,2.9
			C1204.2,520.8,1202.9,522.1,1201.4,522.1z"/>
	</g>
	<path class="st8" d="M1175.4,507.8c-1.8,0-3.2-1.4-3.2-3.2c0-1.8,1.4-3.2,3.2-3.2c0,0,2.8-0.1,5.4-2c1.4-1.1,3.4-0.8,4.5,0.6
		c1.1,1.4,0.8,3.4-0.6,4.5C1180.4,507.8,1175.9,507.8,1175.4,507.8z"/>
	<path class="st9" d="M1181.5,443.8c-4.6,7.6-9.7,18.2-9.7,18.2l23.5,2.6l-1.3-13.6L1181.5,443.8"/>
	<path class="st8" d="M1179.8,483.8L1179.8,483.8c1.3,0,2.3-1.2,2.3-2.5l-0.1-4.1c0-1.3-1.1-2.4-2.4-2.3l0,0c-1.3,0-2.3,1.2-2.3,2.5
		l0.1,4.1C1177.4,482.8,1178.5,483.8,1179.8,483.8z"/>
</g>
<g>
	<circle class="st1" cx="442.8" cy="197" r="11.8"/>
	<circle class="st6" cx="504.8" cy="197" r="11.8"/>
	<circle class="st6" cx="566.7" cy="197" r="11.8"/>
</g>
<path class="st0" d="M1.3,959.4c129.8-3.7,259.7-4.5,389.5-5.4l389.5-0.8c259.7,0.8,519.4,0.3,779,4.9c1.5,0,2.7,1.2,2.6,2.7
	c0,1.4-1.2,2.6-2.6,2.6c-259.7,4.6-519.4,4.1-779,4.9l-389.5-0.8c-129.8-0.9-259.7-1.7-389.5-5.4c-0.7,0-1.3-0.6-1.3-1.4
	C0,960,0.6,959.4,1.3,959.4z"/>
</svg>
