<?xml version="1.0" encoding="utf-8"?>
<!-- Generator: Adobe Illustrator 17.0.0, SVG Export Plug-In . SVG Version: 6.00 Build 0)  -->
<!DOCTYPE svg PUBLIC "-//W3C//DTD SVG 1.1//EN" "http://www.w3.org/Graphics/SVG/1.1/DTD/svg11.dtd">
<svg version="1.1" id="Layer_1" xmlns="http://www.w3.org/2000/svg" xmlns:xlink="http://www.w3.org/1999/xlink" x="0px" y="0px"
	 width="50.076px" height="224px" viewBox="0 0 50.076 224" enable-background="new 0 0 50.076 224" xml:space="preserve">
<path fill="#F9F9FA" d="M27.029,84.532v-9.583l9.151-5.073v-1.691v-1.466l-3.292-2.114h-1.792v3.58h-4.067v-7.329l-3.502-3.833V0
	l-8.445,27.397l4.223,6.342l-4.392,6.342H0v23.423l7.456-9.217l4.702,0.93l-4.194,5.243v6.68L3.982,62.66L0,67.141v21.478
	l3.474,4.482v4.397l4.491,8.625v-21.59l5.847-2.932v4.284l-4.632,4.623l13.557,28.412l-4.18,11.162l6.779,11.725l-3.898,2.368
	l5.592,13.642V98.851l10.845-5.75v14.995l-2.009,0.783l-2.736-2.249v13.868l8.586-13.078l8.361-22.887H27.029z M2.711,49.975v-7.272
	h5.253L2.711,49.975z"/>
<path fill="#F9F9FA" d="M7.167,163.342l-1.942-42.844h3.883L7.167,163.342z"/>
<path fill="#F9F9FA" d="M35.256,175.068l-1.942-33.147h3.884L35.256,175.068z"/>
<path fill="#F9F9FA" d="M18.522,224l-1.942-64.078h3.883L18.522,224z"/>
</svg>
