<svg width="183" height="104" viewBox="0 0 183 104" xmlns="http://www.w3.org/2000/svg"><title>security &amp; backups image</title><g fill="none"><path d="M.304 99.6c11.032-.556 22.064-.67 33.107-.817l16.553-.102 16.554-.023 33.107.159c11.031.102 22.063.215 33.106.578.226 0 .406.182.406.409 0 .227-.18.408-.406.408-11.031.363-22.063.476-33.106.578l-33.107.16-16.554-.024-16.564-.102c-11.032-.147-22.064-.26-33.107-.816a.203.203 0 0 1-.203-.204c0-.114.102-.204.214-.204zm152.463 0c2.49-.533 4.98-.726 7.47-.817l3.73-.102 3.73-.023c2.49.023 4.981.08 7.471.159 2.49.08 4.981.227 7.471.59a.405.405 0 0 1 .35.453.408.408 0 0 1-.35.352c-2.49.352-4.98.499-7.47.59-2.49.09-4.981.124-7.472.159l-3.73-.023-3.73-.102c-2.49-.091-4.98-.284-7.47-.817a.209.209 0 0 1-.158-.25c.011-.09.068-.147.158-.17z" fill="#E3EAF0"/><path fill="#B6F1FF" d="M46.144 82.769V24.962h70.124V82.77H49.942"/><path fill="#65D3FA" d="M46.144 24.667v-13.53h98.171v13.53H51.452"/><path fill="#74DCFC" d="M144.315 25.246l.902 57.319-28.949.147V25.246h28.047"/><path fill="#FFF" d="M102.487 82.712h-48.23v-32.13h53.109v32.13m0-35.759H54.258V33.82h53.108v13.133"/><path d="M96.052 41.623a7.734 7.734 0 0 0-2.084.839 39.98 39.98 0 0 0-1.905 1.123c-.45.295-.901.6-1.352.907a63.5 63.5 0 0 0 1.307-1.633 35.44 35.44 0 0 0 1.42-1.996 9.504 9.504 0 0 0 1.15-2.2c.022-.057-.012-.114-.068-.137-.034-.01-.068-.01-.09.012a9.52 9.52 0 0 0-1.792 1.712 35.364 35.364 0 0 0-1.521 1.917 69.46 69.46 0 0 0-1.319 1.86 66.45 66.45 0 0 0 .665-2.155 40.4 40.4 0 0 0 .586-2.37 9.522 9.522 0 0 0 .26-2.461.096.096 0 0 0-.046-.08.106.106 0 0 0-.146.023 9.66 9.66 0 0 0-1.037 2.246 39.98 39.98 0 0 0-.71 2.336c-.157.601-.293 1.202-.44 1.792a48.917 48.917 0 0 0-.112-2.223c-.068-.873-.169-1.747-.26-2.609a20.235 20.235 0 0 0-.472-2.597.206.206 0 0 0-.248-.147c-.08.023-.147.09-.147.181a17.222 17.222 0 0 0-.101 2.643c.022.873.056 1.746.113 2.62.056.873.146 1.746.247 2.608v.034a29.443 29.443 0 0 0-.755-1.599c-.338-.646-.687-1.27-1.036-1.905a12.372 12.372 0 0 0-1.229-1.803.2.2 0 0 0-.293-.023c-.056.045-.09.136-.067.204.18.714.417 1.406.71 2.075.293.658.586 1.327.901 1.974.158.317.316.624.485.93-.507-.533-1.014-1.066-1.544-1.577a100.06 100.06 0 0 0-2.006-1.87 19.574 19.574 0 0 0-2.152-1.713c-.09-.069-.225-.035-.282.056a.207.207 0 0 0 0 .227 19.69 19.69 0 0 0 1.747 2.132c.62.67 1.262 1.327 1.904 1.985.643.646 1.319 1.27 1.995 1.883l.067.056c-.405-.181-.81-.363-1.217-.533a52.48 52.48 0 0 0-1.87-.68 9.6 9.6 0 0 0-1.95-.477.221.221 0 0 0-.236.182.206.206 0 0 0 .079.193c.54.397 1.115.737 1.724 1.02.597.284 1.194.556 1.803.817.608.26 1.228.476 1.859.692.608.215 1.24.34 1.882.374.011.023.034.034.056.045.056.046.124.046.192.035a13.64 13.64 0 0 0 2.028-.93 64.694 64.694 0 0 0 1.916-1.112c.63-.386 1.24-.805 1.836-1.236a8.15 8.15 0 0 0 1.657-1.52c.022-.023.022-.057.022-.09-.022-.035-.067-.057-.124-.057z" fill="#BBCDDA"/><path d="M147.64 24.928c-8.7.862-17.41.85-26.12.953l-26.121.283-26.132.012c-8.71 0-17.42.113-26.131-.658v-.499c8.699-.862 17.41-.85 26.12-.953l26.12-.283 26.132-.012c8.71 0 17.421-.113 26.132.658v.5z" fill="#0E6FB1"/><path d="M77.324 70.033a11.696 11.696 0 0 0-2.907 2.245l.27-1.122c.406-1.736 1.026-3.414 1.59-5.127l-.35-.204a9.572 9.572 0 0 0-1.42 2.404 19.305 19.305 0 0 0-.924 2.643 16.414 16.414 0 0 0-.484 2.756c-.023.26-.045.522-.045.782-.237.636-.305 1.361-.068 2.008h.203l.056-.125c.011.045.011.08.023.125h.202c.147-.454.27-.907.372-1.372.057-.102.113-.216.17-.318a9.682 9.682 0 0 1 1.047-1.474c.395-.477.823-.93 1.285-1.395.462-.465.913-.942 1.273-1.543l-.293-.283zm24.622-10.412c-.462-.862-1.341-1.984-2.84-2.483a5.531 5.531 0 0 0-2.017-.273c.293-.362.597-.725.913-1.077l-.282-.295a17.58 17.58 0 0 0-1.668 1.52 6.235 6.235 0 0 0-1.42.51c-.157-1.02-.608-2.313-1.802-3.277a5.614 5.614 0 0 0-2.941-1.191 2.06 2.06 0 0 0-2.277 1.837 1.89 1.89 0 0 0 .068.794 5.188 5.188 0 0 0 1.78 2.733 5.777 5.777 0 0 0 3.618 1.282c.293 0 .574-.023.856-.068a22.6 22.6 0 0 0-2.468 4.82l-.079.068c-.169-1.01-.72-2.801-2.479-3.822a5.7 5.7 0 0 0-3.55-.692 1.845 1.845 0 0 0-1.6 2.053c.012.136.046.272.09.397a5.326 5.326 0 0 0 2.345 2.88 5.75 5.75 0 0 0 4.53.545c.045.068.1.17.18.272a30.095 30.095 0 0 0-.98 5.092c-.248-.578-1.353-2.846-3.877-3.3a5.81 5.81 0 0 0-3.572.544 1.85 1.85 0 0 0-.823 2.473c.057.124.136.238.214.34a5.265 5.265 0 0 0 3.167 1.928c.35.068.71.102 1.06.102 1.171 0 2.31-.363 3.267-1.032l-.124.159.18.295c.102.158.214.317.338.465a27.2 27.2 0 0 0 .18 4.593h.204c.169-1.259.304-2.518.45-3.765a5.202 5.202 0 0 0 3.358 1.236h.012a5.736 5.736 0 0 0 3.301-1.044c.462-.317.755-.839.8-1.406a1.82 1.82 0 0 0-.586-1.486c-.71-.669-1.882-1.451-3.46-1.451h-.01a5.637 5.637 0 0 0-2.975.884c.203-1.213.45-2.404.755-3.584a5.144 5.144 0 0 0 3.144 1.407c.157.011.315.022.473.022a5.853 5.853 0 0 0 2.907-.782c.485-.284.823-.771.913-1.338a1.824 1.824 0 0 0-.462-1.532c-.654-.725-1.758-1.61-3.336-1.735a5.347 5.347 0 0 0-2.456.363 22.746 22.746 0 0 1 1.499-3.017c.067-.124.146-.25.225-.385a5.19 5.19 0 0 0 2.66 2.019 5.86 5.86 0 0 0 1.825.294c.552 0 1.104-.079 1.622-.238a1.86 1.86 0 0 0 1.195-1.077c.26-.5.225-1.089-.045-1.577zM86.71 64.464c-.89-.522-1.533-1.304-1.904-2.348a.85.85 0 0 1 .687-1.111c.203-.023.406-.034.62-.034a4.564 4.564 0 0 1 2.31.601c1.543.896 1.927 2.609 2.028 3.346a4.662 4.662 0 0 1-3.741-.454zm-1.476 7.78c-1.014-.181-1.87-.714-2.57-1.576a.822.822 0 0 1 .124-1.168c.046-.034.102-.068.147-.102a5.005 5.005 0 0 1 2.175-.533c.259 0 .518.022.777.068 1.747.317 2.682 1.803 3.02 2.472a4.724 4.724 0 0 1-3.673.84zm8.8-1.327c1.262 0 2.209.647 2.784 1.18a.847.847 0 0 1-.102 1.327c-.8.567-1.758.862-2.738.862h-.011c-1.567 0-2.637-.85-3.2-1.463.022-.204.056-.409.078-.613.62-.555 1.713-1.281 3.19-1.293zm1.33-6.657c1.25.102 2.152.817 2.682 1.406a.857.857 0 0 1 .214.692.853.853 0 0 1-.417.613 4.74 4.74 0 0 1-2.794.635 4.353 4.353 0 0 1-2.919-1.52l.023-.08c.101-.328.202-.669.315-.997a4.814 4.814 0 0 1 2.896-.749zm-1.656-5.591a4.774 4.774 0 0 1-3.629-1.021 4.297 4.297 0 0 1-1.442-2.212 1.067 1.067 0 0 1 .732-1.315c.09-.023.192-.046.282-.046.045 0 .079 0 .124.012a4.56 4.56 0 0 1 2.423.975c1.408 1.1 1.532 2.858 1.51 3.607zm7.403 2.155a.865.865 0 0 1-.552.499 4.657 4.657 0 0 1-2.862-.057 4.27 4.27 0 0 1-2.378-1.996c.282-.42.575-.84.879-1.248a4.622 4.622 0 0 1 2.603.068c1.194.397 1.893 1.316 2.276 2.008a.863.863 0 0 1 .034.726z" fill="#BBCDDA"/><path d="M153.736 48.847s-7.663 9.55-20.903 8.415c0 0-7.077 38.187 21.76 46.386 0 0 28.114-3.924 22.491-46.386 0 0-15.911 1.237-23.348-8.415z" fill="#00BE28"/><path d="M178.2 57.126a.998.998 0 0 0-.992-.862h-.011c-2.119 0-4.226-.17-6.31-.51a38.177 38.177 0 0 1-6.164-1.497 26.328 26.328 0 0 1-5.68-2.688 18.244 18.244 0 0 1-4.597-4.14.648.648 0 0 0-.124-.124.907.907 0 0 0-1.285.102l-.011.011c-1.228 1.44-2.75 2.801-4.316 3.98a28.035 28.035 0 0 1-5.082 3.006 24.382 24.382 0 0 1-5.6 1.77 23.046 23.046 0 0 1-5.86.317h-.045a.752.752 0 0 0-.789.647c-.721 4.752-.868 9.504-.552 14.256.338 4.74 1.194 9.47 2.885 13.938 1.69 4.469 4.26 8.63 7.752 11.875 3.482 3.277 7.832 5.477 12.373 6.702a.247.247 0 0 0 .09.012h.012c2.467-.091 4.856-.794 7.11-1.781 2.231-1.032 4.372-2.336 6.231-3.98 3.775-3.233 6.705-7.43 8.576-12.023 1.972-4.57 2.772-9.515 3.099-14.392.281-4.922-.034-9.81-.71-14.619zm-1.5 14.45c-.213 2.347-.461 4.683-1.002 6.963-.214 1.157-.563 2.268-.845 3.402-.36 1.1-.676 2.234-1.138 3.3-1.68 4.333-4.35 8.257-7.798 11.32-3.482 3.016-7.572 5.307-12.035 6.815-4.417-1.338-8.564-3.595-11.854-6.816-3.313-3.22-5.725-7.304-7.257-11.659-1.555-4.366-2.344-8.982-2.614-13.62a64.623 64.623 0 0 1 .608-13.19c1.86.113 3.719.022 5.556-.284a24.927 24.927 0 0 0 6.017-1.826 30.085 30.085 0 0 0 5.42-3.153 29.301 29.301 0 0 0 3.944-3.448 20.58 20.58 0 0 0 4.35 3.754 28.501 28.501 0 0 0 6.062 2.926 39.707 39.707 0 0 0 6.468 1.622c1.905.318 3.82.51 5.758.567.474 4.435.688 8.903.36 13.326z" fill="#073C6E"/><path fill="#00BE28" d="M145.307 78.323l7.426 5.943 15.1-17.182"/><path d="M168.058 66.914a.337.337 0 0 0-.473-.057c-1.499 1.214-2.874 2.552-4.203 3.913-1.33 1.36-2.603 2.79-3.877 4.208a748.74 748.74 0 0 0-6.907 7.734c-.97-.76-1.95-1.497-2.919-2.257l-1.882-1.451c-.653-.454-1.172-1.078-2.073-1.214a.733.733 0 0 0-.383.046.78.78 0 0 0-.44 1.009c.327.862 1.048 1.225 1.634 1.77l1.826 1.519c1.228 1.01 2.434 2.041 3.673 3.017l.012.011a1.117 1.117 0 0 0 1.532-.147 774.054 774.054 0 0 0 7.494-8.642c1.24-1.452 2.49-2.881 3.673-4.378 1.183-1.497 2.333-3.028 3.347-4.673a.381.381 0 0 0-.034-.408z" fill="#073C6E"/><path d="M137.227 99.724a659.15 659.15 0 0 0-14.964-.465c-4.992-.136-9.973-.181-14.965-.227-9.972-.136-19.945-.079-29.929-.124L47.44 98.84l-14.964-.034-3.741-.012c-.688.012-1.07-.011-1.555-.136a3.842 3.842 0 0 1-1.285-.612 3.958 3.958 0 0 1-1.521-2.36 5.132 5.132 0 0 1-.08-.714V93.34l52.906-.125 4.767-.01v2.403c0 .261.214.465.462.465h24.452c.26 0 .462-.215.462-.465v-2.563a784.38 784.38 0 0 0 10.401-.204 598.27 598.27 0 0 0 13.522-.43.254.254 0 0 0 .237-.273.265.265 0 0 0-.237-.238c-4.507-.182-9.014-.34-13.522-.431-4.507-.102-9.015-.204-13.522-.227-9.015-.113-18.03-.125-27.044-.136L23.1 90.98c-.642 0-1.172.522-1.172 1.168v2.836c0 .385.046.77.113 1.156a6.238 6.238 0 0 0 4.519 4.798c.721.204 1.6.215 2.152.204l3.741-.011 14.965-.034 29.929-.068c9.972-.046 19.945.01 29.929-.125 4.992-.046 9.972-.09 14.964-.227 4.992-.09 9.973-.25 14.965-.465a.254.254 0 0 0 .237-.272.265.265 0 0 0-.237-.238l.022.022zM153.758.329L128.021.193 102.295.17 50.855.125 44.42.113c-.552 0-1.036-.01-1.645.012a7.628 7.628 0 0 0-1.825.26 8.38 8.38 0 0 0-3.268 1.668c-1.893 1.576-3.065 4.049-3.031 6.521l-.012 6.476-.022 25.892.045 50.05h2.152l.045-50.05-.022-25.892.01-6.476c-.022-2.858 1.894-5.364 4.644-6.068.439-.113.89-.181 1.352-.192.473-.023 1.059-.012 1.577-.012l6.435-.011 51.44-.045 25.726-.023 24.858-.125.192 19.723.146 10.298.18 10.298c.035.181.204.317.384.283a.336.336 0 0 0 .282-.283l.18-10.298.146-10.298.203-20.596a.849.849 0 0 0-.834-.896z" fill="#BBCDDA"/><path d="M54.258 78.81c13.578-5.647 42.91-1.95 52.545 4.061l-52.545-.17v-3.89z" fill="#1397D5"/></g></svg>