<svg viewBox="0 0 228 130" fill="none" xmlns="http://www.w3.org/2000/svg">
<path d="M0.24918 124.25C13.9541 123.5 27.7836 123.375 41.4885 123.25L62.1705 123.125H82.8525L124.092 123.375C137.797 123.5 151.626 123.625 165.331 124.125C165.58 124.125 165.829 124.375 165.829 124.625C165.829 124.875 165.58 125.125 165.331 125.125C151.626 125.625 137.797 125.75 124.092 125.875L82.8525 126.125H62.1705L41.4885 126C27.7836 125.875 13.9541 125.625 0.24918 125C0.12459 125 0 124.875 0 124.75C0 124.375 0.12459 124.25 0.24918 124.25ZM190.249 124.25C193.364 123.625 196.479 123.375 199.593 123.25L204.203 123.125H208.813C211.928 123.125 215.043 123.25 218.157 123.375C221.272 123.5 224.387 123.625 227.502 124.125C227.751 124.125 228 124.375 228 124.75C228 125 227.751 125.125 227.502 125.25C224.387 125.75 221.272 125.875 218.157 126C215.043 126.125 211.928 126.125 208.813 126.25H204.203L199.593 126.125C196.479 126 193.364 125.75 190.249 125.125C190.125 125.125 190 125 190 124.875C190 124.375 190.125 124.25 190.249 124.25Z" fill="#5198D9"/>
<path d="M57.3115 103.25V31H144.649V103.25H62.0459" fill="#EFF3F7"/>
<path d="M179.659 31.25L180.78 102.875L144.774 103V31.25H179.659Z" fill="#C6DEF6"/>
<path d="M57.3115 30.625V13.625H179.659V30.5H64.0393" fill="#C6DEF6"/>
<path d="M127.58 103.125H67.5279V63H133.685V103.125H127.58ZM133.685 58.5H67.5279V42H133.685V58.5Z" fill="white"/>
<path d="M119.607 51.75C118.734 52 117.862 52.375 116.99 52.75C116.243 53.25 115.37 53.625 114.623 54.125C114.125 54.5 113.502 54.875 112.879 55.25C113.377 54.625 114 53.875 114.498 53.25C115.121 52.5 115.744 51.625 116.243 50.75C116.866 49.875 117.364 49 117.738 48C117.738 47.875 117.738 47.875 117.613 47.875H117.489C116.616 48.5 115.869 49.25 115.246 50C114.623 50.75 114 51.625 113.377 52.375C112.879 53.125 112.256 53.875 111.757 54.75C112.007 53.875 112.38 53 112.629 52L113.377 49C113.626 48 113.751 47 113.751 45.875V45.75H113.626C113.128 46.625 112.629 47.625 112.38 48.5C112.007 49.5 111.757 50.5 111.508 51.375C111.259 52.125 111.134 52.875 111.01 53.625C111.01 52.75 110.885 51.75 110.885 50.875C110.761 49.75 110.636 48.75 110.511 47.625C110.387 46.5 110.138 45.5 109.889 44.375C109.889 44.25 109.764 44.125 109.639 44.25C109.515 44.25 109.515 44.375 109.515 44.5C109.39 45.625 109.39 46.75 109.39 47.75C109.39 48.875 109.515 49.875 109.515 51C109.639 52.125 109.639 53.125 109.764 54.25C109.515 53.625 109.141 52.875 108.767 52.25C108.393 51.5 107.895 50.625 107.521 49.875L106.026 47.625C105.902 47.5 105.777 47.5 105.652 47.625C105.528 47.625 105.528 47.75 105.528 47.875C105.777 48.75 106.026 49.625 106.4 50.5C106.774 51.375 107.148 52.125 107.521 53C107.77 53.375 107.895 53.75 108.144 54.125C107.521 53.5 106.898 52.75 106.275 52.125C105.403 51.375 104.656 50.5 103.784 49.75C102.911 49 102.039 48.25 101.043 47.625C100.918 47.5 100.793 47.625 100.669 47.75V48C101.292 49 102.039 49.875 102.787 50.625C103.534 51.5 104.407 52.25 105.154 53.125C105.902 53.875 106.774 54.75 107.646 55.5L107.77 55.625C107.272 55.375 106.774 55.125 106.275 55C105.528 54.75 104.78 54.375 103.908 54.125C103.161 53.875 102.289 53.625 101.541 53.5C101.416 53.5 101.292 53.625 101.292 53.75C101.292 53.875 101.292 53.875 101.416 54C102.039 54.5 102.787 54.875 103.534 55.25C104.282 55.625 105.029 56 105.777 56.25C106.525 56.625 107.272 56.875 108.144 57.125C108.892 57.375 109.639 57.5 110.511 57.625H110.885C111.757 57.25 112.629 56.875 113.377 56.5C114.125 56 114.997 55.625 115.744 55.125L117.987 53.625C118.734 53.125 119.482 52.5 120.105 51.75V51.625C119.731 51.75 119.607 51.75 119.607 51.75Z" fill="#64CA43"/>
<path d="M183.77 30.8751C172.931 32.0001 162.092 32.0001 151.252 32.1251L118.734 32.5001H86.2164C75.377 32.5001 64.5377 32.6251 53.6983 31.6251V31.0001C64.5377 29.8751 75.377 29.8751 86.2164 29.7501L118.734 29.3751H151.252C162.092 29.3751 172.931 29.2501 183.77 30.2501V30.8751Z" fill="#5198D9"/>
<path d="M96.1836 87.25C94.8131 88 93.5672 88.875 92.5705 90L92.9442 88.625C93.4426 86.5 94.1901 84.375 94.9377 82.25L94.5639 82.0001C93.8164 82.8751 93.1934 83.875 92.8196 85C92.3213 86.125 91.9475 87.1251 91.6983 88.2501C91.4492 89.3751 91.2 90.5 91.0754 91.75V92.7501C90.8262 93.5001 90.7016 94.5001 90.9508 95.2501H91.2L91.3246 95.1251V95.2501H91.5737C91.6983 94.6251 91.9475 94.125 92.0721 93.5C92.1967 93.375 92.1967 93.25 92.3213 93.125C92.6951 92.5 93.1934 91.875 93.5672 91.25C94.0655 90.625 94.5639 90.1251 95.1869 89.5001C95.8098 88.8751 96.3082 88.3751 96.8065 87.6251C96.5574 87.6251 96.1836 87.25 96.1836 87.25ZM126.833 74.25C126.21 73.125 125.213 71.75 123.344 71.125C122.597 70.875 121.725 70.75 120.852 70.75C121.226 70.25 121.6 69.8751 121.974 69.3751L121.6 69.0001C120.852 69.6251 120.229 70.2501 119.482 70.8751C118.859 71.0001 118.236 71.2501 117.738 71.5001C117.489 70.2501 116.99 68.625 115.495 67.375C114.498 66.5 113.128 66.0001 111.882 65.8751C110.511 65.7501 109.266 66.75 109.016 68.1251C109.016 68.5001 109.016 68.75 109.141 69.125C109.515 70.5 110.262 71.6251 111.384 72.5C112.629 73.5001 114.249 74.125 115.869 74.125C116.243 74.125 116.616 74.1251 116.99 74.0001C115.744 75.8751 114.748 77.875 113.875 80L113.751 80.1251C113.502 78.8751 112.879 76.625 110.636 75.375C109.266 74.625 107.77 74.25 106.151 74.5C104.905 74.625 104.033 75.7501 104.157 77.1251C104.157 77.2501 104.157 77.5 104.282 77.625C104.78 79.125 105.777 80.375 107.148 81.25C108.892 82.25 110.885 82.5 112.754 81.875C112.754 82 112.879 82.125 113.003 82.25C112.38 84.375 112.007 86.5 111.757 88.625C111.508 87.875 110.013 85.1251 106.898 84.5001C105.403 84.2501 103.784 84.5001 102.413 85.1251C101.292 85.7501 100.793 87.1251 101.416 88.2501C101.541 88.3751 101.541 88.5 101.666 88.625C102.662 89.875 104.033 90.75 105.652 91C106.026 91.125 106.525 91.125 107.023 91.125C108.518 91.125 109.889 90.625 111.134 89.875L111.01 90.1251L111.259 90.5C111.384 90.75 111.508 90.875 111.633 91.125C111.508 93 111.633 95 111.882 96.875H112.131C112.38 95.25 112.505 93.7501 112.629 92.1251C113.751 93.1251 115.246 93.625 116.866 93.625C118.361 93.625 119.731 93.125 120.977 92.375C121.6 92 121.974 91.375 121.974 90.625C121.974 89.875 121.725 89.25 121.226 88.75C120.354 87.875 118.859 86.875 116.866 86.875C115.495 86.875 114.249 87.25 113.128 88C113.377 86.5 113.626 85 114.125 83.5C115.246 84.5 116.616 85.1251 117.987 85.2501H118.61C119.856 85.2501 121.102 84.875 122.223 84.25C122.846 83.875 123.22 83.2501 123.344 82.6251C123.469 81.8751 123.22 81.2501 122.721 80.7501C121.849 79.8751 120.479 78.75 118.61 78.625C117.613 78.5 116.492 78.75 115.495 79.125C115.993 77.875 116.616 76.625 117.364 75.375C117.489 75.25 117.489 75.125 117.613 74.875C118.361 76 119.607 77 120.977 77.375C121.725 77.625 122.472 77.7501 123.22 77.7501C123.967 77.7501 124.59 77.625 125.213 77.5C125.836 77.25 126.459 76.75 126.708 76.125C127.331 75.625 127.207 74.875 126.833 74.25ZM107.895 80.375C106.774 79.75 106.026 78.75 105.528 77.5C105.403 77 105.652 76.375 106.151 76.125H107.148C108.144 76.125 109.141 76.375 110.013 76.875C111.882 78 112.38 80.125 112.505 81C111.01 81.375 109.266 81.125 107.895 80.375ZM106.026 90C104.78 89.75 103.659 89.125 102.787 88C102.413 87.5 102.538 86.8751 102.911 86.5001L103.036 86.3751C103.908 86.0001 104.78 85.7501 105.777 85.7501C106.151 85.7501 106.4 85.7501 106.774 85.8751C108.892 86.2501 110.138 88.1251 110.511 89.0001C109.39 90.0001 107.646 90.375 106.026 90ZM116.99 88.3751C118.61 88.3751 119.731 89.125 120.479 89.875C120.852 90.25 120.977 91.0001 120.479 91.3751C120.479 91.3751 120.354 91.5001 120.229 91.5001C119.357 92.2501 118.236 92.6251 116.99 92.6251C114.997 92.6251 113.751 91.6251 113.003 90.7501C113.003 90.5001 113.128 90.25 113.128 90C113.875 89.375 115.246 88.3751 116.99 88.3751ZM118.734 80.1251C120.229 80.2501 121.475 81.125 122.098 81.875C122.348 82.125 122.348 82.3751 122.348 82.7501C122.348 83.1251 122.098 83.375 121.849 83.5C120.728 84.125 119.482 84.375 118.236 84.25C116.866 84.125 115.495 83.375 114.623 82.375V82.25C114.748 81.875 114.872 81.375 114.997 81C116.118 80.375 117.364 80.0001 118.734 80.1251ZM116.616 73.125C114.997 73.3751 113.377 72.8751 112.131 71.875C111.259 71.125 110.636 70.25 110.387 69.125C110.138 68.375 110.636 67.625 111.259 67.5H111.757C112.879 67.625 113.875 68.0001 114.748 68.7501C116.492 70.0001 116.616 72.125 116.616 73.125ZM125.836 75.75C125.711 76 125.462 76.25 125.089 76.375C123.967 76.75 122.721 76.75 121.475 76.25C120.229 75.875 119.108 74.875 118.485 73.75L119.607 72.25C120.728 72 121.849 72 122.846 72.375C124.341 72.875 125.213 74 125.711 74.875C125.961 75.125 125.961 75.5 125.836 75.75Z" fill="#64CA43"/>
<path d="M221.895 71.125C221.77 70.5 221.272 70 220.649 70C218.033 70 215.416 69.75 212.8 69.375C210.184 69 207.567 68.375 205.075 67.5C202.584 66.625 200.216 65.5 197.974 64.125C195.731 62.75 193.862 61 192.243 59L192.118 58.875C191.62 58.5 190.872 58.5 190.498 59C189.003 60.75 187.01 62.5 185.141 64C183.148 65.5 181.03 66.75 178.787 67.75C176.544 68.75 174.177 69.5 171.81 70C169.443 70.5 166.951 70.625 164.459 70.375C163.961 70.375 163.587 70.75 163.462 71.125C162.59 77.125 162.341 83 162.715 89C163.089 94.875 164.21 100.875 166.328 106.375C168.446 112 171.685 117.125 176.046 121.25C180.407 125.375 185.764 128.125 191.495 129.625H191.62C194.734 129.5 197.725 128.625 200.466 127.375C203.207 126.125 205.948 124.5 208.19 122.375C212.925 118.375 216.538 113.125 218.905 107.375C221.397 101.625 222.393 95.5 222.767 89.375C223.141 83.25 222.767 77.125 221.895 71.125Z" fill="#2FB41F"/>
<path d="M180.905 97.625L190.125 105L208.938 83.5" fill="#2FB41F"/>
<path d="M209.311 83.375C209.187 83.25 208.938 83.125 208.689 83.25C206.82 84.75 205.075 86.5 203.456 88.125L198.597 93.375C195.731 96.625 192.866 99.75 190 103C188.754 102 187.633 101.125 186.387 100.125L184.02 98.25C183.148 97.625 182.525 96.875 181.403 96.75H180.905C180.407 97 180.157 97.5 180.407 98C180.78 99.125 181.652 99.5 182.4 100.25L184.643 102.125C186.138 103.375 187.633 104.625 189.252 105.875C189.875 106.375 190.623 106.25 191.121 105.75C194.236 102.125 197.351 98.625 200.466 95C201.961 93.125 203.58 91.375 205.075 89.5C206.57 87.625 207.941 85.75 209.187 83.625C209.436 83.75 209.311 83.5 209.311 83.375Z" fill="white"/>
<path d="M170.813 124.375C164.584 124.125 158.354 123.875 152.125 123.75C145.895 123.625 139.666 123.5 133.436 123.5C120.977 123.375 108.643 123.375 96.1836 123.375L58.9311 123.25H35.6328C34.7606 123.25 34.2623 123.25 33.6393 123.125C33.0164 123 32.518 122.75 32.0197 122.375C31.0229 121.625 30.4 120.625 30.1508 119.375C30.1508 119.125 30.0262 118.75 30.0262 118.5V116.5L95.9344 116.375H101.915V119.375C101.915 119.75 102.164 120 102.538 120H133.062C133.436 120 133.685 119.75 133.685 119.375V116C138.046 116 142.282 115.875 146.643 115.75C152.249 115.625 157.856 115.5 163.462 115.25C163.587 115.25 163.711 115.125 163.711 114.875C163.711 114.75 163.587 114.625 163.462 114.625C157.856 114.375 152.249 114.25 146.643 114.125C141.036 114 135.429 113.875 129.823 113.875C118.61 113.75 107.397 113.75 96.1836 113.75L28.6557 113.5C27.9082 113.5 27.1606 114.125 27.1606 115V118.5C27.1606 119 27.1606 119.5 27.2852 120C27.9082 122.875 30.0262 125.25 32.8918 126C33.7639 126.25 34.8852 126.25 35.6328 126.25H58.9311L96.1836 126.125C108.643 126.125 120.977 126.125 133.436 126C139.666 126 145.895 125.875 152.125 125.75C158.354 125.625 164.584 125.5 170.813 125.125C170.938 125.125 171.062 125 171.062 124.75C171.062 124.5 170.938 124.375 170.813 124.375ZM191.495 0.125L159.351 0H53.3246C52.577 0 51.8295 0.125 51.082 0.375C49.5869 0.75 48.2164 1.5 46.9705 2.5C44.6033 4.5 43.1082 7.5 43.2328 10.625V113.75H45.9738V10.75C45.9738 7.125 48.341 4 51.7049 3.125C52.2033 3 52.8262 2.875 53.4492 2.875H159.475L190.498 2.75L190.748 27.375L190.872 40.25L191.121 53.125C191.121 53.375 191.37 53.5 191.62 53.5C191.744 53.5 191.993 53.375 191.993 53.125L192.243 40.25L192.367 27.375L192.616 1.625C192.492 0.75 192.118 0.25 191.495 0.125Z" fill="#5198D9"/>
<path d="M67.5279 98.25C84.4721 91.25 120.977 95.875 132.938 103.375L67.5279 103.125V98.25Z" fill="#64CA43"/>
</svg>
