<?xml version="1.0" encoding="utf-8"?>
<!-- Generator: Adobe Illustrator 21.1.0, SVG Export Plug-In . SVG Version: 6.00 Build 0)  -->
<svg version="1.1" id="Layer_1" xmlns="http://www.w3.org/2000/svg" xmlns:xlink="http://www.w3.org/1999/xlink" x="0px" y="0px"
	 viewBox="0 0 300 160" style="enable-background:new 0 0 300 160;" xml:space="preserve">
<style type="text/css">
	.st0{fill:#C8D7E2;}
	.st1{fill:#E9EFF4;}
	.st2{fill:#FFFFFF;}
	.st3{fill:#74DCFC;}
	.st4{fill:#004F81;}
	.st5{fill:#FFFFFF;stroke:#74DCFC;stroke-linecap:round;stroke-linejoin:round;}
	.st6{fill:#004F82;}
	.st7{fill:#FFFFFF;stroke:#004F82;stroke-linecap:round;stroke-linejoin:round;}
	.st8{fill:none;stroke:#004F82;stroke-linecap:round;stroke-linejoin:round;}
	.st9{fill:#FFFFFF;stroke:#00A9DE;stroke-linecap:round;stroke-linejoin:round;}
	.st10{fill:#00A9DE;}
	.st11{fill:#004F84;}
	.st12{fill:#C2F4FF;}
</style>
<g>
	<path class="st0" d="M163.5,133.7c-2.9,1.3-5.8,2.7-8.7,4.1c-1.4,0.7-2.9,1.5-4.3,2.2c-1.4,0.7-2.8,1.5-4.2,2.3
		c-2.8,1.6-5.6,3.2-8.2,5h0c0,0,0,0,0,0c0,0-0.1,0.1,0,0.1c0,0,0.1,0,0.1,0c2.7-1.6,5.5-3.2,8.4-4.6c1.4-0.8,2.8-1.5,4.3-2.2
		s2.8-1.5,4.3-2.1c2.9-1.3,5.8-2.7,8.8-3.9l3.6-1.5h-2.2C164.7,133.1,164.1,133.4,163.5,133.7z"/>
	<path class="st0" d="M284.9,106.7l-9.6,0.4l-4.8,0.2c-1.6,0-3.2,0.2-4.8,0.4c-6.4,0.7-12.8,1.1-19.1,2.2c-3.2,0.5-6.3,0.9-9.5,1.5
		l-9.4,1.9c-3.2,0.6-6.3,1.3-9.4,2.1l-4.6,1.1v1l0.2-0.1l4.7-1.1c3.1-0.7,6.2-1.5,9.4-2.1l9.4-1.8c3.1-0.6,6.3-1,9.5-1.5
		c6.3-1.1,12.6-1.7,19-2.4c3.2-0.4,6.4-0.5,9.6-0.7l9.6-0.7c0.1,0,0.2-0.1,0.2-0.2C285.1,106.8,285,106.7,284.9,106.7z"/>
</g>
<g>
	<path class="st1" d="M26,30.1c2.1-0.1,4.3-0.2,6.5-0.2c2.1,0,4.3-0.1,6.5-0.1L38.5,30c0.6-2.1,1.6-4.1,2.7-6
		c1.1-1.9,2.8-3.5,4.8-4.5c4.4-2,9.8,1,10.8,5.6c0.1,0.6,0.1,1.2,0,1.8c-0.1,0.7-0.5,1.3-1.1,1.7c-0.6,0.4-1.2,0.5-1.9,0.5
		c-0.7,0-1.4-0.2-1.9-0.8c-0.4-0.6-0.5-1.3-0.3-2c0.2-0.6,0.5-1.1,0.9-1.6c0.8-0.9,1.8-1.5,2.9-1.9c1.1-0.4,2.3-0.5,3.4-0.4
		c1.2,0.1,2.3,0.5,3.2,1.3c0.9,0.8,1.5,1.8,1.7,3c0.3,1.1,0.3,2.3,0.2,3.4l-0.4-0.5c4.7,0,9.4,0.1,14.1,0.2c0.1,0,0.2,0.1,0.2,0.2
		s-0.1,0.2-0.2,0.2c-4.7,0.1-9.4,0.2-14.1,0.2c-0.2,0-0.4-0.2-0.4-0.4v-0.1c0.2-2-0.2-4.3-1.6-5.5c-0.8-0.6-1.7-1-2.7-1
		c-1-0.1-2,0-3,0.3c-0.9,0.3-1.8,0.9-2.4,1.6c-0.3,0.3-0.6,0.7-0.7,1.2c-0.1,0.3-0.1,0.7,0.1,1c0.7,0.5,1.6,0.5,2.2,0
		c0.6-0.6,0.9-1.5,0.6-2.4c-0.5-2-1.8-3.6-3.6-4.5c-0.9-0.4-1.8-0.7-2.8-0.8c-1-0.1-2,0.1-2.9,0.5c-1.9,0.9-3.4,2.3-4.5,4.1
		c-1.2,1.8-2.1,3.7-2.7,5.7c-0.1,0.2-0.2,0.3-0.4,0.3c-2.1,0-4.3-0.1-6.5-0.1s-4.3-0.1-6.5-0.2l-0.1-0.1L26,30.1L26,30.1z"/>
</g>
<title>illustration-connect</title>
<path class="st1" d="M25,157.8c20.8-0.5,41.7-0.6,62.5-0.7L150,157l62.5,0.1l31.2,0.2l15.6,0.1l15.6,0.2c0.2,0,0.3,0.2,0.3,0.4
	c0,0.2-0.1,0.3-0.3,0.3l-15.6,0.2l-15.6,0.1l-31.2,0.2L150,159l-62.5-0.1c-20.8-0.1-41.7-0.2-62.5-0.7c-0.1,0-0.2-0.1-0.2-0.2
	C24.8,157.9,24.9,157.8,25,157.8L25,157.8L25,157.8z"/>
<path class="st2" d="M138.1,147.3c0,0,57.3-37.4,146.8-40.3"/>
<path class="st2" d="M138.2,132.7c8.7,3.4,14,6,14,6"/>
<path class="st2" d="M15.1,121.1c18.7-7.4,40.3-7.8,60.8-5.1"/>
<path class="st0" d="M15.1,121c4.7-2.1,9.7-3.7,14.7-4.8c5.1-1.1,10.2-1.7,15.4-2.1c10.3-0.6,20.7-0.1,30.9,1.6
	c0.1,0,0.2,0.1,0.2,0.2c0,0.1-0.1,0.2-0.2,0.2c-10.2-1.2-20.5-1.4-30.7-0.9c-5.1,0.3-10.2,0.9-15.2,1.9c-5,1-10,2.3-14.8,4
	c-0.1,0-0.1,0-0.1-0.1C15,121.1,15,121.1,15.1,121L15.1,121z"/>
<path class="st2" d="M77.1,133.9L76.9,32.5"/>
<path class="st0" d="M76.9,133.9c-0.8-8.4-0.8-16.9-0.8-25.3l-0.2-25.3l0.1-25.3c0-8.5,0-16.9,0.8-25.3h0.5C78,41,78,49.4,78,57.9
	l0.2,25.3l-0.1,25.3c0,8.4,0,16.9-0.8,25.4L76.9,133.9z"/>
<path class="st0" d="M213.8,37.5c0.3,8,0.4,15.9,0.5,23.8s0.1,15.9,0.2,23.8l0.1,47.7v1.1h-1.1l-29.4,0.1l-29.4-0.1l-29.4-0.1
	c-9.8-0.1-19.6-0.2-29.4-0.8v-0.5c9.8-0.6,19.6-0.6,29.4-0.8l29.4-0.1l29.4-0.1l29.4,0.1l-1.1,1.1l0.1-47.7
	c0.1-7.9,0.1-15.9,0.2-23.8s0.3-15.9,0.5-23.8L213.8,37.5z"/>
<path class="st3" d="M75.9,37.5v-13c0-4.5,3.7-8.2,8.2-8.2h121.2c4.5,0,8.2,3.7,8.2,8.2v13H75.9z"/>
<path class="st4" d="M220.4,37.8c-12.6,0.8-25.2,0.8-37.8,0.8l-37.8,0.1l-37.8-0.1c-12.6,0-25.2,0-37.8-0.8v-0.5
	c12.6-0.8,25.2-0.8,37.8-0.8l37.8-0.1l37.8,0.1c12.6,0,25.2,0,37.8,0.8V37.8z"/>
<path class="st0" d="M242.2,64.8l-1-3.4c-2.8,0.4-4-1.2-5.1-3.7c-0.3-0.7-1.7-0.6-1.8-1.4c-0.1-1.1,1.5-1.8,1.4-4
	c0-1.2,0.2-2.8,1.4-3c0,0,5.4,2.3,8.1,5.2c1.2,3.3,1.9,4.9,1.9,4.9l1.4,3.4L242.2,64.8z"/>
<path class="st2" d="M86.3,153.1c0,0-2.8-20.5-5.8-23.5c5.1,4.4,10.8,16.5,10.8,23.5"/>
<path class="st0" d="M86.2,153.1c-0.8-4-1.6-8-2.5-11.9c-0.4-2-0.9-3.9-1.4-5.9c-0.3-1-0.6-1.9-0.9-2.9c-0.3-0.9-0.7-1.7-1.3-2.5
	c-0.2-0.2-0.2-0.6,0.1-0.8c0.2-0.2,0.5-0.2,0.7,0c1.6,1.5,3.1,3.3,4.3,5.2c1.2,1.9,2.3,3.8,3.2,5.9c0.9,2,1.7,4.1,2.3,6.2
	c0.7,2.1,1,4.4,1,6.6c0,0.1-0.1,0.2-0.2,0.2c-0.1,0-0.2-0.1-0.2-0.2c-0.2-2.2-0.6-4.3-1.3-6.4c-0.7-2.1-1.5-4.1-2.4-6.1
	c-0.9-2-2-3.9-3.2-5.7c-1.1-1.8-2.5-3.5-4.1-4.9l0.8-0.8c0.7,0.8,1.2,1.8,1.6,2.9c0.4,1,0.7,2,0.9,2.9c0.5,2,1,4,1.4,6s0.7,4,1,6
	s0.5,4,0.7,6.1C86.4,153.2,86.4,153.2,86.2,153.1C86.3,153.2,86.3,153.2,86.2,153.1L86.2,153.1z"/>
<path class="st2" d="M91.4,152.8c0,0,0.7-16.1-2.3-18.9c5.1,4.1,8.3,13.4,7.6,19.3"/>
<path class="st0" d="M91.3,152.8c-0.2-3.2-0.2-6.4-0.5-9.6c-0.1-1.6-0.3-3.2-0.5-4.7c-0.1-0.8-0.3-1.5-0.5-2.3
	c-0.2-0.7-0.5-1.3-1-1.9c-0.2-0.2-0.2-0.6,0.1-0.8c0.2-0.2,0.5-0.2,0.7,0c1.4,1.2,2.6,2.6,3.6,4.2c1,1.5,1.8,3.2,2.4,4.9
	c0.6,1.7,1.1,3.5,1.4,5.3c0.3,1.8,0.3,3.6,0.1,5.4c0,0.1-0.1,0.2-0.2,0.2c0,0,0,0,0,0c-0.1,0-0.2-0.1-0.2-0.2
	c0.1-1.8-0.1-3.5-0.5-5.2c-0.4-1.7-0.9-3.4-1.5-5c-1.2-3.3-3.2-6.2-5.8-8.6l0.8-0.9c0.6,0.7,1,1.5,1.2,2.4c0.2,0.8,0.4,1.6,0.5,2.4
	c0.3,1.6,0.4,3.2,0.5,4.9c0.1,1.6,0.1,3.2,0,4.9s-0.2,3.2-0.3,4.8c0,0.1-0.1,0.1-0.1,0.1c0,0,0,0,0,0
	C91.3,153,91.3,152.9,91.3,152.8C91.3,152.8,91.3,152.8,91.3,152.8L91.3,152.8z"/>
<path class="st5" d="M62.4,110.9c4.4,8.4,5.1,11.8,4.4,16.6l-5.4,11.1"/>
<path class="st3" d="M49.4,76.8c-1.2,7.2-1.5,20.8-1.5,20.8l13.4,0.6c0,0,2.6-15.6,1.1-18.5"/>
<g>
	<path class="st2" d="M64.1,68.6c1.2,9.8-3.3,13.1-4.8,11.2"/>
	<path class="st3" d="M63.6,68.6c0.1,1.1,0.2,2.1,0.2,3c0,2.9-0.6,5-1.3,6.3c-0.4,0.7-0.8,1.1-1.2,1.4c-0.4,0.3-0.7,0.4-1,0.4
		c-0.3,0-0.5-0.1-0.7-0.3c-0.2-0.2-0.5-0.3-0.7-0.1c-0.2,0.2-0.3,0.5-0.1,0.7c0.4,0.5,0.9,0.7,1.4,0.7c0.6,0,1.1-0.2,1.6-0.6
		c1.5-1.2,2.8-4,2.9-8.5c0-1-0.1-2-0.2-3.1c0-0.3-0.3-0.5-0.6-0.4C63.8,68.1,63.6,68.4,63.6,68.6L63.6,68.6z"/>
</g>
<g>
	<path class="st2" d="M65,55.1c1.1,0.6,1.8,1.7,2,3c0.3,2.3,2.2,2.9,2.2,4c0,0.9-1.5,1-1.8,1.8c-0.6,2.9-3.2,4.9-6.1,4.9"/>
	<path class="st6" d="M64.7,55.5c1,0.6,1.6,1.5,1.8,2.6l0.5-0.1l-0.5,0.1c0.2,1.3,0.8,2.1,1.3,2.7c0.3,0.3,0.5,0.5,0.7,0.7
		c0.2,0.2,0.2,0.3,0.2,0.5l0,0c0,0.1,0,0.1-0.1,0.2c-0.1,0.1-0.4,0.3-0.8,0.5c-0.2,0.1-0.3,0.2-0.5,0.4c-0.2,0.2-0.3,0.4-0.4,0.6
		l0,0c-0.6,2.6-2.9,4.5-5.6,4.5l0,0c-0.3,0-0.5,0.2-0.5,0.5c0,0.3,0.2,0.5,0.5,0.5l0,0c3.2,0,5.9-2.2,6.6-5.3l-0.5-0.1l0.5,0.1
		c0,0,0.1-0.1,0.2-0.2c0.2-0.2,0.5-0.3,0.9-0.5c0.2-0.1,0.3-0.2,0.5-0.4c0.1-0.2,0.2-0.4,0.2-0.7l0,0c0-0.4-0.2-0.8-0.4-1.1
		c-0.7-0.9-1.6-1.4-1.8-3l0,0c-0.2-1.4-1-2.6-2.2-3.4c-0.2-0.1-0.5-0.1-0.7,0.2C64.4,55.1,64.5,55.4,64.7,55.5L64.7,55.5z"/>
	<path class="st6" d="M64.9,64.7c0.3,0.7,0.9,1.3,1.6,1.6c0.2,0.1,0.5,0,0.7-0.2c0.1-0.2,0-0.5-0.2-0.7c-0.5-0.2-0.9-0.6-1.1-1.1
		c-0.1-0.3-0.4-0.4-0.7-0.3C64.9,64.1,64.8,64.4,64.9,64.7L64.9,64.7z"/>
	<path class="st6" d="M65.9,60L65.9,60c0.2,0,0.4,0.2,0.4,0.4l0,0.7c0,0.2-0.2,0.4-0.4,0.4c-0.2,0-0.4-0.2-0.4-0.4l0-0.7
		C65.5,60.2,65.7,60,65.9,60z"/>
</g>
<path class="st6" d="M52.1,73.2C55.9,71.7,63.7,86,63.7,86l7.9-12.8l4.4,1.8c0,0-4,18.1-11.8,18.8L50.3,83
	C50.3,83,47.2,75.2,52.1,73.2z"/>
<g>
	<path class="st2" d="M48.6,96.9c-3.6,8.8,0.6,59.3,0.6,59.3h10.2c0,0,5.1-48.5,1.6-58.7"/>
	<path class="st3" d="M48.1,96.7c-0.6,1.4-0.9,3.7-1.2,6.6c-0.2,2.9-0.3,6.5-0.3,10.3c0,17.9,2,42.5,2,42.5c0,0.3,0.2,0.5,0.5,0.5
		h10.2c0.3,0,0.5-0.2,0.5-0.4c0,0,2.8-26.7,2.8-44.7c0-3.1-0.1-6-0.3-8.4c-0.2-2.4-0.5-4.4-1-5.8C61.3,97,61,96.9,60.8,97
		c-0.3,0.1-0.4,0.4-0.3,0.6c0.4,1.2,0.7,3.2,0.9,5.6c0.2,2.4,0.3,5.2,0.3,8.3c0,8.9-0.7,20.1-1.4,29c-0.4,4.5-0.7,8.4-1,11.1
		c-0.3,2.8-0.4,4.4-0.4,4.4l0.5,0.1v-0.5H49.1v0.5l0.5,0c0,0-0.1-1.5-0.3-4.1c-0.6-7.8-1.7-25-1.7-38.3c0-3.8,0.1-7.4,0.3-10.2
		c0.2-2.9,0.6-5.1,1.1-6.3c0.1-0.3,0-0.5-0.3-0.7C48.5,96.3,48.2,96.4,48.1,96.7L48.1,96.7z"/>
</g>
<g>
	<path class="st3" d="M47.2,138.1l-6.7,9c-0.1,0.2-0.1,0.5,0,0.6l8.2,8.8c0.2,0.2,0.5,0.2,0.7,0c0.2-0.2,0.2-0.5,0-0.7l-8-8.5
		l6.4-8.6c0.2-0.2,0.1-0.5-0.1-0.7S47.3,137.9,47.2,138.1L47.2,138.1z"/>
</g>
<path class="st7" d="M71.9,73.8c0.2-3,1.6-11.7,3-11.2s0.3,4.8,0.7,6.3c0.8,1.9,0.7,4.1-0.1,6"/>
<path class="st8" d="M75.9,69.1c0,0,0.7-1.5,1-1.2l-0.8,2.2"/>
<g>
	<path class="st3" d="M50,103.7l2.9,5.4c0.1,0.2,0.4,0.3,0.7,0.2c0.2-0.1,0.3-0.4,0.2-0.7l-2.9-5.4c-0.1-0.2-0.4-0.3-0.7-0.2
		C49.9,103.1,49.8,103.4,50,103.7"/>
</g>
<g>
	<path class="st3" d="M64.2,54.4c-1.4,1.2-2.1,3.1-2.5,5c-0.4,1.9-0.6,3.8-0.9,4.9l0,0c-0.3,1.4-0.7,2.8-0.7,4
		c0,0.6,0.1,1.2,0.5,1.6c0.4,0.5,1,0.7,1.7,0.8c0.3,0,0.5-0.2,0.5-0.5c0-0.3-0.2-0.5-0.5-0.5c-0.6,0-0.8-0.2-1-0.4
		c-0.2-0.2-0.3-0.5-0.3-1c0-0.9,0.4-2.3,0.7-3.8l0,0c0.2-1.2,0.4-3.1,0.8-4.9c0.4-1.8,1.1-3.6,2.2-4.5c0.2-0.2,0.2-0.5,0.1-0.7
		C64.8,54.3,64.5,54.2,64.2,54.4L64.2,54.4z"/>
	<path class="st2" d="M51.4,68.7c-2.7-5.8,0.2-15.5,6.5-16.8c2.1-0.4,4.6,0.6,5.8,1"/>
	<path class="st3" d="M51.9,68.5c-0.6-1.4-1-3-1-4.7c0-2.5,0.7-5.2,1.9-7.3c1.2-2.1,3-3.6,5.2-4.1l0,0c0.3-0.1,0.6-0.1,1-0.1
		c1.7,0,3.6,0.7,4.6,1.1c0.3,0.1,0.5,0,0.6-0.3c0.1-0.3,0-0.5-0.3-0.6c-1-0.3-3-1.1-4.9-1.1c-0.4,0-0.8,0-1.2,0.1l0,0
		c-2.5,0.5-4.5,2.3-5.8,4.5c-1.3,2.3-2.1,5.1-2.1,7.8c0,1.8,0.3,3.6,1,5.2c0.1,0.3,0.4,0.4,0.7,0.2C51.9,69,52,68.8,51.9,68.5
		L51.9,68.5z"/>
	<path class="st2" d="M56.3,63.7c0,2.7,1.1,5,2.3,5.5"/>
	<path class="st3" d="M55.8,63.7c0,1.4,0.3,2.7,0.7,3.8c0.5,1,1.1,1.8,1.9,2.2c0.3,0.1,0.5,0,0.7-0.3c0.1-0.3,0-0.5-0.3-0.7
		c-0.4-0.2-0.9-0.8-1.3-1.7c-0.4-0.9-0.6-2.1-0.6-3.4c0-0.3-0.2-0.5-0.5-0.5C56.1,63.2,55.8,63.5,55.8,63.7L55.8,63.7z"/>
	<path class="st2" d="M52.6,63.2c-1.8,6.5-0.6,15.7,6.3,14.6"/>
	<path class="st3" d="M52.1,63c-0.5,1.8-0.8,3.8-0.8,5.7c0,2.4,0.4,4.8,1.5,6.6c0.5,0.9,1.2,1.7,2,2.2c0.8,0.5,1.9,0.8,3,0.8
		c0.4,0,0.8,0,1.2-0.1c0.3,0,0.5-0.3,0.4-0.6c0-0.3-0.3-0.5-0.6-0.4c-0.4,0.1-0.7,0.1-1,0.1c-1,0-1.8-0.2-2.5-0.7
		c-1-0.6-1.8-1.7-2.3-3.1c-0.5-1.4-0.7-3.1-0.7-4.8c0-1.8,0.3-3.7,0.7-5.4c0.1-0.3-0.1-0.5-0.4-0.6C52.4,62.6,52.2,62.8,52.1,63
		L52.1,63z"/>
</g>
<path class="st9" d="M221.7,93l0.9,9.3c0,0,5.1,13.2,0.9,8.2c5.6,6.6,12.2-1.6,12.4-9.3c0.2-8.5-2.7-14.3-6.1-16
	c-1.8-0.9-4.5-0.1-5.9,1.3C222.3,88.3,221.5,90.6,221.7,93z"/>
<g>
	<path class="st3" d="M227.4,80.3c-0.3-0.1-0.7-0.1-1-0.1c-1,0-1.8,0.3-2.5,0.7c-1,0.7-1.7,1.6-2.1,2.4c-0.4,0.8-0.6,1.4-0.6,1.4
		c-0.1,0.3,0.1,0.5,0.3,0.6c0.3,0.1,0.5-0.1,0.6-0.3l0,0c0.1-0.2,0.4-1.2,1.1-2.1c0.7-0.9,1.7-1.7,3.2-1.7c0.3,0,0.5,0,0.8,0.1
		c0.3,0,0.5-0.1,0.6-0.4C227.9,80.6,227.7,80.3,227.4,80.3L227.4,80.3z M225.3,84.8c-0.5-0.1-1-0.1-1.7-0.1c-0.9,0-2,0.1-2.9,0.4
		c-0.5,0.2-0.9,0.4-1.2,0.7c-0.4,0.3-0.6,0.8-0.7,1.3l0,0c0,0.2,0,0.4,0,0.6c0,1,0.5,2,1.3,2.7c0.2,0.2,0.5,0.1,0.7-0.1
		c0.2-0.2,0.1-0.5-0.1-0.7c-0.6-0.5-0.9-1.2-0.9-1.9c0-0.1,0-0.3,0-0.4l-0.5-0.1l0.5,0.1c0.1-0.3,0.2-0.5,0.4-0.8
		c0.3-0.3,0.9-0.6,1.5-0.7c0.6-0.1,1.3-0.2,2-0.2c0.6,0,1.1,0,1.5,0.1c0.3,0,0.5-0.2,0.6-0.4C225.8,85.1,225.6,84.9,225.3,84.8
		L225.3,84.8z M226.3,83.7c1.3-0.9,2.7-1.5,3.9-1.5c0.7,0,1.4,0.2,1.9,0.7l0,0c0.1,0.1,0.2,0.4,0.2,0.8c0,0.7-0.4,1.6-1.2,2.2
		c-0.2,0.2-0.3,0.5-0.1,0.7c0.2,0.2,0.5,0.3,0.7,0.1c1.2-0.8,1.7-2,1.7-3c0-0.6-0.2-1.1-0.5-1.5l0,0c-0.7-0.7-1.7-1-2.6-1
		c-1.5,0-3,0.7-4.4,1.7c-0.2,0.2-0.3,0.5-0.1,0.7C225.7,83.8,226.1,83.8,226.3,83.7L226.3,83.7z"/>
</g>
<g>
	<path class="st6" d="M258.3,112.3c-0.1,0.4-0.1,0.8-0.1,1.2c0,2.4,0.9,5.6,2.1,9c3.8,10.3,11.4,22.8,11.4,22.8l0.4-0.3l-0.4-0.3
		l-6.7,9.8l0.4,0.3l0.4-0.3c0,0-0.2-0.3-0.6-0.8c-1.2-1.8-4.4-6.5-7.5-11.5c-3.1-5-6.2-10.4-7.3-13.7c-0.1-0.3-0.4-0.4-0.6-0.3
		s-0.4,0.4-0.3,0.6c1.3,3.9,5.2,10.4,8.7,16c3.5,5.6,6.8,10.2,6.8,10.2c0.1,0.1,0.2,0.2,0.4,0.2c0.2,0,0.3-0.1,0.4-0.2l6.7-9.8
		c0.1-0.2,0.1-0.4,0-0.5c0,0-0.2-0.3-0.6-1c-1.3-2.2-4.5-7.8-7.4-13.9c-1.4-3-2.8-6.2-3.8-9.1c-1-2.9-1.6-5.5-1.6-7.4
		c0-0.4,0-0.7,0.1-1.1c0-0.3-0.1-0.5-0.4-0.6C258.6,111.8,258.3,112,258.3,112.3L258.3,112.3z M238.2,123.1l-6.3,32.7
		c0,0.1,0,0.3,0.1,0.4c0.1,0.1,0.2,0.2,0.3,0.2l10.4,1.2c0.2,0,0.5-0.1,0.5-0.4l9.9-38.6c0.1-0.3-0.1-0.5-0.4-0.6
		c-0.3-0.1-0.5,0.1-0.6,0.4l-9.8,38.2l-9.4-1.1l6.2-32.2c0.1-0.3-0.1-0.5-0.4-0.6C238.5,122.6,238.3,122.8,238.2,123.1L238.2,123.1z
		"/>
</g>
<path class="st10" d="M246.5,67.4c-7.4,3.8-6.8,15.3-7.6,20.5l-2.1,35l27.6-1.1C264.4,121.8,265.2,57.8,246.5,67.4L246.5,67.4z"/>
<path class="st3" d="M221.8,125.1l-4.9,27.2c-0.1,0.8-0.8,1.4-1.6,1.5c-1.4,0.2-3.5,0.8-3.5,2.5c0,0.4,3.6,0.6,6.4,0.7
	c1.8,0,3.5-1.1,4-2.9l8.3-26.6 M228,128.4l15.1,23.1c0.4,0.7,0.4,1.6-0.1,2.2c-0.9,1.1-2,3-0.8,4.2c0.3,0.3,3-2,5.1-3.9
	c1.4-1.2,1.7-3.2,0.9-4.8L236,124.2"/>
<path class="st11" d="M219.3,69.5l2.2,6.6c0.6,1.7,2.3,2.8,4.1,2.5l5.5-0.9C231.2,77.8,228.2,66.5,219.3,69.5L219.3,69.5z"/>
<g>
	<polygon class="st2" points="222.6,102.3 217,141.8 249,137.9 235.8,101.2 	"/>
	<path class="st10" d="M222.6,102.3l-0.5-0.1l-5.7,39.5c0,0.2,0,0.3,0.1,0.4c0.1,0.1,0.3,0.2,0.4,0.1l32-3.9c0.2,0,0.3-0.1,0.4-0.2
		c0.1-0.1,0.1-0.3,0-0.4L236.3,101c-0.1-0.2-0.3-0.3-0.5-0.3l-13.2,1.1c-0.2,0-0.4,0.2-0.5,0.4L222.6,102.3l0,0.5l12.8-1.1
		l12.8,35.8l-30.8,3.7l5.6-38.8L222.6,102.3l0,0.5L222.6,102.3z"/>
</g>
<path class="st3" d="M226.8,87.7c-3.3,1.2-0.4,16.2-0.4,16.2l-3,13.3l1.1,0.2c2.4,0.5,4.8-0.9,5.4-3.2l2.6-9.1
	C232.4,105.2,232.4,85.6,226.8,87.7z"/>
<g>
	<path class="st6" d="M252.5,75.1c0.7,4.9,1.2,8.3,1.2,11.1c0,3.6-0.8,6.2-3.3,10.1l0.4,0.3l-0.4-0.3c-1.9,2.8-4,5.4-6.3,7.8
		c-0.2,0.2-0.2,0.5,0,0.7s0.5,0.2,0.7,0c2.3-2.5,4.5-5.1,6.4-7.9l0,0c2.6-4,3.5-6.9,3.5-10.7c0-2.9-0.5-6.3-1.2-11.2
		c0-0.3-0.3-0.5-0.6-0.4C252.7,74.6,252.5,74.9,252.5,75.1L252.5,75.1z M245,79.6c0,0,0,2.1,0,4.1c0,1,0,2,0,2.7
		c0,0.3,0.2,0.5,0.5,0.5c0.3,0,0.5-0.2,0.5-0.5c0-0.7,0-1.7,0-2.7c0-2,0-4.1,0-4.1c0-0.3-0.2-0.5-0.5-0.5
		C245.2,79.1,245,79.3,245,79.6L245,79.6z M244,89l3.6-0.5c0.3,0,0.5-0.3,0.4-0.6c0-0.3-0.3-0.5-0.6-0.4l-3.6,0.5
		c-0.3,0-0.5,0.3-0.4,0.6C243.4,88.9,243.7,89.1,244,89z M242.4,90.5l2,0.9c0.2,0.1,0.5,0,0.7-0.2c0.1-0.2,0-0.5-0.2-0.7l-2-0.9
		c-0.2-0.1-0.5,0-0.7,0.2C242,90.1,242.1,90.4,242.4,90.5z"/>
</g>
<g>
	<path class="st2" d="M238.9,98.7l8.2,9.9c0.2,0.2,0.5,0.2,0.7,0.1c0.2-0.2,0.2-0.5,0.1-0.7l-8.2-9.9c-0.2-0.2-0.5-0.2-0.7-0.1
		C238.7,98.2,238.7,98.5,238.9,98.7"/>
</g>
<g>
	<path class="st6" d="M242.1,91.7l-3.3,6.5c-0.1,0.2,0,0.5,0.2,0.7c0.2,0.1,0.5,0,0.7-0.2l3.3-6.5c0.1-0.2,0-0.5-0.2-0.7
		C242.6,91.3,242.3,91.4,242.1,91.7z M243.5,54l-9.9-2.5c-0.3-0.1-0.5,0.1-0.6,0.4c-0.1,0.3,0.1,0.5,0.4,0.6l9.9,2.5
		c0.3,0.1,0.5-0.1,0.6-0.4C244,54.4,243.8,54.1,243.5,54z M233.3,50.2l-0.6,3.6c0,0.3,0.1,0.5,0.4,0.6c0.3,0,0.5-0.1,0.6-0.4
		l0.6-3.6c0-0.3-0.1-0.5-0.4-0.6C233.6,49.8,233.4,50,233.3,50.2z M237.1,47.5c0,1,0.5,1.8,1.2,2.5c1,1,2.3,1.7,3.6,2.5
		c1.3,0.7,2.4,1.4,3,2.2l0,0c0.7,0.9,1.1,2,1.1,3.1c0,0.3,0,0.7-0.1,1c-0.1,0.3,0.1,0.5,0.4,0.6c0.3,0.1,0.5-0.1,0.6-0.4
		c0.1-0.4,0.1-0.8,0.1-1.2c0-1.4-0.5-2.7-1.3-3.7l-0.4,0.3l0.4-0.3c-0.5-0.7-1.2-1.2-2.1-1.8c-1.2-0.8-2.6-1.4-3.7-2.2
		c-0.5-0.4-1-0.8-1.3-1.2c-0.3-0.4-0.5-0.9-0.5-1.4c0-0.3-0.2-0.5-0.5-0.5C237.3,47,237.1,47.3,237.1,47.5L237.1,47.5z M240.2,47.8
		c0.3-0.4,0.8-0.8,1.5-1.1c0.7-0.3,1.6-0.4,2.5-0.4c1.2,0,2.4,0.2,3.5,0.7c1.1,0.5,2,1.1,2.5,2c0.7,1.2,1,2.6,1,4.1
		c0,1.7-0.4,3.4-0.8,4.6c-0.2,0.6-0.4,1.1-0.5,1.5c-0.1,0.2-0.1,0.3-0.2,0.4c0,0.1-0.1,0.1-0.1,0.1c-0.1,0.2,0,0.5,0.2,0.7
		c0.2,0.1,0.5,0,0.7-0.2c0,0,1.7-3.4,1.7-7.1c0-1.5-0.3-3.2-1.2-4.6c-0.7-1.1-1.8-1.9-3-2.4c-1.2-0.5-2.6-0.8-3.8-0.8
		c-1,0-2,0.2-2.8,0.5c-0.8,0.3-1.5,0.8-2,1.4c-0.2,0.2-0.1,0.5,0.1,0.7C239.7,48.1,240,48,240.2,47.8L240.2,47.8z"/>
</g>
<g>
	<path class="st10" d="M250.4,61.5l-10.3,3.3c-0.3,0.1-0.4,0.4-0.3,0.6l0.9,3.2c0.1,0.3,0.3,0.4,0.6,0.3c0.3-0.1,0.4-0.3,0.3-0.6
		l-0.8-2.7l9.8-3.2c0.3-0.1,0.4-0.4,0.3-0.6C250.9,61.6,250.6,61.4,250.4,61.5L250.4,61.5z"/>
</g>
<g>
	<path class="st6" d="M237.5,57.6c-0.2,0.4-0.5,0.8-1,1c-0.2,0.1-0.4,0.4-0.2,0.7c0.1,0.2,0.4,0.4,0.7,0.2c0.6-0.3,1.1-0.8,1.4-1.5
		c0.1-0.3,0-0.5-0.2-0.7C238,57.2,237.7,57.3,237.5,57.6L237.5,57.6z"/>
	<path class="st6" d="M236.8,48.9c-1,0.8-1.5,2.1-1.5,3.4l0,0l0.5,0h-0.5c0,0.9-0.3,1.5-0.7,2.1c-0.2,0.3-0.4,0.5-0.5,0.8
		c-0.2,0.3-0.3,0.6-0.3,1l0,0.2l0,0c0,0.4,0.3,0.6,0.5,0.8c0.3,0.3,0.7,0.4,1,0.5c0.1,0.1,0.2,0.1,0.3,0.2l0.1,0.1l0.5-0.2l-0.5,0.2
		c0.5,1.1,1,2.1,1.8,2.9c0.7,0.7,1.7,1.2,3,1.2c0.3,0,0.6,0,0.9-0.1l-0.1-0.5l-0.5,0.1l1,3.4c0.1,0.3,0.4,0.4,0.6,0.3
		c0.3-0.1,0.4-0.4,0.3-0.6l-1-3.4c-0.1-0.2-0.3-0.4-0.5-0.4c-0.3,0-0.5,0.1-0.7,0.1c-1,0-1.7-0.3-2.3-0.9c-0.6-0.6-1.1-1.4-1.5-2.5
		l0,0c-0.1-0.3-0.4-0.5-0.6-0.6c-0.3-0.2-0.7-0.3-0.9-0.4c-0.1-0.1-0.2-0.1-0.2-0.1l0-0.1l0,0l0-0.1c0-0.1,0-0.3,0.2-0.5
		c0.3-0.6,1.3-1.6,1.3-3.4l0,0l0,0c0-1,0.4-1.9,1.2-2.6c0.2-0.2,0.2-0.5,0.1-0.7C237.4,48.7,237.1,48.7,236.8,48.9L236.8,48.9z"/>
</g>
<path class="st11" d="M229.1,67.8c1,0,1.8,0.8,1.8,1.8v0c0,1-0.8,1.8-1.8,1.8l0,0h-1.8v-1.8C227.3,68.6,228.1,67.8,229.1,67.8
	L229.1,67.8z"/>
<g>
	<path class="st2" d="M219.5,70c-1.1,0.4-1.9,1.5-1.9,2.7c-0.3,2.1-2,2.6-2,3.7c0,0.8,1.4,0.9,1.6,1.7c0.5,2.6,2.9,4.5,5.5,4.5"/>
	<path class="st6" d="M219.4,69.5c-1.3,0.5-2.2,1.7-2.2,3.1l0.5,0l-0.5-0.1c-0.1,0.9-0.5,1.5-1,2c-0.2,0.3-0.5,0.5-0.7,0.8
		c-0.2,0.3-0.4,0.6-0.4,1c0,0.4,0.2,0.7,0.4,0.9c0.3,0.3,0.6,0.4,0.9,0.6c0.1,0.1,0.2,0.1,0.3,0.2l0.1,0.1l0.5-0.1l-0.5,0.1
		c0.6,2.9,3.1,4.9,6,4.9c0.3,0,0.5-0.2,0.5-0.5c0-0.3-0.2-0.5-0.5-0.5c-2.4,0-4.6-1.7-5.1-4.1l0,0c-0.1-0.3-0.3-0.6-0.5-0.7
		c-0.3-0.2-0.6-0.4-0.8-0.5c-0.1-0.1-0.2-0.1-0.2-0.2l0-0.1c0-0.1,0-0.3,0.2-0.4c0.4-0.6,1.6-1.4,1.8-3.2l0,0c0-1,0.7-1.9,1.6-2.2
		c0.3-0.1,0.4-0.4,0.3-0.6C219.9,69.6,219.6,69.4,219.4,69.5L219.4,69.5z"/>
</g>
<g>
	<path class="st6" d="M219.2,79.1c-0.3,0.2-0.6,0.3-1,0.3c-0.3,0-0.5,0.3-0.5,0.6c0,0.3,0.3,0.5,0.6,0.5c0.6,0,1.1-0.2,1.6-0.6
		c0.2-0.2,0.3-0.5,0.1-0.8C219.8,79,219.5,79,219.2,79.1L219.2,79.1z"/>
</g>
<path class="st11" d="M219.3,69.5c-0.8,1.3-1.7,3.2-1.7,3.2l4.1,0.5l-0.2-2.4L219.3,69.5"/>
<path class="st6" d="M219,76.4c0.2,0,0.4-0.2,0.4-0.4c0,0,0,0,0,0v-0.7c0-0.2-0.2-0.4-0.4-0.4c0,0,0,0,0,0c-0.2,0-0.4,0.2-0.4,0.4
	c0,0,0,0,0,0V76C218.6,76.2,218.8,76.4,219,76.4C219,76.4,219,76.4,219,76.4z"/>
<circle class="st2" cx="91.2" cy="26.7" r="2.1"/>
<circle class="st12" cx="102" cy="26.7" r="2.1"/>
<circle class="st12" cx="112.7" cy="26.7" r="2.1"/>
<g>
	<path class="st12" d="M89.2,45.2v79.4h64.5V45.2H89.2z"/>
	<rect x="165.1" y="45.2" class="st12" width="35.2" height="33.8"/>
	<rect x="165.1" y="89.4" class="st3" width="35.2" height="17.7"/>
	<g>
		<path class="st3" d="M123,97.7h-18.5c0,10.1,8.4,18.5,18.5,18.5c10.1,0,18.5-8.4,18.5-18.5s-8.4-18.5-18.5-18.5
			c-0.1,0-0.3,0-0.4,0L123,97.7z"/>
	</g>
	<path class="st0" d="M117.7,93.1V74.6c-10.1,0-18.5,8.4-18.5,18.5L117.7,93.1L117.7,93.1z"/>
	<g>
		<path class="st2" d="M181.1,73.2h-8.6v-8.1c0-0.3,0.3-0.5,0.7-0.5h7.9L181.1,73.2L181.1,73.2z"/>
		<path class="st2" d="M193.6,73.2H185V56.3c0-0.1,0.1-0.2,0.2-0.2h8.4L193.6,73.2L193.6,73.2z"/>
	</g>
	<path class="st3" d="M98.1,62.4v-8.6h44.5c0.6,0,1.1,0.5,1.1,1.1v7.5H98.1z"/>
</g>
</svg>
