<svg xmlns="http://www.w3.org/2000/svg" xmlns:xlink="http://www.w3.org/1999/xlink" width="400" height="400" viewBox="0 0 400 400" version="1.1">
  <title>
    Stats
  </title>
  <desc>
    Created with Sketch.
  </desc>
  <g id="Page-1" stroke="none" stroke-width="1" fill="none" fill-rule="evenodd">
    <g id="Stats">
      <circle id="Oval" fill="#D2DCE4" cx="200.21" cy="200" r="199.72"/>
      <rect id="Rectangle-path" fill="#8FACBF" x="77.77" y="173.77" width="70.26" height="152.63"/>
      <rect id="Rectangle-path" fill="#8FACBF" x="164.31" y="93.91" width="70.26" height="232.49"/>
      <rect id="Rectangle-path" fill="#485566" opacity="0.08" x="199.44" y="93.63" width="35.13" height="232.77"/>
      <rect id="Rectangle-path" fill="#8FACBF" x="250.85" y="133.98" width="70.26" height="192.42"/>
      <rect id="Rectangle-path" fill="#485566" opacity="0.08" x="113.46" y="173.77" width="34.57" height="152.63"/>
      <rect id="Rectangle-path" fill="#485566" opacity="0.08" x="286.26" y="133.7" width="34.78" height="192.7"/>
      <path d="M202.09 250.09L182.96 263.72 171.06 253.5C170.5 254.26 169.95 255.1 169.46 255.93L164.31 252.66 164.31 266.71 166.75 268.31C167.72 279.37 176.9 288 188.17 288 200.07 288 209.74 278.33 209.74 266.43 209.74 262.89 208.9 259.62 207.37 256.7L234.5 215.51 234.5 193.95 200.14 245.98 202.09 250.09 202.09 250.09Z" id="Shape" fill="#647A88" opacity="0.4"/>
      <path d="M306.23 208L305.39 200C304.42 201.04 303.58 202.09 302.82 203.27L274.5 181.63C275.34 180.38 276.03 179.06 276.66 177.67L260.17 166.19 250.78 166.19 250.78 189.91C252.73 190.47 254.75 190.82 256.83 190.82 259.69 190.82 262.4 190.26 264.9 189.22L299.48 215.65C300.03 226.99 309.29 236.03 320.77 236.17L320.77 210.43 306.23 208 306.23 208Z" id="Shape" fill="#647A88" opacity="0.4"/>
      <path d="M128.35 221.01L89.39 222.4 87.03 221.15C87.65 223.23 88.56 225.11 89.67 226.85L77.77 238.75 77.77 255.51 98.71 234.64C101.43 235.9 104.42 236.59 107.62 236.59 110.75 236.59 113.74 235.9 116.45 234.64L147.97 254.75 147.97 240.7 125.77 226.57C126.89 224.83 127.72 222.96 128.35 221.01L128.35 221.01Z" id="Shape" fill="#647A88" opacity="0.4"/>
      <path d="M320.83 221.01L255.17 171.13 187.2 269.01 102.89 212.66 21.84 289.81C54.75 354.99 122.23 399.72 200.21 399.72 310.54 399.72 399.93 310.33 399.93 200 399.93 171.34 393.81 144.07 382.96 119.44L320.83 221.01 320.83 221.01Z" id="Shape" fill="#FFFFFF" opacity="0.17"/>
      <path d="M378.71 110.4L319.44 206.12 252.45 154.92 186.43 254.96 104 202.43 20.03 286.12C21.84 289.88 23.79 293.57 25.81 297.11L105.67 217.53 189.98 271.23 255.37 172.03 322.64 223.44 384.63 123.27C382.82 118.96 380.87 114.64 378.71 110.4L378.71 110.4Z" id="Shape" fill="#647A88"/>
      <ellipse id="Oval" fill="#FFFFFF" cx="188.17" cy="262.47" rx="17.53" ry="17.53"/>
      <ellipse id="Oval" fill="#FFFFFF" cx="107.62" cy="212.66" rx="17.53" ry="17.53"/>
      <path d="M107.62 195.2L107.62 230.19C117.29 230.19 125.15 222.33 125.15 212.66 125.15 202.99 117.29 195.2 107.62 195.2L107.62 195.2Z" id="Shape" fill="#F0F3F4"/>
      <path d="M188.17 244.94L188.17 279.93C197.84 279.93 205.7 272.07 205.7 262.4 205.7 252.8 197.84 244.94 188.17 244.94L188.17 244.94Z" id="Shape" fill="#F0F3F4"/>
      <ellipse id="Oval" fill="#FFFFFF" cx="256.9" cy="167.3" rx="17.53" ry="17.53"/>
      <path d="M256.9 149.84L256.9 184.83C266.57 184.83 274.43 176.97 274.43 167.3 274.43 157.63 266.57 149.84 256.9 149.84L256.9 149.84Z" id="Shape" fill="#F0F3F4"/>
      <ellipse id="Oval" fill="#FFFFFF" cx="321.04" cy="212.66" rx="17.53" ry="17.53"/>
      <path d="M320.83 195.2L320.83 230.19C330.5 230.19 338.37 222.33 338.37 212.66 338.37 202.99 330.5 195.2 320.83 195.2L320.83 195.2Z" id="Shape" fill="#F0F3F4"/>
    </g>
  </g>
</svg>
