<svg id="statistics" xmlns="http://www.w3.org/2000/svg" viewBox="0 0 1467.42 1161.79"><title>jetpack-stats-people</title><style>.c1{fill:#2271B1;}.c2{fill:#5198D9;}.c3{fill:#C6DEF6;}.c5{fill:#2FB41F;}.c6{fill:#64CA43;}.c7{fill:#CDC9CD;}.c8{fill:#E3DFE2;}.c9{fill:#FFF;}</style><path class="c8" d="M1810.29,2447.23c114.22-3.93,228.44-4.76,342.67-5.74l342.66-.9c228.44.86,456.88.37,685.33,5.22a2.85,2.85,0,0,1,0,5.71c-228.44,4.85-456.88,4.36-685.33,5.22l-342.66-.9c-114.22-1-228.44-1.81-342.67-5.74a1.43,1.43,0,0,1,0-2.85Z" transform="translate(-1808.91 -1374.56)"/><path class="c9" d="M3200.19,1855.86c-5.53-.1-8.08-.86-13.6-2.71-22.72-7.6-33.68-27.23-32.8-49.31.25-6.26-10.59-10.46-8.43-16.9,2.79-8.33,17.59-7.76,25.09-23.77,8.41-18,30.65-22.55,51.46-15.58A55.66,55.66,0,0,1,3257,1818" transform="translate(-1808.91 -1374.56)"/><path class="c1" d="M3200.19,1859.43h-.07c-6.1-.12-9.06-1-14.65-2.89-23.08-7.72-36.24-27.47-35.24-52.84.06-1.43-1.72-3.37-3.45-5.24-2.79-3-6.62-7.2-4.8-12.65,1.64-4.9,5.89-7.29,10.39-9.83,5.19-2.93,11.08-6.25,14.85-14.32,8.62-18.39,31.6-25.56,55.82-17.46a59.23,59.23,0,0,1,37.38,75,3.57,3.57,0,1,1-6.77-2.26,52.09,52.09,0,0,0-32.86-65.93c-16.94-5.69-38.91-3.78-47.1,13.71-4.75,10.14-12.3,14.39-17.82,17.51-3.94,2.22-6.4,3.69-7.12,5.87-.46,1.37.93,3,3.27,5.55,2.58,2.81,5.51,6,5.34,10.36-.88,22,10.47,39.13,30.36,45.78,5.39,1.8,7.51,2.43,12.53,2.53a3.57,3.57,0,0,1-.07,7.13Z" transform="translate(-1808.91 -1374.56)"/><path class="c2" d="M3206.25,1786.27c-8.11,20.28-6.08,54.07,14.87,62.18S3257,1818,3257,1818Z" transform="translate(-1808.91 -1374.56)"/><path class="c1" d="M3264.82,2080.61c18.25,140.92,2.92,442,2.92,442h-68.93l-6.08-252.44" transform="translate(-1808.91 -1374.56)"/><path class="c1" d="M3270.23,2525.26h-74l-6.15-255,5.24-.13,6,249.89h63.88c1.41-29.24,14.12-306.75-3-439.08l5.2-.67c18.07,139.55,3.09,439.49,2.94,442.5Z" transform="translate(-1808.91 -1374.56)"/><path class="c1" d="M3267.75,2515.55c-21,.68-84.47,4.73-93.94,8.11s-10.14,4.72,1.35,7.43,92.58,0,92.58,0Z" transform="translate(-1808.91 -1374.56)"/><path class="c1" d="M3204.73,2534.9c-14.12,0-26.12-.31-30.17-1.27-7.3-1.71-10.39-2.91-10.55-5.88s3.25-4.54,8.91-6.56c10.17-3.63,75.77-7.65,94.74-8.26l2.7-.08v20.78l-2.53.08C3265.66,2533.78,3231.43,2534.9,3204.73,2534.9Zm-33.35-7.52c1,.31,2.43.69,4.38,1.15,8.58,2,60.78.93,89.37,0v-10.28c-24.46.94-82.11,4.89-90.44,7.86C3173.28,2526.63,3172.2,2527,3171.38,2527.39Z" transform="translate(-1808.91 -1374.56)"/><path class="c2" d="M3152.17,2077.57s-7.54,106.8-11.15,217c-3,92.11,8,189.33,7.1,228.11h75c-1-225.07,43.71-318.34,41.68-442" transform="translate(-1808.91 -1374.56)"/><path class="c2" d="M3270.37,1925c8.24,77.18-5.55,155.59-5.55,155.59l-113.66-3,1.69-69.62,26.36-14.19-32.1-62.18,21.29-22.3,32.32-33.38C3233.95,1868.15,3266.75,1891.09,3270.37,1925Z" transform="translate(-1808.91 -1374.56)"/><polygon class="c3" points="1380.78 613.8 1375.71 982.83 1328.06 982.83 1335.15 636.1 1380.78 613.8"/><path class="c9" d="M3202.87,1973.15c-44.61,38.53-88.2,49.68-106.45,34.46-27.25-22.73,21.12-112.57,24.33-125.71,11.15-45.62,36.5-45.61,42.58-40.54s-6.08,33.45-6.08,33.45l-11.15,60.84" transform="translate(-1808.91 -1374.56)"/><path class="c1" d="M3117.62,2017.71c-9.48,0-17.52-2.39-23.49-7.36-23.7-19.77,2.59-80.65,16.71-113.35,3.14-7.27,5.85-13.54,6.44-15.95,7.88-32.25,22.63-41.54,30.71-44.2,7.69-2.54,14.37-.94,17.62,1.77,7.23,6-.9,27.75-4.93,37.23l-11.08,60.44a3.65,3.65,0,0,1-4.15,2.87,3.57,3.57,0,0,1-2.87-4.15l11.15-60.84a3.6,3.6,0,0,1,.23-.77c5.6-13.06,9-27,7.05-29.33-1.32-1.09-5.43-2.22-10.79-.44-6.68,2.2-19,10.21-26,39.12-.72,3-3.28,8.89-6.81,17.08-12.44,28.78-38.31,88.69-18.69,105,15.3,12.74,56.18,5,101.83-34.43a3.57,3.57,0,1,1,4.67,5.41C3174.15,2002.65,3141.41,2017.71,3117.62,2017.71Z" transform="translate(-1808.91 -1374.56)"/><path class="c1" d="M3130.88,1954.42a3.57,3.57,0,0,1-2.46-6.15l41.57-39.55a3.57,3.57,0,0,1,4.92,5.17l-41.57,39.55A3.56,3.56,0,0,1,3130.88,1954.42Z" transform="translate(-1808.91 -1374.56)"/><path class="c2" d="M3223.14,2515.55c-21,.68-84.47,4.73-93.94,8.11s-10.14,8.78,1.35,11.49,92.58,0,92.58,0Z" transform="translate(-1808.91 -1374.56)"/><path class="c1" d="M3196.79,1879.38a3.56,3.56,0,0,1-3.39-2.45l-6.13-18.6a3.56,3.56,0,0,1,3.17-4.68l10.85-.65a3.41,3.41,0,0,1,3,1.28,3.57,3.57,0,0,1,.72,3.14l-4.72,19.25a3.56,3.56,0,0,1-3.32,2.72Zm-1.3-18.88.79,2.4.61-2.48Z" transform="translate(-1808.91 -1374.56)"/><path class="c3" d="M3232,2088.41c-21,0-45.73-2-63-9.6a3.57,3.57,0,0,1,2.88-6.52c33.17,14.63,98.86,6.9,99.51,6.82a3.57,3.57,0,0,1,.86,7.08A365.43,365.43,0,0,1,3232,2088.41Z" transform="translate(-1808.91 -1374.56)"/><path class="c9" d="M3146.4,2183.07a88.8,88.8,0,0,1-15.83-1.29,3.57,3.57,0,0,1,1.28-7c9.75,1.78,22.38,1.55,37.57-.71a3.56,3.56,0,0,1,1,7.05A164.31,164.31,0,0,1,3146.4,2183.07Z" transform="translate(-1808.91 -1374.56)"/><path class="c3" d="M3237.44,1883.42a39.43,39.43,0,0,1-12.49-2.33h0c-7.3-2.48-7.35-7.25-7-9.2,1.27-7.73,15.16-15.31,24.6-15.32h0c5.69,0,9.55,2.86,10.36,7.68,1.45,8.65-1.55,13.28-4.33,15.64S3242,1883.42,3237.44,1883.42Zm-12.49-10.31a5,5,0,0,0,2.29,1.23h0c7.54,2.57,13.79,2.61,16.71.13,2-1.69,2.64-4.73,1.92-9-.09-.52-.38-2.12-4.62-1.66-7.74.81-16.38,7.12-16.3,9.33Z" transform="translate(-1808.91 -1374.56)"/><path class="c3" d="M3184.62,1892.57a3.57,3.57,0,0,1-2.52-6.09c11.86-11.87,34.54-15.08,35.5-15.21a3.57,3.57,0,0,1,1,7.06c-.22,0-21.27,3-31.42,13.19A3.56,3.56,0,0,1,3184.62,1892.57Z" transform="translate(-1808.91 -1374.56)"/><path class="c3" d="M3260.65,1826.68a3.55,3.55,0,0,1-2-.62l-111.51-76a3.57,3.57,0,0,1,4-5.89l111.51,76a3.57,3.57,0,0,1-2,6.51Z" transform="translate(-1808.91 -1374.56)"/><path class="c1" d="M3165.72,1825.06a26,26,0,0,1-8.74-1.53,3.57,3.57,0,0,1,2.62-6.63,18.42,18.42,0,0,0,7.5,1,3.57,3.57,0,0,1,.61,7.11C3167,1825,3166.36,1825.06,3165.72,1825.06Z" transform="translate(-1808.91 -1374.56)"/><rect class="c1" x="3170.08" y="1786.4" width="6.38" height="11.77" rx="3.19" ry="3.19" transform="translate(4161.02 2754.53) rotate(-169.58)"/><path class="c7" d="M2424.88,2218.25c-10.61,1.1-21.23,1.69-31.85,2.12s-21.23.69-31.85.77c-21.23.09-42.46-.35-63.69-2.9a5.93,5.93,0,0,1,0-11.77c21.23-2.54,42.46-3,63.69-2.9,10.61.08,21.23.2,31.85.77s21.23,1,31.85,2.12a5.92,5.92,0,0,1,0,11.77Z" transform="translate(-1808.91 -1374.56)"/><path class="c7" d="M2748.44,1456c35.39-1.17,70.77-1.75,106.16-2.2,4.56,0,8.55-.26,13.57-.06a65.86,65.86,0,0,1,14.79,1.91,74.5,74.5,0,0,1,56.52,62.93c1.12,10.5.54,18.55.63,27.59l-.14,26.54-.35,53.08c-.53,35.39-1.07,70.78-2.39,106.16a5.89,5.89,0,0,1-11.77,0c-1.31-35.39-1.85-70.78-2.39-106.16l-.35-53.08-.15-26.54c-.2-8.63.28-18.34-.48-25.44a57.39,57.39,0,0,0-43.09-48.75,57.89,57.89,0,0,0-11.44-1.69c-3.81-.3-8.68-.19-13-.31-35.39-.45-70.77-1-106.16-2.2a5.89,5.89,0,0,1,0-11.77Z" transform="translate(-1808.91 -1374.56)"/><path class="c7" d="M2297.49,1456c24.52-1.1,49-1.69,73.56-2.12,24.52-.64,49-.46,73.57-.73s49,.24,73.56.43c24.52.55,49,1.08,73.56,2.42a5.89,5.89,0,0,1,0,11.77c-24.52,1.34-49,1.87-73.56,2.42-24.52.19-49,.61-73.56.43s-49-.09-73.57-.73c-24.52-.43-49-1-73.56-2.12a5.89,5.89,0,0,1,0-11.77Z" transform="translate(-1808.91 -1374.56)"/><path class="c7" d="M2291.6,2212.37c-1.1-36-1.7-71.93-2.13-107.89-.64-36-.46-71.93-.73-107.89s.24-71.93.43-107.89c.55-36,1.08-71.93,2.42-107.89a5.89,5.89,0,0,1,11.77,0c1.34,36,1.87,71.93,2.42,107.89.19,36,.61,71.93.43,107.89s-.09,71.93-.73,107.89c-.43,36-1,71.93-2.13,107.89a5.89,5.89,0,0,1-11.77,0Z" transform="translate(-1808.91 -1374.56)"/><path class="c7" d="M2698.77,1633.75c12.8-1.1,25.6-1.69,38.41-2.12s25.61-.69,38.41-.77c25.6-.09,51.21.35,76.82,2.9a5.91,5.91,0,0,1,0,11.77c-25.6,2.54-51.21,3-76.82,2.9-12.8-.09-25.61-.2-38.41-.77s-25.6-1-38.41-2.12a5.91,5.91,0,0,1,0-11.77Z" transform="translate(-1808.91 -1374.56)"/><path class="c7" d="M2658.51,1726c12.81-1.1,25.61-1.7,38.41-2.12s25.6-.69,38.41-.77c25.6-.09,51.21.36,76.82,2.9a5.91,5.91,0,0,1,0,11.77c-25.61,2.54-51.21,3-76.82,2.9-12.81-.09-25.61-.2-38.41-.77s-25.6-1-38.41-2.12a5.91,5.91,0,0,1,0-11.77Z" transform="translate(-1808.91 -1374.56)"/><path class="c7" d="M2396.91,1911.59c15.8-1.1,31.6-1.69,47.41-2.12,15.8-.64,31.6-.46,47.4-.73s31.6.05,47.41.43c15.8.55,31.6,1.08,47.41,2.42a5.91,5.91,0,0,1,0,11.77c-15.8,1.34-31.6,1.87-47.41,2.42-15.8.38-31.6.62-47.41.43s-31.6-.09-47.4-.73c-15.8-.43-31.6-1-47.41-2.12a5.9,5.9,0,0,1,0-11.77Z" transform="translate(-1808.91 -1374.56)"/><path class="c7" d="M2366.13,2003.87c13.41-1.1,26.82-1.69,40.23-2.12s26.82-.69,40.23-.77c26.82-.09,53.64.35,80.46,2.9a5.91,5.91,0,0,1,0,11.77c-26.82,2.54-53.64,3-80.46,2.9-13.41-.09-26.82-.2-40.23-.77s-26.82-1-40.23-2.12a5.9,5.9,0,0,1,0-11.77Z" transform="translate(-1808.91 -1374.56)"/><path class="c7" d="M2366.13,2096.15a149.52,149.52,0,0,1,29.38-2.9c9.79-.09,19.58.35,29.38,2.9a6.08,6.08,0,0,1,0,11.77c-9.79,2.54-19.58,3-29.38,2.9a149.52,149.52,0,0,1-29.38-2.9,6,6,0,0,1,0-11.77Z" transform="translate(-1808.91 -1374.56)"/><rect class="c6" x="686.7" y="718.4" width="127.1" height="63.5"/><rect class="c6" x="878.2" y="506" width="127.1" height="164"/><rect class="c6" x="1069.7" y="418.7" width="127.1" height="172.9"/><rect class="c5" x="686.7" y="801.9" width="127.1" height="89.4"/><rect class="c5" x="878.2" y="690" width="127.1" height="201.3"/><rect class="c5" x="1069.7" y="611.6" width="127.1" height="279.7"/><path class="c1" d="M2540.74,1646.35c8.89-16.22,18.2-32.17,27.66-48,9.27-16,19.25-31.52,28.84-47.3s19.68-31.24,29.82-46.68,20.56-30.7,31.51-45.62a5.9,5.9,0,0,1,10,6.26c-8.69,16.35-18.06,32.27-27.41,48.2s-19.11,31.6-29.09,47.14-19.71,31.23-30.07,46.52c-10.18,15.41-20.51,30.73-31.26,45.78a5.89,5.89,0,0,1-10-6.26Z" transform="translate(-1808.91 -1374.56)"/><path class="c1" d="M2383,1604a359.32,359.32,0,0,1,39,24.15c12.49,8.76,24.66,18,35.62,28.87a6,6,0,0,1-6.82,9.59c-13.9-6.77-26.59-15.23-39-24.15a359.23,359.23,0,0,1-35.62-28.87A5.94,5.94,0,0,1,2383,1604Z" transform="translate(-1808.91 -1374.56)"/><path class="c1" d="M2226.9,1704a466.82,466.82,0,0,1,26-45.41c9.39-14.66,19.23-29,30.84-42.26a5.95,5.95,0,0,1,9.88,6.4c-7.34,16-16.43,30.85-26,45.41a467.5,467.5,0,0,1-30.84,42.26,5.93,5.93,0,0,1-9.88-6.4Z" transform="translate(-1808.91 -1374.56)"/><circle class="c5" cx="2691.06" cy="1410.87" r="36.31" transform="translate(-1891.39 1277.2) rotate(-51.77)"/><circle class="c5" cx="2509.16" cy="1698.49" r="36.31" transform="translate(-2186.67 1243.96) rotate(-51.77)"/><circle class="c5" cx="2330.53" cy="1566.48" r="36.31" transform="translate(-2151.06 1053.31) rotate(-51.77)"/><circle class="c5" cx="2201.41" cy="1755.4" r="36.31" transform="translate(-2348.69 1023.9) rotate(-51.77)"/><path class="c5" d="M2023.22,2424.52c8.94,3.09,37.52,8.59,46.15,11.42,7.06,2.32,5.38,12.72-2,12.72h-76.9A14.56,14.56,0,0,1,1976,2432l1.25-8.72Z" transform="translate(-1808.91 -1374.56)"/><polygon class="c7" points="197 517.05 240.27 517.05 247.41 418.79 197 418.79 197 517.05"/><path class="c7" d="M1960.79,1877.85c-21.63-2.7-79.75,70.29-90.57,98.68s59.48,44.61,59.48,44.61" transform="translate(-1808.91 -1374.56)"/><path class="c1" d="M1929.7,2024.7a3.53,3.53,0,0,1-.8-.09c-2-.47-49.68-11.68-60.91-32.72a19.33,19.33,0,0,1-1.1-16.63c10-26.2,69.35-104.25,94.34-101a3.57,3.57,0,0,1,3.1,4,3.67,3.67,0,0,1-4,3.1c-18.28-2.3-75.79,67.51-86.81,96.41a12.35,12.35,0,0,0,.74,10.74c8.06,15.11,43.31,26.15,56.21,29.12a3.57,3.57,0,0,1-.8,7Z" transform="translate(-1808.91 -1374.56)"/><path class="c7" d="M1885,2230.24s-40.94,78-35,151.84l6.76,19.61L1986,2223.56" transform="translate(-1808.91 -1374.56)"/><path class="c1" d="M1856.7,2405.25a3.3,3.3,0,0,1-.52,0,3.57,3.57,0,0,1-2.85-2.36l-6.76-19.61a3.45,3.45,0,0,1-.18-.88c-5.92-74,33.74-150.56,35.44-153.78a3.57,3.57,0,1,1,6.31,3.32c-.4.77-40.22,77.68-34.68,149.45l4.38,12.69,125.28-172.57a3.57,3.57,0,0,1,5.77,4.19l-129.3,178.12A3.56,3.56,0,0,1,1856.7,2405.25Z" transform="translate(-1808.91 -1374.56)"/><path class="c7" d="M2040.54,2216.49s-9.12,184.52-19.26,215.95l-38.53-1c-2-64.89-24.33-148-26.36-231.15" transform="translate(-1808.91 -1374.56)"/><path class="c1" d="M2021.28,2436h-.1l-38.53-1a3.57,3.57,0,0,1-3.47-3.46c-.93-29.79-6.19-63.63-11.77-99.47-6.63-42.66-13.5-86.78-14.59-131.71a3.57,3.57,0,0,1,3.48-3.65,3.73,3.73,0,0,1,3.65,3.48c1.08,44.46,7.91,88.34,14.51,130.78,5.4,34.73,10.51,67.6,11.73,97l32.43.86c9.59-37,18.28-210.7,18.37-212.49a3.62,3.62,0,0,1,3.73-3.39,3.56,3.56,0,0,1,3.39,3.73c-.37,7.55-9.27,185.36-19.43,216.87A3.56,3.56,0,0,1,2021.28,2436Z" transform="translate(-1808.91 -1374.56)"/><path class="c1" d="M2055.93,1840.79c-9.35,2.26-19.79-.81-19.79-.81-.61,0-.91.65-.44,1l16.32,17.34,4.31-18.57" transform="translate(-1808.91 -1374.56)"/><path class="c1" d="M2053.74,1864.71l-21.63-23,.43-2.39a3.63,3.63,0,0,1,3.73-2.48l.74.12c.1,0,9.8,2.79,18.17.77l.45,1.83,3.73.86Zm-10.51-20.25,7.06,7.47,1.7-7.35A45.31,45.31,0,0,1,2043.23,1844.46Z" transform="translate(-1808.91 -1374.56)"/><path class="c7" d="M2044.8,1728.93c21.92-1.05,42.08,9.4,45.3,29,2.87,17.44,17.27,20.91,17.7,29.68.33,6.78-11.24,7.88-12.7,14-5.14,21.5-21,37.41-44.95,38.56-5.81.28-8.48.32-13.82-1.09" transform="translate(-1808.91 -1374.56)"/><path class="c1" d="M2045.28,1843.84a35.7,35.7,0,0,1-9.87-1.36,3.56,3.56,0,0,1-2.54-4.35,3.53,3.53,0,0,1,4.35-2.54c4.88,1.28,7.09,1.25,12.74,1,21-1,36.52-14.4,41.65-35.83,1-4.26,4.7-6.52,7.94-8.52,2.95-1.82,4.74-3,4.67-4.45-.11-2.3-2.08-4.38-5.27-7.59-4.46-4.49-10.57-10.63-12.39-21.68-3.14-19.08-23.79-26.87-41.61-26a3.41,3.41,0,0,1-3.73-3.39,3.56,3.56,0,0,1,3.39-3.73c25.51-1.2,45.7,11.91,49,32,1.45,8.79,6.21,13.58,10.41,17.81,3.64,3.66,7.09,7.13,7.33,12.28.28,5.74-4.53,8.7-8,10.87-2.17,1.34-4.41,2.72-4.74,4.1-5.82,24.32-24.3,40.14-48.24,41.29C2048.41,1843.77,2046.8,1843.84,2045.28,1843.84Z" transform="translate(-1808.91 -1374.56)"/><path class="c1" d="M2089.61,1819.54a3.52,3.52,0,0,1-1.32-.26c-.36-.14-8.77-3.58-12.26-11.7a3.56,3.56,0,1,1,6.55-2.81c2.31,5.36,8.3,7.88,8.37,7.9a3.57,3.57,0,0,1-1.34,6.88Z" transform="translate(-1808.91 -1374.56)"/><rect class="c1" x="270.41" y="397.77" width="6.38" height="11.77" rx="3.19" ry="3.19"/><path class="c5" d="M2053.72,1864.67c-59.65-18.92-85.24-5.17-108,29.4-37,56.27-15.88,70.29-29.4,121.66s-45.12,73.53-39,220h171.34s16.22-168.83,11.15-218" transform="translate(-1808.91 -1374.56)"/><path class="c5" d="M1876.49,2381.14s-39.78,69.88-53.14,67c-8-1.75,4.7-35.73,8.94-51.66,3-11.1,5.42-18.39,16.85-17.24Z" transform="translate(-1808.91 -1374.56)"/><path class="c7" d="M2088.53,1926.51a85,85,0,0,0,20.82-24.57c13.7-24.11,48.3-65.4,56.91-54.51s-6.62,48.93-19.6,55.42c-9.46,30.41-58.46,133.43-87.86,125.27s-52.72-164.34-12.17-162.3,43.59,91.77,43.59,91.77" transform="translate(-1808.91 -1374.56)"/><path class="c1" d="M2062,2032.12a15.34,15.34,0,0,1-4.17-.56c-25.25-7-41.64-96.91-34.85-138.8,4.21-26,15.1-31,23.82-30.5,25.43,1.28,37.15,32.56,42.51,58.94a85.86,85.86,0,0,0,16.92-21c10.85-19.1,40.24-56.92,55.37-58.08a8.68,8.68,0,0,1,7.43,3.11c4.49,5.66,3.57,15.25,2,22.3-3.11,14-12,31.83-21.42,37.75C2140,1934.77,2094.68,2032.11,2062,2032.12Zm-16.12-162.76c-9.8,0-14,13.27-15.86,24.53-7.1,43.83,11.51,125.73,29.72,130.79,24.95,7,73.07-89.37,83.5-122.89a3.57,3.57,0,0,1,1.81-2.13c6.91-3.46,15.8-19.21,19-33.7,1.69-7.59,1.46-13.69-.62-16.32-.18-.22-.39-.49-1.3-.43-9.91.76-36.84,31.84-49.71,54.49a88.71,88.71,0,0,1-21.64,25.56,238,238,0,0,1,3,28.21,3.57,3.57,0,0,1-7.13.24c0-.86-3.38-86.48-40.2-88.33Z" transform="translate(-1808.91 -1374.56)"/><path class="c1" d="M1951.26,1894.1c19.06,11.76,47.25.67,63-24.79,8.56-13.87,11.61-29.12,9.57-42.05,19.12-5.59,29-29.08,25.35-46.23,21.07-1.42,29.92-26.68,27.22-49.17,0,0-18.92-11.49-39.2-5.41-12.32,3.7-21.17,6.25-31,23.64-10.79,2.77-21.14,9.52-27.15,18.26-4.34,6.31-7.53,15.15-8.91,24.27a26.45,26.45,0,0,1-9.66,16.63,69,69,0,0,0-15.26,17.45C1929.49,1852.16,1932.2,1882.34,1951.26,1894.1Z" transform="translate(-1808.91 -1374.56)"/></svg>