<?xml version="1.0" encoding="utf-8"?>
<!-- Generator: Adobe Illustrator 15.0.0, SVG Export Plug-In . SVG Version: 6.00 Build 0)  -->
<!DOCTYPE svg PUBLIC "-//W3C//DTD SVG 1.1//EN" "http://www.w3.org/Graphics/SVG/1.1/DTD/svg11.dtd">
<svg version="1.1" id="Layer_1" xmlns="http://www.w3.org/2000/svg" xmlns:xlink="http://www.w3.org/1999/xlink" x="0px" y="0px"
	 width="1600px" height="228px" viewBox="0 0 1600 228" enable-background="new 0 0 1600 228" xml:space="preserve">
<path fill-rule="evenodd" clip-rule="evenodd" fill="#F9F9F9" d="M-625,228H975.551l0.041-36.42l-0.788,0.01
	c-16.345,0.18-31.689,3.44-45.05,9.061c-16.412-21.551-47.318-36.07-82.752-36.07c-26.108,0-49.767,7.891-66.977,20.67
	c-9.205-4.23-20.023-6.67-31.599-6.67c-24.405,0-45.438,10.82-55.043,26.42c-6.141-1.57-12.707-2.42-19.556-2.42
	c-19.594,0-37.005,6.98-48.088,17.8c-10.03-5.53-22.433-8.8-35.834-8.8c-11.269,0-21.818,2.311-30.865,6.33
	c-17.01-19.471-46.358-32.33-79.7-32.33c-9.137,0-17.97,0.96-26.335,2.76c-17.437-14.58-42.746-23.76-70.908-23.76
	c-34.754,0-65.166,13.971-81.805,34.85c-13.014-5.02-27.773-7.85-43.413-7.85c-24.404,0-46.649,6.891-63.501,18.21
	c-12.602-4.62-26.762-7.21-41.735-7.21c-10.697,0-20.981,1.32-30.585,3.76c-15.027-24.64-48.169-41.76-86.64-41.76
	c-10.55,0-20.688,1.279-30.172,3.66c-11.11-9.6-27.495-15.66-45.758-15.66s-34.648,6.061-45.758,15.66
	c-9.485-2.381-19.622-3.66-30.172-3.66c-26.708,0-50.846,8.25-68.137,21.54c-3.863-0.36-7.793-0.54-11.79-0.54
	c-32.636,0-61.437,12.32-78.594,31.1c-17.157-18.779-45.958-31.1-78.594-31.1c-2.944,0-5.847,0.1-8.725,0.29
	c-16.877-20.011-46.637-33.29-80.526-33.29c-23.991,0-45.904,6.66-62.649,17.65c-8.672-3.601-18.65-5.65-29.266-5.65
	c-26.456,0-48.955,12.721-57.214,30.46c-9.258-2.25-19.129-3.46-29.373-3.46h-0.707L-625,228z"/>
<path fill-rule="evenodd" clip-rule="evenodd" fill="#F9F9F9" d="M972,228h1600.551l0.041-36.42l-0.788,0.01
	c-16.345,0.18-31.689,3.44-45.05,9.061c-16.412-21.551-47.318-36.07-82.752-36.07c-26.108,0-49.767,7.891-66.977,20.67
	c-9.205-4.23-20.023-6.67-31.599-6.67c-24.405,0-45.438,10.82-55.043,26.42c-6.141-1.57-12.707-2.42-19.556-2.42
	c-19.594,0-37.005,6.98-48.088,17.8c-10.03-5.53-22.433-8.8-35.834-8.8c-11.269,0-21.818,2.311-30.865,6.33
	c-17.01-19.471-46.358-32.33-79.7-32.33c-9.137,0-17.97,0.96-26.335,2.76c-17.437-14.58-42.746-23.76-70.908-23.76
	c-34.754,0-65.166,13.971-81.805,34.85c-13.014-5.02-27.773-7.85-43.413-7.85c-24.404,0-46.649,6.891-63.501,18.21
	c-12.602-4.62-26.762-7.21-41.734-7.21c-10.697,0-20.981,1.32-30.586,3.76c-15.026-24.64-48.169-41.76-86.64-41.76
	c-10.55,0-20.688,1.279-30.173,3.66c-11.109-9.6-27.494-15.66-45.758-15.66c-18.263,0-34.647,6.061-45.758,15.66
	c-9.484-2.381-19.621-3.66-30.172-3.66c-26.709,0-50.846,8.25-68.137,21.54c-3.863-0.36-7.793-0.54-11.789-0.54
	c-32.637,0-61.438,12.32-78.595,31.1c-17.157-18.779-45.958-31.1-78.595-31.1c-2.943,0-5.847,0.1-8.725,0.29
	c-16.877-20.011-46.637-33.29-80.525-33.29c-23.991,0-45.904,6.66-62.649,17.65c-8.672-3.601-18.649-5.65-29.267-5.65
	c-26.455,0-48.955,12.721-57.214,30.46c-9.258-2.25-19.129-3.46-29.372-3.46h-0.707L972,228z"/>
</svg>
