<svg id="generatingCash-2" xmlns="http://www.w3.org/2000/svg" viewBox="0 0 1495.03 856.62"><title>jetpack-generatingCash-2</title><line x1="2.39" y1="852.56" x2="1493.83" y2="852.56" style="fill:#fff"/><path d="M1785.42,2537.56c62.14-1.72,124.29-1.11,186.43-1.3l186.43-.15,372.86-.15,372.86.31c124.29,0,248.57.42,372.86,2.53a1.23,1.23,0,0,1,0,2.45c-124.29,2.11-248.57,2.51-372.86,2.53l-372.86.31-372.86-.15-186.43-.15c-62.14-.19-124.29.41-186.43-1.3a2.45,2.45,0,0,1,0-4.91Z" transform="translate(-1783.03 -1687.46)" style="fill:#c8d7e2"/><path d="M640.91,516.69h21.49a0,0,0,0,1,0,0v40.82a0,0,0,0,1,0,0h-29a0,0,0,0,1,0,0v-33.3A7.52,7.52,0,0,1,640.91,516.69Z" style="fill:#fff"/><path d="M2445.9,2246.1c-2.08.26-4.22.53-6.47.71-2.5.15-5.07.2-7.62.28-5.12.15-10.27.23-15.38.26A2.37,2.37,0,0,1,2414,2245h0v0l-.16-33.3a10.09,10.09,0,0,1,5.58-8.95,9.89,9.89,0,0,1,2.62-.87,13,13,0,0,1,2.53-.17l4.16,0,16.65.09h0a2.33,2.33,0,0,1,2.32,2.35h0c-.06,7.07-.07,14.22-.36,21.23s-.83,13.82-1.46,20.12Zm-1-2.15c-.61-7.12-1.12-13.75-1.42-20.22s-.3-13-.36-19.58l2.35,2.35-16.65.09-4.16,0a5.54,5.54,0,0,0-2.92.56,5,5,0,0,0-2.74,4.49l-.16,33.3-2.38-2.38c4.55,0,9.07.11,13.62.26,2.28.09,4.54.13,6.88.28s4.86.5,7.43.77Z" transform="translate(-1783.03 -1687.46)" style="fill:#c8d7e2"/><path d="M2498.59,2499.79H2251.66c-14.41,0-63.79-11.25-64.61-25.64l37.29-147.26,2.88-43.51c.61-10.85,4.37-21.44,11.45-29.67,6.46-7.52,14-11.53,23.76-11.53h224.86c7.21,0,13.79,2.65,19.59,7.17,9.6,7.49,15,19.2,15.58,31.35l3.13,43.62L2562.93,2471C2563.83,2486.65,2514.22,2499.79,2498.59,2499.79Z" transform="translate(-1783.03 -1687.46)" style="fill:#fff"/><path d="M2498.59,2501.63c-26.61.53-53.22.77-79.83.92H2259.12c-3.4,0-6.48.1-10.15-.1-3.48-.23-6.83-.71-10.18-1.27a187.59,187.59,0,0,1-19.75-4.48,126.67,126.67,0,0,1-19.16-7,50.09,50.09,0,0,1-9.08-5.38,22.05,22.05,0,0,1-4.07-4,11.26,11.26,0,0,1-2.43-6.06,2.84,2.84,0,0,1,.08-.84l37.29-147.26-.08.49,1.77-26.76.88-13.38a72,72,0,0,1,1.77-13.77,49.54,49.54,0,0,1,13.88-24.35,32.61,32.61,0,0,1,12.43-7.5c4.64-1.6,9.83-1.58,14.11-1.52h221.38a31.3,31.3,0,0,1,7.26,1,36.07,36.07,0,0,1,12.94,6.36,43.53,43.53,0,0,1,15.53,23.45c1.34,4.52,1.62,9.49,1.91,13.81l1,13.37,1.92,26.74-.08-.48,18.39,73.42,18.14,73.49v0a1.67,1.67,0,0,1,0,.32c.16,4.05-2.21,7.24-4.53,9.49a38.67,38.67,0,0,1-7.85,5.68,101.27,101.27,0,0,1-17.3,7.36,168.05,168.05,0,0,1-18,4.85,96.15,96.15,0,0,1-18.56,2.39Zm0-2.76a94.44,94.44,0,0,0,18-2.88,165.38,165.38,0,0,0,17.58-5.3,98.19,98.19,0,0,0,16.51-7.6,35.49,35.49,0,0,0,7-5.26c2-2,3.46-4.41,3.28-6.68l.06.36-19.21-73.22-19-73.28a2.93,2.93,0,0,1-.08-.48l-1.92-26.78-1-13.39c-.31-4.58-.54-8.61-1.73-12.71a38,38,0,0,0-13.53-20.5,30.55,30.55,0,0,0-11-5.41,25.77,25.77,0,0,0-6-.8H2266.43c-4.63-.06-8.53,0-12.43,1.26a27.07,27.07,0,0,0-10.33,6.26,44,44,0,0,0-12.3,21.64,66.28,66.28,0,0,0-1.63,12.8l-.88,13.39-1.77,26.78a3,3,0,0,1-.08.5l-37.29,147.26.08-.83c.06,1.88,2,4.21,4.37,6a44.84,44.84,0,0,0,8.07,4.75,121.39,121.39,0,0,0,18.31,6.65,182.15,182.15,0,0,0,19.15,4.35c3.22.53,6.46,1,9.62,1.2,3,.17,6.55,0,9.8.09h159.65c26.61.15,53.22.39,79.83.92Z" transform="translate(-1783.03 -1687.46)" style="fill:#c8d7e2"/><path d="M2292.38,2364.75h-18.64v-17.49c0-.56.68-1,1.52-1h17.11Z" transform="translate(-1783.03 -1687.46)" style="fill:#fff"/><path d="M2292.6,2365a135.41,135.41,0,0,1-18.86,1.11,1.34,1.34,0,0,1-1.33-1.33l-.08-9.15,0-4.58,0-2.29v-1.43a2.29,2.29,0,0,1,.14-.8,2.44,2.44,0,0,1,.87-1.13,3.36,3.36,0,0,1,1.93-.62h1.18l2.29,0,4.58,0,9.15.08a1.34,1.34,0,0,1,1.33,1.33A134.06,134.06,0,0,1,2292.6,2365Zm-.45-.45a145.84,145.84,0,0,1-1.11-18.28l1.33,1.33-9.15.08-4.58,0-2.29,0h-1.11a.44.44,0,0,0-.22.05.56.56,0,0,0,.16-.25.86.86,0,0,0,0-.24v1.43l0,2.29,0,4.58-.09,9.15-1.33-1.33A147.25,147.25,0,0,1,2292.15,2364.52Z" transform="translate(-1783.03 -1687.46)" style="fill:#c8d7e2"/><path d="M2329.23,2364.75h-18.64v-17.49c0-.56.68-1,1.52-1h17.11Z" transform="translate(-1783.03 -1687.46)" style="fill:#fff"/><path d="M2329.46,2365a135.41,135.41,0,0,1-18.86,1.11,1.34,1.34,0,0,1-1.33-1.33l-.08-9.15,0-4.58,0-2.29v-1.43a2.29,2.29,0,0,1,.14-.8,2.44,2.44,0,0,1,.87-1.13,3.36,3.36,0,0,1,1.93-.62h1.18l2.29,0,4.58,0,9.15.08a1.34,1.34,0,0,1,1.33,1.33A134.06,134.06,0,0,1,2329.46,2365Zm-.45-.45a145.84,145.84,0,0,1-1.11-18.28l1.33,1.33-9.15.08-4.58,0-2.29,0h-1.11a.44.44,0,0,0-.22.05.57.57,0,0,0,.16-.25.87.87,0,0,0,0-.24v1.43l0,2.29,0,4.58-.08,9.15-1.33-1.33A147.25,147.25,0,0,1,2329,2364.52Z" transform="translate(-1783.03 -1687.46)" style="fill:#c8d7e2"/><path d="M2366.09,2364.75h-18.64v-17.49c0-.56.68-1,1.52-1h17.11Z" transform="translate(-1783.03 -1687.46)" style="fill:#fff"/><path d="M2366.31,2365a135.41,135.41,0,0,1-18.86,1.11,1.34,1.34,0,0,1-1.33-1.33l-.08-9.15,0-4.58,0-2.29v-1.43a2.29,2.29,0,0,1,.14-.8,2.44,2.44,0,0,1,.87-1.13,3.36,3.36,0,0,1,1.93-.62h1.18l2.29,0,4.58,0,9.15.08a1.34,1.34,0,0,1,1.33,1.33A134.06,134.06,0,0,1,2366.31,2365Zm-.45-.45a145.84,145.84,0,0,1-1.11-18.28l1.33,1.33-9.15.08-4.58,0-2.29,0H2349a.44.44,0,0,0-.22.05.57.57,0,0,0,.16-.25.86.86,0,0,0,0-.24v1.43l0,2.29,0,4.58-.09,9.15-1.33-1.33A147.25,147.25,0,0,1,2365.86,2364.52Z" transform="translate(-1783.03 -1687.46)" style="fill:#c8d7e2"/><path d="M2402.94,2364.75H2384.3v-17.49c0-.56.68-1,1.52-1h17.11Z" transform="translate(-1783.03 -1687.46)" style="fill:#fff"/><path d="M2403.16,2365a135.41,135.41,0,0,1-18.86,1.11,1.34,1.34,0,0,1-1.33-1.33l-.08-9.15,0-4.58,0-2.29v-1.43a2.29,2.29,0,0,1,.14-.8,2.44,2.44,0,0,1,.87-1.13,3.36,3.36,0,0,1,1.93-.62h1.18l2.29,0,4.58,0,9.15.08a1.34,1.34,0,0,1,1.33,1.33A134,134,0,0,1,2403.16,2365Zm-.45-.45a145.83,145.83,0,0,1-1.11-18.28l1.33,1.33-9.15.08-4.58,0-2.29,0h-1.11a.44.44,0,0,0-.22.05.57.57,0,0,0,.16-.25.87.87,0,0,0,0-.24v1.43l0,2.29,0,4.58-.08,9.15-1.33-1.33A147.25,147.25,0,0,1,2402.72,2364.52Z" transform="translate(-1783.03 -1687.46)" style="fill:#c8d7e2"/><path d="M2439.79,2364.75h-18.64v-17.49c0-.56.68-1,1.52-1h17.11Z" transform="translate(-1783.03 -1687.46)" style="fill:#fff"/><path d="M2440,2365a135.41,135.41,0,0,1-18.86,1.11,1.34,1.34,0,0,1-1.33-1.33l-.08-9.15,0-4.58,0-2.29v-1.43a2.29,2.29,0,0,1,.14-.8,2.44,2.44,0,0,1,.87-1.13,3.36,3.36,0,0,1,1.93-.62h1.18l2.29,0,4.58,0,9.15.08a1.34,1.34,0,0,1,1.33,1.33A134.06,134.06,0,0,1,2440,2365Zm-.45-.45a145.84,145.84,0,0,1-1.11-18.28l1.33,1.33-9.15.08-4.58,0-2.29,0h-1.11a.44.44,0,0,0-.22.05.57.57,0,0,0,.16-.25.86.86,0,0,0,0-.24v1.43l0,2.29,0,4.58-.08,9.15-1.33-1.33A147.25,147.25,0,0,1,2439.57,2364.52Z" transform="translate(-1783.03 -1687.46)" style="fill:#c8d7e2"/><path d="M2476.65,2364.75H2458v-17.49c0-.56.68-1,1.52-1h17.11Z" transform="translate(-1783.03 -1687.46)" style="fill:#fff"/><path d="M2476.87,2365a135.41,135.41,0,0,1-18.86,1.11,1.34,1.34,0,0,1-1.33-1.33l-.08-9.15,0-4.58,0-2.29v-1.43a2.29,2.29,0,0,1,.14-.8,2.44,2.44,0,0,1,.87-1.13,3.36,3.36,0,0,1,1.93-.62h1.18l2.29,0,4.58,0,9.15.08a1.34,1.34,0,0,1,1.33,1.33A134,134,0,0,1,2476.87,2365Zm-.45-.45a145.83,145.83,0,0,1-1.11-18.28l1.33,1.33-9.15.08-4.58,0-2.29,0h-1.11a.44.44,0,0,0-.22.05.57.57,0,0,0,.16-.25.87.87,0,0,0,0-.24v1.43l0,2.29,0,4.58-.08,9.15-1.33-1.33A147.25,147.25,0,0,1,2476.42,2364.52Z" transform="translate(-1783.03 -1687.46)" style="fill:#c8d7e2"/><path d="M2292.38,2394.18h-18.64v-17.49c0-.56.68-1,1.52-1h17.11Z" transform="translate(-1783.03 -1687.46)" style="fill:#fff"/><path d="M2292.6,2394.41a135.41,135.41,0,0,1-18.86,1.11,1.34,1.34,0,0,1-1.33-1.33l-.08-9.15,0-4.58,0-2.29v-1.43a2.29,2.29,0,0,1,.14-.8,2.44,2.44,0,0,1,.87-1.13,3.36,3.36,0,0,1,1.93-.62h1.18l2.29,0,4.58,0,9.15.08a1.34,1.34,0,0,1,1.33,1.33A134.06,134.06,0,0,1,2292.6,2394.41Zm-.45-.45a145.84,145.84,0,0,1-1.11-18.28l1.33,1.33-9.15.08-4.58,0-2.29,0h-1.11a.44.44,0,0,0-.22.05.56.56,0,0,0,.16-.25.86.86,0,0,0,0-.24v1.43l0,2.29,0,4.58-.09,9.15-1.33-1.33A147.25,147.25,0,0,1,2292.15,2394Z" transform="translate(-1783.03 -1687.46)" style="fill:#c8d7e2"/><path d="M2329.23,2394.18h-18.64v-17.49c0-.56.68-1,1.52-1h17.11Z" transform="translate(-1783.03 -1687.46)" style="fill:#fff"/><path d="M2329.46,2394.41a135.41,135.41,0,0,1-18.86,1.11,1.34,1.34,0,0,1-1.33-1.33l-.08-9.15,0-4.58,0-2.29v-1.43a2.29,2.29,0,0,1,.14-.8,2.44,2.44,0,0,1,.87-1.13,3.36,3.36,0,0,1,1.93-.62h1.18l2.29,0,4.58,0,9.15.08a1.34,1.34,0,0,1,1.33,1.33A134.06,134.06,0,0,1,2329.46,2394.41Zm-.45-.45a145.84,145.84,0,0,1-1.11-18.28l1.33,1.33-9.15.08-4.58,0-2.29,0h-1.11a.44.44,0,0,0-.22.05.57.57,0,0,0,.16-.25.87.87,0,0,0,0-.24v1.43l0,2.29,0,4.58-.08,9.15-1.33-1.33A147.25,147.25,0,0,1,2329,2394Z" transform="translate(-1783.03 -1687.46)" style="fill:#c8d7e2"/><path d="M2366.09,2394.18h-18.64v-17.49c0-.56.68-1,1.52-1h17.11Z" transform="translate(-1783.03 -1687.46)" style="fill:#fff"/><path d="M2366.31,2394.41a135.41,135.41,0,0,1-18.86,1.11,1.34,1.34,0,0,1-1.33-1.33L2346,2385l0-4.58,0-2.29v-1.43a2.29,2.29,0,0,1,.14-.8,2.44,2.44,0,0,1,.87-1.13,3.36,3.36,0,0,1,1.93-.62h1.18l2.29,0,4.58,0,9.15.08a1.34,1.34,0,0,1,1.33,1.33A134.06,134.06,0,0,1,2366.31,2394.41Zm-.45-.45a145.84,145.84,0,0,1-1.11-18.28l1.33,1.33-9.15.08-4.58,0-2.29,0H2349a.44.44,0,0,0-.22.05.57.57,0,0,0,.16-.25.86.86,0,0,0,0-.24v1.43l0,2.29,0,4.58-.09,9.15-1.33-1.33A147.25,147.25,0,0,1,2365.86,2394Z" transform="translate(-1783.03 -1687.46)" style="fill:#c8d7e2"/><path d="M2402.94,2394.18H2384.3v-17.49c0-.56.68-1,1.52-1h17.11Z" transform="translate(-1783.03 -1687.46)" style="fill:#fff"/><path d="M2403.16,2394.41a135.41,135.41,0,0,1-18.86,1.11,1.34,1.34,0,0,1-1.33-1.33l-.08-9.15,0-4.58,0-2.29v-1.43a2.29,2.29,0,0,1,.14-.8,2.44,2.44,0,0,1,.87-1.13,3.36,3.36,0,0,1,1.93-.62h1.18l2.29,0,4.58,0,9.15.08a1.34,1.34,0,0,1,1.33,1.33A134,134,0,0,1,2403.16,2394.41Zm-.45-.45a145.83,145.83,0,0,1-1.11-18.28l1.33,1.33-9.15.08-4.58,0-2.29,0h-1.11a.44.44,0,0,0-.22.05.57.57,0,0,0,.16-.25.87.87,0,0,0,0-.24v1.43l0,2.29,0,4.58-.08,9.15-1.33-1.33A147.25,147.25,0,0,1,2402.72,2394Z" transform="translate(-1783.03 -1687.46)" style="fill:#c8d7e2"/><path d="M2439.79,2394.18h-18.64v-17.49c0-.56.68-1,1.52-1h17.11Z" transform="translate(-1783.03 -1687.46)" style="fill:#fff"/><path d="M2440,2394.41a135.41,135.41,0,0,1-18.86,1.11,1.34,1.34,0,0,1-1.33-1.33l-.08-9.15,0-4.58,0-2.29v-1.43a2.29,2.29,0,0,1,.14-.8,2.44,2.44,0,0,1,.87-1.13,3.36,3.36,0,0,1,1.93-.62h1.18l2.29,0,4.58,0,9.15.08a1.34,1.34,0,0,1,1.33,1.33A134.06,134.06,0,0,1,2440,2394.41Zm-.45-.45a145.84,145.84,0,0,1-1.11-18.28l1.33,1.33-9.15.08-4.58,0-2.29,0h-1.11a.44.44,0,0,0-.22.05.57.57,0,0,0,.16-.25.86.86,0,0,0,0-.24v1.43l0,2.29,0,4.58-.08,9.15-1.33-1.33A147.25,147.25,0,0,1,2439.57,2394Z" transform="translate(-1783.03 -1687.46)" style="fill:#c8d7e2"/><path d="M2476.65,2394.18H2458v-17.49c0-.56.68-1,1.52-1h17.11Z" transform="translate(-1783.03 -1687.46)" style="fill:#fff"/><path d="M2476.87,2394.41a135.41,135.41,0,0,1-18.86,1.11,1.34,1.34,0,0,1-1.33-1.33l-.08-9.15,0-4.58,0-2.29v-1.43a2.29,2.29,0,0,1,.14-.8,2.44,2.44,0,0,1,.87-1.13,3.36,3.36,0,0,1,1.93-.62h1.18l2.29,0,4.58,0,9.15.08a1.34,1.34,0,0,1,1.33,1.33A134,134,0,0,1,2476.87,2394.41Zm-.45-.45a145.83,145.83,0,0,1-1.11-18.28l1.33,1.33-9.15.08-4.58,0-2.29,0h-1.11a.44.44,0,0,0-.22.05.57.57,0,0,0,.16-.25.87.87,0,0,0,0-.24v1.43l0,2.29,0,4.58-.08,9.15-1.33-1.33A147.25,147.25,0,0,1,2476.42,2394Z" transform="translate(-1783.03 -1687.46)" style="fill:#c8d7e2"/><path d="M2292.38,2423.61h-18.64v-17.49c0-.56.68-1,1.52-1h17.11Z" transform="translate(-1783.03 -1687.46)" style="fill:#fff"/><path d="M2292.6,2423.84a135.41,135.41,0,0,1-18.86,1.11,1.34,1.34,0,0,1-1.33-1.33l-.08-9.15,0-4.58,0-2.29v-1.43a2.29,2.29,0,0,1,.14-.8,2.44,2.44,0,0,1,.87-1.13,3.36,3.36,0,0,1,1.93-.62h1.18l2.29,0,4.58,0,9.15.08a1.34,1.34,0,0,1,1.33,1.33A134.06,134.06,0,0,1,2292.6,2423.84Zm-.45-.45a145.84,145.84,0,0,1-1.11-18.28l1.33,1.33-9.15.08-4.58,0-2.29,0h-1.11a.44.44,0,0,0-.22.05.56.56,0,0,0,.16-.25.86.86,0,0,0,0-.24v1.43l0,2.29,0,4.58-.09,9.15-1.33-1.33A147.25,147.25,0,0,1,2292.15,2423.39Z" transform="translate(-1783.03 -1687.46)" style="fill:#c8d7e2"/><path d="M2329.23,2423.61h-18.64v-17.49c0-.56.68-1,1.52-1h17.11Z" transform="translate(-1783.03 -1687.46)" style="fill:#fff"/><path d="M2329.46,2423.84a135.41,135.41,0,0,1-18.86,1.11,1.34,1.34,0,0,1-1.33-1.33l-.08-9.15,0-4.58,0-2.29v-1.43a2.29,2.29,0,0,1,.14-.8,2.44,2.44,0,0,1,.87-1.13,3.36,3.36,0,0,1,1.93-.62h1.18l2.29,0,4.58,0,9.15.08a1.34,1.34,0,0,1,1.33,1.33A134.06,134.06,0,0,1,2329.46,2423.84Zm-.45-.45a145.84,145.84,0,0,1-1.11-18.28l1.33,1.33-9.15.08-4.58,0-2.29,0h-1.11a.44.44,0,0,0-.22.05.57.57,0,0,0,.16-.25.87.87,0,0,0,0-.24v1.43l0,2.29,0,4.58-.08,9.15-1.33-1.33A147.25,147.25,0,0,1,2329,2423.39Z" transform="translate(-1783.03 -1687.46)" style="fill:#c8d7e2"/><path d="M2366.09,2423.61h-18.64v-17.49c0-.56.68-1,1.52-1h17.11Z" transform="translate(-1783.03 -1687.46)" style="fill:#fff"/><path d="M2366.31,2423.84a135.41,135.41,0,0,1-18.86,1.11,1.34,1.34,0,0,1-1.33-1.33l-.08-9.15,0-4.58,0-2.29v-1.43a2.29,2.29,0,0,1,.14-.8,2.44,2.44,0,0,1,.87-1.13,3.36,3.36,0,0,1,1.93-.62h1.18l2.29,0,4.58,0,9.15.08a1.34,1.34,0,0,1,1.33,1.33A134.06,134.06,0,0,1,2366.31,2423.84Zm-.45-.45a145.84,145.84,0,0,1-1.11-18.28l1.33,1.33-9.15.08-4.58,0-2.29,0H2349a.44.44,0,0,0-.22.05.57.57,0,0,0,.16-.25.86.86,0,0,0,0-.24v1.43l0,2.29,0,4.58-.09,9.15-1.33-1.33A147.25,147.25,0,0,1,2365.86,2423.39Z" transform="translate(-1783.03 -1687.46)" style="fill:#c8d7e2"/><path d="M2402.94,2423.61H2384.3v-17.49c0-.56.68-1,1.52-1h17.11Z" transform="translate(-1783.03 -1687.46)" style="fill:#fff"/><path d="M2403.16,2423.84a135.41,135.41,0,0,1-18.86,1.11,1.34,1.34,0,0,1-1.33-1.33l-.08-9.15,0-4.58,0-2.29v-1.43a2.29,2.29,0,0,1,.14-.8,2.44,2.44,0,0,1,.87-1.13,3.36,3.36,0,0,1,1.93-.62h1.18l2.29,0,4.58,0,9.15.08a1.34,1.34,0,0,1,1.33,1.33A134,134,0,0,1,2403.16,2423.84Zm-.45-.45a145.83,145.83,0,0,1-1.11-18.28l1.33,1.33-9.15.08-4.58,0-2.29,0h-1.11a.44.44,0,0,0-.22.05.57.57,0,0,0,.16-.25.87.87,0,0,0,0-.24v1.43l0,2.29,0,4.58-.08,9.15-1.33-1.33A147.25,147.25,0,0,1,2402.72,2423.39Z" transform="translate(-1783.03 -1687.46)" style="fill:#c8d7e2"/><path d="M2439.79,2423.61h-18.64v-17.49c0-.56.68-1,1.52-1h17.11Z" transform="translate(-1783.03 -1687.46)" style="fill:#fff"/><path d="M2440,2423.84a135.41,135.41,0,0,1-18.86,1.11,1.34,1.34,0,0,1-1.33-1.33l-.08-9.15,0-4.58,0-2.29v-1.43a2.29,2.29,0,0,1,.14-.8,2.44,2.44,0,0,1,.87-1.13,3.36,3.36,0,0,1,1.93-.62h1.18l2.29,0,4.58,0,9.15.08a1.34,1.34,0,0,1,1.33,1.33A134.06,134.06,0,0,1,2440,2423.84Zm-.45-.45a145.84,145.84,0,0,1-1.11-18.28l1.33,1.33-9.15.08-4.58,0-2.29,0h-1.11a.44.44,0,0,0-.22.05.57.57,0,0,0,.16-.25.86.86,0,0,0,0-.24v1.43l0,2.29,0,4.58-.08,9.15-1.33-1.33A147.25,147.25,0,0,1,2439.57,2423.39Z" transform="translate(-1783.03 -1687.46)" style="fill:#c8d7e2"/><path d="M2476.65,2423.61H2458v-17.49c0-.56.68-1,1.52-1h17.11Z" transform="translate(-1783.03 -1687.46)" style="fill:#fff"/><path d="M2476.87,2423.84a135.41,135.41,0,0,1-18.86,1.11,1.34,1.34,0,0,1-1.33-1.33l-.08-9.15,0-4.58,0-2.29v-1.43a2.29,2.29,0,0,1,.14-.8,2.44,2.44,0,0,1,.87-1.13,3.36,3.36,0,0,1,1.93-.62h1.18l2.29,0,4.58,0,9.15.08a1.34,1.34,0,0,1,1.33,1.33A134,134,0,0,1,2476.87,2423.84Zm-.45-.45a145.83,145.83,0,0,1-1.11-18.28l1.33,1.33-9.15.08-4.58,0-2.29,0h-1.11a.44.44,0,0,0-.22.05.57.57,0,0,0,.16-.25.87.87,0,0,0,0-.24v1.43l0,2.29,0,4.58-.08,9.15-1.33-1.33A147.25,147.25,0,0,1,2476.42,2423.39Z" transform="translate(-1783.03 -1687.46)" style="fill:#c8d7e2"/><path d="M2562.94,2537.74v-91.83H2187.06v91.83Z" transform="translate(-1783.03 -1687.46)" style="fill:#fff"/><path d="M2562.54,2537l-.73-11.67-.6-11.72c-.26-7.67-.63-15.31-.76-22.81-.21-15-.61-29.95-.47-44.89l2.95,2.95-187.94-.23-187.94-.62,2.1-2.1q-.31,45.92-1,91.83l-1.12-1.12,375.13.37Zm.75,1.5-376.23.37a1.13,1.13,0,0,1-1.12-1.12q-.6-45.92-1-91.83a2.08,2.08,0,0,1,2.07-2.1h0l187.94-.62,187.94-.23a3,3,0,0,1,2.95,2.92v0c.14,15.67-.26,31.35-.47,46.94-.13,7.81-.5,15.47-.76,23.1l-.6,11.24-.75,10.92Z" transform="translate(-1783.03 -1687.46)" style="fill:#c8d7e2"/><path d="M2462.4,2222.18h-59.94a7.76,7.76,0,0,1-7.74-7.31l-.08-27a7.76,7.76,0,0,1,7.74-8.2h59.94a7.76,7.76,0,0,1,7.74,7.31l.08,27A7.76,7.76,0,0,1,2462.4,2222.18Z" transform="translate(-1783.03 -1687.46)" style="fill:#fff"/><path d="M2462.4,2222.87c-9.27,0-18.55,1.11-27.82,1.74s-18.55.32-27.82.45l-3.48,0h-.89c-.4,0-.8,0-1.19-.07a10.35,10.35,0,0,1-2.33-.54,10.72,10.72,0,0,1-6.56-6.58,10.45,10.45,0,0,1-.53-2.39,17.82,17.82,0,0,1-.07-1.92l0-3.48-.07-7-.13-13.91a18.16,18.16,0,0,1,.24-4.27,10.78,10.78,0,0,1,2.1-4.4,11.05,11.05,0,0,1,8.57-4.17l55.65.37,3.48,0h.89c.39,0,.79,0,1.18.08a10.26,10.26,0,0,1,2.31.56,10.58,10.58,0,0,1,6.41,6.55,10.27,10.27,0,0,1,.5,2.34,16.9,16.9,0,0,1,0,1.91l0,3.48q-.05,3.48-.26,7l-1.07,13.95a17.49,17.49,0,0,1-.49,3.73,9,9,0,0,1-1.84,3.41A8.88,8.88,0,0,1,2462.4,2222.87Zm0-1.38a6.75,6.75,0,0,0,5.39-2.77,6.18,6.18,0,0,0,1.15-2.8,15.54,15.54,0,0,0-.12-3.19l-1.15-13.88q-.24-3.47-.3-6.95c-.16-2.16.13-5.12-.35-6.08a4.94,4.94,0,0,0-3-3,4.58,4.58,0,0,0-1.07-.24c-.18,0-.37,0-.55,0h-.85l-3.48,0-55.65.37a4.56,4.56,0,0,0-3.55,1.67,4.38,4.38,0,0,0-.9,1.81,12.11,12.11,0,0,0-.13,2.66l-.05,13.91,0,7c.06,2.16-.2,5.14.22,6a4.8,4.8,0,0,0,2.89,3,4.5,4.5,0,0,0,1,.26c.18,0,.36,0,.54,0h.85l3.48,0c9.27.14,18.55-.07,27.82.45S2453.13,2221.52,2462.4,2221.49Z" transform="translate(-1783.03 -1687.46)" style="fill:#c8d7e2"/><path d="M2333.36,2311.32h155.87a5.9,5.9,0,0,0,3.37-1,2.66,2.66,0,0,0,1.29-2.32l-2.34-44.39c-.08-1.27-1.63-2.27-3.52-2.27H2332.3l1.11,45.14" transform="translate(-1783.03 -1687.46)" style="fill:#86a6bd;opacity:0.26"/><path d="M2259.09,2311.32h45.5a5.9,5.9,0,0,0,3.37-1,2.66,2.66,0,0,0,1.29-2.32l1.33-44.39c-.08-1.27-1.63-2.27-3.52-2.27H2261.7l-2.57,45.14" transform="translate(-1783.03 -1687.46)" style="fill:#86a6bd;opacity:0.26"/><path d="M2259.09,2326.68c19.57-1.4,39.14-1.39,58.7-1.46l58.7-.25,58.7.25c19.57.08,39.14.07,58.7,1.47a.46.46,0,0,1,0,.92c-19.57,1.4-39.14,1.39-58.7,1.47l-58.7.25-58.7-.25c-19.57-.08-39.14-.07-58.7-1.47a.46.46,0,0,1,0-.92Z" transform="translate(-1783.03 -1687.46)" style="fill:#c8d7e2"/><path d="M2309.74,2508.42c-.59-6.81-.93-13.62-1.22-20.43a1.6,1.6,0,0,1,1.53-1.67h.14c10.8-.4,21.6-.66,32.4-.69l32.4-.23,32.4.24c10.8,0,21.6.26,32.4.51h.09a1.8,1.8,0,0,1,1.76,1.84h0q-.31,11.8-.94,23.61a.92.92,0,0,1-1.83,0q-.63-11.8-.94-23.61l1.85,1.85c-10.8.24-21.6.46-32.4.51l-32.4.24-32.4-.23c-10.8,0-21.6-.29-32.4-.69l1.68-1.68c-.29,6.81-.63,13.62-1.22,20.43a.46.46,0,0,1-.91,0Z" transform="translate(-1783.03 -1687.46)" style="fill:#c8d7e2"/><line x1="484.87" y1="266.91" x2="453.13" y2="254.05" style="fill:#004f81"/><path d="M2267.25,1956c-2.33,2-4.17,2.69-5.74,2.76a21.55,21.55,0,0,1-4.31-.75,49.41,49.41,0,0,1-15.87-6.43,21.74,21.74,0,0,1-3.62-2.46c-1.08-1.14-1.89-2.95-2.2-6l1.29-3.18c2.33-2,4.17-2.69,5.74-2.76a21.72,21.72,0,0,1,4.31.76,49.41,49.41,0,0,1,15.87,6.43,21.53,21.53,0,0,1,3.62,2.46c1.08,1.14,1.89,2.95,2.2,6Z" transform="translate(-1783.03 -1687.46)" style="fill:#c8d7e2"/><path d="M2254.42,1849.72,2244,1857a2.25,2.25,0,0,0,1.29,4.11l13-.06,4.25,12.47a2.25,2.25,0,0,0,4.27,0l4.14-12.51,12.62-.06a2.25,2.25,0,0,0,1.26-4.12l-10.2-6.94,4.38-13.24a2.25,2.25,0,0,0-3.5-2.5l-11,8.33-11-8.23a2.25,2.25,0,0,0-3.48,2.53Z" transform="translate(-1783.03 -1687.46)" style="fill:#00a9de"/><circle cx="573.74" cy="146.19" r="11.99" style="fill:#c2f4ff"/><line x1="626.58" y1="78.6" x2="614.66" y2="53.33" style="fill:#fff"/><path d="M2408.83,1766.42c-3.5-.92-4.29-3.13-5.5-5.13s-2.34-4-3.34-6.15-1.84-4.28-2.62-6.49-2-4.22-.45-7.51l1.55-.73c3.51.92,4.29,3.13,5.5,5.13s2.34,4,3.34,6.15,1.84,4.28,2.62,6.49,2,4.22.45,7.51Z" transform="translate(-1783.03 -1687.46)" style="fill:#00a9de"/><line x1="607.99" y1="71.92" x2="633.26" y2="60.01" style="fill:#fff"/><path d="M2390.65,1758.6c.92-3.5,3.13-4.29,5.13-5.5s4-2.34,6.15-3.34,4.28-1.84,6.49-2.62,4.22-2,7.51-.45l.73,1.55c-.92,3.51-3.13,4.29-5.13,5.5s-4,2.34-6.15,3.34-4.28,1.84-6.49,2.62-4.22,2-7.51.45Z" transform="translate(-1783.03 -1687.46)" style="fill:#00a9de"/><path d="M2199.53,1875.4c4.79-2.82,10.58-3.68,16.07-3.43a56.6,56.6,0,0,1,30.76,11.84c4.54,3.86,7.55,9,10.09,13.47s4.9,8.17,8.48,9.84c3.79,1.95,8.21,2.19,13.15,1.77s10.37-1.62,16.42-.6a16.9,16.9,0,0,1,13,11l-1.37,1c-4.33-3.18-8.27-5.15-12.59-5.41s-9.28.72-14.68,1.47-11.8.74-17.43-2.05a21.33,21.33,0,0,1-7.43-5.93,48.88,48.88,0,0,1-4.54-7.14c-2.49-4.61-4.91-8.59-8.24-11.66a43.54,43.54,0,0,0-12.21-7.41,72.53,72.53,0,0,0-14.12-4.15,56.4,56.4,0,0,0-14.86-1Z" transform="translate(-1783.03 -1687.46)" style="fill:#0084c0"/><path d="M2302.92,1796.06l6.4,4.43a1.38,1.38,0,0,1-.79,2.52l-8,0-2.61,7.64a1.38,1.38,0,0,1-2.62,0l-2.54-7.67-7.73,0a1.38,1.38,0,0,1-.77-2.52l6.25-4.25-2.69-8.12a1.38,1.38,0,0,1,2.15-1.53l6.72,5.11,6.77-5a1.38,1.38,0,0,1,2.13,1.55Z" transform="translate(-1783.03 -1687.46)" style="fill:#00a9de"/><path d="M2359.66,1765.75a51.65,51.65,0,0,0-.35-10.37,59.19,59.19,0,0,0-2.08-9.9,29.4,29.4,0,0,0-4.29-8.68,30.07,30.07,0,0,0-7.39-6.27,34.6,34.6,0,0,1-4.86-3.78,16.24,16.24,0,0,1-3.93-6.05c-1.68-4.42-1.23-9.26-.25-13s2-7.1,2.1-9.93c.23-2.77-.53-5.44-2.12-9l1.15-1.27a11.06,11.06,0,0,1,5.13,3.69,12.4,12.4,0,0,1,2.51,6.33c.34,4.57-.93,8.39-1.43,11.75s-.63,6.21.38,8.71c.81,2.23,2.88,3.88,5.91,6s6.51,4.64,9,8.27a37,37,0,0,1,4.92,11.22,34.58,34.58,0,0,1,1.31,11.8,19.3,19.3,0,0,1-4.15,11.16Z" transform="translate(-1783.03 -1687.46)" style="fill:#c2f4ff"/><polygon points="1006.56 399.85 904.02 399.85 887.11 166.99 1006.56 166.99 1006.56 399.85" style="fill:#c7d6e1"/><path d="M2896.52,2054.7c51.25-6.41,189,166.57,214.62,233.84s-140.95,105.71-140.95,105.71" transform="translate(-1783.03 -1687.46)" style="fill:#c7d6e1"/><path d="M2970.19,2402.71a8.45,8.45,0,0,1-1.89-16.69c30.58-7.07,114.14-33.25,133.21-69,4.49-8.41,5.06-16.73,1.74-25.44-26.1-68.5-161.81-234.17-205.67-228.45a8.45,8.45,0,0,1-2.1-16.77c59.18-7.83,199.92,177.13,223.57,239.21,5.09,13.36,4.2,26.62-2.63,39.43-26.6,49.87-139.53,76.44-144.33,77.54A8.39,8.39,0,0,1,2970.19,2402.71Z" transform="translate(-1783.03 -1687.46)" style="fill:#005081"/><path d="M2448.87,1915.28" transform="translate(-1783.03 -1687.46)" style="fill:#fff"/><path d="M2671.08,1966.88c22.16,5.36,46.89-1.91,46.89-1.91,1.45-.06,2.15,1.53,1,2.34l-38.66,41.1-10.21-44" transform="translate(-1783.03 -1687.46)" style="fill:#005081"/><path d="M2676.24,2023.57l-13.32-57.49,8.85-2.06,1-4.34c19.87,4.82,42.84-1.74,43.07-1.82l1.74-.3c4.31.08,7.54,2.18,8.84,5.87l1.83,5.19-4.91,4.66Zm4.16-47.69,4,17.38,16.6-17.64A107.59,107.59,0,0,1,2680.4,1975.88Z" transform="translate(-1783.03 -1687.46)" style="fill:#005081"/><path d="M2697.44,1701.81c-52-2.5-99.72,22.28-107.35,68.64-6.8,41.33-40.93,49.54-41.93,70.34-.77,16.06,26.65,18.68,30.1,33.11,12.19,50.95,49.82,88.66,106.52,91.38,13.77.66,20.09.75,32.76-2.57" transform="translate(-1783.03 -1687.46)" style="fill:#c7d6e1"/><path d="M2696.2,1974.1c-3.56,0-7.36-.16-11.84-.37-57.59-2.77-100.33-39.36-114.33-97.87-.78-3.29-6.1-6.56-11.25-9.72-8.32-5.13-19.72-12.15-19.07-25.76.59-12.21,8.74-20.41,17.37-29.09,10-10,21.24-21.36,24.67-42.22,7.81-47.49,55.41-78.44,116.09-75.71a8.45,8.45,0,0,1,8,8.85,8.27,8.27,0,0,1-8.85,8c-42.23-2-91.17,16.36-98.61,61.56-4.31,26.19-18.79,40.76-29.36,51.4-7.55,7.6-12.2,12.55-12.47,18-.17,3.38,4.06,6.24,11.05,10.54,7.69,4.74,16.41,10.11,18.82,20.19,12.15,50.77,49.05,82.51,98.7,84.9,13.45.67,18.67.72,30.21-2.31a8.46,8.46,0,0,1,4.29,16.36A85.32,85.32,0,0,1,2696.2,1974.1Z" transform="translate(-1783.03 -1687.46)" style="fill:#005081"/><path d="M2591.24,1916.53a8.45,8.45,0,0,1-3.14-16.3c.11,0,14.32-6,19.78-18.71a8.45,8.45,0,1,1,15.54,6.65c-8.26,19.28-28.2,27.42-29,27.76A8.4,8.4,0,0,1,2591.24,1916.53Z" transform="translate(-1783.03 -1687.46)" style="fill:#005081"/><rect x="2600.54" y="1804.65" width="15.11" height="27.89" rx="7.55" ry="7.55" transform="translate(3433.16 1949.74) rotate(-180)" style="fill:#005081"/><path d="M3060.2,2536.72c-20-61.83-43.68-99.45-58.37-155.28-32-121.73,18-155-69.67-288.3-53.88-81.93-114.52-114.52-255.87-69.67l-14.42,362.78c-3.22,31.21-2.81,93.83-.5,152.6C2794.43,2540,2937.59,2538.56,3060.2,2536.72Z" transform="translate(-1783.03 -1687.46)" style="fill:#07a8dc"/><path d="M2593.82,2170s-27.88-20.48-49.33-58.22c-32.47-57.13-114.45-155-134.87-129.18s15.7,116,46.45,131.34c22.42,72.07,138.53,316.2,208.2,296.85s124.93-389.45,28.83-384.61-103.3,217.47-103.3,217.47" transform="translate(-1783.03 -1687.46)" style="fill:#c7d6e1"/><path d="M2656.65,2420.28c-77.4,0-184.78-230.68-207.64-300.61-22.26-14-43.37-56.28-50.74-89.44-3.71-16.7-5.91-39.43,4.72-52.86,4.19-5.29,10.29-8,17.63-7.37,36.36,2.78,104.75,91.07,131.22,137.62a202.86,202.86,0,0,0,40.08,49.8c12.71-62.53,40.48-136.64,100.75-139.68,20.23-.84,46.45,10.72,56.43,72.27,16.08,99.27-22.75,312.31-82.58,328.93A37,37,0,0,1,2656.65,2420.28Zm-238-433.46a2.56,2.56,0,0,0-2.44,1c-4.93,6.22-5.48,20.69-1.48,38.69,7.64,34.34,28.7,71.64,45.07,79.83a8.49,8.49,0,0,1,4.29,5.05c24.72,79.44,138.89,307.87,197.87,291.21,43.15-12,87.23-206.05,70.41-309.93-4.4-27.17-14.22-59.38-38.9-58.08-87.26,4.39-95.2,207.27-95.27,209.32-.16,4.67-3.94,8.76-8.73,8.16a8.44,8.44,0,0,1-8.16-8.73,563.07,563.07,0,0,1,7.06-66.85c-3.75-2.83-30.34-23.72-51.26-60.55-30.51-53.67-94.34-127.33-117.81-129.12A6,6,0,0,0,2418.69,1986.83Z" transform="translate(-1783.03 -1687.46)" style="fill:#005081"/><path d="M2933.45,1933.51a163.54,163.54,0,0,0-36.16-41.36,62.68,62.68,0,0,1-22.89-39.4c-3.28-21.63-10.84-42.58-21.12-57.52-14.26-20.72-38.77-36.7-64.34-43.27-23.23-41.22-44.2-47.27-73.4-56-48-14.41-92.9,12.81-92.9,12.81-6.4,53.3,14.57,113.17,64.5,116.53-8.67,40.64,14.78,96.3,60.08,109.56-4.83,30.64,2.4,66.78,22.69,99.65,37.24,60.33,104,86.63,149.2,58.75S2970.69,1993.84,2933.45,1933.51Z" transform="translate(-1783.03 -1687.46)" style="fill:#005081"/><rect x="2370.81" y="1914.33" width="191.79" height="109.31" rx="16.22" ry="16.22" transform="translate(1722.92 -2698.66) rotate(70.63)" style="fill:#00a9de"/><rect x="2424.34" y="1894.61" width="81.21" height="138.74" transform="translate(-2294.95 -758.58) rotate(-19.37)" style="fill:#fff"/><rect x="2404.38" y="1897.57" width="81.21" height="19.29" transform="translate(-2277.25 -768.42) rotate(-19.37)" style="fill:#004f84"/><path d="M2491.06,2063.84s-14.08-34-19.61-28.87c-12,11.17,2.48,57.82,2.48,57.82" transform="translate(-1783.03 -1687.46)" style="fill:#c7d6e1"/><path d="M2473.92,2101.24a8.45,8.45,0,0,1-8.07-6c-3.76-12.14-14.87-52.78-.17-66.5a10.25,10.25,0,0,1,9.3-2.57c2.91.63,10.61,2.29,23.88,34.37a8.45,8.45,0,1,1-15.62,6.47,174.91,174.91,0,0,0-8.09-16.93c-.18,9.77,2.34,25.54,6.84,40.15a8.46,8.46,0,0,1-8.07,10.95Z" transform="translate(-1783.03 -1687.46)" style="fill:#005081"/><line x1="713.48" y1="295.1" x2="674.04" y2="309.17" style="fill:#ddf8ff"/><path d="M2496.62,1982.85c-2.95,2.13-6.26,3.22-9.52,4.48l-9.81,3.66-9.91,3.38c-3.32,1.09-6.58,2.34-10.2,2.56l-.21-.59c2.95-2.13,6.26-3.22,9.52-4.48l9.81-3.66,9.91-3.38c3.32-1.09,6.58-2.34,10.2-2.56Z" transform="translate(-1783.03 -1687.46)" style="fill:#00a9de"/><line x1="707.78" y1="305.97" x2="676.73" y2="317.24" style="fill:#ddf8ff"/><path d="M2490.95,1993.79c-2.15,2.13-4.78,3-7.33,4s-5.13,2-7.7,3-5.19,1.82-7.82,2.65-5.18,1.87-8.2,1.62l-.27-.74c2.15-2.13,4.78-3,7.33-4s5.13-2,7.7-3,5.19-1.82,7.82-2.65,5.18-1.87,8.2-1.62Z" transform="translate(-1783.03 -1687.46)" style="fill:#00a9de"/><line x1="710.77" y1="314.92" x2="679.72" y2="326.2" style="fill:#ddf8ff"/><path d="M2493.93,2002.75c-2.15,2.13-4.78,3-7.33,4s-5.13,2-7.7,3-5.19,1.82-7.82,2.65-5.18,1.87-8.2,1.62l-.27-.74c2.15-2.13,4.78-3,7.33-4s5.13-2,7.7-3,5.19-1.82,7.82-2.65,5.18-1.87,8.2-1.62Z" transform="translate(-1783.03 -1687.46)" style="fill:#00a9de"/><rect x="2448.66" y="1938.16" width="25.66" height="11.38" transform="translate(-2288.47 -760.87) rotate(-19.37)" style="fill:#c2f4ff"/><rect x="2450.61" y="1947.79" width="25.66" height="11.38" transform="translate(-2291.55 -759.68) rotate(-19.37)" style="fill:#c2f4ff"/><rect x="2463.95" y="1955.3" width="25.66" height="11.38" transform="translate(-2293.29 -754.83) rotate(-19.37)" style="fill:#c2f4ff"/><path d="M2491,1962.58a86.79,86.79,0,0,1-9.18,3.91l-10.25,3.85-20.67,7.55a2,2,0,0,1-2.6-1.21v0l-3.51-10A2,2,0,0,1,2446,1964h0l20.11-6.94c6.71-2.29,13.37-4.73,20.19-6.69l.16,0a1.44,1.44,0,0,1,1.78,1c1.12,3.76,2,7.54,2.65,10.81Zm-1.37-1.34c-1.61-3.27-3-6.08-4.24-8.91l1.94.93c-6.55,2.75-13.27,5-19.94,7.42l-20,7.17,1.24-2.59,3.54,10-2.61-1.25,19.46-6.56,9.82-3.2a104.91,104.91,0,0,1,10.42-3Z" transform="translate(-1783.03 -1687.46)" style="fill:#74dcfc"/><path d="M2433.59,1958.36a86.79,86.79,0,0,1,9.18-3.91l10.25-3.85,20.67-7.55a2,2,0,0,1,2.6,1.21v0l3.51,10a2,2,0,0,1-1.22,2.58h0l-20.11,6.94c-6.71,2.29-13.37,4.73-20.19,6.69l-.16,0a1.44,1.44,0,0,1-1.78-1c-1.12-3.76-2-7.54-2.65-10.81Zm1.37,1.34c1.61,3.27,3,6.08,4.24,8.91l-1.94-.93c6.55-2.75,13.27-5,19.94-7.42l20-7.17-1.24,2.59-3.54-10,2.61,1.25-19.46,6.56-9.82,3.2a105,105,0,0,1-10.42,3Z" transform="translate(-1783.03 -1687.46)" style="fill:#74dcfc"/><path d="M2476.86,1945a86.78,86.78,0,0,1-9.18,3.91l-10.25,3.85-20.67,7.55a2,2,0,0,1-2.6-1.21v0l-3.51-10a2,2,0,0,1,1.22-2.58h0l20.11-6.94c6.71-2.29,13.37-4.73,20.19-6.69l.16,0a1.44,1.44,0,0,1,1.78,1c1.12,3.76,2,7.54,2.65,10.81Zm-1.37-1.34c-1.61-3.27-3-6.08-4.24-8.91l1.94.93c-6.55,2.75-13.27,5-19.94,7.42l-20,7.17,1.24-2.59,3.54,10-2.61-1.25,19.46-6.56,9.82-3.2a104.89,104.89,0,0,1,10.42-3Z" transform="translate(-1783.03 -1687.46)" style="fill:#74dcfc"/></svg>