<svg id="wordAds" xmlns="http://www.w3.org/2000/svg" x="0px" y="0px" viewBox="0 0 240 121">
    <path fill="#E9EFF4" d="M226.3,118.6c-37.7-0.8-75.4-0.7-113-0.9l-36.1,0.1c0,0.3,0,0.6,0,0.9c0,0.2-0.2,0.4-0.4,0.4 c-3.8-0.2-7.6-0.2-11.4-0.2c-13.8,0-27.6-0.3-41.4-0.3c-0.2,0-0.3-0.1-0.3-0.3c0,0,0,0,0,0c-7.8,0.1-15.6,0.3-23.4,0.6 c-0.1,0-0.2,0.1-0.2,0.3c0,0.1,0.1,0.2,0.2,0.2c18.8,0.7,37.7,0.8,56.5,1l56.5,0.2c37.7-0.1,75.4-0.1,113-0.9c0.3,0,0.5-0.2,0.5-0.5 C226.8,118.8,226.6,118.6,226.3,118.6L226.3,118.6z"/>
    <path fill="#C2F4FF" d="M66.4,35.6h108.2l0,0v41.5l0,0h-110l0,0V37.5C64.5,36.4,65.3,35.6,66.4,35.6z"/>
    <path fill="#00A9DE" d="M164.1,89.3h-16.8c-1,0-1.9,0.8-1.9,1.9l0,0v26.7h29.1V92.2c-8.8,3.5-15.9,5.9-15.9,5.9S161.9,95,164.1,89.3z"/>
    <path fill="#FCD56E" d="M229,45.1h-71.4c-6.1,0-11,4.9-11,11v20.2c0,6.1,4.9,11,11,11h7.2c-0.2,0.7-0.5,1.4-0.7,2.1 c-2.2,5.7-5.5,8.8-5.5,8.8s7.1-2.4,15.9-5.9c3.7-1.5,7.8-3.2,11.8-4.9H229c6.1,0,11-4.9,11-11V56.1C240,50,235.1,45.1,229,45.1z"/>
    <polygon fill="#C2F4FF" points="77.1,89.3 77.2,117.9 133.5,117.9 133.5,89.3 "/>
    <path fill="#C8D7E2" d="M77.1,84.3L77.1,84.3c-18-0.2-35.9-0.1-53.9-0.2l0,0c-0.4,0-0.7,0.3-0.7,0.7c0,0,0,0,0,0l0.2,34.3l0,0 c0,0.3,0.3,0.6,0.6,0.6c0,0,0,0,0,0l27.1-0.2l26.8-0.3h0.1l0.2-34.4C77.6,84.6,77.4,84.3,77.1,84.3C77.1,84.3,77.1,84.3,77.1,84.3z  M50.1,118.7l-26.1-0.2l0-33c17.6-0.1,35.1,0,52.7-0.2L77,119v0.1L50.1,118.7z"/>
    <polyline fill="#FFFFFF" points="25.3,88.1 49.5,102.8 75.2,87.2 "/>
    <path fill="#C8D7E2" d="M25.4,88c2.1,1.1,4.2,2.2,6.3,3.4s4.1,2.3,6.1,3.6l6.1,3.6c2,1.2,4,2.5,6,3.7h-0.7l12.9-7.7 c4.3-2.6,8.6-5.1,13-7.6c0.1-0.1,0.3,0,0.3,0.1c0.1,0.1,0,0.2-0.1,0.3c-4.2,2.7-8.4,5.4-12.7,8.1l-12.8,7.9c-0.2,0.1-0.5,0.1-0.7,0 c-2-1.2-4.1-2.4-6.1-3.6l-6-3.7c-2-1.2-4-2.5-6-3.8c-2-1.3-3.9-2.6-5.9-4c-0.1,0-0.1-0.1,0-0.2C25.3,88,25.3,88,25.4,88L25.4,88z"/>
    <polygon fill="#00A9DE" points="81.7,65 92.5,49.2 104.8,65 "/>
    <polygon fill="#FFFFFF" points="194.2,55.7 196.1,54.6 197.5,56.2 199.5,55.8 200.4,57.7 202.5,57.9 202.8,60 204.7,60.9 204.3,63  205.8,64.4 204.8,66.2 205.8,68.1 204.3,69.5 204.7,71.5 202.8,72.4 202.5,74.5 200.4,74.8 199.5,76.7 197.5,76.3 196.1,77.8  194.2,76.8 192.4,77.8 191,76.3 188.9,76.7 188,74.8 185.9,74.5 185.7,72.4 183.8,71.5 184.2,69.5 182.6,68.1 183.7,66.2  182.6,64.4 184.2,63 183.8,60.9 185.7,60 185.9,57.9 188,57.7 188.9,55.8 191,56.2 192.4,54.6 "/>
    <polygon fill="#C8D7E2" points="48.5,84.8 50.2,84.8 51,22.9 49.2,22.9 "/>
    <rect x="186.5" y="22.9" fill="#C8D7E2" width="1.8" height="22.1"/>
    <path fill="#C8D7E2" d="M186.5,87.3v29.8H77.1c0,0.6,0.1,1.2,0,1.8h110.2c0.5,0,0.9-0.4,0.9-0.9V87.3H186.5z"/>
    <path fill="#74DCFC" d="M49.3,23.2V9.7c0-5.4,3.7-9.7,8.2-9.7h122.8c4.5,0,8.2,4.3,8.2,9.7v13.5H49.3z"/>
    <path fill="#004F84" d="M191.1,23.2c-12.1,1-24.2,0.9-36.3,0.9l-36.3,0.2l-36.3-0.2c-12.1-0.1-24.2,0-36.3-0.9v-0.6 c12.1-1,24.2-0.9,36.3-0.9l36.3-0.2l36.3,0.2c12.1,0.1,24.2,0,36.3,0.9V23.2z"/>
</svg>