<svg id="wordAds" xmlns="http://www.w3.org/2000/svg" viewBox="0 0 240 121"><style>.st0{fill:#D8DEE4}.st1{fill:#00b328}.st2{fill:#CCCED0}.st3{fill:#6F93AD}.st4{fill:#F6F6F6}.st5{fill:#BBC9D5}.st6{fill:#204A69}.st7{fill:#fff}</style><path class="st0" d="M51.1 23.9l-.8 63.8 1.8.3.8-64.1h-1.8zM189.2 23.6v32.6h1.8V23.5c-.6 0-1.2 0-1.8.1zM189.2 86.1v32.6h-3.8v1.8h4.7c.5 0 .9-.4.9-.9V87c-.6-.3-1.2-.7-1.8-.9zM84.8 90.9c0 9.6.2 19.1.1 28.7h51V90.9H84.8z"/><path class="st1" d="M177.2 119.6H148V93c0-1.2 1-2.1 2.1-2.1h27.1v28.7z"/><path class="st2" d="M153.9 83c9.3-.3 18.6-.4 27.9-.4.1 0 .2 0 .2.1 5.9 2.6 12 4.9 18.1 7l-.6 1c-.5-.5-1-1.1-1.4-1.7-.4-.6-.8-1.2-1.1-1.8-.7-1.2-1.3-2.5-1.7-3.9-.1-.3.1-.7.4-.8h4c.7 0 1.3 0 1.8-.1.6-.1 1.1-.3 1.7-.5 2.2-.9 3.7-3.1 3.9-5.4.1-2.4 0-5.1 0-7.6v-5.8c0-.7 0-1.2-.1-1.8-.5-2.3-2.3-4.2-4.5-4.9-.6-.2-1.1-.3-1.7-.3h-21.2l-15.4-.1h-7.7c-1.3 0-2.6-.1-3.8.1-1.2.2-2.3.7-3.2 1.5-.9.8-1.6 1.8-2 2.9-.5 1.1-.4 2.4-.4 3.7v11.5c-.1 1.2.2 2.5.8 3.6 1.1 2.2 3.5 3.6 6 3.6v.1zm0 .3c-2.7 0-5.3-1.5-6.6-3.8-.6-1.2-1-2.5-1-3.8V64.2c0-1.2-.1-2.6.4-3.9.4-1.3 1.2-2.4 2.3-3.3 1-.9 2.3-1.5 3.7-1.7 1.4-.2 2.6-.1 3.9-.1l7.7-.1 15.4-.1H200.8c.7 0 1.4.1 2.1.3 2.7.8 4.9 3.1 5.4 5.9.1.7.2 1.4.2 2.1V69c0 2.6 0 5.1-.1 7.7-.2 2.8-2.1 5.4-4.7 6.5-.6.3-1.3.5-2 .6-.7.1-1.4.1-2 .1h-3.8l.6-.8c.4 1.3.9 2.5 1.5 3.7.3.6.7 1.1 1.1 1.7s.8 1.1 1.2 1.5c.2.2.2.6 0 .9-.2.2-.4.2-.6.1-6.1-2.2-12.2-4.5-18.1-7.2l.2.1c-9.3-.3-18.6-.4-27.9-.6z"/><path class="st0" d="M146.3 75.7V64.2c0-1.2-.1-2.6.4-3.9.4-1.3 1.2-2.4 2.3-3.3 1-.9 2.3-1.5 3.7-1.7 1.4-.2 2.6-.1 3.9-.1l7.7-.1 13-.1V36.8H68.7c-1.2 0-2.1 1-2.1 2.1v39.6h80.3c-.4-.9-.6-1.9-.6-2.8z"/><circle class="st2" cx="188.8" cy="69.9" r="2.3"/><circle class="st2" cx="177.3" cy="69.9" r="2.3"/><circle class="st2" cx="165.9" cy="69.9" r="2.3"/><path class="st3" d="M83.9 66.4l10.8-15.9L107 66.4z"/><path class="st4" d="M239.5 118.8c-37.9-.8-95.5-.7-133.4-.9l-30.7.1c0 .8 0 1.7-.1 2.5l30.8.1c37.9-.1 95.5-.1 133.4-.9.3 0 .5-.2.5-.5 0-.2-.2-.4-.5-.4z"/><path class="st5" d="M50.7 24.8V10.6c0-5.4 3.7-9.8 8.2-9.8L182.8.7c4.6 0 8.3 4.3 8.3 9.8l.1 13.7-140.5.6z"/><path class="st6" d="M194 24.5c-12.3.9-24.5.9-36.7.9l-36.7.2-36.6-.2c-12.3-.1-24.5 0-36.7-.9v-.6C59.6 23 71.8 23 84 23l36.7-.2 36.7.2c12.3.1 24.5 0 36.7.9v.6z"/><path class="st4" d="M85.2 118.6c-9.8-.1-17.5-.1-27.4-.2l-27.2.1c-2.7.1-5.7.1-8.9.2 0 .1-16.8.4-21.6.8 0 0-.1.1-.1.2s0 .2.1.2c9.1.6 21.5.7 30.5.8l27.2.2c9.8-.1 17.6 0 27.4-.1v-2.2z"/><g><path class="st7" d="M84.9 120.4H34L33.9 88h50.9z"/><path class="st2" d="M85 120.6l-25.4.3-25.6.1c-.3 0-.6-.2-.6-.6L33.2 88c0-.3.2-.7.7-.7 17 .1 33.9 0 50.9.1.2 0 .4.2.4.4l-.2 32.8zm-.3-.3L84.2 88l.4.4c-17 .1-33.9.1-50.9.1l.7-.7v32.4l-.6-.6 25.3.1 25.6.6z"/><path class="st7" d="M35.9 91.1l23 13.9L83 90.2"/><path class="st2" d="M35.9 91c2 1 3.9 2.1 5.9 3.1 1.9 1.1 3.9 2.2 5.8 3.4l5.7 3.5c1.9 1.1 3.8 2.3 5.7 3.5h-.7l12.2-7.3c4-2.5 8.2-4.8 12.3-7.2.1-.1.2 0 .3.1.1.1 0 .2-.1.3-3.9 2.6-7.9 5.1-12 7.6l-12.1 7.5c-.2.1-.4.1-.7 0-1.9-1.1-3.8-2.2-5.7-3.5L47 98.6c-1.9-1.1-3.8-2.3-5.7-3.6-1.9-1.2-3.7-2.5-5.6-3.8 0 0-.1-.1 0-.1l.2-.1z"/></g></svg>