<svg xmlns="http://www.w3.org/2000/svg" viewBox="0 0 24 24"><g><path d="m22.016 8.84-.007-.037q-.006-.037-.015-.072-.007-.022-.013-.042l-.023-.062-.02-.042a.4.4 0 0 0-.03-.057l-.025-.038-.035-.052-.03-.037q-.021-.026-.043-.045-.015-.018-.035-.035a.4.4 0 0 0-.048-.04l-.037-.03-.015-.012-9.161-6.096a.86.86 0 0 0-.955 0L2.359 8.237l-.015.012-.038.028-.048.04a.638.638 0 0 0-.078.082q-.018.018-.03.037-.018.026-.035.052l-.025.038q-.016.031-.03.059l-.02.041a1 1 0 0 0-.034.106q-.01.034-.016.071-.003.02-.006.037a1 1 0 0 0-.009.114v6.093q0 .056.008.112l.007.038q.006.035.015.072a.2.2 0 0 0 .013.04q.01.032.022.063l.02.04a.4.4 0 0 0 .055.096l.035.052.03.037.042.045.035.035q.023.02.048.04l.038.03.013.01 9.163 6.095a.858.858 0 0 0 .959.004l9.163-6.095.015-.01q.02-.015.037-.03l.048-.04q.02-.017.035-.035.025-.024.043-.045l.03-.037.035-.052.025-.038a.4.4 0 0 0 .03-.058l.02-.04.023-.063c.003-.013.01-.027.013-.04q.009-.037.015-.072l.007-.037q.006-.062.007-.117V8.954a1 1 0 0 0-.008-.114m-9.154-4.376 6.751 4.49-3.016 2.013-3.735-2.492zm-1.724 0v4.009l-3.735 2.494-3.014-2.013zm-7.439 6.098L5.853 12l-2.155 1.438zm7.439 8.974-6.749-4.491 3.015-2.011 3.735 2.492zM12 14.035 8.953 12 12 9.966 15.047 12zm.862 5.501v-4.009l3.735-2.492 3.016 2.011zm7.441-6.098L18.147 12l2.156-1.438z"/></g></svg>