<svg xmlns="http://www.w3.org/2000/svg" viewBox="0 0 24 24"><g><path d="M12 22C6.486 22 2 17.514 2 12S6.486 2 12 2s10 4.486 10 10-4.486 10-10 10m8.434-8.631c-.292-.092-2.644-.794-5.32-.365 1.117 3.07 1.572 5.57 1.659 6.09a8.56 8.56 0 0 0 3.661-5.725m-5.098 6.507c-.127-.749-.623-3.361-1.822-6.477l-.056.019c-4.818 1.679-6.547 5.02-6.701 5.334A8.5 8.5 0 0 0 12 20.555a8.5 8.5 0 0 0 3.336-.679m-9.682-2.152c.193-.331 2.538-4.213 6.943-5.637q.167-.054.337-.102a29 29 0 0 0-.692-1.45c-4.266 1.277-8.405 1.223-8.778 1.216a8.497 8.497 0 0 0 2.19 5.973m-2.015-7.46c.382.005 3.901.02 7.897-1.041a55 55 0 0 0-3.167-4.94 8.57 8.57 0 0 0-4.73 5.981m6.359-6.555a46 46 0 0 1 3.187 5c3.037-1.138 4.323-2.867 4.477-3.085a8.51 8.51 0 0 0-7.664-1.915m8.614 2.903c-.18.243-1.612 2.078-4.77 3.367a27 27 0 0 1 .751 1.678c2.842-.357 5.666.215 5.948.275a8.5 8.5 0 0 0-1.929-5.32"/></g></svg>