<svg xmlns="http://www.w3.org/2000/svg" viewBox="0 0 743 743"><g><path d="M181.131 275.137a68.9 68.9 0 0 1-29.465 29.328l161.758 162.389 38.998-19.764zm213.363 214.187-38.998 19.764 81.963 82.283a68.9 68.9 0 0 1 29.471-29.332zM581.646 339.391l-91.576 46.41 6.752 43.189 103.616-52.513a68.9 68.9 0 0 1-18.792-37.086m-144.738 73.351L220.383 522.477a68.9 68.9 0 0 1 18.795 37.089L443.66 455.934zM367.275 142.438l-104.48 203.97 30.848 30.967 110.623-215.957a68.9 68.9 0 0 1-36.991-18.98M235.621 399.459l-52.922 103.314a68.9 68.9 0 0 1 36.987 18.979l46.781-91.328zM150.768 304.918a68.9 68.9 0 0 1-34.416 7.195 69 69 0 0 1-6.651-.695l30.903 197.662a68.9 68.9 0 0 1 34.416-7.195 69 69 0 0 1 6.646.695zM239.342 560.545c.707 4.589.949 9.239.72 13.877a68.9 68.9 0 0 1-7.267 27.18l197.629 31.712c-.708-4.59-.95-9.24-.723-13.878a68.9 68.9 0 0 1 7.27-27.178zM601.133 377.199l-91.219 178.082a68.9 68.9 0 0 1 36.994 18.983l91.217-178.08a68.9 68.9 0 0 1-36.992-18.985M476.723 125.33a68.9 68.9 0 0 1-29.471 29.332l141.266 141.811a68.9 68.9 0 0 1 29.468-29.332zM347.787 104.631l-178.576 90.498a68.9 68.9 0 0 1 18.793 37.086l178.574-90.502a68.9 68.9 0 0 1-18.791-37.082M446.926 154.826a68.9 68.9 0 0 1-34.983 7.483 69 69 0 0 1-6.029-.633l15.818 101.291 43.163 6.926zm-16 167.028 37.4 239.482a68.9 68.9 0 0 1 33.914-6.943q3.625.206 7.207.791L474.09 328.777zM188.131 232.975c.734 4.66.988 9.383.758 14.095a68.9 68.9 0 0 1-7.16 26.983l101.369 16.281 19.923-38.908zm173.736 27.9-19.926 38.912 239.514 38.467a69 69 0 0 1-.695-13.719 68.9 68.9 0 0 1 7.349-27.324z"/><path fill-opacity=".996" d="M412.284 156.054c34.538 1.882 64.061-24.592 65.943-59.13s-24.592-64.062-59.131-65.943c-34.538-1.882-64.061 24.592-65.943 59.13s24.593 64.062 59.131 65.943M646.144 390.82c34.538 1.881 64.062-24.593 65.943-59.131s-24.592-64.061-59.13-65.943-64.062 24.593-65.943 59.131 24.592 64.061 59.13 65.943M495.086 685.719c34.538 1.881 64.062-24.592 65.943-59.13s-24.592-64.062-59.13-65.943-64.062 24.592-65.943 59.13 24.592 64.062 59.13 65.943M167.866 633.211c34.538 1.882 64.062-24.592 65.943-59.13s-24.592-64.062-59.13-65.943-64.062 24.592-65.943 59.13 24.592 64.062 59.13 65.943M116.692 305.86c34.538 1.882 64.062-24.592 65.943-59.13s-24.592-64.062-59.131-65.943c-34.538-1.881-64.061 24.592-65.943 59.13s24.593 64.062 59.131 65.943"/></g></svg>