<svg xmlns="http://www.w3.org/2000/svg" viewBox="0 0 24 24"><g><path d="M11.973 2.352c-2.468.02-4.842.286-6.225.921 0 0-2.742 1.229-2.742 5.415 0 .958-.018 2.105.012 3.32.1 4.094.75 8.128 4.535 9.129 1.745.462 3.244.56 4.45.494 2.19-.122 3.417-.781 3.417-.781l-.072-1.588s-1.565.491-3.32.431c-1.74-.06-3.576-.188-3.858-2.324a4 4 0 0 1-.04-.598s1.709.416 3.874.516c1.324.06 2.563-.076 3.824-.226 2.418-.29 4.524-1.78 4.79-3.141.416-2.144.38-5.232.38-5.232 0-4.186-2.74-5.415-2.74-5.415-1.383-.635-3.76-.9-6.227-.921zM9.18 5.622c1.028 0 1.804.395 2.318 1.185l.502.84.5-.84c.514-.79 1.292-1.186 2.32-1.186.888 0 1.605.313 2.15.922q.795.915.794 2.469v5.068h-2.008V9.16c0-1.037-.438-1.562-1.31-1.562-.966 0-1.448.622-1.448 1.857v2.693h-1.996V9.455c0-1.235-.484-1.857-1.45-1.857-.872 0-1.308.525-1.308 1.562v4.92H6.236V9.012q-.001-1.554.793-2.469c.547-.609 1.263-.922 2.15-.922"/></g></svg>