<svg xmlns="http://www.w3.org/2000/svg" stroke-miterlimit="10" viewBox="0 0 130 130"><g><path d="M64.25 3.531c-31.144.337-57.596 24.22-60.469 55.907-3.064 33.799 21.857 63.685 55.657 66.75s63.685-21.857 66.75-55.657-21.857-63.686-55.657-66.75a62 62 0 0 0-6.281-.25m3.938 34.907C82.468 38.438 93.5 48.58 93.5 61.5v27c0 .685-.565 1.25-1.25 1.25H80.906a1.267 1.267 0 0 1-1.25-1.25V63.375c0-5.58-4.309-11.937-11.469-11.937-7.47 0-11.468 6.357-11.468 11.937V88.5c0 .685-.565 1.25-1.25 1.25H44.125c-.68 0-1.219-.57-1.219-1.25V64.156c0-.74-.529-1.364-1.25-1.531-13.13-2.93-15.115-10.285-15.375-21.125-.005-.332.142-.67.375-.906.233-.237.543-.375.875-.375l11.688.062c.66.01 1.187.529 1.218 1.188.13 4.44.438 9.406 4.438 9.406.83 0 1.443-1.179 1.813-1.719 4.41-6.48 12.28-10.718 21.5-10.718"/></g></svg>