<svg xmlns="http://www.w3.org/2000/svg" viewBox="0 0 24 24"><g><path d="M21.927 4.194A1.82 1.82 0 0 0 20.222 3H3.839a1.823 1.823 0 0 0-1.813 1.814v6.035l.069 1.2c.29 2.73 1.707 5.115 3.899 6.778l.119.089.025.018a9.9 9.9 0 0 0 3.91 1.727 10.06 10.06 0 0 0 4.049-.014.3.3 0 0 0 .064-.023 9.9 9.9 0 0 0 3.753-1.691l.025-.018q.06-.043.119-.089c2.192-1.664 3.609-4.049 3.898-6.778l.069-1.2V4.814a1.8 1.8 0 0 0-.098-.62m-4.235 6.287-4.704 4.512a1.37 1.37 0 0 1-1.898 0l-4.705-4.512a1.371 1.371 0 1 1 1.898-1.979l3.756 3.601 3.755-3.601a1.372 1.372 0 0 1 1.898 1.979"/></g></svg>