<svg xmlns="http://www.w3.org/2000/svg" viewBox="0 0 24 24"><g><path d="M12 2C6.487 2 2 6.487 2 12c0 5.514 4.487 10 10 10 5.514 0 10-4.486 10-10 0-5.513-4.486-10-10-10m.991 1.68c2.361.084 4.657 1.251 6.197 3.136.283.334.541.693.774 1.067a7.78 7.78 0 0 0-6.094-2.94 7.76 7.76 0 0 0-5.896 2.703q-.008.006-.016.014l-.152.159-.031.032a6.12 6.12 0 0 0-1.633 4.165 6.15 6.15 0 0 0 6.143 6.143c.57 0 1.123-.081 1.649-.227-1.849.839-4.131.747-5.926-.324-1.841-1.089-3.171-3.111-3.433-5.313A7.39 7.39 0 0 1 6.69 6.137C8.294 4.5 10.634 3.563 12.991 3.68m3.373 8.519c-.049-2.024-1.587-3.889-3.544-4.174-1.927-.343-3.917.857-4.451 2.661a3.67 3.67 0 0 0 .2 2.653c.39.8 1.067 1.451 1.894 1.759 1.664.654 3.63-.27 4.173-1.863.593-1.58-.396-3.423-1.94-3.776-1.52-.407-3.161.757-3.204 2.243a2.36 2.36 0 0 0 .753 1.879c.501.476 1.23.667 1.871.529a2.07 2.07 0 0 0 1.469-1.134 1.91 1.91 0 0 0-.087-1.767c-.297-.513-.859-.863-1.429-.881a1.7 1.7 0 0 0-1.437.679 1.53 1.53 0 0 0-.18 1.489q.006.016.016.03c.193.634.774 1.1 1.467 1.117a1.6 1.6 0 0 1-.97-.183c-.466-.244-.809-.747-.893-1.29a1.8 1.8 0 0 1 .499-1.539 2.02 2.02 0 0 1 1.58-.606c.593.04 1.159.35 1.517.859.364.496.51 1.156.383 1.773-.116.62-.529 1.174-1.093 1.514a2.52 2.52 0 0 1-1.914.286c-.65-.161-1.226-.606-1.584-1.206a2.83 2.83 0 0 1-.341-2.031c.143-.7.573-1.321 1.176-1.753 1.193-.883 3.056-.751 4.106.411 1.106 1.1 1.327 3.027.406 4.371-.877 1.376-2.74 2.086-4.374 1.594-1.639-.449-2.913-2.079-3.031-3.853-.07-.884.13-1.797.583-2.577.445-.777 1.155-1.432 1.972-1.862 1.64-.88 3.816-.743 5.349.424 1.251.924 2.083 2.42 2.236 4.009l.001.03c0 2.9-2.359 5.26-5.26 5.26a5.2 5.2 0 0 1-1.947-.376 5 5 0 0 0 2.613-.079 4.96 4.96 0 0 0 2.514-1.751c.618-.828.95-1.861.901-2.869M12 21.113c-5.024 0-9.111-4.087-9.111-9.113 0-4.789 3.713-8.723 8.411-9.081a7 7 0 0 0-.397.06c-2.644.453-5.017 2.106-6.32 4.409-1.309 2.301-1.391 5.19-.3 7.527 1.056 2.34 3.253 4.156 5.776 4.553 2.497.44 5.133-.483 6.787-2.301 1.719-1.797 2.269-4.529 1.486-6.796-.583-1.81-1.976-3.331-3.7-4.046 3.417.594 6.174 3.221 6.174 6.781 0 1.004-.241 2.02-.657 2.966-1.498 2.984-4.586 5.041-8.149 5.041"/></g></svg>