<svg xmlns="http://www.w3.org/2000/svg" viewBox="0 0 24 24"><g><path d="M22 11.816a2.28 2.28 0 0 0-2.277-2.277c-.593 0-1.122.24-1.526.614-1.481-.965-3.455-1.594-5.647-1.69l1.171-3.702 3.18.748a1.88 1.88 0 0 0 1.876 1.862 1.88 1.88 0 0 0 1.877-1.878 1.88 1.88 0 0 0-1.877-1.877c-.769 0-1.431.466-1.72 1.13l-3.508-.826a.386.386 0 0 0-.46.261l-1.35 4.268c-2.316.038-4.411.67-5.97 1.671a2.24 2.24 0 0 0-1.492-.581A2.28 2.28 0 0 0 2 11.816c0 .814.433 1.523 1.078 1.925a4 4 0 0 0-.061.672c0 3.292 4.011 5.97 8.941 5.97s8.941-2.678 8.941-5.97q-.002-.32-.053-.632A2.26 2.26 0 0 0 22 11.816m-3.224-7.422a1.1 1.1 0 1 1-.001 2.199 1.1 1.1 0 0 1 .001-2.199M2.777 11.816c0-.827.672-1.5 1.499-1.5.313 0 .598.103.838.269-.851.676-1.477 1.479-1.812 2.36a1.48 1.48 0 0 1-.525-1.129m9.182 7.79c-4.501 0-8.164-2.329-8.164-5.193S7.457 9.22 11.959 9.22s8.164 2.329 8.164 5.193-3.663 5.193-8.164 5.193m8.677-6.605c-.326-.89-.948-1.701-1.797-2.384.248-.186.55-.301.883-.301.827 0 1.5.673 1.5 1.5.001.483-.23.911-.586 1.185m-11.64 1.703c-.76 0-1.397-.616-1.397-1.376s.637-1.397 1.397-1.397 1.376.637 1.376 1.397-.616 1.376-1.376 1.376m7.405-1.376c0 .76-.616 1.376-1.376 1.376s-1.399-.616-1.399-1.376.639-1.397 1.399-1.397 1.376.637 1.376 1.397m-1.172 3.38a.39.39 0 0 1 0 .55c-.674.674-1.727 1.002-3.219 1.002l-.011-.002-.011.002c-1.492 0-2.544-.328-3.218-1.002a.389.389 0 1 1 .55-.55c.521.521 1.394.775 2.669.775l.011.002.011-.002c1.275 0 2.148-.253 2.669-.775a.387.387 0 0 1 .549 0"/></g></svg>