<svg xmlns="http://www.w3.org/2000/svg" viewBox="0 0 24 24"><g><path d="m10.113 2.699.1-.02q.05.025.098.051zM2.72 10.223l-.017.103q.025.048.051.095zm18.555 3.548q.009-.053.018-.106-.025-.047-.052-.095zm-7.712 7.428q.049.027.096.053l.105-.017zM22 16.386a5.55 5.55 0 0 1-1.637 3.953 5.55 5.55 0 0 1-3.953 1.637 5.6 5.6 0 0 1-2.75-.725l.105-.017-.202-.035q.049.027.096.053a9.5 9.5 0 0 1-1.654.147 9.4 9.4 0 0 1-3.676-.743 9.4 9.4 0 0 1-3.002-2.023 9.4 9.4 0 0 1-2.023-3.002 9.4 9.4 0 0 1-.743-3.676c0-.546.049-1.093.142-1.628q.025.048.051.095l-.034-.199-.017.103A5.6 5.6 0 0 1 2 7.615c0-1.493.582-2.898 1.637-3.953A5.56 5.56 0 0 1 7.59 2.024c.915 0 1.818.228 2.622.655l-.1.02.199.031q-.049-.026-.098-.051l.004-.001a9.5 9.5 0 0 1 1.788-.169 9.41 9.41 0 0 1 6.678 2.766 9.4 9.4 0 0 1 2.024 3.002 9.4 9.4 0 0 1 .743 3.676c0 .575-.054 1.15-.157 1.712q-.025-.047-.052-.095l.034.201q.009-.053.018-.106c.461.829.707 1.767.707 2.721m-5.183-2.248c0-1.331-.613-2.743-3.033-3.282l-2.209-.49c-.84-.192-1.807-.444-1.807-1.237s.679-1.348 1.903-1.348c2.468 0 2.243 1.696 3.468 1.696.645 0 1.209-.379 1.209-1.031 0-1.521-2.435-2.663-4.5-2.663-2.242 0-4.63.952-4.63 3.488 0 1.221.436 2.521 2.839 3.123l2.984.745c.903.223 1.129.731 1.129 1.189 0 .762-.758 1.507-2.129 1.507-2.679 0-2.307-2.062-3.743-2.062-.645 0-1.113.444-1.113 1.078 0 1.236 1.501 2.886 4.856 2.886 3.195 0 4.776-1.538 4.776-3.599"/></g></svg>