<svg xmlns="http://www.w3.org/2000/svg" viewBox="0 0 24 24"><g><path d="M19 3H5a2 2 0 0 0-2 2v14a2 2 0 0 0 2 2h14a2 2 0 0 0 2-2V5a2 2 0 0 0-2-2m-2.534 6.71q.007.148.007.298c0 3.045-2.318 6.556-6.556 6.556a6.5 6.5 0 0 1-3.532-1.035q.27.032.55.032a4.63 4.63 0 0 0 2.862-.986 2.31 2.31 0 0 1-2.152-1.6 2.3 2.3 0 0 0 1.04-.04 2.306 2.306 0 0 1-1.848-2.259v-.029c.311.173.666.276 1.044.288a2.303 2.303 0 0 1-.713-3.076 6.54 6.54 0 0 0 4.749 2.407 2.305 2.305 0 0 1 3.926-2.101 4.6 4.6 0 0 0 1.463-.559 2.3 2.3 0 0 1-1.013 1.275c.466-.056.91-.18 1.323-.363-.31.461-.7.867-1.15 1.192"/></g></svg>