<svg xmlns="http://www.w3.org/2000/svg" viewBox="0 0 24 24"><g><path d="M22.23 5.924a8.2 8.2 0 0 1-2.357.646 4.12 4.12 0 0 0 1.804-2.27 8.2 8.2 0 0 1-2.606.996 4.103 4.103 0 0 0-6.991 3.742 11.65 11.65 0 0 1-8.457-4.287 4.1 4.1 0 0 0-.556 2.063 4.1 4.1 0 0 0 1.825 3.415 4.1 4.1 0 0 1-1.859-.513v.052a4.104 4.104 0 0 0 3.292 4.023 4.1 4.1 0 0 1-1.853.07 4.11 4.11 0 0 0 3.833 2.85 8.24 8.24 0 0 1-5.096 1.756 8 8 0 0 1-.979-.057 11.6 11.6 0 0 0 6.29 1.843c7.547 0 11.675-6.252 11.675-11.675q0-.267-.012-.531a8.3 8.3 0 0 0 2.047-2.123"/></g></svg>