<svg xmlns="http://www.w3.org/2000/svg" viewBox="0 0 24 24"><g><path d="M12.158 12.786 9.46 20.625a9 9 0 0 0 5.526-.144 1 1 0 0 1-.065-.124zM3.009 12a8.99 8.99 0 0 0 5.067 8.092L3.788 8.341A8.95 8.95 0 0 0 3.009 12m15.06-.454c0-1.112-.399-1.881-.741-2.48-.456-.741-.883-1.368-.883-2.109 0-.826.627-1.596 1.51-1.596q.06.002.116.007A8.96 8.96 0 0 0 12 3.009a8.98 8.98 0 0 0-7.512 4.052c.211.007.41.011.579.011.94 0 2.396-.114 2.396-.114.484-.028.541.684.057.741 0 0-.487.057-1.029.085l3.274 9.739 1.968-5.901-1.401-3.838c-.484-.028-.943-.085-.943-.085-.485-.029-.428-.769.057-.741 0 0 1.484.114 2.368.114.94 0 2.397-.114 2.397-.114.485-.028.542.684.057.741 0 0-.488.057-1.029.085l3.249 9.665.897-2.996q.684-1.753.684-2.907m1.82-3.86q.06.428.06.924c0 .912-.171 1.938-.684 3.22l-2.746 7.94a8.98 8.98 0 0 0 4.47-7.771 8.9 8.9 0 0 0-1.1-4.313M12 22C6.486 22 2 17.514 2 12S6.486 2 12 2s10 4.486 10 10-4.486 10-10 10"/></g></svg>