<svg xmlns="http://www.w3.org/2000/svg" xmlns:xlink="http://www.w3.org/1999/xlink" id="Layer_1" x="0" y="0" version="1.1" viewBox="0 0 128.7 100.1" style="enable-background:new 0 0 128.7 100.1" xml:space="preserve"><style type="text/css">.st0{fill:#6f93ad}.st1{fill:#bbc9d5}.st2{fill:#fff}.st3{fill:#ccced0}.st4{fill:#d8dee4}.st5{fill:#46799a}</style><g><g><rect width="39.5" height="17.5" x="57.1" y="80.1" class="st0"/><path d="M128.7,82H22.5V4.9c0-2.7,2.2-4.9,4.9-4.9h101.3V82z" class="st1"/><g><rect width="88.1" height="62.1" x="31.3" y="10" class="st2"/></g><g><path d="M121.4,72.4c-7.7,0.8-15.4,0.7-23.2,0.7l-23.2,0L52,72.8c-7.7-0.1-15.4-0.1-23.2-1l0-0.5 c7.7-0.8,15.4-0.7,23.2-0.7l23.2,0L98.3,71c7.7,0.1,15.4,0.1,23.2,0.9L121.4,72.4z" class="st0"/></g><g><path d="M108.6,98.5c-5.2,0.8-10.5,0.7-15.7,0.7c-5.2,0-10.5,0-15.7,0c-5.2-0.1-10.5-0.1-15.7-0.3 c-5.2-0.1-10.5-0.1-15.7-1l0-0.5c5.2-0.8,10.5-0.7,15.7-0.7c5.2,0,10.5,0,15.7,0c5.2,0.1,10.5,0.1,15.7,0.3 c5.2,0.1,10.5,0.1,15.7,0.9L108.6,98.5z" class="st0"/></g><g><path d="M120.4,76.9c-1.1,0.6-2.2,0.8-3.4,0.9c-1.1,0.1-2.3,0.2-3.4,0.3c-1.1,0-2.3,0-3.4,0c-1.1,0-2.3-0.1-3.4-0.4 c-0.2-0.1-0.4-0.3-0.3-0.5c0-0.1,0.1-0.2,0.3-0.3c1.1-0.4,2.2-0.6,3.4-0.7c1.1-0.1,2.3-0.2,3.4-0.3c1.1-0.1,2.3-0.1,3.4,0 c1.1,0,2.3,0.2,3.4,0.7c0.1,0,0.2,0.2,0.1,0.3C120.5,76.8,120.4,76.9,120.4,76.9z" class="st2"/></g></g><g><circle cx="8.3" cy="37.8" r="2" class="st3"/><circle cx="8.3" cy="29.4" r="2" class="st1"/><circle cx="8.3" cy="20.4" r="2" class="st3"/><circle cx="16.3" cy="20.4" r="2" class="st3"/></g><g><g><g><path d="M99.2,61.2H52.3V26.7h50V58C102.3,59.8,100.9,61.2,99.2,61.2z" class="st4"/></g><path d="M102.3,27.7h-50V24c0-2.9,2.3-5.2,5.2-5.2h39.6c2.9,0,5.2,2.3,5.2,5.2V27.7z" class="st5"/></g><g><path d="M55.7,46c4-1.2,8.2-1.1,12.2-0.6c4,0.5,8,1.5,11.8,2.8c3.8,1.3,7.6,2.9,11.1,4.8c3.5,2,7,4.2,9.5,7.7 c0.2,0.3,0.1,0.7-0.2,0.9c-0.3,0.2-0.7,0.2-0.9-0.1l-0.1-0.1c-1.2-1.4-2.7-2.7-4.3-3.8c-1.6-1.1-3.3-2.1-5-3 c-3.5-1.8-7.1-3.3-10.9-4.6c-3.7-1.3-7.5-2.3-11.4-2.9c-1-0.1-1.9-0.2-2.9-0.3c-1-0.1-1.9-0.1-2.9-0.1c-1,0-1.9,0.1-2.9,0.1 c-1,0.1-1.9,0.3-2.8,0.5l-0.1,0c-0.4,0.1-0.7-0.2-0.8-0.6C55.1,46.4,55.4,46.1,55.7,46z" class="st2"/></g></g></g><g><path d="M5,99.3c-2.2,0-4-1.8-4-4V49.9c0-2.2,1.8-4,4-4h21c2.2,0,4,1.8,4,4v45.5c0,2.2-1.8,4-4,4H8.7" class="st2"/><g><rect width="28.9" height="35.9" x="1.1" y="54.6" class="st4"/></g><g><path d="M94.4,39.9c-0.8,1-1.9,1.7-3.2,1.8c-1.2,0.2-2.6-0.1-3.6-0.9c-1-0.8-1.8-2-2-3.3c-0.2-1.3,0.2-2.7,1-3.7 c0.8-1.1,2.1-1.8,3.4-1.9c1.3-0.1,2.7,0.3,3.7,1.1c1,0.8,1.6,2.1,1.7,3.3C95.6,37.6,95.2,38.9,94.4,39.9z M93.4,39 c0.6-0.7,0.8-1.7,0.7-2.5c-0.1-0.9-0.7-1.7-1.4-2.2c-1.4-1-3.4-0.7-4.5,0.6c-1.1,1.3-0.9,3.4,0.4,4.5c0.7,0.6,1.6,0.9,2.4,0.8 C91.9,40.2,92.8,39.7,93.4,39z" class="st1"/></g><g><path d="M23.9,73.5c-0.8,1-1.9,1.7-3.2,1.8c-1.2,0.2-2.6-0.1-3.6-0.9c-1-0.8-1.8-2-2-3.3c-0.2-1.3,0.2-2.7,1-3.7 c0.8-1.1,2.1-1.8,3.4-1.9c1.3-0.1,2.7,0.3,3.7,1.1c1,0.8,1.6,2.1,1.7,3.3C25.1,71.3,24.7,72.6,23.9,73.5z M22.8,72.7 c0.6-0.7,0.8-1.7,0.7-2.5c-0.1-0.9-0.7-1.7-1.4-2.2c-1.4-1-3.4-0.7-4.5,0.6c-1.1,1.3-0.9,3.4,0.4,4.5c0.7,0.6,1.6,0.9,2.4,0.8 C21.4,73.9,22.3,73.4,22.8,72.7z" class="st1"/></g><g><g><rect width="28.2" height="6.5" x="1.4" y="54.6" class="st5"/></g></g><g><g><path d="M4.5,81.8c2.3-0.9,4.7-1.1,7.1-1.1c2.4,0.1,4.8,0.5,7,1.2c2.3,0.7,4.5,1.8,6.4,3.3c1.9,1.5,3.5,3.4,4.4,5.7 c0.1,0.3,0,0.7-0.4,0.9c-0.3,0.1-0.7,0-0.8-0.3l0,0c-1.1-1.9-2.6-3.5-4.3-4.8c-1.8-1.3-3.8-2.2-5.9-2.9c-2.1-0.7-4.3-1.1-6.5-1.3 C9.3,82.4,7,82.5,4.9,83l0,0c-0.4,0.1-0.7-0.1-0.8-0.5C4,82.2,4.2,81.9,4.5,81.8z" class="st2"/></g></g><g><path d="M5,99.8c-1.8,0.1-3.6-1.2-4.3-2.9c-0.2-0.4-0.3-0.9-0.3-1.3c0-0.5,0-0.8,0-1.2l0-2.4l-0.2-9.6L0.1,63L0,53.4 L0,51l0-1.2c0-0.5,0.1-1,0.3-1.5c0.6-2,2.6-3.4,4.6-3.4l19.3-0.1l1.2,0l0.6,0c0.2,0,0.5,0,0.8,0.1c1,0.1,2,0.6,2.8,1.3 c0.8,0.7,1.3,1.7,1.5,2.7c0.1,0.5,0.1,1.1,0.1,1.4l0,1.2l0,9.6c0,6.4,0,12.8-0.1,19.3L30.9,90l-0.1,4.8l0,0.6c0,0.2,0,0.5-0.1,0.7 c-0.1,0.5-0.2,0.9-0.5,1.4c-0.4,0.9-1.2,1.6-2,2c-0.4,0.2-0.9,0.4-1.4,0.5c-0.5,0.1-1,0.1-1.3,0.1l-2.4,0l-4.8-0.1l-9.6-0.2 c-0.3,0-0.5-0.2-0.5-0.5c0-0.3,0.2-0.5,0.5-0.5l9.6-0.2l4.8-0.1l2.4,0c0.4,0,0.7,0,1.1-0.1c0.3-0.1,0.6-0.2,0.9-0.3 c0.6-0.3,1-0.8,1.3-1.4c0.1-0.3,0.2-0.6,0.3-0.9c0-0.2,0-0.3,0-0.5l0-0.6L29.1,90L29,80.4c-0.1-6.4-0.1-12.8-0.1-19.3l0-9.6 c0-0.8,0-1.7-0.1-2.2c-0.1-0.6-0.4-1.1-0.8-1.5c-0.4-0.4-0.9-0.7-1.5-0.7c-0.1,0-0.3,0-0.4,0l-0.6,0l-1.2,0L4.9,47 c-1.2,0-2.3,0.8-2.6,2c-0.1,0.3-0.2,0.6-0.2,0.9l0,1.2l0,2.4L2.1,63L1.9,82.3L1.7,92l0,2.4c0,0.4,0,0.8,0,1.2c0,0.3,0.1,0.7,0.2,1 c0.4,1.3,1.8,2.3,3.2,2.3c0.3,0,0.5,0.2,0.5,0.5C5.5,99.6,5.3,99.8,5,99.8L5,99.8z" class="st5"/></g></g></svg>