<svg enable-background="new 0 0 128.7 100.1" viewBox="0 0 128.7 100.1" xmlns="http://www.w3.org/2000/svg"><path d="m57.1 80.1h39.5v17.5h-39.5z" fill="#6f93ad"/><path d="m128.7 82h-106.2v-77.1c0-2.7 2.2-4.9 4.9-4.9h101.3z" fill="#bbc9d5"/><path d="m31.3 10h88.1v62.1h-88.1z" fill="#fff"/><path d="m121.4 72.4c-7.7.8-15.4.7-23.2.7h-23.2l-23-.3c-7.7-.1-15.4-.1-23.2-1v-.5c7.7-.8 15.4-.7 23.2-.7h23.2l23.1.4c7.7.1 15.4.1 23.2.9z" fill="#6f93ad"/><path d="m108.6 98.5c-5.2.8-10.5.7-15.7.7s-10.5 0-15.7 0c-5.2-.1-10.5-.1-15.7-.3-5.2-.1-10.5-.1-15.7-1v-.5c5.2-.8 10.5-.7 15.7-.7h15.7c5.2.1 10.5.1 15.7.3 5.2.1 10.5.1 15.7.9z" fill="#6f93ad"/><path d="m120.4 76.9c-1.1.6-2.2.8-3.4.9-1.1.1-2.3.2-3.4.3-1.1 0-2.3 0-3.4 0s-2.3-.1-3.4-.4c-.2-.1-.4-.3-.3-.5 0-.1.1-.2.3-.3 1.1-.4 2.2-.6 3.4-.7 1.1-.1 2.3-.2 3.4-.3s2.3-.1 3.4 0c1.1 0 2.3.2 3.4.7.1 0 .2.2.1.3 0-.1-.1 0-.1 0z" fill="#fff"/><circle cx="8.3" cy="37.8" fill="#ccced0" r="2"/><circle cx="8.3" cy="29.4" fill="#bbc9d5" r="2"/><circle cx="8.3" cy="20.4" fill="#ccced0" r="2"/><circle cx="16.3" cy="20.4" fill="#ccced0" r="2"/><path d="m99.2 61.2h-46.9v-34.5h50v31.3c0 1.8-1.4 3.2-3.1 3.2z" fill="#d8dee4"/><path d="m102.3 27.7h-50v-3.7c0-2.9 2.3-5.2 5.2-5.2h39.6c2.9 0 5.2 2.3 5.2 5.2z" fill="#46799a"/><path d="m55.7 46c4-1.2 8.2-1.1 12.2-.6s8 1.5 11.8 2.8 7.6 2.9 11.1 4.8c3.5 2 7 4.2 9.5 7.7.2.3.1.7-.2.9s-.7.2-.9-.1l-.1-.1c-1.2-1.4-2.7-2.7-4.3-3.8s-3.3-2.1-5-3c-3.5-1.8-7.1-3.3-10.9-4.6-3.7-1.3-7.5-2.3-11.4-2.9-1-.1-1.9-.2-2.9-.3s-1.9-.1-2.9-.1-1.9.1-2.9.1c-1 .1-1.9.3-2.8.5h-.1c-.4.1-.7-.2-.8-.6 0-.3.3-.6.6-.7z" fill="#fff"/><path d="m5 99.3c-2.2 0-4-1.8-4-4v-45.4c0-2.2 1.8-4 4-4h21c2.2 0 4 1.8 4 4v45.5c0 2.2-1.8 4-4 4h-17.3" fill="#fff"/><path d="m1.1 54.6h28.9v35.9h-28.9z" fill="#d8dee4"/><path d="m94.4 39.9c-.8 1-1.9 1.7-3.2 1.8-1.2.2-2.6-.1-3.6-.9s-1.8-2-2-3.3.2-2.7 1-3.7c.8-1.1 2.1-1.8 3.4-1.9s2.7.3 3.7 1.1 1.6 2.1 1.7 3.3c.2 1.3-.2 2.6-1 3.6zm-1-.9c.6-.7.8-1.7.7-2.5-.1-.9-.7-1.7-1.4-2.2-1.4-1-3.4-.7-4.5.6s-.9 3.4.4 4.5c.7.6 1.6.9 2.4.8.9 0 1.8-.5 2.4-1.2z" fill="#bbc9d5"/><path d="m23.9 73.5c-.8 1-1.9 1.7-3.2 1.8-1.2.2-2.6-.1-3.6-.9s-1.8-2-2-3.3.2-2.7 1-3.7c.8-1.1 2.1-1.8 3.4-1.9s2.7.3 3.7 1.1 1.6 2.1 1.7 3.3c.2 1.4-.2 2.7-1 3.6zm-1.1-.8c.6-.7.8-1.7.7-2.5-.1-.9-.7-1.7-1.4-2.2-1.4-1-3.4-.7-4.5.6s-.9 3.4.4 4.5c.7.6 1.6.9 2.4.8 1 0 1.9-.5 2.4-1.2z" fill="#bbc9d5"/><path d="m1.4 54.6h28.2v6.5h-28.2z" fill="#46799a"/><path d="m4.5 81.8c2.3-.9 4.7-1.1 7.1-1.1 2.4.1 4.8.5 7 1.2 2.3.7 4.5 1.8 6.4 3.3s3.5 3.4 4.4 5.7c.1.3 0 .7-.4.9-.3.1-.7 0-.8-.3-1.1-1.9-2.6-3.5-4.3-4.8-1.8-1.3-3.8-2.2-5.9-2.9s-4.3-1.1-6.5-1.3c-2.2-.1-4.5-0-6.6.5-.4.1-.7-.1-.8-.5-.1-.3.1-.6.4-.7z" fill="#fff"/><path d="m5 99.8c-1.8.1-3.6-1.2-4.3-2.9-.2-.4-.3-.9-.3-1.3 0-.5 0-.8 0-1.2v-2.4l-.2-9.6-.1-19.4-.1-9.6v-2.4-1.2c0-.5.1-1 .3-1.5.6-2 2.6-3.4 4.6-3.4l19.3-.1h1.2.6c.2 0 .5 0 .8.1 1 .1 2 .6 2.8 1.3s1.3 1.7 1.5 2.7c.1.5.1 1.1.1 1.4v1.2 9.6c0 6.4 0 12.8-.1 19.3l-.2 9.6-.1 4.8v.6c0 .2 0 .5-.1.7-.1.5-.2.9-.5 1.4-.4.9-1.2 1.6-2 2-.4.2-.9.4-1.4.5s-1 .1-1.3.1h-2.4l-4.8-.1-9.6-.2c-.3 0-.5-.2-.5-.5s.2-.5.5-.5l9.6-.2 4.8-.1h2.4c.4 0 .7 0 1.1-.1.3-.1.6-.2.9-.3.6-.3 1-.8 1.3-1.4.1-.3.2-.6.3-.9 0-.2 0-.3 0-.5v-.6-4.7l-.1-9.6c-.1-6.4-.1-12.8-.1-19.3v-9.6c0-.8 0-1.7-.1-2.2-.1-.6-.4-1.1-.8-1.5s-.9-.7-1.5-.7c-.1 0-.3 0-.4 0h-.6-1.2l-19.4-.1c-1.2 0-2.3.8-2.6 2-.1.3-.2.6-.2.9v1.2 2.4 9.5l-.2 19.3-.2 9.7v2.4 1.2c0 .3.1.7.2 1 .4 1.3 1.8 2.3 3.2 2.3.3 0 .5.2.5.5-.1.2-.3.4-.6.4z" fill="#46799a"/></svg>