<svg id="Layer_1" data-name="Layer 1" xmlns="http://www.w3.org/2000/svg" viewBox="0 0 230 54.35"><defs><style>.cls-1{fill:#204A69}.cls-2{fill:#BBC9D5}.cls-3{fill:#204A69}.cls-4{fill:#B0B5B8}.cls-5{fill:#CCCED0}.cls-6{fill:#46799A}.cls-7{fill:#969CA1}.cls-8{fill:none;stroke:#CCCED0;stroke-linecap:round;stroke-linejoin:round;stroke-width:.88px}.cls-9{fill:#6F93AD}.cls-10{fill:#fff}</style></defs><title>characters</title><path class="cls-1" d="M151 29.16c3.19-2 16.09-2.44 18.47 1.25 0 0-3.5-7.9-8.39-9.63-7.16-1.61-8.71 4.62-10.08 8.38z" transform="translate(-16.68 -13.89)"/><path class="cls-2" d="M150.4 47.25a7 7 0 0 1-1-3 22.87 22.87 0 0 1-.35-3.08 35.84 35.84 0 0 1 .19-6.13 39.61 39.61 0 0 1 1.16-6 15.55 15.55 0 0 1 2.51-5.6.22.22 0 0 1 .3 0 .21.21 0 0 1 .07.22c-.59 1.93-1.15 3.79-1.64 5.72a50.23 50.23 0 0 0-1 5.84 41.89 41.89 0 0 0-.25 5.92 21.87 21.87 0 0 0 .28 2.92c.12 1 .49 1.85.55 2.85a.43.43 0 0 1-.77.28z" transform="translate(-16.68 -13.89)"/><path class="cls-2" d="M157 67.87a10.22 10.22 0 0 1-6.49-4.21 17 17 0 0 1-1.9-3.41 33.87 33.87 0 0 1-1.31-3.61c-.74-2.44-1.32-4.84-2.17-7.2a47.2 47.2 0 0 1-2-7.38A25.37 25.37 0 0 1 145 26.92a27.67 27.67 0 0 1 4.24-6.43 19.86 19.86 0 0 1 5.94-5 13.42 13.42 0 0 1 7.63-1.49 14.85 14.85 0 0 1 7.24 2.92 16.89 16.89 0 0 1 5 5.95 10.72 10.72 0 0 1 1.11 3.83c.07 1.36 0 2.55 0 3.83 0 5 0 10-.1 15.1a21.15 21.15 0 0 1-1.67 7.49 23 23 0 0 1-4.12 6.41.21.21 0 0 1-.32-.26 25.54 25.54 0 0 0 3.66-6.46 22 22 0 0 0 1.39-7.26l-.07-15.07v-3.72a9.55 9.55 0 0 0-1-3.37 15.64 15.64 0 0 0-4.64-5.46 13.52 13.52 0 0 0-6.59-2.64 12.05 12.05 0 0 0-6.9 1.43 18.71 18.71 0 0 0-5.52 4.68 26.15 26.15 0 0 0-4.06 6.1 24 24 0 0 0-1.79 14.34 47.36 47.36 0 0 0 1.9 7.19c.85 2.37 1.45 4.87 2.17 7.24a22.45 22.45 0 0 0 3 6.66 10.67 10.67 0 0 0 5.67 4.14.41.41 0 0 1 .26.52.4.4 0 0 1-.43.28z" transform="translate(-16.68 -13.89)"/><path class="cls-2" d="M176 37.37a9 9 0 0 1 1.31 2.6c.34.91.66 1.83.91 2.77a22.32 22.32 0 0 1 .87 5.81 20.11 20.11 0 0 1-.79 5.83 15.13 15.13 0 0 1-2.49 5.25.2.2 0 0 1-.29 0 .21.21 0 0 1-.08-.22c.51-1.86 1.16-3.6 1.62-5.4a20.74 20.74 0 0 0 .64-5.48 23.8 23.8 0 0 0-.75-5.49c-.23-.9-.51-1.79-.83-2.67a13.43 13.43 0 0 1-.87-2.69.42.42 0 0 1 .38-.47.42.42 0 0 1 .37.16zM158.65 19.75a6.41 6.41 0 0 1 2.88.34l.71.2c.23.08.45.2.68.3a7.41 7.41 0 0 1 1.31.68 10.92 10.92 0 0 1 4 4.29A17.48 17.48 0 0 1 170 31a16.31 16.31 0 0 1 .09 5.66.21.21 0 0 1-.24.17.22.22 0 0 1-.17-.16c-.42-1.84-.59-3.65-.94-5.43a18.21 18.21 0 0 0-1.74-5.02 10.3 10.3 0 0 0-3.45-3.84 7 7 0 0 0-1.14-.62c-.2-.09-.39-.19-.59-.27l-.63-.19a26.31 26.31 0 0 1-2.58-.72h-.07a.42.42 0 0 1-.18-.56.41.41 0 0 1 .29-.27z" transform="translate(-16.68 -13.89)"/><path class="cls-2" d="M150.36 34.52c.84 1.66 1.31 3.42 2 5.12a29.08 29.08 0 0 0 2.27 4.85 7.52 7.52 0 0 0 3.73 3.29 8.88 8.88 0 0 0 2.49.5 10.79 10.79 0 0 0 1.26 0 3.34 3.34 0 0 0 1.11-.27 8 8 0 0 0 3.31-3.69 29.37 29.37 0 0 0 2-5c1.08-3.46 1.78-7.05 3-10.55a.21.21 0 0 1 .27-.13.21.21 0 0 1 .13.23 71 71 0 0 1-2.22 10.81 31 31 0 0 1-2 5.23 13.37 13.37 0 0 1-1.56 2.43 6.65 6.65 0 0 1-2.37 1.9 4.55 4.55 0 0 1-1.54.4 10.36 10.36 0 0 1-1.48 0 10 10 0 0 1-2.88-.61 8.88 8.88 0 0 1-4.36-3.87 30.44 30.44 0 0 1-2.34-5.11 31 31 0 0 1-1.57-5.3.41.41 0 0 1 .35-.48.43.43 0 0 1 .4.25z" transform="translate(-16.68 -13.89)"/><path class="cls-1" d="M161.25 35.21a10.78 10.78 0 0 1 .31 2.31v1.16a6.58 6.58 0 0 1-.15 1.16.45.45 0 0 1-.55.34.47.47 0 0 1-.35-.34 7.67 7.67 0 0 1-.15-1.16v-1.16a11.43 11.43 0 0 1 .3-2.31.32.32 0 0 1 .62 0z" transform="translate(-16.68 -13.89)"/><rect class="cls-3" x="139.04" y="20.66" width="1.67" height="2.97" rx=".83" ry=".83"/><rect class="cls-3" x="147.63" y="20.66" width="1.67" height="2.97" rx=".83" ry=".83"/><path class="cls-1" d="M159.72 42.12a3 3 0 0 0 1.4.38 2.41 2.41 0 0 0 .72-.09 1.56 1.56 0 0 0 .61-.32h.05a.42.42 0 0 1 .66.48 1.82 1.82 0 0 1-.86.91 2.64 2.64 0 0 1-1.18.29 2.77 2.77 0 0 1-1.17-.25 1.94 1.94 0 0 1-.9-.87.41.41 0 0 1 .21-.55.4.4 0 0 1 .37 0zM157.17 32h-.65c-.25 0-.51 0-.77.07s-.51.1-.76.15a4.51 4.51 0 0 0-.68.22h-.07a.42.42 0 0 1-.55-.22.4.4 0 0 1 .05-.41 2.19 2.19 0 0 1 .85-.68 3.76 3.76 0 0 1 1-.3 3.85 3.85 0 0 1 1 0 1.89 1.89 0 0 1 1.06.46.37.37 0 0 1 0 .53.39.39 0 0 1-.24.12zM163.48 31.35a1.89 1.89 0 0 1 1.06-.46 3.85 3.85 0 0 1 1 0 3.76 3.76 0 0 1 1 .3 2.19 2.19 0 0 1 .85.68.41.41 0 0 1-.09.58.43.43 0 0 1-.41.05h-.07a4.51 4.51 0 0 0-.68-.22c-.25-.05-.5-.12-.76-.15s-.52-.07-.77-.07h-.91a.38.38 0 0 1-.34-.41.36.36 0 0 1 .12-.3z" transform="translate(-16.68 -13.89)"/><circle class="cls-1" cx="147.89" cy="27.43" r=".43"/><path class="cls-4" d="M80.55 28.19h12.42v17.86H80.55z"/><path class="cls-4" d="M110.2 24c3.19 7 2.75 22.9-8.33 22.9S90 31 93.15 24" transform="translate(-16.68 -13.89)"/><path class="cls-5" d="M33.31 42.1c2.64-.28 15.25-.6 17.25 0 0 0-1.34 8.56-8.37 8.48s-8.88-8.48-8.88-8.48z" transform="translate(-16.68 -13.89)"/><path class="cls-6" d="M93.46 53l-2.64 1.45.45-20.17a13.07 13.07 0 0 0 6.08 10.08l-.15 2.71A7.2 7.2 0 0 1 93.46 53z" transform="translate(-16.68 -13.89)"/><rect class="cls-3" x="19.67" y="20.21" width="1.77" height="3.15" rx=".88" ry=".88"/><path class="cls-1" d="M42.61 35.55a9.84 9.84 0 0 1 .22 1.79 8.3 8.3 0 0 1-.12 1.79.32.32 0 0 1-.39.25.31.31 0 0 1-.25-.25 8.3 8.3 0 0 1-.07-1.79 9.84 9.84 0 0 1 .22-1.79.22.22 0 0 1 .27-.17.23.23 0 0 1 .12.17z" transform="translate(-16.68 -13.89)"/><rect class="cls-3" x="29.8" y="20.21" width="1.77" height="3.15" rx=".88" ry=".88"/><path class="cls-1" d="M40.16 43.22a7 7 0 0 0 2.23.37 8.93 8.93 0 0 0 1.16 0 3.18 3.18 0 0 0 1-.28.29.29 0 0 1 .4.11.29.29 0 0 1-.06.36 2.6 2.6 0 0 1-1.26.61 5.84 5.84 0 0 1-1.31.14 6.44 6.44 0 0 1-1.31-.17 3.15 3.15 0 0 1-1.24-.59.3.3 0 0 1 0-.42.32.32 0 0 1 .33-.08zM45.12 30.5a2 2 0 0 1 1-.53 4 4 0 0 1 1-.09 3 3 0 0 1 2 .7.29.29 0 0 1 0 .41.3.3 0 0 1-.33.07 4.59 4.59 0 0 0-1.64-.29 6.12 6.12 0 0 0-.86 0 3.1 3.1 0 0 0-.76.15h-.08a.3.3 0 0 1-.37-.18.28.28 0 0 1 .04-.24zM39 30.94a3.11 3.11 0 0 0-.75-.15 6.33 6.33 0 0 0-.87 0 4.59 4.59 0 0 0-1.64.29.29.29 0 0 1-.32-.48 3 3 0 0 1 2-.7 4 4 0 0 1 1 .09 2 2 0 0 1 1 .53.3.3 0 0 1 0 .41.33.33 0 0 1-.3.06z" transform="translate(-16.68 -13.89)"/><path class="cls-5" d="M52.73 33.1a27.8 27.8 0 0 1-2.19 9.9 9.59 9.59 0 0 1-3.33 3.93 9 9 0 0 1-5 1.36 11 11 0 0 1-5-1.37 10.46 10.46 0 0 1-3.74-3.59 13.45 13.45 0 0 1-1.79-4.83 26.54 26.54 0 0 1-.32-5.1 21.45 21.45 0 0 1 2.34-9.9 10.93 10.93 0 0 1 3.43-3.85 8.63 8.63 0 0 1 4.94-1.52 10.32 10.32 0 0 1 8.56 5.11 16.14 16.14 0 0 1 2.1 9.86zm-.58 0a15.5 15.5 0 0 0-2.07-9.47 9.7 9.7 0 0 0-8-4.75 8 8 0 0 0-4.52 1.43 10.23 10.23 0 0 0-3.17 3.61 20.46 20.46 0 0 0-2.14 9.53c0 3.29.26 6.69 2 9.47a9.79 9.79 0 0 0 8 4.65 8.38 8.38 0 0 0 4.59-1.21 8.79 8.79 0 0 0 3.11-3.63 27.19 27.19 0 0 0 2.2-9.67z" transform="translate(-16.68 -13.89)"/><path class="cls-7" d="M29.85 34.18c0 .52.08 1.09.1 1.65a9.47 9.47 0 0 1-.09 1.68.3.3 0 0 1-.59 0 6.53 6.53 0 0 1-.2-1.7 7 7 0 0 1 .2-1.74.29.29 0 0 1 .37-.2.29.29 0 0 1 .21.26z" transform="translate(-16.68 -13.89)"/><path class="cls-9" d="M41.12 33.68l.07 1.87a4.15 4.15 0 0 1-.29 2 3 3 0 0 1-1.45 1.54 2.52 2.52 0 0 1-1.08.25h-1.88a2.52 2.52 0 0 1-1.08-.25 3.14 3.14 0 0 1-1.47-1.54 4.44 4.44 0 0 1-.28-2l.08-1.87a.28.28 0 0 1 .3-.28.3.3 0 0 1 .29.28l.07 1.87a3.48 3.48 0 0 0 .3 1.65 2.21 2.21 0 0 0 1.07 1.1 1.7 1.7 0 0 0 .73.17h1.86a1.55 1.55 0 0 0 .73-.16 2.37 2.37 0 0 0 1.09-1.1 3.55 3.55 0 0 0 .29-1.66l.07-1.87a.29.29 0 1 1 .58 0zM51.32 33.92l.07 1.84a3.73 3.73 0 0 1-.39 2 2.88 2.88 0 0 1-1.53 1.42 2.81 2.81 0 0 1-1 .19H46.5a2.62 2.62 0 0 1-1-.29 3.15 3.15 0 0 1-1.39-1.56 4.24 4.24 0 0 1-.25-2l.07-1.84a.29.29 0 0 1 .31-.28.29.29 0 0 1 .28.28l.07 1.84a3.52 3.52 0 0 0 .28 1.63 2.3 2.3 0 0 0 1 1.12 1.75 1.75 0 0 0 .71.19h1.81a1.82 1.82 0 0 0 .75-.11 2.2 2.2 0 0 0 1.12-1 3 3 0 0 0 .37-1.59l.07-1.84a.29.29 0 0 1 .3-.28.3.3 0 0 1 .32.28z" transform="translate(-16.68 -13.89)"/><path class="cls-5" d="M15.69 19.78l19.64.25"/><path class="cls-6" d="M32.38 33.39c3.27-.06 6.54 0 9.82 0s6.54.09 9.81.25a.28.28 0 0 1 .26.29.26.26 0 0 1-.26.26c-3.28.08-6.55.06-9.82 0s-6.55-.11-9.82-.26a.26.26 0 0 1-.26-.28.28.28 0 0 1 .27-.26z" transform="translate(-16.68 -13.89)"/><path class="cls-1" d="M109.51 60c9.15-1.37 3-21.81 2.87-30.48-.2-10.36-8-11.82-15-10.75 0 8.08 10.87 10.44 14.16 15.69 0 0-1.12 5.61-4.31 9.16 0 4.08-1 10.21 3.51 10.52a9.53 9.53 0 0 1-1.23 5.86z" transform="translate(-16.68 -13.89)"/><rect class="cls-3" x="79.75" y="18.47" width="1.83" height="3.27" rx=".92" ry=".92"/><path class="cls-1" d="M102.94 32.5a18.28 18.28 0 0 1 .22 2.54 16.75 16.75 0 0 1-.12 2.55.33.33 0 0 1-.66 0 15.57 15.57 0 0 1-.13-2.55 18.3 18.3 0 0 1 .23-2.54.23.23 0 0 1 .27-.19.25.25 0 0 1 .19.19z" transform="translate(-16.68 -13.89)"/><rect class="cls-3" x="90.27" y="18.47" width="1.83" height="3.27" rx=".92" ry=".92"/><path class="cls-3" d="M100.09 40.62a10.69 10.69 0 0 0 1.07.3 6.54 6.54 0 0 0 1.07.14 6.22 6.22 0 0 0 1.06-.06 3.94 3.94 0 0 0 1-.32.16.16 0 0 1 .21.08.16.16 0 0 1 0 .15 2.32 2.32 0 0 1-1 .82 3.07 3.07 0 0 1-1.3.24 4.19 4.19 0 0 1-1.28-.21 3.77 3.77 0 0 1-1.14-.6.32.32 0 0 1 0-.44.3.3 0 0 1 .33-.1z" transform="translate(-16.68 -13.89)"/><path class="cls-1" d="M105.09 29.09a2.08 2.08 0 0 1 1-.55 4.26 4.26 0 0 1 1.07-.09 3.11 3.11 0 0 1 2 .72.31.31 0 0 1 0 .43.31.31 0 0 1-.35.07 4.63 4.63 0 0 0-1.7-.3 6.55 6.55 0 0 0-.89 0 3.08 3.08 0 0 0-.78.15h-.09a.29.29 0 0 1-.38-.18.28.28 0 0 1 .12-.25z" transform="translate(-16.68 -13.89)"/><path class="cls-3" d="M107.51 43.61c.16 1.25.2 2.51.25 3.77l.06 1.88v.94a3.78 3.78 0 0 0 .18.8 3.55 3.55 0 0 0 2.1 2.41 4 4 0 0 0 .81.23c.32.07.65.12 1 .22a12.09 12.09 0 0 1 1.85.69 15.72 15.72 0 0 1 5.8 5.05 18.56 18.56 0 0 1 3.22 6.9.18.18 0 0 1-.12.19.17.17 0 0 1-.17-.09 42 42 0 0 0-3.69-6.44 15.16 15.16 0 0 0-5.48-4.69 10.06 10.06 0 0 0-1.68-.65c-.28-.09-.58-.14-.87-.21a4.75 4.75 0 0 1-1-.3 4.51 4.51 0 0 1-2.64-3.08 4.56 4.56 0 0 1-.14-1V47.4c0-1.26 0-2.51.06-3.77a.3.3 0 0 1 .33-.28.31.31 0 0 1 .13.26zM98.79 29.27c-.23.15-.34 0-.5 0l-.45-.09a6.77 6.77 0 0 0-.89-.06 4.81 4.81 0 0 0-.85.09 2.3 2.3 0 0 1-.93.11.2.2 0 0 1-.18-.21 1.14 1.14 0 0 1 .84-.77 3.08 3.08 0 0 1 1.11-.21 3.9 3.9 0 0 1 1.08.13l.52.14c.16.07.35.05.45.31a.5.5 0 0 1-.18.56z" transform="translate(-16.68 -13.89)"/><path class="cls-1" d="M99.59 18.55c-9.79 0-11 11.31-10.12 17.08S86 50.54 86 55.29c0 3.53 3.89 4.72 6.87 4.71 6.8 0 4.36-12.92 4.51-15.63-5.36-1.5-5.87-11-5.87-11s9.64-8.37 8.08-14.82z" transform="translate(-16.68 -13.89)"/><path class="cls-3" d="M91.78 33.33a25 25 0 0 0 .8 4.15 13.86 13.86 0 0 0 1.87 3.75 13.33 13.33 0 0 0 6.54 5c1.17.4 2.47-.39 3.58-1.18a15 15 0 0 0 3-3 25.69 25.69 0 0 0 3.83-7.61.17.17 0 0 1 .2-.1.16.16 0 0 1 .1.17 17.38 17.38 0 0 1-3.38 8.11 16.64 16.64 0 0 1-3.13 3.2 8.84 8.84 0 0 1-2 1.17 4.47 4.47 0 0 1-1.18.33 3.45 3.45 0 0 1-1.26-.12 11.34 11.34 0 0 1-4-2.13 16.13 16.13 0 0 1-3.08-3.26 14.51 14.51 0 0 1-2-4 10.6 10.6 0 0 1-.52-4.43.31.31 0 0 1 .35-.26.29.29 0 0 1 .26.25z" transform="translate(-16.68 -13.89)"/><path class="cls-5" d="M46.59 50.92a1.09 1.09 0 0 1 .36.91v1.84a1.11 1.11 0 0 1-.36.92.18.18 0 0 1-.22 0 1.11 1.11 0 0 1-.36-.92v-.92-.92a1.09 1.09 0 0 1 .36-.91.16.16 0 0 1 .22 0z" transform="translate(-16.68 -13.89)"/><path class="cls-5" d="M34.08 53.31A17.12 17.12 0 0 1 38 54.72l3.81 1.68h-.46L45 54.55a16.78 16.78 0 0 1 3.76-1.61.13.13 0 0 1 .14.09.12.12 0 0 1 0 .11 16.49 16.49 0 0 1-3.43 2.22l-3.57 2a.5.5 0 0 1-.46 0l-3.76-1.78A17.61 17.61 0 0 1 34 53.51a.11.11 0 0 1 0-.16.1.1 0 0 1 .08-.04z" transform="translate(-16.68 -13.89)"/><circle class="cls-10" cx="74.3" cy="25.93" r=".63"/><circle class="cls-10" cx="94.96" cy="25.93" r=".63"/><path class="cls-5" d="M202.76 41.95l-1.85-2.53 3.45-.05-1.6 2.58z"/><path class="cls-3" d="M225.81 50.18v-2c-3.64.42-7.63 1.05-10.46.41s5.19 1.65 10.46 1.59z" transform="translate(-16.68 -13.89)"/><rect class="cls-3" x="198.59" y="20.99" width="1.77" height="3.15" rx=".88" ry=".88"/><path class="cls-3" d="M210.35 36.94c.22 1.65.19 3.3.45 4.91a8 8 0 0 0 1.74 4.3 6.9 6.9 0 0 0 4.22 1.78 36.31 36.31 0 0 0 4.9.24 9.53 9.53 0 0 0 4.59-1 6.54 6.54 0 0 0 2.9-3.54c1.08-3 1.06-6.42 1.33-9.72a.16.16 0 0 1 .16-.14.16.16 0 0 1 .14.14 41.94 41.94 0 0 1 .1 5 17 17 0 0 1-.89 5 7.47 7.47 0 0 1-3.28 4 10.53 10.53 0 0 1-5 1.2 33 33 0 0 1-5.06-.24 7.81 7.81 0 0 1-4.76-2.11 8.76 8.76 0 0 1-2-4.81 19.82 19.82 0 0 1-.14-5 .29.29 0 0 1 .33-.26.3.3 0 0 1 .27.25z" transform="translate(-16.68 -13.89)"/><path class="cls-1" d="M221.54 35a18.58 18.58 0 0 1 .22 2.46 16.82 16.82 0 0 1-.12 2.45.32.32 0 0 1-.37.27.32.32 0 0 1-.27-.27 15.53 15.53 0 0 1-.12-2.45 15.73 15.73 0 0 1 .22-2.46.23.23 0 0 1 .26-.18.24.24 0 0 1 .18.18z" transform="translate(-16.68 -13.89)"/><rect class="cls-3" x="208.73" y="20.99" width="1.77" height="3.15" rx=".88" ry=".88"/><path class="cls-3" d="M217.85 42.2c.27 0 .34.11.56.18a4.53 4.53 0 0 0 .59.21c.42.11.86.17 1.29.24a11.77 11.77 0 0 0 1.32.12 7.32 7.32 0 0 1 1.31.08.16.16 0 0 1 .13.18.2.2 0 0 1 0 .08 1.9 1.9 0 0 1-1.42.56 7.23 7.23 0 0 1-1.47 0 7.48 7.48 0 0 1-1.44-.33 5.9 5.9 0 0 1-.71-.29c-.21-.12-.53-.24-.59-.6a.32.32 0 0 1 .25-.37z" transform="translate(-16.68 -13.89)"/><path class="cls-1" d="M224.05 31.29a1.92 1.92 0 0 1 1-.53 4 4 0 0 1 1-.09 3.06 3.06 0 0 1 2 .69.3.3 0 0 1 0 .42.3.3 0 0 1-.33.07 4.59 4.59 0 0 0-1.64-.29 6.33 6.33 0 0 0-.87 0 3.11 3.11 0 0 0-.75.15h-.08a.29.29 0 0 1-.37-.18.28.28 0 0 1 .04-.24z" transform="translate(-16.68 -13.89)"/><path class="cls-3" d="M226.11 48.26a29.69 29.69 0 0 1 .16 3.87A3.46 3.46 0 0 0 228 55a3.58 3.58 0 0 0 .78.33 7.56 7.56 0 0 0 .91.19c.65.14 1.29.3 1.93.49a30.29 30.29 0 0 1 3.7 1.35 29.24 29.24 0 0 1 6.77 4 12.42 12.42 0 0 1 4.48 6.43.14.14 0 0 1-.1.18.15.15 0 0 1-.17-.08 16.9 16.9 0 0 0-4.78-5.83 28.52 28.52 0 0 0-6.58-3.85c-1.18-.49-2.38-.94-3.6-1.31-.61-.19-1.23-.35-1.84-.48-.3-.07-.62-.12-1-.22a4.35 4.35 0 0 1-3.09-4.05 26.67 26.67 0 0 1 .15-3.9.3.3 0 0 1 .59 0z" transform="translate(-16.68 -13.89)"/><path class="cls-6" d="M211.65 26.32c.39 1.53 1.52 3.81 4.91 5.52 1.54.78 3.78-.11 5.91.91 1.8.86 2.91 3 4.62 3.44a8.34 8.34 0 0 1 4.64 3.19.59.59 0 0 0 1-.14 14.21 14.21 0 0 0 1-6.2c-.26-2-1.48-17.13-15.7-14.67-7.03 1.23-6.88 6.02-6.38 7.95z" transform="translate(-16.68 -13.89)"/><path class="cls-2" d="M209.77 35.05a1.56 1.56 0 0 1-.25-.92c0-.31-.06-.62-.08-.93a14.9 14.9 0 0 1 0-1.89 8.71 8.71 0 0 1 .33-1.89 2.9 2.9 0 0 1 1-1.67.16.16 0 0 1 .22 0 .14.14 0 0 1 0 .11 16.42 16.42 0 0 1-.37 1.73 14 14 0 0 0-.23 1.74c0 .59-.06 1.19-.05 1.78v.9a1.68 1.68 0 0 1-.06.91.35.35 0 0 1-.47.14.25.25 0 0 1-.04-.01z" transform="translate(-16.68 -13.89)"/><path class="cls-3" d="M225.72 53.42a4.37 4.37 0 0 1-1.56.16h-7.81a13.77 13.77 0 0 1-3.12-.31.16.16 0 0 1-.11-.19.2.2 0 0 1 .11-.11 13.21 13.21 0 0 1 3.12-.3H224.16a4.61 4.61 0 0 1 1.56.16.31.31 0 0 1 .17.41.31.31 0 0 1-.17.18zM217.4 32c-.2.11-.23 0-.37 0a1.59 1.59 0 0 0-.39-.08 5.93 5.93 0 0 0-.85 0 8.09 8.09 0 0 0-.85.06 2.07 2.07 0 0 1-.88.05.18.18 0 0 1-.15-.2 1.12 1.12 0 0 1 .85-.7 4.11 4.11 0 0 1 1-.17 4.52 4.52 0 0 1 1 .09 3.56 3.56 0 0 1 .53.16c.16.07.42.12.47.42a.32.32 0 0 1-.16.31z" transform="translate(-16.68 -13.89)"/><circle class="cls-2" cx="191.51" cy="26.85" r=".69"/><path class="cls-2" d="M175.07 61.19a23 23 0 0 1-.39 4.48 15.09 15.09 0 0 1-.73 2.57h1.35a17.81 17.81 0 0 0 .59-2.34 20.93 20.93 0 0 0 .29-4.73 39 39 0 0 0-1.59-9.2.2.2 0 0 0-.23-.14.21.21 0 0 0-.18.23 55.24 55.24 0 0 1 .89 9.13zM144.69 68.24h1.43a19 19 0 0 1-.89-2.89 35.43 35.43 0 0 1-.65-9c.12-3.05.6-6.07.83-9.15a.41.41 0 0 0-.3-.43.42.42 0 0 0-.51.29 46.23 46.23 0 0 0-1.29 9.23 36.54 36.54 0 0 0 .63 9.38 20.36 20.36 0 0 0 .75 2.57z" transform="translate(-16.68 -13.89)"/><path class="cls-6" d="M67.14 68.24c-1-6-16.12-12.17-16.12-12.17s-4.2 4-9.28 4-10.66-4.34-10.66-4.34C23.26 59.93 17 64 16.68 68.24zM183.38 68.24c-2.15-5.61-4.77-9.84-7.13-10.18l-1.95 10.18zM145.19 68.24l-1.49-10.61c-1.93.84-3.91 5.09-5.66 10.61z" transform="translate(-16.68 -13.89)"/><path class="cls-9" d="M246.68 68.24c-.92-7.23-16.19-12-16.19-12l-23.37-.08c-6.84 3.62-12.37 7.82-12 12.07zM123 68.24c-2.18-10-12.33-14.1-12.33-14.1l-8.65 3.59-12.22-3.27c-7.1 3.76-10.06 9.62-10.62 13.78z" transform="translate(-16.68 -13.89)"/></svg>