<svg enable-background="new 0 0 59.998 59.997" height="59.997" viewBox="0 0 59.998 59.997" width="59.998" xmlns="http://www.w3.org/2000/svg"><g fill="#fff"><path d="m29.999 0c-16.568 0-29.999 13.431-29.999 29.999s13.431 30 29.999 30 29.999-13.431 29.999-30c0-16.568-13.431-29.999-29.999-29.999zm0 56c-14.36 0-26.001-11.641-26.001-26.001s11.641-26.001 26.001-26.001c14.359 0 26.001 11.641 26.001 26.001s-11.642 26.001-26.001 26.001z"/><path d="m20.96 20.884 1.886-2.321 18.681 18.68-2.47 1.742c-.688.689-1.847 1.264-3.47 1.72-1.624.456-3.105.685-4.449.685h-8.044l-1.571 1.568c-.606.609-1.339.912-2.197.912-.856 0-1.59-.303-2.196-.912-.608-.593-.913-1.322-.913-2.188 0-.861.302-1.598.913-2.205l1.569-1.571v-8.044c0-1.327.212-2.833.633-4.519.424-1.687.964-2.869 1.628-3.547zm16.586-3.669-6.717 6.717-3.878-3.876 6.716-6.718c.362-.357.86-.474 1.496-.341s1.214.466 1.74 1.005c.539.526.871 1.104.996 1.732.122.627.005 1.123-.353 1.481zm-1.533 11.899 6.717-6.716c.343-.358.834-.478 1.469-.353.636.125 1.215.456 1.742.995.538.525.871 1.104.994 1.732.127.629.008 1.124-.352 1.482l-6.717 6.737z"/></g></svg>