<svg id="customizeTheme" xmlns="http://www.w3.org/2000/svg" viewBox="0 0 596.8 370"><style>.st0{fill:none}.st1{fill:#F6F6F6}.st2{fill:#069e08}.st3{fill:#D8DEE4}.st4{fill:#E1E2E2}.st5{fill:#B0B5B8}.st6{fill:#6F93AD}.st7{fill:#204A69}.st8{fill:#204A69}.st9{fill:#BBC9D5}.st10{opacity:.26;fill:#969CA1;enable-background:new}.st11{fill:#CCCED0}.st12{fill:#F6F6F6}</style><title>customizeTheme</title><path class="st0" d="M391.8 161.5v116.2h71.4V154.1h-64c-4.1 0-7.4 3.3-7.4 7.4z"/><path class="st1" d="M358.1 82V56.6H280c.5.9 1.1 1.9 1.5 2.9 8.8 18.5 1 40.7-17.5 49.6l-.4.2-.6.3c-1.5.7-3.1 1.2-4.7 1.7l-.7.2c-.3.1-.6.1-.9.2-.4.1-.9.2-1.3.3-.8-1.4-1-4.8-1.1-6.8-.2-3.3-.3-5.1-1.7-5.6-2.1-.8-4.8 1.3-6.6 5.2-1.1 2.4-1.7 5.1-1.6 7.8-20.5-2-35.4-20.3-33.4-40.7.4-4.3 1.6-8.4 3.4-12.3.5-1 1-1.9 1.5-2.9h-81.2v131.9c11.7.2 34.8-4.1 35.1 6.8v-39.2h151v46.6c12-.1 24.1 2.8 36.1.8.5-.1 1 .2 1.1.7 1.2 7 5.8 70.6 6.3 76.9.4 5.7 1.4 11.3.2 17.1-.1.4-.5.7-1 .7-4.3.2-8.6.8-12.9.8-4 0-19.4-.4-20.5-.8-1.4-.5-8 1.1-11.4 1.3-3.2.2-16.1 1.1-19.2 1.1-4 .1-8.1 0-8.2-3.9-.1-2.1-2.1-17.6-1.8-19.8H170.9c0 .5-24.5-.1-36.3-.2v34.8h353V82H358.1zm105.1 195.6h-71.4V161.5c0-4.1 3.3-7.4 7.4-7.4h64v123.5z"/><path class="st2" d="M281.5 59.4c-.5-1-1-1.9-1.5-2.9-.4-.7-.9-1.5-1.4-2.2-11.6-17-34.8-21.3-51.8-9.7-3.8 2.6-7.1 5.9-9.7 9.7-.5.7-.9 1.4-1.4 2.2-.5.9-1.1 1.9-1.5 2.9-8.8 18.6-.9 40.8 17.7 49.6 3.9 1.8 8 3 12.3 3.4-.1-2.7.5-5.3 1.6-7.8 1.8-3.9 4.5-6.1 6.6-5.2 1.3.5 1.4 2.3 1.7 5.6.1 2 .4 5.5 1.1 6.8.4-.1.9-.2 1.3-.3.3-.1.6-.1.9-.2l.7-.2c1.6-.5 3.2-1 4.7-1.7l.6-.3.4-.2c18.7-8.8 26.5-30.9 17.7-49.5z"/><path class="st0" d="M463.1 154.4h-64c-4.1 0-7.4 3.3-7.4 7.4V278h71.4V154.4z"/><path class="st3" d="M358 27.2V82.3h149.3V27.2z"/><path class="st1" d="M144.9 242.9l19.9-.1 1.4 15.8-16.2-1.5c.1 0-6.4-1.3-5.1-14.2z"/><path class="st4" d="M140.8 59.4h-6.4c-1.4 0-2.6-1.1-2.6-2.6v-6.4c0-1.4 1.1-2.6 2.6-2.6 1.4 0 2.6 1.1 2.6 2.6v3.8h3.8c1.4 0 2.6 1.1 2.6 2.6-.1 1.5-1.2 2.6-2.6 2.6zM134.3 40c-1.4 0-2.6-1.1-2.6-2.6v-13c0-1.4 1.1-2.6 2.6-2.6 1.4 0 2.6 1.1 2.6 2.6v13.1c0 1.3-1.1 2.5-2.6 2.5zm3.5-25.4c-1.4 0-2.6-1.1-2.6-2.6 0-.5.1-1 .4-1.4 2.7-4.1 6.6-7.3 11.2-9 1.3-.5 2.8.2 3.3 1.5s-.2 2.8-1.5 3.3c-3.6 1.4-6.7 3.9-8.8 7.1-.3.6-1.1 1.1-2 1.1zm346.1-.1c-.9 0-1.7-.4-2.1-1.1-2.1-3.2-5.2-5.7-8.8-7-1.3-.5-2-2-1.5-3.3s2-2 3.3-1.5c4.6 1.7 8.5 4.9 11.3 9 .8 1.2.5 2.8-.7 3.6-.5.1-1 .3-1.5.3zM461 5.1h-13.1c-1.4 0-2.6-1.1-2.6-2.6 0-1.4 1.1-2.6 2.6-2.6H461c1.4 0 2.6 1.1 2.6 2.6-.1 1.5-1.2 2.6-2.6 2.6zm-26.1 0h-13.1c-1.4 0-2.6-1.1-2.6-2.6 0-1.4 1.1-2.6 2.6-2.6h13c1.4 0 2.6 1.1 2.6 2.6s-1.1 2.6-2.5 2.6zm-26.1 0h-13.1c-1.4 0-2.6-1.1-2.6-2.6 0-1.4 1.1-2.6 2.6-2.6h13.1c1.4 0 2.6 1.1 2.6 2.6-.1 1.5-1.2 2.6-2.6 2.6zm-26.1 0h-13.1c-1.4 0-2.6-1.1-2.6-2.6 0-1.4 1.1-2.6 2.6-2.6h13.1c1.4 0 2.6 1.1 2.6 2.6-.1 1.5-1.2 2.6-2.6 2.6zm-26.2 0h-13.1c-1.4 0-2.6-1.1-2.6-2.6 0-1.4 1.1-2.6 2.6-2.6h13c1.4 0 2.6 1.1 2.6 2.6.1 1.5-1.1 2.6-2.5 2.6zm-26.1 0h-13.1c-1.4 0-2.6-1.1-2.6-2.6 0-1.4 1.1-2.6 2.6-2.6h13.1c1.4 0 2.6 1.1 2.6 2.6s-1.1 2.6-2.6 2.6zm-26.1 0h-13.1c-1.4 0-2.6-1.1-2.6-2.6 0-1.4 1.1-2.6 2.6-2.6h13.1c1.4 0 2.6 1.1 2.6 2.6s-1.2 2.6-2.6 2.6zm-26.1 0h-13.1c-1.4 0-2.6-1.1-2.6-2.6 0-1.4 1.1-2.6 2.6-2.6h13.1c1.4 0 2.6 1.1 2.6 2.6s-1.2 2.6-2.6 2.6zm-26.1 0H239c-1.4 0-2.6-1.1-2.6-2.6 0-1.4 1.1-2.6 2.6-2.6h13.1c1.4 0 2.6 1.1 2.6 2.6s-1.2 2.6-2.6 2.6zm-26.1 0h-13c-1.4 0-2.6-1.1-2.6-2.6 0-1.4 1.1-2.6 2.6-2.6h13c1.4 0 2.6 1.1 2.6 2.6s-1.2 2.6-2.6 2.6zm-26.1 0h-13.1c-1.4 0-2.6-1.1-2.6-2.6 0-1.4 1.1-2.6 2.6-2.6h13.1c1.4 0 2.6 1.1 2.6 2.6s-1.2 2.6-2.6 2.6zm-26.1 0h-13.1c-1.4 0-2.6-1.1-2.6-2.6 0-1.4 1.1-2.6 2.6-2.6h13.1c1.4 0 2.6 1.1 2.6 2.6s-1.2 2.6-2.6 2.6z"/><path class="st5" d="M320.5 299.2s-1.8 39.6-7.8 63.8l-35 .5s-2.8-1.8.9-3.7c3.9-2 14.4-4.1 15.5-6.4 2.3-4.6 1.4-51.7 1.4-51.7M334.2 300.4s1.8 37 7.8 61.3l30.6.5s2.8-1.8-.9-3.7c-3.9-2-14.4-4.1-15.5-6.4-2.3-4.6 4.5-54.3 4.5-54.3"/><path class="st0" d="M256.6 113.3s.8.7 1.1-2c-1.2.3-2.4.6-3.6.8.6 1.1 1.3 1.6 2.5 1.2z"/><path class="st5" d="M256.6 113.3c-1.2.4-2-.1-2.5-1.2-2.1.4-4.2.5-6.3.5-.8 0-1.5 0-2.2-.1.3 4.2 2.4 8.5 8.1 11.5l4.2 2.3 7-4.3c.7-5.8-.5-10-1.8-12.6-1.7.8-3.5 1.4-5.3 1.9-.4 2.7-1.2 2-1.2 2z"/><path class="st5" d="M254.1 112.1c-1.6-3.2-.9-11.2-2.1-11.7-2.3-.9-6.9 5.4-6.4 12.2.7 0 1.5.1 2.2.1 2.2 0 4.3-.2 6.3-.6z"/><path class="st6" d="M348.8 244.7c-.7 0-1.3-.6-1.2-1.3 0-.6.5-1.2 1.1-1.2l14.2-1.5c.7-.1 1.4.4 1.5 1.1.1.7-.4 1.4-1.1 1.5h-.1l-14.2 1.5-.2-.1z"/><path class="st6" d="M358.6 252.3c-2.4.1-4.8-.9-6.6-2.5-1.6-1.5-2.4-3.5-2.3-5.7 0-.7.6-1.2 1.2-1.2h.1c.7 0 1.2.6 1.2 1.4-.1 1.4.5 2.7 1.5 3.7 1.5 1.4 3.5 2 5.5 1.8l2.5-.7c.7-.2 1.4.2 1.6.9s-.2 1.4-.9 1.6l-2.7.7h-1.1z"/><path class="st7" d="M288 167.6c-.7 0-1.3-.6-1.3-1.3 0-.5.3-1 .8-1.2l11.1-5c.6-.3 1.4-.1 1.7.5.3.6.1 1.4-.5 1.7 0 0-.1 0-.1.1l-11.1 5c-.3.1-.5.2-.6.2z"/><path class="st0" d="M301.7 91.5c.1 1.5.5 2.7 1 3 .4.2.9 0 1.3-.3-.1-.6-.1-1.3-.1-1.9l-2.2-.8zM303.2 87.2c-.5.4-.9 1-1.1 1.7l2 .7c.1-.8.2-1.7.3-2.5-.1-.1-.3-.2-.4-.3-.3.1-.6.2-.8.4z"/><path class="st5" d="M314.7 104.7c-2.4-1.4-3.8-3.9-3.9-6.6l.4-3.5-4.6-1.5c.1 1.2.2 2.4.5 3.5 1.3 6.1 2.8 10.8 9.4 11.8.6.1 1 .5 1.1 1.1l.8 7c.1.7-.4 1.3-1.1 1.4h-.2c-.3 0-.6-.1-.8-.3v3.2l16 .9v-14.3c-.7.4-1.4.6-2.2.8-6.6 1.7-11.9-1.5-15.4-3.5zM328.5 94.7l-4.1-11.1s-5.5-3.1-10.6-2.7c2.6 6.1 8 12.1 14.7 13.8zM307.2 85.8c-.4 1.5-.6 3-.6 4.6l4.9 1.6.6-5.5s-3 .4-4.9-.7z"/><path class="st8" d="M338.2 93.9c-3.1 1.3-6.5 1.6-9.7.8-6.7-1.7-12.1-7.7-14.7-13.8-1.5-3.4-2.1-6.9-1.6-9.8-2.6 2-4.7 5.2-6.3 10.2-.1.3-.2.7-.3 1-.3.7-.5 1.4-.7 2.2-.5-.2-1-.2-1.5-.1-1.7.4-3.7 2.2-4.1 5.2-.3 2.5.1 5.8 2.2 7.1.5.3 1.1.5 1.7.5.5 0 1-.1 1.4-.3 0 .1 0 .2.1.3 1.3 6.3 3.1 12 10.6 13.7l.7 6.1c.1.6.6 1.1 1.3 1.1h.2c.7-.1 1.2-.7 1.1-1.4l-.8-7c-.1-.6-.5-1-1.1-1.1-6.7-1.1-8.2-5.8-9.4-11.8-.2-1.2-.4-2.3-.5-3.5l4.6 1.5-.4 3.5c0 2.7 1.5 5.2 3.9 6.6 3.5 2 8.7 5.2 15.4 3.6.8-.2 1.5-.4 2.2-.8 4.5-2.3 7.1-8.2 7.9-14.6-.8.2-1.5.5-2.2.8zm-35.4.6c-.5-.3-1-1.5-1-3l2.2.7c0 .6.1 1.3.1 1.9-.4.4-1 .6-1.3.4zm1.2-4.9l-2-.7c.2-.7.6-1.2 1.1-1.7.2-.2.5-.3.8-.4.1.1.2.2.4.3-.1.8-.2 1.6-.3 2.5zm7.5 2.5l-4.9-1.6c.1-1.5.3-3.1.6-4.6 1.9 1.1 4.9.7 4.9.7l-.6 5.5z"/><path class="st9" d="M316.2 65.8c-2.2 1-3.5 2.9-3.9 5.3-1.8 10.2 10.8 29.1 26 22.8.7-.3 1.4-.6 2-1 15-8.9-5.8-35.1-24.1-27.1z"/><path class="st10" d="M105.2 237.9h57.4c1.8 0 3.3-1.5 3.3-3.3v-.1l-1.6-38.2c-.1-1.3-1.1-2.4-2.5-2.3h-57.3l.8 38.9"/><path class="st11" d="M166 258.5c-1.1-6.1-1.6-12.2-2.1-18.4l-.3-4.6-.2-2.3v-.6-.8c.1-.7.3-1.3.7-1.8.8-.9 1.9-1.4 3.1-1.5H181c1.2 0 2.3.5 3.1 1.4.4.5.7 1.1.7 1.8l.1 1.2.1 2.3.2 4.6c.2 6.2.4 12.3.3 18.5 0 .3-.3.5-.5.5s-.4-.2-.5-.4c-.8-6.1-1.3-12.3-1.8-18.4l-.3-4.6-.2-2.3-.1-1.1c0-.1-.1-.2-.1-.3-.3-.3-.6-.4-1-.4h-13.8c-.4 0-.7.1-1 .4-.1.1-.1.2-.1.3v1l.1 2.3.2 4.6c.2 6.2.4 12.3 0 18.5 0 .1-.1.2-.3.2 0 .2-.1.1-.1-.1z"/><path class="st1" d="M180.3 251.4l-1-17h-10l.9 17z"/><path class="st0" d="M150.1 268.2h13.8"/><path class="st12" d="M150.1 267.9c1.1-.6 2.2-1 3.5-1 1.2-.1 2.3-.2 3.5-.2 1.1 0 2.3.1 3.5.2s2.3.4 3.5.8c.3.1.4.4.3.7-.1.1-.2.3-.3.3-1.1.4-2.3.7-3.5.8-1.1.1-2.3.2-3.5.2s-2.3 0-3.5-.2c-1.2-.1-2.4-.4-3.5-1-.1-.1-.2-.3-.1-.4 0-.1 0-.2.1-.2zM162.2 256.6c-6.6-.5-13.2-.6-19.7-.7l-9.9-.1h-7.4c-.7 0-1.3-.1-2-.3-2.6-.9-4.4-3.4-4.4-6.1l-.1-6.7c-.9 0-1.8-.1-2.6-.1l-.1 6.8c-.1 4 2.4 7.6 6.2 8.9.9.3 1.9.4 2.9.4h7.4l9.9-.1c6.6-.1 13.2-.3 19.7-.7.3 0 .5-.3.5-.6 0-.5-.2-.7-.4-.7z"/><path class="st12" d="M152.7 256.6c-3.3-.4-5.8-2.9-6.3-5.8-.2-1.3 0-3.3 0-5l.1-3.7h-2.9l.1 3.7c.1 1.8-.1 3.4.3 5.5.5 2 1.7 3.7 3.3 4.9 1.6 1.1 3.5 1.7 5.5 1.4.2 0 .4-.2.5-.5-.2-.2-.4-.5-.6-.5z"/><path class="st11" d="M165.1 241.3c-.7.2-1.4.3-2.1.3h-2c-10.8 0-21.6.2-32.4.3-11.6.2-23.3.4-34.9.8-.1 0-.3.1-.3.3 0 .1.1.3.3.3 11.6.4 23.3.6 34.9.8 11.6.1 23.3.3 34.9.3H163.8c.4 0 .9-.1 1.3-.2v-2.9z"/><path class="st11" d="M172.1 227.1l-.9-23.4-.2-5.8c-.1-1 0-1.8-.2-3.1-.5-3.6-3.3-6.5-6.9-7.1-.8-.1-1.6-.1-2.3-.1h-.3l-60.8.2h-3.8c-1.6-.1-3.1.5-4.3 1.5-1.2 1-1.9 2.5-2.1 4.1 0 1.5 0 2.6.1 3.9l.4 15.2c.2 10.1.6 20.3.9 30.4 0 .3.2.5.5.5s.5-.2.5-.5c0-10.1.1-20.3-.1-30.4l-.1-15.2v-3.7c.1-1 .6-1.9 1.3-2.5.8-.6 1.8-.9 2.8-.9h1.5l.6 21c.2 7.4.5 14.8.8 22.2 0 .3.2.5.5.5s.5-.2.5-.5c0-7.4 0-14.8-.1-22.2l-.2-21h.1l59.4.2h.8c.9 0 1.8 0 2.7.1 1.5.3 2.9 1.2 3.7 2.5.4.7.7 1.4.8 2.2.1.7.1 1.9.1 2.8l.3 5.8.5 11.7.5 11.7.1 2.3c.9 0 1.8 0 2.7.1l.2-2.5z"/><path class="st11" d="M166 258.5c-1.1-6.1-1.6-12.2-2.1-18.4l-.3-4.6-.2-2.3v-.6-.8c.1-.7.3-1.3.7-1.8.8-.9 1.9-1.4 3.1-1.5H181c1.2 0 2.3.5 3.1 1.4.4.5.7 1.1.7 1.8l.1 1.2.1 2.3.2 4.6c.2 6.2.4 12.3.3 18.5 0 .3-.3.5-.5.5s-.4-.2-.5-.4c-.8-6.1-1.3-12.3-1.8-18.4l-.3-4.6-.2-2.3-.1-1.1c0-.1-.1-.2-.1-.3-.3-.3-.6-.4-1-.4h-13.8c-.4 0-.7.1-1 .4-.1.1-.1.2-.1.3v1l.1 2.3.2 4.6c.2 6.2.4 12.3 0 18.5 0 .1-.1.2-.3.2 0 .2-.1.1-.1-.1z"/><path class="st1" d="M180.3 251.4l-1-17h-10l.9 17z"/><path class="st0" d="M150.1 268.2h13.8"/><path class="st12" d="M150.1 267.9c1.1-.6 2.2-1 3.5-1 1.2-.1 2.3-.2 3.5-.2 1.1 0 2.3.1 3.5.2s2.3.4 3.5.8c.3.1.4.4.3.7-.1.1-.2.3-.3.3-1.1.4-2.3.7-3.5.8-1.1.1-2.3.2-3.5.2s-2.3 0-3.5-.2c-1.2-.1-2.4-.4-3.5-1-.1-.1-.2-.3-.1-.4 0-.1 0-.2.1-.2zM.5 366.6c49.6-1.4 99.2-1.7 148.8-2.1l148.8-.3c99.2.3 198.4.1 297.7 1.9.6 0 1 .5 1 1.1 0 .5-.4.9-1 1-99.2 1.7-198.4 1.6-297.7 1.9l-148.8-.3c-49.6-.4-99.2-.6-148.8-2.1-.3 0-.5-.2-.5-.5 0-.4.2-.6.5-.6z"/><path class="st7" d="M296.1 350.4c-.7 0-1.3-.6-1.3-1.3 0-.1 0-.2.1-.4 1.9-6.1 1.1-18.6.3-30.6-.4-5.9-.8-11.5-.8-16.4 0-.7.6-1.3 1.3-1.3.7 0 1.3.6 1.3 1.3.1 4.8.4 10.3.8 16.2.8 12.3 1.6 24.9-.4 31.5-.3.7-.8 1-1.3 1zM341.9 363c-.6 0-1.2-.5-1.3-1.1 0-.3-4.6-31-7.8-61.3-.1-.7.4-1.4 1.1-1.5s1.4.4 1.5 1.1v.2c3.1 30.3 7.7 60.9 7.8 61.2.1.7-.4 1.4-1.1 1.5 0-.1-.1-.1-.2-.1z"/><path class="st4" d="M484.9 26.9v-2.6c0-1.4 1.1-2.6 2.6-2.6 1.4 0 2.6 1.1 2.6 2.6v2.8"/><path class="st5" d="M397.9 82.3v-.7c-1 .8-2.2 1.4-3.4 1.7 0 0 2.9-10.4-.2-11.1-3-.7-14.7 19.9-14.7 19.9l4.2 10.1s4.5-4.1 19.1-11.5c3.3-3.1 5.2-6 6.2-8.4h-11.2z"/><path class="st7" d="M391.7 97.7c-.7 0-1.3-.6-1.2-1.4 0-.7.6-1.2 1.2-1.2 1.4-.1 11.5-5.3 16.4-14.6.3-.6 1.1-.9 1.7-.6s.9 1.1.6 1.7v.1c-5.2 9.7-16.1 16-18.7 16zM383.8 89.5c-.7 0-1.3-.6-1.3-1.3 0-.4.2-.7.4-1 1.1-.9 2.8-4.4 4.3-7.5 3.1-6.2 4.5-8.8 6.3-9 .6-.1 1.3.2 1.7.7 1.8 2.1 1.3 7.1.8 10.1 1.1-.5 2.3-1.2 3-2.1.4-.6 1.2-.8 1.8-.4.6.4.8 1.2.4 1.8 0 0 0 .1-.1.1-2 2.8-6.3 3.7-6.4 3.8-.7.2-1.4-.3-1.5-1v-.5c.6-2.9 1.1-7.6.4-9.5-1 1.2-2.8 4.8-4 7.3-1.8 3.6-3.5 7-4.9 8.3-.3 0-.6.2-.9.2z"/><path class="st0" d="M255.6 112.4c.1 0 .2.1.5 0 .2-.1.3-.4.4-.8-.4.1-.9.2-1.3.3.1.2.2.4.4.5zM252 100.4c1.2.5.5 8.5 2.1 11.7.4-.1.7-.1 1.1-.2-.8-1.4-1-4.8-1.1-6.8-.2-3.3-.3-5.1-1.7-5.6-2.1-.8-4.8 1.3-6.6 5.2-1.1 2.4-1.7 5.1-1.6 7.8.5 0 .9.1 1.4.1-.4-6.8 4.2-13.1 6.4-12.2z"/><path class="st0" d="M255.6 112.4c.1 0 .2.1.5 0 .2-.1.3-.4.4-.8-.4.1-.9.2-1.3.3.1.2.2.4.4.5z"/><path class="st0" d="M255.6 112.4c.1 0 .2.1.5 0 .2-.1.3-.4.4-.8-.4.1-.9.2-1.3.3.1.2.2.4.4.5zM256.5 111.6l.9-.2c-.3.1-.6.2-.9.2zM263.9 109l-.4.2.4-.2z"/><path class="st4" d="M166 54.3h-12.6c-1.4 0-2.6 1.1-2.6 2.6 0 1.4 1.1 2.6 2.6 2.6H166c1.4 0 2.6-1.1 2.6-2.6-.1-1.4-1.2-2.6-2.6-2.6zM191.2 54.3h-12.6c-1.4 0-2.6 1.1-2.6 2.6 0 1.4 1.1 2.6 2.6 2.6h12.6c1.4 0 2.6-1.1 2.6-2.6-.1-1.4-1.2-2.6-2.6-2.6zM317.2 54.3h-12.6c-1.4 0-2.6 1.1-2.6 2.6 0 1.4 1.1 2.6 2.6 2.6h12.6c1.4 0 2.6-1.1 2.6-2.6 0-1.4-1.2-2.6-2.6-2.6zM355 54.3c-1.4 0-2.6 1.1-2.6 2.6 0 1.4 1.1 2.6 2.6 2.6h3.1v-5.1l-3.1-.1zM342.4 52.1h-12.6c-1.4 0-2.6 1.1-2.6 2.6 0 1.4 1.1 2.6 2.6 2.6h12.6c1.4 0 2.6-1.1 2.6-2.6-.1-1.4-1.2-2.6-2.6-2.6zM216.4 54.3h-12.6c-1.4 0-2.6 1.1-2.6 2.6 0 1.4 1.1 2.6 2.6 2.6h10.5c.8-1.7 1.8-3.4 2.9-5-.3-.2-.6-.2-.8-.2zM292 54.3h-12.6c-.3 0-.5 0-.8.1 1.1 1.6 2.1 3.3 2.9 5H292c1.4 0 2.6-1.1 2.6-2.6-.1-1.3-1.2-2.5-2.6-2.5z"/><path class="st0" d="M255.6 112.4c.1 0 .2.1.5 0 .2-.1.3-.4.4-.8-.4.1-.9.2-1.3.3.1.2.2.4.4.5z"/><path class="st7" d="M257.4 111.4l-.9.2c-.1.4-.2.7-.4.8-.4.1-.5 0-.5 0-.2-.1-.3-.3-.4-.5-.8-1.4-1-4.8-1.1-6.8-.2-3.3-.3-5.1-1.7-5.6-2.1-.8-4.8 1.3-6.6 5.2-1.1 2.4-1.7 5.1-1.6 7.8.1 4.8 2.5 9.7 8.9 13 .2.1.4.1.6.1.7 0 1.3-.6 1.3-1.3 0-.5-.3-.9-.7-1.1-9.1-4.8-7.8-12.5-6.8-15.7 1.1-3.4 2.9-5.3 3.7-5.6.2 1.1.3 2.2.3 3.3.2 3.7.5 7.8 2.6 9.3.8.5 1.8.6 2.8.3 1.9-.6 2.2-2.1 2.2-3.9-.2.1-.6.2-1 .3l-.4.1-.3.1z"/><path class="st7" d="M257.7 111.3l.4-.1-.7.2.3-.1zM263.1 109.4l-.2.1c-.5.2-1 .4-1.3.5 1.2 2.9 1.8 6 1.8 9.2 0 .7.6 1.3 1.3 1.3.7 0 1.3-.6 1.3-1.3.1-3.5-.6-7-2-10.2l-.4.2-.5.2z"/><path class="st7" d="M263.5 109.2l-.6.3.2-.1.4-.2z"/><path class="st6" d="M301.9 303.2c-4.4 0-8.3-.5-10.4-2.2-1.1-.8-1.7-2-1.8-3.3-.1-1.1-.2-2.8-.4-4.9-1.1-13-3.8-43.6 1.7-78.3.1-.7.8-1.2 1.5-1 .7.1 1.1.7 1 1.4-5.5 34.4-2.8 64.7-1.7 77.7.2 2.2.3 3.9.4 5 0 .6.3 1.1.8 1.4 4.4 3.4 22.1.6 28.6-.7.7-.1 1.4.4 1.5 1.1s-.3 1.3-.9 1.5c-1.7.2-11.8 2.3-20.3 2.3zM338.6 301.3c-4.8 0-8.8-.4-10.6-1.6-4-2.6-3.2-38.8-2.7-54.2 0-.7.5-1.2 1.2-1.2h.1c.7 0 1.3.6 1.2 1.3-.8 23.8-.4 49.8 1.6 52 3.5 2.3 22.2.7 34-1l-2.2-39.1c0-.7.5-1.3 1.2-1.4s1.3.4 1.3 1.1v.1l2.3 40.3c0 .7-.4 1.2-1.1 1.3-2 .4-15.9 2.4-26.3 2.4zM360.8 237.7c-.7 0-1.2-.5-1.3-1.2l-2.7-33.8c-.1-.7.5-1.3 1.2-1.4.7-.1 1.3.5 1.4 1.2l2.7 33.8c.1.7-.5 1.3-1.2 1.4h-.1z"/><path class="st9" d="M395.1 99.7l-12.3-12.8c-6 12.1-23.9 30-37.5 33.4-.3-.1-.6-.2-1-.4-4.3-1.6-29.2-3.3-35.2-.8-3.8 1.6-6.5 2.9-8.2 4.5-11.7 9.2-19.1 17.2-19.1 17.2l-14.3-22.4-12.8 9.1s11 40.2 27.9 39.3c5.6-.3 11-1.8 16-4.3L300 203l56.7-1-1.4-57.9c21.1-10.7 39.8-44.4 39.8-44.4z"/><path class="st7" d="M297.4 204.4c-.7 0-1.3-.6-1.2-1.4 0-.7.6-1.2 1.2-1.2l60.7-.6c.7 0 1.3.5 1.3 1.2v.1c0 .7-.6 1.3-1.3 1.3l-60.7.6zM288 167.6c-.7 0-1.3-.6-1.3-1.3 0-.5.3-1 .8-1.2l11.1-5c.6-.3 1.4-.1 1.7.5.3.6.1 1.4-.5 1.7 0 0-.1 0-.1.1l-11.1 5c-.3.1-.5.2-.6.2z"/><path class="st11" d="M231.9 278.8h-.2l-36.9.6-37.2.4-74.8.2c-.8 0-1.4-.6-1.4-1.4v-20.9c0-.8.6-1.4 1.4-1.5l74.4.2 74.4.6c.4 0 .7.3.7.7l-.4 21.1zm-.8-.4v-.2l-.4-20.5.7.7-74.4.6-74.4.2 1.5-1.5v20.9l-1.4-1.4 73.9.3 37.1.4 37.4.5z"/><path class="st0" d="M82.7 270.9v91.3"/><path class="st11" d="M83 270.9c.7 7.6.9 15.2 1 22.8l.2 22.8c-.2 15.2-.1 30.4-.9 45.6 0 .3-.3.5-.6.5-.2 0-.4-.2-.5-.5-.9-15.2-.8-30.4-.9-45.6l.2-22.8c.2-7.6.3-15.2 1-22.8 0-.1.1-.3.3-.3.1.1.2.2.2.3z"/><path class="st0" d="M231.5 278.6v83.6"/><path class="st11" d="M231.7 278.6c.7 7 .9 13.9 1 20.9l.2 20.9c-.2 13.9-.1 27.9-.9 41.8 0 .3-.3.5-.6.5-.2 0-.4-.2-.5-.5-.9-13.9-.8-27.9-.9-41.8l.2-20.9c.2-7 .3-13.9 1-20.9 0-.1.1-.3.3-.3.1.1.2.2.2.3z"/></svg>
