<svg enable-background="new 0 0 228.1 143.5" viewBox="0 0 228.1 143.5" xmlns="http://www.w3.org/2000/svg"><path d="m33.5 86.1-.9-13" fill="#fff"/><path d="m33.4 86.1c-.3-1.1-.5-2.1-.6-3.2s-.2-2.2-.3-3.2c-.1-1.1-.1-2.2-.2-3.3 0-1.1 0-2.2.1-3.3 0-.1.1-.2.2-.2s.2.1.2.2c.2 1.1.4 2.1.5 3.2s.2 2.2.3 3.2c.1 1.1.1 2.2.2 3.3 0 1.1 0 2.2-.2 3.3 0 .1 0 .1-.2 0 .1.1.1.1 0 0z" fill="#ccced0"/><path d="m36.2 89-.2-13" fill="#fff"/><path d="m36.1 89c-.3-1.1-.4-2.2-.5-3.2-.1-1.1-.1-2.2-.1-3.2 0-1.1 0-2.2 0-3.3s.1-2.2.2-3.3c0-.1.1-.2.2-.2s.2.1.2.2c.2 1.1.3 2.2.3 3.2.1 1.1.1 2.2.1 3.2v3.3c0 1.1-.1 2.2-.3 3.3.1 0-0 .1-.1 0z" fill="#f6f6f6"/><path d="m38.7 90 1.7-12.9" fill="#fff"/><path d="m38.6 90c-.1-1.1-.1-2.2 0-3.3s.2-2.2.3-3.2c.1-1.1.3-2.1.5-3.2s.4-2.1.7-3.2c0-.1.1-.2.3-.1.1 0 .1.1.1.2 0 1.1 0 2.2-.1 3.3s-.2 2.2-.3 3.2c-.1 1.1-.3 2.1-.5 3.2s-.4 2.1-.8 3.2c-0-0-0-0-.2-.1.1.1 0 .1 0 0z" fill="#f6f6f6"/><path d="m41 99.2h-10.7l-1.1-16h12.9z" fill="#fff"/><path d="m41.2 99.2c-3.5.2-7.2.3-10.9.4-.2 0-.4-.2-.5-.4-.4-5.3-.8-10.6-1.2-15.9 0-.3.2-.6.5-.6 4.3-.1 8.6 0 12.9 0 .3 0 .5.2.5.5-.3 5.5-.8 10.8-1.3 16zm-.3-.1c.2-5.5.5-10.7.7-15.9l.5.5c-4.3 0-8.6.1-12.9 0l.5-.6c.3 5.3.7 10.6 1 15.9l-.5-.4c3.5.2 7 .3 10.7.5z" fill="#f6f6f6"/><path d="m33.1 72.2c-.3.3-.8.4-1.1.1-.3-.3-.2-.9-.1-1.1s.5-.9.5-.9.4.4.6.8.3.7.1 1.1z" fill="#ccced0"/><path d="m36.5 75c-.3.3-.8.4-1.1.1-.3-.3-.2-.9-.1-1.1s.5-.9.5-.9.4.4.6.8c.3.4.4.7.1 1.1z" fill="#f6f6f6"/><path d="m41.1 76.3c-.3.3-.8.2-1.1-.1-.3-.3 0-.9.1-1.1.2-.2.6-.8.6-.8s.3.5.5.9c.1.4.2.8-.1 1.1z" fill="#f6f6f6"/><path d="m227.7 99.1h-19.5" fill="#fff"/><path d="m227.7 99.2c-1.6.3-3.3.4-4.9.4s-3.3.1-4.9.1c-3.3-.1-6.5 0-9.8-.4-.1 0-.2-.1-.2-.2s.1-.2.2-.2c3.3-.3 6.5-.3 9.8-.4 1.6 0 3.3 0 4.9.1 1.6 0 3.3.1 4.9.4 0 0 .1 0 0 .2.1-.1 0 0 0 0z" fill="#ccced0"/><path d="m220.8 138.1v-39" fill="#fff"/><path d="m220.7 138.1c-.3-3.2-.3-6.5-.4-9.7l-.1-9.7c.1-6.5 0-13 .4-19.5 0-.1.1-.2.2-.2s.2.1.2.2c.3 6.5.3 13 .4 19.5l-.1 9.7c-.1 3.2-.1 6.5-.4 9.7-.1 0-.1 0-.2 0z" fill="#f6f6f6"/><path d="m20.9 60.9h3.8v22.5h-3.8z" fill="#fff"/><path d="m25.7 60.9h-11.1c0-1.2.7-2.2 1.7-2.7 1.9-.9 5.3-2.1 9.3-2.1v4.8z" fill="#fff"/><path d="m29 60.9h-1.8v-4.8h1.8c.6 0 1 .5 1 1v2.8c0 .6-.4 1-1 1z" fill="#fff"/><path d="m24.9 83.5c-1.3.1-2.6.2-4 .3-.2 0-.3-.1-.3-.3-.2-3.7-.2-7.5-.3-11.2l-.1-11.2c0-.4.3-.6.6-.6h3.8c.3 0 .6.3.6.6 0 3.8 0 7.7-.1 11.4zm-.4-.2-.3-11.3c-.1-3.7-.1-7.4-.1-11l.6.6h-3.8l.6-.6-.1 11.2c0 3.7-.1 7.5-.3 11.2l-.3-.3c1.3-0 2.5.1 3.7.2z" fill="#f6f6f6"/><path d="m25.8 61c-1.9.2-3.9.3-6 .4-1 0-2.1.1-3.1.1h-1.6-.4-.1c-1.3-1.3-.4-.4-.6-.6v-.2c0-.3.1-.6.2-.9.2-.6.5-1.1 1-1.5.2-.2.5-.4.7-.5.3-.1.5-.2.7-.3 1-.4 1.9-.7 2.9-1 2-.5 4-.8 6.1-.8.3 0 .4.2.4.5.1 1.6-.1 3.3-.2 4.8zm-.3-.2c-.1-1.7-.3-3.2-.3-4.7l.5.5c-2 .1-3.9.4-5.8 1-.9.3-1.9.6-2.7 1-.5.2-.8.4-1.1.6-.3.3-.5.6-.7 1-.1.2-.1.4-.1.6v.1c-.3-.3.6.6-.6-.6h.1.4 1.4c1 0 1.9 0 2.9.1 1.9.1 3.9.3 6 .4z" fill="#f6f6f6"/><path d="m29 61c-.6.1-1.2.3-1.8.3-.2 0-.4-.1-.4-.3v-.1c-.1-.8-.1-1.6-.2-2.4 0-.8 0-1.6-.1-2.4 0-.4.3-.6.6-.6h1 .5.6c.5.1 1 .4 1.2.9.1.2.2.5.2.7v.5c0 .6-.1 1.3-.1 1.9 0 .2 0 .3-.1.5 0 .2-.1.4-.3.6-.3.3-.7.5-1.1.5zm0-.3c.3 0 .5-.2.6-.4s.1-.4 0-.7c-.1-.6-.1-1.3-.1-1.9v-.5c0-.1 0-.1-.1-.2s-.2-.2-.3-.2h-1.9l.6-.6c0 .8 0 1.6-.1 2.4 0 .8-.1 1.6-.2 2.4l-.4-.4c.6.1 1.2.2 1.8.3v-.2z" fill="#f6f6f6"/><path d="m.2 99.1h55" fill="#fff"/><path d="m.2 99c4.6-.3 9.2-.3 13.8-.4l13.8-.1c9.2.1 18.3 0 27.5.4.1 0 .2.1.2.2s-.1.2-.2.2c-9.2.3-18.3.3-27.5.4l-13.8-.1c-4.6-.1-9.2-.1-13.8-.4-.1 0-.1-.1 0-.2-.1 0-.1 0 0 0z" fill="#ccced0"/><path d="m51.2 108.1v10.5h-34.5v-10.5" fill="#fff"/><path d="m51.3 108.1c.2 3.5.3 7 .4 10.5 0 .2-.2.4-.4.4-2.9.1-5.8.1-8.6.1h-8.6c-5.8 0-11.5 0-17.3-.1-.2 0-.4-.2-.4-.4 0-3.5.1-7 .2-10.5 0-.1.1-.2.2-.2s.2.1.2.2c.1 3.5.2 7 .2 10.5l-.4-.4c5.8-.1 11.5-.1 17.3-.1h8.6c2.9 0 5.8 0 8.6.1l-.5.5c0-3.5.2-7 .4-10.5-.1-.2 0-.2.1-.1 0-.1 0-.1 0 0z" fill="#f6f6f6"/><path d="m58 45.8c.8 0 1.1-.1 1.9-.4 3.2-1.1 4.7-3.8 4.6-6.9 0-.9 1.5-1.5 1.2-2.4-.4-1.2-2.5-1.1-3.5-3.3-1.2-2.5-4.3-3.2-7.2-2.2-4.1 1.4-6.3 5.8-4.9 9.9" fill="#fff" stroke="#204a69" stroke-linecap="round" stroke-linejoin="round" stroke-miterlimit="10"/><path d="m57.1 36.1c1.1 2.8.9 7.6-2.1 8.7-2.9 1.1-5-4.3-5-4.3z" fill="#4f758f"/><path d="m48.9 77.3c-2.6 19.8-.4 62-.4 62h9.7l.9-35.4" fill="#204a69" stroke="#204a69" stroke-miterlimit="10" stroke-width=".7347"/><path d="m48.5 138.3c2.9.1 11.8.7 13.2 1.1s1.4.7-.2 1c-1.6.4-13 0-13 0z" fill="#204a69" stroke="#204a69" stroke-miterlimit="10" stroke-width=".7347"/><path d="m64.7 76.9s1.1 15 1.6 30.4c.4 12.9-1.1 26.5-1 32h-10.5c.1-31.5-6.1-44.6-5.8-62" fill="#6f93ad"/><path d="m48.1 55.5c-1.2 10.8.8 21.8.8 21.8l15.9-.4-.2-9.8-3.7-2 4.5-8.7-3-3.1-4.5-4.7c-4.7-1.1-9.3 2.1-9.8 6.9z" fill="#6f93ad"/><path d="m59.4 64.4.8 51.7h6.6l-1-48.6z" fill="#bbc9d5"/><path d="m57.6 62.2c6.3 5.4 12.4 7 14.9 4.8 3.8-3.2-3-15.8-3.4-17.6-1.6-6.4-5.1-6.4-6-5.7s.9 4.7.9 4.7l1.6 8.5" fill="#fff" stroke="#204a69" stroke-linecap="round" stroke-linejoin="round" stroke-miterlimit="10"/><path d="m61.9 53.6 5.8 5.5" fill="none" stroke="#204a69" stroke-linecap="round" stroke-linejoin="round" stroke-miterlimit="10"/><path d="m54.8 138.3c2.9.1 11.8.7 13.2 1.1 1.3.5 1.4 1.2-.2 1.6s-13 0-13 0z" fill="#6f93ad"/><path d="m59.3 46-.9 2.6-.6-2.7z" fill="none" stroke="#204a69" stroke-linecap="round" stroke-linejoin="round" stroke-miterlimit="10"/><path d="m62.1 76.6c-4.8 2.1-14.2 1-14.2 1" fill="none" stroke="#bbc9d5" stroke-linecap="round" stroke-linejoin="round" stroke-miterlimit="10"/><path d="m67.6 91c-1.6.3-3.5.2-5.4-.1" fill="none" stroke="#fff" stroke-linecap="round" stroke-linejoin="round" stroke-miterlimit="10"/><path d="m54.3 48.9c2.5-.9-2.9-3.8-3.3-1.8s1.2 2.5 3.3 1.8z" fill="none" stroke="#bbc9d5" stroke-linecap="round" stroke-linejoin="round" stroke-miterlimit="10"/><path d="m55.5 48.5s3.1.4 4.7 2" fill="none" stroke="#bbc9d5" stroke-linecap="round" stroke-linejoin="round" stroke-miterlimit="10"/><path d="m49.5 41.2 15.6-10.6" fill="none" stroke="#bbc9d5" stroke-linecap="round" stroke-linejoin="round" stroke-miterlimit="10"/><path d="m62.6 41c.7.1 1.3-.2 1.3-.2" fill="none" stroke="#204a69" stroke-linecap="round" stroke-linejoin="round" stroke-miterlimit="10"/><path d="m61.9 37.7c-.2 0-.5-.1-.5-.4l-.1-.7c0-.2.1-.5.4-.5.2 0 .5.1.5.4l.1.7c0 .2-.2.5-.4.5z" fill="#204a69"/><path d="m172.7 63h-1.2" fill="#fff"/><path d="m172.7 63.1c-.1.2-.2.3-.3.3s-.2.1-.3.1c-.2-.1-.4 0-.6-.3-.1-.1-.1-.2 0-.3.2-.3.4-.3.6-.3.1 0 .2 0 .3.1.1 0 .2.1.3.3z" fill="#f6f6f6"/><path d="m172.7 69.1h-1.2" fill="#fff"/><path d="m172.7 69.2c-.1.2-.2.3-.3.3s-.2.1-.3.1c-.2-.1-.4 0-.6-.3-.1-.1-.1-.2 0-.3.2-.3.4-.3.6-.3.1 0 .2 0 .3.1.1 0 .2.1.3.3z" fill="#f6f6f6"/><path d="m172.7 71.3h-1.2" fill="#fff"/><path d="m172.7 71.4c-.1.2-.2.3-.3.3s-.2.1-.3.1c-.2-.1-.4 0-.6-.3-.1-.1-.1-.2 0-.3.2-.3.4-.3.6-.3.1 0 .2 0 .3.1.1 0 .2.1.3.3z" fill="#f6f6f6"/><path d="m172.7 77.6h-1.2" fill="#fff"/><path d="m172.7 77.7c-.1.2-.2.3-.3.3s-.2.1-.3.1c-.2-.1-.4 0-.6-.3-.1-.1-.1-.2 0-.3.2-.3.4-.3.6-.3.1 0 .2 0 .3.1.1 0 .2.1.3.3z" fill="#f6f6f6"/><path d="m172.7 83.7h-1.2" fill="#fff"/><path d="m172.7 83.8c-.1.2-.2.3-.3.3s-.2.1-.3.1c-.2-.1-.4 0-.6-.3-.1-.1-.1-.2 0-.3.2-.3.4-.3.6-.3.1 0 .2 0 .3.1.1 0 .2.1.3.3z" fill="#f6f6f6"/><path d="m172.7 89.4h-1.2" fill="#fff"/><path d="m172.7 89.5c-.1.2-.2.3-.3.3s-.2.1-.3.1c-.2-.1-.4 0-.6-.3-.1-.1-.1-.2 0-.3.2-.3.4-.3.6-.3.1 0 .2 0 .3.1.1 0 .2.1.3.3z" fill="#f6f6f6"/><path d="m30.9 111.5h6.1" fill="#fff"/><path d="m30.9 111.4c.5-.3 1-.4 1.5-.4s1-.1 1.5-.1 1 0 1.5.1c.5 0 1 .1 1.5.3.1 0 .2.2.1.3 0 .1-.1.1-.1.1-.5.2-1 .2-1.5.3-.5 0-1 .1-1.5.1s-1 0-1.5-.1c-.5 0-1-.1-1.5-.4-.1-.1-.1-.1 0-.2-.1 0 0 0 0 0z" fill="#f6f6f6"/><path d="m.2 142.1c19-.6 37.9-.7 56.9-.8l56.9-.1c37.9.1 75.8.1 113.7.7.2 0 .4.2.4.4s-.2.4-.4.4c-37.9.7-75.8.6-113.7.7l-56.9-.1c-19-.1-37.9-.3-56.9-.8-.1 0-.2-.1-.2-.2 0-.1.1-.2.2-.2z" fill="#f6f6f6"/><path d="m69.8 22.2-.2-7.8v-5.2c0-4.5 3.7-8.2 8.2-8.2h121.2c4.5 0 8.2 3.7 8.2 8.2v13" fill="#fff"/><path d="m69.8 22.2-.1-2.5" fill="none" stroke="#ccced0" stroke-linecap="round" stroke-linejoin="round" stroke-width="2"/><path d="m69.6 14.6v-.2-5.2c0-4.5 3.7-8.2 8.2-8.2h121.2c4.5 0 8.2 3.7 8.2 8.2v7.9" style="fill:none;stroke:#ccced0;stroke-width:2;stroke-linecap:round;stroke-linejoin:round;stroke-dasharray:5.0882 5.0882"/><path d="m207.2 19.7v2.5" fill="none" stroke="#ccced0" stroke-linecap="round" stroke-linejoin="round" stroke-width="2"/><path d="m214 23.2h-151.3" fill="#fff"/><path d="m214 23.4c-12.6.8-25.2.8-37.8.8l-37.8.1-37.8-.1c-12.6 0-25.2 0-37.8-.8v-.5c12.6-.8 25.2-.8 37.8-.8l37.8-.1 37.8.1c12.6 0 25.2 0 37.8.8z" fill="#ccced0"/><path d="m86.8 65h57.4v36.9h-57.4z" fill="#fff"/><path d="m144.2 54.4h-57.4v-8.2c0-5.9 4.8-10.7 10.7-10.7h46.7z" fill="#fff"/><path d="m135.2 73.3c-7 0-9.4 3.2-10.9 5.9-1.4 2.5-4.5 5.9-9.3 7.2s-6.8 4.1-6.8 6.8h27.2z" fill="#fff"/><path d="m72.8 127.8v-96.1h137.6v96.1h-103z" fill="#969ca1" opacity=".26"/><g fill="none" stroke-linecap="round" stroke-linejoin="round"><path d="m144.6 105.6v2.5h-2.5" stroke="#fff" stroke-width="2"/><path d="m137.5 108.1h-43.8" stroke="#fff" stroke-dasharray="4.6103 4.6103" stroke-width="2"/><path d="m91.4 108.1h-2.5v-2.5" stroke="#fff" stroke-width="2"/><path d="m88.9 100.3v-39.5" stroke="#fff" stroke-dasharray="5.267 5.267" stroke-width="2"/><path d="m88.9 58.2v-2.5h2.5" stroke="#fff" stroke-width="2"/><path d="m96 55.7h43.8" stroke="#fff" stroke-dasharray="4.6103 4.6103" stroke-width="2"/><path d="m142.1 55.7h2.5v2.5" stroke="#fff" stroke-width="2"/><path d="m144.6 63.4v39.5" stroke="#fff" stroke-dasharray="5.267 5.267" stroke-width="2"/></g><path d="m141.3 81.4h-43.7v-9.9h51.9v1.7c0 4.5-3.7 8.2-8.2 8.2z" fill="#fff"/><path d="m121.8 99.8h-24.2v-9.9h32.4v1.7c0 4.5-3.7 8.2-8.2 8.2z" fill="#4f758f" opacity=".26"/><path d="m198.4 118.7h-39.7v-27.9c0-3.9 3.1-7 7-7h32.7z" fill="#6f93ad"/><path d="m217.7 74.7h-42v-33.6h36.1c3.2 0 5.8 2.6 5.8 5.8v27.8z" fill="#fff"/><path d="m217.7 72.2v2.5h-2.5" fill="none" stroke="#ccced0" stroke-linecap="round" stroke-linejoin="round" stroke-width="2"/><path d="m209.9 74.7h-29" style="fill:none;stroke:#ccced0;stroke-width:2;stroke-linecap:round;stroke-linejoin:round;stroke-dasharray:5.2793 5.2793"/><path d="m178.3 74.7h-2.5v-2.5" fill="none" stroke="#ccced0" stroke-linecap="round" stroke-linejoin="round" stroke-width="2"/><path d="m175.8 66.5v-20" style="fill:none;stroke:#ccced0;stroke-width:2;stroke-linecap:round;stroke-linejoin:round;stroke-dasharray:5.7214 5.7214"/><path d="m175.8 43.6v-2.5h2.5" fill="none" stroke="#ccced0" stroke-linecap="round" stroke-linejoin="round" stroke-width="2"/><path d="m183.5 41.1h28.4c3.2 0 5.8 2.6 5.8 5.8v22.7" style="fill:none;stroke:#ccced0;stroke-width:2;stroke-linecap:round;stroke-linejoin:round;stroke-dasharray:5.2341 5.2341"/><path d="m175.6 41.3 41 33" fill="#fff"/><path d="m175.6 41.3 1.9 1.6" fill="none" stroke="#ccced0" stroke-linecap="round" stroke-linejoin="round" stroke-width="2"/><path d="m181.7 46.2 30.9 24.9" style="fill:none;stroke:#ccced0;stroke-width:2;stroke-linecap:round;stroke-linejoin:round;stroke-dasharray:5.2928 5.2928"/><path d="m214.6 72.7 2 1.6" fill="none" stroke="#ccced0" stroke-linecap="round" stroke-linejoin="round" stroke-width="2"/><circle cx="84.8" cy="11.6" fill="#969ca1" opacity=".26" r="2"/><circle cx="95.5" cy="11.6" fill="#969ca1" opacity=".26" r="2"/><circle cx="106.3" cy="11.6" fill="#969ca1" opacity=".26" r="2"/></svg>