<svg viewBox="0 0 1495 856.6" xmlns="http://www.w3.org/2000/svg"><path d="m401 688.9h683.1v167.8h-683.1zm319.4-166.3c-18.8 15-23.3 34.3-23.3 34.3l-5.6 120.4h110.6l-24-120.4zm167.3-325.5c-45-5-85.2 36.7-91.9 57.1-5.8 17.8-20.8 74.9-10.2 107.9s.8 65 43.9 74.5 109.7 8.5 109.1-19.4c-.6-27.8-16.5-179.6-19.5-196.1s-4.2-21-31.4-24z" fill="#fff"/><path d="m1136.1 856.6c6.8-25 10.8-56.2 10.8-90.1 0-81.9-23.6-148.4-52.7-148.4s-52.7 66.4-52.7 148.4c0 33.9 4 65.1 10.8 90.1z" fill="#fff"/><g fill="#ccced0"><circle cx="533.9" cy="417.2" r="6.1"/><circle cx="533.9" cy="443.6" r="6.1"/><circle cx="533.9" cy="470" r="6.1"/><circle cx="533.9" cy="274" r="6.1"/><circle cx="533.9" cy="301.5" r="6.1"/><path d="m535 230.5c15-.4 30.1-.8 45.2-.8l45.2-.1-2.1 1.5c2.4-8.9 3.3-18.6 2-27.6-1.2-9.1-5.6-17.7-13.1-22.8-3.6-2.6-7.9-4.3-12.3-5.4-4.5-1.1-9.2-1.9-13.6-1.7-2.2 0-4.3.4-6.3 1.1l-.4.1c-.3.1-.5.2-.8.2-.6.1-1.2.1-1.8 0-1.2-.2-2.3-.9-3-2-.3-.5-.6-1.2-.6-1.9l-.1-.9-.2-1.7c-.6-4.6-2-8.9-4-13-4.1-8.2-11.4-14.3-20.3-16.8-9-2.5-18.4-2.8-27.5-.8-18.3 3.9-33.7 17.7-42 34.2-.5 1-1.8 1.5-2.8.9-.3-.1-.5-.3-.7-.6-5-6.6-12.8-12.1-21.3-13.2-8.7-1.1-17.8-.1-25.8 3.6s-14.8 9.8-20 17.1-9.2 15.5-11.6 24.2c-.1.3-.4.5-.8.3-.2-.1-.4-.4-.4-.6 2.2-9 5.9-17.5 11-25.2 5.2-7.6 12.1-14.3 20.6-18.4s18.1-5.4 27.4-4.5c9.7 1.1 18.3 6.6 24.2 14.3l-3.6.3c4.7-9 11.1-16.4 18.6-22.9 7.5-6.4 16.6-11.2 26.2-13.4 9.7-2.2 19.9-2 29.6.7 4.8 1.5 9.5 3.7 13.5 7s7.2 7.3 9.5 11.9c2.3 4.5 3.8 9.4 4.6 14.4l.2 1.9.1.9v-.2c0-.1 0 0 0 0l.5-.2c2.5-.9 5.1-1.4 7.8-1.5 5.1-.2 10.1.6 14.9 1.9 4.8 1.2 9.7 3.2 13.9 6.2 8.6 5.9 13.5 16 14.8 25.9 1.4 10 .4 19.9-2.3 29.5-.2.9-1.1 1.5-2 1.5l-45.2-.4c-15-.1-30.1-.5-45.2-1.1-.5 0-.9-.4-.9-.9 0-.6.4-1 .9-1z"/></g><ellipse cx="655.8" cy="144.3" fill="#bbc9d5" rx="64.6" ry="64.5"/><path d="m616.6 94.6c-12.1 10.6-20.1 25.2-22.3 40.7-2.1 15.5 1.4 31.6 10.3 44.5s22.4 22 37.7 25.3c15.1 3.3 31.4.7 44.7-7.2s23.6-20.8 27.9-35.7c4.5-15 2.9-31.2-4.2-45.2-7.2-14-19.3-24.7-34.1-30.1-7.3-2.7-15-3.9-23-4-4 0-8 0-11.7.6s-7.4 2-10.9 3.8h-.1c-.8.4-1.8.1-2.2-.7-.2-.5-.2-1.1.1-1.6 3.6-5.6 7.2-11.2 11-16.7.2-.3.6-.4.9-.1.2.2.3.5.2.8-3 6-6.1 11.9-9.3 17.7l-2.3-2.3c3.6-2.1 7.5-4 11.7-4.9s8.4-1.2 12.5-1.2c8.3-.1 16.8.8 24.8 3.6 33.6 11.8 52.1 47.7 42.3 82-4.7 16.4-15.8 30.8-30.5 39.3-14.7 8.7-32.6 11.4-49.2 7.6-16.7-3.8-31.4-13.8-41-28s-13.4-31.5-10.4-48.3c2.7-16.7 12.7-31.8 26.2-41 .3-.2.7-.1.9.2.3.3.2.7 0 .9z" fill="#6f93ad"/><path d="m641 127 16.7 20.9-32.5 28.7" fill="#bbc9d5"/><path d="m642.4 125.9c2.4 1 3.4 3 4.9 4.7l4.3 5.2c2.8 3.5 5.8 6.9 8.5 10.4 1 1.3.8 3.1-.3 4.1-5.4 4.8-10.9 9.5-16.5 14.2-5.5 4.7-11 9.4-17.5 12.9-.4.2-1 .1-1.2-.3-.1-.3-.1-.7 0-1 4.3-6 9.6-10.9 15-15.7s10.7-9.7 16.1-14.5l-.3 4.1c-2.8-3.5-5.5-7.1-8.3-10.6l-4.1-5.3c-1.3-1.9-3-3.3-3.5-5.8-.2-1.1.5-2.2 1.7-2.4.4-.2.8-.2 1.2 0z" fill="#6f93ad"/><path d="m630.2 85.8 17.1 9.9" fill="none"/><path d="m630.6 85.3c2.5-1.1 3.8-.1 5.3.5s3 1.4 4.4 2.2c1.4.9 2.8 1.7 4.1 2.7s2.8 1.7 3.2 4.4c0 .5-.2 1-.7 1.2-2.5 1.1-3.8.1-5.3-.5s-3-1.4-4.4-2.2c-1.4-.9-2.8-1.7-4.1-2.7s-2.8-1.7-3.2-4.4c-.1-.6.2-1 .7-1.2z" fill="#6f93ad"/><circle cx="655.8" cy="106.2" fill="#6f93ad" r="3.2"/><circle cx="655.8" cy="189.2" fill="#6f93ad" r="3.2"/><circle cx="698.6" cy="146.4" fill="#6f93ad" r="3.2"/><circle cx="612.9" cy="146.4" fill="#6f93ad" r="3.2"/><path d="m395.4 181.4c-19.7 0-34.1.1-34.1.1s-9.3-30.3 15.3-36.7c7.3-1.9 11.7-1.2 13.8-.2.7.3 1.5 0 1.9-.7 0-.1.1-.2.1-.4.5-6.1 4-22.7 26.2-22.7 24.4 0 35.2 23 35.2 23s5.4-7.9 15.1-8.7c10.5-.8 18.1 2.9 23.5 8" fill="none"/><path d="m395.4 182.3c-5.7.5-11.4.9-17 1l-17 .3c-.9 0-1.8-.6-2-1.5-1.8-6.1-2.3-12.5-1.5-18.8s4-12.9 9.5-16.7c2.7-1.9 5.7-3.2 9-4 3.1-.9 6.4-1.3 9.6-1.2 1.8 0 3.5.4 5.1 1l.3.1h-.4c-.2 0-.4.2-.6.4-.1.1-.1.3-.1.5v-.5l.1-1.2c.4-3.2 1.5-6.4 2.9-9.3 3-6 8.4-10.4 14.9-12.1 6.2-1.7 12.6-1.8 18.9-.4 12.6 2.9 22.4 12.1 28.6 23.1l-3.6-.3c2.4-3.2 5.6-5.7 9.3-7.3 3.6-1.7 7.7-2.2 11.5-1.9 7.6.4 15 3.8 20.1 9.3.2.2.2.6 0 .8s-.6.2-.8 0c-5.4-4.6-12.3-7.1-19.3-6.9-3.5.1-6.8.5-9.7 2.1-2.9 1.5-5.5 3.7-7.4 6.3v.1c-.7.9-2 1.1-2.9.4-.2-.2-.4-.4-.6-.7-4.9-10.2-14.6-18.7-25.7-21-5.6-1.2-11.3-1-16.8.5-5.3 1.5-9.7 5.2-12.1 10.1-1.2 2.5-2.1 5.1-2.4 7.9l-.1 1v.5c0 .5-.2 1.1-.5 1.5-.5.8-1.5 1.4-2.4 1.6-.5.1-.9.1-1.4 0-.2 0-.4-.1-.7-.2l-.2-.1c-1.2-.4-2.4-.6-3.7-.6-5.3 0-11.4 1.3-15.7 4.3-4.4 3-7.1 8.1-7.8 13.7-.8 5.6-.2 11.5 1.2 16.9l-2.1-1.5 17 .2c5.7.1 11.4.4 17 .9.5 0 .9.5.8 1-.5.3-.9.7-1.3.7z" fill="#ccced0"/><path d="m535 231.4c48.3.1 90.3.3 90.3.3s14.8-48.4-24.5-58.6c-11.8-3-18.6-1.9-22.1-.4-1.4.6-3-.2-3.1-1.7-.8-9.7-6.4-36.3-41.9-36.3-39.1 0-56.2 36.7-56.2 36.7s-8.7-12.7-24.1-13.9c-45.6-3.7-56.8 46.7-56.8 46.7" fill="none"/><path d="m391.6 230.8c4.2-1 7.5-1.2 11.3-1.4l11-.4c3.7-.2 7.3.3 11 .3 3.7-.6 7.3.4 11 1.2.3.1.5.4.4.7 0 .2-.2.4-.4.4-3.7.8-7.3 1.9-11 1.3-3.7 0-7.3.6-11 .4l-11-.2c-3.6 0-7.2-.3-10.8-.8l-.5-.1c-.4-.1-.7-.5-.7-1 .1-.1.3-.3.7-.4z" fill="#ccced0"/><ellipse cx="485.4" cy="237.3" fill="#bbc9d5" rx="38" ry="37.9"/><path d="m485.4 216.8v41.1" fill="none"/><path d="m486.1 216.8c2.2 3.4 2 6.9 2.2 10.3a177.08 177.08 0 0 1 0 20.6c-.1 3.4 0 6.9-2.2 10.3h-1.4c-2.2-3.4-2-6.9-2.2-10.3a177.08 177.08 0 0 1 0-20.6c.1-3.4 0-6.9 2.2-10.3z" fill="#6f93ad"/><path d="m506 237.3h-41.2" fill="none"/><path d="m506 238c-3.4 2.2-6.9 2-10.3 2.2s-6.9.3-10.3.3-6.9-.1-10.3-.3-6.9 0-10.3-2.2v-1.4c3.4-2.2 6.9-2 10.3-2.2a177.08 177.08 0 0 1 20.6 0c3.4.2 6.9 0 10.3 2.2z" fill="#6f93ad"/><path d="m510.5 8.6s-14.2 17.6-38.8 15.5c0 0-13.1 70.4 40.4 85.5 0 0 52.1-7.2 41.7-85.5 0 0-29.5 2.3-43.3-15.5z" fill="#bbc9d5"/><path d="m510.8 109.6s53.7-7.2 43.3-85.5c0 0-29.8.7-43.5-17.1 0 0-15.6 19.2-40.1 17.1-.1 0-13.2 70.4 40.3 85.5" fill="#069e08"/><path d="m494.8 62.9 13.8 10.9 28-31.6" fill="#069e08"/><path d="m495.6 61.9c1.7.2 2.6 1.4 3.9 2.3l3.5 2.7c2.3 1.8 4.7 3.5 7 5.4l-2.8.2 14.1-15.7c4.7-5.3 9.5-10.4 15-15 .2-.2.6-.2.9 0 .2.2.2.5 0 .7-3.8 6-8.4 11.4-13 16.7l-13.9 15.9c-.7.8-1.9.9-2.8.3-2.4-1.8-4.6-3.7-6.8-5.5l-3.4-2.8c-1.1-1-2.4-1.7-3-3.2-.3-.7 0-1.6.8-1.9 0-.1.3-.2.5-.1z" fill="#fff"/><path d="m533.9 323.3c-13 0-23.5 10.5-23.5 23.5s10.5 23.5 23.5 23.5 23.5-10.5 23.5-23.5-10.5-23.5-23.5-23.5zm-1.1 27.4h-11.8l11.7-22.7v22.7zm2.3 14.9v-22.7h11.7z" fill="#069e08"/><path d="m1049.4 680.8c9.9-38.8 26.3-64.1 44.8-64.1 30.2 0 54.8 68.4 54.8 152.4 0 31.1-3.4 60-9.1 84.2" style="fill:none;stroke:#ccced0;stroke-width:7.5622;stroke-linecap:round;stroke-linejoin:round;stroke-miterlimit:10"/><path d="m1046.5 483.9c-1.9 4.5.4 8.7 5.3 9.8l60.5 13.2c4.9 1.1 10.2-1.9 11.7-6 1.5-4.2-.4-8.7-5.3-9.8l-60.5-13.2c-4.5-1.2-9.8 1.9-11.7 6 0 0 1.9-4.1 0 0z" style="stroke:#ccced0;stroke-width:7.5622;stroke-linecap:round;stroke-linejoin:round;stroke-miterlimit:10;fill:#fff"/><path d="m1046.5 483.9c-1.9 4.5.4 8.7 5.3 9.8l60.5 13.2c4.9 1.1 10.2-1.9 11.7-6 1.5-4.2-.4-8.7-5.3-9.8l-60.5-13.2c-4.5-1.2-9.8 1.9-11.7 6 0 0 1.9-4.1 0 0z" style="stroke:#ccced0;stroke-width:7.5622;stroke-linecap:round;stroke-linejoin:round;stroke-miterlimit:10;fill:#fff"/><path d="m1050.3 657.9h-215.9c-14.7 0-27.2-11.7-28-26.5l7.2-136.9c-.8-15.9 11.7-29.5 28-29.5h215.9c14.7 0 27.2 11.7 28 26.5l-7.2 136.9c.7 15.8-12.1 29.5-28 29.5z" style="stroke:#ccced0;stroke-width:7.5622;stroke-linecap:round;stroke-linejoin:round;stroke-miterlimit:10;fill:#fff"/><path d="m885.1 350.1v-15.1c-19.3 3.4-36.3 4.9-51 0-15.2-5 23 15.5 51 15.1z" fill="#ccced0"/><path d="m834 281.3c-2.6 0-4.5-1.9-4.5-4.5v-7.2c0-2.6 1.9-4.5 4.5-4.5s4.5 1.9 4.5 4.5v7.2c.4 2.6-1.8 4.5-4.5 4.5z" fill="#005083"/><path d="m938 276.7c-2.3-24.2 6-35.5-6.4-70.3-7.9-21.9-45.8-47.3-84.7-37.8-42 5.7-59.7 43.9-59.7 86.6 0 57.1-34.8 55.6-34.8 95.7s27.6 46.1 27.6 46.1 13.6 2.3 27.6-1.5v-20c11-1.1 19.7-9.8 20.8-20.8l2.3-20c-23.4-4.2-29.9-74.5-29.9-74.5 45 3 54.8-30.2 65-49.9 3.8 7.2 12.9 18.1 24.6 26.5 25.7 19.3 23.4 54.4 12.9 74.5-10.2 18.9-21.6 21.2-21.6 21.2l.8 22.3c.4 9.8 7.9 18.1 17.8 19.7l4.9.8v20.8h20.8s20.4-10.2 30.2-38.9c11.3-29.4-16.7-65.7-18.2-80.5z" fill="#969ca1"/><path d="m803.8 259.3s0 3.4.4 9.5c.4 3 .4 6.4.8 10.6.4 1.9.4 4.2.8 6.4.4 2.3.8 4.5 1.1 7.2.4 2.6 1.1 4.9 1.9 7.6 1.1 2.6 1.5 5.3 3 7.9 2.3 5.3 5.7 10.2 10.2 14.4s10.2 7.2 16.3 8.7c6.4 1.5 12.9 2.6 19.7 2.6h4.8l5.3-.4c1.9 0 3.4-.4 4.9-.8s3-.4 4.5-.8c6.4-1.5 11.7-4.5 16.3-8.7 4.2-4.2 7.2-9.5 9.1-14.7 1.9-5.3 3-10.6 3.8-15.9.8-4.9 1.1-9.8 1.5-14s.4-7.9.4-11c0-6 .4-9.5.4-9.5 0-1.1.8-1.9 1.9-1.9s1.9.8 1.9 1.9v20.5c0 4.2-.4 9.1-1.1 14.4s-1.5 11-3.8 16.6c-1.9 6-5.3 12.1-10.2 17s-11.7 8.7-18.5 10.2c-1.5.8-3.4.8-5.3 1.1s-3.8.8-5.3.8l-5.3.4h-5.4c-7.2 0-14-1.1-21.2-3-6.8-1.9-13.2-5.3-18.5-9.8-4.9-4.5-8.7-10.6-11-16.3-1.5-2.6-1.9-5.7-3-8.3-.8-2.6-1.1-5.7-1.9-7.9-.4-2.6-.8-5.3-1.1-7.6-.4-2.3-.4-4.5-.8-6.8-.4-4.2-.4-7.9-.4-11v-9.5c0-1.1.8-1.9 1.9-1.9s1.9.9 1.9 2z" fill="#204a69"/><path d="m862.8 265.4s.4 1.5.8 4.2c.4 2.3.8 5.7.8 8.7 0 3.4 0 6.4-.4 8.7s-.4 4.2-.4 4.2c-.4 1.1-1.5 1.9-2.6 1.5-.8 0-1.5-.8-1.5-1.5 0 0-.4-1.5-.4-4.2-.4-2.3-.4-5.7-.4-8.7 0-3.4.4-6.4.8-8.7s.8-4.2.8-4.2c0-.8 1.1-1.1 1.9-1.1-.2.3.2.7.6 1.1z" fill="#204a69"/><path d="m887.3 281.3c-2.6 0-4.5-1.9-4.5-4.5v-7.2c0-2.6 1.9-4.5 4.5-4.5s4.5 1.9 4.5 4.5v7.2c.5 2.6-1.8 4.5-4.5 4.5z" fill="#005083"/><path d="m849.5 305.5s.4 0 1.1.4c.8 0 1.1.4 2.3.4 2.3.4 5.3.8 8.3.8s6 0 8.3-.4c1.1-.4 1.9-.4 2.3-.8s.8-.4.8-.4h.4c1.1-.4 1.9 0 2.3 1.1.4.8 0 1.5-.4 1.9l-1.1 1.1c-.8.4-1.9 1.1-3 1.5s-3 .8-4.5 1.1c-1.5.4-3.4.4-5.3.4-3.4 0-6.8-.8-9.5-1.9-.8-.4-1.1-.4-1.9-.8-.4-.4-1.1-.8-1.5-.8l-.8-.8c-.8-.8-.8-1.9-.4-2.6 1.1-.2 1.9-.6 2.6-.2zm26.1-60.2s0-.4.8-.8c.4-.4.8-.4 1.1-.8.4-.4.8-.4 1.5-.8 1.1-.4 2.3-.8 3.4-1.1 1.1-.4 2.6-.4 4.2-.4s2.6.4 4.2.4c1.1.4 2.3.8 3.4 1.1 1.9 1.1 3 2.3 3 2.3.8.8.8 1.9 0 2.6-.4.4-1.1.8-1.9.4h-.4s-.4 0-.8-.4c-.4 0-1.1-.4-1.9-.4-1.5-.4-3.8-.8-6-.8-2.3 0-4.5 0-6 .4h-1.5c-.4.4-.8.4-.8.4-1.1.4-2.3 0-2.6-1.1-.4.5-.1-.2.3-1zm-32.5 3.1s-.4 0-.8-.4h-1.4c-1.5 0-3.8-.4-6-.4s-4.5.4-6 .8c-.8 0-1.5.4-1.9.4s-.8.4-.8.4h-.4c-1.1.4-1.9-.4-2.3-1.5 0-.8 0-1.1.4-1.9 0 0 1.1-1.1 3-2.3 1.1-.4 2.3-.8 3.4-1.1s2.6-.4 4.2-.4c1.5 0 2.6 0 4.2.4 1.1.4 2.6.8 3.4 1.1.4 0 1.1.4 1.5.8s.8.8 1.1.8l.8.8c.8.8.4 2.3-.4 2.6-.5.2-1.2.2-2-.1z" fill="#204a69"/><path d="m1051.4 558.8s-14-159.9-142.5-183.4c0 0-20.8 29.9-52.9 29.9s-48.4-29.9-48.4-29.9c-128.6 40.5-121.8 185.7-121.8 185.7h80.2l-2.3 123.6h209.1l-5.7-124z" fill="#6f93ad"/><circle cx="858.2" cy="430.6" fill="#bbc9d5" r="4.9"/><path d="m823.1 556.9h-12.9c-21.2 0-25.7-72.6-25.7-72.6h66.2s-8.3 72.6-27.6 72.6z" fill="#fff"/><path d="m985.3 693.4c-72.6 0-100.2-121.4-100.2-121.4s-12.9-2.3-25.7-10.6c-11.3-7.6-12.9-23.4-12.9-23.4s-17.4-1.5-32.1 2.3c-4.9 1.1-6.4-2.3-8.7-8.7s2.3-14.7 12.9-17c37.8-21.2 48-6.4 55.6 0 17 14.7 100.2 80.9 100.2 80.9" fill="#fff"/><path d="m835.2 307v-1.1c0-.7 0-1.5.4-2.3s.8-1.5 1.1-1.9l.8-.8 1.5.8v1.1c0 .7 0 1.5-.4 2.3s-.8 1.5-1.1 1.9l-.8.8zm51 .7-.8-.8c-.4-.4-.8-1.1-1.1-1.9-.4-.8-.4-1.5-.4-2.3v-1.1l1.5-.8.8.8c.4.4.8 1.1 1.1 1.9.4.8.4 1.5.4 2.3v1.1z" fill="#ccced0"/><path d="m893.4 595.1 34-31.8" style="fill:none;stroke:#ccced0;stroke-width:3.7811;stroke-linecap:round;stroke-linejoin:round;stroke-miterlimit:10"/><path d="m794.3 684.7h-179.2v-14.7h164.1c8.3 0 15.1 6.4 15.1 14.7z" fill="#bbc9d5"/><path d="m679.4 684.7h-246.9l-21.9-158.1c-1.9-14.4 9.1-27.2 23.8-27.2h198.1c12.1 0 22.3 8.7 23.8 20.8z" fill="#bbc9d5"/><path d="m1015.1 683.2c11.7-1.9 23.1-2.3 34.8-2.3 11.7-.4 23.1-.4 34.8 0 2.3 0 4.2 1.9 3.8 4.2l-.4 25c0 4.2 0 8.3-.4 12.5s-.4 8.3-.8 12.5c0 1.5-1.5 2.3-2.6 2.3s-2.3-1.1-2.3-2.3c-.4-4.2-.8-8.3-.8-12.5-.4-4.2-.4-8.3-.4-12.5l-.4-25 4.2 4.2h-34.8c-11.7 0-23.1-.4-34.8-2.3-.8 0-1.5-1.1-1.1-1.9-.3-1.2.5-1.9 1.2-1.9z" fill="#ccced0"/><path d="m1003.4 690 27.6-25.7 7.2-17.4-23.1-14-35.1 6.4-5.7 52.6z" fill="#fff"/><path d="m402.6 734.6v-49.9h548.3" fill="none"/><path d="m401.1 734.6-.8-25c-.4-8.3-.4-16.6-.4-25 0-1.5 1.1-3 2.6-3 22.7-.4 45.8-.8 68.4-.8l68.4-.4 136.9-.4 136.9.4 68.4.4 34.4.4 34.4.8c1.5 0 2.6 1.1 2.6 2.6s-1.1 2.3-2.6 2.6l-34.4.8-34.4.4-68.4.4-136.9.4-136.9-.4-68.4-.4c-22.7-.4-45.8-.4-68.4-.8l3-3c0 8.3-.4 16.6-.4 25l-.8 25c0 .8-.8 1.5-1.5 1.5-.9 0-1.7-.7-1.7-1.5z" fill="#ccced0"/><path d="m815.9 513s.8-.4 1.5-1.5c1.1-.8 2.6-2.3 4.9-3.4 1.1-.8 2.6-1.5 4.2-2.3 1.5-.8 3-1.5 4.9-2.3 3.4-1.5 7.9-2.3 12.9-2.6 4.9-.4 10.2 0 15.5 1.5s11 3.8 15.9 7.6c4.2 3.4 8.7 7.2 13.2 11s9.1 7.6 13.6 11.3c18.5 15.1 36.7 30.2 50.7 41.6 14 11.3 22.7 19.3 22.7 19.3 1.1 1.1 1.1 2.6 0 3.4-.8.8-2.3 1.1-3.4.4 0 0-9.8-6.8-23.8-17.8-7.2-5.3-15.1-12.1-24.2-18.9-8.7-6.8-18.1-14.4-27.2-21.9-4.5-3.8-9.1-7.6-13.6-11.3s-9.1-7.6-13.2-11c-3.8-3-8.3-5.3-12.9-6.4-4.5-1.1-9.1-1.9-13.2-1.9-4.2 0-7.9.4-11.3 1.1-3.4.8-6.4 1.5-8.7 2.6-2.3.8-4.2 1.9-5.7 2.3-1.1.4-1.9.8-1.9.8-.8.4-1.5 0-1.5-.8.2.4.2-.4.6-.8z" fill="#204a69"/><path d="m811.3 537.6c1.1-.8 2.3-1.5 3.8-2.3s3-1.1 4.5-1.9c3-1.1 6-1.5 9.1-1.9 3-.4 6.4 0 9.5.4 1.5.4 3 .4 4.5.8.8 0 1.5.4 2.3.4.8.4 1.5.4 2.3.8 1.5.4 2.3 1.5 2.3 3v.4c0 .8.4 1.9.4 3 .4 1.1.4 1.9.8 3 .8 1.9 1.5 3.8 2.3 5.7s1.9 3.4 3.4 4.9c.8.8 1.1 1.5 1.9 2.3s1.5 1.1 2.3 1.9c1.1.8 1.9 1.1 3 1.9.8.4 1.9 1.1 2.6 1.5 1.9 1.1 3.8 1.9 6 2.6 1.9.8 4.2 1.5 6 2.3 1.1.4 2.3.8 3 .8 1.1.4 2.3.4 3 .8 1.5.4 3 1.5 3.4 3 1.5 6.4 3.4 12.9 5.7 18.9 2.3 6.4 4.5 12.5 6.8 18.5 4.9 12.1 11 24.2 17.8 35.2 7.2 11 15.1 21.6 25 29.5 9.8 8.3 21.6 14 34 15.5 1.5 0 3 .4 4.5.4h4.9c3 0 6-.4 9.1-1.1 6-1.5 11.7-4.2 16.6-7.9 9.8-7.6 16.3-19.3 20-31.8 4.2-12.5 6.4-25.3 7.6-38.6.8-6.4 1.1-13.2 1.5-20s.4-13.2 0-20c0-.8.4-1.1 1.1-1.1.8 0 1.1.4 1.1 1.1 1.1 6.8 1.9 13.6 2.3 20.4s.4 13.6 0 20.4c-.8 13.6-2.6 27.2-6.8 40.5-2.3 6.4-4.9 13.2-8.7 19.3s-8.3 11.7-14 16.3c-5.7 4.5-12.5 7.6-19.7 9.5-3.4.8-7.2 1.1-10.6 1.5h-5.2c-1.9 0-3.4-.4-5.3-.4-7.2-.8-14-2.6-20.4-5.7-6.4-3-12.5-6.8-17.8-11.3-11-9.1-19.7-20-26.8-31.4-7.2-11.7-13.2-23.8-18.5-36.7-2.6-6.4-4.9-12.9-6.8-19.3-2.3-6.4-4.2-12.9-5.7-19.7l3.4 3c-1.5-.4-2.6-.4-3.8-.8-1.1-.4-2.3-.8-3.4-1.1-2.3-.8-4.5-1.5-6.8-2.6-2.3-.8-4.5-1.9-6.4-3-1.1-.4-2.3-1.1-3.4-1.9s-1.9-1.1-3-1.9-2.3-1.5-3.4-2.6c-1.1-.8-1.9-1.9-2.6-3-1.5-1.9-3-4.2-4.2-6.4s-2.3-4.5-2.6-7.2c-.4-1.1-.8-2.3-.8-3.8-.4-1.1-.4-2.3-.8-3.8l2.3 3.4c-.4 0-1.1-.4-1.9-.4l-1.9-.4c-1.1-.4-2.6-.4-4.2-.8-1.5 0-2.6-.4-4.2-.4h-4.2c-1.6 0-2.6 0-4.2.4s-2.6.4-4.2.8c-1.5.4-2.6.8-3.8.8-1.1.4-2.6.8-4.2 1.1-1.5.4-2.6-.4-3-1.9 1.7-1.4 2.5-2.5 3.2-2.9zm-3.7-10.9s.8-.4 1.9-.8 3-1.1 5.3-1.9 4.5-1.1 7.6-1.5c2.6-.4 5.7-.4 8.7-.4s6 .4 8.7.8 5.3 1.1 7.6 1.9 3.8 1.5 4.9 1.9 1.9.8 1.9.8c1.1.4 1.5 1.5 1.1 2.6-.4.8-1.1 1.1-2.3 1.1 0 0-.8 0-1.9-.4s-3-.8-4.9-1.1c-4.2-.8-9.5-1.5-15.1-1.9-5.3-.4-11 .4-15.1 1.1-1.9.4-3.8.8-4.9 1.1s-1.9.4-1.9.4c-1.1.4-1.9-.4-2.3-1.5-.5-1.1-.1-1.9.7-2.2zm-.4-7.6s.8-.4 1.5-1.1c.4-.4 1.1-.8 2.3-1.1.8-.4 1.9-.8 3-1.1 2.3-.8 4.5-1.5 7.6-2.3 2.6-.4 5.7-.8 8.7-1.1 3 0 6 0 8.7.4 2.6.4 5.3.8 7.6 1.5s3.8 1.1 5.3 1.9c1.1.4 1.9.8 1.9.8 1.1.4 1.5 1.5 1.1 2.6-.4.8-1.1 1.1-2.3 1.1 0 0-.8 0-1.9-.4s-3-.4-4.9-.8-4.5-.8-7.2-.8c-2.6-.4-5.3-.4-7.9-.4-5.7 0-11 1.1-14.7 1.9-.8.4-1.9.4-2.6.8-.8.4-1.5.4-1.9.8-1.1.4-1.9.8-1.9.8-1.1.4-1.9 0-2.6-1.1-.9-.9-.6-2 .2-2.4z" fill="#204a69"/><path d="m834 288.1h-3.4c-8.7 0-16.3-6.4-16.6-14.7l-.4-4.2c-.4-6 4.9-11.3 11-11l13.2.4c7.6.4 13.6 6.4 13.2 13.6-.3 8.7-7.5 15.9-17 15.9zm52.6 1.9 3.4.4c8.7.8 16.6-5.3 17.8-13.6l.8-4.2c.8-6-3.8-11.3-10.2-11.7l-13.2-.4c-7.6-.4-14 5.3-14 12.5-.9 8.6 6.3 16.2 15.4 17zm-35.9-24.2 20.4.3" style="fill:none;stroke-linecap:round;stroke-linejoin:round;stroke-miterlimit:10;stroke:#969ca1;stroke-width:4.2772"/><path d="m698.3 570.1s.8 1.1.8 2.6c.4 1.5 0 4.2 0 7.2 0 5.7 0 13.6-.4 21.2-.4 3.8-.4 7.6-.8 11.3-.4 3.8-.8 6.8-1.1 9.8-.4 3-1.1 5.3-1.5 6.8s-.8 2.6-.8 2.6c-.4.4-.8.8-1.5.4-.4 0-.4-.4-.4-.8 0 0-.4-1.1-.8-2.6-.4-1.9-.4-4.2-.4-7.2s.4-6.4.4-9.8c0-3.8.4-7.6.4-11.3.4-3.8.4-7.6.8-11.3 0-3.4.4-6.8.4-9.8s0-5.3.4-6.8.8-2.6.8-2.6c.8-1.1 1.9-1.5 3-.8.3.8.3.8.7 1.1z" fill="#204a69"/><path d="m737.2 619.7s.8.4 1.5 1.5c.8.8 1.9 2.3 2.6 3.4.8 1.1 1.5 2.6 1.9 3.8.4 1.1.4 1.9.4 1.9 0 1.1-.8 2.3-1.9 2.3-.4 0-1.1 0-1.5-.4 0 0-.8-.4-1.5-1.5-.8-.8-1.9-2.3-2.6-3.4-.8-1.5-1.5-2.6-1.9-3.8-.4-1.1-.8-1.9-.8-1.9-.4-1.1.4-2.3 1.5-2.3 1.2 0 2 0 2.3.4z" fill="#204a69"/><path d="m887.3 334.9s0 2.6.4 7.6c0 2.3 0 5.3.4 8.7v5.3c.4 1.5.8 3 1.1 4.5 1.5 3.4 3.8 6.4 7.2 8.3 1.9 1.1 3.8 1.5 5.7 1.9 2.3.4 4.9.8 7.6 1.5 10.2 2.3 21.2 5.3 31.8 9.8 10.6 4.2 20.4 9.5 29.1 15.5 8.7 5.7 16.3 12.5 22.3 18.1 6 6 10.6 11.3 13.2 15.5 1.5 1.9 2.6 3.4 3.4 4.5s1.1 1.5 1.1 1.5c.8 1.1.4 2.6-.8 3.4-1.1.8-2.6.4-3.4-.4 0 0-1.5-2.3-4.9-5.7-3-3.8-7.6-8.7-13.6-14-6-5.7-13.2-11.3-21.9-17-8.3-5.7-18.1-10.6-28-14.7-9.8-4.2-20.4-7.6-30.2-9.5-2.6-.4-4.9-1.1-7.2-1.5-3-.4-5.7-1.5-7.9-3-4.9-3-7.9-7.2-9.8-11.7-.8-2.3-1.5-4.5-1.5-6.8v-3.1-2.6c0-3.4 0-6.4.4-8.7 0-4.9.4-7.6.4-7.6 0-1.5 1.1-2.6 2.6-2.3 1.4.3 2.5 1.4 2.5 2.5z" fill="#204a69"/><circle cx="533.7" cy="388.9" fill="#ccced0" r="6.1"/></svg>