<svg enable-background="new 0 0 1495 856.6" viewBox="0 0 1495 856.6" xmlns="http://www.w3.org/2000/svg"><path d="m770.5 755.5-11.7-44.7-19-73.3c0-.2-.1-.3-.1-.5l-1.9-26.8-1-13.4c-.3-4.6-.5-8.6-1.7-12.7-.1-.3-.2-.6-.3-.9-2.6-4.8-5.2-9.6-7.8-14.4-1.6-1.9-3.5-3.6-5.5-5.2-3.3-2.5-7-4.4-11-5.4-2-.5-4-.8-6-.8h-41.6-.5-26.6-2.4-2.4-147.6c-4.6-.1-8.5 0-12.4 1.3s-7.4 3.4-10.3 6.3c-6.1 5.9-10.4 13.4-12.3 21.6-1 4.2-1.5 8.5-1.6 12.8l-.9 13.4-1.8 26.8c0 .2 0 .3-.1.5l-29.4 116.2 177.4-.6zm-150.4-19.1c-6.3.8-12.6 1.2-18.9 1.1-.7 0-1.3-.6-1.3-1.3l-.1-9.1v-4.6-2.3-1.4c0-.3 0-.5.1-.8.2-.5.5-.8.9-1.1.6-.4 1.2-.6 1.9-.6h1.2 2.3 4.6l9.1.1c.7 0 1.3.6 1.3 1.3.2 6.2-.2 12.4-1.1 18.7zm0-29.5c-6.3.8-12.6 1.2-18.9 1.1-.7 0-1.3-.6-1.3-1.3l-.1-9.1v-4.6-2.3-1.4c0-.3 0-.5.1-.8.2-.5.5-.8.9-1.1.6-.4 1.2-.6 1.9-.6h1.2 2.3 4.6l9.1.1c.7 0 1.3.6 1.3 1.3.2 6.2-.2 12.5-1.1 18.7zm0-29.4c-6.3.8-12.6 1.2-18.9 1.1-.7 0-1.3-.6-1.3-1.3l-.1-9.1v-4.6-2.3-1.4c0-.3 0-.5.1-.8.2-.5.5-.8.9-1.1.6-.4 1.2-.6 1.9-.6h1.2 2.3 4.6l9.1.1c.7 0 1.3.6 1.3 1.3.2 6.2-.2 12.5-1.1 18.7zm36.9 58.9c-6.3.8-12.6 1.2-18.9 1.1-.7 0-1.3-.6-1.3-1.3l-.1-9.1v-4.6-2.3-1.4c0-.3 0-.5.1-.8.2-.5.5-.8.9-1.1.6-.4 1.2-.6 1.9-.6h1.2 2.3 4.6l9.1.1c.7 0 1.3.6 1.3 1.3.1 6.2-.3 12.4-1.1 18.7zm0-29.5c-6.3.8-12.6 1.2-18.9 1.1-.7 0-1.3-.6-1.3-1.3l-.1-9.1v-4.6-2.3-1.4c0-.3 0-.5.1-.8.2-.5.5-.8.9-1.1.6-.4 1.2-.6 1.9-.6h1.2 2.3 4.6l9.1.1c.7 0 1.3.6 1.3 1.3.1 6.2-.3 12.5-1.1 18.7zm0-29.4c-6.3.8-12.6 1.2-18.9 1.1-.7 0-1.3-.6-1.3-1.3l-.1-9.1v-4.6-2.3-1.4c0-.3 0-.5.1-.8.2-.5.5-.8.9-1.1.6-.4 1.2-.6 1.9-.6h1.2 2.3 4.6l9.1.1c.7 0 1.3.6 1.3 1.3.1 6.2-.3 12.5-1.1 18.7zm36.8 58.9c-6.3.8-12.6 1.2-18.9 1.1-.7 0-1.3-.6-1.3-1.3l-.1-9.1v-4.6-2.3-1.4c0-.3 0-.5.1-.8.2-.5.5-.8.9-1.1.6-.4 1.2-.6 1.9-.6h1.2 2.3 4.6l9.1.1c.7 0 1.3.6 1.3 1.3.2 6.2-.2 12.4-1.1 18.7zm0-29.5c-6.3.8-12.6 1.2-18.9 1.1-.7 0-1.3-.6-1.3-1.3l-.1-9.1v-4.6-2.3-1.4c0-.3 0-.5.1-.8.2-.5.5-.8.9-1.1.6-.4 1.2-.6 1.9-.6h1.2 2.3 4.6l9.1.1c.7 0 1.3.6 1.3 1.3.2 6.2-.2 12.5-1.1 18.7zm0-29.4c-6.3.8-12.6 1.2-18.9 1.1-.7 0-1.3-.6-1.3-1.3l-.1-9.1v-4.6-2.3-1.4c0-.3 0-.5.1-.8.2-.5.5-.8.9-1.1.6-.4 1.2-.6 1.9-.6h1.2 2.3 4.6l9.1.1c.7 0 1.3.6 1.3 1.3.2 6.2-.2 12.5-1.1 18.7zm-218.2-37.8c0-.2.2-.5.5-.5 19.6-1.4 39.1-1.4 58.7-1.5l58.7-.2 58.7.2c19.6.1 39.1.1 58.7 1.5.3 0 .5.2.5.5 0 .2-.2.5-.5.5-19.6 1.4-39.1 1.4-58.7 1.5l-58.7.2-58.7-.2c-19.6-.1-39.1-.1-58.7-1.5-.3-.1-.5-.3-.5-.5zm34 96.7c-6.3.8-12.6 1.2-18.9 1.1-.7 0-1.3-.6-1.3-1.3l-.1-9.1v-4.6-2.3-1.4c0-.3 0-.5.1-.8.2-.5.5-.8.9-1.1.6-.4 1.2-.6 1.9-.6h1.2 2.3 4.6l9.1.1c.7 0 1.3.6 1.3 1.3.1 6.2-.3 12.4-1.1 18.7zm0-29.5c-6.3.8-12.6 1.2-18.9 1.1-.7 0-1.3-.6-1.3-1.3l-.1-9.1v-4.6-2.3-1.4c0-.3 0-.5.1-.8.2-.5.5-.8.9-1.1.6-.4 1.2-.6 1.9-.6h1.2 2.3 4.6l9.1.1c.7 0 1.3.6 1.3 1.3.1 6.2-.3 12.5-1.1 18.7zm0-29.4c-6.3.8-12.6 1.2-18.9 1.1-.7 0-1.3-.6-1.3-1.3l-.1-9.1v-4.6-2.3-1.4c0-.3 0-.5.1-.8.2-.5.5-.8.9-1.1.6-.4 1.2-.6 1.9-.6h1.2 2.3 4.6l9.1.1c.7 0 1.3.6 1.3 1.3.1 6.2-.3 12.5-1.1 18.7zm36.8 58.9c-6.3.8-12.6 1.2-18.9 1.1-.7 0-1.3-.6-1.3-1.3l-.1-9.1v-4.6-2.3-1.4c0-.3 0-.5.1-.8.2-.5.5-.8.9-1.1.6-.4 1.2-.6 1.9-.6h1.2 2.3 4.6l9.1.1c.7 0 1.3.6 1.3 1.3.2 6.2-.2 12.4-1.1 18.7zm0-29.5c-6.3.8-12.6 1.2-18.9 1.1-.7 0-1.3-.6-1.3-1.3l-.1-9.1v-4.6-2.3-1.4c0-.3 0-.5.1-.8.2-.5.5-.8.9-1.1.6-.4 1.2-.6 1.9-.6h1.2 2.3 4.6l9.1.1c.7 0 1.3.6 1.3 1.3.2 6.2-.2 12.5-1.1 18.7zm0-29.4c-6.3.8-12.6 1.2-18.9 1.1-.7 0-1.3-.6-1.3-1.3l-.1-9.1v-4.6-2.3-1.4c0-.3 0-.5.1-.8.2-.5.5-.8.9-1.1.6-.4 1.2-.6 1.9-.6h1.2 2.3 4.6l9.1.1c.7 0 1.3.6 1.3 1.3.2 6.2-.2 12.5-1.1 18.7zm16.6 15.5v-2.3-1.4c0-.3 0-.5.1-.8.2-.5.5-.8.9-1.1.6-.4 1.2-.6 1.9-.6h1.2 2.3 4.6l9.1.1c.7 0 1.3.6 1.3 1.3.1 6.3-.3 12.6-1.2 18.8-6.3.8-12.6 1.2-18.9 1.1-.7 0-1.3-.6-1.3-1.3l-.1-9.2v-4.6zm20.3 43.4c-6.3.8-12.6 1.2-18.9 1.1-.7 0-1.3-.6-1.3-1.3l-.1-9.2v-4.6-2.3-1.4c0-.3 0-.5.1-.8.2-.5.5-.8.9-1.1.6-.4 1.2-.6 1.9-.6h1.2 2.3 4.6l9.1.1c.7 0 1.3.6 1.3 1.3.1 6.3-.3 12.5-1.1 18.8zm0-58.9c-6.3.8-12.6 1.2-18.9 1.1-.7 0-1.3-.6-1.3-1.3l-.1-9.1v-4.6-2.3-1.4c0-.3 0-.5.1-.8.2-.5.5-.8.9-1.1.6-.4 1.2-.6 1.9-.6h1.2 2.3 4.6l9.1.1c.7 0 1.3.6 1.3 1.3.1 6.2-.3 12.5-1.1 18.7z" fill="#fff"/><path d="m876.9 732.7c-1.1.1-2.2.2-3.3.2-41 0-90.4-64.7-131.2-135.9l1 13 1.9 26.5 18.3 73.2 11.3 45.9h4.9c1.6 0 2.9 1.3 2.9 2.9.1 15.7-.3 31.4-.5 46.9-.1 7.8-.5 15.5-.8 23.1l-.6 11.2-.6 8.8 97.9.1c-1.4-41-2.1-83.6-1.2-115.9z" fill="none"/><path d="m898.9 330-1.9 2c.7-.2 1.4-.3 2-.4z" fill="none"/><path d="m708.5 576.2c-.1-1.3-1.6-2.3-3.5-2.3h-155.7l1.1 45.1-.1 4.8h155.9c1.2 0 2.4-.3 3.4-1 .8-.5 1.3-1.4 1.3-2.3z" fill="#86a6bd" opacity=".26"/><path d="m524 573.9h-45.4l-2.6 45.1v4.8h45.5c1.2 0 2.4-.3 3.4-1 .8-.5 1.3-1.4 1.3-2.3l1.3-44.4c0-1.2-1.6-2.2-3.5-2.2z" fill="#86a6bd" opacity=".26"/><path d="m462.3 173.7 13-.1 4.2 12.5c.4 1.2 1.7 1.8 2.8 1.4.7-.2 1.2-.8 1.4-1.4l4.1-12.5 12.6-.1c1.2 0 2.3-1 2.3-2.2 0-.8-.4-1.5-1-1.9l-10.2-6.9 4.4-13.2c.4-1.2-.2-2.5-1.4-2.8-.7-.2-1.5-.1-2.1.3l-11 8.3-11-8.2c-1-.7-2.4-.5-3.2.4-.4.6-.6 1.4-.3 2.1l4.4 12.9-10.4 7.3c-1 .7-1.3 2.1-.6 3.1.5.6 1.2 1 2 1z" fill="#00a9de"/><circle cx="573.7" cy="146.2" fill="#c2f4ff" r="12"/><path d="m622.3 69.6 4.2 9 .8-.4c1.6-3.3.3-5.3-.4-7.5-.3-1-.7-1.9-1.1-2.9-1.1.7-2.3 1.3-3.5 1.8z" fill="#00a9de"/><path d="m614.7 53.3 4.2 9c1.2-.6 2.4-1.1 3.6-1.5-.5-.9-1-1.8-1.6-2.7-1.2-2-2-4.2-5.5-5.1l-1.6.7c-1.6 3.3-.3 5.3.4 7.5.3 1 .7 1.9 1.1 2.9 1.1-.6 2.3-1.2 3.5-1.8z" fill="#00a9de"/><path d="m618.8 71.2c.5.9 1 1.8 1.5 2.7 1.2 2 2 4.2 5.5 5.1l.8-.4-4.2-9c-1.3.6-2.4 1.1-3.6 1.6z" fill="#00a9de"/><path d="m615.9 72.2c1-.3 1.9-.7 2.9-1.1-.6-1.1-1.2-2.3-1.8-3.5l-9 4.2 9-4.2c-.6-1.2-1.1-2.4-1.5-3.6-.9.5-1.8 1-2.7 1.5-2 1.2-4.2 2-5.1 5.5l.7 1.6c3.2 1.6 5.2.4 7.5-.4z" fill="#00a9de"/><path d="m624.3 64.2 9-4.2-9 4.2c.6 1.2 1.1 2.4 1.5 3.6.9-.5 1.8-1 2.7-1.6 2-1.2 4.2-2 5.1-5.5l-.7-1.6c-3.3-1.6-5.3-.3-7.5.4-1 .3-1.9.7-2.9 1.1.6 1.3 1.2 2.4 1.8 3.6z" fill="#00a9de"/><path d="m620.6 66-3.7 1.7c.6 1.2 1.2 2.3 1.8 3.5 1.2-.5 2.4-1 3.6-1.5z" fill="#00a9de"/><path d="m617 67.7 3.7-1.7-1.7-3.7c-1.2.6-2.3 1.2-3.5 1.8.4 1.2.9 2.4 1.5 3.6z" fill="#00a9de"/><path d="m618.9 62.3 1.7 3.7 3.7-1.7c-.6-1.2-1.2-2.3-1.8-3.5-1.2.4-2.4.9-3.6 1.5z" fill="#00a9de"/><path d="m620.6 66 1.7 3.7c1.2-.6 2.3-1.2 3.5-1.8-.5-1.2-1-2.4-1.5-3.6z" fill="#00a9de"/><path d="m431.9 190.5c4.8.9 9.6 2.3 14.1 4.2 4.5 1.8 8.6 4.3 12.2 7.4 3.3 3.1 5.8 7.1 8.2 11.7 1.3 2.5 2.8 4.9 4.5 7.1 2 2.5 4.5 4.5 7.4 5.9 5.6 2.8 12 2.8 17.4 2.1s10.4-1.7 14.7-1.5 8.3 2.2 12.6 5.4l1.4-1c-2-5.7-7-9.9-13-11-6-1-11.5.2-16.4.6s-9.4.2-13.1-1.8c-3.6-1.7-5.9-5.4-8.5-9.8s-5.6-9.6-10.1-13.5c-8.9-6.9-19.6-11-30.8-11.8-5.5-.2-11.3.6-16.1 3.4l.5 1.6c5.1-.3 10.1.1 15 1z" fill="#0084c0"/><path d="m502 115.5h7.7l2.5 7.7c.1.4.5.7.9.9.7.2 1.5-.2 1.7-.9l2.6-7.6h8c.5 0 .9-.2 1.2-.6.4-.6.3-1.5-.4-1.9l-6.4-4.4 2.7-7.8c.1-.4.1-.9-.2-1.3-.5-.6-1.3-.7-1.9-.3l-6.8 5-6.7-5.1c-.4-.3-.8-.4-1.3-.2-.7.2-1.1 1-.9 1.7l2.7 8.1-6.2 4.2c-.4.3-.6.7-.6 1.1-0 .8.6 1.4 1.4 1.4z" fill="#00a9de"/><path d="m553.5 20.2c-1 3.7-1.4 8.6.2 13 .8 2.3 2.2 4.4 3.9 6.1 1.5 1.4 3.1 2.7 4.9 3.8 2.8 1.7 5.3 3.8 7.4 6.3 1.9 2.6 3.3 5.6 4.3 8.7 1 3.2 1.7 6.5 2.1 9.9.5 3.4.6 6.9.4 10.4l1.6.7c2.5-3.2 4-7.1 4.1-11.2.2-4-.2-8-1.3-11.8-1-4-2.7-7.8-4.9-11.2-2.5-3.6-6-6.2-9-8.3s-5.1-3.8-5.9-6c-1-2.5-.9-5.3-.4-8.7s1.8-7.2 1.4-11.8c-.2-2.3-1.1-4.5-2.5-6.3-1.3-1.7-3.1-3-5.1-3.7l-1.1 1.3c1.6 3.6 2.4 6.2 2.1 9-.2 2.7-1.2 6.1-2.2 9.8z" fill="#c2f4ff"/><path d="m1277.2 849.3v-.1c-18.6-57.3-40.3-93.8-55-143.4-.8-2.7-1.6-5.4-2.3-8.2-.3-1.2-.6-2.4-1-3.6-.4-1.5-.8-3.1-1.2-4.6-29.6-118 18.1-152.1-68.5-283.7-1.4-2.1-2.8-4.2-4.2-6.3-2.8 2.3-5.7 4.5-8.8 6.4-4.1 2.5-8.4 4.6-12.9 6.3-36.6 13.6-82.7-2.2-116.7-39-7.2-7.8-13.8-16.4-19.7-26s-10.7-19.4-14.4-29.3c-18.1 2.2-38 6.3-60 12.5 19.5.4 43.3 13.2 53.1 69.6.2.9.3 1.8.5 2.7 16.1 99.3-22.8 312.3-82.6 328.9-2.1.6-4.3 1-6.6 1.2-.9 32.3-.3 74.9 1.3 116" fill="#07a8dc"/><path d="m637.6 282.5c1.1.1 2.3.3 3.5.5l-20.5-58.3-.2-.4 76.6-26.9 6.4 18.2 39.8 113.1-31.9 11.2c7.3 8.4 14.3 17.3 21.1 26.1l19.3-6.8c8.5-3 12.9-12.2 9.9-20.7l-52.9-150.3c-3-8.5-12.2-12.9-20.7-9.9l-72.5 25.5c-8.5 3-12.9 12.2-9.9 20.7l21.1 60c3.1-1.6 6.8-2.3 10.9-2z" fill="#00a9de"/><path d="m677.3 385.2c-2-11.1-3.1-23.6-.5-33.2l-10.2 3.6-18.1-51.4c-4.7-2.9-8.9-4.6-12.2-4.8-.2 0-.4 0-.6 0-.9-.1-1.9.2-2.4 1-.2.3-.4.6-.6.9l25.8 73.5c2.6 7.8 10.8 12.2 18.8 10.4z" fill="#00a9de"/><path d="m715.5 371.9c-.1-.1-.2-.2-.3-.3.1.1.1.3.2.4z" fill="#00a9de"/><path d="m644.5 292.8-3.5-9.8c-1.2-.2-2.3-.4-3.5-.5-4.1-.3-7.8.3-11 1.9l2.8 8.1c4-2.3 9.1-2 15.2.3z" fill="#00a9de"/><path d="m702.6 342.9c7.2 8.3 14.4 17.1 21.3 26l8.4-3c-6.7-8.8-13.8-17.6-21.1-26.1z" fill="#00a9de"/><path d="m715.2 371.5c.1.1.2.2.3.3l8.4-3c-6.9-8.9-14.1-17.7-21.3-26l-2.7 1c3.8 4.4 8.9 12.5 15.3 27.7z" fill="#00a9de"/><path d="m633.2 300.4c.6-.8 1.5-1.1 2.4-1h.6c3.3.3 7.5 2 12.2 4.8l-4-11.4c-6.1-2.4-11.2-2.7-15-.3l3.1 8.7c.2-.2.5-.6.7-.8z" fill="#00a9de"/><g fill="#fff"><path d="m635.9 537.6-.1 14.3h25.7c-.4-5.3-.8-10.5-1-15.5-3 .2-5.9.5-8.9.7-5.3.4-10.5.5-15.7.5z"/><path d="m500.2 660.2h-4.6-2.3-1.1s0 0-.1 0v1 2.3 4.6l-.1 7.8c5.7.1 11.4.4 17 1.1-.7-5.6-1-11.3-1.1-16.9z"/><path d="m537.1 660.2h-4.6-2.3-1.1s0 0-.1 0v1 2.3 4.6l-.1 7.8c5.7.1 11.4.4 17 1.1-.7-5.6-1.1-11.3-1.1-16.9z"/><path d="m573.9 660.2h-4.6-2.3-1s0 0-.1 0v1 2.3 4.6l-.1 7.8c5.7.1 11.4.4 17 1.1-.7-5.6-1-11.3-1.1-16.9z"/><path d="m610.8 660.2h-4.6-2.3-1.1s0 0-.1 0v1 2.3 4.6l-.1 7.8c5.7.1 11.4.4 17 1.1-.7-5.6-1-11.3-1.1-16.9z"/><path d="m647.6 660.2h-4.6-2.3-1.1s0 0-.1 0v1 2.3 4.6l-.1 7.8c5.7.1 11.4.4 17 1.1-.7-5.6-1-11.3-1.1-16.9z"/><path d="m684.5 660.2h-4.6-2.3-1.1s0 0-.1 0v1 2.3 4.6l-.1 7.8c5.7.1 11.4.4 17 1.1-.7-5.6-1-11.3-1.1-16.9z"/><path d="m500.2 689.6h-4.6-2.3-1.1s0 0-.1 0v1 2.3 4.6l-.1 7.8c5.7.1 11.4.5 17 1.2-.7-5.6-1.1-11.3-1.1-16.9z"/><path d="m537.1 689.6h-4.6-2.3-1.1s0 0-.1 0v1 2.3 4.6l-.1 7.8c5.7.1 11.4.5 17 1.2-.7-5.6-1.1-11.3-1.1-16.9z"/><path d="m582.8 706.5c-.7-5.6-1.1-11.3-1.1-16.9l-7.8.1h-4.6-2.3-1s0 0-.1 0v1 2.3 4.6l-.1 7.8c5.7 0 11.4.4 17 1.1z"/><path d="m618.6 689.6-7.8.1h-4.6-2.3-1.1s0 0-.1 0v1 2.3 4.6l-.1 7.8c5.7.1 11.4.5 17 1.2-.6-5.7-1-11.4-1-17z"/><path d="m655.4 689.6-7.8.1h-4.6-2.3-1.1s0 0-.1 0v1 2.3 4.6l-.1 7.8c5.7.1 11.4.5 17.1 1.2-.7-5.7-1-11.4-1.1-17z"/><path d="m684.5 689.6h-4.6-2.3-1.1s0 0-.1 0v1 2.3 4.6l-.1 7.8c5.7.1 11.4.5 17 1.2-.7-5.6-1.1-11.3-1.1-16.9z"/><path d="m500.2 719.1h-4.6-2.3-1.1s0 0-.1 0v1 2.3 4.6l-.1 7.8c5.7.1 11.4.4 17 1.2-.7-5.6-1.1-11.3-1.1-16.9z"/><path d="m537.1 719.1h-4.6-2.3-1.1s0 0-.1 0v1 2.3 4.6l-.1 7.8c5.7.1 11.4.4 17 1.2-.7-5.6-1.1-11.3-1.1-16.9z"/><path d="m573.9 719.1h-4.6-2.3-1s0 0-.1 0v1 2.3 4.6l-.1 7.8c5.7.1 11.4.4 17 1.2-.7-5.6-1.1-11.3-1.1-16.9z"/><path d="m610.8 719.1h-4.6-2.3-1.1s0 0-.1 0v1 2.3 4.6l-.1 7.8c5.7.1 11.4.4 17 1.2-.7-5.6-1.1-11.3-1.1-16.9z"/><path d="m647.6 719.1h-4.6-2.3-1.1s0 0-.1 0v1 2.3 4.6l-.1 7.8c5.7.1 11.4.4 17 1.2-.7-5.6-1.1-11.3-1.1-16.9z"/><path d="m684.5 719.1h-4.6-2.3-1.1s0 0-.1 0v1 2.3 4.6l-.1 7.8c5.7.1 11.4.4 17 1.2-.7-5.6-1.1-11.3-1.1-16.9z"/><path d="m779 850.2-.6-10.7-.5-11.7c-.2-7.7-.5-15.3-.6-22.8 0-3.5 0-7-.1-10.5 0-.9 0-1.7 0-2.6 0-1.1 0-2.2 0-3.3 0-2.2 0-4.4 0-6.6 0-2.8 0-5.7 0-8.5 0-2.9 0-5.7.1-8.6 0-.7 0-1.4 0-2h-.5-2.2-2.2l-180.1-1.8-178.4-2.1h-2.8-2.9-1.7c0 2.3-.1 4.6-.1 6.9-.1 3.9-.1 7.8-.2 11.7-.1 4-.1 8-.2 12 0 1.3 0 2.7-.1 4-.3 17.8-.7 35.6-1.1 53.5v.5l374 3.7h.4zm-251.9-51.9h.1c10.8-.3 21.6-.5 32.4-.4l32.4.1 32.4.5c10.8.1 21.6.5 32.4.8h.1c1 0 1.8.9 1.7 1.9-.1 3.1-.2 6.1-.4 9.2 0 .9-.1 1.7-.1 2.6s-.1 1.7-.1 2.6c-.2 3.1-.3 6.1-.5 9.2-.1.5-.5.9-1 .8-.4 0-.8-.4-.8-.8-.1-3.1-.2-6.1-.3-9.2 0-.9-.1-1.8-.1-2.6 0-.9 0-1.7-.1-2.6-.1-2.4-.1-4.9-.2-7.3-10.2.1-20.4.2-30.6.2l-32.4-.1-32.4-.5c-10.3-.1-20.5-.5-30.8-.9-.1 2.4-.3 4.9-.4 7.3-.1.9-.1 1.8-.2 2.7s-.1 1.8-.2 2.8c-.2 2-.3 3.9-.5 5.9 0 .3-.3.4-.5.4s-.4-.2-.4-.4c-.2-2-.3-3.9-.4-5.9-.1-.9-.1-1.8-.2-2.8 0-.9-.1-1.8-.1-2.8-.1-3-.3-6-.4-9.1 0-.9.7-1.6 1.6-1.6z"/><path d="m615 528.5c.5 1.4 1.5 2.5 2.9 3 .3.1.7.2 1 .3h.5.9 3.5c2.4 0 4.7 0 7.1.1h2.6 2.5c5.2 0 10.4.1 15.6.4 2.9.2 5.8.4 8.8.7.7.1 1.4.1 2.1.2s1.4.1 2.1.2c5 .4 9.9.8 14.9.8 2.1 0 4.1-1 5.4-2.8.6-.8 1-1.8 1.1-2.8.1-1.1 0-2.1-.1-3.2l-1.1-13.9c-.2-2.3-.3-4.6-.3-6.9-.2-2.2.1-5.1-.4-6.1-.5-1.4-1.6-2.5-3-3-.3-.1-.7-.2-1.1-.2-.2 0-.4 0-.6 0h-.9-3.5l-55.6.4c-1.4 0-2.7.6-3.6 1.7-.4.5-.7 1.1-.9 1.8-.1.9-.2 1.8-.1 2.7l-.1 13.9v7c.1 1.9-.1 4.9.3 5.7z"/><path d="m668.5 285.9 14.2-4.8-2.3-6.5-14.1 5.1z"/><path d="m653.7 272.9c-.5.2-1.1.2-1.5 0 1.2 2.5 2.3 4.7 3.3 6.9 2.2-.9 4.4-1.7 6.6-2.5.2-.2.4-.4.7-.6 0 0 .1 0 .2-.1l6.6-2.3-2.2-6.4z"/><path d="m667.4 263.9-2.3-6.4-13 4.6 2.2 6.2z"/><path d="m692.2 255.6c-.6-1.3-1.2-2.5-1.8-3.7l1.2 3.5c.2.1.4.2.6.2z"/><path d="m644.5 292.8 4 11.4 18.1 51.4 10.2-3.6c1.1-4.3 3-8.1 5.9-10.7 1.3-1.3 3-2.1 4.7-2.5 1.5-.4 3.1-.4 4.6 0 1.4.3 4 .9 7.9 5.2l2.7-1 8.7-3 31.9-11.2-39.8-113.1-76.6 26.9-6.2-17.8 20.4 58.2zm40.8 19.5c2.1-.8 4.2-1.6 6.3-2.5 2.6-1 5.2-1.8 7.8-2.7s5.2-1.9 8.2-1.6l.3.7c-2.1 2.1-4.8 3-7.3 4s-5.1 2-7.7 3c-1.6.6-3.2 1.2-4.8 1.7-1 .3-2 .6-3 1-2.1.7-4.2 1.5-6.6 1.6-.5 0-1.1 0-1.6 0l-.1-.4-.1-.4c.2-.2.4-.3.6-.5 2-1.8 4.4-2.6 6.8-3.5.3-0 .7-.2 1.2-.4zm2.7 12.6c-.5.2-1.1.3-1.6.5-2.1.7-4.2 1.3-6.6 1.1l-.3-.7c1.3-1.3 2.8-2.2 4.4-2.8 1-.4 1.9-.8 2.9-1.2 1.9-.7 3.8-1.5 5.7-2.2.7-.3 1.3-.5 2-.8 2.6-1 5.2-1.8 7.8-2.7s5.2-1.9 8.2-1.6l.1.4.1.4c-2.1 2.1-4.8 3-7.3 4s-5.1 2-7.7 3c-.1.1-.3.1-.4.2-2.3.9-4.8 1.7-7.3 2.4zm25.6-29.5c-2.9 2.1-6.3 3.2-9.5 4.5l-9.8 3.7-9.9 3.4c-1.2.4-2.4.8-3.6 1.2-2.1.7-4.3 1.2-6.6 1.4l-.1-.3-.1-.3c1.5-1.1 3.1-1.9 4.8-2.6 1.6-.7 3.1-1.2 4.7-1.9l9.8-3.7 9.9-3.4c3.3-1.1 6.6-2.3 10.2-2.6zm-64.8-36.3 20.1-7c6.7-2.3 13.4-4.7 20.2-6.7h.2c.8-.2 1.6.2 1.8 1 1.1 3.8 2 7.5 2.6 10.8l.1.3c-.1 0-.2.1-.3.1l2.6 7.5c2.4-.8 4.7-1.5 7.1-2.2h.2c.8-.2 1.6.2 1.8 1 1.1 3.8 2 7.5 2.6 10.8l.1.4c-3 1.5-6 2.8-9.2 3.9l-10.2 3.8-20.7 7.6c-1 .4-2.2-.1-2.6-1.2 0 0 0 0 0-.1l-3-8.4c-2.3.8-4.7 1.5-7.1 2.2h-.2c-.8.2-1.6-.2-1.8-1-1.1-3.8-2-7.5-2.6-10.8l-.1-.3c.1 0 .2-.1.3-.1l-3.2-9.1c-.3-1 .3-2.1 1.3-2.5z"/></g><path d="m703.4 215.6-6.4-18.2-76.6 26.9.1.4 76.7-26.9z" fill="#004f84"/><path d="m621.4 210.7h81.2v18.8h-81.2z" fill="#004f84" transform="matrix(.9434 -.3317 .3317 .9434 -35.5405 232.0163)"/><path d="m964.2 247.4c-13-3.8-24.2-11.1-33.4-20.6-15.5-16-25.2-38.2-27.7-59.8-1.2-10-.9-20 1.1-29.1-42.7-2.9-64.3-47.2-65.6-93.3-11.9 9.7-20.4 22.9-23.2 39.8-4.3 26.2-18.8 40.8-29.4 51.4-7.6 7.6-12.2 12.6-12.5 18-.2 3.4 4.1 6.2 11.1 10.5 7.7 4.7 16.4 10.1 18.8 20.2 2.1 8.8 4.9 16.9 8.5 24.5 4.5-3.1 10-8 13-14.9 1.8-4.3 6.8-6.3 11.1-4.4 4.3 1.8 6.3 6.8 4.4 11.1-4.8 11.3-13.7 18.7-20.3 23.1 16.8 25.4 42.7 41.4 74.4 44.9 2.5.3 5 .5 7.6.6 13.4.7 18.7.7 30.2-2.3.5-.1 1-.2 1.6-.2 4-.2 7.7 2.5 8.6 6.5.1.3.1.7.2 1 .3.5.6 1 .8 1.6l1.8 5.2-4.9 4.7-41.5 44.1.1 1.6c3.4-.7 6.9-1.1 10.6-1.3.9 0 1.9-.1 2.8 0 22-6.2 41.8-10.3 60-12.5-9-24.2-11.6-48.7-8.2-70.4zm-131.6-109.9c0 4.2-3.4 7.6-7.6 7.6-4.2 0-7.6-3.4-7.6-7.6v-12.8c0-4.2 3.4-7.6 7.6-7.6 4.2 0 7.6 3.4 7.6 7.6z" fill="#c7d6e1"/><path d="m1320.2 604.1c-20.6-54.2-109.8-169.1-167.9-212-2.3 2.6-4.8 5-7.4 7.2 1.4 2.1 2.8 4.2 4.2 6.3 86.6 131.6 38.9 165.7 68.5 283.7 37.2-12.1 86.7-33.3 100.9-59.8 4.5-8.3 5-16.7 1.7-25.4z" fill="#c7d6e1"/><path d="m948.4 399.8c-4.8-25.9-14.9-53.9-38-52.7-3.5.2-6.9.7-10.1 1.5-2.6.6-5.2 1.5-7.6 2.5-70.6 28.9-77.4 203.5-77.5 205.4-.2 4.7-3.9 8.8-8.7 8.2-4.7-.2-8.3-4.1-8.2-8.7 1-22.4 3.4-44.7 7.1-66.9-3.8-2.8-30.3-23.7-51.3-60.6-10.1-17.8-23.9-37.8-38.6-56.6h-.1c.2.4.3.8.5 1.2 1.8 4.3-.3 9.3-4.6 11-2.5 1.1-5.3.8-7.5-.5-1.5-.9-2.8-2.3-3.5-4.1-.3-.7-.6-1.3-.9-2-2.2-5.1-4.6-10.1-7.2-14.9-.1 4.6.4 10.5 1.5 17 .8 5 1.9 10.3 3.3 15.7.6 2.5 1.3 5 2.1 7.5 1.4 4.5-1.1 9.2-5.6 10.6-.8.2-1.6.4-2.5.4v.1c-3.7 0-7-2.4-8.1-6-1.4-4.5-3.8-13-5.6-22.6-7.9 1.8-16.1-2.6-18.9-10.4l-25.8-73.5c-4.3 6.6-4.7 20.6-.8 37.8 7.6 34.3 28.7 71.6 45.1 79.8 2.1 1 3.6 2.9 4.3 5.1 24.5 78.8 137.2 304.5 196.5 291.5.4-.1.9-.2 1.3-.3 43.1-12 87.2-206.1 70.4-309.9-.3-2-.7-3.7-1-5.6z" fill="#c7d6e1"/><path d="m1336 598.1c-18.4-48.3-107.5-170.8-174.1-219.3 19.9-34.7 16.8-87-11.5-132.8-9.6-15.7-21.9-29.7-36.2-41.4-12.3-9.8-20.5-23.9-22.9-39.4-3.3-21.6-10.8-42.6-21.1-57.5-14.3-20.7-38.8-36.7-64.3-43.3-23.2-41.2-44.2-47.3-73.4-56-48-14.4-92.9 12.8-92.9 12.8-.1.7-.2 1.4-.2 2.1-21.8 13.3-36.6 33.5-40.7 58.2-3.4 20.9-14.7 32.2-24.7 42.2-8.6 8.7-16.8 16.9-17.4 29.1-.6 13.6 10.8 20.6 19.1 25.8 5.1 3.2 10.5 6.4 11.2 9.7 3.1 13.1 7.7 25.1 13.6 35.9.2.3.4.7.6 1 17.2 30.9 45.1 51.5 79.9 58.5l11.5 49.5c-48.5 14.8-72.2 80.5-83.6 136.8-15.9-14.4-29.4-31.2-40.1-49.8-8.6-15.1-21.6-34.6-36.5-54.2l-8.4 3-8.4 3c14.7 18.8 28.5 38.8 38.6 56.6 20.9 36.8 47.5 57.7 51.3 60.6-3.7 22.1-6 44.4-7.1 66.9-.2 4.7 3.5 8.6 8.2 8.7 4.8.6 8.6-3.5 8.7-8.2.1-1.9 6.9-176.5 77.5-205.4 2.5-1 5-1.8 7.6-2.5 3.3-.8 6.6-1.3 10.1-1.5 23.1-1.2 33.2 26.9 38 52.7.3 1.8.6 3.6.9 5.4 16.8 103.9-27.3 297.9-70.4 309.9-.4.1-.9.2-1.3.3-59.4 12.9-172-212.7-196.5-291.5-.7-2.2-2.2-4-4.3-5.1-16.4-8.2-37.4-45.5-45.1-79.8-3.8-17.2-3.5-31.1.8-37.8l-3.1-8.7-2.8-8.1c-2.6 1.3-4.8 3.1-6.7 5.5-10.6 13.4-8.4 36.2-4.7 52.9 7.4 33.2 28.5 75.4 50.7 89.4 8.5 25.9 28.5 73.9 54.4 124 .9 1.7 1.7 3.3 2.6 5 1.3 2.5 2.7 5.1 4 7.7 2.6 4.8 5.2 9.6 7.8 14.4 1.5 2.7 3 5.4 4.5 8.1 1 1.9 2.1 3.7 3.2 5.6 40.8 71.2 90.2 135.9 131.2 135.9 1.1 0 2.2-.1 3.3-.2 2.2-.2 4.4-.6 6.6-1.2 59.8-16.6 98.7-229.7 82.6-328.9-.1-.9-.3-1.8-.5-2.7-9.8-56.4-33.7-69.2-53.1-69.6-1 0-1.9 0-2.8 0-3.6.2-7.2.6-10.6 1.3-.7.1-1.4.3-2 .4l1.9-2.1 41.4-44.2 4.9-4.7-1.8-5.2c-.2-.6-.5-1.1-.8-1.6 0-.3-.1-.7-.2-1-.9-4-4.6-6.7-8.6-6.5-.5 0-1 .1-1.6.2-11.5 3-16.8 3-30.2 2.3-2.6-.1-5.1-.3-7.6-.6-31.7-3.5-57.6-19.5-74.4-44.9 6.7-4.3 15.5-11.8 20.3-23.1 1.8-4.3-.2-9.3-4.4-11.1-4.3-1.8-9.3.2-11.1 4.4-3 6.9-8.5 11.8-13 14.9-3.5-7.6-6.4-15.8-8.5-24.5-2.4-10.1-11.1-15.4-18.8-20.2-7-4.3-11.2-7.2-11.1-10.5.3-5.4 4.9-10.4 12.5-18 10.6-10.6 25.1-25.2 29.4-51.4 2.8-16.9 11.4-30 23.2-39.8 1.3 46.1 22.8 90.4 65.6 93.3-2 9.2-2.3 19.1-1.1 29.1 2.6 21.7 12.2 43.8 27.7 59.8 9.2 9.5 20.4 16.8 33.4 20.6-3.4 21.7-.8 46.2 8.3 70.3 3.7 9.9 8.5 19.7 14.4 29.3 5.9 9.5 12.5 18.2 19.7 26 34 36.8 80.1 52.7 116.7 39 4.4-1.7 8.7-3.7 12.9-6.3 3.1-1.9 6.1-4.1 8.8-6.4 2.6-2.2 5.1-4.7 7.4-7.2 58.1 42.9 147.3 157.8 167.9 212 3.3 8.7 2.8 17-1.7 25.4-14.1 26.5-63.7 47.7-100.9 59.8.4 1.5.8 3 1.2 4.6.3 1.2.6 2.4 1 3.6.8 2.8 1.5 5.5 2.3 8.2 36.8-11.8 93.4-34.8 111.3-68.2 6.7-12.7 7.6-25.9 2.5-39.3z" fill="#005081"/><path d="m825.1 117.2c-4.2 0-7.6 3.4-7.6 7.6v12.8c0 4.2 3.4 7.6 7.6 7.6 4.2 0 7.6-3.4 7.6-7.6v-12.8c-.1-4.2-3.5-7.6-7.6-7.6z" fill="#005081"/><path d="m682.8 407.8c1.1 3.6 4.4 6 8.1 6v-.1c.8 0 1.7-.1 2.5-.4 4.5-1.4 7-6.1 5.6-10.6-.8-2.5-1.5-5-2.1-7.5-1.4-5.4-2.5-10.7-3.3-15.7-1-6.5-1.5-12.4-1.5-17 2.6 4.9 5.1 9.8 7.2 14.9.3.7.6 1.3.9 2 .7 1.8 2 3.2 3.5 4.1 2.2 1.3 5 1.6 7.5.5 4.3-1.8 6.4-6.7 4.6-11-.2-.4-.3-.8-.5-1.2-.1-.1-.1-.3-.2-.4-6.4-15.3-11.5-23.3-15.4-27.6-3.8-4.3-6.4-4.9-7.9-5.2s-3.1-.3-4.6 0c-1.7.4-3.4 1.3-4.7 2.5-2.9 2.7-4.8 6.4-5.9 10.7-2.5 9.6-1.5 22.1.5 33.2 1.9 9.8 4.3 18.3 5.7 22.8z" fill="#005081"/><path d="m694.3 303.5 9.8-3.7c3.3-1.3 6.6-2.3 9.5-4.5l-.2-.6c-3.6.2-6.9 1.5-10.2 2.6l-9.9 3.4-9.8 3.7c-1.6.6-3.2 1.2-4.7 1.9.3.3.7.6 1 .9l33.8-12-33.8 12c.3.3.7.6 1.1.9 1.2-.4 2.4-.8 3.6-1.2z" fill="#00a9de"/><path d="m678.7 306.3c-1.7.7-3.3 1.5-4.8 2.6l.1.3 5.7-2c-.3-.4-.6-.7-1-.9z" fill="#00a9de"/><path d="m674 309.2.1.3c2.3-.1 4.5-.7 6.6-1.4-.4-.3-.7-.6-1.1-.9z" fill="#00a9de"/><path d="m707.8 306-21.1 7.7 1.4 1.4c1.6-.5 3.2-1.1 4.8-1.7 2.6-1 5.1-2 7.7-3s5.2-1.9 7.3-4l-.3-.7c-3-.2-5.6.8-8.2 1.6s-5.2 1.7-7.8 2.7c-2.1.8-4.2 1.6-6.3 2.5.5.4.9.9 1.4 1.3z" fill="#00a9de"/><path d="m688.1 315c-.5-.5-.9-.9-1.4-1.4l-8.9 3.2c.3.2.5.5.8.7 2.3-.1 4.4-.9 6.6-1.6.9-.2 1.9-.6 2.9-.9z" fill="#00a9de"/><path d="m686.7 313.6c-.5-.4-.9-.9-1.4-1.3-.5.2-.9.4-1.4.5-2.3.9-4.7 1.7-6.8 3.5.2.2.4.4.6.5z" fill="#00a9de"/><path d="m676.7 317.2.1.4h1.6c-.3-.2-.5-.5-.8-.7z" fill="#00a9de"/><path d="m677.2 316.4c-.2.2-.4.3-.6.5l.1.4 1-.4c-.2-.2-.3-.4-.5-.5z" fill="#00a9de"/><path d="m710.8 314.9-.1-.4c-3-.2-5.6.8-8.2 1.6s-5.2 1.7-7.8 2.7c-.7.3-1.3.5-2 .8l1.4 1.4z" fill="#00a9de"/><path d="m695.4 322.5c.1-.1.3-.1.4-.2 2.6-1 5.1-2 7.7-3s5.2-1.9 7.3-4l-.1-.4-16.7 6.1c.5.5 1 1 1.4 1.5z" fill="#00a9de"/><path d="m685.2 324.2 8.8-3.2c-.5-.5-.9-.9-1.4-1.4-1.9.7-3.8 1.5-5.7 2.2-1 .4-2 .7-2.9 1.2.4.4.8.8 1.2 1.2z" fill="#00a9de"/><path d="m695.4 322.5c-.5-.5-.9-1-1.4-1.5l-8.8 3.2c.4.4.8.8 1.2 1.3.5-.2 1.1-.4 1.6-.5 2.5-.8 5-1.6 7.4-2.5z" fill="#00a9de"/><path d="m679.7 326.2 5.5-2c-.4-.4-.8-.8-1.2-1.2-1.6.7-3.1 1.5-4.4 2.8l.3.7c2.4.2 4.5-.4 6.6-1.1-.4-.4-.8-.8-1.2-1.3z" fill="#00a9de"/><path d="m671.8 262.4 1.3-.4 17.5-6.4c.3-.1.6-.1 1-.1l-1.2-3.5c-.5-1.1-1-2.2-1.5-3.2-6.1 2.5-12.4 4.6-18.7 6.9l-5.1 1.8 2.3 6.4z" fill="#c2f4ff"/><path d="m690.1 260.1-17.5 5.9-1.3.4-3.9 1.4 2.2 6.4 13.5-4.7c.1 0 .3-.1.4-.1l8.8-3.1z" fill="#c2f4ff"/><path d="m695.8 276.8c3.4-1.2 6.9-2.2 10.4-3h.4c-1.3-2.7-2.5-5.1-3.6-7.5-2.2.9-4.5 1.8-6.7 2.6-.2.2-.4.3-.7.4l-12.8 4.4-2.3.8 2.3 6.5 3.3-1.1z" fill="#c2f4ff"/><path d="m707.9 274.7c-.6-3.3-1.5-7.1-2.6-10.8-.2-.8-1-1.2-1.8-1h-.2c-2.4.7-4.7 1.4-7.1 2.2l-2.6-7.5c.1 0 .2-.1.3-.1l-.1-.3c-.6-3.3-1.5-7.1-2.6-10.8-.2-.8-1-1.2-1.8-1h-.2c-6.8 2-13.5 4.4-20.2 6.7l-20.1 6.9c-1 .4-1.6 1.5-1.2 2.6l3.2 9.1c-.1 0-.2.1-.3.1l.1.3c.6 3.3 1.5 7.1 2.6 10.8.2.8 1 1.2 1.8 1h.2c2.4-.7 4.7-1.4 7.1-2.2l3 8.4v.1c.4 1 1.5 1.6 2.6 1.2l20.7-7.6 10.2-3.8c3.1-1.1 6.2-2.4 9.2-3.9zm-42.8-17.2 5.1-1.8c6.2-2.3 12.5-4.4 18.7-6.9.5 1.1 1 2.1 1.5 3.2.6 1.2 1.2 2.4 1.8 3.7-.2-.1-.4-.1-.6-.1-.3 0-.6 0-1 .1l-17.5 6.4-1.3.4-4.5 1.5-13.1 4.4-2.2-6.2zm-12.9 15.3c.5.2 1 .2 1.5 0l13.6-5 3.9-1.4 1.3-.4 17.5-5.9 2.2 6.2-8.8 3.1c-.1 0-.3.1-.4.1l-13.5 4.7-6.6 2.3c-.1 0-.1 0-.2.1-.3.1-.5.3-.7.6-2.2.8-4.4 1.7-6.6 2.5-.9-2.2-2-4.4-3.2-6.9zm16.3 13.1-2.2-6.2 14.1-5.1 2.3-.8 12.8-4.4c.3-.1.5-.3.7-.4 2.3-.8 4.5-1.7 6.7-2.6 1.1 2.4 2.3 4.8 3.6 7.5h-.4c-3.5.8-7 1.8-10.4 3l-9.7 3.1-3.3 1.1z" fill="#74dcfc"/><path d="m509.4 657.4-9.1-.1h-4.6-2.3-1.2c-.7 0-1.4.2-1.9.6-.4.3-.7.7-.9 1.1-.1.3-.1.5-.1.8v1.4 2.3 4.6l.1 9.1c0 .7.6 1.3 1.3 1.3 6.3.1 12.6-.3 18.9-1.1.8-6.2 1.2-12.5 1.2-18.8 0-.6-.6-1.2-1.4-1.2zm-17.3 10.7v-4.6-2.3-1h.1 1.1 2.3 4.6l7.8-.1c0 5.7.4 11.3 1.1 16.9-5.7-.7-11.3-1.1-17-1.1z" fill="#c8d7e2"/><path d="m546.3 657.4-9.1-.1h-4.6-2.3-1.2c-.7 0-1.4.2-1.9.6-.4.3-.7.7-.9 1.1-.1.3-.1.5-.1.8v1.4 2.3 4.6l.1 9.1c0 .7.6 1.3 1.3 1.3 6.3.1 12.6-.3 18.9-1.1.8-6.2 1.2-12.5 1.2-18.8-.1-.6-.7-1.2-1.4-1.2zm-17.3 10.7v-4.6-2.3-1h.1 1.1 2.3 4.6l7.8-.1c0 5.7.4 11.3 1.1 16.9-5.6-.7-11.3-1.1-17-1.1z" fill="#c8d7e2"/><path d="m583.1 657.4-9.1-.1h-4.6-2.3-1.2c-.7 0-1.4.2-1.9.6-.4.3-.7.7-.9 1.1-.1.3-.1.5-.1.8v1.4 2.3 4.6l.1 9.1c0 .7.6 1.3 1.3 1.3 6.3.1 12.6-.3 18.9-1.1.8-6.2 1.2-12.5 1.2-18.8 0-.6-.6-1.2-1.4-1.2zm-17.2 10.7v-4.6-2.3-1h.1 1.1 2.3 4.6l7.8-.1c0 5.7.4 11.3 1.1 16.9-5.6-.7-11.3-1.1-17-1.1z" fill="#c8d7e2"/><path d="m620 657.4-9.1-.1h-4.6-2.3-1.2c-.7 0-1.4.2-1.9.6-.4.3-.7.7-.9 1.1-.1.3-.1.5-.1.8v1.4 2.3 4.6l.1 9.1c0 .7.6 1.3 1.3 1.3 6.3.1 12.6-.3 18.9-1.1.8-6.2 1.2-12.5 1.2-18.8-.1-.6-.7-1.2-1.4-1.2zm-17.3 10.7v-4.6-2.3-1h.1 1.1 2.3 4.6l7.8-.1c0 5.7.4 11.3 1.1 16.9-5.7-.7-11.3-1.1-17-1.1z" fill="#c8d7e2"/><path d="m656.8 657.4-9.1-.1h-4.6-2.3-1.2c-.7 0-1.4.2-1.9.6-.4.3-.7.7-.9 1.1-.1.3-.1.5-.1.8v1.4 2.3 4.6l.1 9.1c0 .7.6 1.3 1.3 1.3 6.3.1 12.6-.3 18.9-1.1.8-6.2 1.2-12.5 1.2-18.8 0-.6-.6-1.2-1.4-1.2zm-17.3 10.7v-4.6-2.3-1h.1 1.1 2.3 4.6l7.8-.1c0 5.7.4 11.3 1.1 16.9-5.7-.7-11.3-1.1-17-1.1z" fill="#c8d7e2"/><path d="m693.7 657.4-9.1-.1h-4.6-2.3-1.2c-.7 0-1.4.2-1.9.6-.4.3-.7.7-.9 1.1-.1.3-.1.5-.1.8v1.4 2.3 4.6l.1 9.1c0 .7.6 1.3 1.3 1.3 6.3.1 12.6-.3 18.9-1.1.8-6.2 1.2-12.5 1.2-18.8-.1-.6-.7-1.2-1.4-1.2zm-17.3 10.7v-4.6-2.3-1h.1 1.1 2.3 4.6l7.8-.1c0 5.7.4 11.3 1.1 16.9-5.7-.7-11.3-1.1-17-1.1z" fill="#c8d7e2"/><path d="m509.4 686.8-9.1-.1h-4.6-2.3-1.2c-.7 0-1.4.2-1.9.6-.4.3-.7.7-.9 1.1-.1.3-.1.5-.1.8v1.4 2.3 4.6l.1 9.1c0 .7.6 1.3 1.3 1.3 6.3.1 12.6-.3 18.9-1.1.8-6.2 1.2-12.5 1.2-18.8 0-.6-.6-1.2-1.4-1.2zm-17.3 10.7v-4.6-2.3-1h.1 1.1 2.3 4.6l7.8-.1c0 5.7.4 11.3 1.1 16.9-5.7-.7-11.3-1.1-17-1.2z" fill="#c8d7e2"/><path d="m546.3 686.8-9.1-.1h-4.6-2.3-1.2c-.7 0-1.4.2-1.9.6-.4.3-.7.7-.9 1.1-.1.3-.1.5-.1.8v1.4 2.3 4.6l.1 9.1c0 .7.6 1.3 1.3 1.3 6.3.1 12.6-.3 18.9-1.1.8-6.2 1.2-12.5 1.2-18.8-.1-.6-.7-1.2-1.4-1.2zm-17.3 10.7v-4.6-2.3-1h.1 1.1 2.3 4.6l7.8-.1c0 5.7.4 11.3 1.1 16.9-5.6-.7-11.3-1.1-17-1.2z" fill="#c8d7e2"/><path d="m564.4 708.1c6.3.1 12.6-.3 18.9-1.1.8-6.2 1.2-12.5 1.2-18.8 0-.7-.6-1.3-1.3-1.3l-9.1-.1h-4.6-2.3-1.2c-.7 0-1.4.2-1.9.6-.4.3-.7.7-.9 1.1-.1.3-.1.5-.1.8v1.4 2.3 4.6l.1 9.2c-.1.7.5 1.3 1.2 1.3zm1.5-10.6v-4.6-2.3-1h.1 1.1 2.3 4.6l7.8-.1c0 5.7.4 11.3 1.1 16.9-5.6-.7-11.3-1.1-17-1.2z" fill="#c8d7e2"/><path d="m620 686.8-9.1-.1h-4.6-2.3-1.2c-.7 0-1.4.2-1.9.6-.4.3-.7.7-.9 1.1-.1.3-.1.5-.1.8v1.4 2.3 4.6l.1 9.1c0 .7.6 1.3 1.3 1.3 6.3.1 12.6-.3 18.9-1.1.8-6.2 1.2-12.5 1.2-18.8-.1-.6-.7-1.2-1.4-1.2zm-17.3 10.7v-4.6-2.3-1h.1 1.1 2.3 4.6l7.8-.1c0 5.7.4 11.3 1.1 16.9-5.7-.7-11.3-1.1-17-1.2z" fill="#c8d7e2"/><path d="m656.8 686.8-9.1-.1h-4.6-2.3-1.2c-.7 0-1.4.2-1.9.6-.4.3-.7.7-.9 1.1-.1.3-.1.5-.1.8v1.4 2.3 4.6l.1 9.1c0 .7.6 1.3 1.3 1.3 6.3.1 12.6-.3 18.9-1.1.8-6.2 1.2-12.5 1.2-18.8 0-.6-.6-1.2-1.4-1.2zm-17.3 10.7v-4.6-2.3-1h.1 1.1 2.3 4.6l7.8-.1c0 5.7.4 11.3 1.1 16.9-5.7-.7-11.4-1.1-17.1-1.2z" fill="#c8d7e2"/><path d="m693.7 686.8-9.1-.1h-4.6-2.3-1.2c-.7 0-1.4.2-1.9.6-.4.3-.7.7-.9 1.1-.1.3-.1.5-.1.8v1.4 2.3 4.6l.1 9.1c0 .7.6 1.3 1.3 1.3 6.3.1 12.6-.3 18.9-1.1.8-6.2 1.2-12.5 1.2-18.8-.1-.6-.7-1.2-1.4-1.2zm-17.3 10.7v-4.6-2.3-1h.1 1.1 2.3 4.6l7.8-.1c0 5.7.4 11.3 1.1 16.9-5.7-.7-11.3-1.1-17-1.2z" fill="#c8d7e2"/><path d="m500.3 716.2h-4.6-2.3-1.2c-.7 0-1.4.2-1.9.6-.4.3-.7.7-.9 1.1-.1.3-.1.5-.1.8v1.4 2.3 4.6l.1 9.1c0 .7.6 1.3 1.3 1.3 6.3.1 12.6-.3 18.9-1.1.8-6.2 1.2-12.5 1.2-18.8 0-.7-.6-1.3-1.3-1.3zm-8.2 10.7v-4.6-2.3-1h.1 1.1 2.3 4.6l7.8-.1c0 5.7.4 11.3 1.1 16.9-5.7-.7-11.3-1.1-17-1.2z" fill="#c8d7e2"/><path d="m537.1 716.2h-4.6-2.3-1.2c-.7 0-1.4.2-1.9.6-.4.3-.7.7-.9 1.1-.1.3-.1.5-.1.8v1.4 2.3 4.6l.1 9.1c0 .7.6 1.3 1.3 1.3 6.3.1 12.6-.3 18.9-1.1.8-6.2 1.2-12.5 1.2-18.8 0-.7-.6-1.3-1.3-1.3zm-8.1 10.7v-4.6-2.3-1h.1 1.1 2.3 4.6l7.8-.1c0 5.7.4 11.3 1.1 16.9-5.6-.7-11.3-1.1-17-1.2z" fill="#c8d7e2"/><path d="m564.4 737.5c6.3.1 12.6-.3 18.9-1.1.8-6.2 1.2-12.5 1.2-18.8 0-.7-.6-1.3-1.3-1.3l-9.1-.1h-4.6-2.3-1.2c-.7 0-1.4.2-1.9.6-.4.3-.7.7-.9 1.1-.1.3-.1.5-.1.8v1.4 2.3 4.6l.1 9.1c-.1.8.5 1.4 1.2 1.4zm1.5-10.6v-4.6-2.3-1h.1 1.1 2.3 4.6l7.8-.1c0 5.7.4 11.3 1.1 16.9-5.6-.7-11.3-1.1-17-1.2z" fill="#c8d7e2"/><path d="m610.8 716.2h-4.6-2.2-1.2c-.7 0-1.4.2-1.9.6-.4.3-.7.7-.9 1.1-.1.3-.1.5-.1.8v1.4 2.3 4.6l.1 9.1c0 .7.6 1.3 1.3 1.3 6.3.1 12.6-.3 18.9-1.1.8-6.2 1.2-12.5 1.2-18.8 0-.7-.6-1.3-1.3-1.3zm-8.1 10.7v-4.6-2.3-1h.1 1.1 2.3 4.6l7.8-.1c0 5.7.4 11.3 1.1 16.9-5.7-.7-11.3-1.1-17-1.2z" fill="#c8d7e2"/><path d="m647.7 716.2h-4.6-2.3-1.2c-.7 0-1.4.2-1.9.6-.4.3-.7.7-.9 1.1-.1.3-.1.5-.1.8v1.4 2.3 4.6l.1 9.1c0 .7.6 1.3 1.3 1.3 6.3.1 12.6-.3 18.9-1.1.8-6.2 1.2-12.5 1.2-18.8 0-.7-.6-1.3-1.3-1.3zm-8.2 10.7v-4.6-2.3-1h.1 1.1 2.3 4.6l7.8-.1c0 5.7.4 11.3 1.1 16.9-5.7-.7-11.3-1.1-17-1.2z" fill="#c8d7e2"/><path d="m684.6 716.2h-4.6-2.3-1.2c-.7 0-1.4.2-1.9.6-.4.3-.7.7-.9 1.1-.1.3-.1.5-.1.8v1.4 2.3 4.6l.1 9.1c0 .7.6 1.3 1.3 1.3 6.3.1 12.6-.3 18.9-1.1.8-6.2 1.2-12.5 1.2-18.8 0-.7-.6-1.3-1.3-1.3zm-8.2 10.7v-4.6-2.3-1h.1 1.1 2.3 4.6l7.8-.1c0 5.7.4 11.3 1.1 16.9-5.7-.7-11.3-1.1-17-1.2z" fill="#c8d7e2"/><path d="m711.3 639.7c0-.3-.2-.5-.5-.5-19.6-1.4-39.1-1.4-58.7-1.5l-58.7-.2-58.7.2c-19.6.1-39.1.1-58.7 1.5-.2 0-.5.2-.5.5s.2.5.5.5c19.6 1.4 39.1 1.4 58.7 1.5l58.7.2 58.7-.2c19.6-.1 39.1-.1 58.7-1.5.3-.1.5-.3.5-.5z" fill="#c8d7e2"/><path d="m656.8 798.7c-10.9-.2-21.7-.5-32.5-.5l-32.4-.2-32.4.2c-10.8 0-21.6.3-32.4.7h-.1c-.9 0-1.6.8-1.5 1.7.1 3 .3 6 .4 9.1.1.9.1 1.8.2 2.8.1.9.1 1.8.2 2.8.1 2 .3 3.9.4 5.9 0 .2.2.4.4.4.3 0 .5-.1.5-.4.2-2 .3-3.9.4-5.9.1-.9.1-1.8.2-2.8.1-.9.1-1.8.2-2.8.1-2.4.3-4.9.4-7.3 10.3.4 20.5.6 30.8.6l32.4.2 32.4-.2c10.2 0 20.4-.2 30.6-.5.1 2.4.2 4.9.2 7.3 0 .9.1 1.7.1 2.6s.1 1.8.1 2.6c.1 3.1.3 6.1.4 9.2 0 .4.4.8.8.8.5.1 1-.3 1-.8.2-3.1.3-6.1.4-9.2 0-.9.1-1.7.1-2.6s.1-1.7.1-2.6c.1-3.1.2-6.1.3-9.2.1-1.1-.7-1.9-1.7-1.9z" fill="#c8d7e2"/><path d="m458.3 264.1c4.9 3.1 10.2 5.2 15.9 6.4 1.4.4 2.9.6 4.3.8 1.6-.1 3.4-.8 5.7-2.8l1.3-3.2c-.3-3.1-1.1-4.9-2.2-6-1.1-.9-2.3-1.8-3.6-2.5-4.9-3.1-10.2-5.2-15.9-6.4-1.4-.4-2.9-.7-4.3-.8-1.6.1-3.4.8-5.7 2.8l-.6 1.6-.7 1.6c.3 3.1 1.1 4.9 2.2 6 1.1 1 2.3 1.8 3.6 2.5z" fill="#c8d7e2"/><path d="m1493.8 851.3c-72.2-1.2-144.5-1.9-216.7-2.2v.1c-122.6 1.8-265.8.5-398.8-.7 0-.9-.1.9-.1 0l-97.9-.1.6-8.8.6-11.2c.3-7.6.6-15.3.8-23.1.2-15.6.6-31.3.5-46.9 0-1.6-1.3-2.9-2.9-2.9h-4.9l-11.3-45.9-18.3-73.2-1.9-26.5-1-13c-1.1-1.8-2.1-3.7-3.2-5.6-1.5-2.7-3-5.4-4.5-8.1.1.3.2.6.3.9 1.2 4.1 1.4 8.1 1.7 12.7l1 13.4 1.9 26.8c0 .2 0 .3.1.5l19 73.3 11.7 44.7-178.6.2-177.4.6 29.5-116.2c0-.2.1-.3.1-.5l1.8-26.8.9-13.4c.1-4.3.7-8.6 1.6-12.8 1.9-8.2 6.2-15.8 12.3-21.6 2.9-2.8 6.5-5 10.3-6.3 3.9-1.3 7.8-1.3 12.4-1.3h147.6 2.4 2.4 26.6.5 41.6c2 0 4 .3 6 .8 4 1 7.7 2.9 11 5.4 2 1.6 3.8 3.3 5.5 5.2-1.4-2.6-2.7-5.1-4-7.7-.9-1.7-1.7-3.3-2.6-5-2.6-1.5-5.4-2.6-8.3-3.3-2.4-.6-4.8-1-7.3-1h-41.4c.4-4.5.7-9.2.9-14 0-.6 0-1.2.1-1.8 5-.4 10-.7 15-.7 2.6 0 5.1-1.2 6.8-3.2.9-1 1.5-2.2 1.8-3.4s.5-2.5.5-3.7l1.1-13.9c.1-2.3.2-4.7.3-7v-3.5c0-.6 0-1.3 0-1.9-.1-.8-.2-1.6-.5-2.3-1-3-3.4-5.5-6.4-6.6-.7-.3-1.5-.5-2.3-.6-.4-.1-.8-.1-1.2-.1h-.9-3.6l-55.6-.4c-3.3 0-6.5 1.6-8.6 4.2-1 1.3-1.7 2.8-2.1 4.4-.2 1.4-.3 2.8-.2 4.3l.1 13.9.1 7v3.5c0 .6 0 1.3.1 1.9.1.8.3 1.6.5 2.4 1.1 3.1 3.5 5.5 6.6 6.6.8.3 1.5.5 2.3.5.4.1.8.1 1.2.1h.9 3.5 7.1l.1 14.3h-147.6c-4.3-.1-9.5-.1-14.1 1.5-4.7 1.5-8.9 4.1-12.4 7.5-6.9 6.6-11.7 15.1-13.9 24.4-1 4.5-1.6 9.1-1.8 13.8l-.9 13.4-1.8 26.5-29.7 117.4h-4.9c-1.1 0-2.1 1-2.1 2.1.1 8.1.2 16.2.2 24.3l-.8 3.2c-.1.3-.1.6-.1.8.1 1.3.4 2.5 1 3.6.2 19.4.4 38.8.7 58.2h-27.6l-186.4.1c-62.1.2-124.3-.4-186.4 1.3-1.4 0-2.5 1.1-2.5 2.5s1.1 2.5 2.5 2.5c62.1 1.7 124.3 1.1 186.4 1.3l186.4.1 372.9.1 372.9-.3c124.3 0 248.6-.4 372.9-2.5.6-.1 1.1-.5 1.1-1.1 0-.5-.5-1.1-1.2-1.2zm-1088.7-2.7c.3-17.8.5-35.6.7-53.5 0-1.3 0-2.7 0-4 0-4 .1-8 .1-12 0-3.9.1-7.8.1-11.7 0-2.3 0-4.6.1-6.9h1.7 2.9 2.8l178.5.6 180.1.2h2.2 2.2.5v2 8.6c0 2.8 0 5.6.1 8.5 0 2.2.1 4.4.1 6.6 0 1.1 0 2.2.1 3.3v2.6c.1 3.5.1 7 .2 10.5.1 7.5.5 15.1.8 22.8l.6 11.7.7 10.7.1 1h-.4l-374-.4c-.2-.2-.2-.4-.2-.6zm218.6-316.8h-3.5-.9c-.2 0-.4 0-.5 0-.3 0-.7-.1-1-.3-1.4-.5-2.4-1.6-2.9-3-.4-.9-.2-3.8-.2-6v-7l.1-13.9c-.1-.9 0-1.8.1-2.7.2-.7.5-1.3.9-1.8.9-1.1 2.2-1.7 3.6-1.7l55.6-.4h3.5.9.6c.4 0 .7.1 1.1.2 1.4.5 2.5 1.6 3 3 .5 1 .2 3.9.4 6.1 0 2.3.1 4.6.3 6.9l1.1 13.9c.1 1.1.2 2.1.1 3.2-.1 1-.5 2-1.1 2.8-1.3 1.7-3.3 2.8-5.4 2.8-5 0-9.9-.3-14.9-.8-.7-.1-1.4-.1-2.1-.2s-1.4-.1-2.1-.2c-2.9-.3-5.8-.5-8.8-.7-5.2-.3-10.4-.4-15.6-.4-.8 0-1.7 0-2.5 0-.9 0-1.7 0-2.6 0-2.4.2-4.8.2-7.2.2zm12.2 5.8c5.2 0 10.4-.1 15.6-.4 3-.2 5.9-.5 8.9-.7.2 5 .6 10.1 1 15.5h-25.7z" fill="#c8d7e2"/></svg>