<svg width="56" height="30" viewBox="0 0 56 30" fill="none" xmlns="http://www.w3.org/2000/svg">
<path d="M30 15C30 6.735 23.265 0 15 0C6.72 0 0 6.735 0 15C0 23.28 6.72 30 15 30C23.265 30 30 23.28 30 15ZM11.67 23.055L6.555 9.33C7.38 9.3 8.31 9.21 8.31 9.21C9.06 9.12 8.97 7.515 8.22 7.545C8.22 7.545 6.045 7.71 4.665 7.71C4.395 7.71 4.11 7.71 3.795 7.695C6.18 4.035 10.305 1.665 15 1.665C18.495 1.665 21.675 2.97 24.075 5.175C23.055 5.01 21.6 5.76 21.6 7.545C21.6 8.655 22.275 9.585 22.95 10.695C23.475 11.61 23.775 12.735 23.775 14.385C23.775 16.62 21.675 21.885 21.675 21.885L17.13 9.33C17.94 9.3 18.36 9.075 18.36 9.075C19.11 9 19.02 7.2 18.27 7.245C18.27 7.245 16.11 7.425 14.7 7.425C13.395 7.425 11.205 7.245 11.205 7.245C10.455 7.2 10.365 9.045 11.115 9.075L12.495 9.195L14.385 14.31L11.67 23.055ZM26.115 15C26.475 14.04 27.225 12.195 26.76 8.625C27.81 10.56 28.335 12.69 28.335 15C28.335 19.935 25.74 24.36 21.735 26.67C23.19 22.785 24.645 18.87 26.115 15ZM9.15 27.135C4.68 24.975 1.665 20.295 1.665 15C1.665 13.05 2.01 11.28 2.745 9.615C4.875 15.45 7.005 21.3 9.15 27.135ZM15.195 17.19L19.065 27.66C17.775 28.095 16.425 28.335 15 28.335C13.815 28.335 12.645 28.17 11.565 27.84C12.78 24.27 13.995 20.73 15.195 17.19Z" fill="#0675C4"/>
<path d="M41 0C32.7362 0 26 6.71779 26 15C26 23.2822 32.7178 30 41 30C49.2822 30 56 23.2822 56 15C56 6.71779 49.2822 0 41 0ZM40.227 17.4847H32.7546L40.227 2.94479V17.4847ZM41.7546 27.0184V12.4785H49.2086L41.7546 27.0184Z" fill="#069E08"/>
</svg>