<svg fill="none" height="34" width="58" xmlns="http://www.w3.org/2000/svg"><path d="m30 17c0-8.265-6.735-15-15-15-8.28 0-15 6.735-15 15 0 8.28 6.72 15 15 15 8.265 0 15-6.72 15-15zm-18.33 8.055-5.115-13.725c.825-.03 1.755-.12 1.755-.12.75-.09.66-1.695-.09-1.665 0 0-2.175.165-3.555.165-.27 0-.555 0-.87-.015 2.385-3.66 6.51-6.03 11.205-6.03 3.495 0 6.675 1.305 9.075 3.51-1.02-.165-2.475.585-2.475 2.37 0 1.11.675 2.04 1.35 3.15.525.915.825 2.04.825 3.69 0 2.235-2.1 7.5-2.1 7.5l-4.545-12.555c.81-.03 1.23-.255 1.23-.255.75-.075.66-1.875-.09-1.83 0 0-2.16.18-3.57.18-1.305 0-3.495-.18-3.495-.18-.75-.045-.84 1.8-.09 1.83l1.38.12 1.89 5.115zm14.445-8.055c.36-.96 1.11-2.805.645-6.375 1.05 1.935 1.575 4.065 1.575 6.375 0 4.935-2.595 9.36-6.6 11.67 1.455-3.885 2.91-7.8 4.38-11.67zm-16.965 12.135c-4.47-2.16-7.485-6.84-7.485-12.135 0-1.95.345-3.72 1.08-5.385 2.13 5.835 4.26 11.685 6.405 17.52zm6.045-9.945 3.87 10.47c-1.29.435-2.64.675-4.065.675-1.185 0-2.355-.165-3.435-.495 1.215-3.57 2.43-7.11 3.63-10.65z" fill="#0675c4"/><rect fill="#fff" height="30" rx="15" width="30" x="26" y="2"/><path clip-rule="evenodd" d="m57.637 17c0 9.188-7.448 16.636-16.636 16.636s-16.637-7.448-16.637-16.636 7.449-16.636 16.637-16.636 16.636 7.448 16.636 16.636zm-16.636 15c8.284 0 15-6.716 15-15s-6.716-15-15-15c-8.285 0-15 6.716-15 15s6.715 15 15 15z" fill="#fff" fill-rule="evenodd"/><path d="m41 2c-8.264 0-15 6.718-15 15s6.718 15 15 15 15-6.718 15-15-6.718-15-15-15zm-.773 17.485h-7.472l7.472-14.54zm1.528 9.533v-14.54h7.454z" fill="#069e08"/></svg>