<svg fill="none" height="100" width="100" xmlns="http://www.w3.org/2000/svg"><path d="m0 0h4v4h-4zm4 0h4v4h-4zm4 0h4v4h-4zm4 0h4v4h-4zm4 0h4v4h-4zm4 0h4v4h-4zm4 0h4v4h-4zm8 0h4v4h-4zm20 0h4v4h-4zm12 0h4v4h-4zm8 0h4v4h-4zm4 0h4v4h-4zm4 0h4v4h-4zm4 0h4v4h-4zm4 0h4v4h-4zm4 0h4v4h-4zm4 0h4v4h-4zm-96 4h4v4h-4zm24 0h4v4h-4zm8 0h4v4h-4zm8 0h4v4h-4zm4 0h4v4h-4zm4 0h4v4h-4zm8 0h4v4h-4zm4 0h4v4h-4zm4 0h4v4h-4zm8 0h4v4h-4zm24 0h4v4h-4zm-96 4h4v4h-4zm8 0h4v4h-4zm4 0h4v4h-4zm4 0h4v4h-4zm8 0h4v4h-4zm8 0h4v4h-4zm8 0h4v4h-4zm4 0h4v4h-4zm4 0h4v4h-4zm4 0h4v4h-4zm4 0h4v4h-4zm8 0h4v4h-4zm8 0h4v4h-4zm8 0h4v4h-4zm4 0h4v4h-4zm4 0h4v4h-4zm8 0h4v4h-4zm-96 4h4v4h-4zm8 0h4v4h-4zm4 0h4v4h-4zm4 0h4v4h-4zm8 0h4v4h-4zm8 0h4v4h-4zm8 0h4v4h-4zm12 0h4v4h-4zm4 0h4v4h-4zm4 0h4v4h-4zm12 0h4v4h-4zm8 0h4v4h-4zm4 0h4v4h-4zm4 0h4v4h-4zm8 0h4v4h-4zm-96 4h4v4h-4zm8 0h4v4h-4zm4 0h4v4h-4zm4 0h4v4h-4zm8 0h4v4h-4zm8 0h4v4h-4zm4 0h4v4h-4zm12 0h4v4h-4zm8 0h4v4h-4zm16 0h4v4h-4zm8 0h4v4h-4zm4 0h4v4h-4zm4 0h4v4h-4zm8 0h4v4h-4zm-96 4h4v4h-4zm24 0h4v4h-4zm16 0h4v4h-4zm4 0h4v4h-4zm8 0h4v4h-4zm20 0h4v4h-4zm24 0h4v4h-4zm-96 4h4v4h-4zm4 0h4v4h-4zm4 0h4v4h-4zm4 0h4v4h-4zm4 0h4v4h-4zm4 0h4v4h-4zm4 0h4v4h-4zm8 0h4v4h-4zm8 0h4v4h-4zm8 0h4v4h-4zm8 0h4v4h-4zm8 0h4v4h-4zm8 0h4v4h-4zm4 0h4v4h-4zm4 0h4v4h-4zm4 0h4v4h-4zm4 0h4v4h-4zm4 0h4v4h-4zm4 0h4v4h-4zm-64 4h4v4h-4zm4 0h4v4h-4zm16 0h4v4h-4zm4 0h4v4h-4zm8 0h4v4h-4zm-60 4h4v4h-4zm4 0h4v4h-4zm8 0h4v4h-4zm8 0h4v4h-4zm4 0h4v4h-4zm16 0h4v4h-4zm12 0h4v4h-4zm4 0h4v4h-4zm4 0h4v4h-4zm8 0h4v4h-4zm8 0h4v4h-4zm4 0h4v4h-4zm4 0h4v4h-4zm4 0h4v4h-4zm4 0h4v4h-4zm-92 4h4v4h-4zm8 0h4v4h-4zm8 0h4v4h-4zm8 0h4v4h-4zm4 0h4v4h-4zm4 0h4v4h-4zm4 0h4v4h-4zm4 0h4v4h-4zm12 0h4v4h-4zm4 0h4v4h-4zm8 0h4v4h-4zm4 0h4v4h-4zm24 0h4v4h-4zm-92 4h4v4h-4zm4 0h4v4h-4zm4 0h4v4h-4zm12 0h4v4h-4zm12 0h4v4h-4zm8 0h4v4h-4zm8 0h4v4h-4zm12 0h4v4h-4zm4 0h4v4h-4zm8 0h4v4h-4zm12 0h4v4h-4zm4 0h4v4h-4zm4 0h4v4h-4zm-96 4h4v4h-4zm4 0h4v4h-4zm8 0h4v4h-4zm4 0h4v4h-4zm4 0h4v4h-4zm28 0h4v4h-4zm12 0h4v4h-4zm12 0h4v4h-4zm4 0h4v4h-4zm-72 4h4v4h-4zm4 0h4v4h-4zm8 0h4v4h-4zm4 0h4v4h-4zm4 0h4v4h-4zm12 0h4v4h-4zm4 0h4v4h-4zm8 0h4v4h-4zm20 0h4v4h-4zm4 0h4v4h-4zm12 0h4v4h-4zm8 0h4v4h-4zm4 0h4v4h-4zm-80 4h4v4h-4zm16 0h4v4h-4zm8 0h4v4h-4zm4 0h4v4h-4zm8 0h4v4h-4zm12 0h4v4h-4zm4 0h4v4h-4zm4 0h4v4h-4zm12 0h4v4h-4zm8 0h4v4h-4zm4 0h4v4h-4zm-96 4h4v4h-4zm20 0h4v4h-4zm4 0h4v4h-4zm4 0h4v4h-4zm4 0h4v4h-4zm8 0h4v4h-4zm4 0h4v4h-4zm20 0h4v4h-4zm4 0h4v4h-4zm20 0h4v4h-4zm4 0h4v4h-4zm4 0h4v4h-4zm-92 4h4v4h-4zm4 0h4v4h-4zm24 0h4v4h-4zm8 0h4v4h-4zm8 0h4v4h-4zm8 0h4v4h-4zm4 0h4v4h-4zm20 0h4v4h-4zm12 0h4v4h-4zm4 0h4v4h-4zm-96 4h4v4h-4zm16 0h4v4h-4zm8 0h4v4h-4zm8 0h4v4h-4zm8 0h4v4h-4zm24 0h4v4h-4zm4 0h4v4h-4zm4 0h4v4h-4zm4 0h4v4h-4zm4 0h4v4h-4zm-48 4h4v4h-4zm12 0h4v4h-4zm20 0h4v4h-4zm16 0h4v4h-4zm4 0h4v4h-4zm8 0h4v4h-4zm4 0h4v4h-4zm-96 4h4v4h-4zm4 0h4v4h-4zm4 0h4v4h-4zm4 0h4v4h-4zm4 0h4v4h-4zm4 0h4v4h-4zm4 0h4v4h-4zm8 0h4v4h-4zm4 0h4v4h-4zm8 0h4v4h-4zm12 0h4v4h-4zm4 0h4v4h-4zm4 0h4v4h-4zm8 0h4v4h-4zm8 0h4v4h-4zm4 0h4v4h-4zm4 0h4v4h-4zm4 0h4v4h-4zm4 0h4v4h-4zm-96 4h4v4h-4zm24 0h4v4h-4zm12 0h4v4h-4zm8 0h4v4h-4zm8 0h4v4h-4zm4 0h4v4h-4zm8 0h4v4h-4zm16 0h4v4h-4zm16 0h4v4h-4zm-96 4h4v4h-4zm8 0h4v4h-4zm4 0h4v4h-4zm4 0h4v4h-4zm8 0h4v4h-4zm8 0h4v4h-4zm4 0h4v4h-4zm16 0h4v4h-4zm4 0h4v4h-4zm8 0h4v4h-4zm4 0h4v4h-4zm4 0h4v4h-4zm4 0h4v4h-4zm4 0h4v4h-4zm12 0h4v4h-4zm-92 4h4v4h-4zm8 0h4v4h-4zm4 0h4v4h-4zm4 0h4v4h-4zm8 0h4v4h-4zm12 0h4v4h-4zm4 0h4v4h-4zm4 0h4v4h-4zm4 0h4v4h-4zm8 0h4v4h-4zm12 0h4v4h-4zm8 0h4v4h-4zm4 0h4v4h-4zm4 0h4v4h-4zm8 0h4v4h-4zm-92 4h4v4h-4zm8 0h4v4h-4zm4 0h4v4h-4zm4 0h4v4h-4zm8 0h4v4h-4zm8 0h4v4h-4zm4 0h4v4h-4zm20 0h4v4h-4zm8 0h4v4h-4zm16 0h4v4h-4zm4 0h4v4h-4zm12 0h4v4h-4zm-96 4h4v4h-4zm24 0h4v4h-4zm8 0h4v4h-4zm4 0h4v4h-4zm4 0h4v4h-4zm4 0h4v4h-4zm4 0h4v4h-4zm12 0h4v4h-4zm4 0h4v4h-4zm8 0h4v4h-4zm8 0h4v4h-4zm12 0h4v4h-4zm-92 4h4v4h-4zm4 0h4v4h-4zm4 0h4v4h-4zm4 0h4v4h-4zm4 0h4v4h-4zm4 0h4v4h-4zm4 0h4v4h-4zm20 0h4v4h-4zm4 0h4v4h-4zm4 0h4v4h-4zm4 0h4v4h-4zm4 0h4v4h-4zm4 0h4v4h-4zm4 0h4v4h-4zm24 0h4v4h-4zm4 0h4v4h-4z" fill="#000"/></svg>