<svg width="100" height="100" fill="none" xmlns="http://www.w3.org/2000/svg"><path d="M0 0h4v4H0V0Zm4 0h4v4H4V0Zm4 0h4v4H8V0Zm4 0h4v4h-4V0Zm4 0h4v4h-4V0Zm4 0h4v4h-4V0Zm4 0h4v4h-4V0Zm8 0h4v4h-4V0Zm20 0h4v4h-4V0Zm12 0h4v4h-4V0Zm8 0h4v4h-4V0Zm4 0h4v4h-4V0Zm4 0h4v4h-4V0Zm4 0h4v4h-4V0Zm4 0h4v4h-4V0Zm4 0h4v4h-4V0Zm4 0h4v4h-4V0ZM0 4h4v4H0V4Zm24 0h4v4h-4V4Zm8 0h4v4h-4V4Zm8 0h4v4h-4V4Zm4 0h4v4h-4V4Zm4 0h4v4h-4V4Zm8 0h4v4h-4V4Zm4 0h4v4h-4V4Zm4 0h4v4h-4V4Zm8 0h4v4h-4V4Zm24 0h4v4h-4V4ZM0 8h4v4H0V8Zm8 0h4v4H8V8Zm4 0h4v4h-4V8Zm4 0h4v4h-4V8Zm8 0h4v4h-4V8Zm8 0h4v4h-4V8Zm8 0h4v4h-4V8Zm4 0h4v4h-4V8Zm4 0h4v4h-4V8Zm4 0h4v4h-4V8Zm4 0h4v4h-4V8Zm8 0h4v4h-4V8Zm8 0h4v4h-4V8Zm8 0h4v4h-4V8Zm4 0h4v4h-4V8Zm4 0h4v4h-4V8Zm8 0h4v4h-4V8ZM0 12h4v4H0v-4Zm8 0h4v4H8v-4Zm4 0h4v4h-4v-4Zm4 0h4v4h-4v-4Zm8 0h4v4h-4v-4Zm8 0h4v4h-4v-4Zm8 0h4v4h-4v-4Zm12 0h4v4h-4v-4Zm4 0h4v4h-4v-4Zm4 0h4v4h-4v-4Zm12 0h4v4h-4v-4Zm8 0h4v4h-4v-4Zm4 0h4v4h-4v-4Zm4 0h4v4h-4v-4Zm8 0h4v4h-4v-4ZM0 16h4v4H0v-4Zm8 0h4v4H8v-4Zm4 0h4v4h-4v-4Zm4 0h4v4h-4v-4Zm8 0h4v4h-4v-4Zm8 0h4v4h-4v-4Zm4 0h4v4h-4v-4Zm12 0h4v4h-4v-4Zm8 0h4v4h-4v-4Zm16 0h4v4h-4v-4Zm8 0h4v4h-4v-4Zm4 0h4v4h-4v-4Zm4 0h4v4h-4v-4Zm8 0h4v4h-4v-4ZM0 20h4v4H0v-4Zm24 0h4v4h-4v-4Zm16 0h4v4h-4v-4Zm4 0h4v4h-4v-4Zm8 0h4v4h-4v-4Zm20 0h4v4h-4v-4Zm24 0h4v4h-4v-4ZM0 24h4v4H0v-4Zm4 0h4v4H4v-4Zm4 0h4v4H8v-4Zm4 0h4v4h-4v-4Zm4 0h4v4h-4v-4Zm4 0h4v4h-4v-4Zm4 0h4v4h-4v-4Zm8 0h4v4h-4v-4Zm8 0h4v4h-4v-4Zm8 0h4v4h-4v-4Zm8 0h4v4h-4v-4Zm8 0h4v4h-4v-4Zm8 0h4v4h-4v-4Zm4 0h4v4h-4v-4Zm4 0h4v4h-4v-4Zm4 0h4v4h-4v-4Zm4 0h4v4h-4v-4Zm4 0h4v4h-4v-4Zm4 0h4v4h-4v-4Zm-64 4h4v4h-4v-4Zm4 0h4v4h-4v-4Zm16 0h4v4h-4v-4Zm4 0h4v4h-4v-4Zm8 0h4v4h-4v-4ZM4 32h4v4H4v-4Zm4 0h4v4H8v-4Zm8 0h4v4h-4v-4Zm8 0h4v4h-4v-4Zm4 0h4v4h-4v-4Zm16 0h4v4h-4v-4Zm12 0h4v4h-4v-4Zm4 0h4v4h-4v-4Zm4 0h4v4h-4v-4Zm8 0h4v4h-4v-4Zm8 0h4v4h-4v-4Zm4 0h4v4h-4v-4Zm4 0h4v4h-4v-4Zm4 0h4v4h-4v-4Zm4 0h4v4h-4v-4ZM4 36h4v4H4v-4Zm8 0h4v4h-4v-4Zm8 0h4v4h-4v-4Zm8 0h4v4h-4v-4Zm4 0h4v4h-4v-4Zm4 0h4v4h-4v-4Zm4 0h4v4h-4v-4Zm4 0h4v4h-4v-4Zm12 0h4v4h-4v-4Zm4 0h4v4h-4v-4Zm8 0h4v4h-4v-4Zm4 0h4v4h-4v-4Zm24 0h4v4h-4v-4ZM4 40h4v4H4v-4Zm4 0h4v4H8v-4Zm4 0h4v4h-4v-4Zm12 0h4v4h-4v-4Zm12 0h4v4h-4v-4Zm8 0h4v4h-4v-4Zm8 0h4v4h-4v-4Zm12 0h4v4h-4v-4Zm4 0h4v4h-4v-4Zm8 0h4v4h-4v-4Zm12 0h4v4h-4v-4Zm4 0h4v4h-4v-4Zm4 0h4v4h-4v-4ZM0 44h4v4H0v-4Zm4 0h4v4H4v-4Zm8 0h4v4h-4v-4Zm4 0h4v4h-4v-4Zm4 0h4v4h-4v-4Zm28 0h4v4h-4v-4Zm12 0h4v4h-4v-4Zm12 0h4v4h-4v-4Zm4 0h4v4h-4v-4ZM4 48h4v4H4v-4Zm4 0h4v4H8v-4Zm8 0h4v4h-4v-4Zm4 0h4v4h-4v-4Zm4 0h4v4h-4v-4Zm12 0h4v4h-4v-4Zm4 0h4v4h-4v-4Zm8 0h4v4h-4v-4Zm20 0h4v4h-4v-4Zm4 0h4v4h-4v-4Zm12 0h4v4h-4v-4Zm8 0h4v4h-4v-4Zm4 0h4v4h-4v-4Zm-80 4h4v4h-4v-4Zm16 0h4v4h-4v-4Zm8 0h4v4h-4v-4Zm4 0h4v4h-4v-4Zm8 0h4v4h-4v-4Zm12 0h4v4h-4v-4Zm4 0h4v4h-4v-4Zm4 0h4v4h-4v-4Zm12 0h4v4h-4v-4Zm8 0h4v4h-4v-4Zm4 0h4v4h-4v-4ZM0 56h4v4H0v-4Zm20 0h4v4h-4v-4Zm4 0h4v4h-4v-4Zm4 0h4v4h-4v-4Zm4 0h4v4h-4v-4Zm8 0h4v4h-4v-4Zm4 0h4v4h-4v-4Zm20 0h4v4h-4v-4Zm4 0h4v4h-4v-4Zm20 0h4v4h-4v-4Zm4 0h4v4h-4v-4Zm4 0h4v4h-4v-4ZM4 60h4v4H4v-4Zm4 0h4v4H8v-4Zm24 0h4v4h-4v-4Zm8 0h4v4h-4v-4Zm8 0h4v4h-4v-4Zm8 0h4v4h-4v-4Zm4 0h4v4h-4v-4Zm20 0h4v4h-4v-4Zm12 0h4v4h-4v-4Zm4 0h4v4h-4v-4ZM0 64h4v4H0v-4Zm16 0h4v4h-4v-4Zm8 0h4v4h-4v-4Zm8 0h4v4h-4v-4Zm8 0h4v4h-4v-4Zm24 0h4v4h-4v-4Zm4 0h4v4h-4v-4Zm4 0h4v4h-4v-4Zm4 0h4v4h-4v-4Zm4 0h4v4h-4v-4Zm-48 4h4v4h-4v-4Zm12 0h4v4h-4v-4Zm20 0h4v4h-4v-4Zm16 0h4v4h-4v-4Zm4 0h4v4h-4v-4Zm8 0h4v4h-4v-4Zm4 0h4v4h-4v-4ZM0 72h4v4H0v-4Zm4 0h4v4H4v-4Zm4 0h4v4H8v-4Zm4 0h4v4h-4v-4Zm4 0h4v4h-4v-4Zm4 0h4v4h-4v-4Zm4 0h4v4h-4v-4Zm8 0h4v4h-4v-4Zm4 0h4v4h-4v-4Zm8 0h4v4h-4v-4Zm12 0h4v4h-4v-4Zm4 0h4v4h-4v-4Zm4 0h4v4h-4v-4Zm8 0h4v4h-4v-4Zm8 0h4v4h-4v-4Zm4 0h4v4h-4v-4Zm4 0h4v4h-4v-4Zm4 0h4v4h-4v-4Zm4 0h4v4h-4v-4ZM0 76h4v4H0v-4Zm24 0h4v4h-4v-4Zm12 0h4v4h-4v-4Zm8 0h4v4h-4v-4Zm8 0h4v4h-4v-4Zm4 0h4v4h-4v-4Zm8 0h4v4h-4v-4Zm16 0h4v4h-4v-4Zm16 0h4v4h-4v-4ZM0 80h4v4H0v-4Zm8 0h4v4H8v-4Zm4 0h4v4h-4v-4Zm4 0h4v4h-4v-4Zm8 0h4v4h-4v-4Zm8 0h4v4h-4v-4Zm4 0h4v4h-4v-4Zm16 0h4v4h-4v-4Zm4 0h4v4h-4v-4Zm8 0h4v4h-4v-4Zm4 0h4v4h-4v-4Zm4 0h4v4h-4v-4Zm4 0h4v4h-4v-4Zm4 0h4v4h-4v-4Zm12 0h4v4h-4v-4ZM0 84h4v4H0v-4Zm8 0h4v4H8v-4Zm4 0h4v4h-4v-4Zm4 0h4v4h-4v-4Zm8 0h4v4h-4v-4Zm12 0h4v4h-4v-4Zm4 0h4v4h-4v-4Zm4 0h4v4h-4v-4Zm4 0h4v4h-4v-4Zm8 0h4v4h-4v-4Zm12 0h4v4h-4v-4Zm8 0h4v4h-4v-4Zm4 0h4v4h-4v-4Zm4 0h4v4h-4v-4Zm8 0h4v4h-4v-4ZM0 88h4v4H0v-4Zm8 0h4v4H8v-4Zm4 0h4v4h-4v-4Zm4 0h4v4h-4v-4Zm8 0h4v4h-4v-4Zm8 0h4v4h-4v-4Zm4 0h4v4h-4v-4Zm20 0h4v4h-4v-4Zm8 0h4v4h-4v-4Zm16 0h4v4h-4v-4Zm4 0h4v4h-4v-4Zm12 0h4v4h-4v-4ZM0 92h4v4H0v-4Zm24 0h4v4h-4v-4Zm8 0h4v4h-4v-4Zm4 0h4v4h-4v-4Zm4 0h4v4h-4v-4Zm4 0h4v4h-4v-4Zm4 0h4v4h-4v-4Zm12 0h4v4h-4v-4Zm4 0h4v4h-4v-4Zm8 0h4v4h-4v-4Zm8 0h4v4h-4v-4Zm12 0h4v4h-4v-4ZM0 96h4v4H0v-4Zm4 0h4v4H4v-4Zm4 0h4v4H8v-4Zm4 0h4v4h-4v-4Zm4 0h4v4h-4v-4Zm4 0h4v4h-4v-4Zm4 0h4v4h-4v-4Zm20 0h4v4h-4v-4Zm4 0h4v4h-4v-4Zm4 0h4v4h-4v-4Zm4 0h4v4h-4v-4Zm4 0h4v4h-4v-4Zm4 0h4v4h-4v-4Zm4 0h4v4h-4v-4Zm24 0h4v4h-4v-4Zm4 0h4v4h-4v-4Z" fill="#000"/></svg>
