<svg width="192" height="152" viewBox="0 0 192 152" xmlns="http://www.w3.org/2000/svg"><title>marketing &amp; performance image</title><g transform="translate(0 -2)" fill="none"><path d="M.183 142.316c14.936-.51 29.873-.628 44.822-.746l44.822-.118c29.872.118 59.758.053 89.63.68a.38.38 0 0 1 0 .76c-29.872.64-59.758.575-89.63.68l-44.822-.118c-14.936-.13-29.873-.235-44.822-.746-.105-.013-.183-.104-.17-.196 0-.118.079-.196.17-.196z" fill="#F6F6F6"/><ellipse fill="#FFF" cx="44.769" cy="32.959" rx="1.373" ry="1.374"/><path d="M181.968 64.936c-.719-.013-1.059-.117-1.778-.353-2.97-.994-4.408-3.559-4.29-6.45.026-.825-1.387-1.374-1.099-2.212.366-1.085 2.302-1.02 3.283-3.114 1.099-2.355 4.002-2.957 6.736-2.04a7.292 7.292 0 0 1 4.59 9.21" fill="#FFF"/><path d="M181.968 65.407c-.81-.013-1.19-.13-1.922-.379-3.021-1.007-4.735-3.598-4.604-6.908.013-.184-.222-.445-.445-.68-.366-.393-.863-.943-.628-1.662.21-.642.772-.956 1.36-1.283.68-.38 1.452-.81 1.95-1.87 1.124-2.408 4.132-3.35 7.298-2.29a7.754 7.754 0 0 1 4.891 9.813.472.472 0 1 1-.902-.275c0-.013 0-.013.013-.026 1.19-3.572-.733-7.432-4.303-8.623-2.21-.745-5.088-.497-6.16 1.793-.628 1.321-1.61 1.884-2.329 2.29-.51.287-.837.484-.928.772-.066.183.118.392.431.732.34.367.72.785.694 1.361-.118 2.878 1.373 5.116 3.976 5.992.706.236.98.315 1.635.328a.451.451 0 0 1 .431.497.49.49 0 0 1-.458.418z" fill="#204A69"/><path d="M182.753 55.83c-1.06 2.656-.798 7.078 1.949 8.138 2.747 1.06 4.695-3.99 4.695-3.99l-6.644-4.148z" fill="#4E748F"/><path d="M190.417 94.35c2.38 18.435.38 57.831.38 57.831h-9.012l-.798-33.024" fill="#204A69"/><path d="M191.124 152.521h-9.679l-.798-33.364.68-.013.785 32.697h8.358c.183-3.82 1.844-40.142-.393-57.452l.68-.092c2.368 18.266.406 57.505.38 57.897l-.013.327z" fill="#204A69"/><path d="M190.797 151.252c-2.747.092-11.052.615-12.281 1.06-1.23.445-1.321.615.183.968 1.504.354 12.11 0 12.11 0l-.012-2.028z" fill="#204A69"/><path d="M182.557 153.778c-1.844 0-3.414-.04-3.95-.17-.955-.223-1.36-.38-1.386-.772-.026-.393.418-.59 1.164-.864 1.334-.471 9.914-.994 12.386-1.086l.353-.013v2.721l-.327.013c-.275.027-4.748.17-8.24.17zm-4.355-.982c.13.04.314.092.575.144 1.125.262 7.952.118 11.693 0v-1.347c-3.205.117-10.738.64-11.824 1.033-.196.079-.34.118-.444.17z" fill="#204A69"/><path d="M175.69 93.944s-.98 13.974-1.451 28.392c-.393 12.05 1.046 24.769.928 29.845h9.81c-.131-29.452 5.715-41.646 5.454-57.831" fill="#6F93AD"/><path d="M191.15 73.978c1.072 10.1-.733 20.358-.733 20.358l-14.87-.392.222-9.107 3.453-1.858-4.199-8.138 2.786-2.918 4.225-4.37c4.342-1.007 8.632 1.99 9.116 6.425z" fill="#6F93AD"/><path fill="#BBC9D5" d="M180.595 82.273l-.667 48.28h-6.226l.93-45.362z"/><path d="M182.322 80.284c-5.834 5.037-11.536 6.503-13.917 4.514-3.557-2.97 2.76-14.733 3.179-16.447 1.451-5.966 4.773-5.966 5.571-5.299.798.668-.798 4.37-.798 4.37l-1.451 7.956" fill="#FFF"/><path d="M171.165 86.107c-1.242 0-2.289-.314-3.073-.969-3.1-2.59.34-10.559 2.184-14.824.405-.955.771-1.766.837-2.08 1.033-4.213 2.956-5.43 4.015-5.784 1.007-.327 1.883-.117 2.302.236.942.785-.118 3.637-.64 4.867l-1.453 7.903a.478.478 0 0 1-.536.38.484.484 0 0 1-.38-.55l1.453-7.955c0-.04.013-.066.026-.105.732-1.714 1.177-3.533.928-3.833-.17-.144-.706-.288-1.412-.053-.876.288-2.485 1.335-3.4 5.116-.092.393-.432 1.165-.89 2.237-1.622 3.769-5.01 11.606-2.446 13.739 2.001 1.661 7.35.654 13.315-4.501a.459.459 0 0 1 .654.052.459.459 0 0 1-.053.654c-4.041 3.507-8.318 5.47-11.43 5.47z" fill="#204A69"/><path d="M172.905 77.837a.469.469 0 0 1-.471-.47.47.47 0 0 1 .144-.34l5.44-5.182a.458.458 0 0 1 .654.04.467.467 0 0 1-.013.64l-5.44 5.182a.457.457 0 0 1-.314.13z" fill="#204A69"/><path d="M184.963 151.252c-2.746.092-11.051.615-12.28 1.06-1.23.445-1.322 1.152.182 1.505s12.112 0 12.112 0l-.014-2.565z" fill="#6F93AD"/><path d="M181.524 68.011a.481.481 0 0 1-.445-.314l-.798-2.433a.464.464 0 0 1 .301-.59.382.382 0 0 1 .118-.025l1.425-.092a.446.446 0 0 1 .393.17.46.46 0 0 1 .091.406l-.614 2.512a.46.46 0 0 1-.432.353l-.04.013zm-.17-2.473l.104.314.079-.327-.183.013z" fill="#204A69"/><path d="M186.128 95.357c-2.747 0-5.978-.262-8.24-1.256a.46.46 0 0 1-.196-.628.466.466 0 0 1 .575-.223c4.342 1.91 12.935.903 13.014.89a.46.46 0 0 1 .497.432.47.47 0 0 1-.393.497c-1.74.196-3.505.301-5.257.288z" fill="#BBC9D5"/><path d="M174.932 107.748c-.693 0-1.386-.053-2.067-.17a.467.467 0 1 1 .17-.916c1.282.235 2.93.209 4.918-.092a.467.467 0 0 1 .523.393.468.468 0 0 1-.392.523 21.34 21.34 0 0 1-3.152.262z" fill="#FFF"/><path d="M186.834 68.548a5.315 5.315 0 0 1-1.635-.301c-.955-.327-.968-.942-.916-1.204.17-1.007 1.988-2.002 3.218-2.002.745 0 1.255.38 1.36 1.008.183 1.138-.21 1.74-.562 2.04-.353.302-.864.459-1.465.459zm-1.635-1.361c.078.078.183.13.3.157.982.34 1.806.34 2.185.013.262-.222.34-.615.248-1.178-.013-.065-.052-.274-.601-.222-1.007.13-2.132.955-2.132 1.23z" fill="#BBC9D5"/><path d="M179.928 69.738a.469.469 0 0 1-.47-.47.52.52 0 0 1 .13-.328c1.556-1.557 4.512-1.976 4.643-1.989a.47.47 0 0 1 .51.42.46.46 0 0 1-.38.496c-.025 0-2.785.393-4.106 1.727a.425.425 0 0 1-.327.144zm9.94-8.622a.471.471 0 0 1-.261-.079l-14.584-9.944a.474.474 0 0 1-.078-.654.465.465 0 0 1 .602-.118l14.583 9.944a.476.476 0 0 1 .117.655.458.458 0 0 1-.379.196z" fill="#BBC9D5"/><path d="M177.456 60.907c-.392 0-.772-.066-1.138-.197a.45.45 0 0 1-.222-.615.46.46 0 0 1 .575-.248c.314.104.654.157.981.13a.478.478 0 0 1 .497.445.461.461 0 0 1-.405.485c-.118-.014-.196 0-.288 0zm.837-3.507a.425.425 0 0 1-.34-.484l.13-.694a.425.425 0 0 1 .485-.34c.222.04.38.262.34.484l-.13.694a.425.425 0 0 1-.485.34z" fill="#204A69"/><path d="M80.567 112.353a63.189 63.189 0 0 1-4.172.275c-1.4.052-2.773.092-4.173.105-2.772.013-5.558-.053-8.331-.38a.777.777 0 0 1-.68-.863.791.791 0 0 1 .68-.68c2.773-.328 5.559-.393 8.331-.38 1.387.013 2.773.026 4.173.105 1.399.078 2.772.13 4.172.274a.765.765 0 0 1 .68.85.779.779 0 0 1-.68.694zm42.31-99.74c4.63-.157 9.26-.235 13.89-.288.602 0 1.125-.039 1.779-.013a8.818 8.818 0 0 1 1.936.249 9.736 9.736 0 0 1 7.39 8.23c.143 1.373.065 2.433.078 3.61l-.013 3.468-.053 6.948c-.065 4.632-.143 9.263-.313 13.895a.754.754 0 0 1-.798.733.758.758 0 0 1-.733-.733c-.17-4.632-.248-9.263-.314-13.895l-.052-6.948-.013-3.467c-.026-1.125.04-2.395-.065-3.323a7.526 7.526 0 0 0-5.637-6.386 8.205 8.205 0 0 0-1.491-.222c-.497-.04-1.138-.026-1.7-.04-4.63-.052-9.26-.13-13.89-.287a.754.754 0 0 1-.733-.798.767.767 0 0 1 .732-.733zm-58.973 0c3.204-.144 6.409-.222 9.626-.275 3.205-.078 6.409-.065 9.626-.091 3.218-.026 6.41.026 9.627.052 3.204.079 6.408.144 9.626.314.431.013.758.38.732.798a.758.758 0 0 1-.732.733c-3.205.17-6.409.249-9.626.314-3.205.026-6.41.078-9.627.052-3.217-.026-6.408-.013-9.626-.091a341.346 341.346 0 0 1-9.626-.275.754.754 0 0 1-.732-.798.767.767 0 0 1 .732-.733z" fill="#CCCED0"/><path d="M63.132 111.581c-.143-4.71-.222-9.407-.274-14.117-.079-4.71-.066-9.408-.092-14.118-.026-4.71.026-9.408.053-14.118.078-4.71.143-9.407.313-14.118a.754.754 0 0 1 .798-.732c.406.013.72.34.733.732.17 4.71.248 9.408.314 14.118.026 4.71.078 9.408.052 14.118-.026 4.71-.013 9.407-.092 14.118a722.49 722.49 0 0 1-.274 14.117.754.754 0 0 1-.798.733.758.758 0 0 1-.733-.733zm53.258-75.704a92.23 92.23 0 0 1 5.023-.275 214.35 214.35 0 0 1 5.022-.105c3.348-.013 6.696.04 10.045.38a.765.765 0 0 1 .693.837.768.768 0 0 1-.693.693c-3.349.328-6.697.393-10.045.38-1.674-.013-3.348-.026-5.022-.105-1.675-.078-3.349-.13-5.023-.275a.765.765 0 0 1-.693-.837.756.756 0 0 1 .693-.693zm-5.27 12.063a92.23 92.23 0 0 1 5.022-.275 214.35 214.35 0 0 1 5.022-.104c3.348-.013 6.696.052 10.045.38a.764.764 0 0 1 .693.837.768.768 0 0 1-.693.693c-3.349.327-6.697.393-10.045.38-1.674-.014-3.348-.027-5.022-.105-1.674-.079-3.349-.131-5.023-.275a.765.765 0 0 1-.693-.837c.026-.354.327-.655.693-.694zM76.905 72.224c2.066-.144 4.133-.222 6.2-.274 2.066-.079 4.132-.066 6.199-.092 2.066-.026 4.133.013 6.199.052 2.066.079 4.133.144 6.2.314.431.04.732.419.693.838a.768.768 0 0 1-.694.693c-2.066.17-4.133.249-6.199.314-2.066.052-4.133.079-6.2.052-2.066-.026-4.132-.013-6.199-.091-2.066-.052-4.133-.13-6.2-.275a.775.775 0 0 1-.719-.824.783.783 0 0 1 .72-.707zM72.876 84.3c1.753-.143 3.505-.221 5.258-.274 1.753-.052 3.505-.091 5.258-.105 3.505-.013 7.01.04 10.528.38a.768.768 0 1 1 0 1.53c-3.505.328-7.01.393-10.528.38-1.753-.013-3.505-.026-5.258-.104-1.753-.079-3.505-.131-5.258-.275a.775.775 0 0 1-.72-.825.796.796 0 0 1 .72-.706zm0 12.078c1.269-.249 2.55-.38 3.846-.38 1.281-.013 2.563.052 3.845.38.431.104.68.55.575.968a.824.824 0 0 1-.575.575c-1.282.328-2.564.393-3.845.38-1.295 0-2.577-.13-3.846-.38a.774.774 0 0 1-.614-.928.78.78 0 0 1 .614-.615z" fill="#CCCED0"/><path fill="#069e08" d="M89.814 97.267h16.623v21.314H89.814zm25.046-27.79h16.623v49.105H114.86zm25.046-11.423h16.623v60.527h-16.623z"/><path fill="#204A69" d="M89.814 106.884h16.623v11.697H89.814zm25.046-14.641h16.623v26.338H114.86zm25.046-10.258h16.623v36.596h-16.623z"/><path d="M95.712 37.525a186.18 186.18 0 0 1 3.623-6.28c1.216-2.094 2.511-4.122 3.767-6.189 1.255-2.067 2.576-4.082 3.897-6.11a134.092 134.092 0 0 1 4.12-5.967.776.776 0 0 1 1.073-.222.76.76 0 0 1 .235 1.047c-1.138 2.132-2.367 4.226-3.583 6.306a165.945 165.945 0 0 1-3.806 6.163c-1.308 2.028-2.577 4.082-3.937 6.084a201.953 201.953 0 0 1-4.094 5.993.768.768 0 0 1-1.06.248.792.792 0 0 1-.235-1.073zm-20.625-5.547a46.624 46.624 0 0 1 5.1 3.166c1.635 1.151 3.231 2.355 4.657 3.781.3.314.287.811-.04 1.112a.782.782 0 0 1-.863.144c-1.818-.89-3.479-1.988-5.1-3.166a46.256 46.256 0 0 1-4.657-3.781.77.77 0 0 1-.026-1.1.793.793 0 0 1 .929-.156zM54.67 45.062a60.585 60.585 0 0 1 3.4-5.94c1.23-1.924 2.512-3.795 4.03-5.535a.77.77 0 0 1 1.098-.066c.261.223.34.59.196.903-.955 2.094-2.145 4.03-3.4 5.94a62.273 62.273 0 0 1-4.029 5.535.783.783 0 0 1-1.099.092.76.76 0 0 1-.196-.93z" fill="#46799A"/><ellipse fill="#BBC9D5" cx="115.383" cy="7.353" rx="3.231" ry="3.232"/><ellipse fill="#069e08" transform="rotate(-51.77 115.381 6.729)" cx="115.381" cy="6.729" rx="4.748" ry="4.749"/><ellipse fill="#069e08" transform="rotate(-51.77 91.589 44.353)" cx="91.589" cy="44.353" rx="4.748" ry="4.749"/><ellipse fill="#069e08" transform="rotate(-51.77 68.215 27.09)" cx="68.215" cy="27.089" rx="4.748" ry="4.749"/><ellipse fill="#069e08" transform="rotate(-51.77 51.33 51.8)" cx="51.331" cy="51.8" rx="4.748" ry="4.749"/><path d="M28.028 139.346c1.164.405 4.905 1.125 6.03 1.491.928.301.706 1.662-.262 1.662H23.738a1.91 1.91 0 0 1-1.91-1.897c0-.092 0-.183.027-.288l.157-1.138 6.016.17z" fill="#6F93AD"/><path fill="#CCCED0" d="M25.766 69.607h5.663l.928-12.848h-6.591z"/><path d="M19.867 67.815c-2.825-.353-10.437 9.198-11.85 12.914-1.412 3.716 7.782 5.835 7.782 5.835" fill="#204A69"/><path d="M15.8 87.022c-.04 0-.066 0-.105-.013-.262-.065-6.5-1.53-7.965-4.278a2.489 2.489 0 0 1-.144-2.172c1.308-3.428 9.064-13.634 12.333-13.215.262.026.432.262.406.523a.488.488 0 0 1-.523.406c-2.394-.301-9.914 8.832-11.353 12.613a1.64 1.64 0 0 0 .092 1.4c1.059 1.976 5.663 3.428 7.35 3.807a.47.47 0 0 1 .327.576.457.457 0 0 1-.419.353z" fill="#204A69"/><path d="M9.953 113.923s-5.35 10.206-4.578 19.862l.89 2.565 16.898-23.303" fill="#CCCED0"/><path d="M6.252 136.82h-.066a.452.452 0 0 1-.366-.313l-.89-2.565a.382.382 0 0 1-.025-.118c-.772-9.682 4.407-19.704 4.63-20.123a.449.449 0 0 1 .614-.222.45.45 0 0 1 .223.614c-.013.014-.013.027-.026.04-.053.104-5.258 10.166-4.539 19.547l.576 1.662L22.77 112.76a.46.46 0 0 1 .654-.066.482.482 0 0 1 .104.615L6.63 136.639a.483.483 0 0 1-.38.183z" fill="#204A69"/><path d="M30.291 112.118s-1.19 24.14-2.524 28.248l-5.036-.13c-.261-8.492-3.178-19.365-3.453-30.238" fill="#CCCED0"/><path d="M27.78 140.837l-5.049-.13a.482.482 0 0 1-.457-.458c-.118-3.9-.811-8.322-1.544-13.02-.863-5.586-1.765-11.356-1.91-17.23 0-.263.197-.472.458-.472.249 0 .458.196.484.458.144 5.822 1.034 11.553 1.897 17.114.706 4.54 1.373 8.845 1.53 12.692l4.238.117c1.255-4.84 2.393-27.568 2.406-27.803a.466.466 0 0 1 .484-.445.466.466 0 0 1 .445.484c-.052.994-1.216 24.258-2.537 28.38a.463.463 0 0 1-.445.313zm4.525-77.877c-1.216.302-2.59-.104-2.59-.104-.078 0-.117.092-.052.13l2.132 2.264.562-2.433" fill="#204A69"/><path d="M32.017 66.088l-2.825-3.01.053-.314a.479.479 0 0 1 .484-.327l.091.013c.013 0 1.282.367 2.38.105l.053.236.484.117-.72 3.18zm-1.373-2.643l.929.981.222-.955c-.38.026-.772.013-1.15-.026z" fill="#204A69"/><path d="M30.853 48.333c2.865-.144 5.507 1.23 5.925 3.794.38 2.277 2.263 2.735 2.315 3.886.04.89-1.465 1.034-1.66 1.832-.668 2.813-2.747 4.893-5.873 5.05-.759.04-1.112.04-1.805-.144" fill="#CCCED0"/><path d="M30.919 63.366a4.36 4.36 0 0 1-1.295-.183.457.457 0 0 1-.327-.562.475.475 0 0 1 .562-.34h.013c.641.17.93.156 1.662.13 2.746-.13 4.773-1.884 5.44-4.684.131-.563.615-.85 1.034-1.112.379-.236.614-.393.614-.576-.013-.3-.274-.575-.693-.994-.588-.589-1.386-1.387-1.622-2.84-.405-2.498-3.112-3.519-5.44-3.401a.442.442 0 0 1-.484-.406v-.04a.458.458 0 0 1 .444-.483c3.335-.157 5.977 1.557 6.409 4.187.183 1.151.81 1.78 1.36 2.329.471.484.929.929.955 1.609.04.746-.589 1.138-1.046 1.426-.288.17-.576.353-.615.537-.759 3.18-3.178 5.246-6.304 5.403-.262-.013-.471 0-.667 0z" fill="#204A69"/><path d="M36.713 60.187a.362.362 0 0 1-.17-.04c-.053-.012-1.151-.47-1.609-1.53a.47.47 0 0 1 .249-.615.47.47 0 0 1 .614.248c.301.707 1.086 1.034 1.099 1.034a.469.469 0 0 1 .261.602.482.482 0 0 1-.444.3zm-.929-6.176c.236 0 .419.183.419.419v.706a.413.413 0 0 1-.419.42.413.413 0 0 1-.418-.42v-.706c0-.236.183-.419.418-.419z" fill="#204A69"/><path d="M32.017 66.088c-7.808-2.473-11.143-.68-14.125 3.847-4.84 7.366-2.08 9.198-3.845 15.923-1.766 6.725-5.899 9.617-5.101 28.785H31.35s2.12-22.086 1.452-28.523M8.841 133.667s-5.205 9.146-6.945 8.767c-1.046-.236.615-4.671 1.164-6.765.393-1.452.707-2.407 2.198-2.25l3.583.248z" fill="#6F93AD"/><path d="M36.569 74.174a11.111 11.111 0 0 0 2.72-3.219c1.792-3.153 6.318-8.557 7.442-7.13 1.125 1.425-.863 6.397-2.563 7.248-1.243 3.977-7.651 17.454-11.497 16.394-3.845-1.06-6.892-21.497-1.595-21.235 5.297.261 5.702 12.011 5.702 12.011" fill="#CCCED0"/><path d="M33.103 88.004a1.99 1.99 0 0 1-.55-.079c-3.295-.916-5.44-12.678-4.55-18.16.548-3.402 1.974-4.057 3.112-3.991 3.322.17 4.852 4.265 5.559 7.706a11.468 11.468 0 0 0 2.21-2.747c1.426-2.5 5.258-7.445 7.246-7.602.366-.026.732.118.968.405.588.746.47 1.99.261 2.918-.405 1.832-1.57 4.161-2.799 4.946-1.255 3.86-7.18 16.59-11.457 16.604zm-2.106-21.301c-1.281 0-1.83 1.74-2.08 3.205-.928 5.731 1.505 16.447 3.885 17.114 3.257.916 9.56-11.697 10.921-16.08a.446.446 0 0 1 .236-.275c.902-.458 2.066-2.512 2.485-4.41.222-.993.196-1.792-.079-2.132-.026-.026-.052-.065-.17-.052-1.295.105-4.813 4.16-6.5 7.13a11.788 11.788 0 0 1-2.825 3.35c.209 1.217.34 2.46.392 3.69a.45.45 0 0 1-.47.458.459.459 0 0 1-.458-.432c0-.118-.445-11.318-5.258-11.553l-.079-.013zm-12.386 3.232c2.499 1.544 6.174.091 8.24-3.245 1.125-1.819 1.517-3.808 1.256-5.509 2.498-.732 3.793-3.807 3.309-6.045 2.76-.183 3.91-3.493 3.557-6.437 0 0-2.472-1.505-5.127-.706-1.608.484-2.772.81-4.054 3.087-1.413.367-2.76 1.243-3.558 2.395-.562.824-.98 1.989-1.164 3.18a3.419 3.419 0 0 1-1.268 2.171 9.245 9.245 0 0 0-2.001 2.277c-2.028 3.35-1.675 7.3.81 8.832z" fill="#204A69"/></g></svg>
