<svg viewBox="0 0 151 110" fill="none" xmlns="http://www.w3.org/2000/svg"><path d="M21.22 26.84v-9.69a6.1 6.1 0 016.12-6.11h90.68a6.13 6.13 0 016.12 6.11v9.7H21.22z" fill="#5198D9"/><path d="M124.14 98V82.91a15.07 15.07 0 01-15.1 15.1H21.22" fill="#CCCED0"/><path d="M21.22 26.84h102.93v36.99H21.22V26.84zM33.26 73.55H64.6V98H33.26V73.55z" fill="#C6DEF6"/><path d="M96.2 49.9H33.27v-7.06H89.8a6.43 6.43 0 016.43 6.4l-.02.66z" fill="#fff"/><path d="M74.08 73.55h38.26V98H74.08V73.55z" fill="#C6DEF6"/><path d="M30.85 98.26l-9.47.06h-.32V98c0-5.65-.13-11.3-.26-16.96l-.36-16.96-.19-16.97-.08-16.96V17.43c-.03-.82.06-1.64.28-2.43a7.2 7.2 0 015.3-4.88c.76-.15 1.54-.21 2.32-.18H72.7l33.98-.12h10.63c.8-.03 1.6.04 2.39.2a7.27 7.27 0 014.15 2.72 7.15 7.15 0 011.52 4.7v12.72l-.1 67.85v1.04H100.9c-7.78 0-15.58-.07-23.33-.15l-23.33-.41c-7.85-.18-15.62-.15-23.4-.23zm0-.52c7.78-.07 15.57-.06 23.33-.23l23.32-.42c7.78-.06 15.57-.15 23.33-.14h23.3l-1.03 1.03-.1-67.85v-12.7a5.68 5.68 0 00-.22-1.73 5.17 5.17 0 00-.8-1.5 4.85 4.85 0 00-2.8-1.82 7.52 7.52 0 00-1.83-.12h-10.68l-33.98-.07H28.07a7.36 7.36 0 00-1.87.14 4.96 4.96 0 00-3.87 5.1V47.1l-.15 16.97-.29 16.96c-.09 5.65-.18 11.3-.18 16.96l-.33-.33 9.47.07z" fill="#5198D9"/><path d="M129.25 27.1c-9.42.83-18.86.77-28.29.82l-28.28.14-28.3-.14c-9.43-.05-18.86 0-28.29-.83v-.51c9.43-.84 18.86-.78 28.29-.83l28.3-.13 28.28.13c9.43 0 18.87 0 28.3.83v.52z" fill="#2271B1"/><path d="M133.68 70.88c-.06-.34-.34-.62-.68-.62-1.43 0-2.86-.13-4.3-.34-1.42-.2-2.85-.54-4.22-1.02a20.24 20.24 0 01-3.88-1.85 12.34 12.34 0 01-3.14-2.8l-.07-.07c-.27-.2-.68-.2-.88.06-.82.96-1.91 1.92-2.94 2.74a17.84 17.84 0 01-7.29 3.28c-1.3.28-2.66.35-4.02.21a.6.6 0 00-.55.41c-.47 3.28-.6 6.5-.4 9.78.2 3.22.81 6.5 1.97 9.51a21.62 21.62 0 005.32 8.14 19.33 19.33 0 008.45 4.58h.07c1.7-.06 3.34-.54 4.84-1.23 1.5-.68 3-1.57 4.23-2.73a21.35 21.35 0 005.86-8.21c1.36-3.15 1.9-6.5 2.11-9.85.2-3.35 0-6.7-.48-9.99z" fill="#2FB41F"/><path d="M126.8 77.58c-.07-.06-.2-.13-.34-.06a35.78 35.78 0 00-2.86 2.66l-2.66 2.88c-1.57 1.78-3.14 3.49-4.7 5.26l-1.98-1.57-1.3-1.03c-.48-.34-.82-.75-1.43-.82h-.27c-.28.14-.41.41-.28.69.2.61.69.82 1.1 1.23l1.22 1.03c.82.68 1.64 1.36 2.52 2.05.35.27.75.2 1.03-.07 1.7-1.98 3.4-3.9 5.1-5.88.83-1.03 1.71-1.99 2.53-3.01a27.08 27.08 0 002.25-3.22c.14.07.07-.07.07-.14z" fill="#fff"/></svg>