<svg enable-background="new 0 0 320.2 174.2" viewBox="0 0 320.2 174.2" xmlns="http://www.w3.org/2000/svg"><path d="m178.5 129.5h-63.7v-26.5h42.1c11.9 0 21.6 9.7 21.6 21.6z" fill="#fff"/><path d="m178.6 129.6-15.9.2-15.9.1c-5.3 0-10.6.1-16 .1h-16c-.3 0-.5-.2-.5-.5v-26.5c0-.3.2-.5.5-.5h40.5c1.7 0 3.4 0 5.1.3s3.4.8 5 1.4c3.2 1.3 6 3.4 8.3 6.1 2.2 2.6 3.8 5.8 4.6 9.1.4 1.7.6 3.4.6 5.1-.1 1.7-.2 3.5-.3 5.1zm-.3-.1-.2-5c0-1.7-.2-3.3-.6-4.9-.8-3.2-2.4-6.2-4.5-8.7-2.2-2.5-4.9-4.5-8-5.7-1.5-.6-3.1-1.1-4.8-1.3-1.6-.3-3.3-.3-5-.3h-40.5l.5-.5v26.6l-.5-.5h15.8c5.3 0 10.6.1 15.9.1l15.9.1z" fill="#ccced0"/><path d="m178.5 92.3h-63.7v-38.7h42.1c11.9 0 21.6 9.7 21.6 21.6z" fill="#069e08"/><path d="m141.7 66.3 9.9 6.7-9.9 6.6z" fill="#fff"/><path d="m77.1 121.3h27.5v-67.7h-8.9c-10.3 0-18.6 8.3-18.6 18.6z" fill="#e1e2e2"/><path d="m66.7 83.2-.4-36.3-.1-18.2c0-1.6.5-3.3 1.4-4.7s2.2-2.5 3.8-3.2c.8-.3 1.6-.5 2.4-.6h.6.6 1.1 4.5l36.4-.2 36.3-.1h18.2 9.1 4.5c1.6-.1 3.5.3 4.9 1.3 1.5.9 2.7 2.3 3.4 3.8.3.8.6 1.6.7 2.5.1.4.1.9.1 1.3v1.1 9.1 18.2l-.1 72.6c0 .6-.5 1.1-1.1 1.1l-22.1-.1-22.1-.2-22.1-.2c-7.4 0-14.7-.2-22.1-.3-.2 0-.4-.2-.4-.4s.2-.4.4-.4c7.4-.1 14.7-.3 22.1-.3l22.1-.2 22.1-.2 22.1-.1-1.1 1.1-.1-72.6v-18.2-9.1-1.1c0-.4 0-.7-.1-1-.1-.6-.3-1.3-.5-1.9-.5-1.2-1.4-2.2-2.5-2.9-.5-.3-1.1-.6-1.8-.8-.3-.1-.6-.1-1-.2-.3 0-.6 0-1 0h-4.5-9.1-18.2l-36.1.2-36.3-.1h-4.5c-.7 0-1.6 0-2.2 0-.7.1-1.3.2-2 .5-1.3.5-2.3 1.4-3.1 2.5s-1.2 2.5-1.2 3.9l-.1 18.2-.4 36.3c0 .1-.1.2-.2.2-.2-.1-.3-.2-.3-.3z" fill="#84a5bc"/><path d="m65.7 41.1v-6.9-5.7c0-5 3.4-9.1 7.7-9.1h113.2c4.2 0 7.7 4.1 7.7 9.1v12.7h-128.6z" fill="#6f93ad"/><path d="m197.7 41c-11.3.8-22.5.7-33.8.8l-33.7.2-33.8-.1c-11.3 0-22.5 0-33.8-.8v-.5c11.3-.8 22.5-.7 33.8-.8l33.8-.1 33.8.1c11.3 0 22.5 0 33.8.8v.4z" fill="#4e748e"/><path d="m120 125.6c1.8-2 4-3.6 6.5-4.8 2.4-1.2 5.1-2 7.9-2s5.4.6 8 1.4 5.1 1.6 7.6 2.3c5.1 1.3 10.5 2 15.4-.2 2.4-1 4.7-2.4 6.9-3.9s4.2-3.2 6.1-5.1c.1-.1.2-.1.3 0s.1.2 0 .3c-1.8 2-3.8 3.8-6 5.4-2.1 1.6-4.5 3-6.9 4.1-2.5 1.1-5.2 1.8-8 1.6-2.7-.1-5.4-.5-8-1.2s-5.1-1.5-7.7-2.3c-2.5-.8-5.1-1.4-7.7-1.4s-5.2.6-7.6 1.7-4.7 2.5-6.7 4.2h-.1c-.1 0-.1 0-0-.1z" fill="#ccced0"/><path d="m.2 172.8c26.6-.6 53.3-.7 79.9-.8l79.9-.1c53.3.1 106.6.1 159.8.7.2 0 .4.2.4.4s-.2.4-.4.4c-53.3.7-106.6.6-159.8.7l-79.9-.1c-26.6-.1-53.3-.3-79.9-.8-.1 0-.2-.1-.2-.2 0-.1.1-.2.2-.2z" fill="#e8eef3"/><path d="m211.8 148.3s.2 20.1-1.1 20.8c-.6.3-1.2.6-1.8 1-1 .7-.6 2.2.6 2.3 1 .1 3.3.2 4.5.1 1.9-.2 2.4-1.6 2.7-3.6l2.9-20.6" fill="#204a69"/><path d="m226 148.8s8.1 18.4 7.1 19.6c-.4.5-.9 1-1.3 1.6-.6 1 .3 2.2 1.4 1.9 1-.3 3.1-1.1 4.2-1.7 1.7-.9 1.6-2.5 1.1-4.3l-5.4-20.1" fill="#204a69"/><path d="m224.2 92.8c3.4-1.2 9.6-.1 13.4 9.9 3.3 8.7 2.9 19.4-4.1 21.3-4.1 1.1-9.3-31.2-9.3-31.2z" fill="#84a5bc"/><path d="m211.8 149.6h27.2c-3.1-20.6-8.1-41.3-8.1-41.3l-6.6-15.4s-.5-1.4-3.9.3c-7.1 3.4-8.3 41.1-8.6 56.4z" fill="#bbc9d5"/><path d="m284.3 93.8-3.3 5-61.5-51.8 8-7.5 55.8 47c2.1 1.8 2.6 5 1 7.3z" fill="#bbc9d5"/><circle cx="206.6" cy="25.7" r="21.7" style="fill:none;stroke:#bbc9d5;stroke-width:8;stroke-linecap:round;stroke-linejoin:round;stroke-miterlimit:10"/><path d="m244.5 62.7 6.2-18.3 9.4 6-9 15.2z" fill="#fff"/><path d="m271.9 116c17.8 16.3 19.1 22.9 23.8 37.1l-12.1 11.7-12.1-18.2" fill="#658daa"/><path d="m253.8 88.3c-8.2 23.8-8.8 30.4-1.1 43.9z" fill="#658daa"/><path d="m250.7 44.4 11.6 8.2-11.1 12.9 1.7 19.2h24.1s3.5-4.8 3.8-11-4.3-38.6-15.5-39.9c-11.4-1.3-14.6 10.6-14.6 10.6z" fill="#204a69"/><path d="m58.6 155.7 3.9 10.3-7.2 4.3s-6.5-8-16.9-30.5" fill="#fff"/><path d="m59.1 155.5 4.3 10.2c.2.4 0 .8-.4 1-1.2.7-2.4 1.4-3.6 2.1s-2.4 1.4-3.6 2.2c-.3.2-.7.1-1-.2-1.8-2.4-3.3-4.9-4.8-7.4s-2.9-5.1-4.3-7.7-2.7-5.2-4-7.8-2.5-5.3-3.7-7.9c-.1-.3 0-.5.2-.7.2-.1.5 0 .7.2 1.2 2.6 2.5 5.2 3.8 7.8s2.7 5.2 4.1 7.7c1.4 2.6 2.8 5.1 4.4 7.5 1.5 2.5 3.1 4.9 4.8 7.2l-1-.2c1.2-.7 2.4-1.4 3.6-2.1s2.4-1.4 3.5-2.2l-.3 1-3.6-10.4c-.1-.3 0-.5.3-.6.2-.1.5.1.6.3z" fill="#204a69"/><path d="m54.1 168.8c3.4-1.9 13.9-7.4 15.7-7.7 1.8-.4 2.1-.2.5 1.3s-14.7 8.9-14.7 8.9z" fill="#204a69" stroke="#204a69" stroke-miterlimit="10" stroke-width=".7347"/><path d="m46.5 161.2-1.7 11.1h-9s-1.4-10.3 1.3-34.9" fill="#fff"/><path d="m47 161.3-1.4 11.1c-.1.4-.4.7-.8.7-1.5-.1-3-.1-4.5-.1s-3 0-4.5 0c-.4 0-.7-.3-.7-.7-.3-3-.3-5.9-.3-8.8s.1-5.9.3-8.8.4-5.8.6-8.7c.3-2.9.6-5.8.9-8.7 0-.3.3-.5.6-.4.3 0 .5.3.4.5-.3 2.9-.6 5.8-.8 8.7s-.4 5.8-.5 8.7-.2 5.8-.2 8.7.1 5.8.4 8.6l-.8-.7h4.5c1.5 0 3 0 4.5-.1l-.8.7 2.1-11c.1-.3.3-.5.6-.4.3.2.5.4.4.7z" fill="#204a69"/><path d="m52.7 112.9 8 46.7-13.8 3.5" fill="#204a69"/><path d="m36.5 86.7c-5.2 22.3-2 35.5-2.6 40.6-.7 5.1-4.3 26.2-3.5 33.6l16.6 2.2 9-65.5" fill="#6f93ad"/><path d="m59.3 51.9c.8.5 1.3.6 2.3.9 4 1 7.5-.9 9.4-4.2.5-.9 2.5-.6 2.8-1.7.4-1.5-1.9-2.8-1.5-5.8.4-3.4-2.4-6.2-6.1-7.1-5.2-1.3-10.4 1.9-11.7 7.1" fill="#fff"/><path d="m59.6 51.5c.4.2.8.4 1.3.5s1 .2 1.4.3c.9.1 1.9.1 2.8-.1 1.8-.4 3.3-1.5 4.4-3l.4-.6.2-.3c.1-.1.1-.1.3-.4.3-.4.7-.6 1-.7s.6-.2.8-.3.4-.1.6-.2c.1-.1.2-.1.1-.1 0 0 0-.1 0-.2s-.1-.2-.1-.4c-.3-.7-1-1.8-1.3-2.9-.1-.6-.2-1.2-.1-1.8l.1-.7c0-.2 0-.4 0-.6-.1-1.6-1.3-3.1-2.9-4.1-1.6-.9-3.4-1.4-5.3-1.3-3.7.2-7.2 2.9-8.2 6.6-.1.3-.4.4-.6.3-.3-.1-.4-.3-.4-.6.4-2.1 1.5-4.1 3.2-5.5 1.6-1.5 3.7-2.4 5.9-2.6s4.4.3 6.4 1.4c1 .6 1.9 1.3 2.6 2.2s1.2 2.1 1.3 3.3c0 .3.1.6 0 .9v.8c0 .4 0 .8.1 1.2.2.8.6 1.5 1.1 2.6.2.5.5 1.4 0 2.3-.3.5-.7.7-1 .9-.3.1-.6.2-.9.3-.5.1-.9.3-.8.3 0-.1-.1.1-.2.2l-.2.3c-.2.2-.3.4-.5.7-1.4 1.7-3.4 3-5.6 3.4-1.1.2-2.2.1-3.3-.1-.5-.1-1-.3-1.5-.4-.5-.2-1-.5-1.5-.8-.2-.2-.3-.5-.1-.7 0-.2.2-.2.5-.1z" fill="#204a69"/><path d="m255.3 31.5c-.5.3-1 .6-1.6.7-.6.2-1.1.3-1.6.4-1.1.2-2.3.2-3.5 0-2.3-.5-4.4-1.9-5.7-3.8-.2-.2-.3-.5-.5-.7l-.2-.4c-.1-.1-.2-.3-.2-.3s-.4-.2-.9-.4c-.3-.1-.6-.2-.9-.3-.3-.2-.8-.4-1-.9-.5-1-.1-1.9.1-2.4.6-1.1 1.1-1.8 1.3-2.7.1-.4.2-.9.2-1.3v-.8c0-.3 0-.6.1-.9.2-1.3.8-2.4 1.5-3.4.8-.9 1.8-1.7 2.8-2.2 2.1-1.1 4.5-1.5 6.8-1.2s4.5 1.4 6.1 3c1.7 1.6 2.7 3.7 3.1 6 0 .3-.1.5-.4.6-.3 0-.5-.1-.6-.4-.9-4-4.5-7.1-8.4-7.4-1.9-.2-4 .2-5.7 1.2-1.7.9-3 2.4-3.3 4.2 0 .2-.1.4 0 .7v.8c0 .6 0 1.3-.2 1.9-.3 1.2-1.1 2.3-1.5 3-.1.2-.2.4-.2.5v.2s0 0 .2.1c.1.1.4.2.6.2.3.1.5.2.9.3.3.1.7.4 1 .8.2.3.2.3.3.4h.1l.4.6c1.1 1.6 2.7 2.9 4.6 3.4.9.2 1.9.3 2.9.2.5 0 1-.1 1.5-.2s.9-.3 1.4-.5c.2-.1.5 0 .7.2.1.4 0 .6-.2.8z" fill="#204a69"/><path d="m35.4 170.2c3.9.1 15.7.9 17.5 1.5s1.9.9-.3 1.4c-2.1.5-17.2 0-17.2 0z" fill="#204a69" stroke="#204a69" stroke-miterlimit="10" stroke-width=".7347"/><path d="m67.4 49.4c.7.6 1.5.8 1.5.8" fill="none" stroke="#204a69" stroke-linecap="round" stroke-linejoin="round" stroke-miterlimit="10"/><path d="m67.7 45.4c-.3-.1-.4-.5-.3-.8l.4-.9c.1-.3.5-.4.8-.3.3.1.4.5.3.8l-.4.9c-.1.3-.5.5-.8.3z" fill="#204a69"/><path d="m57.8 86.3-1.9 11.3-25.7-5.4s6.9-39 21.2-39.1c4.6 0 9.3 3.5 8.5 10.9" fill="#658daa"/><path d="m58.4 67.7c2.5-6.1 5.5-12.5 10.3-13.8s.7 5.4-1.8 7.6c-.4 2.8 2.7 21-8.9 20.9-14.7-.1-13.6-24.4-7.5-25.9 5.4-1.3 6.2 7.3 8.6 15.2" fill="#fff"/><g fill="#204a69"><path d="m57.9 67.5c.9-2.2 1.8-4.4 2.9-6.6 1.1-2.1 2.5-4.2 4.4-5.9 1-.8 2.1-1.5 3.4-1.8.3-.1.7-.2 1-.2.4 0 .8 0 1.3.3s.7.9.8 1.3c0 .4 0 .8-.1 1.1-.3 1.3-1 2.4-1.6 3.5-.7 1-1.4 2-2.4 2.9l.3-.6c-.1.6 0 1.5 0 2.3v2.5c0 1.7 0 3.3-.2 5s-.4 3.3-1 5c-.5 1.6-1.3 3.2-2.6 4.5s-3.1 2.1-4.8 2.2c-1.8.2-3.5 0-5.2-.6-1.6-.4-3.1-1.4-4.3-2.7s-2.1-2.8-2.8-4.4c-1.3-3.2-1.7-6.6-1.5-10 .1-1.7.4-3.4.9-5 .3-.8.6-1.6 1.1-2.4.5-.7 1.1-1.5 2.1-1.9.2-.1.5-.2.7-.2s.5-.1.7-.1c.5-.1 1 0 1.5.1 1 .2 1.8.9 2.4 1.6 1.1 1.4 1.7 3.1 2.2 4.6 1 3.2 1.6 6.4 2.5 9.5.1.3-.1.5-.3.6-.3.1-.5-.1-.6-.3-1-3.1-1.7-6.3-2.7-9.4-.5-1.5-1.1-3-2-4.2-.5-.6-1-1-1.6-1.1-.3-.1-.6-.1-1 0-.2 0-.3.1-.5.1s-.3.1-.4.2c-1.1.6-1.9 2.1-2.4 3.5-.5 1.5-.8 3-.9 4.6-.2 3.2.2 6.4 1.4 9.3s3.3 5.4 6.2 6.3c2.8.9 6.4.8 8.4-1.3 1.1-1 1.7-2.4 2.2-3.9s.7-3.1.8-4.7.1-3.2.1-4.8l-.2-2.4c0-.8-.1-1.6 0-2.6 0-.2.1-.4.2-.5l.1-.1c.8-.7 1.6-1.6 2.2-2.5s1.3-1.9 1.5-2.9c.1-.2.1-.5.1-.6 0-.2 0-.2-.1-.2-.1-.1-.7-.1-1.2 0-1 .3-2 .8-2.9 1.5-1.7 1.4-3.1 3.4-4.2 5.4s-2.1 4.2-3 6.4c-.1.3-.4.4-.7.3-.1-.1-.3-.4-.2-.7z"/><path d="m53.5 44.3c0 3.1 13.5 1.3 17.4-8.4 0 0-8.1-4.4-12.4-1.5s-5 6.8-5 9.9z"/><path d="m60.9 52.6-1.8 2.8v-3.5"/><path d="m61.1 52.7c-.4 1-1 2-1.5 2.9-.1.2-.4.3-.7.2-.1-.1-.2-.3-.2-.4 0-.6 0-1.2 0-1.7 0-.6.1-1.2.2-1.7 0-.1.2-.2.3-.2s.2.1.2.2c.1.6.2 1.2.2 1.7 0 .6.1 1.2.1 1.7l-.9-.3c.6-.9 1.2-1.8 2-2.7.1-.1.3-.1.4 0-.1.1 0 .3-.1.3z"/><path d="m55.7 28.1c-5.7 3.1-1 9.8 4.4 7.2s1.4-10.3-4.4-7.2z"/><path d="m53 21.8c-4.6 2.5-1.1 8.8 3.2 6.7s1.5-9.2-3.2-6.7z"/></g><path d="m43.8 95.3c.1 1.5.1 4.5.5 7.5" fill="#fff"/><path d="m44.3 95.3c.2 1.3.3 2.5.4 3.7s.2 2.5.1 3.7c0 .3-.2.5-.5.5-.2 0-.4-.2-.5-.4-.4-1.2-.5-2.5-.6-3.8s0-2.5.1-3.8c0-.3.3-.5.6-.5.2.2.4.3.4.6z" fill="#204a69"/><path d="m262.3 52.7s-9.1 21.7-14.4 22.6-14.7-11.2-18.5-15c-7.1-.6-8.6-9.9-7-11.1 2.4-1.7 6 5.5 7.5 4.4s-2-4.2-.7-5.3c1.2-1 4.8 2.5 5.7 6.2.2.8.7 1.4 1.4 1.7 5.3 2 10.1 4.6 10.1 4.6" fill="#fff"/><path d="m262.7 52.9c-1.6 4-3.4 8-5.4 11.8-1 1.9-2.1 3.8-3.3 5.7-.6.9-1.2 1.8-1.9 2.7s-1.5 1.7-2.5 2.4c-.2.2-.6.3-.9.5-.3.1-.7.3-1 .3-.7.1-1.3 0-1.9-.2-1.2-.3-2.2-.9-3.2-1.5-1.9-1.2-3.6-2.7-5.2-4.2s-3.1-3.1-4.5-4.7c-1.5-1.6-2.9-3.3-4.3-4.8l.6.3c-1.2-.1-2.5-.5-3.5-1.1-1.1-.6-2-1.5-2.7-2.5s-1.3-2.1-1.6-3.2c-.4-1.1-.6-2.3-.6-3.5 0-.3 0-.6.1-1 .1-.3.2-.7.5-1.1.1-.1.2-.2.3-.3s.2-.1.3-.2c.2-.1.4-.2.7-.2.5-.1.9 0 1.3.1.7.3 1.2.6 1.7 1s.9.8 1.3 1.2c.8.8 1.5 1.7 2.2 2.2.2.1.3.2.4.2h-.1c-.1.1 0 0 0 0s0 0 0-.2c0-.1-.1-.4-.2-.6-.2-.4-.4-.9-.7-1.4-.1-.3-.3-.5-.4-.9-.1-.3-.2-.7-.1-1.3s.6-1 1.1-1.1 1 0 1.3.1c.7.3 1.2.6 1.6 1 .9.8 1.6 1.7 2.2 2.7.3.5.6 1 .8 1.6.1.3.2.6.3.8l.2.8c.1.4.4.7.7.9.1 0 .2.1.2.1l.4.2.8.3c1 .4 2 .9 3 1.3 2 .9 4 1.9 5.9 3 .2.1.3.4.2.7-.1.2-.4.3-.7.2-1.9-1-3.9-1.9-5.9-2.8-1-.4-2-.8-3-1.2l-.8-.3-.4-.1c-.2-.1-.3-.1-.5-.2-.6-.4-1.1-1-1.3-1.6l-.2-.8c-.1-.2-.2-.5-.3-.7-.2-.5-.4-.9-.7-1.4-.5-.9-1.2-1.7-1.9-2.3-.4-.3-.8-.6-1.1-.7-.2-.1-.3-.1-.3-.1s.1.6.3 1c.2.5.5.9.8 1.5.1.3.2.6.3 1s0 1-.3 1.4c-.2.2-.3.4-.6.5-.3.2-.7.2-.9.1-.5-.1-.8-.3-1.1-.5-1-.8-1.7-1.6-2.5-2.4-.7-.7-1.6-1.5-2.2-1.7-.2-.1-.3-.1-.3 0h-.1s0 0-.1 0-.1.2-.1.4-.1.4-.1.7c0 1.9.7 4 1.9 5.6s2.9 2.6 4.8 2.8c.2 0 .5.1.6.3 3 3.2 5.7 6.5 8.8 9.4 1.5 1.5 3.1 2.9 4.8 4s3.7 2 5 1c.8-.5 1.5-1.2 2.2-2s1.3-1.6 1.9-2.5c1.2-1.7 2.3-3.6 3.3-5.5 2.1-3.7 4-7.6 5.8-11.5.1-.3.4-.4.7-.2.1.1.2.4.1.7z" fill="#204a69"/><path d="m239 12.1c-.3 4.4 4.1 5.1 6.4 6.8 2.4 1.8 2.5 4 4.8 4.6s3.3-.5 6.1.1c2.6.5 3.5 2.3 6.5 1.8 2.4-.4 4.1-1.4 4.5-4.9s-1.4-4-2.1-7.3-.8-5.1-4.1-6.2c-3-1-4.4 0-6.9-.9s-3.4-2.1-6.2-1.9c-1.9.1-3 1-4.6 2.9-1.7 1.8-4.1 1.4-4.4 5z" fill="#204a69"/><path d="m245.2 27.2c-.9.5-1.5.8-1.5.8" fill="none" stroke="#204a69" stroke-linecap="round" stroke-linejoin="round" stroke-miterlimit="10"/><path d="m245.9 23.4c.3-.1.5-.4.5-.8l-.3-1c-.1-.3-.4-.5-.8-.5-.3.1-.5.4-.5.8l.3 1c.1.3.5.5.8.5z" fill="#204a69"/><path d="m253.9 84.8-1.2 85.6 15.2-2.1s6.3-22.1 5.3-34.3c-1.9-22.6 4.7-34 3.8-49.2" fill="#fff"/><path d="m254.4 84.8-.4 42.8-.2 21.4c0 7.1-.3 14.3-.4 21.4l-.9-.8 15.2-2.1-.6.5c1.8-6.7 3.4-13.6 4.4-20.5.5-3.4.9-6.9 1-10.4 0-1.7-.1-3.4-.2-5.2s-.2-3.5-.2-5.3c0-3.5.1-7.1.5-10.6s.9-7 1.5-10.5c1.2-6.9 2.6-13.8 2.2-20.8 0-.3.2-.5.5-.5s.5.2.5.5c.5 7.1-.9 14.1-2 21-.6 3.5-1.1 6.9-1.5 10.4s-.5 7-.5 10.4c0 1.7.1 3.5.2 5.2s.3 3.5.3 5.3c0 3.6-.4 7.1-.9 10.6-1 7-2.6 13.9-4.4 20.7-.1.3-.3.5-.6.5l-15.2 2.1c-.4.1-.8-.2-.8-.6v-.1c.1-7.1.1-14.3.2-21.4l.4-21.4.8-42.8c0-.3.2-.5.5-.5.4.2.6.4.6.7z" fill="#658daa"/><path d="m269.9 167.4c-5.4.2-21.7 1.2-24.2 2.1-2.4.9-2.6 1.2.3 1.9 3 .7 23.8 0 23.8 0v-4z" fill="#658daa"/><path d="m295.8 153.1c-4.1 3.5-16.7 14.4-18.1 16.6s-1.3 2.6 1.5 1.3c2.3-1.1 14.1-10.9 17.7-13.9.6-.5.7-1.3.3-2z" fill="#658daa"/><path d="m253.9 31.8 2.3 3.2c-.5-.7-1.1-4-1.1-4" fill="#204a69" stroke="#204a69" stroke-linecap="round" stroke-linejoin="round" stroke-miterlimit="10"/><path d="m220.7 101.2c-.4-1.1-.6-2.3-.6-3.5s.1-2.5.7-3.7c.1-.3.3-.6.5-.9s.5-.6.7-.8c.6-.5 1.3-.8 2.1-.8 1.6.1 2.7 1 3.3 2 .2.2.1.5-.1.7-.2.1-.4.1-.6 0-.8-.7-1.8-1.1-2.5-1-.4.1-.7.2-.9.5-.3.3-.5.7-.7 1.1-.4.9-.6 1.9-.7 2.9-.1 1.1-.2 2.1-.3 3.3 0 .3-.3.5-.6.5-.1 0-.3-.1-.3-.3z" fill="#84a5bc"/><path d="m227.5 118.9c.7.5 1.2 1.1 1.8 1.6.5.5 1.1 1 1.6 1.5.6.4 1.1.8 1.7.9.3.1.5.1.8 0 .3 0 .6-.2.8-.4l.1-.1c.2-.2.5-.1.7.1.1.1.1.3 0 .5-.2.5-.6.9-1.1 1.2s-1 .4-1.6.3c-1.1-.1-1.9-.6-2.7-1.1-.4-.3-.7-.6-1-.9s-.6-.6-.8-1c-.5-.7-.9-1.4-1.2-2.2-.1-.3 0-.6.3-.7.2.2.4.2.6.3z" fill="#84a5bc"/><path d="m222.9 113.5s-2.5-19.3 1.3-19.6c6.1-.5 9.8 29 1.3 29.7-7.9.6-12.4-23-4.1-26.2" fill="#fff"/><path d="m222.4 113.6c-.6-3.6-.9-7.1-1.1-10.7-.1-1.8-.1-3.6.2-5.5.1-.9.3-1.9.7-2.9.3-.5.6-1.1 1.4-1.4.2-.1.4-.1.6-.1h.5c.3 0 .6.2.9.3 1.1.5 1.7 1.4 2.2 2.2s.9 1.7 1.3 2.6c.7 1.7 1.1 3.5 1.5 5.3.7 3.6 1 7.2.8 10.9-.1 1.8-.4 3.7-1 5.5-.3.9-.7 1.8-1.3 2.6s-1.5 1.6-2.6 1.9-2.3.2-3.2-.3c-1-.4-1.8-1.1-2.4-1.8-1.3-1.5-2.1-3.2-2.8-4.9-1.3-3.5-1.9-7.1-1.7-10.8.1-1.8.4-3.7 1.1-5.4s2-3.4 3.8-4.1c.3-.1.5 0 .6.3.1.2 0 .5-.3.6-1.5.6-2.5 2.1-3 3.6-.6 1.6-.8 3.3-.8 5 0 3.5.6 7 1.9 10.2.6 1.6 1.5 3.1 2.5 4.3 1.1 1.2 2.5 1.9 3.8 1.5 1.2-.4 2.1-1.8 2.6-3.4s.8-3.3.9-5c.2-3.5-.1-7-.7-10.4-.3-1.7-.8-3.4-1.4-5-.3-.8-.6-1.6-1.1-2.3-.4-.7-.9-1.3-1.4-1.6-.1 0-.2-.1-.4-.1-.1 0-.1 0-.2 0s0 0-.1 0-.3.2-.4.5c-.3.6-.5 1.5-.6 2.3-.3 1.7-.3 3.5-.3 5.2 0 3.5.2 7.1.6 10.6 0 .3-.2.5-.5.5-.3.2-.5 0-.6-.2z" fill="#204a69"/><path d="m227.1 86.3c-.7 1-1.6 1.8-2.6 2.4s-2 1.2-3.2 1.5c-2.4.6-5.1-.1-6.9-1.7-.5-.4-.9-.9-1.3-1.3l-.3-.4-.1-.2c.1 0 0 0-.2 0s-.6 0-1.1-.2-.9-.7-1-1.2c-.2-.9 0-1.5 0-2.1 0-.3.1-.5.1-.7s0-.2-.1-.6c-.2-.6-.3-1.2-.3-1.8-.1-1.2-.1-2.5.3-3.7.3-1.2 1-2.4 1.8-3.3.9-.9 2-1.6 3.1-2.1s2.3-.8 3.5-.9c1.3-.1 2.6.1 3.8.7 2.3 1.1 3.9 3 5 5.2 1 2.1 1.5 4.6 1 6.9-.1.3-.3.4-.6.4-.3-.1-.4-.3-.4-.5.2-2.1-.4-4.2-1.4-6s-2.5-3.4-4.3-4.2c-.9-.4-1.8-.6-2.8-.5s-2 .4-2.9.8c-1.9.8-3.3 2.2-3.9 4.1-.3.9-.3 1.9-.2 2.9.1.5.1 1 .3 1.5l.1.2.1.3c.1.2.1.4.1.6 0 .4-.1.7-.1 1-.1.6-.2 1.1-.1 1.2v.1s.2 0 .5.1c.3 0 .9 0 1.3.5.1.1.2.2.3.3l.1.2.2.3c.3.4.6.8 1 1.1 1.5 1.4 3.6 2 5.5 1.6 1-.2 1.9-.6 2.9-1.2.9-.6 1.8-1.2 2.4-2 .2-.2.5-.3.7-.1-.2.3-.1.6-.3.8z" fill="#204a69"/><path d="m212.5 74.4c1.7 2.7 4.4 4.4 7.3 5.7s6.1 2.1 9.3 3.1c.3.1.4.4.3.6s-.3.4-.5.4c-1.7-.1-3.3-.4-5-.7-1.7-.4-3.3-.8-4.9-1.5s-3.1-1.5-4.5-2.7c-1.3-1.2-2.4-2.7-2.9-4.4-.1-.3.1-.5.3-.6.3-.1.5-.1.6.1z" fill="#204a69"/><path d="m215.6 71.8c.2-1.1-.4-1.9-1.4-2.3-.9-.4-2-.2-2.7.4-.3.3-.7.8-.9 1.2s-.3.9-.2 1.5c.1 1 .6 2 1.6 2.4.3.1.4.4.3.6s-.3.3-.5.3c-.8 0-1.6-.4-2.2-1s-.9-1.4-1.1-2.2c-.1-.8-.1-1.6.2-2.4s.8-1.4 1.4-2c.6-.5 1.5-.9 2.3-1 .9-.1 1.7.1 2.4.5s1.3 1 1.7 1.8c.3.8.2 1.8-.2 2.4-.1.2-.5.3-.7.2.1.1-0-.2-0-.4z" fill="#204a69"/><path d="m214.7 81.9.1.8" style="fill:none;stroke:#204a69;stroke-width:1.3476;stroke-linecap:round;stroke-linejoin:round;stroke-miterlimit:10"/><path d="m214.2 87.2c.4.1.8 0 1.2-.1.2-.1.4-.2.6-.3s.3-.3.4-.4c.1-.2.3-.2.5-.1.1.1.2.2.2.3 0 .4-.2.7-.4 1s-.5.4-.8.6c-.3.1-.7.2-1 .1-.3 0-.7-.1-1-.4-.1-.1-.1-.3 0-.5s.2-.3.3-.2z" fill="#204a69"/><path d="m225.1 74.1c.4 3.3 7.8 4.7 7.8-1.4 0-6.2-8.7-6.3-7.8 1.4z" fill="#fff"/><path d="m225.6 74c.1.9.9 1.6 1.8 1.9s1.9.3 2.7 0 1.3-1 1.6-1.8c.2-.8.3-1.9.1-2.7-.2-.9-.7-1.6-1.4-2.1s-1.7-.6-2.5-.3-1.6 1-1.9 1.9c-.4 1-.5 2.1-.4 3.1zm-1 .1c-.1-1.1-.1-2.4.3-3.5s1.2-2.3 2.4-2.8 2.7-.5 3.9.1 2.1 1.8 2.5 3.1c.2.6.2 1.3.2 1.9s-.1 1.3-.3 1.9-.6 1.3-1.1 1.7c-.5.5-1.2.8-1.8 1-1.3.3-2.6.1-3.7-.5-.6-.3-1.1-.6-1.5-1.1-.5-.5-.8-1.1-.9-1.8z" fill="#204a69"/></svg>