<svg viewBox="0 0 1283.8 959.6" xmlns="http://www.w3.org/2000/svg"><circle cx="815.3" cy="202.1" fill="#d5e5eb" r="22.7"/><circle cx="115.9" cy="750.2" fill="#d5e5eb" r="11.3"/><path d="m359.3 695.8c-259.8 191.2-291.7 214.1-359.3 263.8h3.2l193.3-121.5-153.2 121.5h11.6l148.9-109.8-118.3 109.8h12.7c97.2-77.1 83.9-66.9 282.4-223.2z" fill="#e9eff4"/><path d="m205.9 849.7-150 109.8h31.7zm-9.5-11.6-193.2 121.5h41.2z" fill="none"/><path d="m1207.2 63.7c-211.9 157.1-363.5 264.8-363.5 264.8l21.1 26c277.1-219.6 223.3-190.9 344.6-288.5-.9-.6-1.6-1.4-2.2-2.3z" fill="#e9eff4"/><path d="m1279.6 8.5c-.8-1.6-2.2-2.8-4-3.1-2-.9-4.3-1.2-6.5-.8-1.4-.2-2.8-.3-4.3-.3-5.3 0-9.5 0-13.7 1.1-8.7 1.1-17.2 3.2-25.3 6.3-16.9 5.3-31.7 12.7-47.5 20.1-3.7 1.2-6.2 4.6-6.3 8.5-1.1 6.3 3.2 11.6 9.5 12.7h1.1c2.1 0 5.3 0 7.4 1.1 3.2 1.1 5.3 1.1 7.4 2.1 5.3 2.1 8.4 4.2 10.6 6.3 2.1 1.1 3.2 5.3 4.2 10.6v7.4c0 2.1-1.1 5.3-1.1 7.4v1.1c-1.1 3.5.2 7.4 3.2 9.5 5.3 4.2 11.6 3.2 15.8-1.1 1.1-1.1 2.1-3.2 4.2-4.2v-1c10-10.9 19.2-22.6 27.5-34.8 5-7.2 9.5-14.6 13.7-22.2 1.9-3.8 3.8-7.6 4.9-11.4 3.4-4.7 3.2-11.1-.8-15.3z" fill="#004f82"/><path d="m270.7 403.9c-12.3-6.2-24.7-12-37.2-17.9-12.6-5.5-25.2-11-37.9-16.2s-25-11.3-40.2-11.2l-1.6 3.6c9.9 11.5 22.6 16.7 34.9 22.9s24.7 12 37.2 17.9c12.6 5.5 25.2 11 37.9 16.2s25 11.3 40.2 11.2l1.6-3.6c-9.9-11.5-22.6-16.7-34.9-22.9zm169.3-206.2c-1.3-1.8-3.2-3.1-5.4-3.6l-4.8-1.8-35.9-12.6-9-3c-2.9-.6-5.7-1.6-8.4-3-4.9-2.6-8.7-6.8-10.8-12l-12.5-35.9-6.6-18c-.5-1.9-1.3-3.7-2.4-5.4-.5-1.4-1.6-2.5-3-3-1.7-1-3.9-.8-5.4.6-1.8 1.3-3.1 3.2-3.6 5.4l-1.8 4.8-12.6 35.9-3 9c-.6 2.9-1.6 5.7-3 8.4-3 4.8-7.8 9.6-12.6 11.4l-35.9 13.2-18 6.6c-1.7.7-3.3 1.5-4.8 2.4-.9.9-1.7 1.9-2.4 3-.4 1.6-.2 3.3.6 4.8 1.3 1.8 3.2 3.1 5.4 3.6l4.8 1.8 36.5 12c6 1.8 12.6 3.6 18 6 5.4 3 10.2 7.2 12.6 13.2l10.1 35.9 6 18c.7 1.7 1.5 3.3 2.4 4.8.6.6 1.2 1.8 2.4 2.4s3 0 4.2-.6c1.8-1.2 2.4-3 3-4.8l1.8-4.8 13.2-35.9 3-9c1.2-3 2.4-6 3.6-8.4 2.8-5.1 7.2-9.1 12.6-11.4l35.9-12.6 18-6.6c1.9-.5 3.7-1.3 5.4-2.4 1.4-.5 2.5-1.6 3-3 1.1-1.7.8-3.9-.6-5.4zm674.4 132.1 4.4-9.6c1.1-1.2 1.4-2.9.7-4.4 0-1.5-1.5-2.9-2.9-3.7-1.2-.5-2.4-.8-3.7-.7-2 .5-4 1.2-5.9 2.2l-18.4 8.8c-2.9 1.5-5.9 3.7-8.1 3.7-2.2.7-5.2 0-7.4-.7l-18.4-8.8-9.5-4.4c-1.5-.7-2.2-1.5-5.2-.7-1.5 0-2.9 1.5-3.7 2.9-.5 1.2-.8 2.4-.7 3.7.5 2 1.2 4 2.2 5.9l8.8 18.4c1.5 2.9 3.7 5.9 3.7 8.1.5 2.7.3 5.5-.7 8.1l-8.8 18.4-4.4 9.6c-.7 1.5-1.5 2.2-.7 4.4.2 1.3 1 2.4 2.2 2.9h2.9c2-.5 4-1.2 5.9-2.2l18.4-9.6c2.9-1.5 5.9-3.7 8.8-4.4 3.1-.7 6.4-.7 9.6 0l19.1 11.8 9.6 4.4c.7.7 1.5.7 3.7.7 1.5 0 2.2-.7 2.9-2.2v-2.9c-.5-2-1.2-4-2.2-5.9l-8.1-18.4c-1.5-3.7-3.7-6.6-3.7-8.8-.5-2.7-.3-5.5.7-8.1z" fill="#d5e5eb"/><path d="m922.3 748c-.3-1.1-1.1-1.1-1.4-1.4-.7-.2-1.4-.4-2.1-.7l-7.4-2.8c-1.1-.2-2-.7-2.8-1.4-.7-.7-1.3-1.6-1.8-2.5l-2.5-7.4-.7-1.8c-.3-.9-.8-1.8-1.4-2.5-.3-.3-.7-.3-1.4-.7-.3 0-1.4 0-1.8.3-1.1.3-1.1 1.1-1.4 1.4-.2.7-.4 1.4-.7 2.1l-2.5 7.4c-.2 1.1-.7 2-1.4 2.8-.7.7-1.6 1.3-2.5 1.8l-7.4 2.8-1.8.7c-.8.2-1.5.5-2.1 1.1-.3.3-.7.7-.7 1.1-.4.4-.4 1 0 1.4.3.7 1.1.7 1.4 1.1.7.2 1.4.4 2.1.7l7.4 2.1c1.1.3 2.2.8 3.2 1.4 1 .8 1.8 1.7 2.5 2.8l2.1 8.1.7 1.8c.3.3.3 1.4 1.1 2.1.3.3.7.7 1.1.7.4.4 1 .4 1.4 0 .7-.7.7-1.1 1.1-1.4.2-.7.4-1.4.7-2.1l2.8-7.4c.2-1.1.7-2 1.4-2.8.7-.7 1.6-1.3 2.5-1.8l7.4-2.5 1.8-.7c.9.1 1.9-.3 2.5-1.1.3 0 .3-.3.7-1.1.2-.4.2-1.1-.1-1.6zm-449 29.7c-1.3-.6-3-.1-3.6 1.3 0 .1-.1.1-.1.2l-4.1 12.2-12.2 4.1c-.9.2-1.7.9-1.8 1.8-.2 1.4.6 2.8 1.9 3.3l12.6 4.4c1.5 4.3 3.2 8.5 5.2 12.6l.4.4c-.1.5.3 1 .9 1.1h.2c1 0 1.9-.6 2.2-1.5 1.5-4.4 2.2-8.9 3.3-13.7 5.2-1.5 9.6-2.2 14.4-3.3l1.1-1.1c.4-1 0-2.1-1-2.5h-.1c-4.3-1.5-8.5-3.2-12.6-5.2-1.5-4.4-3.3-8.5-4.4-12.6-.7-.7-1.4-1.2-2.3-1.5zm487.6-298.1c-3-1.5-6 0-7.5 3l-8.2 24.6-24.6 8.2c-1.9.4-3.3 1.9-3.7 3.7-.7 2.2.7 5.2 3.7 6.7l25.4 9c3 8.6 6.5 17.1 10.5 25.4l.7.7c-.1 1.1.6 2.1 1.7 2.2h.5c2 .1 3.8-1.1 4.5-3 3-9 4.5-17.9 6.7-27.6 10.5-3 18.7-5.2 29.1-6.7l2.2-2.2c.7-2.2 0-4.5-2.2-5.2-8.6-3-17.1-6.5-25.4-10.5-3-9-6.7-17.2-9-25.4-1.1-1.4-2.6-2.4-4.4-2.9zm-308.8 349.5c-.7-2-2-2-2.7-2.7-1.4-.3-2.8-.8-4.1-1.4l-14.3-5.4c-2.7-.7-4.1-1.4-5.4-2.7-1.4-1.4-2.5-3-3.4-4.8l-4.8-14.3-1.4-3.4c-.7-1.4-.7-2.7-2.7-4.8-.7-.7-1.4-.7-2.7-1.4-.7 0-2.7 0-3.4.7-2 .7-2 2-2.7 2.7-.3 1.4-.8 2.8-1.4 4.1l-4.8 14.3c-.7 2.7-1.4 4.1-2.7 5.4-1.4 1.4-3 2.5-4.8 3.4l-14.3 5.4-3.4 1.4c-.7 0-2 .7-4.1 2-.7.7-1.4 1.4-1.4 2-.7.8-.7 1.9 0 2.7.7 1.4 2 1.4 2.7 2 1.4.3 2.8.8 4.1 1.4l14.3 4.1c2.2.6 4.2 1.5 6.1 2.7 1.9 1.5 3.6 3.3 4.8 5.4l4.1 15.6 1.4 3.4c.7.7.7 2.7 2 4.1.7.7 1.4 1.4 2 1.4.8.7 1.9.7 2.7 0 1.4-1.4 1.4-2 2-2.7.3-1.4.8-2.8 1.4-4.1l5.4-14.3c.7-2.7 1.4-4.1 2.7-5.4 1.4-1.4 3-2.5 4.8-3.4l14.3-4.8 3.4-1.4c1.8.1 3.6-.6 4.8-2 .7 0 .7-.7 1.4-2 .6-.8.7-2.1.1-3.2zm-412.1-288.5c-.8-2.5-2.5-2.5-3.4-3.4-2.5-.8-3.4-.9-5-1.7l-17.7-6.7c-3.4-.9-5-1.7-6.7-3.4-1.7-1.8-3.1-3.7-4.2-5.9l-5.9-17.7-1.7-4.2c-.8-1.7-.9-3.4-3.4-5.9-.8-.8-1.7-.8-3.4-1.7-.8 0-3.4 0-4.2.8-2.5.8-2.5 2.5-3.4 3.4-.8 2.5-.9 3.4-1.7 5l-5.9 17.7c-.9 3.4-1.7 5-3.4 6.7-1.8 1.7-3.7 3.1-5.9 4.2l-17.6 6.7-4.2 1.7c-.8 0-2.5.8-5 2.5-.8.8-1.7 1.7-1.7 2.5-.8 1-.8 2.4 0 3.4.8 1.7 2.5 1.7 3.4 2.5 2.5.8 3.4.9 5 1.7l17.7 5c2.7.8 5.2 1.9 7.6 3.3 2.5 1.7 4.2 4.2 5.9 6.7l5 19.3 1.7 4.2c.8.8.9 3.4 2.5 5 .8.8 1.7 1.7 2.5 1.7 1 .8 2.4.8 3.4 0 1.7-1.7 1.7-2.5 2.5-3.4.8-2.5.9-3.4 1.7-5l6.7-17.7c.9-3.4 1.7-5 3.4-6.7 1.8-1.7 3.7-3.1 5.9-4.2l17.7-5.9 4.2-1.7c1.7 0 3.4 0 5.9-2.5.8 0 .8-.8 1.7-2.5.9-.9.9-2.5 0-3.8z" fill="#d5e5eb"/><path d="m618.1 279.9c-129.2 0-234 104.8-234 234s104.8 234 234 234 234-104.8 234-234c0-129.3-104.8-234-234-234zm-11.9 273.1h-116.7l116.7-226.8zm23.8 148.5v-226.8h116.7z" fill="#069e08"/></svg>