<svg width="215" height="133" viewBox="0 0 215 133" xmlns="http://www.w3.org/2000/svg"><title>design &amp; customization image</title><g fill="none" fill-rule="evenodd"><path d="M141.14 58.004v41.725h25.726V55.355H143.81a2.657 2.657 0 0 0-2.67 2.649z"/><path d="M129 29.455v-9.128h-28.148c.192.33.385.673.55 1.03 3.18 6.657.344 14.618-6.317 17.816l-.152.068-.234.11c-.55.247-1.129.453-1.707.618l-.261.068c-.097.028-.207.055-.303.083-.151.04-.317.068-.468.11-.275-.495-.358-1.744-.413-2.457-.083-1.167-.124-1.812-.592-2.004-.743-.302-1.72.466-2.381 1.88a6.266 6.266 0 0 0-.592 2.786c-7.378-.727-12.76-7.288-12.03-14.631a13.002 13.002 0 0 1 1.239-4.42c.165-.357.358-.686.55-1.03H48.464V67.75c4.226.082 12.54-1.469 12.65 2.443V56.07h54.383v16.758c4.336-.027 8.7 1.002 13.021.289a.344.344 0 0 1 .413.26c.427 2.526 2.092 25.351 2.271 27.616.152 2.059.496 4.077.07 6.122a.368.368 0 0 1-.345.247c-1.555.082-3.11.288-4.666.274-1.46 0-7.006-.15-7.405-.288-.496-.178-2.877.398-4.102.48-1.17.07-5.795.385-6.937.412-1.432.028-2.932-.014-2.974-1.386-.013-.769-.743-6.314-.633-7.11H61.54c0 .179-8.836-.014-13.076-.055v12.504h127.17V29.455H129zm37.866 70.26H141.14V57.99a2.654 2.654 0 0 1 2.657-2.649h23.069v44.375z" fill="#F6F6F6" fill-rule="nonzero"/><path d="M100.838 20.314a9.124 9.124 0 0 0-.495-.769c-4.185-6.094-12.526-7.659-18.637-3.486a13.386 13.386 0 0 0-3.497 3.486c-.179.247-.33.508-.495.782-.193.33-.386.673-.55 1.03-3.18 6.67-.331 14.659 6.358 17.83 1.39.658 2.89 1.07 4.433 1.22a6.121 6.121 0 0 1 .591-2.785c.661-1.4 1.638-2.17 2.382-1.88.468.191.523.836.592 2.003.055.714.137 1.963.412 2.457.166-.027.317-.069.468-.11a9.08 9.08 0 0 0 .303-.082l.262-.069c.578-.165 1.156-.37 1.707-.617l.234-.11.151-.069c6.69-3.17 9.525-11.145 6.332-17.802-.166-.357-.358-.686-.551-1.03z" fill="#00BE28" fill-rule="nonzero"/><path d="M166.825 55.451h-23.056a2.654 2.654 0 0 0-2.656 2.649v41.725h25.712V55.451z"/><path fill="#D8DEE4" fill-rule="nonzero" d="M128.972 9.759V29.55h53.778V9.759z"/><path d="M52.208 87.253l7.158-.055.523 5.669-5.836-.522s-2.313-.467-1.845-5.092z" fill="#F6F6F6" fill-rule="nonzero"/><path d="M50.708 21.343h-2.312a.921.921 0 0 1-.923-.92v-2.305a.921.921 0 0 1 1.845 0v1.386h1.39a.921.921 0 0 1 0 1.84zm-2.312-6.986a.921.921 0 0 1-.923-.92V8.743a.921.921 0 0 1 1.845 0v4.694c0 .508-.413.92-.922.92zm1.252-9.128a.921.921 0 0 1-.77-1.427 8.532 8.532 0 0 1 4.046-3.24.932.932 0 0 1 1.198.536.928.928 0 0 1-.537 1.194 6.684 6.684 0 0 0-3.166 2.54.922.922 0 0 1-.77.397zm124.664-.027a.937.937 0 0 1-.77-.412 6.691 6.691 0 0 0-3.18-2.525.923.923 0 0 1-.537-1.194.927.927 0 0 1 1.198-.536 8.396 8.396 0 0 1 4.06 3.226.922.922 0 0 1-.248 1.276.878.878 0 0 1-.523.165zm-8.258-3.363h-4.708a.921.921 0 0 1-.922-.92c0-.507.413-.919.922-.919h4.708a.921.921 0 0 1 0 1.84zm-9.401 0h-4.708a.921.921 0 0 1-.922-.92c0-.507.413-.919.922-.919h4.694a.92.92 0 0 1 .014 1.84zm-9.401 0h-4.708a.921.921 0 0 1-.922-.92c0-.507.413-.919.922-.919h4.708a.921.921 0 0 1 0 1.84zm-9.415 0h-4.708a.921.921 0 0 1-.922-.92c0-.507.413-.919.922-.919h4.708a.921.921 0 0 1 0 1.84zm-9.401 0h-4.708a.921.921 0 0 1-.922-.92c0-.507.413-.919.922-.919h4.694a.92.92 0 0 1 .014 1.84zm-9.401 0h-4.708a.921.921 0 0 1-.922-.92c0-.507.413-.919.922-.919h4.708a.921.921 0 0 1 0 1.84zm-9.402 0h-4.707a.921.921 0 0 1-.922-.92c0-.507.413-.919.922-.919h4.707a.921.921 0 0 1 0 1.84zm-9.414 0h-4.694a.921.921 0 0 1-.922-.92c0-.507.413-.919.922-.919h4.707c.51 0 .923.412.923.92a.942.942 0 0 1-.936.92zm-9.401 0H86.11a.921.921 0 0 1-.922-.92c0-.507.413-.919.922-.919h4.708a.921.921 0 0 1 0 1.84zm-9.402 0H76.71a.921.921 0 0 1-.922-.92c0-.507.413-.919.922-.919h4.707a.921.921 0 0 1 0 1.84zm-9.4 0h-4.708a.921.921 0 0 1-.922-.92c0-.507.413-.919.922-.919h4.707a.921.921 0 0 1 0 1.84zm-9.415 0h-4.708a.921.921 0 0 1-.922-.92c0-.507.413-.919.922-.919h4.708a.921.921 0 0 1 0 1.84z" fill="#E1E2E2" fill-rule="nonzero"/><path d="M115.47 107.484s-.661 14.234-2.808 22.936l-12.609.164s-1.018-.645.33-1.317c1.405-.7 5.176-1.455 5.603-2.306.826-1.647.495-18.557.495-18.557m13.889-.48s.66 13.3 2.808 22.015l11.025.165s1.019-.645-.33-1.318c-1.404-.7-5.176-1.455-5.603-2.306-.825-1.647 1.61-19.49 1.61-19.49" fill="#B0B5B8" fill-rule="nonzero"/><path d="M92.442 40.71s.289.247.399-.714c-.427.124-.867.22-1.294.288.193.37.468.563.895.426z"/><path d="M92.442 40.71c-.427.137-.702-.055-.895-.426-.743.124-1.5.192-2.257.192-.276 0-.537-.013-.812-.027.096 1.496.88 3.047 2.931 4.118l1.5.81 2.506-1.538c.261-2.086-.18-3.582-.647-4.53a13.29 13.29 0 0 1-1.927.687c-.11.96-.4.714-.4.714z" fill="#B0B5B8" fill-rule="nonzero"/><path d="M91.547 40.284c-.592-1.153-.317-4.035-.757-4.213-.812-.33-2.478 1.935-2.312 4.378.261.014.536.027.812.027.757 0 1.514-.068 2.257-.192z" fill="#B0B5B8" fill-rule="nonzero"/><path d="M125.641 87.898a.46.46 0 0 1-.454-.467c0-.233.18-.411.4-.439l5.106-.549a.466.466 0 1 1 .151.92h-.055l-5.106.549-.042-.014z" fill="#6F93AD" fill-rule="nonzero"/><path d="M129.179 90.63a3.344 3.344 0 0 1-2.368-.906 2.573 2.573 0 0 1-.825-2.032c0-.247.206-.44.454-.44h.041a.47.47 0 0 1 .44.481 1.72 1.72 0 0 0 .551 1.318 2.483 2.483 0 0 0 1.968.645l.895-.247a.46.46 0 0 1 .564.33.459.459 0 0 1-.33.562l-.963.261c-.166.014-.29.027-.427.027z" fill="#6F93AD" fill-rule="nonzero"/><path d="M103.729 60.2a.463.463 0 0 1-.468-.467c0-.178.11-.343.275-.425l3.992-1.784a.457.457 0 0 1 .619.192.454.454 0 0 1-.193.617c-.014.014-.027.014-.041.028l-3.992 1.784a.345.345 0 0 1-.192.055z" fill="#204A69" fill-rule="nonzero"/><path d="M108.698 32.873c.027.549.178.96.371 1.07.124.082.33-.014.482-.11a5.97 5.97 0 0 1-.041-.7l-.812-.26zm.522-1.551a1.4 1.4 0 0 0-.412.603l.715.248c.028-.302.055-.59.11-.879a.494.494 0 0 1-.137-.096.71.71 0 0 0-.275.124z"/><path d="M113.377 37.622a2.781 2.781 0 0 1-1.404-2.361l.138-1.25-1.665-.548a9.6 9.6 0 0 0 .165 1.262c.454 2.17.99 3.871 3.4 4.255a.452.452 0 0 1 .385.398l.303 2.526a.461.461 0 0 1-.4.508h-.054a.445.445 0 0 1-.29-.11v1.167l5.782.302V38.61c-.248.123-.51.22-.785.288-2.436.577-4.322-.576-5.575-1.276zm4.969-3.597l-1.486-3.98s-1.969-1.098-3.827-.988c.95 2.21 2.905 4.365 5.313 4.968zm-7.68-3.198a8.335 8.335 0 0 0-.234 1.648l1.775.59.207-1.99c.014 0-1.06.137-1.748-.248z" fill="#B0B5B8" fill-rule="nonzero"/><path d="M121.843 33.737a5.558 5.558 0 0 1-3.497.275c-2.408-.604-4.35-2.76-5.299-4.969-.523-1.235-.743-2.498-.564-3.514-.923.714-1.707 1.88-2.285 3.651a3.9 3.9 0 0 0-.097.371c-.096.247-.178.508-.261.769a.948.948 0 0 0-.55-.042c-.62.138-1.35.77-1.487 1.88-.11.893.027 2.1.77 2.554.18.11.386.164.592.164.18 0 .345-.04.51-.096.014.042.014.083.027.11.468 2.251 1.129 4.324 3.813 4.914l.262 2.196a.46.46 0 0 0 .454.412h.055c.248-.028.44-.261.399-.508l-.303-2.526a.452.452 0 0 0-.385-.398c-2.395-.384-2.946-2.086-3.4-4.255a9.6 9.6 0 0 1-.165-1.262l1.665.549-.137 1.249a2.76 2.76 0 0 0 1.404 2.36c1.252.7 3.138 1.854 5.547 1.29.275-.068.537-.164.784-.287 1.638-.838 2.56-2.951 2.85-5.257a3.109 3.109 0 0 1-.702.37zm-12.774.206c-.179-.11-.344-.521-.371-1.07l.812.26c0 .234.013.467.04.7-.164.096-.357.192-.48.11zm.454-1.77l-.715-.248c.082-.233.22-.452.413-.603a.742.742 0 0 1 .275-.138.494.494 0 0 0 .137.096c-.055.302-.082.604-.11.893zm2.684.892l-1.775-.59a8.335 8.335 0 0 1 .234-1.648c.688.385 1.762.248 1.762.248l-.22 1.99z" fill="#204A69" fill-rule="nonzero"/><path d="M113.9 23.635c-.812.357-1.266 1.043-1.417 1.908-.661 3.651 3.895 10.445 9.36 8.194.247-.096.495-.22.715-.357 5.437-3.198-2.078-12.613-8.658-9.745z" fill="#BBC9D5" fill-rule="nonzero"/><path d="M37.907 85.455h20.674c.647 0 1.17-.522 1.17-1.167v-.055l-.592-13.711a.89.89 0 0 0-.88-.851H37.631l.275 13.986" fill="#969CA1" fill-rule="nonzero" opacity=".26"/><path d="M59.793 92.88c-.386-2.196-.565-4.392-.744-6.602l-.11-1.66-.055-.824-.014-.206v-.274c.014-.234.11-.467.262-.66a1.48 1.48 0 0 1 1.101-.52l.84-.014 1.665-.014 1.666.014.84.013a1.48 1.48 0 0 1 1.1.522c.152.178.248.412.262.645l.014.425.041.824.069 1.66c.082 2.21.151 4.42.11 6.63 0 .096-.096.179-.193.179a.19.19 0 0 1-.179-.151c-.289-2.196-.468-4.406-.647-6.602l-.123-1.647-.056-.824-.027-.398c0-.041-.028-.082-.055-.11a.533.533 0 0 0-.372-.15l-.812.013-1.665.014-1.666-.014h-.812a.533.533 0 0 0-.372.151c-.027.027-.04.069-.055.096v.137l.014.206.041.824.083 1.66c.055 2.21.138 4.42 0 6.644 0 .055-.055.082-.096.082-.014 0-.042-.027-.055-.069z" fill="#CCCED0" fill-rule="nonzero"/><path fill="#F6F6F6" fill-rule="nonzero" d="M64.94 90.3l-.344-6.08h-3.62l.344 6.066z"/><path d="M54.053 96.23a2.87 2.87 0 0 1 1.252-.371 12.56 12.56 0 0 1 1.253-.055c.413.014.826.041 1.252.069.427.04.84.123 1.253.274a.203.203 0 0 1 .11.26.15.15 0 0 1-.11.11c-.4.152-.826.234-1.253.275-.412.028-.825.055-1.252.069-.413 0-.826-.014-1.253-.055a2.883 2.883 0 0 1-1.252-.37c-.055-.028-.069-.097-.041-.152.013-.013.027-.04.04-.055zm4.363-4.077c-2.367-.165-4.735-.22-7.116-.26l-3.551-.042-1.776-.014-.895-.013a2.13 2.13 0 0 1-.715-.124 2.304 2.304 0 0 1-1.583-2.21l-.028-2.402c-.316-.013-.633-.027-.95-.027l-.027 2.43a3.315 3.315 0 0 0 2.244 3.197c.33.11.688.151 1.032.165l.895-.014 1.775-.014 3.551-.04c2.368-.042 4.735-.097 7.117-.261.096-.014.179-.097.165-.206.014-.083-.055-.151-.138-.165z" fill="#F6F6F6" fill-rule="nonzero"/><path d="M54.989 92.153c-1.184-.165-2.106-1.043-2.285-2.1-.069-.467-.014-1.18-.014-1.784l.028-1.345h-1.033l.028 1.345c.041.645-.041 1.207.11 1.976a3.065 3.065 0 0 0 1.184 1.757 2.88 2.88 0 0 0 1.968.522.205.205 0 0 0 .165-.165c.028-.096-.055-.192-.151-.206z" fill="#F6F6F6" fill-rule="nonzero"/><path d="M59.462 86.663c-.248.068-.51.096-.77.096h-.732c-3.88.014-7.776.055-11.658.096-4.198.069-8.382.15-12.58.288a.094.094 0 0 0-.097.096c0 .055.042.096.097.096 4.198.138 8.382.22 12.58.289 4.199.04 8.383.096 12.581.096h.014c.027 0 .055 0 .082-.014.152-.014.303-.028.468-.055l.014-.988z" fill="#CCCED0" fill-rule="nonzero"/><path d="M61.981 81.557l-.33-8.4-.083-2.1c-.014-.37-.014-.659-.055-1.098a2.989 2.989 0 0 0-2.505-2.54 4.306 4.306 0 0 0-.84-.04c-.027 0-.068-.014-.096-.014l-21.885.082-1.363.014a2.187 2.187 0 0 0-1.542.535 2.15 2.15 0 0 0-.743 1.469c-.014.535.014.933.028 1.4l.137 5.449c.083 3.637.207 7.274.344 10.898 0 .096.083.178.18.178a.182.182 0 0 0 .178-.178c.014-3.637.014-7.275-.027-10.912l-.042-5.449c0-.44-.013-.947 0-1.318a1.32 1.32 0 0 1 .482-.892c.275-.233.633-.343.991-.302h.537l.22 7.55c.069 2.662.193 5.311.303 7.974 0 .096.083.178.193.178.096 0 .179-.082.179-.192 0-2.663.013-5.325-.028-7.974l-.082-7.522h.04l21.377.069.014-.014h.289c.316-.014.647 0 .963.027a2 2 0 0 1 1.35.892c.15.234.233.495.275.77.027.246.027.672.055 1.001l.096 2.1.193 4.2.192 4.2.042.837a5.91 5.91 0 0 1 .977.028l-.014-.906z" fill="#CCCED0" fill-rule="nonzero"/><path d="M59.793 92.88c-.386-2.196-.565-4.392-.744-6.602l-.11-1.66-.055-.824-.014-.206v-.274c.014-.234.11-.467.262-.66a1.48 1.48 0 0 1 1.101-.52l.84-.014 1.665-.014 1.666.014.84.013a1.48 1.48 0 0 1 1.1.522c.152.178.248.412.262.645l.014.425.041.824.069 1.66c.082 2.21.151 4.42.11 6.63 0 .096-.096.179-.193.179a.19.19 0 0 1-.179-.151c-.289-2.196-.468-4.406-.647-6.602l-.123-1.647-.056-.824-.027-.398c0-.041-.028-.082-.055-.11a.533.533 0 0 0-.372-.15l-.812.013-1.665.014-1.666-.014h-.812a.533.533 0 0 0-.372.151c-.027.027-.04.069-.055.096v.137l.014.206.041.824.083 1.66c.055 2.21.138 4.42 0 6.644 0 .055-.055.082-.096.082-.014 0-.042-.027-.055-.069z" fill="#CCCED0" fill-rule="nonzero"/><path fill="#F6F6F6" fill-rule="nonzero" d="M64.94 90.3l-.344-6.08h-3.62l.344 6.066z"/><path d="M54.053 96.23a2.87 2.87 0 0 1 1.252-.371 12.56 12.56 0 0 1 1.253-.055c.413.014.826.041 1.252.069.427.04.84.123 1.253.274a.203.203 0 0 1 .11.26.15.15 0 0 1-.11.11c-.4.152-.826.234-1.253.275-.412.028-.825.055-1.252.069-.413 0-.826-.014-1.253-.055a2.883 2.883 0 0 1-1.252-.37c-.055-.028-.069-.097-.041-.152.013-.013.027-.04.04-.055zM.179 131.682c17.866-.507 35.746-.617 53.612-.74l53.613-.124c35.746.11 71.492.055 107.224.672a.366.366 0 0 1 .344.385.37.37 0 0 1-.344.343c-35.746.631-71.492.562-107.224.672l-53.613-.123c-17.866-.124-35.746-.234-53.612-.742a.182.182 0 0 1-.179-.178c0-.082.083-.165.179-.165z" fill="#F6F6F6" fill-rule="nonzero"/><path d="M106.647 125.876a.463.463 0 0 1-.468-.466c0-.041 0-.096.013-.137.675-2.197.386-6.671.097-10.98-.138-2.128-.276-4.132-.29-5.875a.46.46 0 0 1 .455-.467.48.48 0 0 1 .468.453c.014 1.716.151 3.72.289 5.833.289 4.406.578 8.95-.138 11.31a.43.43 0 0 1-.426.33zm16.531 4.516a.449.449 0 0 1-.455-.398c-.013-.11-1.665-11.145-2.808-22.03a.465.465 0 0 1 .386-.535.466.466 0 0 1 .537.385v.055c1.128 10.87 2.78 21.878 2.794 21.988a.462.462 0 0 1-.386.521c-.027.014-.055.014-.068.014z" fill="#204A69" fill-rule="nonzero"/><path d="M174.657 9.663v-.947a.921.921 0 1 1 1.844 0V9.73" fill="#E1E2E2" fill-rule="nonzero"/><path d="M143.329 29.565v-.234a3.557 3.557 0 0 1-1.225.618s1.032-3.747-.055-4.008c-1.088-.26-5.286 7.151-5.286 7.151l1.514 3.624s1.624-1.455 6.869-4.132c1.183-1.111 1.885-2.14 2.243-3.02h-4.06z" fill="#B0B5B8" fill-rule="nonzero"/><path d="M141.099 35.096a.46.46 0 0 1-.44-.48.473.473 0 0 1 .44-.44c.523-.013 4.13-1.894 5.891-5.243a.463.463 0 0 1 .62-.22.46.46 0 0 1 .22.618c0 .014-.014.028-.014.028-1.844 3.486-5.767 5.737-6.717 5.737zm-2.836-2.965a.444.444 0 0 1-.454-.466c0-.138.055-.261.152-.343.385-.33 1.004-1.593 1.541-2.69 1.115-2.238 1.624-3.157 2.271-3.24a.67.67 0 0 1 .606.247c.633.741.482 2.54.303 3.624.385-.165.826-.426 1.073-.755a.453.453 0 0 1 .634-.137.45.45 0 0 1 .137.631c-.014.014-.014.027-.027.041-.716 1.002-2.258 1.345-2.313 1.359a.468.468 0 0 1-.55-.55c.234-1.056.399-2.744.151-3.417-.372.44-1.018 1.716-1.459 2.608-.647 1.29-1.252 2.512-1.762 2.979a.482.482 0 0 1-.303.11z" fill="#204A69" fill-rule="nonzero"/><path d="M92.07 40.38c.014.014.055.042.193 0 .082-.027.124-.123.151-.274-.151.041-.316.069-.468.11.014.055.07.11.124.165zm-1.28-4.31c.427.179.165 3.061.757 4.214.124-.027.262-.04.385-.068-.275-.494-.357-1.743-.412-2.457-.083-1.167-.124-1.812-.592-2.004-.744-.302-1.72.467-2.382 1.88a6.266 6.266 0 0 0-.591 2.787l.509.04c-.152-2.456 1.514-4.72 2.326-4.391z"/><path d="M92.07 40.38c.014.014.055.042.193 0 .082-.027.124-.123.151-.274-.151.041-.316.069-.468.11.014.055.07.11.124.165z"/><path d="M92.07 40.38c.014.014.055.042.193 0 .082-.027.124-.123.151-.274-.151.041-.316.069-.468.11.014.055.07.11.124.165zm.344-.274l.303-.082c-.11.027-.206.055-.303.082zm2.67-.947l-.15.069.15-.07z"/><path d="M59.779 19.504h-4.542a.921.921 0 0 0-.923.92c0 .507.413.92.923.92h4.542a.921.921 0 0 0 0-1.84zm9.084 0h-4.542a.921.921 0 0 0-.922.92c0 .507.413.92.922.92h4.542a.921.921 0 0 0 0-1.84zm45.395 0h-4.542a.921.921 0 0 0-.922.92c0 .507.413.92.922.92h4.542a.921.921 0 0 0 0-1.84zm13.613 0a.921.921 0 0 0-.922.92c0 .507.413.92.922.92h1.101v-1.84h-1.1zm-4.541-.769h-4.543a.921.921 0 0 0-.922.92c0 .508.413.92.922.92h4.542a.921.921 0 0 0 0-1.84zm-45.396.769h-4.542a.921.921 0 0 0-.922.92c0 .507.413.92.922.92h3.771c.303-.632.647-1.236 1.046-1.799a.89.89 0 0 0-.275-.041zm27.24 0h-4.542a1.05 1.05 0 0 0-.29.041c.4.577.744 1.18 1.047 1.798h3.785a.921.921 0 0 0 0-1.84z" fill="#E1E2E2" fill-rule="nonzero"/><path d="M92.07 40.38c.014.014.055.042.193 0 .082-.027.124-.123.151-.274-.151.041-.316.069-.468.11.014.055.07.11.124.165z"/><path d="M92.717 40.024l-.303.082c-.027.137-.069.247-.151.274-.124.042-.165.014-.193 0a.404.404 0 0 1-.138-.164c-.275-.494-.357-1.743-.412-2.457-.083-1.167-.124-1.812-.592-2.004-.744-.302-1.72.467-2.382 1.88a6.266 6.266 0 0 0-.591 2.787c.055 1.715.908 3.486 3.207 4.68a.578.578 0 0 0 .22.055.444.444 0 0 0 .454-.467.442.442 0 0 0-.248-.398c-3.29-1.716-2.808-4.502-2.45-5.627.4-1.236 1.06-1.894 1.35-2.018.054.398.096.796.123 1.194.083 1.318.193 2.814.95 3.322a1.1 1.1 0 0 0 .99.11c.675-.22.813-.742.8-1.4-.083.027-.221.068-.359.11l-.137.04h-.138z" fill="#204A69" fill-rule="nonzero"/><path fill="#204A69" fill-rule="nonzero" d="M92.84 39.996l.138-.041-.261.069zm1.928-.7l-.083.041c-.165.083-.358.151-.454.192.44 1.044.66 2.169.633 3.295 0 .26.207.466.455.466a.48.48 0 0 0 .467-.453 9.13 9.13 0 0 0-.715-3.678l-.152.068-.151.07z"/><path fill="#204A69" fill-rule="nonzero" d="M94.92 39.227l-.235.11.083-.04z"/><path d="M108.753 108.912c-1.57 0-2.987-.192-3.744-.769a1.54 1.54 0 0 1-.647-1.18c-.028-.412-.083-1.016-.138-1.77-.413-4.681-1.376-15.648.606-28.124a.467.467 0 0 1 .537-.371c.234.041.399.26.371.508-1.954 12.353-.99 23.237-.578 27.89.069.782.124 1.386.151 1.798a.643.643 0 0 0 .29.494c1.596 1.222 7.97.22 10.295-.26a.466.466 0 0 1 .537.384.458.458 0 0 1-.344.521c-.62.138-4.28.879-7.336.879zm13.227-.687c-1.707 0-3.152-.15-3.799-.576-1.431-.947-1.156-13.931-.963-19.463 0-.247.179-.439.426-.453h.055c.262.014.455.22.44.48-.288 8.552-.15 17.871.579 18.695 1.266.837 8.01.247 12.237-.357l-.799-14.041a.46.46 0 0 1 .44-.48.435.435 0 0 1 .482.384v.04l.826 14.454a.462.462 0 0 1-.399.48c-.784.124-5.78.837-9.525.837zm7.984-22.839a.452.452 0 0 1-.455-.425l-.99-12.161a.461.461 0 0 1 .426-.494c.261-.014.482.165.495.425l.991 12.161a.461.461 0 0 1-.426.494h-.041z" fill="#6F93AD" fill-rule="nonzero"/><path d="M142.324 35.81l-4.446-4.598c-2.175 4.337-8.63 10.788-13.503 11.996a5.975 5.975 0 0 1-.344-.137c-1.57-.577-10.53-1.18-12.663-.275-1.377.577-2.326 1.03-2.96 1.62-4.225 3.308-6.882 6.162-6.882 6.162l-5.175-8.043-4.611 3.28s3.95 14.454 10.048 14.124a14.78 14.78 0 0 0 5.753-1.55l.51 14.52 20.426-.356-.496-20.808c7.598-3.83 14.343-15.935 14.343-15.935z" fill="#BBC9D5" fill-rule="nonzero"/><path d="M107.115 73.445a.46.46 0 0 1-.44-.48.473.473 0 0 1 .44-.44l21.857-.22a.446.446 0 0 1 .468.426v.042a.46.46 0 0 1-.454.466l-21.871.206zM103.729 60.2a.463.463 0 0 1-.468-.467c0-.178.11-.343.275-.425l3.992-1.784a.457.457 0 0 1 .619.192.454.454 0 0 1-.193.617c-.014.014-.027.014-.041.028l-3.992 1.784a.345.345 0 0 1-.192.055z" fill="#204A69" fill-rule="nonzero"/><path d="M83.522 100.141h-.068l-13.283.206-13.407.137-26.964.11a.5.5 0 0 1-.51-.508l-.013-7.508c0-.288.234-.521.523-.521l26.785.055 26.786.192a.27.27 0 0 1 .262.26l-.11 7.577zm-.261-.123v-.069l-.138-7.384.262.26-26.786.206-26.785.055.523-.521-.014 7.508-.51-.508 26.621.11 13.38.137 13.447.206z" fill="#CCCED0" fill-rule="nonzero"/><path d="M29.896 97.314c.248 2.731.303 5.462.372 8.194l.055 8.194c-.055 5.463-.028 10.925-.344 16.388-.014.096-.096.179-.207.165-.096-.014-.165-.082-.165-.165-.316-5.463-.289-10.925-.33-16.388l.055-8.194c.069-2.732.11-5.463.372-8.194 0-.055.04-.096.096-.096.055 0 .096.04.096.096zm53.585 2.772c.262 2.498.303 4.996.372 7.508l.055 7.508c-.055 4.996-.028 10.006-.33 15.002a.188.188 0 0 1-.207.165c-.096-.014-.165-.083-.165-.165-.317-4.996-.29-10.006-.344-15.002l.055-7.508c.069-2.498.124-4.996.371-7.508 0-.055.042-.096.097-.096s.096.041.096.096z" fill="#CCCED0" fill-rule="nonzero"/></g></svg>