<svg enable-background="new 0 0 183 32" viewBox="0 0 183 32" xmlns="http://www.w3.org/2000/svg"><path d="m54 10.9v4.8 2.6c0 2.2-.5 4.3-1.5 5.4-1.3 1.4-3.3 1.9-5.5 1.9-3.4 0-5.9-2.6-6-2.7l2-4c.2.2.7 1.1 2 1.7 1.2.6 2.2.8 3 .3s1-2 1-3v-6.1l-5-4.8h6c2.2 0 4 1.7 4 3.9zm27 0h5v14.1h5v-14.1h5v-3.9h-15zm34-2c1.1 1.1 2 2.8 2 4.6 0 2.1-1 3.8-2.2 4.9s-3 1.6-5.1 1.6h-2.6v5h-5.1v-18h7.8c2.3 0 4 .7 5.2 1.9zm-2.6 4.5c0-.9-.6-1.5-1-1.9-.6-.5-1.4-.6-2.1-.6h-2.3v5.1h2.3c.7 0 1.4-.1 2-.5.5-.4 1.1-1.1 1.1-2.1zm23.4-4.5c1.4 1.4 2.1 3.5 2.1 5.4v10.7h-5v-5h-6v5h-5v-10.7c0-1.9.7-4 2.1-5.4 1.3-1.3 3.4-2.4 5.9-2.4 2.6 0 4.7 1.2 5.9 2.4zm-3.3 3.1c-.7-.7-1.6-1-2.5-1s-1.9.3-2.5 1c-.5.6-.5 1.5-.5 2.6v1.4h6v-1.4c-.1-1.1 0-2-.5-2.6zm-71.4 13h13.9v-3.9h-9v-3.2h7v-3.9h-7v-3.1h9v-3.9h-13.9zm96.5-5c-.1 0-.2.1-.3.1-1 .5-2.1.8-3.4.8-1.5 0-2.9-.5-3.8-1.5-1-.9-1.5-2.2-1.5-3.8 0-1.3.5-2.5 1.2-3.4.9-1.1 2.3-1.8 4.1-1.8 1 0 1.8.2 2.7.5 0 0 .1 0 .2.1.1 0 .2.1.3.1 0 0 .1 0 .1.1.1 0 .1.1.2.1.2.1.4.2.6.3l1.7-3.6c-.3-.2-.7-.4-1.1-.6-1.3-.6-2.8-1-4.9-1-2.8 0-5.5 1.2-7.3 3.1-1.5 1.6-2.4 3.7-2.4 6.1 0 2.9 1.1 5.2 2.8 6.8s4.1 2.5 6.9 2.5c2.3 0 4-.5 5.4-1.3h.1c.2-.1.5-.3.7-.4l-1.8-3.6c-.2.2-.4.3-.5.4zm24.4-13h-5.8l-5.2 5.7v-5.7h-3-2v18h2 2.4.6v-6.5l.5-.5 5.3 7h5.2l-7.5-10.1zm-150 9c0 8.8-7.2 16-16 16s-16-7.2-16-16 7.2-16 16-16 16 7.2 16 16zm-17-11.3-6.3 10.8c-.7 1.1 0 2.6 1.2 2.9l5 1.3v-15zm7 8.8-5-1.3v15l6.3-10.8c.6-1.1 0-2.5-1.3-2.9z" fill="#fff"/></svg>