<svg width="513" height="400" viewBox="0 0 513 400" fill="none" xmlns="http://www.w3.org/2000/svg">
<g filter="url(#filter0_f_2285_9948)">
<path opacity="0.7" d="M505.462 -126.766C530.541 -119.966 549.288 -98.8259 572.421 -86.2516C600.401 -71.0427 638.717 -72.4006 656.759 -44.5276C674.393 -17.2838 665.913 20.8197 663.238 54.0552C660.751 84.9436 650.487 113.365 641.675 142.841C632.059 175.007 630.926 212.795 608.725 236.396C586.471 260.054 552.462 263.253 522.033 270.029C492.682 276.566 463.078 280.134 433.434 275.432C402.994 270.605 372.263 262.269 347.494 242.349C322.667 222.382 304.977 193.366 292.881 162.392C281.191 132.458 280.938 99.6507 279.082 67.1702C277.181 33.9036 268.485 -1.53342 281.799 -31.5256C295.088 -61.4623 324.768 -77.8611 350.985 -94.8026C374.635 -110.085 400.357 -119.998 427.357 -125.585C453.264 -130.946 479.871 -133.705 505.462 -126.766Z" fill="#F5E6B3"/>
<path opacity="0.7" d="M274.015 156.173C295.086 169.132 307.167 193.384 321.975 214.247C336.016 234.031 352.197 252.418 359.227 276.233C366.356 300.379 368.273 326.743 362.435 351.298C356.74 375.254 340.991 394.185 326.63 413.345C312.893 431.674 295.965 445.599 279.86 461.47C259.756 481.283 245.911 513.006 219.385 519.036C193.402 524.943 169.073 503.68 144.71 492.194C120.547 480.803 90.952 475.33 76.2142 451.541C61.3709 427.582 68.762 395.334 66.8348 366.495C65.2206 342.34 64.3226 318.928 65.737 294.759C67.2819 268.358 62.3709 239.32 75.5755 217.13C88.7931 194.918 115.438 188.59 136.618 175.644C157.993 162.579 177.206 143.602 201.505 140.158C226.271 136.649 252.261 142.795 274.015 156.173Z" fill="#CED9F2"/>
<path d="M549.377 206.234C594.702 223.625 610.9 283.303 639.95 325.028C666.696 363.443 704.795 395.077 713.74 442.307C722.685 489.54 697.844 534.7 688.591 581.863C678.121 635.231 687.426 696.612 655.585 738.726C623.071 781.732 567.997 793.298 518.428 806.93C467.16 821.029 413.471 836.097 362.916 819.213C311.973 802.2 266.336 763.635 239.174 713.667C213.549 666.525 223.51 608.177 218.559 553.647C214.133 504.904 202.281 457.338 211.548 409.411C221.467 358.118 235.699 302.891 273.35 270.285C310.684 237.954 363.969 247.851 410.604 237.03C457.576 226.13 504.076 188.853 549.377 206.234Z" fill="#069E08" fill-opacity="0.11"/>
</g>
<defs>
<filter id="filter0_f_2285_9948" x="-19.4263" y="-215.362" width="819.537" height="1126.51" filterUnits="userSpaceOnUse" color-interpolation-filters="sRGB">
<feFlood flood-opacity="0" result="BackgroundImageFix"/>
<feBlend mode="normal" in="SourceGraphic" in2="BackgroundImageFix" result="shape"/>
<feGaussianBlur stdDeviation="42.2297" result="effect1_foregroundBlur_2285_9948"/>
</filter>
</defs>
</svg>
