<svg fill="none" height="33" viewBox="0 0 327 33" width="327" xmlns="http://www.w3.org/2000/svg"><path d="m16 32c8.8366 0 16-7.1634 16-16 0-8.83656-7.1634-16-16-16-8.83656 0-16 7.16344-16 16 0 8.8366 7.16344 16 16 16z" fill="#069e08"/><path d="m16.7939 13.313v15.5114l8-15.5114z" fill="#fff"/><path d="m15.1755 18.6565v-15.48096l-7.96945 15.48096z" fill="#fff"/><g fill="#000"><path d="m41.3158 26.9306c-.459-.7028-.8874-1.4056-1.3158-2.0778 2.2644-1.375 3.0294-2.475 3.0294-4.5528v-12.00833h-2.6622v-2.29167h5.661v13.6889c0 3.4833-1.0098 5.4389-4.7124 7.2417z"/><path d="m65.031 18.7418c0 1.1611.8262 1.2833 1.377 1.2833s1.3464-.1833 1.9584-.3667v2.1389c-.8568.275-1.7442.4889-2.9682.4889-1.4688 0-3.1824-.55-3.1824-3.1167v-6.2944h-1.5606v-2.1695h1.5606v-3.20829h2.8152v3.20829h3.5496v2.1695h-3.5496z"/><path d="m70.9062 27.9999v-17.325h2.6929v1.0389c1.071-.825 2.2644-1.3444 3.7332-1.3444 2.5398 0 4.5594 1.7722 4.5594 5.5917 0 3.7888-2.2032 6.2944-5.8446 6.2944-.8874 0-1.5912-.1222-2.3256-.275v5.9889h-2.8153zm5.6917-15.3083c-.8262 0-1.8666.3972-2.8458 1.2528v5.8972c.612.1222 1.2546.2139 2.1114.2139 1.989 0 3.1212-1.2528 3.1212-3.8806 0-2.4138-.8262-3.4833-2.3868-3.4833z"/><path d="m92.969 22.0111h-2.6316v-1.2528h-.0612c-.9181.7028-2.0503 1.4666-3.7333 1.4666-1.4688 0-3.06-1.0694-3.06-3.2388 0-2.9028 2.4786-3.4528 4.2228-3.6973l2.4787-.3361v-.3361c0-1.5278-.612-2.0167-2.0503-2.0167-.7038 0-2.3562.2139-3.7026.7639l-.2448-2.2611c1.224-.4278 2.907-.7333 4.3146-.7333 2.7541 0 4.5289 1.1 4.5289 4.3694v7.2723zm-2.8152-5.2862-2.3257.3667c-.7038.0917-1.4382.5195-1.4382 1.5583 0 .9167.5202 1.4362 1.2852 1.4362.8262 0 1.7137-.4889 2.4787-1.0389z"/><path d="m104.597 21.6444c-1.163.3972-2.203.6417-3.519.6417-4.2229 0-5.9059-2.4139-5.9059-5.9278 0-3.6972 2.3256-5.9889 6.0899-5.9889 1.407 0 2.264.2444 3.213.55v2.3833c-.827-.3055-2.02-.6416-3.183-.6416-1.7134 0-3.1823.9166-3.1823 3.5444 0 2.9028 1.4689 3.7889 3.3353 3.7889.888 0 1.867-.1833 3.183-.7028v2.3528z"/><path d="m109.922 15.5639c.244-.275.428-.55 3.978-4.8583h3.672l-4.59 5.3777 5.018 5.9584h-3.672l-4.376-5.3778v5.3778h-2.815v-16.0417h2.815v9.5639z"/><path d="m58.5437 21.6444c-1.4688.4583-2.7234.6417-4.1922.6417-3.6108 0-5.8447-1.8028-5.8447-6.0195 0-3.0861 1.8972-5.8972 5.5387-5.8972 3.6108 0 4.8654 2.5055 4.8654 4.8889 0 .7944-.0612 1.2222-.0918 1.6805h-7.2828c.0612 2.475 1.4688 3.0556 3.5802 3.0556 1.1628 0 2.2032-.275 3.3966-.7028v2.3528zm-2.5704-6.5695c0-1.375-.459-2.5666-1.9584-2.5666-1.4076 0-2.2644 1.0083-2.448 2.5666z"/></g><path d="m142 15h8" stroke="#1e1e1e" stroke-width="1.5"/><path d="m146 11v8" stroke="#1e1e1e" stroke-width="1.5"/><path clip-rule="evenodd" d="m240.984 8.79642c1.095-1.33227 2.612-2.00932 4.55-2.00932 2.064 0 3.644.67705 4.761 2.00932 1.095 1.35408 1.643 3.27608 1.643 5.76588s-.548 4.4336-1.622 5.8095c-1.075 1.376-2.612 2.0749-4.614 2.0749-2.064 0-3.644-.6989-4.718-2.0749-1.074-1.3759-1.622-3.3634-1.622-5.9624 0-2.4024.526-4.2807 1.622-5.61298zm-12.176 5.65688c0-2.2277.695-4.0623 2.107-5.50379 1.411-1.44147 3.181-2.16221 5.329-2.14037.822 0 1.601.08737 2.296.28393v3.53813c-.758-.2184-1.453-.3276-2.106-.3276-1.011 0-1.833.3931-2.507 1.2012-.653.7863-.99 1.8128-.99 3.0577 0 1.3323.337 2.3806 1.011 3.1669.674.7644 1.559 1.1575 2.675 1.1575.548 0 1.18-.1092 1.917-.3276v3.5381c-.8.2403-1.537.3495-2.19.3495-2.254 0-4.066-.7426-5.456-2.2059-1.391-1.4633-2.086-3.4071-2.086-5.7877zm18.39 3.6908c-.379.6115-.948.9173-1.664.9173-.674 0-1.18-.3058-1.538-.9173s-.527-1.8346-.527-3.691c0-2.8611.696-4.2807 2.107-4.2807 1.474 0 2.233 1.4414 2.233 4.3462-.021 1.7909-.232 3.014-.611 3.6255zm14.387-7.6004.759-3.34162h5.013l1.938 14.87332h-3.834l-1.032-10.2213-2.401 10.2213h-2.612l-2.507-10.2432-.99 10.2432h-3.666l1.833-14.87332h4.887c.695 3.21052 1.243 5.96242 1.643 8.27752l.422-2.3151c.168-.8954.358-1.7691.547-2.6208zm18.306-3.34162-.759 3.34162c-.189.8517-.379 1.7254-.547 2.6208l-.422 2.3151c-.4-2.3151-.948-5.067-1.643-8.27752h-4.887l-1.832 14.87332h3.665l.99-10.2432 2.507 10.2432h2.612l2.38-10.2213 1.032 10.2213h3.834l-1.938-14.87332zm15.356 8.99822h-3.434v2.7301h3.982v3.1668h-7.858v-14.8733h7.837v3.1669h-3.961v2.73h3.434zm11.459-2.3587c.4-.6771.611-1.376.611-2.0967 0-1.3978-.527-2.51166-1.58-3.31976-1.053-.80809-2.507-1.22306-4.318-1.22306h-4.508v14.87332h3.876v-6.7705h.063l3.139 6.7705h4.086l-3.096-6.705c.737-.3495 1.327-.8518 1.727-1.5288zm-5.94-3.7784v3.5381c1.706-.0218 2.57-.546 2.57-1.5725 0-.6989-.19-1.1794-.59-1.4851-.4-.3058-1.053-.4587-1.98-.4805zm8.826-1.11391c-1.411 1.44151-2.106 3.27601-2.106 5.50381 0 2.3806.695 4.3244 2.085 5.7877s3.202 2.2059 5.456 2.2059c.653 0 1.39-.1092 2.19-.3495v-3.5381c-.737.2184-1.369.3276-1.916.3276-1.117 0-2.002-.3932-2.676-1.1576-.674-.7862-1.011-1.8346-1.011-3.1668 0-1.2449.337-2.2714.99-3.0577.674-.8081 1.496-1.2012 2.507-1.2012.653 0 1.348.1092 2.106.3276v-3.53815c-.695-.19656-1.474-.28392-2.296-.28392-2.127-.02184-3.918.69889-5.329 2.14036zm12.576 7.22921v2.7082.0218h4.002v3.1669h-7.857v-14.87332h7.836v3.16682h-3.981v2.7301h3.433v3.0795z" fill="#000" fill-rule="evenodd"/><rect fill="#fff" height="23.9754" rx="5" width="49.2828" x="175.332" y="2.33203"/><path clip-rule="evenodd" d="m221.539 1h-42.674c-2.7 0-4.886 2.26374-4.865 5.01099v16.70331c0 2.7692 2.186 5.011 4.887 5.011h20.211l9.238 5.2747-2.101-5.2747h15.304c2.7 0 4.886-2.2418 4.886-5.011v-16.70331c0-2.76923-2.186-5.01099-4.886-5.01099zm-43.574 3.86813c-.6.04395-1.05.26373-1.35.68132-.3.3956-.407.90109-.343 1.47252 1.265 8.24173 2.443 13.80223 3.537 16.68133.428 1.0549.921 1.5604 1.5 1.5165.9-.066 1.972-1.3407 3.236-3.8242.665-1.4066 1.693-3.5165 3.087-6.3297 1.157 4.1539 2.743 7.2748 4.736 9.3627.558.5934 1.136.8571 1.693.8132.493-.044.879-.3077 1.136-.7913.215-.4175.3-.9011.258-1.4505-.129-2 .064-4.7912.6-8.3736.557-3.6923 1.243-6.35168 2.079-7.9341.171-.32967.236-.65934.214-1.05494-.043-.5055-.257-.92308-.664-1.25275-.408-.32967-.858-.48352-1.351-.43956-.621.04396-1.093.35165-1.414.96703-1.329 2.48352-2.272 6.50552-2.829 12.08792-.815-2.1099-1.501-4.5934-2.037-7.51649-.235-1.2967-.814-1.91209-1.757-1.84615-.643.04395-1.179.48351-1.607 1.31868l-4.694 9.16486c-.772-3.1868-1.501-7.0769-2.165-11.67036-.15-1.14285-.772-1.67033-1.865-1.58241zm31.293 4.13185c-.772-1.38461-1.929-2.21978-3.43-2.54945-.407-.08791-.793-.13187-1.157-.13187-2.058 0-3.73 1.09891-5.037 3.29671-1.114 1.86813-1.672 3.93403-1.672 6.19783 0 1.6923.343 3.1428 1.029 4.3516.772 1.3846 1.908 2.2198 3.429 2.5495.408.0879.793.1318 1.158.1318 2.079 0 3.751-1.0989 5.037-3.2967 1.114-1.8901 1.671-3.956 1.671-6.2197 0-1.7143-.343-3.1429-1.028-4.32972zm10.009-2.54945c1.521.32967 2.657 1.16484 3.429 2.54945.686 1.18682 1.029 2.61542 1.029 4.32972 0 2.2637-.557 4.3296-1.672 6.2197-1.286 2.1978-2.958 3.2967-5.037 3.2967-.364 0-.75-.0439-1.157-.1318-1.522-.3297-2.658-1.1649-3.429-2.5495-.686-1.2088-1.029-2.6593-1.029-4.3516 0-2.2638.557-4.3297 1.672-6.19783 1.307-2.1978 2.979-3.29671 5.036-3.29671.365 0 .751.04396 1.158.13187zm-12.71 8.63737c-.3 1.4506-.836 2.5275-1.629 3.2528-.622.5714-1.2.8132-1.736.7033-.514-.1099-.943-.5715-1.265-1.4286-.257-.6813-.385-1.3626-.385-2 0-.5495.042-1.0989.15-1.6044.192-.9011.557-1.7802 1.136-2.6154.707-1.0769 1.457-1.51647 2.229-1.3626.514.1099.943.5714 1.264 1.4285.257.6814.386 1.3627.386 2 0 .5715-.043 1.1209-.15 1.6264zm11.81 3.2528c.793-.7253 1.328-1.8022 1.628-3.2528.086-.5055.15-1.0549.15-1.6264 0-.6373-.128-1.3186-.385-2-.322-.8571-.75-1.3186-1.265-1.4285-.771-.15387-1.522.2857-2.229 1.3626-.579.8352-.943 1.7143-1.136 2.6154-.107.5055-.15 1.0549-.15 1.6044 0 .6374.129 1.3187.386 2 .321.8571.75 1.3187 1.264 1.4286.536.1099 1.115-.1319 1.737-.7033z" fill="#7f54b3" fill-rule="evenodd"/></svg>