<svg xmlns="http://www.w3.org/2000/svg" height="100" width="50" version="1.1" viewBox="0 0 50 100"><defs><path d="M0.95 40.37C-4.37 67.46 13.27 93.73 40.37 99.05 67.46 104.37 93.73 86.73 99.05 59.63 104.37 32.54 86.73 6.27 59.63 0.95 32.54-4.37 6.27 13.27 0.95 40.37"/></defs><g fill="none" opacity="0.5" stroke="none" strokeWidth="1"><g transform="translate(-1215.000000, -93.000000)"><g transform="translate(160.000000, 32.000000)"><g transform="translate(1055.000000, 61.000000)"><path d="M0.94 40.19C-4.36 67.16 13.22 93.32 40.19 98.62 67.16 103.92 93.32 86.35 98.62 59.37 103.92 32.4 86.35 6.24 59.37 0.94 32.4-4.36 6.24 13.22 0.94 40.19" fill="#CCCED0"/><g><mask fill="white"><path d="M0.95 40.37C-4.37 67.46 13.27 93.73 40.37 99.05 67.46 104.37 93.73 86.73 99.05 59.63 104.37 32.54 86.73 6.27 59.63 0.95 32.54-4.37 6.27 13.27 0.95 40.37"/></mask><g/><path d="M49.59 38.06C51.29 29.39 59.7 23.73 68.38 25.44 77.05 27.14 82.7 35.55 81 44.23 79.3 52.9 70.88 58.55 62.21 56.85 53.53 55.15 47.88 46.73 49.59 38.06" fill="#F6F6F6"/><path d="M53.93 52.41C48.66 47.1 42.15 43.21 34.98 41.08L37.21 29.74C44.64 30.48 52.15 29.34 59.03 26.41L53.93 52.41" fill="#F6F6F6"/><path d="M30.93 34.4C31.55 31.25 34.6 29.2 37.75 29.82 40.89 30.43 42.94 33.49 42.32 36.63 41.71 39.78 38.65 41.83 35.51 41.21 32.36 40.59 30.31 37.54 30.93 34.4" fill="#F6F6F6"/><polyline fill="#F6F6F6" points="35.54 41.22 -14.22 31.44 -11.99 20.08 37.77 29.85 35.54 41.22"/><path d="M30.34 67.29C31.4 61.93 36.59 58.44 41.95 59.49 47.31 60.54 50.8 65.74 49.75 71.1 48.69 76.46 43.5 79.95 38.14 78.89 32.78 77.84 29.29 72.65 30.34 67.29" fill="#F6F6F6"/><path d="M33.02 76.15C29.77 72.87 25.75 70.47 21.32 69.15L22.7 62.15C27.29 62.61 31.93 61.9 36.18 60.09L33.02 76.15" fill="#F6F6F6"/><path d="M18.82 65.02C19.2 63.08 21.09 61.82 23.03 62.2 24.97 62.58 26.24 64.46 25.86 66.41 25.48 68.35 23.59 69.62 21.65 69.23 19.7 68.85 18.44 66.97 18.82 65.02" fill="#F6F6F6"/><path d="M43.91 78.29C48.16 76.49 52.8 75.78 57.39 76.24L58.77 69.23C54.34 67.92 50.32 65.51 47.07 62.23L43.91 78.29" fill="#F6F6F6"/><polyline fill="#F6F6F6" points="21.67 69.24 -67.61 51.7 -66.23 44.68 23.05 62.22 21.67 69.24"/></g><path d="M35.02 68.89C35.07 65.99 37.47 63.68 40.37 63.74 43.28 63.79 45.58 66.19 45.53 69.09 45.47 72 43.07 74.3 40.17 74.25 37.27 74.19 34.96 71.79 35.02 68.89" fill="#F6F6F6"/></g></g></g></g></svg>