<svg height="100" viewBox="0 0 50 100" width="50" xmlns="http://www.w3.org/2000/svg"><g fill="none" opacity=".5"><path d="m.94 40.19c-5.3 26.97 12.28 53.13 39.25 58.43s53.13-12.27 58.43-39.25c5.3-26.97-12.27-53.13-39.25-58.43-26.97-5.3-53.13 12.28-58.43 39.25" fill="#ccced0"/><g fill="#f6f6f6"><path d="m49.59 38.06c1.7-8.67 10.11-14.33 18.79-12.62 8.67 1.7 14.32 10.11 12.62 18.79-1.7 8.67-10.12 14.32-18.79 12.62-8.68-1.7-14.33-10.12-12.62-18.79"/><path d="m53.93 52.41c-5.27-5.31-11.78-9.2-18.95-11.33l2.23-11.34c7.43.74 14.94-.4 21.82-3.33z"/><path d="m30.93 34.4c.62-3.15 3.67-5.2 6.82-4.58 3.14.61 5.19 3.67 4.57 6.81-.61 3.15-3.67 5.2-6.81 4.58-3.15-.62-5.2-3.67-4.58-6.81"/><path d="m35.54 41.22-49.76-9.78 2.23-11.36 49.76 9.77z"/><path d="m30.34 67.29c1.06-5.36 6.25-8.85 11.61-7.8s8.85 6.25 7.8 11.61c-1.06 5.36-6.25 8.85-11.61 7.79-5.36-1.05-8.85-6.24-7.8-11.6"/><path d="m33.02 76.15c-3.25-3.28-7.27-5.68-11.7-7l1.38-7c4.59.46 9.23-.25 13.48-2.06z"/><path d="m18.82 65.02c.38-1.94 2.27-3.2 4.21-2.82s3.21 2.26 2.83 4.21c-.38 1.94-2.27 3.21-4.21 2.82-1.95-.38-3.21-2.26-2.83-4.21"/><path d="m43.91 78.29c4.25-1.8 8.89-2.51 13.48-2.05l1.38-7.01c-4.43-1.31-8.45-3.72-11.7-7z"/><path d="m21.67 69.24-89.28-17.54 1.38-7.02 89.28 17.54z"/><path d="m35.02 68.89c.05-2.9 2.45-5.21 5.35-5.15 2.91.05 5.21 2.45 5.16 5.35-.06 2.91-2.46 5.21-5.36 5.16-2.9-.06-5.21-2.46-5.15-5.36"/></g></g></svg>