<svg viewBox="0 0 1472.8 817.9" xmlns="http://www.w3.org/2000/svg"><path d="m529.7 605.5c-192.1 86.3-352.1 157.7-402 180.1l2 .4 140.1-51-114.4 56.5 7.4 1.6 110.2-49.7-90.6 53.9 8.1 1.7c72.6-35.9 202-99.7 350.3-172.2z" fill="#64ca43"/><path d="m671.8 561.4 13 18.3c251-123.8 543.3-266.1 711.5-346.3-170.6 78.2-468.3 213.1-724.5 328z" fill="#64ca43"/><path d="m1440.2 213.2c-4.3-9.4-64.4 7.3-64.4 7.3s14.7 3.9 19.2 12.6c1.6-1.1 4-2 5.6-3-1.6 1.1-4 2-5.6 3 .4.1.6.4.5.8 4.3 9.4-2.2 23.5-2.2 23.5s51.2-34.8 46.9-44.2z" fill="#2fb41f"/><path d="m1439.2 214.4c-1.2-1-4-.9-6.4 0-2.6.3-5.1 1-7.5 1.9-5.2 1-10.4 2.7-15.6 3.7-10.4 2.7-20.9 5.4-31.5 8.7l.2-14.1c2.7.6 4.6 1.7 6.6 2.1 1.9 1.1 3.9 1.5 6.4 2.8 4.6 2.5 8.5 6.3 11.1 10.9l-9.8-3.5 5.6-3c3.9-1.9 8.6-.2 10.5 3.7s.2 8.6-3.7 10.5l-5.6 3 3.7-10.5c1.4 2.8 2.1 5.9 2.3 9 .2 2.6.1 5.2-.2 7.7l-1.6 7.4c-.6 2.7-1.7 4.6-2.9 7.1l-10.8-8.7c9-5.8 17.5-12.5 26.5-18.3 4.2-3.3 8.5-6.6 12.6-9.3 1.8-1.7 4.2-3.3 5.3-5.2.9-.6 1.5-1.4 1.9-2.4.5-.3.8-.7 1-1.2zm3.3-2.1c1.4 3.1.3 5 0 6.4-.4 1.7-1.2 3.2-2.4 4.4-1.4 2.6-3.2 5.1-5.1 7.4-3.7 4.3-7.7 8.4-11.8 12.3-7.9 7.8-16.6 14.9-25.7 21.3-3.3 2.3-7.8 1.7-10.3-1.5-1.6-1.8-1.9-4.4-.7-6.5l.2-.7c.3-1.4 1.4-3.2 1.7-4.6l1-4.7c.1-3.5 0-6.4-1.2-7.3-2.1-3.3-1.9-7.5 1.4-9.6l.8-.5.8-.5 5.6-3 6.8 14.2-5.6 3c-4 2-7.8.4-9.8-3.5-1.6-2.2-3.6-4.1-5.9-5.5-1.2-1-2.6-1.2-4.4-2.4-1.4-.9-2.9-1.5-4.6-1.7l-.7-.1c-3.9-1.5-5.9-5.5-4.3-9.4.6-2.5 2.7-4.3 5.2-4.5 11.1-2.5 21.6-5.2 33.1-6.3 5.6-.9 11.4-1 17.1-.6 3 0 6 .4 8.9 1.2 1.6.3 3.2.9 4.6 1.7 1.9.5 3.5 1.9 4.1 3.7z" fill="#2fb41f"/><path d="m1395.5 233.9c2-.8 3.8-1.8 5.6-3-1.7 1.2-3.6 2.2-5.6 3z" fill="#2fb41f"/><path d="m1396.9 234.2.3-1.4-2-.4c-.2-1.4-.2-2.8.2-4.2l.4-2c.7-.9 1.6-1.7 2.6-2.3l6.8 14.2c-.3-.5-.7-.8-1.2-1-.5-.8-3.1-2.1-5.1-2.5zm-3.9-1.5c-.4-1.5-.8-3 .3-4.9 1.1-1.7 2.6-3 4.4-4 4-2 8.7-1 10.6 3 2.1 3.4 1.1 7.9-2.2 10.1l-1.6 1.1c-.9.6-1.9.8-3 .8l-2-.4c-1.3-.6-2.3-1.5-2.9-2.8l-2-.4.3-1.4z" fill="#2fb41f"/><g fill="#c6def6"><path d="m105 163.2c-2.4-5.9-8.8-12.9-15.3-15.3l-54.7-19.4c-5.9-2.4-5.9-5.9 0-7.6l54.7-19.4c5.9-2.4 12.9-8.8 15.3-15.3l19.4-54.7c2.4-5.9 5.9-5.9 7.6 0l19.4 54.7c2.4 5.9 8.8 12.9 15.3 15.3l54.7 19.4c5.9 2.4 5.9 5.9 0 7.6l-54.7 19.5c-5.9 2.4-12.9 8.8-15.3 15.3l-19.4 54.6c-2.4 5.9-5.9 5.9-7.6 0z"/><path d="m104.4 163.2c-2.4-5.9-7.1-10-12.4-12.9-5.3-2.4-11.8-4.1-17.6-5.9l-35.9-11.7-4.7-1.8c-2.1-.5-4-1.8-5.3-3.5-.8-1.4-1-3.1-.6-4.7.6-1.1 1.4-2.1 2.3-2.9 1.5-.9 3.1-1.7 4.7-2.4l17.6-6.5 35.4-12.9c4.7-1.8 9.4-6.5 12.4-11.2 1.3-2.6 2.3-5.4 2.9-8.2l2.9-8.8 12.4-35.3 1.8-4.7c.5-2.1 1.8-4 3.5-5.3 1.4-1.4 3.6-1.6 5.3-.6 1.4.5 2.5 1.6 2.9 2.9 1 1.6 1.8 3.4 2.4 5.3l6.5 17.6 12.4 35.3c2 5.1 5.8 9.2 10.6 11.8 2.6 1.3 5.4 2.3 8.3 2.9l8.8 2.9 35.3 12.4 4.7 1.8c2.1.5 4 1.8 5.3 3.5 1.4 1.4 1.6 3.6.6 5.3-.5 1.4-1.6 2.5-2.9 2.9-1.6 1-3.4 1.8-5.3 2.4l-17.6 6.5-35.3 12.4c-5.3 2.2-9.6 6.1-12.4 11.2-1.2 2.4-2.4 5.3-3.5 8.2l-2.9 8.8-12.9 35.3-1.8 4.7c-.6 1.8-1.2 3.5-2.9 4.7-1.2.6-2.9 1.2-4.1.6s-1.8-1.8-2.4-2.4c-.9-1.5-1.7-3.1-2.4-4.7l-5.9-17.6zm1.7-.5 12.9 35.3 6.5 17.6c.5 1.4 1.1 2.8 1.8 4.1l.6.6c1.2-1.2 2.4-4.7 2.9-7.6l12.4-35.9 2.9-8.8c1.2-2.9 1.8-5.9 3.5-9.4 3.5-5.9 8.2-11.2 15.3-13.5l35.3-12.4 17.6-6.5c1.3-.3 2.5-.9 3.5-1.8.3 0 .6-.2.6-.6v.6c-.6-.6-4.1-1.8-7.1-2.9l-35.3-12.4-8.8-2.9c-2.9-1.2-5.9-1.8-9.4-3.5-6.3-3.4-11.2-8.8-14.1-15.3l-12.4-35.3-6.5-17.6c-.3-1.3-.9-2.5-1.8-3.5 0-.3-.2-.6-.6-.6h1.2c-.6.6-1.8 4.1-2.9 7.1l-12.2 35.2-2.9 8.8c-1.2 2.9-1.8 5.9-3.5 9.4-3.5 5.9-8.8 11.2-15.3 13.5l-35.9 12.4-17.7 5.9c-1.3.3-2.5.9-3.5 1.8-.3 0-.6.2-.6.6.6 1.2 4.1 2.4 7.1 3.5l35.3 12.9c5.9 2.4 11.8 4.1 17.6 7.1 5.9 3.1 10.6 8.1 13.5 14.1z"/><path d="m1004.2 236.7c-1.4-3.4-4.8-7.6-9-9l-19.3-6.9c-3.4-1.4-3.4-3.4 0-4.8l19.3-6.9c3.4-1.4 7.6-4.8 9-9l6.9-19.3c1.4-3.4 3.4-3.4 4.8 0l6.9 19.3c1.4 3.4 4.8 7.6 9 9l19.3 6.9c3.4 1.4 3.4 3.4 0 4.8l-19.3 6.9c-3.4 1.4-7.6 4.8-9 9l-6.9 19.3c-1.4 3.4-3.4 3.4-4.8 0z"/><path d="m1003.5 236.7c-1.2-2.1-2.9-4-4.8-5.5-1.9-1.2-4-2.1-6.2-2.8l-14.5-4.1c-1.3-.6-2.7-1-4.1-1.4-.7-.7-2.1-.7-2.8-2.1-.7-.8-.7-2 0-2.8 0-.7.7-1.4 1.4-2.1 2.1-1.4 3.4-2.1 4.1-2.1l3.4-1.4 14.5-5.5c1.8-.9 3.4-2.1 4.8-3.4 1.4-1.4 2.1-2.8 2.8-5.5l4.8-14.5c.6-1.3 1-2.7 1.4-4.1.7-.7.7-2.1 2.8-2.8.7-.7 2.8-.7 3.4-.7 1.4.7 2.1.7 2.8 1.4 2.1 2.1 2.1 3.4 2.8 4.8l1.4 3.4 4.8 14.5c.9 1.8 2.1 3.4 3.4 4.8 1.4 1.4 2.8 2.1 5.5 2.8l14.5 5.5c1.3.6 2.7 1 4.1 1.4.7.7 2.1.7 2.8 2.8.7 1 .7 2.4 0 3.4-.7 1.4-.7 2.1-1.4 2.1-1.2 1.4-3 2.2-4.8 2.1l-3.4 1.4-14.5 4.8c-1.8.9-3.4 2.1-4.8 3.4-1.4 1.4-2.1 2.8-2.8 5.5l-5.5 14.5c-.6 1.3-1 2.7-1.4 4.1-.7.7-.7 1.4-2.1 2.8-.8.7-2 .7-2.8 0-.7 0-1.4-.7-2.1-1.4-1.4-1.4-1.4-3.4-2.1-4.1l-1.4-3.4zm2.1-.7 5.5 14.5 1.4 3.4c.7 1.4.7 2.1 1.4 2.8-.4-.4-1-.4-1.4 0v-.7c.3-1.2.7-2.4 1.4-3.4l4.8-14.5c.7-2.1 2.1-5.5 4.1-7.6 2.1-2.4 4.7-4.3 7.6-5.5l14.5-5.5 3.4-1.4c.6-.4 1.3-.6 2.1-.7l-.7.7v2.1c-1.2-.3-2.4-.7-3.4-1.4l-14.5-4.8c-2.1-.7-6.2-2.1-8.3-4.1-2.4-2.1-4.3-4.7-5.5-7.6l-4.8-14.5-1.4-3.4c-.4-.6-.6-1.3-.7-2.1l.7.7h2.1c.7-.7.7-.7.7 0-.3 1.2-.7 2.4-1.4 3.4l-5.5 14.5c-.7 2.1-2.1 5.5-4.1 7.6-2.1 2.4-4.7 4.3-7.6 5.5l-14.5 4.8-3.4 1.4c-.8.5-1.8.7-2.8.7v-2.1c1.2.3 2.4.7 3.4 1.4l14.5 5.5c5.4 1.4 10 5.2 12.4 10.3z"/><path d="m1383.2 636.4-17.2 8.3 8.3-17.2-8.3-17.2 17.2 8.3 17.2-8.3-8.3 17.2 8.3 17.2z"/><path d="m1382.5 637c-5.5 3.4-10.3 6.9-15.9 9.6-1.2.5-2.6.3-3.4-.7-.6-.4-.7-1.2-.3-1.8.1-.1.2-.2.3-.3v-.7c2.1-6.2 4.8-11.7 7.6-17.9v2.8l-8.3-17.2c-.7-2.1 0-4.1 1.4-4.8 1-.7 2.4-.7 3.4 0l17.2 8.3h-3.4l17.2-8.3c2.1-.7 4.1 0 4.8 2.1.7 1 .7 2.4 0 3.4-2.8 5.5-5.5 11.7-8.3 17.2v-2.7c2.8 5.5 4.8 11.7 7.6 17.9.6 1.3.1 2.8-1.2 3.4-.1 0-.1.1-.2.1h-2.1c-5.4-3.5-10.2-6.9-16.4-10.4zm1.4-2c5.5 2.1 11.7 4.1 17.2 6.9l-3.4 3.4c-2.8-5.5-6.2-11-9-16.6-.7-.8-.7-2 0-2.8 2.8-5.5 5.5-11.7 8.3-17.2l4.8 4.8-17.2 8.3c-1 .7-2.4.7-3.4 0l-17.2-8.3 4.8-4.8 8.3 17.2c.7.8.7 2 0 2.8-2.8 5.5-6.2 11-9 16.6l-3.4-3.4c6.2-2.8 12.4-4.8 18.6-6.9z"/><path d="m1283.3 473.4-17.2 8.3 8.3-17.2-8.3-17.2 17.2 8.3 17.2-8.3-8.3 17.2 8.3 17.2z"/><path d="m1282.6 474.8c-5.5 3.4-10.3 6.9-15.9 9.6-1.2.5-2.6.3-3.4-.7-.6-.4-.7-1.2-.3-1.8.1-.1.2-.2.3-.3v-.6c2.1-6.2 4.8-11.7 7.6-17.9v2.8l-8.3-17.2c-.7-2.1 0-4.1 1.4-4.8 1-.7 2.4-.7 3.4 0l17.2 8.3h-3.4l17.2-8.3c2.1-.7 4.1 0 4.8 2.1.7 1 .7 2.4 0 3.4-2.8 5.5-5.5 11.7-8.3 17.2v-2.8c2.8 5.5 4.8 11.7 7.6 17.9.6 1.3.1 2.8-1.2 3.4-.1 0-.1.1-.2.1h-2.1c-5.1-3.9-10.6-7.4-16.4-10.4zm1.4-2.1c5.5 2.1 11.7 4.1 17.2 6.9l-3.4 3.4c-2.8-5.5-6.2-11-9-16.6-.7-.8-.7-2 0-2.8 2.8-5.5 5.5-11.7 8.3-17.2l4.8 4.8-17.2 8.3c-1 .7-2.4.7-3.4 0l-17.2-8.3 4.8-4.8 8.3 17.2c.7.8.7 2 0 2.8-2.8 5.5-6.2 11-9 16.6l-3.4-3.4c6.2-2.8 12.4-4.8 18.6-6.9z"/><path d="m289 375c-3.4-1.2-7.2-1.2-10.6 0l-21.8 10.6c-2.9 1.2-4.1 0-2.9-2.9l10.6-21.8c1.2-3.4 1.2-7.2 0-10.6l-10.6-21.8c-1.2-2.9 0-4.1 2.9-2.9l21.8 10.6c3.4 1.2 7.2 1.2 10.6 0l21.8-10.6c2.9-1.2 4.1 0 2.9 2.9l-10.6 21.8c-1.2 3.4-1.2 7.2 0 10.6l10.6 21.8c1.2 2.9 0 4.1-2.9 2.9z"/><path d="m288.4 375.6c-2.5-.6-5.1-.6-7.6 0-2.4.6-4.7 2.4-7.1 3.5l-14.7 7.6c-1.5.8-3.1 1.4-4.7 1.8h-2.3c-.9-.4-1.6-1.3-1.8-2.4-.6-1.8 0-2.4.6-3.5l3.5-7.6 7.1-14.7c.8-2.1 1-4.3.6-6.5 0-1.8-1.8-4.1-2.9-6.5l-7.1-14.7c-.8-1.5-1.4-3.1-1.8-4.7 0-1 .2-2 .6-2.9.6-1.2 1.8-2.4 2.9-2.4 1.4-.5 2.9-.3 4.1.6l7.6 3.5 14.7 7.1c1.8.6 4.1 1.2 5.9.6 1.8 0 4.1-1.8 6.5-2.9l14.7-7.1c1.5-.8 3.1-1.4 4.7-1.8 1 0 2 .2 2.9.6 1.2.6 2.4 1.8 2.4 2.9.5 1.2.3 2.6-.6 3.5l-3.5 7.6-7.1 14.7c-.8 2.1-1 4.3-.6 6.5 0 1.8 1.8 4.1 2.9 7.1l6.5 14.7c.8 1.5 1.4 3.1 1.8 4.7v2.4c-.6 1.2-1.2 1.8-2.4 1.8-1.8 0-2.4 0-2.9-.6l-7.6-3.5zm.6-1.8 14.7 6.5 7.6 3.5h.6c-.3 0-.6.2-.6.6-.2-1-.6-2-1.2-2.9l-7.6-14.7-1.8-3.5c-.7-1.5-1.3-3.1-1.8-4.7-.7-3.4-.3-6.9 1.2-10l7.1-14.7 3.5-7.1c0 .6.5 1.1 1.2 1.2h.6c-1 .3-2 .7-2.9 1.2l-14.7 7.1-3.5 1.8c-1.5.7-3.1 1.3-4.7 1.8-3.5.6-6.5.6-10-1.2l-14.7-7.1-7.1-3.5c.6 0 1.1-.5 1.2-1.2v-.6c.3 1 .7 2 1.2 2.9l7.1 14.7 1.8 3.5c.7 1.5 1.3 3.1 1.8 4.7.6 3.5.6 6.5-1.2 10l-7.7 14.7-3.5 7.1v.6c-.3-.3-.5-.7-.6-1.2 1-.2 2-.6 2.9-1.2l15.3-6.5c2.6-1.4 5.3-2.4 8.2-2.9 2.5-0 5.1.4 7.6 1.1z"/><path d="m80.9 613.7c-1.2-2.9-4.1-6.5-7.6-7.6l-16.5-5.9c-2.9-1.2-2.9-2.9 0-4.1l16.5-5.9c2.9-1.2 6.5-4.1 7.6-7.6l5.9-16.5c1.2-2.9 2.9-2.9 4.1 0l5.9 16.5c1.2 2.9 4.1 6.5 7.6 7.6l16.5 5.9c2.9 1.2 2.9 2.9 0 4.1l-16.5 5.9c-2.9 1.2-6.5 4.1-7.6 7.6l-5.9 16.5c-1.2 2.9-2.9 2.9-4.1 0z"/><path d="m80.3 613.7c-1-1.8-2.4-3.4-4.1-4.7-1.6-1-3.4-1.8-5.3-2.4l-12.3-3.5c-1.1-.5-2.3-.9-3.5-1.2-.6-.6-1.8-.6-2.3-1.8-.6-.7-.6-1.7 0-2.4 0-.6.6-1.2 1.2-1.8 1.8-1.2 2.9-1.8 3.5-1.8l2.9-1.2 12.4-4.7c1.5-.8 2.9-1.8 4.1-2.9 1.2-1.3 2.1-2.9 2.3-4.7l4.1-12.4c.5-1.1.9-2.3 1.2-3.5.6-.6.6-1.8 2.3-2.4.6-.6 2.3-.6 2.9-.6 1.2.6 1.8.6 2.3 1.2 1.8 1.8 1.8 2.9 2.3 4.1l1.2 2.9 4.1 12.4c.8 1.5 1.8 2.9 2.9 4.1 1.3 1.2 2.9 2.1 4.7 2.4l12.3 4.7c1.1.5 2.3.9 3.5 1.2.6.6 1.8.6 2.3 2.4.6.9.6 2 0 2.9-.6 1.2-.6 1.8-1.2 1.8-1 1.2-2.5 1.9-4.1 1.8l-2.9 1.2-12.1 4.2c-1.5.8-2.9 1.8-4.1 2.9-1.2 1.3-2.1 2.9-2.3 4.7l-4.8 12.4c-.5 1.1-.9 2.3-1.2 3.5-.6.6-.6 1.2-1.8 2.4-.7.6-1.7.6-2.3 0-.6 0-1.2-.6-1.8-1.2-1.2-1.2-1.2-2.9-1.8-3.5l-1.2-2.9zm1.7-.6 4.7 12.4 1.2 2.9c.6 1.2.6 1.8 1.2 2.4-.3-.3-.8-.3-1.1 0v-.6c.2-1 .6-2 1.2-2.9l4.1-12.4c.7-2.4 1.9-4.6 3.5-6.5 1.8-2 4-3.6 6.5-4.7l12.3-4.7 2.9-1.2c.5-.3 1.1-.5 1.8-.6l-.6.6v1.8c-1-.2-2-.6-2.9-1.2l-12.3-4.1c-1.8-.6-5.3-1.8-7.1-3.5-2-1.8-3.6-4-4.7-6.5l-4.1-12.4-1.2-2.9c-.3-.5-.5-1.1-.6-1.8l.6.6h1.8c.6-.6.6-.6.6 0-.2 1-.6 2-1.2 2.9l-4.7 12.4c-.7 2.4-1.9 4.6-3.5 6.5-1.8 2-4 3.6-6.5 4.7l-12.3 4.1-2.9 1.2c-.7.4-1.5.6-2.3.6v-1.8c1 .2 2 .6 2.9 1.2l12.3 4.7c4.5 1.2 8.4 4.5 10.4 8.8z"/></g><path d="m823.4 697.2c0-103.6-57.3-186.5-137.2-200.6-11.6 38.4-73.8 39.6-87.2 1.8l-.6-1.8c-89 18.3-151.2 101.8-160.3 198.1-13.4 138.4-3 116.4-3 116.4h389.5" fill="#5198d9"/><path d="m549.7 638c.6 7.3-.6 14-.6 21.3l-1.8 21.3-3.7 42-4.3 42.1c-1.1 14.1-3.2 28.2-6.1 42.1 0 .6-.6.6-1.2.6s-.6-.6-.6-1.2c-.6-14 .6-28 1.8-42.1l3.7-42.1 3.7-42.1 1.8-21.3c.6-6.7 1.2-14 3-20.7.6-1.2 1.2-1.8 2.4-1.2.6.1 1.2.7 1.9 1.3zm134.1-173.1c1.2 3.7 1.2 7.9 1.2 11.6-.1 3.7.1 7.4.6 11 .7 3 2.4 5.6 4.9 7.3 1.4.7 2.8 1.3 4.3 1.8 1.8.6 4.3 1.2 6.1 1.8 15.2 5.5 28 14 40.8 23.2 12.4 9.4 24.1 19.8 34.7 31.1 10.4 11.6 19.5 24.4 25.6 39 0 .6 0 1.2-.6 1.2s-1.2 0-1.2-.6c-8.5-12.7-17.8-24.7-28-36-10.4-11.1-21.8-21.1-34.2-29.8-6.1-4.4-12.4-8.5-18.9-12.2-6.7-3.7-13.4-7.3-20.1-9.8-1.7-.5-3.3-1.1-4.9-1.8-2.2-.4-4.2-1.3-6.1-2.4-3.8-2.7-6.6-6.5-7.9-11-.5-2.2-.7-4.5-.6-6.7v-5.5c0-3.7-.6-7.9 1.2-11.6.6-1.2 1.8-1.8 3.1-.6-.7-1.2-.7-.6 0 0z" fill="#2271b1"/><path d="m700.2 301.5c7.3 14 11.6 29.9 15.2 45.1 3.8 15.6 6.1 31.5 6.7 47.6 0 15.9-2.4 32.9-11 46.9-4.4 7.2-10.2 13.4-17.1 18.3-7.3 4.9-15.2 7.3-23.2 9.1-16.4 3-33.3.7-48.2-6.7-14.6-6.7-28-17.1-39-28.6-22.5-23.2-37.8-51.8-47.5-81.7 0-.6 0-1.2.6-1.2s1.2 0 1.2.6c13.4 28.6 28.7 56.1 50.6 78.6 11 11 23.2 20.7 37.2 26.8s29.3 8.5 43.9 5.5c7.3-1.8 14.6-4.3 20.7-8.5s11.3-9.6 15.2-15.9c7.9-12.8 10.4-28.6 10.4-43.9s-2.4-31.1-6.1-46.3-9.1-29.9-13.4-45.1c-.6-1.2 0-2.4 1.2-2.4 1.4.6 2 .6 2.6 1.8z" fill="#2271b1"/><path d="m607.6 255.8c48.8-19.5 91.4-8.5 88.4 14.6-2.4 20.1-100.6 26.8-112.2 54.9-7.3 18.3 3.7 45.7 12.8 63.4 5.3 10.1 3.3 22.5-4.9 30.5l-8.5 10.4c-54.2-53.7-103-123.2 24.4-173.8zm59.7 106.1c3 4.9 5.5 10.4 7.9 15.2 1.8 5.5 4.3 11 5.5 16.5 0 1.2-.6 2.4-1.8 2.4s-1.8 0-2.4-1.2c-3-4.9-4.9-10.4-7.3-15.9-1.9-5.4-3.5-10.9-4.9-16.5 0-.6.6-1.8 1.2-1.8.6.7 1.2.7 1.8 1.3z" fill="#2271b1"/><path d="m696.6 366.7c3.1-1.2 4.7-4.7 3.7-7.9l-3.7-9.1c-1.2-3.2-4.7-4.8-7.9-3.7-3.2 1.2-4.8 4.7-3.7 7.9l3.7 9.1c1.2 3.2 4.7 4.8 7.9 3.7zm-59.8 23.2c3.1-1.2 4.7-4.7 3.7-7.9l-3.7-9.1c-1.2-3.2-4.7-4.8-7.9-3.7-3.2 1.2-4.8 4.7-3.7 7.9l3.7 9.1c.9 3.1 4.2 4.9 7.3 3.9.2 0 .4-.1.6-.2z" fill="#2271b1"/><path d="m670.8 431.4c-3.2 0-6.4-.9-9.1-2.7-1.6-1.1-2-3.2-1-4.8 1.1-1.6 3.2-2 4.8-1 0 0 .1 0 .1.1 2.5 1.7 6.1 2 10 .6 4.2-1.5 7.6-4.6 8.5-7.9.5-1.8 2.4-2.9 4.2-2.4h.1c1.8.5 2.9 2.4 2.4 4.3-1.5 5.4-6.5 10.2-12.8 12.5-2.3.9-4.8 1.3-7.2 1.3z" fill="#2271b1"/><path d="m622.2 350.9c-1.2 0-3 1.2-4.9 1.8-1.9.8-3.8 1.8-5.5 3-1.8 1.2-3 2.4-4.9 3.7-1.2 1.2-3 2.4-3.7 4.3-.6 1.2-1.8 1.2-3 .6-.6-.6-1.2-1.2-.6-2.4 1.2-5.5 5.5-8.5 9.1-11.6 2.1-1.4 4.3-2.4 6.7-3 2.6-.8 5.3-1 7.9-.6 1.2 0 1.8 1.2 1.2 2.4-.5.7-1.4 1.4-2.3 1.8zm48.2-23.2c1.8-2.4 4.3-3.7 6.1-4.9 2.1-1.1 4.4-1.7 6.7-1.8 4.9-.6 9.8-.6 14.6 2.4 1.2.6 1.2 1.8.6 3-.6.6-1.2 1.2-2.4.6-1.8-.5-3.6-.7-5.5-.6-2.1-.1-4.1.1-6.1.6-1.8.6-4.3.6-6.1 1.2-1.7.5-3.3 1.1-4.9 1.8l-.6.6c-1.2.6-2.4 0-2.4-.6z" fill="#2271b1"/><path d="m700.9 269.8c-48.8-85.3-211.5-17.7-170.7 87.2" fill="#2fb41f"/><path d="m741.1 255.2c-17.1 10.4-35.4 19.5-53 28.6l-53.7 26.9-54.2 26.8c-18.3 9.1-36 17.7-54.2 26.2-1.2.6-2.4 0-2.4-1.2-.6-1.2 0-1.8.6-2.4 17.7-9.8 35.4-18.9 53.6-28l53.6-26.8 54.2-26.8c18.3-9.1 36-17.7 54.9-25 .7-.1 1.3.1 1.8.6-.6 0-.6 1.2-1.2 1.1z" fill="#cdc9cd"/><path d="m608.8 316.8c34.8-32.9 91.4-86.6 131.1-62.8m-131.7 62.2c8.5-9.8 17.7-18.9 27.4-27.4 9.8-8.6 20.2-16.5 31.1-23.8 11-7.3 22.5-13.4 36-17.1l4.9-1.2c1.8 0 3.7-.6 4.9-.6 1.8 0 3.7-.6 4.9-.6l4.9.6c3.7 0 6.7 1.2 9.8 2.4s6.1 3 9.1 4.3c.9.5 1.4 1.5 1.2 2.4 0 .6-1.8 1.2-2.4 1.2-11-5.5-23.8-5.5-35.4-2.4-12.2 3-23.2 9.8-33.5 16.5-10.7 7-20.9 14.7-30.5 23.2-9.8 8.5-19.5 17.1-29.9 25-.4.5-1.1.6-1.6.2-.1-.1-.2-.1-.2-.2-1.3-1.3-1.3-1.9-.7-2.5zm75.6 493.1h275.5v-23.2h-256c-10.6-.1-19.4 8.4-19.5 19v.5z" fill="#cdc9cd"/><path d="m834.4 809.3h322.5l28.6-206.6c2.4-18.9-12.2-36-31.1-36h-259.1c-15.9-.2-29.3 11.7-31.1 27.4z" fill="#e3dfe2"/><path d="m1472.3 813c-45.3 2.4-90.5 3-135.8 4.3l-1029.8.6c-90.5-.6-215.2 0-305.8-3.7-.4-.1-.8-.9-.8-1.8-.1-.9.2-1.7.6-1.8h.2c90.5-3.7 215.2-3 305.8-3.7l1029.8.6c45.3.6 90.5 1.2 135.8 4.3.3 0 .5.6.5 1.2-.1-.4-.4-.4-.5 0 0-.1 0 0 0 0z" fill="#eff3f7"/><path d="m599 466.7c1.2 5 2 10.1 2.4 15.2 0 4.9.6 9.8.6 15.2v-1.1c1.2 2.4 2.4 5.5 3.7 8.5 1.3 2.7 2.9 5.1 4.9 7.3 1.9 2.3 4.2 4.4 6.7 6.1 2.4 2 5.1 3.6 7.9 4.9.5.5.7 1.2.6 1.8 0 .6-.6.6-1.2.6-3.7-.6-6.7-1.2-9.8-3s-6.1-3.7-8.5-6.7c-2.4-2.6-4.4-5.4-6.1-8.5-1.8-3.1-3.2-6.3-4.3-9.8v-1.2c-.1-5.1.1-10.2.6-15.2.6-4.9 1.2-9.8 2.4-15.2-1.1 1.2-.5.6.1 1.1z" fill="#2271b1"/><path d="m274.2 743.8-110.8 49.5 20.2 4.4zm-4.4-8.7-140.1 51 26.3 5.6z" fill="#fff"/></svg>