<svg enable-background="new 0 0 1562 968.3" viewBox="0 0 1562 968.3" xmlns="http://www.w3.org/2000/svg" xmlns:xlink="http://www.w3.org/1999/xlink"><filter id="a" filterUnits="userSpaceOnUse" height="13.9" width="1563.8" x="1.7" y="697.9"><feColorMatrix values="1 0 0 0 0 0 1 0 0 0 0 0 1 0 0 0 0 0 1 0"/></filter><mask id="b" height="13.9" maskUnits="userSpaceOnUse" width="1563.8" x="1.7" y="697.9"><g filter="url(#a)"><path d="m1.7 697.9h1563.8v13.8h-1563.8z" fill="#fff"/></g></mask><g fill="#fff"><path d="m1117.5 416.8 22.4-86.8-2.3-97.6-779.6 32.6.5 559.1 214.6 3.2z"/><path d="m1382.5 803.1c0-3.1 9.2-63.4 9.2-63.4l-47.3-26.7-9.2 81.7 13.8 6.7z"/><path d="m1186.3 461.7s61.8 24.5 48.9 36.2c-17.3 15.7-1.8 32.3 7 37.2 9 5 7.1 20.1-5.5 37.5-19.3 26.7-34.4 29.6-44.3 23.1s-25.1-23-23.6-34.5 15.9-7.2 23.3-22.1c6.1-12.4-.9-4.4-13.1-8-10.4-3-13.9-45-12-52.6 1.7-7.5 9.3-16.8 19.3-16.8"/><path d="m210.8 817.6-64.8 88.5 53 54.9 38.1-61.7z"/><path d="m251.8 367.2c-18.4-5.8-46.2 74.5-35.4 85.3s18.5 44.9 24.4 50.9c6 6 .8 25.7 7.6 25.7 6.9 0 22.1-26 23.7-36.6 1.5-10.7 9-26 7.9-36.6-1-10.7 9.5-31.6 9.5-47.1s4.2-26.9-8.9-36.9c-13-10-24-3.2-28.8-4.7"/></g><path d="m58.7 232.1c12.4-.4 24.9-.9 37.3-1.1 12.4-.3 24.9-.6 37.3-.7l-2.3 1.7c3.8-11.6 8.9-22.7 15.7-33.1 7-10.1 15.6-20 28-25.2 25.3-10.8 56.7 5.6 62.5 31.2.6 3.2.8 6.7 0 10.1s-2.8 7.1-6.2 9.2c-3.3 2.2-7.3 2.8-10.7 2.8-3.4-.1-7.8-.8-10.8-4.3-2.9-3.5-2.7-8-1.5-11.3 1.1-3.4 3.1-6.2 5.4-8.7 4.6-4.9 10.5-8.3 16.8-10.4 6.3-2 13-2.7 19.6-2 6.6.4 13.4 2.7 18.6 7.1 5.3 4.4 8.3 10.6 9.8 16.7s1.8 12.5.9 18.7l-2.5-2.8c27.1.2 54.1.7 81.2 1.3.6 0 1.1.5 1.1 1.1s-.5 1.1-1.1 1.1c-27.1.6-54.1 1.1-81.2 1.3-1.4 0-2.5-1-2.6-2.4v-.4c1.1-10.9-1-23.6-9.5-30.5-4.2-3.4-9.7-5.3-15.4-5.6-5.8-.6-11.6 0-17.1 1.8-5.4 1.8-10.4 4.8-14.1 8.8-1.8 2-3.3 4.3-4 6.6-.8 2.3-.6 4.5.5 5.7 2 2.5 9.7 2.6 12.9.2 3.7-2.4 4.6-8 3.4-13.1-2.2-10.5-10.4-20-20.5-25.1-5.1-2.7-10.8-4.1-16.5-4.7-5.7-.1-11.5.2-16.6 2.7-10.7 4.3-18.9 13.4-25.6 22.9-6.7 9.6-11.9 20.4-15.8 31.4v.1c-.4 1-1.3 1.6-2.3 1.6-12.4-.1-24.9-.4-37.3-.7-12.4-.2-24.9-.8-37.3-1.1-.3 0-.6-.3-.6-.6 0 0 .2-.3.5-.3" fill="#e8eef3"/><path d="m704.2 904.7c15.5-9.9 31.3-19.3 47.5-28.1 8-4.5 16.2-8.8 24.4-12.9s16.3-8.5 24.7-12.5c16.7-7.8 33.1-16.1 50.1-23.3 16.9-7.5 33.7-15 50.9-21.6l25.7-10.2c8.5-3.5 17.3-6.3 26-9.5 17.4-6.1 34.6-12.8 52.3-18.1 17.6-5.5 35.1-11.3 52.8-16.7l53.3-14.8 13.3-3.7 13.5-3.2 26.9-6.4c18-4.2 35.9-8.7 54.1-11.9l54.4-10.5c18.2-3.2 36.5-5.7 54.7-8.4 36.5-6 73.3-8.6 110-12.4 9.2-1 18.4-1.9 27.6-2.2l27.7-1.4 55.3-2.5c.6 0 1.2.4 1.2 1.1 0 .6-.4 1.1-1.1 1.2h-.1l-55.2 3.8c-18.4 1.4-36.8 1.8-55.1 4.2-36.6 4.2-73.3 7.3-109.6 13.7-18.2 3-36.4 5.3-54.6 8.5l-54.2 10.5c-18.1 3.2-36 7.7-53.9 11.9l-26.9 6.4-13.4 3.2-13.3 3.7-53.2 14.8c-17.6 5.3-35.1 11.1-52.6 16.6-17.6 5.3-34.8 12-52.1 18-8.6 3.2-17.4 6-25.9 9.5l-25.6 10.1c-8.5 3.5-17.2 6.5-25.6 10.1l-25.4 10.7c-17 6.9-33.6 14.9-50.4 22.4-8.4 3.8-16.5 8-24.8 12s-16.5 8.1-24.6 12.4c-16.4 8.3-32.5 17.1-48.3 26.4-.3.2-.6.1-.8-.2-.1-.2 0-.6.3-.7" fill="#ccced0"/><path d="m705.9 822.5c49.1 18.6 78.7 32.4 78.7 32.4" fill="#fff"/><path d="m706.6 822.5c7.5 1.3 14.6 3.6 21.5 6.2 7 2.6 13.9 5.3 20.7 8.3 13.5 6.2 27.2 12.1 39.8 20.3.6.4.7 1.1.3 1.7-.3.4-.9.6-1.4.5-14.2-4.6-27.6-10.8-41.4-16.3-6.8-2.9-13.6-5.9-20.3-9s-13.4-6.4-19.7-10.6c-.3-.2-.4-.6-.2-.8.2-.3.4-.4.7-.3" fill="#ccced0"/><path d="m-1.7 756.6c27-12.3 55.6-20.9 84.6-27.3 29.1-6.1 58.6-10 88.3-11.9 59.3-3.4 119-.3 177.4 9.3.6.1 1.1.7 1 1.3s-.7 1.1-1.3 1c-58.8-5.7-117.9-9.2-176.7-5.1-29.4 1.8-58.7 5.3-87.5 11.1-28.9 5.5-57.3 13.3-85.4 22.7-.3.1-.6-.1-.7-.4-.1-.2.1-.6.3-.7" fill="#ccced0"/><path d="m355.1 831.7-.9-582.7" fill="#fff"/><path d="m355.7 831.7c-4.8-48.6-4.6-97.1-5-145.7l-1.1-145.7.5-145.7c.2-48.6-.3-97.1 4.4-145.7h2.9c4.8 48.6 4.6 97.1 5 145.7l1.1 145.7-.5 145.7c-.2 48.6.3 97.1-4.4 145.7z" fill="#ccced0"/><path d="m1140.8 276.7v545.8h-675.5" fill="#fff"/><path d="m1140.6 276.7c1.5 45.7 2.3 91.4 3 137.1.8 45.7.8 91.4 1.2 137.1l.6 274.1v6.2h-6.2l-168.5.5-168.5-.4-168.5-.5c-56.2-.6-112.3-1-168.5-4.3v-2.9c56.2-3.3 112.3-3.8 168.5-4.3l168.5-.5 168.5-.4 168.5.5-6.2 6.2.6-274.1c.4-45.7.4-91.4 1.2-137.1.7-45.7 1.5-91.4 3-137.1h2.8z" fill="#ccced0"/><path d="m349.6 276.7v-73.7c0-25.7 21.1-46.6 47.1-46.6h696.9c26 0 47.1 20.8 47.1 46.6v73.7z" fill="#bbc9d5"/><path d="m1177.8 276.7h-869.8" fill="#def2fa"/><path d="m1177.8 280.5c-72.5 4.5-145 4.4-217.5 4.7l-217.4.8-217.5-.8c-72.5-.3-145-.2-217.5-4.7v-2.9c72.5-4.5 145-4.4 217.5-4.7l217.5-.8 217.5.8c72.5.3 145 .2 217.5 4.7v2.9z" fill="#204a69"/><path d="m423.6 757.7h175.9v-407h-175.9" fill="#069e08"/><path d="m1043.4 415.5h-295.9v-64.7h314.6v46c0 10.3-8.3 18.7-18.7 18.7" fill="#ccced0"/><path d="m710.5 415.5h-60.1v-41.7c0-10.2 8.2-18.4 18.4-18.4h41.7z" fill="#e1e2e2"/><path d="m1043.4 757.7h-295.9v-111h314.6v92.6c0 10.2-8.4 18.4-18.7 18.4" fill="#ccced0"/><path d="m710.5 706.8h-60.1v-41.7c0-10.2 8.2-18.4 18.4-18.4h41.7z" fill="#e1e2e2"/><path d="m1043.4 595.9h-295.9v-138.8h314.6v120.4c0 10.1-8.4 18.4-18.7 18.4" fill="#ccced0"/><path d="m710.5 517.2h-60.1v-41.7c0-10.2 8.2-18.4 18.4-18.4h41.7z" fill="#069e08"/><path d="m562.4 445.5c0 26.8-21.7 48.6-48.6 48.6s-48.6-21.7-48.6-48.6 21.8-48.5 48.7-48.5 48.5 21.7 48.5 48.5" fill="#fff"/><g mask="url(#b)" transform="translate(.938 254.102)"><path d="m2.8 703.6c130-3.4 260.1-4.1 390.1-4.9l390.1-.8c260.1.7 520.1.3 780.2 4.5 1.3 0 2.3 1.1 2.3 2.5 0 1.3-1 2.4-2.3 2.4-260.1 4.2-520.1 3.7-780.2 4.5l-390.1-.8c-130-.8-260.1-1.6-390.1-4.9-.6 0-1.1-.6-1.1-1.2 0-.8.5-1.3 1.1-1.3" fill="#e8eef3"/></g><path d="m1302.2 434-5.6-19.5c-16.6 2.2-23.4-6.7-29.7-20.8-1.8-4-9.8-3.3-10.5-8-.8-6.1 8.7-10.2 8.4-22.5-.1-6.9 1.3-15.9 7.9-17.1 0 0 31.5 13.1 47.3 29.3 7.1 18.9 11.3 27.8 11.3 27.8l8.3 19.3z" fill="#ccced0"/><path d="m394.3 873.5c-2.4-11.3-4.9-22.6-8-33.6-1.5-5.5-3.2-10.9-5.2-16.3-1.9-5.2-4.3-10.7-7.4-14-1.3-1.5-1.3-3.5 0-4.7 1.2-1.1 3.1-1.2 4.3-.1 9.6 8.8 17 19.1 23.8 29.8 6.7 10.7 12.6 21.9 17.7 33.5 5 11.6 9.5 23.5 12.7 35.8 3.3 12.2 5.6 24.9 5.3 37.7 0 .6-.5 1.1-1.1 1.1s-1.1-.5-1.1-1.1c-.7-12.4-3.7-24.6-7.3-36.4-3.7-11.8-8.2-23.4-13.5-34.7-5.2-11.2-11.1-22.2-17.7-32.6-6.6-10.3-12.1-22.1-9.9-16.6 2 5.6 3.7 11.2 5.2 16.9 3 11.3 5.5 22.7 7.7 34.1 2.1 11.5 4 22.9 5.6 34.5 1.6 11.5 2.9 23.1 3.8 34.7 0 .3-.2.6-.5.6s-.5-.2-.6-.5c-4.8-22.7-8.9-45.5-13.8-68.1z" fill="#ccced0"/><path d="m432.3 883.8c-.7-9.2-1.6-18.3-3.2-27.3-.8-4.5-1.8-8.9-3.2-13.1s-3.3-8.3-5.8-10.7c-1.4-1.3-1.4-3.3-.2-4.6 1.3-1.3 3.3-1.4 4.6-.3 8.6 6.9 15.4 15.3 21.3 24.2 5.8 8.9 10.6 18.3 14.4 28.2 3.7 9.8 6.6 20 8.3 30.3 1.6 10.3 2.1 20.9.5 31.3-.1.6-.7 1.1-1.3 1s-1-.6-1-1.2c.6-10.1-.7-20.3-2.8-30.2s-5.2-19.7-9.1-29c-7.7-18.7-24.1-45.3-22.6-40.7s2.4 9.3 3.2 14c1.6 9.3 2.4 18.6 2.9 28 .3 9.3.5 18.6.2 27.9s-.9 18.6-2 27.8c0 .3-.3.6-.7.5-.3 0-.5-.3-.5-.6-1-18.6-1.4-37.1-3-55.5z" fill="#ccced0"/><g transform="translate(84.24 173.787)"><path d="m185.6 524.6c26.2 48.1 30.4 67.7 26.2 95.5-4.2 27.7-32.1 63.6-32.1 63.6" fill="#fff"/><path d="m179.7 685.3c-.3 0-.7-.1-1-.3-.7-.5-.8-1.5-.3-2.2.3-.4 27.7-35.9 31.8-62.9 3.9-25.7 1.2-44.5-26-94.5-.4-.8-.1-1.7.6-2.1.8-.4 1.7-.1 2.1.6 25.2 46.3 30.9 67 26.4 96.4-4.2 27.8-31.3 62.9-32.4 64.4-.3.4-.7.6-1.2.6z" fill="#bbc9d5"/></g><path d="m196.6 503.4c-7.3 40.5-8.9 117-8.9 117l78.7 3.2s15.1-88 6.7-104" fill="#bbc9d5"/><g transform="translate(81.285 96.027)"><path d="m198.8 359.7c6.3 55.5-17.9 74.7-26.1 63.7" fill="#fff"/><path d="m178.4 428c-2.7 0-5.2-1.2-7-3.6-.5-.7-.4-1.7.3-2.2s1.7-.4 2.2.3c1.7 2.3 4.2 2.9 7.1 1.8 9-3.6 20.8-23.7 16.2-64.4-.1-.9.5-1.6 1.4-1.7s1.6.5 1.7 1.4c2.7 23.3 0 60.5-18.1 67.6-1.2.5-2.5.8-3.8.8z" fill="#bbc9d5"/></g><path d="m284.5 379.1c6 3.9 10.2 9.6 11.1 16.9 1.7 13 12.4 16 12.5 22.5.1 5.1-8.6 5.6-9.9 10.1-4.4 15.8-16.7 27.3-34.7 27.5" fill="#fff"/><path d="m263.5 457.6c-.9 0-1.6-.7-1.6-1.5 0-.9.7-1.6 1.5-1.6 10.8-.1 19.8-4.5 26.1-12.2-2.2-1.7-4.7-4.2-6.1-7.7-.3-.8.1-1.7.9-2s1.7.1 2 .9c1.1 2.9 3.3 5 5.1 6.3 2.3-3.4 4-7.3 5.2-11.6.8-2.7 3.4-4.2 5.7-5.5 2.6-1.5 4.2-2.5 4.2-4.1 0-2.2-1.8-4.1-4-6.5-3.3-3.5-7.4-7.9-8.4-15.8-.8-6.5-4.4-11.9-10.4-15.8-.7-.5-.9-1.4-.5-2.2.5-.7 1.4-.9 2.2-.5 6.8 4.4 10.9 10.6 11.8 18 .9 6.9 4.5 10.7 7.6 14.1 2.5 2.7 4.8 5.2 4.9 8.6.1 3.6-3 5.4-5.8 6.9-1.9 1.1-3.8 2.1-4.2 3.6-1.3 4.7-3.2 8.8-5.6 12.5.4.2.7.3.7.3.8.3 1.2 1.3.8 2.1-.3.8-1.3 1.2-2.1.8-.1 0-.6-.2-1.3-.7-6.8 8.6-16.8 13.5-28.7 13.6z" fill="#204a69"/><path d="m212.8 480.9c21.8-9 66.4 74.2 66.4 74.2l45.2-74.7 25.2 10.3s-23.2 105.1-67.4 109.5c-44.3 4.4-79.7-62.6-79.7-62.6s-17.8-45 10.3-56.7m78.6-65.4c-1.1 0-1.9-1.2-1.9-2.6l.1-4.2c0-1.4.9-2.5 2-2.4 1.1 0 1.9 1.2 1.9 2.6l-.1 4.2c-.1 1.4-1 2.4-2 2.4" fill="#204a69"/><path d="m192.2 619.4c-20.5 50.8 3.3 341.5 3.3 341.5h59.2s29.6-279.2 9-338.2" fill="#fff"/><path d="m254.7 962.4h-59.2c-.8 0-1.5-.6-1.6-1.4-1-11.9-23.6-291.6-3.2-342.2.3-.8 1.2-1.2 2-.9s1.2 1.2.9 2c-19.4 48 1.5 317.1 3.3 339.3h56.3c2.2-21.5 28.4-280.3 9-336.1-.3-.8.1-1.7 1-2 .8-.3 1.7.1 2 1 20.4 58.6-7.7 327.4-8.9 338.9-.1.8-.8 1.4-1.6 1.4zm17.2-494.5h-.1c-4.4-.3-7.5-1.7-9.4-4.3-3.9-5.3-1.8-14.3.6-24.7.4-1.9.9-3.8 1.3-5.7.6-2.6 1.1-5.8 1.6-9.5 2.4-15.3 5.6-36.3 18-46.4.7-.5 1.7-.5 2.2.2.6.7.5 1.7-.2 2.2-11.4 9.4-14.5 29.7-16.9 44.5-.6 3.8-1.1 7-1.7 9.7-.4 1.9-.9 3.9-1.3 5.8-2.2 9.2-4.2 18-1.1 22.1 1.3 1.8 3.7 2.8 7.1 3 .9.1 1.5.8 1.5 1.7-.1.8-.8 1.4-1.6 1.4z" fill="#bbc9d5"/><path d="m205 455.5c-15.1-32.9 1.4-87.8 36.6-94.9 11.6-2.3 26 3.3 32.7 5.6" fill="#fff"/><path d="m192.3 958.2c-.4 0-.8-.2-1.2-.5l-46.3-50.5c-.5-.6-.6-1.4-.1-2l37.5-51.3c.5-.7 1.5-.9 2.2-.3.7.5.8 1.5.3 2.2l-36.6 50.2 45.4 49.5c.6.6.5 1.6-.1 2.2-.3.3-.7.5-1.1.5zm12.7-501.2c-.6 0-1.2-.3-1.4-.9-8.8-19.2-7.4-46.6 3.6-68.1 8.1-15.9 20.2-26.2 34.1-29 11.1-2.2 24.6 2.5 31.8 5l1.7.6c.8.3 1.3 1.2 1 2s-1.2 1.2-2 1l-1.8-.6c-6.9-2.4-19.8-7-30.1-4.9-13 2.6-24.3 12.3-32 27.3-10.5 20.7-12 47-3.5 65.4.4.8 0 1.7-.8 2.1-.1.1-.4.1-.6.1z" fill="#bbc9d5"/><path d="m322 487.2c1.2-17 8.4-66.7 16.1-63.5s1.5 27.5 3.8 35.6 5.8 19.4-.8 34" fill="#fff"/><path d="m341.2 494.8c-.2 0-.4 0-.6-.1-.8-.4-1.1-1.3-.8-2.1 6.1-13.7 3.1-24.5.8-32.4l-.2-.5c-.9-3.3-.6-8.7-.3-14.4.5-8.3 1.1-18.6-2.7-20.2-.1 0-.2-.1-.4.1-5.5 3.4-12.1 42.3-13.6 62.1-.1.9-.8 1.5-1.7 1.4s-1.5-.8-1.4-1.7c.6-7.6 6.3-59.2 15-64.5 1.1-.6 2.2-.7 3.2-.3 5.8 2.5 5.2 13 4.6 23.2-.3 5.5-.6 10.6.2 13.4l.2.5c2.4 8.3 5.6 19.7-1 34.5-.1.7-.7 1-1.3 1zm9.4-26.9c-.2 0-.4 0-.6-.1-.8-.3-1.2-1.2-.9-2 .8-1.9 1.6-4.1 2.2-6-.1.2-.2.5-.3.7-.3.8-1.2 1.2-2 1-.8-.3-1.2-1.2-1-2 2.9-8.3 4.6-8.4 5.3-8.5.8-.1 1.5.3 2 1.1 1.4 2.4-1.5 10.4-3.3 14.9-.2.6-.8.9-1.4.9z" fill="#204a69"/><path d="m236 429.1c0 16 6.6 29.5 14.1 32.7" fill="#fff"/><path d="m220.1 689.9c-.5 0-1.1-.3-1.4-.8l-18.5-32.4c-.4-.7-.2-1.7.6-2.1.7-.4 1.7-.2 2.1.6l18.5 32.4c.4.7.2 1.7-.6 2.1-.2.1-.5.2-.7.2zm30-226.5c-.2 0-.4 0-.6-.1-8.6-3.7-15-18.4-15-34.2 0-.9.7-1.6 1.6-1.6s1.6.7 1.6 1.6c0 16.1 6.7 28.5 13.1 31.3.8.3 1.2 1.3.8 2.1-.3.6-.9.9-1.5.9z" fill="#bbc9d5"/><g transform="translate(67.984 86.624)"><path d="m147.3 339.2c-10.3 38.3-3.5 91.8 36.5 85.5" fill="#fff"/><path d="m177.5 426.7c-9.2 0-16.9-3.4-22.9-10.1-15.8-17.6-15.6-52.7-8.8-77.9.2-.8 1.1-1.3 1.9-1.1s1.3 1.1 1.1 1.9c-6.8 25.2-6.2 59 8.1 75 6.6 7.4 15.6 10.3 26.6 8.6.9-.1 1.7.4 1.8 1.3s-.4 1.7-1.3 1.8c-2.2.3-4.4.5-6.5.5z" fill="#bbc9d5"/></g><path d="m1187.2 596.7 5.1 53.8s29.8 76 5 47c32.7 38.2 72-9.3 72.9-53.7 1-49-16.1-82.4-35.7-92-10.8-5.3-26.5-.5-34.5 7.8-9.4 9.8-13.8 23.5-12.8 37.1" fill="#fff"/><path d="m1223.1 713c-6.9 0-14.9-2.5-23.1-10.5-1.1-1-2.4-2.4-3.7-4v-.1c-.6-.7-.5-1.6.2-2.2s1.6-.5 2.2.2c1.3 1.5 2.5 2.8 3.8 4.1 2.2 2 3 2 3 2 2.4-2.6-5.7-28.8-14.6-51.5-.1-.1-.1-.3-.1-.4l-5.2-53.8c-1-14.5 3.8-28.4 13.3-38.3 8.2-8.5 24.7-13.8 36.3-8.1 19 9.2 37.6 41.7 36.6 93.4-.6 29.7-18 60-38.7 67.4-2.9 1.1-6.3 1.8-10 1.8zm-15.6-8.3c7.8 5.4 16.1 6.6 24.6 3.6 19.6-7 36.1-36 36.6-64.5 1-50.3-16.8-81.8-34.9-90.6-10.4-5.1-25.3-.2-32.7 7.4-8.9 9.2-13.4 22.3-12.4 35.9l5.1 53.6c16.1 40.9 15.9 51.9 13.7 54.6z" fill="#6f93ad"/><path d="m1174.7 578.9c-.3 0-.6-.1-.9-.3-5.5-3.9-7.7-12.2-6.6-17.5 1.7-8.2 9.9-11.6 18.5-12.7 1.5-4.5 10.5-27 33.9-23 .9.1 1.4 1 1.3 1.8-.1.9-1 1.4-1.8 1.3-19.6-3.3-27.8 13.7-30 19.6 4.3-.2 8.5 0 12 .5.9.1 1.4.9 1.3 1.8s-.9 1.4-1.8 1.3c-9.5-1.4-28.1-1-30.4 10-.9 4.3 1.1 11.3 5.3 14.4.7.5.9 1.5.4 2.2-.2.4-.7.6-1.2.6zm64.5-18.5c-.5 0-.9-.2-1.2-.6-.5-.7-.4-1.7.3-2.2 4.1-3.1 6.9-8 7.3-13 .3-3-.3-5.6-1.6-7.1-10-11-26.3-.6-32.8 4.4-.7.5-1.7.4-2.2-.3s-.4-1.7.3-2.2c15.2-11.6 28.7-13.1 37-4 1.9 2.1 2.8 5.5 2.5 9.5-.5 5.9-3.7 11.6-8.5 15.2-.4.2-.8.3-1.1.3z" fill="#bbc9d5"/><g transform="translate(398.496 175.803)"><path d="m884.5 595.2-35.8 187.8 59.3 7 56.4-222m35.5-37c-7.3 48.9 75.5 188.8 75.5 188.8l-38 56.3s-72.6-106.4-86.9-150.5" fill="#fff"/><path d="m907.9 791.6h-.2l-59.3-7c-.4 0-.8-.3-1.1-.6s-.4-.8-.3-1.2l36-187.9c.2-.8 1-1.4 1.8-1.2s1.4 1 1.2 1.8l-35.5 186.1 56.2 6.7 56.1-220.7c.2-.8 1-1.4 1.9-1.1.8.2 1.3 1.1 1.1 1.9l-14.3 56.1c.2.2.3.4.4.6 13.1 40.2 75.6 133.7 85.4 148.2l36.1-53.5c-7.6-12.9-82.2-141.6-75.2-189 .1-.9.9-1.4 1.8-1.3s1.4.9 1.3 1.8c-7.1 47.8 74.5 186.4 75.3 187.8.3.5.3 1.2-.1 1.7l-38 56.3c-.3.4-.8.7-1.3.7s-1-.3-1.3-.7c-.7-1-69-101.4-85.8-147.2l-40.8 160.6c0 .6-.6 1.1-1.4 1.1z" fill="#204a69"/></g><path d="m1325.5 448.9c-41.8 21.6-38.5 87.8-43.4 117.6s-11.8 200.5-11.8 200.5l157.3-6.2s4.4-367-102.1-311.9" fill="#6f93ad"/><path d="m1183.6 780.8-27.8 157.6c-.8 4.6-4.5 8.2-9.2 8.9-8.1 1.2-19.8 4.6-19.8 14.7 0 2.5 20.5 3.5 36.2 3.8 10.4.2 19.7-6.6 22.8-16.7l47.4-154.1" fill="#bbc9d5"/><path d="m1220.3 796.6 85.9 132.3c2.6 3.9 2.2 9.1-.7 12.7-5.1 6.4-11.2 16.9-4.5 24.1 1.7 1.8 17.2-11.6 28.9-22.2 7.7-7 9.9-18.3 5.3-27.7l-69.2-143.3" fill="#bbc9d5"/><path d="m1270.3 403.2c-.4 0-.9-.2-1.2-.5-.6-.7-.5-1.6.2-2.2 0 0 3-2.7 4.1-8.4.2-.8 1-1.4 1.8-1.2s1.4 1 1.2 1.8c-1.3 6.8-5 10-5.1 10.1-.3.3-.6.4-1 .4z" fill="#204a69"/><path d="m1191.9 648.7-32.6 224.6 185-22-75.9-209.2z" fill="#fff"/><path d="m1159.3 874.9c-.4 0-.8-.2-1.1-.5s-.5-.8-.4-1.3l32.7-224.7c.1-.7.7-1.3 1.4-1.3l76.5-6.6c.7 0 1.4.4 1.6 1l75.9 209.2c.2.4.1 1-.1 1.4-.3.4-.7.7-1.1.7l-185.1 22c-.2.1-.3.1-.3.1zm34-224.8-32.2 221.4 181.1-21.5-74.8-206.2z" fill="#6f93ad"/><path d="m1215.6 564.4c-18.3 7-2.4 92.5-2.4 92.5l-16.8 75.6 6 1.4c13.3 3.1 26.6-4.9 30.4-18.2l14.5-51.8c-.1 0-.1-111.6-31.7-99.5" fill="#bbc9d5"/><path d="m1316.6 662.2c-.4 0-.8-.1-1.1-.4-.6-.6-.6-1.6 0-2.2.2-.2 23.5-24.6 36-44.2 23.8-37.3 21.5-54.2 14-110l-1.5-11c-.1-.9.5-1.6 1.3-1.8.8-.1 1.6.5 1.8 1.3l1.5 11c7.5 55.3 10 73.9-14.4 112.1-12.6 19.8-36.1 44.4-36.3 44.6-.5.4-.9.6-1.3.6zm-4.6-78.9c-.2 0-.5 0-.7-.1l-9.3-4.4c-.8-.4-1.1-1.3-.7-2.1s1.3-1.1 2.1-.7l9.3 4.4c.8.4 1.1 1.3.7 2.1-.3.4-.9.8-1.4.8zm0-11.2c-.8 0-1.4-.6-1.5-1.4-.1-.9.5-1.6 1.3-1.8l18.5-2.4c.8-.1 1.6.5 1.8 1.3.1.9-.5 1.6-1.3 1.8l-18.5 2.4c-.2.1-.3.1-.3.1zm9.4-16.3c-.8 0-1.5-.7-1.6-1.5-.4-11.3 0-36.8 0-37.1 0-.9.7-1.5 1.6-1.5s1.6.7 1.5 1.6c0 .3-.4 25.7 0 36.9.1.8-.6 1.6-1.5 1.6z" fill="#204a69"/><path d="m1330.5 685.3c-.4 0-.9-.2-1.2-.6l-46.3-55.5c-.6-.7-.5-1.7.2-2.2.7-.6 1.6-.5 2.2.2l46.3 55.5c.6.7.5 1.7-.2 2.2-.3.3-.7.4-1 .4z" fill="#fff"/><path d="m1284.2 629.8c-.2 0-.5-.1-.7-.2-.8-.4-1.1-1.3-.7-2.1l18.5-37c.4-.8 1.3-1.1 2.1-.7s1.1 1.3.7 2.1l-18.5 37c-.3.6-.8.9-1.4.9zm64.6-217.4c-.2 0-.5 0-.7-.2-.8-.4-1.1-1.3-.7-2.1.2-.4 18.4-39.4 3.1-64.4-7.2-11.8-22.7-16.3-34.8-16.6-11.7-.2-21.6 3.2-25.5 9.1-.5.7-1.5.9-2.2.4s-.9-1.5-.4-2.2c4.5-6.8 15.3-10.8 28.2-10.5s29.6 5.2 37.4 18.1c16.2 26.5-2.1 65.7-2.9 67.4-.3.7-.9 1-1.5 1zm-23.6-9.2c-.2 0-.3 0-.5-.1-.8-.3-1.3-1.1-1-2 .1-.5 3.4-11.4-6.1-24.3-3.8-5.2-11.1-9.3-18.8-13.6-12.2-6.8-24.8-13.8-25.4-26.4 0-.9.6-1.6 1.5-1.6 1-.1 1.6.6 1.6 1.5.5 10.8 12.3 17.4 23.8 23.8 8 4.5 15.6 8.7 19.8 14.5 10.4 14.2 6.7 26.5 6.5 27.1s-.8 1.1-1.4 1.1zm-17.9-27.8h-.4l-52.5-13.1-1.1 7.2c-.1.9-1 1.4-1.8 1.3-.9-.1-1.4-.9-1.3-1.8l1.2-7.5c-.8-.2-1.3-1.1-1.1-1.9s.9-1.3 1.6-1.2l1.3-7.9c.1-.9 1-1.4 1.8-1.3.9.1 1.4.9 1.3 1.8l-1.3 8.2 52.7 13.2c.8.2 1.3 1.1 1.1 1.9-.1.7-.8 1.1-1.5 1.1z" fill="#204a69"/><path d="m1298.6 458.7c-.7 0-1.3-.4-1.5-1.1l-5.1-18.1c-.2-.8.2-1.7 1-1.9l60.1-18.9c.8-.3 1.7.2 2 1s-.2 1.7-1 2l-58.7 18.5 4.7 16.6c.2.8-.2 1.7-1.1 1.9z" fill="#6f93ad"/><path d="m1302.7 435.5c-.7 0-1.3-.4-1.5-1.1l-5.3-18.2c-16.3 1.6-23.7-7.2-30.3-21.8-.6-1.3-2.4-2-4.3-2.7-2.6-1-5.9-2.3-6.4-5.7-.4-3.2 1.4-5.9 3.4-8.7 2.5-3.5 5.2-7.5 5.1-14-.1-7 2.8-13.4 8.6-18.3.7-.6 1.6-.5 2.2.2s.5 1.6-.2 2.2c-5 4.4-7.6 9.9-7.5 15.9.1 7.5-3.1 12.1-5.7 15.9-1.7 2.5-3.1 4.5-2.8 6.5.2 1.5 1.8 2.2 4.4 3.2 2.3.9 5 1.9 6.1 4.4 6.3 14.1 13 21.9 28.3 19.9.8-.1 1.5.4 1.7 1.1l5.7 19.5c.2.8-.2 1.7-1.1 1.9-.1-.2-.3-.2-.4-.2z" fill="#204a69"/><path d="m1228.7 471h-9.3v-9.2c0-5.1 4.1-9.2 9.3-9.2 5.1 0 9.3 4.1 9.3 9.2-.1 5-4.2 9.2-9.3 9.2" fill="#204a69"/><g transform="translate(367.46 98.443)"><path d="m804.2 364.2c-7.6 3.3-10.1 8.2-11 15-1.6 12.1-11.4 14.8-11.5 20.9-.1 4.7 8 5.2 9.1 9.3 4.1 14.7 15.5 25.3 32 25.5" fill="#fff"/><path d="m822.9 436.4c-16.4-.2-29-10.2-33.6-26.6-.4-1.3-2-2.3-3.8-3.3-2.4-1.4-5.4-3.1-5.4-6.5 0-3.2 2.2-5.6 4.5-8.1 2.9-3.1 6.2-6.6 7-13 .7-5.8 2.7-12.3 11.9-16.2.8-.3 1.7 0 2.1.8.3.8 0 1.7-.8 2.1-7.3 3.1-9.3 7.7-10 13.7-1 7.4-4.8 11.5-7.8 14.8-2.1 2.2-3.7 4-3.7 6 0 1.5 1.4 2.4 3.8 3.7 2.1 1.2 4.6 2.6 5.3 5.1 4.2 15.1 15.6 24.2 30.6 24.3.9 0 1.6.7 1.5 1.6s-.8 1.6-1.6 1.6z" fill="#204a69"/></g><path d="m1163.9 521.1c-1 0-1.7-.8-1.7-1.7 0-1 .8-1.7 1.7-1.7 0 0 4.5 0 8.5-2 .9-.4 1.9-.1 2.3.8s.1 1.9-.8 2.3c-4.7 2.3-9.8 2.3-10 2.3z" fill="#204a69"/><path d="m1173.2 460-4 2.1c-4.6 6.7-9.9 15.8-9.9 15.8l20.7 2.1 6.1 18.1c3.3 9.9 13.5 15.9 24 14.3l32.4-5c.1 0-17.4-64.6-69.3-47.4z" fill="#204a69"/><path d="m1170.6 503.4c1 0 1.8-1.2 1.8-2.6l-.1-4.2c0-1.4-.9-2.5-1.9-2.4-1 0-1.8 1.2-1.8 2.6l.1 4.2c0 1.3.8 2.4 1.9 2.4" fill="#204a69"/><path d="m446.8 214.3c0 6.4-5.2 11.6-11.6 11.6s-11.6-5.2-11.6-11.6 5.2-11.6 11.6-11.6 11.6 5.2 11.6 11.6" fill="#fff"/><path d="m571.7 214.3c0 6.4-5.2 11.6-11.6 11.6s-11.6-5.2-11.6-11.6 5.2-11.6 11.6-11.6 11.6 5.2 11.6 11.6m-64.8 0c0 6.4-5.2 11.6-11.6 11.6s-11.6-5.2-11.6-11.6 5.2-11.6 11.6-11.6 11.6 5.2 11.6 11.6" fill="#e1e2e2"/></svg>