<svg height="400" viewBox="0 0 400 400" width="400" xmlns="http://www.w3.org/2000/svg"><g fill="none" fill-rule="evenodd"><circle cx="200.21" cy="200" fill="#d2dce4" r="199.72"/><path d="m77.77 173.77h70.26v152.63h-70.26z" fill="#8facbf"/><path d="m164.31 93.91h70.26v232.49h-70.26z" fill="#8facbf"/><path d="m199.44 93.63h35.13v232.77h-35.13z" fill="#485566" opacity=".08"/><path d="m250.85 133.98h70.26v192.42h-70.26z" fill="#8facbf"/><path d="m113.46 173.77h34.57v152.63h-34.57z" fill="#485566" opacity=".08"/><path d="m286.26 133.7h34.78v192.7h-34.78z" fill="#485566" opacity=".08"/><g fill="#647a88"><path d="m202.09 250.09-19.13 13.63-11.9-10.22c-.56.76-1.11 1.6-1.6 2.43l-5.15-3.27v14.05l2.44 1.6c.97 11.06 10.15 19.69 21.42 19.69 11.9 0 21.57-9.67 21.57-21.57 0-3.54-.84-6.81-2.37-9.73l27.13-41.19v-21.56l-34.36 52.03z" opacity=".4"/><path d="m306.23 208-.84-8c-.97 1.04-1.81 2.09-2.57 3.27l-28.32-21.64c.84-1.25 1.53-2.57 2.16-3.96l-16.49-11.48h-9.39v23.72c1.95.56 3.97.91 6.05.91 2.86 0 5.57-.56 8.07-1.6l34.58 26.43c.55 11.34 9.81 20.38 21.29 20.52v-25.74z" opacity=".4"/><path d="m128.35 221.01-38.96 1.39-2.36-1.25c.62 2.08 1.53 3.96 2.64 5.7l-11.9 11.9v16.76l20.94-20.87c2.72 1.26 5.71 1.95 8.91 1.95 3.13 0 6.12-.69 8.83-1.95l31.52 20.11v-14.05l-22.2-14.13c1.12-1.74 1.95-3.61 2.58-5.56z" opacity=".4"/></g><path d="m320.83 221.01-65.66-49.88-67.97 97.88-84.31-56.35-81.05 77.15c32.91 65.18 100.39 109.91 178.37 109.91 110.33 0 199.72-89.39 199.72-199.72 0-28.66-6.12-55.93-16.97-80.56z" fill="#fff" opacity=".17"/><path d="m378.71 110.4-59.27 95.72-66.99-51.2-66.02 100.04-82.43-52.53-83.97 83.69c1.81 3.76 3.76 7.45 5.78 10.99l79.86-79.58 84.31 53.7 65.39-99.2 67.27 51.41 61.99-100.17c-1.81-4.31-3.76-8.63-5.92-12.87z" fill="#647a88"/><ellipse cx="188.17" cy="262.47" fill="#fff" rx="17.53" ry="17.53"/><ellipse cx="107.62" cy="212.66" fill="#fff" rx="17.53" ry="17.53"/><path d="m107.62 195.2v34.99c9.67 0 17.53-7.86 17.53-17.53s-7.86-17.46-17.53-17.46z" fill="#f0f3f4"/><path d="m188.17 244.94v34.99c9.67 0 17.53-7.86 17.53-17.53 0-9.6-7.86-17.46-17.53-17.46z" fill="#f0f3f4"/><ellipse cx="256.9" cy="167.3" fill="#fff" rx="17.53" ry="17.53"/><path d="m256.9 149.84v34.99c9.67 0 17.53-7.86 17.53-17.53s-7.86-17.46-17.53-17.46z" fill="#f0f3f4"/><ellipse cx="321.04" cy="212.66" fill="#fff" rx="17.53" ry="17.53"/><path d="m320.83 195.2v34.99c9.67 0 17.54-7.86 17.54-17.53s-7.87-17.46-17.54-17.46z" fill="#f0f3f4"/></g></svg>