<svg enable-background="new 0 0 1125.1 53" viewBox="0 0 1125.1 53" xmlns="http://www.w3.org/2000/svg"><path d="m0 25.6c7.2 0 16-.9 22.6-2.4 5.8 12.5 21.6 21.4 40.2 21.4 7.5 0 14.5-1.5 20.6-4 11.7 7.7 27.1 12.4 44 12.4 23.8 0 44.7-9.3 56.7-23.3 2 .1 4 .2 6.1.2 22.9 0 43.1-8.7 55.2-21.9 12 13.2 32.3 21.9 55.2 21.9 2.8 0 5.6-.1 8.3-.4 12.2 9.3 29.1 15.1 47.9 15.1 7.4 0 14.5-.9 21.2-2.6 7.8 6.7 19.4 11 32.2 11s24.3-4.3 32.2-10.8c6.7 1.7 13.8 2.6 21.2 2.6 27 0 50.3-12.1 60.9-29.4 6.8 1.7 14 2.6 21.5 2.6 10.5 0 20.4-1.9 29.3-5.1 11.8 8 27.4 12.8 44.6 12.8 11 0 21.4-2 30.5-5.5 11.7 14.7 33.1 24.5 57.5 24.5 19.8 0 37.5-6.5 49.8-16.7 5.9 1.2 12.1 1.9 18.5 1.9 23.4 0 44-9 56-22.7 6.4 2.8 13.8 4.4 21.7 4.4 9.4 0 18.1-2.3 25.2-6.2 7.8 7.6 20 12.5 33.8 12.5 4.8 0 9.4-.6 13.7-1.7 6.8 11 21.5 18.6 38.7 18.6 8.1 0 15.7-1.7 22.2-4.7 12.1 9 28.7 14.5 47.1 14.5 24.9 0 46.7-10.3 58.2-25.4 9.4 4 20.8 6.2 32.3 6.3v-25.5h-1125.1z" fill="#fff"/></svg>