<?xml version="1.0" encoding="utf-8"?>
<!-- Generator: Adobe Illustrator 19.2.1, SVG Export Plug-In . SVG Version: 6.00 Build 0)  -->
<!DOCTYPE svg PUBLIC "-//W3C//DTD SVG 1.1//EN" "http://www.w3.org/Graphics/SVG/1.1/DTD/svg11.dtd">
<svg version="1.1" id="Layer_1" xmlns="http://www.w3.org/2000/svg" xmlns:xlink="http://www.w3.org/1999/xlink" x="0px" y="0px"
	 viewBox="0 0 1125.1 53" style="enable-background:new 0 0 1125.1 53;" xml:space="preserve">
<style type="text/css">
	.st0{fill:#FFFFFF;}
</style>
<path class="st0" d="M0,25.6c7.2,0,16-0.9,22.6-2.4c5.8,12.5,21.6,21.4,40.2,21.4c7.5,0,14.5-1.5,20.6-4c11.7,7.7,27.1,12.4,44,12.4
	c23.8,0,44.7-9.3,56.7-23.3c2,0.1,4,0.2,6.1,0.2c22.9,0,43.1-8.7,55.2-21.9c12,13.2,32.3,21.9,55.2,21.9c2.8,0,5.6-0.1,8.3-0.4
	c12.2,9.3,29.1,15.1,47.9,15.1c7.4,0,14.5-0.9,21.2-2.6c7.8,6.7,19.4,11,32.2,11s24.3-4.3,32.2-10.8c6.7,1.7,13.8,2.6,21.2,2.6
	c27,0,50.3-12.1,60.9-29.4c6.8,1.7,14,2.6,21.5,2.6c10.5,0,20.4-1.9,29.3-5.1c11.8,8,27.4,12.8,44.6,12.8c11,0,21.4-2,30.5-5.5
	c11.7,14.7,33.1,24.5,57.5,24.5c19.8,0,37.5-6.5,49.8-16.7c5.9,1.2,12.1,1.9,18.5,1.9c23.4,0,44-9,56-22.7
	c6.4,2.8,13.8,4.4,21.7,4.4c9.4,0,18.1-2.3,25.2-6.2c7.8,7.6,20,12.5,33.8,12.5c4.8,0,9.4-0.6,13.7-1.7c6.8,11,21.5,18.6,38.7,18.6
	c8.1,0,15.7-1.7,22.2-4.7c12.1,9,28.7,14.5,47.1,14.5c24.9,0,46.7-10.3,58.2-25.4c9.4,4,20.8,6.2,32.3,6.3V0H0V25.6z"/>
</svg>
