<svg fill="none" height="56" viewBox="0 0 56 56" width="56" xmlns="http://www.w3.org/2000/svg"><path clip-rule="evenodd" d="m18.1304 51 21.1428-46.8861-2.4036-1.1139-3.3341 7.3937c-1.8092-.94328-3.861-1.47572-6.0355-1.47572-2.8053 0-5.4065.88619-7.5459 2.39752l-5.1664-5.23747-2.8032 2.84172 5.0909 5.16095c-1.4935 1.9406-2.4713 4.3091-2.7244 6.8937h-5.351v4.0188h5.2857v4.0188h-5.2857v4.0188h5.55c.6631 3.3112 2.5308 6.1789 5.1193 8.1124l-3.9425 8.7429zm3.2388-13.6265c-1.9132-1.718-3.1192-4.2271-3.1192-7.0219v-8.0376c0-5.1789 4.1414-9.3772 9.25-9.3772 1.5864 0 3.0796.4049 4.3845 1.1182zm14.999-17.7345 2.138-4.7413c1.1651 1.7735 1.9242 3.8445 2.1428 6.0767h5.351v4.0188h-5.2857v4.0188h5.2857v4.0188h-5.55c-1.2244 6.1146-6.557 10.7169-12.95 10.7169-.6587 0-1.3061-.0489-1.9389-.1432l1.7486-3.8776c.0633.0013.1267.0019.1903.0019 5.1086 0 9.25-4.1983 9.25-9.3772v-8.0376c0-.9295-.1334-1.8273-.3818-2.675z" fill="#fff" fill-rule="evenodd"/></svg>