<svg fill="none" height="56" viewBox="0 0 56 56" width="56" xmlns="http://www.w3.org/2000/svg" xmlns:xlink="http://www.w3.org/1999/xlink"><mask id="a" height="26" maskUnits="userSpaceOnUse" width="38" x="9" y="13"><path clip-rule="evenodd" d="m40.4433 23.5954c.0003-.0353.0005-.0707.0005-.1064 0-5.67-5.0143-10.2666-11.2-10.2666-5.2215 0-9.6084 3.2754-10.849 7.707-.1164-.0047-.2334-.0071-.3509-.0071-4.811 0-8.71114 4.022-8.71114 8.9833 0 4.9614 3.90014 8.9834 8.71114 8.9834l.0518-.0003h21.0615c.0138.0003.0275.0003.0413.0003 4.1237 0 7.4667-3.4475 7.4667-7.7 0-3.8153-2.6906-6.9825-6.2219-7.5936z" fill="#fff" fill-rule="evenodd"/></mask><g mask="url(#a)"><path d="m40.4433 23.5954-3.4997-.0388-.0329 2.9795 2.9358.5082zm-22.0485-2.666-.1429 3.4971 2.7668.1132.7465-2.6667zm-.3509 17.9596v3.5h.0105zm.0518-.0003v-3.5h-.0105zm21.0615 0 .0198-3.5h-.0198zm4.7859-15.2546c.0005-.0481.0007-.0966.0007-.1451h-7c0 .0226 0 .0452-.0002.0676zm.0007-.1451c0-7.8835-6.8742-13.76659-14.7-13.76659v6.99999c4.5456 0 7.7 3.31 7.7 6.7666zm-14.7-13.76659c-6.6461 0-12.5178 4.18519-14.2195 10.26349l6.7409 1.8871c.7796-2.785 3.6818-5.1506 7.4786-5.1506zm-10.7062 7.70999c-.164-.0067-.3286-.0101-.4937-.0101v7c.0698 0 .1392.0014.208.0042zm-.4937-.0101c-6.8448 0-12.21114 5.6913-12.21114 12.4833h7.00004c0-3.1306 2.4338-5.4833 5.2111-5.4833zm-12.21114 12.4833c0 6.7921 5.36634 12.4834 12.21114 12.4834v-7c-2.7773 0-5.2111-2.3527-5.2111-5.4834zm12.22164 12.4834.0518-.0003-.021-7-.0518.0003zm.0413-.0003h21.0615v-7h-21.0615zm21.1028-6.9997c-.0075 0-.0145-.0003-.0215-.0003l-.0396 7c.0205.0003.041.0003.0611.0003zm3.9667-4.2c0 2.4217-1.8767 4.2-3.9667 4.2v7c6.1574 0 10.9667-5.1168 10.9667-11.2zm-3.3187-4.1447c1.8057.3124 3.3187 1.9833 3.3187 4.1447h7c0-5.4691-3.8682-10.1326-9.125-11.0423z" fill="#fff"/></g></svg>