<svg fill="none" height="88" viewBox="0 0 120 88" width="120" xmlns="http://www.w3.org/2000/svg" xmlns:xlink="http://www.w3.org/1999/xlink"><mask id="a" height="50" maskUnits="userSpaceOnUse" width="50" x="19" y="5"><path clip-rule="evenodd" d="m24 5h40c2.76 0 5 2.24 5 5v30c0 2.76-2.24 5-5 5h-15v5h7.5v5h-25v-5h7.5v-5h-15c-2.76 0-5-2.24-5-5v-30c0-2.76 2.24-5 5-5zm0 35h40v-30h-40z" fill="#fff" fill-rule="evenodd"/></mask><mask id="b" height="39" maskUnits="userSpaceOnUse" width="23" x="72" y="17"><path clip-rule="evenodd" d="m91 17.75h-15c-2.07 0-3.75 1.68-3.75 3.75v30c0 2.07 1.68 3.75 3.75 3.75h15c2.07 0 3.75-1.68 3.75-3.75v-30c0-2.07-1.68-3.75-3.75-3.75zm-5.625 35.625h-3.75v-1.875h3.75zm-9.375-3.75h15v-26.25h-15z" fill="#fff" fill-rule="evenodd"/></mask><g fill="#dcdcde"><rect height="4.03306" rx="2.01653" width="120" y="67.3979"/><rect height="4.03306" rx="2.01653" width="120" y="75.7524"/><rect height="4.03306" rx="2.01653" width="67.5" x="26.25" y="83.8184"/></g><g mask="url(#a)"><path d="m14 0h60v60h-60z" fill="#069e08"/></g><g mask="url(#b)"><path d="m61 14h45v45h-45z" fill="#069e08"/></g></svg>