<svg xmlns="http://www.w3.org/2000/svg" xmlns:xlink="http://www.w3.org/1999/xlink" width="120" height="88" fill="none" viewBox="0 0 120 88"><mask id="a" width="50" height="50" x="19" y="5" maskUnits="userSpaceOnUse"><path fill="#fff" fill-rule="evenodd" d="m24 5h40c2.76 0 5 2.24 5 5v30c0 2.76-2.24 5-5 5h-15v5h7.5v5h-25v-5h7.5v-5h-15c-2.76 0-5-2.24-5-5v-30c0-2.76 2.24-5 5-5zm0 35h40v-30h-40z" clip-rule="evenodd"/></mask><mask id="b" width="23" height="39" x="72" y="17" maskUnits="userSpaceOnUse"><path fill="#fff" fill-rule="evenodd" d="m91 17.75h-15c-2.07 0-3.75 1.68-3.75 3.75v30c0 2.07 1.68 3.75 3.75 3.75h15c2.07 0 3.75-1.68 3.75-3.75v-30c0-2.07-1.68-3.75-3.75-3.75zm-5.625 35.625h-3.75v-1.875h3.75zm-9.375-3.75h15v-26.25h-15z" clip-rule="evenodd"/></mask><g fill="#dcdcde"><rect width="120" height="4.033" y="67.398" rx="2.017"/><rect width="120" height="4.033" y="75.752" rx="2.017"/><rect width="67.5" height="4.033" x="26.25" y="83.818" rx="2.017"/></g><g mask="url(#a)"><path fill="#069e08" d="m14 0h60v60h-60z"/></g><g mask="url(#b)"><path fill="#069e08" d="m61 14h45v45h-45z"/></g></svg>