<svg fill="none" height="85" viewBox="0 0 120 85" width="120" xmlns="http://www.w3.org/2000/svg"><g fill="#dcdcde"><rect height="4.03306" rx="2.01653" width="120" y="64.3979"/><rect height="4.03306" rx="2.01653" width="120" y="72.7524"/><rect height="4.03306" rx="2.01653" width="67.5" x="26.25" y="80.8184"/></g><path d="m59.5 0c-11.825 0-21.5 9.675-21.5 21.5s9.675 21.5 21.5 21.5 21.5-9.675 21.5-21.5-9.675-21.5-21.5-21.5z" fill="#d63638"/><path d="m56.6997 15.5789 8.5252 8.5252 2.9096-3.4724-7.9505-1.796 2.287-10.12965z" fill="#fff"/><path d="m63.8355 25.7565-8.5252-8.5132-5.0648-5.0529-1.5206 1.5207 5.1965 5.1965-2.8976 3.4604 7.9504 1.796-2.2869 10.1297 5.7473-6.8729 5.1726 5.1726 1.5206-1.5206-5.3043-5.3043z" fill="#fff"/></svg>