<svg xmlns="http://www.w3.org/2000/svg" width="120" height="85" fill="none" viewBox="0 0 120 85"><g fill="#dcdcde"><rect width="120" height="4.033" y="64.398" rx="2.017"/><rect width="120" height="4.033" y="72.752" rx="2.017"/><rect width="67.5" height="4.033" x="26.25" y="80.818" rx="2.017"/></g><path fill="#d63638" d="m59.5 0c-11.825 0-21.5 9.675-21.5 21.5s9.675 21.5 21.5 21.5 21.5-9.675 21.5-21.5-9.675-21.5-21.5-21.5z"/><path fill="#fff" d="m56.6997 15.5789 8.5252 8.5252 2.9096-3.4724-7.9505-1.796 2.287-10.12965z"/><path fill="#fff" d="m63.8355 25.7565-8.5252-8.5132-5.0648-5.0529-1.5206 1.5207 5.1965 5.1965-2.8976 3.4604 7.9504 1.796-2.2869 10.1297 5.7473-6.8729 5.1726 5.1726 1.5206-1.5206-5.3043-5.3043z"/></svg>