<svg fill="none" viewBox="0 0 393 260" xmlns="http://www.w3.org/2000/svg" xmlns:xlink="http://www.w3.org/1999/xlink"><mask id="a" height="28" maskUnits="userSpaceOnUse" width="38" x="4" y="32"><path d="m17.25 59.21-12.855-12.855 2.7102-2.7102 10.145 10.145 21.645-21.645 2.7102 2.7102-24.355 24.355z" fill="#fff"/></mask><mask id="b" height="28" maskUnits="userSpaceOnUse" width="38" x="4" y="118"><path d="m17.25 145.21-12.855-12.855 2.7102-2.71 10.145 10.145 21.645-21.645 2.7102 2.71-24.355 24.355z" fill="#fff"/></mask><mask id="c" height="28" maskUnits="userSpaceOnUse" width="38" x="4" y="204"><path d="m17.25 231.21-12.855-12.855 2.7102-2.71 10.145 10.145 21.645-21.645 2.7102 2.71-24.355 24.355z" fill="#fff"/></mask><g fill="#dcdcde"><rect height="10" opacity=".5" rx="5" width="138" x="64" y="44"/><rect height="10" opacity=".5" rx="5" width="105" x="64" y="62"/><rect height="10" rx="5" width="69.361" x="64" y="18"/></g><g mask="url(#a)"><path d="m0 22h46v46h-46z" fill="#dcdcde"/></g><rect fill="#dcdcde" height="10" opacity=".5" rx="5" width="138" x="64" y="130"/><rect fill="#dcdcde" height="10" opacity=".5" rx="5" width="105" x="64" y="148"/><rect fill="#dcdcde" height="10" rx="5" width="69.361" x="64" y="104"/><g mask="url(#b)"><path d="m0 108h46v46h-46z" fill="#dcdcde"/></g><rect fill="#dcdcde" height="10" opacity=".5" rx="5" width="138" x="64" y="216"/><rect fill="#dcdcde" height="10" opacity=".5" rx="5" width="105" x="64" y="234"/><rect fill="#dcdcde" height="10" rx="5" width="69.361" x="64" y="190"/><g mask="url(#c)"><path d="m0 194h46v46h-46z" fill="#dcdcde"/></g></svg>