<svg xmlns="http://www.w3.org/2000/svg" fill="none" viewBox="0 0 393 260"><rect width="138" height="10" x="64" y="44" fill="#DCDCDE" opacity=".5" rx="5"/><rect width="105" height="10" x="64" y="62" fill="#DCDCDE" opacity=".5" rx="5"/><rect width="69.361" height="10" x="64" y="18" fill="#DCDCDE" rx="5"/><mask id="c" width="38" height="28" x="4" y="32" mask-type="alpha" maskUnits="userSpaceOnUse"><path fill="#fff" d="m17.25 59.21-12.855-12.855 2.7102-2.7102 10.145 10.145 21.645-21.645 2.7102 2.7102-24.355 24.355z"/></mask><g mask="url(#c)"><rect width="46" height="46" y="22" fill="#DCDCDE"/></g><rect width="138" height="10" x="64" y="130" fill="#DCDCDE" opacity=".5" rx="5"/><rect width="105" height="10" x="64" y="148" fill="#DCDCDE" opacity=".5" rx="5"/><rect width="69.361" height="10" x="64" y="104" fill="#DCDCDE" rx="5"/><mask id="b" width="38" height="28" x="4" y="118" mask-type="alpha" maskUnits="userSpaceOnUse"><path fill="#fff" d="m17.25 145.21-12.855-12.855 2.7102-2.71 10.145 10.145 21.645-21.645 2.7102 2.71-24.355 24.355z"/></mask><g mask="url(#b)"><rect width="46" height="46" y="108" fill="#DCDCDE"/></g><rect width="138" height="10" x="64" y="216" fill="#DCDCDE" opacity=".5" rx="5"/><rect width="105" height="10" x="64" y="234" fill="#DCDCDE" opacity=".5" rx="5"/><rect width="69.361" height="10" x="64" y="190" fill="#DCDCDE" rx="5"/><mask id="a" width="38" height="28" x="4" y="204" mask-type="alpha" maskUnits="userSpaceOnUse"><path fill="#fff" d="m17.25 231.21-12.855-12.855 2.7102-2.71 10.145 10.145 21.645-21.645 2.7102 2.71-24.355 24.355z"/></mask><g mask="url(#a)"><rect width="46" height="46" y="194" fill="#DCDCDE"/></g></svg>