<svg width="20" height="20" viewBox="0 0 20 20" fill="none" xmlns="http://www.w3.org/2000/svg">
<path d="M20 10C20 4.49 15.51 0 10 0C4.48 0 0 4.49 0 10C0 15.52 4.48 20 10 20C15.51 20 20 15.52 20 10ZM7.78 15.37L4.37 6.22C4.92 6.2 5.54 6.14 5.54 6.14C6.04 6.08 5.98 5.01 5.48 5.03C5.48 5.03 4.03 5.14 3.11 5.14C2.93 5.14 2.74 5.14 2.53 5.13C4.12 2.69 6.87 1.11 10 1.11C12.33 1.11 14.45 1.98 16.05 3.45C15.37 3.34 14.4 3.84 14.4 5.03C14.4 5.77 14.85 6.39 15.3 7.13C15.65 7.74 15.85 8.49 15.85 9.59C15.85 11.08 14.45 14.59 14.45 14.59L11.42 6.22C11.96 6.2 12.24 6.05 12.24 6.05C12.74 6 12.68 4.8 12.18 4.83C12.18 4.83 10.74 4.95 9.8 4.95C8.93 4.95 7.47 4.83 7.47 4.83C6.97 4.8 6.91 6.03 7.41 6.05L8.33 6.13L9.59 9.54L7.78 15.37ZM17.41 10C17.65 9.36 18.15 8.13 17.84 5.75C18.54 7.04 18.89 8.46 18.89 10C18.89 13.29 17.16 16.24 14.49 17.78C15.46 15.19 16.43 12.58 17.41 10ZM6.1 18.09C3.12 16.65 1.11 13.53 1.11 10C1.11 8.7 1.34 7.52 1.83 6.41C3.25 10.3 4.67 14.2 6.1 18.09ZM10.13 11.46L12.71 18.44C11.85 18.73 10.95 18.89 10 18.89C9.21 18.89 8.43 18.78 7.71 18.56C8.52 16.18 9.33 13.82 10.13 11.46V11.46Z" fill="#435BD9"/>
</svg>
