<svg fill="none" height="20" viewBox="0 0 20 20" width="20" xmlns="http://www.w3.org/2000/svg"><path d="m20 10c0-5.51-4.49-10-10-10-5.52 0-10 4.49-10 10 0 5.52 4.48 10 10 10 5.51 0 10-4.48 10-10zm-12.22 5.37-3.41-9.15c.55-.02 1.17-.08 1.17-.08.5-.06.44-1.13-.06-1.11 0 0-1.45.11-2.37.11-.18 0-.37 0-.58-.01 1.59-2.44 4.34-4.02 7.47-4.02 2.33 0 4.45.87 6.05 2.34-.68-.11-1.65.39-1.65 1.58 0 .74.45 1.36.9 2.1.35.61.55 1.36.55 2.46 0 1.49-1.4 5-1.4 5l-3.03-8.37c.54-.02.82-.17.82-.17.5-.05.44-1.25-.06-1.22 0 0-1.44.12-2.38.12-.87 0-2.33-.12-2.33-.12-.5-.03-.56 1.2-.06 1.22l.92.08 1.26 3.41zm9.63-5.37c.24-.64.74-1.87.43-4.25.7 1.29 1.05 2.71 1.05 4.25 0 3.29-1.73 6.24-4.4 7.78.97-2.59 1.94-5.2 2.92-7.78zm-11.31 8.09c-2.98-1.44-4.99-4.56-4.99-8.09 0-1.3.23-2.48.72-3.59 1.42 3.89 2.84 7.79 4.27 11.68zm4.03-6.63 2.58 6.98c-.86.29-1.76.45-2.71.45-.79 0-1.57-.11-2.29-.33.81-2.38 1.62-4.74 2.42-7.1z" fill="#435bd9"/></svg>