<svg fill="none" height="128" viewBox="0 0 128 128" width="128" xmlns="http://www.w3.org/2000/svg" xmlns:xlink="http://www.w3.org/1999/xlink"><clipPath id="a"><path d="m0 0h128v128h-128z"/></clipPath><g clip-path="url(#a)"><rect fill="#2c3338" height="103.619" rx="12.1905" width="103.619" x="12.1904" y="12.1904"/><path clip-rule="evenodd" d="m42.6665 48.3453 16.0778 17.6861-16.0778 17.686 2.8946 2.6314 17.2739-19.0017 1.1961-1.3157-1.1961-1.3157-17.2739-19.0018zm20.7267 0 16.0778 17.6861-16.0778 17.686 2.8946 2.6314 17.2739-19.0017 1.1961-1.3157-1.1961-1.3157-17.2739-19.0018z" fill="#fff" fill-rule="evenodd"/><path d="m104.671 46.7302c12.904 0 23.365-10.4609 23.365-23.3651s-10.461-23.3651-23.365-23.3651c-12.9044 0-23.3653 10.4609-23.3653 23.3651s10.4609 23.3651 23.3653 23.3651z" fill="#069e08"/><g fill="#fff"><path d="m105.83 19.4412v22.6516l11.682-22.6516z"/><path d="m103.467 27.2443v-22.60709l-11.6379 22.60709z"/></g></g></svg>