<svg width="128" height="128" viewBox="0 0 128 128" fill="none" xmlns="http://www.w3.org/2000/svg">
<g clip-path="url(#clip0_2891_12373)">
<rect x="12.1904" y="12.1904" width="103.619" height="103.619" rx="12.1905" fill="#2C3338"/>
<g style="mix-blend-mode:screen">
<path fill-rule="evenodd" clip-rule="evenodd" d="M42.6665 48.3453L58.7443 66.0314L42.6665 83.7174L45.5611 86.3488L62.835 67.3471L64.0311 66.0314L62.835 64.7157L45.5611 45.7139L42.6665 48.3453ZM63.3932 48.3453L79.471 66.0314L63.3932 83.7174L66.2878 86.3488L83.5617 67.3471L84.7578 66.0314L83.5617 64.7157L66.2878 45.7139L63.3932 48.3453Z" fill="white"/>
</g>
<path d="M104.671 46.7302C117.575 46.7302 128.036 36.2693 128.036 23.3651C128.036 10.4609 117.575 0 104.671 0C91.7666 0 81.3057 10.4609 81.3057 23.3651C81.3057 36.2693 91.7666 46.7302 104.671 46.7302Z" fill="#069E08"/>
<path d="M105.83 19.4412V42.0928L117.512 19.4412H105.83Z" fill="white"/>
<path d="M103.467 27.2443V4.63721L91.8291 27.2443H103.467Z" fill="white"/>
</g>
<defs>
<clipPath id="clip0_2891_12373">
<rect width="128" height="128" fill="white"/>
</clipPath>
</defs>
</svg>
