<?xml version="1.0" encoding="UTF-8" standalone="no"?>
<svg width="840px" height="577px" viewBox="0 0 840 577" version="1.1" xmlns="http://www.w3.org/2000/svg" xmlns:xlink="http://www.w3.org/1999/xlink">
    <!-- Generator: Sketch 3.8.3 (29802) - http://www.bohemiancoding.com/sketch -->
    <title>MacBook</title>
    <desc>Created with Sketch.</desc>
    <defs>
        <rect id="path-1" x="0" y="0" width="640" height="432"></rect>
        <path d="M452,1.77635684e-15 L452,257.992001 C452,262.414697 448.427512,266 443.998994,266 L8.00100608,266 C3.58217244,266 0,262.418814 0,257.992001 L0,1.02140518e-14 L452,0 Z" id="path-3"></path>
    </defs>
    <g id="Page-1" stroke="none" stroke-width="1" fill="none" fill-rule="evenodd">
        <g id="MacBook">
            <g>
                <rect id="top" fill="#E3E2E3" x="40" y="0" width="760" height="547" rx="20"></rect>
                <path d="M0,529 L0,556.991 C0,568.042 8.954,577 20,577 L820,577 C831.047,577 840,568.042 840,556.991 L840,529 L0,529 L0,529 Z" id="bottom" fill="#F3F6F8"></path>
                <rect id="groove" fill="#87A6BC" x="328" y="529" width="184" height="10"></rect>
                <rect id="screen" fill="#78DCFA" x="54" y="13.5" width="732" height="502"></rect>
            </g>
            <g id="OSX" transform="translate(100.000000, 77.000000)">
                <g id="OSX-Dock">
                    <mask id="mask-2" fill="white">
                        <use xlink:href="#path-1"></use>
                    </mask>
                    <use id="Mask" fill="#78DCFA" xlink:href="#path-1"></use>
                    <rect id="dock" fill-opacity="0.8" fill="#E9EFF3" mask="url(#mask-2)" x="150" y="352" width="340" height="85" rx="8"></rect>
                    <rect id="finder" fill="#87A6BC" mask="url(#mask-2)" x="170" y="372" width="50" height="40" rx="4"></rect>
                    <polygon id="Triangle-1" fill="#87A6BC" mask="url(#mask-2)" points="357 367 382 417 332 417"></polygon>
                    <circle id="Oval-1" fill="#87A6BC" mask="url(#mask-2)" cx="440" cy="392" r="30"></circle>
                    <g id="WordPress" mask="url(#mask-2)">
                        <g transform="translate(246.000000, 352.000000)">
                            <circle id="circle" fill="#00AADC" cx="30" cy="40" r="30"></circle>
                            <path d="M42.204,60.9808 L49.6182,39.5446 C51.0042,36.0814 51.465,33.3112 51.465,30.8488 C51.465,29.956 51.4056,29.1262 51.3012,28.354 C53.1966,31.81 54.2748,35.779 54.2748,40 C54.2748,48.955 49.422,56.7742 42.204,60.9808 L42.204,60.9808 Z M33.3444,28.6168 C34.806,28.5412 36.1236,28.3864 36.1236,28.3864 C37.4304,28.2334 37.2774,26.3092 35.9688,26.3866 C35.9688,26.3866 32.0376,26.6962 29.4978,26.6962 C27.1128,26.6962 23.1042,26.3866 23.1042,26.3866 C21.7956,26.3092 21.6426,28.309 22.9512,28.3864 C22.9512,28.3864 24.1896,28.5412 25.4964,28.6168 L29.2782,38.9794 L23.9646,54.9112 L15.1266,28.6168 C16.59,28.5412 17.904,28.3864 17.904,28.3864 C19.2126,28.2334 19.0578,26.3092 17.7492,26.3866 C17.7492,26.3866 13.818,26.6962 11.28,26.6962 C10.8246,26.6962 10.2864,26.6836 9.7158,26.6656 C14.0574,20.0758 21.5184,15.7252 30,15.7252 C36.3198,15.7252 42.0726,18.1408 46.3926,22.099 C46.2882,22.0918 46.1856,22.0774 46.0776,22.0774 C43.6926,22.0774 42.0006,24.1546 42.0006,26.3866 C42.0006,28.3864 43.1562,30.0784 44.3856,32.08 C45.309,33.6964 46.3872,35.7736 46.3872,38.7742 C46.3872,40.8532 45.7698,43.4668 44.5404,46.6222 L42.1176,54.7114 L33.3444,28.6168 Z M30,64.2766 C27.6168,64.2766 25.3164,63.9256 23.142,63.2866 L30.4266,42.1222 L37.8876,62.5648 C37.9362,62.6836 37.9956,62.7934 38.0604,62.8996 C35.5386,63.787 32.826,64.2766 30,64.2766 L30,64.2766 Z M5.7252,40 C5.7252,36.4792 6.4794,33.1384 7.8276,30.1198 L19.407,61.8466 C11.307,57.9118 5.7252,49.6084 5.7252,40 L5.7252,40 Z M30,13 C15.1122,13 3,25.1122 3,40 C3,54.8878 15.1122,67 30,67 C44.8878,67 57,54.8878 57,40 C57,25.1122 44.8878,13 30,13 L30,13 Z" id="logomark" fill="#FFFFFF"></path>
                        </g>
                    </g>
                </g>
                <g id="App,-Linux/OSX" transform="translate(94.000000, 10.000000)">
                    <rect id="Browser" fill="#E9EFF3" x="0" y="0" width="452" height="298" rx="8"></rect>
                    <g id="Contents" stroke-width="1" transform="translate(0.000000, 32.000000)">
                        <mask id="mask-4" fill="white">
                            <use xlink:href="#path-3"></use>
                        </mask>
                        <use id="Mask" fill="#FFFFFF" xlink:href="#path-3"></use>
                    </g>
                    <rect id="masterbar" fill="#0087BE" x="0" y="32" width="452" height="36"></rect>
                    <path d="M18,22 C14.686,22 12,19.314 12,16 C12,12.686 14.686,10 18,10 C21.314,10 24,12.686 24,16 C24,19.314 21.314,22 18,22 Z M58,22 C54.686,22 52,19.314 52,16 C52,12.686 54.686,10 58,10 C61.314,10 64,12.686 64,16 C64,19.314 61.314,22 58,22 Z M38,22 C34.686,22 32,19.314 32,16 C32,12.686 34.686,10 38,10 C41.314,10 44,12.686 44,16 C44,19.314 41.314,22 38,22 Z" id="OSX/Linux" fill="#4F748E"></path>
                </g>
            </g>
            <path d="M50,10 L790,10 L790,520 L50,520 L50,10 Z M60,20 L780,20 L780,509 L60,509 L60,20 Z" id="Edge-overlay" fill="#E3E2E3"></path>
        </g>
    </g>
</svg>