<?xml version="1.0" encoding="UTF-8" standalone="no"?>
<svg width="208px" height="414px" viewBox="0 0 208 414" version="1.1" xmlns="http://www.w3.org/2000/svg" xmlns:xlink="http://www.w3.org/1999/xlink">
    <!-- Generator: Sketch 3.8.3 (29802) - http://www.bohemiancoding.com/sketch -->
    <title>Nexus 5X</title>
    <desc>Created with Sketch.</desc>
    <defs>
        <circle id="path-1" cx="97" cy="13" r="7"></circle>
        <mask id="mask-2" maskContentUnits="userSpaceOnUse" maskUnits="objectBoundingBox" x="0" y="0" width="14" height="14" fill="white">
            <use xlink:href="#path-1"></use>
        </mask>
        <path d="M52.265431,20 C52.1379017,20 52.0103724,19.9656346 51.8961061,19.8979452 L41.365244,13.6486478 C41.1397721,13.5143103 41,13.2675042 41,12.9998706 C41,12.732237 41.1397721,12.4854308 41.365244,12.3510933 L51.8961061,6.10179602 C52.1236184,5.96641714 52.404183,5.96641714 52.6316953,6.09971326 C52.8592076,6.23405077 53,6.48189825 53,6.74953188 L53,19.2502093 C53,19.5178429 52.8592076,19.7656904 52.6316953,19.9000279 C52.5184492,19.966676 52.3919401,20 52.265431,20 L52.265431,20 Z" id="path-3"></path>
        <mask id="mask-4" maskContentUnits="userSpaceOnUse" maskUnits="objectBoundingBox" x="0" y="0" width="12" height="14" fill="white">
            <use xlink:href="#path-3"></use>
        </mask>
        <rect id="path-5" x="140" y="6" width="14" height="14" rx="2"></rect>
        <mask id="mask-6" maskContentUnits="userSpaceOnUse" maskUnits="objectBoundingBox" x="0" y="0" width="14" height="14" fill="white">
            <use xlink:href="#path-5"></use>
        </mask>
    </defs>
    <g id="Page-1" stroke="none" stroke-width="1" fill="none" fill-rule="evenodd">
        <g id="Nexus-5X">
            <g id="Contents" transform="translate(5.000000, 31.000000)">
                <g id="Calypso" transform="translate(1.000000, 0.000000)">
                    <polygon id="BG" fill="#FFFFFF" points="2 7 192 7 192 345 2 345"></polygon>
                    <rect id="masterbar" fill="#0087BE" x="0" y="0" width="194" height="43"></rect>
                    <g id="Text" stroke-width="1" transform="translate(26.000000, 63.000000)" fill="#87A6BC">
                        <rect id="Rectangle-6" x="0" y="0" width="60" height="10"></rect>
                        <rect id="Rectangle-6-Copy" x="70" y="0" width="20" height="10"></rect>
                        <rect id="Rectangle-6-Copy" x="100" y="0" width="30" height="10"></rect>
                        <rect id="Rectangle-6-Copy" x="0" y="20" width="30" height="10"></rect>
                        <rect id="Rectangle-6-Copy" x="40" y="20" width="80" height="10"></rect>
                        <rect id="Rectangle-6-Copy" x="0" y="40" width="40" height="10"></rect>
                        <rect id="Rectangle-6-Copy" x="50" y="40" width="50" height="10"></rect>
                        <rect id="Rectangle-6-Copy" x="110" y="40" width="20" height="10"></rect>
                        <rect id="Rectangle-6-Copy" x="0" y="60" width="20" height="10"></rect>
                        <rect id="Rectangle-6-Copy" x="30" y="60" width="50" height="10"></rect>
                    </g>
                </g>
                <g id="Keyboard" transform="translate(0.000000, 214.000000)">
                    <rect id="keyboard" fill="#4F748E" x="0" y="0" width="195" height="111"></rect>
                    <rect id="space" fill="#FFFFFF" x="63" y="80" width="70" height="20" rx="4"></rect>
                    <g id="bottom-row" transform="translate(38.000000, 55.000000)" fill="#FFFFFF">
                        <rect id="Rectangle-17-Copy" x="0" y="0" width="20" height="20" rx="4"></rect>
                        <rect id="Rectangle-17-Copy" x="25" y="0" width="20" height="20" rx="4"></rect>
                        <rect id="Rectangle-17-Copy-2" x="50" y="0" width="20" height="20" rx="4"></rect>
                        <rect id="Rectangle-17-Copy-3" x="75" y="0" width="20" height="20" rx="4"></rect>
                        <rect id="Rectangle-17-Copy-4" x="100" y="0" width="20" height="20" rx="4"></rect>
                    </g>
                    <g id="middle-row" transform="translate(26.000000, 30.000000)" fill="#FFFFFF">
                        <rect id="Rectangle-17-Copy" x="0" y="0" width="20" height="20" rx="4"></rect>
                        <rect id="Rectangle-17-Copy" x="25" y="0" width="20" height="20" rx="4"></rect>
                        <rect id="Rectangle-17-Copy-2" x="50" y="0" width="20" height="20" rx="4"></rect>
                        <rect id="Rectangle-17-Copy-3" x="75" y="0" width="20" height="20" rx="4"></rect>
                        <rect id="Rectangle-17-Copy-4" x="100" y="0" width="20" height="20" rx="4"></rect>
                        <rect id="Rectangle-17-Copy-5" x="125" y="0" width="20" height="20" rx="4"></rect>
                    </g>
                    <g id="top-row" transform="translate(13.000000, 5.000000)" fill="#FFFFFF">
                        <rect id="Rectangle-17-Copy" x="0" y="0" width="20" height="20" rx="4"></rect>
                        <rect id="Rectangle-17-Copy" x="25" y="0" width="20" height="20" rx="4"></rect>
                        <rect id="Rectangle-17-Copy-2" x="50" y="0" width="20" height="20" rx="4"></rect>
                        <rect id="Rectangle-17-Copy-3" x="75" y="0" width="20" height="20" rx="4"></rect>
                        <rect id="Rectangle-17-Copy-4" x="100" y="0" width="20" height="20" rx="4"></rect>
                        <rect id="Rectangle-17-Copy-5" x="125" y="0" width="20" height="20" rx="4"></rect>
                        <rect id="Rectangle-17-Copy-5" x="150" y="0" width="20" height="20" rx="4"></rect>
                    </g>
                </g>
                <g id="Systembar" transform="translate(1.000000, 319.000000)">
                    <rect fill="#2E4453" x="0" y="0" width="194" height="32"></rect>
                    <use id="home" stroke="#FFFFFF" mask="url(#mask-2)" stroke-width="4" xlink:href="#path-1"></use>
                    <use id="back" stroke="#FFFFFF" mask="url(#mask-4)" stroke-width="4" xlink:href="#path-3"></use>
                    <use id="multitask" stroke="#FFFFFF" mask="url(#mask-6)" stroke-width="4" xlink:href="#path-5"></use>
                </g>
            </g>
            <g id="Phone">
                <path d="M177.72549,0 L28.2745098,0 C12.7235294,0 0,12.9118812 0,28.6930693 L0,385.306931 C0,401.088119 12.7235294,414 28.2745098,414 L177.72549,414 C193.276471,414 206,401.088119 206,385.306931 L206,28.6930693 C206,12.9118812 193.276471,0 177.72549,0 Z M8,38 L198,38 L198,376 L8,376 L8,38 Z" id="Combined-Shape" fill="#F3F6F8"></path>
                <path d="M71.8888889,15 L134.111111,15 C136.25875,15 138,16.34325 138,18 C138,19.65675 136.25875,21 134.111111,21 L71.8888889,21 C69.74125,21 68,19.65675 68,18 C68,16.34325 69.74125,15 71.8888889,15 L71.8888889,15 Z" id="mic" fill="#4F748E"></path>
                <path d="M71.8888889,393 L134.111111,393 C136.25875,393 138,394.34325 138,396 C138,397.65675 136.25875,399 134.111111,399 L71.8888889,399 C69.74125,399 68,397.65675 68,396 C68,394.34325 69.74125,393 71.8888889,393 L71.8888889,393 Z" id="mic-copy" fill="#4F748E"></path>
                <circle id="camera" fill="#4F748E" cx="41" cy="18" r="3"></circle>
                <g id="Buttons" transform="translate(206.000000, 107.000000)" fill="#4F748E">
                    <rect id="Rectangle-92" x="0" y="0" width="2" height="26"></rect>
                    <rect id="Rectangle-92" x="0" y="50" width="2" height="52"></rect>
                </g>
            </g>
        </g>
    </g>
</svg>