<?xml version="1.0" encoding="utf-8"?>
<!-- Generator: Adobe Illustrator 17.0.0, SVG Export Plug-In . SVG Version: 6.00 Build 0)  -->
<!DOCTYPE svg PUBLIC "-//W3C//DTD SVG 1.1//EN" "http://www.w3.org/Graphics/SVG/1.1/DTD/svg11.dtd">
<svg version="1.1" id="Layer_1" xmlns="http://www.w3.org/2000/svg" xmlns:xlink="http://www.w3.org/1999/xlink" x="0px" y="0px"
	 width="1600px" height="192px" viewBox="0.5 0 1600 192" enable-background="new 0.5 0 1600 192" xml:space="preserve">
<path fill="#F9F9FA" d="M0.5,0v191.075c52.225,0,99.382-21.691,132.96-56.553c6.277,1.28,12.775,1.953,19.43,1.953
	c35.837,0,67.121-19.491,83.833-48.45c16.734,9.073,35.904,14.226,56.276,14.226c19.744,0,38.354-4.845,54.716-13.403
	C379.357,120.6,423.133,140.25,471.5,140.25c68.117,0,127.129-38.975,155.958-95.84c12.777,4.111,26.398,6.34,40.542,6.34
	c33.841,0,64.708-12.717,88.099-33.626C786.558,38.322,823.578,50.75,863.5,50.75c36.695,0,70.938-10.501,99.888-28.66
	c4.843,0.76,9.805,1.16,14.862,1.16c15.031,0,29.242-3.496,41.876-9.71c24.748,31.494,62.929,51.925,105.911,52.679
	c43.287,50.806,107.736,83.031,179.714,83.031c33.539,0,65.443-6.997,94.334-19.609c15.128,10.172,33.34,16.109,52.941,16.109
	c7.979,0,15.726-0.989,23.131-2.842c32.807,29.92,76.444,48.167,124.344,48.167V0H0.5z"/>
</svg>
