<?xml version="1.0" encoding="utf-8"?>
<!-- Generator: Adobe Illustrator 17.0.0, SVG Export Plug-In . SVG Version: 6.00 Build 0)  -->
<!DOCTYPE svg PUBLIC "-//W3C//DTD SVG 1.1//EN" "http://www.w3.org/Graphics/SVG/1.1/DTD/svg11.dtd">
<svg version="1.1" id="Layer_1" xmlns="http://www.w3.org/2000/svg" xmlns:xlink="http://www.w3.org/1999/xlink" x="0px" y="0px"
	 width="1600px" height="228px" viewBox="0.5 228.501 1600 228" enable-background="new 0.5 228.501 1600 228" xml:space="preserve"
	>
<g>
	<path fill="#F9F9FA" d="M1453.303,302.058c-4.16,0-8.26,0.254-12.292,0.732c-34.434-34.775-82.206-56.319-135.012-56.319
		c-76.536,0-142.5,45.255-172.599,110.465c-38.802,3.277-72.64,23.961-93.684,54.218c-19.673-23.635-49.311-38.683-82.466-38.683
		c-35.937,0-67.742,17.677-87.203,44.809c-25.36-14.512-54.734-22.809-86.047-22.809c-49.717,0-94.549,20.914-126.182,54.422
		c-12.343-5.412-25.977-8.422-40.318-8.422c-3.76,0-7.469,0.214-11.122,0.615c-22.61-39.276-64.744-65.882-113.148-66.59
		c-18.183-83.22-92.305-145.525-180.98-145.525c-44.302,0-84.969,15.553-116.846,41.495c-9.615-2.189-19.62-3.349-29.898-3.349
		c-57.421,0-106.409,36.078-125.551,86.8c-12.423-4.048-25.681-6.245-39.454-6.245v108.829h1600V347.672
		c-19.521,0-38.011,4.401-54.542,12.256C1529.208,325.662,1494.014,302.058,1453.303,302.058z"/>
</g>
</svg>
