<svg width="128" height="128" viewBox="0 0 128 128" fill="none" xmlns="http://www.w3.org/2000/svg">
<path d="M64 72C78.0832 72 89.5 60.5827 89.5 46.4991C89.5 32.4154 78.0832 21 64 21C49.9168 21 38.5 32.4173 38.5 46.5009C38.5 60.5846 49.9168 72 64 72Z" fill="#069E08"/>
<path d="M65.2652 42.218V66.9391L78.0152 42.218H65.2652Z" fill="white"/>
<path d="M62.6857 50.7347V26.0609L49.9848 50.7347H62.6857Z" fill="white"/>
<path d="M38.1824 90.3195C38.1824 91.3497 37.9524 92.2933 37.4907 93.152C37.0289 94.0108 36.2663 94.7224 35.2028 95.292V95.363C35.7942 95.5638 36.3338 95.8218 36.8249 96.1352C37.316 96.4486 37.7345 96.8208 38.0838 97.2537C38.4314 97.6865 38.7046 98.1748 38.9001 98.7184C39.0955 99.2638 39.1923 99.8732 39.1923 100.547C39.1923 101.127 39.1007 101.748 38.9174 102.411C38.734 103.075 38.4124 103.717 37.9507 104.338C37.4889 104.96 36.875 105.531 36.1072 106.051C35.3394 106.572 34.3693 106.986 33.1985 107.294C32.9028 107.365 32.5812 107.431 32.2319 107.49C31.8825 107.548 31.4952 107.599 31.0698 107.64C30.6443 107.682 30.1705 107.711 29.6517 107.728C29.1312 107.746 28.5467 107.754 27.8965 107.754H21V84H29.2453C31.0058 84 32.4255 84.1783 33.5012 84.5333C34.3053 84.793 35.0022 85.134 35.5936 85.5548C36.185 85.9755 36.6727 86.443 37.0566 86.9572C37.4405 87.4714 37.7241 88.0168 37.9074 88.5899C38.0907 89.163 38.1824 89.7412 38.1824 90.3195ZM29.2626 93.7823C30.4437 93.7823 31.3257 93.6645 31.905 93.4273C32.5552 93.1555 33.0187 92.7798 33.2971 92.3002C33.5738 91.8206 33.7139 91.2787 33.7139 90.6762C33.7139 90.0494 33.5548 89.4902 33.2348 88.9985C32.9149 88.5068 32.3719 88.1432 31.6041 87.906C31.2842 87.8108 30.9124 87.7432 30.487 87.7017C30.0616 87.6601 29.5359 87.6393 28.9081 87.6393H25.344V93.7823H29.2626ZM25.344 97.4216V104.115H28.1818C28.9375 104.115 29.5877 104.094 30.1325 104.053C30.6755 104.011 31.1424 103.944 31.5332 103.848C32.1367 103.719 32.6382 103.544 33.0412 103.324C33.4424 103.106 33.7675 102.856 34.0165 102.578C34.2655 102.301 34.4419 101.992 34.5491 101.655C34.6563 101.317 34.7082 100.961 34.7082 100.581C34.7082 99.9183 34.5249 99.3382 34.1583 98.8413C33.7917 98.3444 33.2193 97.9722 32.4376 97.7229C32.0952 97.6155 31.6923 97.5393 31.2323 97.4926C30.7706 97.4459 30.1809 97.4216 29.4598 97.4216H25.344Z" fill="black"/>
<path d="M59.0385 98.8849C59.0385 100.245 58.8336 101.487 58.422 102.61C58.0105 103.733 57.4224 104.694 56.6558 105.494C55.8893 106.294 54.962 106.912 53.8758 107.347C52.7896 107.783 51.5762 108 50.2356 108C48.8597 108 47.6251 107.782 46.5318 107.347C45.4385 106.912 44.513 106.294 43.7518 105.494C42.9906 104.694 42.4077 103.733 42.005 102.61C41.6005 101.489 41.3974 100.245 41.3974 98.8849C41.3974 97.5243 41.6023 96.2825 42.0138 95.1595C42.4236 94.0383 43.0135 93.0759 43.7801 92.276C44.5466 91.4761 45.4739 90.8579 46.5601 90.423C47.6463 89.9863 48.8597 89.7698 50.2003 89.7698C51.5762 89.7698 52.8108 89.9881 53.904 90.423C54.9973 90.8596 55.9228 91.4761 56.6841 92.276C57.4453 93.0759 58.0264 94.0365 58.4309 95.1595C58.8353 96.2825 59.0385 97.5243 59.0385 98.8849ZM54.6017 98.8849C54.6017 97.9662 54.4922 97.1541 54.275 96.4485C54.0577 95.7446 53.7557 95.1525 53.3689 94.6757C52.9821 94.1989 52.5176 93.8409 51.9736 93.6016C51.4296 93.3624 50.8379 93.2436 50.1985 93.2436C49.5697 93.2436 48.9887 93.3624 48.4517 93.6016C47.9148 93.8409 47.452 94.1989 47.067 94.6757C46.6802 95.1543 46.3782 95.7446 46.1609 96.4485C45.9437 97.1523 45.8342 97.9644 45.8342 98.8849C45.8342 99.8035 45.9437 100.616 46.1609 101.321C46.3782 102.025 46.6837 102.614 47.0758 103.085C47.4679 103.557 47.9325 103.915 48.4694 104.159C49.0063 104.404 49.5945 104.526 50.2356 104.526C50.875 104.526 51.4614 104.404 51.993 104.159C52.5246 103.915 52.9821 103.557 53.3689 103.085C53.7557 102.614 54.0577 102.025 54.275 101.321C54.4922 100.616 54.6017 99.8035 54.6017 98.8849Z" fill="black"/>
<path d="M78.3333 98.8849C78.3333 100.245 78.1349 101.487 77.7362 102.61C77.3375 103.733 76.7677 104.694 76.0252 105.494C75.2826 106.294 74.3843 106.912 73.332 107.347C72.2797 107.783 71.1042 108 69.8056 108C68.4727 108 67.2767 107.782 66.2175 107.347C65.1584 106.912 64.2618 106.294 63.5244 105.494C62.7869 104.694 62.2223 103.733 61.8322 102.61C61.4404 101.489 61.2436 100.245 61.2436 98.8849C61.2436 97.5243 61.4421 96.2825 61.8407 95.1595C62.2377 94.0383 62.8092 93.0759 63.5518 92.276C64.2944 91.4761 65.1926 90.8579 66.2449 90.423C67.2972 89.9863 68.4727 89.7698 69.7714 89.7698C71.1042 89.7698 72.3003 89.9881 73.3594 90.423C74.4185 90.8596 75.3151 91.4761 76.0525 92.276C76.79 93.0759 77.3529 94.0365 77.7447 95.1595C78.1366 96.2825 78.3333 97.5243 78.3333 98.8849ZM74.0335 98.8849C74.0335 97.9662 73.9274 97.1541 73.717 96.4485C73.5065 95.7446 73.2139 95.1525 72.8392 94.6757C72.4645 94.1989 72.0145 93.8409 71.4875 93.6016C70.9605 93.3624 70.3873 93.2436 69.7679 93.2436C69.1588 93.2436 68.5959 93.3624 68.0757 93.6016C67.5556 93.8409 67.1073 94.1989 66.7343 94.6757C66.3596 95.1543 66.067 95.7446 65.8565 96.4485C65.6461 97.1523 65.54 97.9644 65.54 98.8849C65.54 99.8035 65.6461 100.616 65.8565 101.321C66.067 102.025 66.363 102.614 66.7428 103.085C67.1227 103.557 67.5727 103.915 68.0928 104.159C68.613 104.404 69.1828 104.526 69.8039 104.526C70.4233 104.526 70.9913 104.404 71.5063 104.159C72.0214 103.915 72.4645 103.557 72.8392 103.085C73.2139 102.614 73.5065 102.025 73.717 101.321C73.9292 100.616 74.0335 99.8035 74.0335 98.8849Z" fill="black"/>
<path d="M89.0316 102.52C89.0316 102.15 88.9268 101.846 88.719 101.607C88.5094 101.367 88.2317 101.168 87.8859 101.006C87.5401 100.845 87.1437 100.705 86.6948 100.585C86.2477 100.466 85.7779 100.346 85.2889 100.227C84.6671 100.059 84.0716 99.8654 83.4987 99.6454C82.9259 99.4253 82.4212 99.1355 81.9863 98.7775C81.5497 98.4195 81.2039 97.9689 80.9471 97.4258C80.6904 96.8827 80.5612 96.2173 80.5612 95.4297C80.5612 94.4622 80.7341 93.624 81.0799 92.9132C81.4257 92.2024 81.8955 91.6157 82.4858 91.1494C83.0761 90.6831 83.7625 90.3373 84.5449 90.1103C85.3273 89.8833 86.1534 89.7698 87.0249 89.7698C88.0868 89.7698 89.084 89.8571 90.0149 90.03C90.9458 90.2029 91.7876 90.4264 92.5403 90.7006V94.1584C92.1456 94.0274 91.7317 93.9051 91.2951 93.7916C90.8584 93.6781 90.4166 93.5803 89.9695 93.4965C89.5224 93.4127 89.077 93.3446 88.6352 93.2904C88.1933 93.2363 87.7759 93.2101 87.3812 93.2101C86.8799 93.2101 86.4555 93.2572 86.1097 93.3533C85.7639 93.4493 85.4828 93.5768 85.2679 93.7375C85.0531 93.8981 84.8977 94.0833 84.8016 94.2928C84.7056 94.5024 84.6584 94.7189 84.6584 94.946C84.6584 95.3406 84.7632 95.662 84.971 95.9134C85.1806 96.1649 85.4688 96.3675 85.839 96.5229C86.2093 96.6783 86.597 96.8058 87.0039 96.9089C87.4091 97.0101 87.8038 97.1097 88.1863 97.204C88.7836 97.3472 89.3792 97.5201 89.9765 97.7227C90.5738 97.9252 91.1099 98.2099 91.5885 98.5731C92.0653 98.9381 92.4565 99.4096 92.7621 99.9877C93.066 100.567 93.2179 101.304 93.2179 102.199C93.2179 103.178 93.0328 104.03 92.6626 104.759C92.2923 105.487 91.7753 106.093 91.1134 106.577C90.4515 107.06 89.6569 107.418 88.7312 107.651C87.8056 107.883 86.7891 108 85.6784 108C84.5798 108 83.5913 107.913 82.7146 107.74C81.8378 107.567 81.1113 107.349 80.5385 107.087V103.667C81.4693 104.013 82.3286 104.249 83.118 104.375C83.9057 104.5 84.6409 104.563 85.3203 104.563C85.846 104.563 86.335 104.525 86.7891 104.446C87.2432 104.369 87.6327 104.247 87.9628 104.079C88.2911 103.912 88.5513 103.7 88.7417 103.444C88.9373 103.187 89.0316 102.878 89.0316 102.52Z" fill="black"/>
<path d="M107 107.534C106.524 107.677 105.958 107.79 105.3 107.874C104.642 107.958 104.027 108 103.457 108C102.009 108 100.824 107.764 99.9039 107.293C98.9835 106.821 98.334 106.144 97.9536 105.26C97.681 104.628 97.5438 103.769 97.5438 102.681V93.6935H94.3205V90.2012H97.5438V85.3503H101.764V90.203H106.75V93.6953H101.764V102.129C101.764 102.798 101.865 103.294 102.066 103.615C102.422 104.165 103.129 104.439 104.185 104.439C104.671 104.439 105.156 104.401 105.637 104.322C106.118 104.246 106.571 104.146 106.998 104.027V107.534H107Z" fill="black"/>
</svg>
