<?xml version="1.0" encoding="utf-8"?>
<!-- Generator: Adobe Illustrator 22.0.1, SVG Export Plug-In . SVG Version: 6.00 Build 0)  -->
<!DOCTYPE svg PUBLIC "-//W3C//DTD SVG 1.1//EN" "http://www.w3.org/Graphics/SVG/1.1/DTD/svg11.dtd">
<svg version="1.1" id="Layer_1" xmlns="http://www.w3.org/2000/svg" xmlns:xlink="http://www.w3.org/1999/xlink" x="0px" y="0px"
	 viewBox="0 0 320.2 174.2" style="enable-background:new 0 0 320.2 174.2;" xml:space="preserve">
<style type="text/css">
	.st0{fill:#FFFFFF;}
	.st1{fill:#CCCED0;}
	.st2{fill:#00BE28;}
	.st3{fill:none;}
	.st4{fill:#E1E2E2;}
	.st5{fill:#84A5BC;}
	.st6{fill:#6F93AD;}
	.st7{fill:#4E748E;}
	.st8{fill:#E8EEF3;}
	.st9{fill:none;stroke:#CCCED0;stroke-linecap:round;stroke-linejoin:round;stroke-miterlimit:10;stroke-dasharray:5,5;}
	.st10{fill:#204A69;}
	.st11{fill:#BBC9D5;}
	.st12{fill:none;stroke:#BBC9D5;stroke-width:8;stroke-linecap:round;stroke-linejoin:round;stroke-miterlimit:10;}
	.st13{fill:#658DAA;}
	.st14{fill:#204A69;stroke:#204A69;stroke-width:0.7347;stroke-miterlimit:10;}
	.st15{fill:none;stroke:#204A69;stroke-linecap:round;stroke-linejoin:round;stroke-miterlimit:10;}
	.st16{fill:#FFFFFF;stroke:#204A69;stroke-linecap:round;stroke-linejoin:round;stroke-miterlimit:10;}
	.st17{fill:#204A69;stroke:#204A69;stroke-linecap:round;stroke-linejoin:round;stroke-miterlimit:10;}
	.st18{fill:none;stroke:#204A69;stroke-width:1.3476;stroke-linecap:round;stroke-linejoin:round;stroke-miterlimit:10;}
	.st19{fill:#204A69;}
</style>
<g>
	<g>
		<g>
			<g>
				<path class="st0" d="M178.5,129.5h-63.7V103h42.1c11.9,0,21.6,9.7,21.6,21.6V129.5z"/>
				<path class="st1" d="M178.6,129.6L178.6,129.6l-15.9,0.2l-15.9,0.1c-5.3,0-10.6,0.1-16,0.1l-16,0c-0.3,0-0.5-0.2-0.5-0.5v0V103
					c0-0.3,0.2-0.5,0.5-0.5h40.5c1.7,0,3.4,0,5.1,0.3c1.7,0.3,3.4,0.8,5,1.4c3.2,1.3,6,3.4,8.3,6.1c2.2,2.6,3.8,5.8,4.6,9.1
					c0.4,1.7,0.6,3.4,0.6,5.1C178.8,126.2,178.7,128,178.6,129.6z M178.3,129.5L178.3,129.5l-0.2-5c0-1.7-0.2-3.3-0.6-4.9
					c-0.8-3.2-2.4-6.2-4.5-8.7c-2.2-2.5-4.9-4.5-8-5.7c-1.5-0.6-3.1-1.1-4.8-1.3c-1.6-0.3-3.3-0.3-5-0.3h-40.5l0.5-0.5v26.6
					l-0.5-0.5l15.8,0c5.3,0,10.6,0.1,15.9,0.1l15.9,0.1L178.3,129.5z"/>
			</g>
			<path class="st2" d="M178.5,92.3h-63.7V53.6h42.1c11.9,0,21.6,9.7,21.6,21.6V92.3z"/>
			<polygon class="st0" points="141.7,66.3 151.6,73 141.7,79.6 			"/>
		</g>
		<g>
			<path class="st3" d="M108.6,129.9"/>
		</g>
		<path class="st4" d="M77.1,121.3h27.5V53.6h-8.9c-10.3,0-18.6,8.3-18.6,18.6V121.3z"/>
		<g>
			<path class="st5" d="M66.7,83.2l-0.4-36.3l-0.1-18.2c0-1.6,0.5-3.3,1.4-4.7c0.9-1.4,2.2-2.5,3.8-3.2c0.8-0.3,1.6-0.5,2.4-0.6
				l0.6,0l0.6,0l1.1,0l4.5,0L117,20l36.3-0.1l18.2,0l9.1,0l4.5,0c1.6-0.1,3.5,0.3,4.9,1.3c1.5,0.9,2.7,2.3,3.4,3.8
				c0.3,0.8,0.6,1.6,0.7,2.5c0.1,0.4,0.1,0.9,0.1,1.3l0,1.1l0,9.1l0,18.2l-0.1,72.6c0,0.6-0.5,1.1-1.1,1.1h0l-22.1-0.1l-22.1-0.2
				l-22.1-0.2c-7.4,0-14.7-0.2-22.1-0.3c-0.2,0-0.4-0.2-0.4-0.4c0-0.2,0.2-0.4,0.4-0.4c7.4-0.1,14.7-0.3,22.1-0.3l22.1-0.2l22.1-0.2
				l22.1-0.1l-1.1,1.1l-0.1-72.6l0-18.2l0-9.1l0-1.1c0-0.4,0-0.7-0.1-1c-0.1-0.6-0.3-1.3-0.5-1.9c-0.5-1.2-1.4-2.2-2.5-2.9
				c-0.5-0.3-1.1-0.6-1.8-0.8c-0.3-0.1-0.6-0.1-1-0.2c-0.3,0-0.6,0-1,0l-4.5,0l-9.1,0l-18.2,0L117,22l-36.3-0.1l-4.5,0
				c-0.7,0-1.6,0-2.2,0c-0.7,0.1-1.3,0.2-2,0.5c-1.3,0.5-2.3,1.4-3.1,2.5c-0.8,1.1-1.2,2.5-1.2,3.9l-0.1,18.2l-0.4,36.3
				c0,0.1-0.1,0.2-0.2,0.2C66.8,83.4,66.7,83.3,66.7,83.2z"/>
		</g>
		<path class="st6" d="M65.7,41.1v-6.9v-5.7c0-5,3.4-9.1,7.7-9.1h113.2c4.2,0,7.7,4.1,7.7,9.1v12.7H65.7z"/>
		<g>
			<path class="st7" d="M197.7,41c-11.3,0.8-22.5,0.7-33.8,0.8L130.2,42l-33.8-0.1c-11.3,0-22.5,0-33.8-0.8v-0.5
				c11.3-0.8,22.5-0.7,33.8-0.8l33.8-0.1l33.8,0.1c11.3,0,22.5,0,33.8,0.8V41z"/>
		</g>
		<g>
			<path class="st1" d="M120,125.6c1.8-2,4-3.6,6.5-4.8c2.4-1.2,5.1-2,7.9-2c2.8,0,5.4,0.6,8,1.4c2.6,0.8,5.1,1.6,7.6,2.3
				c5.1,1.3,10.5,2,15.4-0.2c2.4-1,4.7-2.4,6.9-3.9c2.2-1.5,4.2-3.2,6.1-5.1l0,0c0.1-0.1,0.2-0.1,0.3,0c0.1,0.1,0.1,0.2,0,0.3
				c-1.8,2-3.8,3.8-6,5.4c-2.1,1.6-4.5,3-6.9,4.1c-2.5,1.1-5.2,1.8-8,1.6c-2.7-0.1-5.4-0.5-8-1.2c-2.6-0.7-5.1-1.5-7.7-2.3
				c-2.5-0.8-5.1-1.4-7.7-1.4c-2.6,0-5.2,0.6-7.6,1.7c-2.4,1.1-4.7,2.5-6.7,4.2l0,0c0,0-0.1,0-0.1,0
				C119.9,125.7,119.9,125.7,120,125.6z"/>
		</g>
	</g>
	<g>
		<g>
			<path class="st8" d="M0.2,172.8c26.6-0.6,53.3-0.7,79.9-0.8l79.9-0.1c53.3,0.1,106.6,0.1,159.8,0.7c0.2,0,0.4,0.2,0.4,0.4
				c0,0.2-0.2,0.4-0.4,0.4c-53.3,0.7-106.6,0.6-159.8,0.7L80.1,174c-26.6-0.1-53.3-0.3-79.9-0.8c-0.1,0-0.2-0.1-0.2-0.2
				C0,172.9,0.1,172.8,0.2,172.8z"/>
		</g>
		<g>
			<path class="st9" d="M60.3,40.8"/>
			<path class="st9" d="M193.9,40.8"/>
		</g>
		<path class="st10" d="M211.8,148.3c0,0,0.2,20.1-1.1,20.8c-0.6,0.3-1.2,0.6-1.8,1c-1,0.7-0.6,2.2,0.6,2.3c1,0.1,3.3,0.2,4.5,0.1
			c1.9-0.2,2.4-1.6,2.7-3.6l2.9-20.6"/>
		<path class="st10" d="M226,148.8c0,0,8.1,18.4,7.1,19.6c-0.4,0.5-0.9,1-1.3,1.6c-0.6,1,0.3,2.2,1.4,1.9c1-0.3,3.1-1.1,4.2-1.7
			c1.7-0.9,1.6-2.5,1.1-4.3l-5.4-20.1"/>
		<path class="st5" d="M224.2,92.8c3.4-1.2,9.6-0.1,13.4,9.9c3.3,8.7,2.9,19.4-4.1,21.3C229.4,125.1,224.2,92.8,224.2,92.8z"/>
		<path class="st11" d="M211.8,149.6h27.2c-3.1-20.6-8.1-41.3-8.1-41.3l-6.6-15.4c0,0-0.5-1.4-3.9,0.3
			C213.3,96.6,212.1,134.3,211.8,149.6z"/>
		<path class="st11" d="M284.3,93.8l-3.3,5L219.5,47l8-7.5l55.8,47C285.4,88.3,285.9,91.5,284.3,93.8z"/>
		<circle class="st12" cx="206.6" cy="25.7" r="21.7"/>
		<polygon class="st0" points="244.5,62.7 250.7,44.4 260.1,50.4 251.1,65.6 		"/>
		<path class="st13" d="M271.9,116c17.8,16.3,19.1,22.9,23.8,37.1l-12.1,11.7l-12.1-18.2"/>
		<path class="st13" d="M253.8,88.3c-8.2,23.8-8.8,30.4-1.1,43.9L253.8,88.3z"/>
		<path class="st10" d="M250.7,44.4l11.6,8.2l-11.1,12.9l1.7,19.2h24.1c0,0,3.5-4.8,3.8-11c0.3-6.2-4.3-38.6-15.5-39.9
			C253.9,32.5,250.7,44.4,250.7,44.4z"/>
		<g>
			<path class="st0" d="M58.6,155.7l3.9,10.3l-7.2,4.3c0,0-6.5-8-16.9-30.5"/>
			<path class="st10" d="M59.1,155.5l4.3,10.2l0,0c0.2,0.4,0,0.8-0.4,1c-1.2,0.7-2.4,1.4-3.6,2.1c-1.2,0.7-2.4,1.4-3.6,2.2l0,0
				c-0.3,0.2-0.7,0.1-1-0.2c-1.8-2.4-3.3-4.9-4.8-7.4c-1.5-2.5-2.9-5.1-4.3-7.7c-1.4-2.6-2.7-5.2-4-7.8c-1.3-2.6-2.5-5.3-3.7-7.9
				c-0.1-0.3,0-0.5,0.2-0.7c0.2-0.1,0.5,0,0.7,0.2c1.2,2.6,2.5,5.2,3.8,7.8c1.3,2.6,2.7,5.2,4.1,7.7c1.4,2.6,2.8,5.1,4.4,7.5
				c1.5,2.5,3.1,4.9,4.8,7.2l-1-0.2c1.2-0.7,2.4-1.4,3.6-2.1c1.2-0.7,2.4-1.4,3.5-2.2l-0.3,1l-3.6-10.4c-0.1-0.3,0-0.5,0.3-0.6
				C58.7,155.1,59,155.3,59.1,155.5z"/>
		</g>
		<path class="st14" d="M54.1,168.8c3.4-1.9,13.9-7.4,15.7-7.7c1.8-0.4,2.1-0.2,0.5,1.3c-1.6,1.5-14.7,8.9-14.7,8.9L54.1,168.8z"/>
		<g>
			<path class="st0" d="M46.5,161.2l-1.7,11.1h-9c0,0-1.4-10.3,1.3-34.9"/>
			<path class="st10" d="M47,161.3l-1.4,11.1l0,0c-0.1,0.4-0.4,0.7-0.8,0.7c-1.5-0.1-3-0.1-4.5-0.1c-1.5,0-3,0-4.5,0l0,0
				c-0.4,0-0.7-0.3-0.7-0.7c-0.3-3-0.3-5.9-0.3-8.8c0-2.9,0.1-5.9,0.3-8.8c0.2-2.9,0.4-5.8,0.6-8.7c0.3-2.9,0.6-5.8,0.9-8.7
				c0-0.3,0.3-0.5,0.6-0.4c0.3,0,0.5,0.3,0.4,0.5c-0.3,2.9-0.6,5.8-0.8,8.7c-0.2,2.9-0.4,5.8-0.5,8.7c-0.1,2.9-0.2,5.8-0.2,8.7
				c0,2.9,0.1,5.8,0.4,8.6l-0.8-0.7c1.5,0,3,0,4.5,0c1.5,0,3,0,4.5-0.1l-0.8,0.7l2.1-11c0.1-0.3,0.3-0.5,0.6-0.4
				C46.9,160.8,47.1,161,47,161.3z"/>
		</g>
		<polyline class="st10" points="52.7,112.9 60.7,159.6 46.9,163.1 		"/>
		<g>
			<path class="st6" d="M36.5,86.7c-5.2,22.3-2,35.5-2.6,40.6c-0.7,5.1-4.3,26.2-3.5,33.6l16.6,2.2l9-65.5"/>
		</g>
		<g>
			<path class="st0" d="M59.3,51.9c0.8,0.5,1.3,0.6,2.3,0.9c4,1,7.5-0.9,9.4-4.2c0.5-0.9,2.5-0.6,2.8-1.7c0.4-1.5-1.9-2.8-1.5-5.8
				c0.4-3.4-2.4-6.2-6.1-7.1c-5.2-1.3-10.4,1.9-11.7,7.1"/>
			<path class="st10" d="M59.6,51.5c0.4,0.2,0.8,0.4,1.3,0.5c0.5,0.1,1,0.2,1.4,0.3c0.9,0.1,1.9,0.1,2.8-0.1c1.8-0.4,3.3-1.5,4.4-3
				l0.4-0.6l0.2-0.3c0.1-0.1,0.1-0.1,0.3-0.4c0.3-0.4,0.7-0.6,1-0.7c0.3-0.1,0.6-0.2,0.8-0.3c0.2-0.1,0.4-0.1,0.6-0.2
				c0.1-0.1,0.2-0.1,0.1-0.1c0,0,0-0.1,0-0.2c0-0.1-0.1-0.2-0.1-0.4c-0.3-0.7-1-1.8-1.3-2.9c-0.1-0.6-0.2-1.2-0.1-1.8l0.1-0.7
				c0-0.2,0-0.4,0-0.6c-0.1-1.6-1.3-3.1-2.9-4.1c-1.6-0.9-3.4-1.4-5.3-1.3c-3.7,0.2-7.2,2.9-8.2,6.6c-0.1,0.3-0.4,0.4-0.6,0.3
				c-0.3-0.1-0.4-0.3-0.4-0.6c0.4-2.1,1.5-4.1,3.2-5.5c1.6-1.5,3.7-2.4,5.9-2.6c2.2-0.2,4.4,0.3,6.4,1.4c1,0.6,1.9,1.3,2.6,2.2
				c0.7,0.9,1.2,2.1,1.3,3.3c0,0.3,0.1,0.6,0,0.9l0,0.8c0,0.4,0,0.8,0.1,1.2c0.2,0.8,0.6,1.5,1.1,2.6c0.2,0.5,0.5,1.4,0,2.3
				c-0.3,0.5-0.7,0.7-1,0.9c-0.3,0.1-0.6,0.2-0.9,0.3c-0.5,0.1-0.9,0.3-0.8,0.3c0-0.1-0.1,0.1-0.2,0.2l-0.2,0.3
				c-0.2,0.2-0.3,0.4-0.5,0.7c-1.4,1.7-3.4,3-5.6,3.4c-1.1,0.2-2.2,0.1-3.3-0.1c-0.5-0.1-1-0.3-1.5-0.4c-0.5-0.2-1-0.5-1.5-0.8
				c-0.2-0.2-0.3-0.5-0.1-0.7C59.1,51.4,59.3,51.4,59.6,51.5z"/>
		</g>
		<g>
			<path class="st10" d="M255.3,31.5c-0.5,0.3-1,0.6-1.6,0.7c-0.6,0.2-1.1,0.3-1.6,0.4c-1.1,0.2-2.3,0.2-3.5,0
				c-2.3-0.5-4.4-1.9-5.7-3.8c-0.2-0.2-0.3-0.5-0.5-0.7l-0.2-0.4c-0.1-0.1-0.2-0.3-0.2-0.3c0,0-0.4-0.2-0.9-0.4
				c-0.3-0.1-0.6-0.2-0.9-0.3c-0.3-0.2-0.8-0.4-1-0.9c-0.5-1-0.1-1.9,0.1-2.4c0.6-1.1,1.1-1.8,1.3-2.7c0.1-0.4,0.2-0.9,0.2-1.3
				l0-0.8c0-0.3,0-0.6,0.1-0.9c0.2-1.3,0.8-2.4,1.5-3.4c0.8-0.9,1.8-1.7,2.8-2.2c2.1-1.1,4.5-1.5,6.8-1.2c2.3,0.3,4.5,1.4,6.1,3
				c1.7,1.6,2.7,3.7,3.1,6c0,0.3-0.1,0.5-0.4,0.6c-0.3,0-0.5-0.1-0.6-0.4c-0.9-4-4.5-7.1-8.4-7.4c-1.9-0.2-4,0.2-5.7,1.2
				c-1.7,0.9-3,2.4-3.3,4.2c0,0.2-0.1,0.4,0,0.7l0,0.8c0,0.6,0,1.3-0.2,1.9c-0.3,1.2-1.1,2.3-1.5,3c-0.1,0.2-0.2,0.4-0.2,0.5
				c0,0.1,0,0.2,0,0.2c0,0,0,0,0.2,0.1c0.1,0.1,0.4,0.2,0.6,0.2c0.3,0.1,0.5,0.2,0.9,0.3c0.3,0.1,0.7,0.4,1,0.8
				c0.2,0.3,0.2,0.3,0.3,0.4L244,27l0.4,0.6c1.1,1.6,2.7,2.9,4.6,3.4c0.9,0.2,1.9,0.3,2.9,0.2c0.5,0,1-0.1,1.5-0.2
				c0.5-0.1,0.9-0.3,1.4-0.5c0.2-0.1,0.5,0,0.7,0.2C255.6,31.1,255.5,31.3,255.3,31.5z"/>
		</g>
		<path class="st14" d="M35.4,170.2c3.9,0.1,15.7,0.9,17.5,1.5c1.8,0.6,1.9,0.9-0.3,1.4c-2.1,0.5-17.2,0-17.2,0V170.2z"/>
		<path class="st15" d="M67.4,49.4c0.7,0.6,1.5,0.8,1.5,0.8"/>
		<path class="st10" d="M67.7,45.4L67.7,45.4c-0.3-0.1-0.4-0.5-0.3-0.8l0.4-0.9c0.1-0.3,0.5-0.4,0.8-0.3l0,0
			c0.3,0.1,0.4,0.5,0.3,0.8l-0.4,0.9C68.4,45.4,68,45.6,67.7,45.4z"/>
		<path class="st13" d="M57.8,86.3l-1.9,11.3l-25.7-5.4c0,0,6.9-39,21.2-39.1c4.6,0,9.3,3.5,8.5,10.9"/>
		<g>
			<path class="st0" d="M58.4,67.7c2.5-6.1,5.5-12.5,10.3-13.8c4.8-1.3,0.7,5.4-1.8,7.6c-0.4,2.8,2.7,21-8.9,20.9
				C43.3,82.3,44.4,58,50.5,56.5c5.4-1.3,6.2,7.3,8.6,15.2"/>
			<path class="st10" d="M57.9,67.5c0.9-2.2,1.8-4.4,2.9-6.6c1.1-2.1,2.5-4.2,4.4-5.9c1-0.8,2.1-1.5,3.4-1.8c0.3-0.1,0.7-0.2,1-0.2
				c0.4,0,0.8,0,1.3,0.3c0.5,0.3,0.7,0.9,0.8,1.3c0,0.4,0,0.8-0.1,1.1c-0.3,1.3-1,2.4-1.6,3.5c-0.7,1-1.4,2-2.4,2.9l0,0l0.3-0.6
				c-0.1,0.6,0,1.5,0,2.3l0,2.5c0,1.7,0,3.3-0.2,5c-0.2,1.7-0.4,3.3-1,5c-0.5,1.6-1.3,3.2-2.6,4.5c-1.3,1.3-3.1,2.1-4.8,2.2
				c-1.8,0.2-3.5,0-5.2-0.6C52.5,82,51,81,49.8,79.7c-1.2-1.3-2.1-2.8-2.8-4.4c-1.3-3.2-1.7-6.6-1.5-10c0.1-1.7,0.4-3.4,0.9-5
				c0.3-0.8,0.6-1.6,1.1-2.4c0.5-0.7,1.1-1.5,2.1-1.9c0.2-0.1,0.5-0.2,0.7-0.2c0.2,0,0.5-0.1,0.7-0.1c0.5-0.1,1,0,1.5,0.1
				c1,0.2,1.8,0.9,2.4,1.6c1.1,1.4,1.7,3.1,2.2,4.6c1,3.2,1.6,6.4,2.5,9.5c0.1,0.3-0.1,0.5-0.3,0.6c-0.3,0.1-0.5-0.1-0.6-0.3
				c-1-3.1-1.7-6.3-2.7-9.4c-0.5-1.5-1.1-3-2-4.2c-0.5-0.6-1-1-1.6-1.1c-0.3-0.1-0.6-0.1-1,0c-0.2,0-0.3,0.1-0.5,0.1
				c-0.2,0-0.3,0.1-0.4,0.2c-1.1,0.6-1.9,2.1-2.4,3.5c-0.5,1.5-0.8,3-0.9,4.6c-0.2,3.2,0.2,6.4,1.4,9.3c1.2,2.9,3.3,5.4,6.2,6.3
				c2.8,0.9,6.4,0.8,8.4-1.3c1.1-1,1.7-2.4,2.2-3.9c0.5-1.5,0.7-3.1,0.8-4.7c0.1-1.6,0.1-3.2,0.1-4.8L66.1,64c0-0.8-0.1-1.6,0-2.6
				c0-0.2,0.1-0.4,0.2-0.5l0.1-0.1l0,0c0.8-0.7,1.6-1.6,2.2-2.5c0.6-0.9,1.3-1.9,1.5-2.9c0.1-0.2,0.1-0.5,0.1-0.6
				c0-0.2,0-0.2-0.1-0.2c-0.1-0.1-0.7-0.1-1.2,0c-1,0.3-2,0.8-2.9,1.5c-1.7,1.4-3.1,3.4-4.2,5.4c-1.1,2-2.1,4.2-3,6.4
				c-0.1,0.3-0.4,0.4-0.7,0.3C58,68.1,57.8,67.8,57.9,67.5z"/>
		</g>
		<path class="st10" d="M53.5,44.3c0,3.1,13.5,1.3,17.4-8.4c0,0-8.1-4.4-12.4-1.5S53.5,41.2,53.5,44.3z"/>
		<g>
			<polyline class="st10" points="60.9,52.6 59.1,55.4 59.1,51.9 			"/>
			<path class="st10" d="M61.1,52.7c-0.4,1-1,2-1.5,2.9c-0.1,0.2-0.4,0.3-0.7,0.2c-0.1-0.1-0.2-0.3-0.2-0.4c0-0.6,0-1.2,0-1.7
				c0-0.6,0.1-1.2,0.2-1.7c0-0.1,0.2-0.2,0.3-0.2c0.1,0,0.2,0.1,0.2,0.2c0.1,0.6,0.2,1.2,0.2,1.7c0,0.6,0.1,1.2,0.1,1.7l-0.9-0.3
				c0.6-0.9,1.2-1.8,2-2.7c0.1-0.1,0.3-0.1,0.4,0C61.1,52.5,61.2,52.7,61.1,52.7z"/>
		</g>
		<path class="st10" d="M55.7,28.1c-5.7,3.1-1,9.8,4.4,7.2S61.5,25,55.7,28.1z"/>
		<path class="st10" d="M53,21.8c-4.6,2.5-1.1,8.8,3.2,6.7S57.7,19.3,53,21.8z"/>
		<g>
			<path class="st0" d="M43.8,95.3c0.1,1.5,0.1,4.5,0.5,7.5"/>
			<path class="st10" d="M44.3,95.3c0.2,1.3,0.3,2.5,0.4,3.7c0.1,1.2,0.2,2.5,0.1,3.7l0,0c0,0.3-0.2,0.5-0.5,0.5
				c-0.2,0-0.4-0.2-0.5-0.4c-0.4-1.2-0.5-2.5-0.6-3.8c-0.1-1.3,0-2.5,0.1-3.8l0,0c0-0.3,0.3-0.5,0.6-0.5
				C44.1,94.9,44.3,95,44.3,95.3z"/>
		</g>
		<path class="st16" d="M46.9,96.3"/>
		<g>
			<path class="st0" d="M262.3,52.7c0,0-9.1,21.7-14.4,22.6c-5.3,0.9-14.7-11.2-18.5-15c-7.1-0.6-8.6-9.9-7-11.1
				c2.4-1.7,6,5.5,7.5,4.4c1.5-1.1-2-4.2-0.7-5.3c1.2-1,4.8,2.5,5.7,6.2c0.2,0.8,0.7,1.4,1.4,1.7c5.3,2,10.1,4.6,10.1,4.6"/>
			<path class="st10" d="M262.7,52.9c-1.6,4-3.4,8-5.4,11.8c-1,1.9-2.1,3.8-3.3,5.7c-0.6,0.9-1.2,1.8-1.9,2.7
				c-0.7,0.9-1.5,1.7-2.5,2.4c-0.2,0.2-0.6,0.3-0.9,0.5c-0.3,0.1-0.7,0.3-1,0.3c-0.7,0.1-1.3,0-1.9-0.2c-1.2-0.3-2.2-0.9-3.2-1.5
				c-1.9-1.2-3.6-2.7-5.2-4.2c-1.6-1.5-3.1-3.1-4.5-4.7c-1.5-1.6-2.9-3.3-4.3-4.8l0.6,0.3c-1.2-0.1-2.5-0.5-3.5-1.1
				c-1.1-0.6-2-1.5-2.7-2.5c-0.7-1-1.3-2.1-1.6-3.2c-0.4-1.1-0.6-2.3-0.6-3.5c0-0.3,0-0.6,0.1-1c0.1-0.3,0.2-0.7,0.5-1.1
				c0.1-0.1,0.2-0.2,0.3-0.3c0.1-0.1,0.2-0.1,0.3-0.2c0.2-0.1,0.4-0.2,0.7-0.2c0.5-0.1,0.9,0,1.3,0.1c0.7,0.3,1.2,0.6,1.7,1
				c0.5,0.4,0.9,0.8,1.3,1.2c0.8,0.8,1.5,1.7,2.2,2.2c0.2,0.1,0.3,0.2,0.4,0.2c0,0-0.1,0-0.1,0c-0.1,0.1,0,0,0,0c0,0,0,0,0-0.2
				c0-0.1-0.1-0.4-0.2-0.6c-0.2-0.4-0.4-0.9-0.7-1.4c-0.1-0.3-0.3-0.5-0.4-0.9c-0.1-0.3-0.2-0.7-0.1-1.3c0.1-0.6,0.6-1,1.1-1.1
				c0.5-0.1,1,0,1.3,0.1c0.7,0.3,1.2,0.6,1.6,1c0.9,0.8,1.6,1.7,2.2,2.7c0.3,0.5,0.6,1,0.8,1.6c0.1,0.3,0.2,0.6,0.3,0.8l0.2,0.8
				c0.1,0.4,0.4,0.7,0.7,0.9c0.1,0,0.2,0.1,0.2,0.1l0.4,0.2l0.8,0.3c1,0.4,2,0.9,3,1.3c2,0.9,4,1.9,5.9,3c0.2,0.1,0.3,0.4,0.2,0.7
				c-0.1,0.2-0.4,0.3-0.7,0.2l0,0c-1.9-1-3.9-1.9-5.9-2.8c-1-0.4-2-0.8-3-1.2l-0.8-0.3l-0.4-0.1c-0.2-0.1-0.3-0.1-0.5-0.2
				c-0.6-0.4-1.1-1-1.3-1.6l-0.2-0.8c-0.1-0.2-0.2-0.5-0.3-0.7c-0.2-0.5-0.4-0.9-0.7-1.4c-0.5-0.9-1.2-1.7-1.9-2.3
				c-0.4-0.3-0.8-0.6-1.1-0.7c-0.2-0.1-0.3-0.1-0.3-0.1c0.1,0,0,0,0,0c0,0,0.1,0.6,0.3,1c0.2,0.5,0.5,0.9,0.8,1.5
				c0.1,0.3,0.2,0.6,0.3,1c0.1,0.4,0,1-0.3,1.4c-0.2,0.2-0.3,0.4-0.6,0.5c-0.3,0.2-0.7,0.2-0.9,0.1c-0.5-0.1-0.8-0.3-1.1-0.5
				c-1-0.8-1.7-1.6-2.5-2.4c-0.7-0.7-1.6-1.5-2.2-1.7c-0.2-0.1-0.3-0.1-0.3,0c0,0-0.1,0-0.1,0c0,0,0,0-0.1,0c0,0,0,0,0,0
				c0,0-0.1,0.2-0.1,0.4c0,0.2-0.1,0.4-0.1,0.7c0,1.9,0.7,4,1.9,5.6c1.2,1.6,2.9,2.6,4.8,2.8c0.2,0,0.5,0.1,0.6,0.3
				c3,3.2,5.7,6.5,8.8,9.4c1.5,1.5,3.1,2.9,4.8,4c1.7,1.1,3.7,2,5,1c0.8-0.5,1.5-1.2,2.2-2c0.7-0.8,1.3-1.6,1.9-2.5
				c1.2-1.7,2.3-3.6,3.3-5.5c2.1-3.7,4-7.6,5.8-11.5l0,0c0.1-0.3,0.4-0.4,0.7-0.2C262.7,52.3,262.8,52.6,262.7,52.9z"/>
		</g>
		<path class="st10" d="M239,12.1c-0.3,4.4,4.1,5.1,6.4,6.8c2.4,1.8,2.5,4,4.8,4.6c2.3,0.6,3.3-0.5,6.1,0.1c2.6,0.5,3.5,2.3,6.5,1.8
			c2.4-0.4,4.1-1.4,4.5-4.9c0.4-3.5-1.4-4-2.1-7.3s-0.8-5.1-4.1-6.2c-3-1-4.4,0-6.9-0.9c-2.5-0.9-3.4-2.1-6.2-1.9
			c-1.9,0.1-3,1-4.6,2.9C241.7,8.9,239.3,8.5,239,12.1z"/>
		<path class="st15" d="M245.2,27.2c-0.9,0.5-1.5,0.8-1.5,0.8"/>
		<path class="st10" d="M245.9,23.4L245.9,23.4c0.3-0.1,0.5-0.4,0.5-0.8l-0.3-1c-0.1-0.3-0.4-0.5-0.8-0.5l0,0
			c-0.3,0.1-0.5,0.4-0.5,0.8l0.3,1C245.2,23.2,245.6,23.4,245.9,23.4z"/>
		<g>
			<path class="st0" d="M253.9,84.8l-1.2,85.6l15.2-2.1c0,0,6.3-22.1,5.3-34.3c-1.9-22.6,4.7-34,3.8-49.2"/>
			<path class="st13" d="M254.4,84.8l-0.4,42.8l-0.2,21.4c0,7.1-0.3,14.3-0.4,21.4l-0.9-0.8l15.2-2.1l-0.6,0.5
				c1.8-6.7,3.4-13.6,4.4-20.5c0.5-3.4,0.9-6.9,1-10.4c0-1.7-0.1-3.4-0.2-5.2c-0.1-1.8-0.2-3.5-0.2-5.3c0-3.5,0.1-7.1,0.5-10.6
				c0.4-3.5,0.9-7,1.5-10.5c1.2-6.9,2.6-13.8,2.2-20.8c0-0.3,0.2-0.5,0.5-0.5c0.3,0,0.5,0.2,0.5,0.5c0.5,7.1-0.9,14.1-2,21
				c-0.6,3.5-1.1,6.9-1.5,10.4c-0.4,3.5-0.5,7-0.5,10.4c0,1.7,0.1,3.5,0.2,5.2c0.1,1.7,0.3,3.5,0.3,5.3c0,3.6-0.4,7.1-0.9,10.6
				c-1,7-2.6,13.9-4.4,20.7c-0.1,0.3-0.3,0.5-0.6,0.5l0,0l-15.2,2.1c-0.4,0.1-0.8-0.2-0.8-0.6c0,0,0-0.1,0-0.1
				c0.1-7.1,0.1-14.3,0.2-21.4l0.4-21.4l0.8-42.8c0-0.3,0.2-0.5,0.5-0.5C254.2,84.3,254.4,84.5,254.4,84.8z"/>
		</g>
		<path class="st13" d="M269.9,167.4c-5.4,0.2-21.7,1.2-24.2,2.1c-2.4,0.9-2.6,1.2,0.3,1.9c3,0.7,23.8,0,23.8,0V167.4z"/>
		<path class="st13" d="M295.8,153.1c-4.1,3.5-16.7,14.4-18.1,16.6c-1.4,2.2-1.3,2.6,1.5,1.3c2.3-1.1,14.1-10.9,17.7-13.9
			c0.6-0.5,0.7-1.3,0.3-2L295.8,153.1z"/>
		<path class="st17" d="M253.9,31.8l2.3,3.2c-0.5-0.7-1.1-4-1.1-4"/>
		<g>
			<path class="st5" d="M220.7,101.2c-0.4-1.1-0.6-2.3-0.6-3.5c0-1.2,0.1-2.5,0.7-3.7c0.1-0.3,0.3-0.6,0.5-0.9
				c0.2-0.3,0.5-0.6,0.7-0.8c0.6-0.5,1.3-0.8,2.1-0.8c1.6,0.1,2.7,1,3.3,2c0.2,0.2,0.1,0.5-0.1,0.7c-0.2,0.1-0.4,0.1-0.6,0l0,0
				c-0.8-0.7-1.8-1.1-2.5-1c-0.4,0.1-0.7,0.2-0.9,0.5c-0.3,0.3-0.5,0.7-0.7,1.1c-0.4,0.9-0.6,1.9-0.7,2.9c-0.1,1.1-0.2,2.1-0.3,3.3
				l0,0c0,0.3-0.3,0.5-0.6,0.5C220.9,101.5,220.7,101.4,220.7,101.2z"/>
		</g>
		<g>
			<path class="st5" d="M227.5,118.9c0.7,0.5,1.2,1.1,1.8,1.6c0.5,0.5,1.1,1,1.6,1.5c0.6,0.4,1.1,0.8,1.7,0.9c0.3,0.1,0.5,0.1,0.8,0
				c0.3,0,0.6-0.2,0.8-0.4l0.1-0.1c0.2-0.2,0.5-0.1,0.7,0.1c0.1,0.1,0.1,0.3,0,0.5c-0.2,0.5-0.6,0.9-1.1,1.2c-0.5,0.3-1,0.4-1.6,0.3
				c-1.1-0.1-1.9-0.6-2.7-1.1c-0.4-0.3-0.7-0.6-1-0.9c-0.3-0.3-0.6-0.6-0.8-1c-0.5-0.7-0.9-1.4-1.2-2.2c-0.1-0.3,0-0.6,0.3-0.7
				C227.1,118.8,227.3,118.8,227.5,118.9L227.5,118.9z"/>
		</g>
		<g>
			<path class="st0" d="M222.9,113.5c0,0-2.5-19.3,1.3-19.6c6.1-0.5,9.8,29,1.3,29.7c-7.9,0.6-12.4-23-4.1-26.2"/>
			<path class="st10" d="M222.4,113.6c-0.6-3.6-0.9-7.1-1.1-10.7c-0.1-1.8-0.1-3.6,0.2-5.5c0.1-0.9,0.3-1.9,0.7-2.9
				c0.3-0.5,0.6-1.1,1.4-1.4c0.2-0.1,0.4-0.1,0.6-0.1c0.2,0,0.3,0,0.5,0c0.3,0,0.6,0.2,0.9,0.3c1.1,0.5,1.7,1.4,2.2,2.2
				c0.5,0.8,0.9,1.7,1.3,2.6c0.7,1.7,1.1,3.5,1.5,5.3c0.7,3.6,1,7.2,0.8,10.9c-0.1,1.8-0.4,3.7-1,5.5c-0.3,0.9-0.7,1.8-1.3,2.6
				c-0.6,0.8-1.5,1.6-2.6,1.9c-1.1,0.3-2.3,0.2-3.2-0.3c-1-0.4-1.8-1.1-2.4-1.8c-1.3-1.5-2.1-3.2-2.8-4.9c-1.3-3.5-1.9-7.1-1.7-10.8
				c0.1-1.8,0.4-3.7,1.1-5.4c0.7-1.7,2-3.4,3.8-4.1c0.3-0.1,0.5,0,0.6,0.3c0.1,0.2,0,0.5-0.3,0.6l0,0c-1.5,0.6-2.5,2.1-3,3.6
				c-0.6,1.6-0.8,3.3-0.8,5c0,3.5,0.6,7,1.9,10.2c0.6,1.6,1.5,3.1,2.5,4.3c1.1,1.2,2.5,1.9,3.8,1.5c1.2-0.4,2.1-1.8,2.6-3.4
				c0.5-1.6,0.8-3.3,0.9-5c0.2-3.5-0.1-7-0.7-10.4c-0.3-1.7-0.8-3.4-1.4-5c-0.3-0.8-0.6-1.6-1.1-2.3c-0.4-0.7-0.9-1.3-1.4-1.6
				c-0.1,0-0.2-0.1-0.4-0.1c-0.1,0-0.1,0-0.2,0c-0.1,0,0,0-0.1,0c-0.1,0-0.3,0.2-0.4,0.5c-0.3,0.6-0.5,1.5-0.6,2.3
				c-0.3,1.7-0.3,3.5-0.3,5.2c0,3.5,0.2,7.1,0.6,10.6l0,0c0,0.3-0.2,0.5-0.5,0.5C222.7,114,222.5,113.8,222.4,113.6z"/>
		</g>
		<g>
			<g>
				<path class="st10" d="M227.1,86.3c-0.7,1-1.6,1.8-2.6,2.4c-1,0.6-2,1.2-3.2,1.5c-2.4,0.6-5.1-0.1-6.9-1.7
					c-0.5-0.4-0.9-0.9-1.3-1.3l-0.3-0.4l-0.1-0.2c0,0,0,0,0,0c0.1,0,0,0-0.2,0c-0.2,0-0.6,0-1.1-0.2c-0.5-0.2-0.9-0.7-1-1.2
					c-0.2-0.9,0-1.5,0-2.1c0-0.3,0.1-0.5,0.1-0.7c0-0.2,0-0.2-0.1-0.6c-0.2-0.6-0.3-1.2-0.3-1.8c-0.1-1.2-0.1-2.5,0.3-3.7
					c0.3-1.2,1-2.4,1.8-3.3c0.9-0.9,2-1.6,3.1-2.1c1.1-0.5,2.3-0.8,3.5-0.9c1.3-0.1,2.6,0.1,3.8,0.7c2.3,1.1,3.9,3,5,5.2
					c1,2.1,1.5,4.6,1,6.9c-0.1,0.3-0.3,0.4-0.6,0.4c-0.3-0.1-0.4-0.3-0.4-0.5l0,0c0.2-2.1-0.4-4.2-1.4-6c-1-1.8-2.5-3.4-4.3-4.2
					c-0.9-0.4-1.8-0.6-2.8-0.5c-1,0.1-2,0.4-2.9,0.8c-1.9,0.8-3.3,2.2-3.9,4.1c-0.3,0.9-0.3,1.9-0.2,2.9c0.1,0.5,0.1,1,0.3,1.5
					l0.1,0.2l0.1,0.3c0.1,0.2,0.1,0.4,0.1,0.6c0,0.4-0.1,0.7-0.1,1c-0.1,0.6-0.2,1.1-0.1,1.2c0,0.1,0,0.1,0,0.1c0,0,0.2,0,0.5,0.1
					c0.3,0,0.9,0,1.3,0.5c0.1,0.1,0.2,0.2,0.3,0.3l0.1,0.2l0.2,0.3c0.3,0.4,0.6,0.8,1,1.1c1.5,1.4,3.6,2,5.5,1.6
					c1-0.2,1.9-0.6,2.9-1.2c0.9-0.6,1.8-1.2,2.4-2l0,0c0.2-0.2,0.5-0.3,0.7-0.1C227.2,85.8,227.3,86.1,227.1,86.3z"/>
			</g>
			<g>
				<path class="st10" d="M212.5,74.4c1.7,2.7,4.4,4.4,7.3,5.7c2.9,1.3,6.1,2.1,9.3,3.1c0.3,0.1,0.4,0.4,0.3,0.6
					c-0.1,0.2-0.3,0.4-0.5,0.4c-1.7-0.1-3.3-0.4-5-0.7c-1.7-0.4-3.3-0.8-4.9-1.5c-1.6-0.7-3.1-1.5-4.5-2.7c-1.3-1.2-2.4-2.7-2.9-4.4
					c-0.1-0.3,0.1-0.5,0.3-0.6C212.2,74.2,212.4,74.2,212.5,74.4L212.5,74.4z"/>
			</g>
			<g>
				<path class="st10" d="M215.6,71.8c0.2-1.1-0.4-1.9-1.4-2.3c-0.9-0.4-2-0.2-2.7,0.4c-0.3,0.3-0.7,0.8-0.9,1.2
					c-0.2,0.4-0.3,0.9-0.2,1.5c0.1,1,0.6,2,1.6,2.4l0,0c0.3,0.1,0.4,0.4,0.3,0.6c-0.1,0.2-0.3,0.3-0.5,0.3c-0.8,0-1.6-0.4-2.2-1
					c-0.6-0.6-0.9-1.4-1.1-2.2c-0.1-0.8-0.1-1.6,0.2-2.4c0.3-0.8,0.8-1.4,1.4-2c0.6-0.5,1.5-0.9,2.3-1c0.9-0.1,1.7,0.1,2.4,0.5
					c0.7,0.4,1.3,1,1.7,1.8c0.3,0.8,0.2,1.8-0.2,2.4c-0.1,0.2-0.5,0.3-0.7,0.2C215.7,72.3,215.6,72,215.6,71.8L215.6,71.8z"/>
			</g>
			<g>
				<line class="st18" x1="214.7" y1="81.9" x2="214.8" y2="82.7"/>
			</g>
			<g>
				<path class="st19" d="M214.2,87.2c0.4,0.1,0.8,0,1.2-0.1c0.2-0.1,0.4-0.2,0.6-0.3c0.2-0.1,0.3-0.3,0.4-0.4l0,0
					c0.1-0.2,0.3-0.2,0.5-0.1c0.1,0.1,0.2,0.2,0.2,0.3c0,0.4-0.2,0.7-0.4,1c-0.2,0.3-0.5,0.4-0.8,0.6c-0.3,0.1-0.7,0.2-1,0.1
					c-0.3,0-0.7-0.1-1-0.4c-0.1-0.1-0.1-0.3,0-0.5C214,87.2,214.1,87.1,214.2,87.2L214.2,87.2z"/>
			</g>
			<g>
				<path class="st0" d="M225.1,74.1c0.4,3.3,7.8,4.7,7.8-1.4C232.9,66.5,224.2,66.4,225.1,74.1z"/>
				<path class="st10" d="M225.6,74c0.1,0.9,0.9,1.6,1.8,1.9c0.9,0.3,1.9,0.3,2.7,0c0.8-0.3,1.3-1,1.6-1.8c0.2-0.8,0.3-1.9,0.1-2.7
					c-0.2-0.9-0.7-1.6-1.4-2.1c-0.7-0.5-1.7-0.6-2.5-0.3c-0.8,0.3-1.6,1-1.9,1.9C225.6,71.9,225.5,73,225.6,74z M224.6,74.1
					c-0.1-1.1-0.1-2.4,0.3-3.5c0.4-1.1,1.2-2.3,2.4-2.8c1.2-0.5,2.7-0.5,3.9,0.1c1.2,0.6,2.1,1.8,2.5,3.1c0.2,0.6,0.2,1.3,0.2,1.9
					c0,0.6-0.1,1.3-0.3,1.9c-0.2,0.6-0.6,1.3-1.1,1.7c-0.5,0.5-1.2,0.8-1.8,1c-1.3,0.3-2.6,0.1-3.7-0.5c-0.6-0.3-1.1-0.6-1.5-1.1
					C225,75.4,224.7,74.8,224.6,74.1z"/>
			</g>
		</g>
	</g>
</g>
</svg>
