<?xml version="1.0" standalone="no"?>
<!DOCTYPE svg PUBLIC "-//W3C//DTD SVG 1.1//EN" "http://www.w3.org/Graphics/SVG/1.1/DTD/svg11.dtd" >
<!--
2016-1-15: Created with FontForge (http://fontforge.org)
-->
<svg xmlns="http://www.w3.org/2000/svg" xmlns:xlink="http://www.w3.org/1999/xlink" version="1.1">
<metadata>
Created by FontForge 20150913 at Fri Jan 15 14:23:08 2016
 By Joen Asmussen

</metadata>
<defs>
<font id="social-logos" horiz-adv-x="512" >
  <font-face 
    font-family="social-logos"
    font-weight="400"
    font-stretch="normal"
    units-per-em="512"
    panose-1="2 0 5 9 0 0 0 0 0 0"
    ascent="448"
    descent="-64"
    bbox="21.333 -64 490.667 448"
    underline-thickness="25.6"
    underline-position="-51.2"
    unicode-range="U+F200-F609"
  />
    <missing-glyph />
    <glyph glyph-name="uniF600" unicode="&#xf600;" 
d="M289.749 273.45v7.87207c0 14.4434 1.10938 31.5098 -7.38086 43.9688c-7.38184 11.1572 -21.5684 15.7432 -34.0264 15.7432c-23.126 0 -43.6914 -11.8398 -48.7256 -36.3945c-1.0459 -5.48242 -5.03516 -10.8799 -10.5391 -11.1572l-58.752 6.35742
c-4.94922 1.10938 -10.4746 5.09863 -9.02344 12.6719c13.4824 71.2754 77.8662 92.8213 135.552 92.8213c29.4824 0 68.0527 -7.87207 91.3281 -30.165c29.4824 -27.5625 26.6455 -64.3203 26.6455 -104.341v-94.4434c0 -28.3945 11.7754 -40.874 22.8691 -56.1914
c3.86133 -5.50391 4.73535 -12.0752 -0.192383 -16.0859c-12.3945 -10.3887 -34.4102 -29.5039 -46.5068 -40.2773l-0.12793 0.12793c-4.03223 -3.60547 -9.81348 -3.83984 -14.3359 -1.40723c-20.1387 16.7461 -23.7441 24.4688 -34.752 40.4053
c-33.2803 -33.8779 -56.8535 -44.0537 -99.9463 -44.0537c-51.0508 0 -90.7314 31.4883 -90.7314 94.4854c0 49.2158 26.6455 82.667 64.6406 99.0723c32.8955 14.4209 78.8477 17.0449 114.005 20.9912zM278.379 147.456c11.9248 20.9922 11.3701 40.6826 11.3486 64.3203
v13.1201c-43.8613 0 -90.1758 -9.38672 -90.1758 -61.0137c0 -26.2617 13.6113 -43.9678 36.8643 -43.9678c17.0244 0 32.3418 10.4746 41.9629 27.541zM433.941 47.168c8.49023 3.60547 15.5947 -5.58887 7.2959 -11.7334
c-50.2188 -37.0557 -123.008 -56.7676 -185.686 -56.7676c-87.8506 0 -166.976 32.4688 -226.837 86.5488c-4.69336 4.24512 -0.511719 10.0479 5.1416 6.7627c64.5967 -37.5889 144.447 -60.2236 226.965 -60.2236c55.6592 0 116.821 11.541 173.12 35.4131z
M483.541 75.6484c5.52539 -6.80566 -1.42871 -54.0166 -28.3516 -76.5869c-4.13867 -3.47754 -8.08594 -1.62109 -6.25098 2.96484c6.05859 15.1465 19.627 49.0244 13.2051 57.2588c-6.4209 8.23438 -42.4531 3.9043 -58.6445 1.96289
c-4.90723 -0.597656 -5.6748 3.69043 -1.25879 6.80566c28.7354 20.1807 75.8398 14.3574 81.3008 7.59473z" />
    <glyph glyph-name="uniF601" unicode="&#xf601;" 
d="M421.952 236.715c13.6963 0 24.8105 -11.0938 24.832 -24.8105l-0.0429688 -87.915c0 -68.4795 -55.5303 -124.011 -124.011 -124.011h-133.482c-68.501 0 -124.011 55.5312 -124.011 124.011v136c0 68.501 55.5303 124.011 124.011 124.011h62.5488
c68.502 0 124.011 -55.5303 124.011 -124.011l0.0214844 -0.277344c0.917969 -12.8643 11.6484 -23.0186 24.7471 -23.0186l0.448242 0.0214844h20.9277zM186.154 283.456c-13.1621 0 -23.8291 -10.6885 -23.8291 -23.8291c0 -13.1631 10.667 -23.8301 23.8291 -23.8301
h70.208c13.1631 0 23.8301 10.667 23.8301 23.8301c0 13.1621 -10.667 23.8291 -23.8301 23.8291h-70.208zM326.976 98.7734c12.459 0 22.5498 10.0908 22.5498 22.5488c0 12.459 -10.0908 22.5498 -22.5498 22.5498h-140.949
c-12.458 0 -22.5488 -10.0908 -22.5488 -22.5498c0 -12.458 10.0908 -22.5488 22.5488 -22.5488h140.949z" />
    <glyph glyph-name="uniF602" unicode="&#xf602;" 
d="M300.117 162.88c7.70117 0 13.9521 -6.25098 13.9521 -13.9521s-6.25098 -13.9521 -13.9521 -13.9521h-87.2744c-7.70117 0 -13.9521 6.25098 -13.9521 13.9521s6.25098 13.9521 13.9521 13.9521h87.2744zM212.928 219.776c-8.14941 0 -14.7627 6.61328 -14.7627 14.7627
s6.61328 14.7627 14.7627 14.7627h43.4775c8.14941 0 14.7627 -6.61328 14.7627 -14.7627s-6.61328 -14.7627 -14.7627 -14.7627h-43.4775zM405.333 384c23.5732 0 42.667 -19.0938 42.667 -42.667v-298.666c0 -23.5732 -19.0938 -42.667 -42.667 -42.667h-298.666
c-23.5732 0 -42.667 19.0938 -42.667 42.667v298.666c0 23.5732 19.0938 42.667 42.667 42.667h298.666zM374.251 150.592l0.0214844 54.4219c0 8.49023 -6.87012 15.3594 -15.3604 15.3594h-12.9492l-0.277344 -0.0214844c-8.10645 0 -14.7627 6.27246 -15.3174 14.251
l-0.0214844 0.170898c0 42.4102 -34.3682 76.7783 -76.7783 76.7783h-38.7412c-42.4111 0 -76.7793 -34.3682 -76.7793 -76.7783v-84.1816c0 -42.4102 34.3682 -76.7783 76.7793 -76.7783h82.6445c42.4111 0 76.7793 34.3896 76.7793 76.7783z" />
    <glyph glyph-name="uniF216" unicode="&#xf216;" 
d="M469.675 259.413c0.12793 -0.832031 0.191406 -1.59961 0.170898 -2.43164v-129.984c0 -0.810547 -0.0859375 -1.59961 -0.149414 -2.49609c-0.0429688 -0.212891 -0.107422 -0.511719 -0.149414 -0.789062c-0.106445 -0.511719 -0.170898 -1.00293 -0.320312 -1.53613
c-0.0634766 -0.277344 -0.212891 -0.576172 -0.277344 -0.853516c-0.170898 -0.447266 -0.320312 -0.874023 -0.490234 -1.34375c-0.149414 -0.277344 -0.277344 -0.576172 -0.426758 -0.853516c-0.170898 -0.426758 -0.383789 -0.810547 -0.640625 -1.2373
c-0.149414 -0.234375 -0.362305 -0.533203 -0.533203 -0.810547c-0.212891 -0.362305 -0.46875 -0.725586 -0.746094 -1.10938c-0.213867 -0.255859 -0.426758 -0.511719 -0.640625 -0.789062c-0.277344 -0.277344 -0.554688 -0.639648 -0.916992 -0.959961
c-0.212891 -0.255859 -0.469727 -0.491211 -0.74707 -0.74707s-0.639648 -0.575195 -1.02344 -0.852539c-0.213867 -0.213867 -0.511719 -0.426758 -0.789062 -0.640625l-0.320312 -0.212891l-195.478 -130.027c-3.11426 -2.06934 -6.63477 -3.07129 -10.1973 -3.07129
s-7.08301 1.00195 -10.2617 3.15723l-195.477 130.026c-0.0644531 0.0644531 -0.170898 0.149414 -0.277344 0.213867l-0.811523 0.639648c-0.34082 0.255859 -0.703125 0.576172 -1.02344 0.853516c-0.255859 0.255859 -0.491211 0.490234 -0.74707 0.746094
c-0.298828 0.277344 -0.618164 0.640625 -0.895508 0.959961c-0.213867 0.255859 -0.426758 0.512695 -0.640625 0.790039c-0.255859 0.362305 -0.490234 0.724609 -0.746094 1.10938c-0.213867 0.234375 -0.383789 0.533203 -0.533203 0.810547
c-0.255859 0.426758 -0.469727 0.810547 -0.640625 1.2373c-0.149414 0.255859 -0.277344 0.533203 -0.426758 0.853516c-0.191406 0.447266 -0.319336 0.874023 -0.46875 1.34375c-0.106445 0.255859 -0.213867 0.533203 -0.277344 0.853516
c-0.149414 0.533203 -0.213867 1.04492 -0.320312 1.53516c-0.0419922 0.277344 -0.106445 0.554688 -0.149414 0.811523c-0.106445 0.789062 -0.169922 1.59961 -0.169922 2.38867v129.984c0 0.832031 0.0634766 1.59961 0.191406 2.43164
c0.0214844 0.255859 0.106445 0.491211 0.12793 0.790039c0.106445 0.533203 0.192383 1.02344 0.341797 1.51465c0.0634766 0.319336 0.170898 0.618164 0.277344 0.895508c0.12793 0.426758 0.277344 0.896484 0.447266 1.36523
c0.149414 0.277344 0.298828 0.554688 0.426758 0.875c0.192383 0.426758 0.405273 0.789062 0.640625 1.25879c0.191406 0.255859 0.362305 0.533203 0.533203 0.810547c0.212891 0.362305 0.511719 0.746094 0.746094 1.10938
c0.170898 0.298828 0.384766 0.511719 0.640625 0.789062c0.298828 0.362305 0.576172 0.682617 0.895508 1.00293c0.255859 0.212891 0.512695 0.448242 0.768555 0.746094c0.319336 0.277344 0.661133 0.576172 1.02344 0.853516l0.810547 0.597656
c0.107422 0.0849609 0.213867 0.191406 0.320312 0.255859l195.521 130.005c6.16504 4.09668 14.208 4.09668 20.373 0l195.435 -130.048c0.106445 -0.0849609 0.212891 -0.191406 0.320312 -0.255859c0.255859 -0.212891 0.533203 -0.426758 0.789062 -0.639648
c0.34082 -0.255859 0.704102 -0.533203 1.02441 -0.853516c0.277344 -0.255859 0.533203 -0.490234 0.746094 -0.74707c0.320312 -0.277344 0.597656 -0.59668 0.916992 -0.959961c0.213867 -0.255859 0.426758 -0.511719 0.640625 -0.789062
c0.255859 -0.362305 0.490234 -0.725586 0.746094 -1.10938c0.170898 -0.234375 0.384766 -0.533203 0.53418 -0.810547c0.255859 -0.426758 0.46875 -0.789062 0.639648 -1.21582c0.149414 -0.298828 0.277344 -0.576172 0.426758 -0.896484
c0.170898 -0.46875 0.320312 -0.895508 0.490234 -1.32227c0.0644531 -0.298828 0.213867 -0.576172 0.277344 -0.896484c0.149414 -0.511719 0.213867 -1.00195 0.320312 -1.53516c0.0429688 -0.256836 0.106445 -0.512695 0.149414 -0.790039zM274.39 352.768v-85.5674
l79.6797 -53.1631l64.3418 42.9443zM237.61 352.768l-143.979 -95.7861l64.2988 -42.9443l79.6797 53.2051v85.5254zM78.9121 222.678h-0.0214844v-61.3555l45.9736 30.6777zM237.61 31.2324h0.0214844v85.5459l-79.6797 53.1631l-64.3203 -42.9014zM256 148.587
l65.0029 43.4131l-65.0029 43.3916l-65.0029 -43.3916zM274.39 31.2324l144.021 95.7861l-64.3418 42.9014l-79.6797 -53.1621v-85.5254zM433.131 161.322v61.3555l-45.9951 -30.6777z" />
    <glyph glyph-name="uniF221" unicode="&#xf221;" 
d="M469.333 213.333c0 -18.624 -12.0107 -34.3037 -28.6504 -40.1064c4.62891 -6.82617 7.31738 -15.04 7.31738 -23.8936c0 -23.5732 -19.0938 -42.666 -42.667 -42.666h-21.333c23.5732 0 42.667 -19.0938 42.667 -42.667s-19.0938 -42.667 -42.667 -42.667h-21.333
c23.5732 0 42.666 -19.0928 42.666 -42.666s-19.0928 -42.667 -42.666 -42.667h-42.667h-85.333h-21.334c-74.666 0 -85.333 53.333 -128 53.333h-42.666v224h42.666c42.667 0 77.334 92.6719 85.334 128s2.66602 106.667 42.666 106.667s58.0059 -28.6719 64 -85.333
c6.74121 -63.6377 -21.333 -106.667 -21.333 -106.667h170.667c23.5732 0 42.666 -19.0938 42.666 -42.667z" />
    <glyph glyph-name="uniF201" unicode="&#xf201;" 
d="M256 5.33301c26.667 0 53.333 6.65625 76.6719 16.6621c-3.32812 30.0156 -13.333 76.6719 -43.3281 143.338c-60.0107 -19.9893 -116.672 -63.3379 -146.666 -120c29.9941 -26.666 69.9941 -40 113.322 -40zM362.667 38.6562c43.3281 30.0156 73.3438 80 80 133.333
c-40 6.65625 -76.6719 6.65625 -120 0c3.32812 -6.65625 26.666 -63.3389 40 -133.333zM69.333 205.333v-13.333c0 -46.6777 16.6621 -90.0049 46.6562 -123.328c36.6504 59.9893 103.339 103.317 163.328 123.328c-3.32812 10.0049 -10.0059 23.3389 -16.6611 36.6719
c-76.6514 -23.3389 -123.328 -29.9941 -193.323 -23.3389zM409.344 298.667c-33.3438 -26.667 -76.6719 -40 -116.693 -59.9893c10.0059 -13.334 13.3545 -23.3389 20.0107 -36.6729c43.3496 10.0059 100.011 6.65625 130.006 0
c-3.32812 36.6729 -13.3125 69.9951 -33.3232 96.6621zM182.656 365.333c-53.334 -23.3379 -93.3125 -69.9941 -106.667 -130.005c60.0107 -6.65625 143.339 10.0049 173.333 20.0107c-19.9893 40 -40 73.3223 -66.666 109.994zM256 378.667
c-13.333 0 -26.667 -3.32812 -40 -3.32812c26.667 -43.3281 40 -66.667 63.3389 -106.667c26.666 10.0059 80 26.667 109.994 53.333c-33.3223 33.3232 -80 56.6621 -133.333 56.6621zM256 405.333c116.672 0 213.333 -96.6611 213.333 -213.333
s-96.6611 -213.333 -213.333 -213.333s-213.333 96.6611 -213.333 213.333s96.6611 213.333 213.333 213.333z" />
    <glyph glyph-name="uniF225" unicode="&#xf225;" 
d="M168.171 390.464l87.8291 -73.3223l-126.528 -78.1445l-86.8047 69.4834zM42.667 169.515l86.8047 69.4824l126.528 -78.1221l-87.8291 -73.3447zM256 160.875l126.528 78.1221l86.8047 -69.4824l-125.525 -81.9844zM469.333 308.48l-86.8047 -69.4834l-126.528 78.1445
l87.8076 73.3223zM256.234 145.066l88.0859 -73.0879l37.7383 24.5977v-27.542l-125.824 -75.498l-125.76 75.498v27.542l37.6963 -24.5977z" />
    <glyph glyph-name="uniF603" unicode="&#xf603;" 
d="M384.875 364.139c36.2666 -2.04785 63.125 -28.2666 63.125 -63.125v-218.027c0 -34.8584 -27.7549 -61.29 -63.1035 -63.125l-257.771 -19.8613c-34.8584 0 -63.125 28.2666 -63.125 63.1035v257.771c0 34.8584 28.2666 63.125 63.125 63.125zM361.237 273.707
c1.72852 4.60742 3.64844 10.5596 2.81641 16.7041c-1.60059 11.541 -13.3125 13.0986 -26.5605 13.0986c-6.39941 0 -13.0342 0.191406 -19.5195 0.34082c-19.8398 0.491211 -38.8701 0.576172 -58.6025 1.13086c-6.44336 0.170898 -12.9922 0.34082 -19.499 0.34082
c-9.83496 0 -20.8213 1.10938 -28.6719 -1.00195c-7.80859 -2.1123 -13.248 -6.74121 -16.8535 -13.2266c-2.36816 -4.33105 -3.60547 -9.5791 -4.7998 -15.2324c-11.6484 -55.1895 -23.2109 -110.314 -34.752 -165.61
c-1.15234 -5.56836 -2.02734 -12.1172 -0.768555 -17.9414c2.34668 -10.8379 11.1152 -16.0645 23.9785 -16.1494c26.7529 -0.149414 51.8408 1.55762 78.5713 1.55762c6.39941 0 13.0127 0.277344 19.6055 0.46875c6.61328 0.170898 13.2266 0.0429688 19.7119 0.341797
c6.84766 0.298828 13.333 0.0634766 18.3887 1.66406c5.12012 1.62109 8.23535 5.20508 10.4111 9.64258c2.41016 4.86328 3.83984 9.87695 4.50098 15.4668c1.62207 13.9941 -8.14941 18.2822 -21.5254 18.1328c-33.4072 -0.362305 -65.3438 -1.13086 -98.8369 -1.2373
c3.43457 16.6396 6.82617 33.3018 10.4316 49.7705c24.4912 0.0644531 50.0908 0.426758 74.5176 0.426758c5.07715 0 9.83496 0.0859375 13.7812 1.2373c7.8291 2.2832 11.0938 8.59766 13.334 16.7041c1.08789 4.03223 1.96191 9.08789 1.1084 13.1201
c-2.64453 12.6719 -18.3467 11.2002 -33.834 11.2002c-19.9893 0 -40.0645 0.191406 -59.9473 0.106445c3.13672 15.1895 6.37891 30.293 9.62207 45.3975c32.96 0 65.834 -1.02441 98.2822 -1.02441c6.61328 0 13.0352 0.213867 17.0449 2.81641
c3.96875 2.53809 6.31543 7.16797 8.06445 11.7549z" />
    <glyph glyph-name="uniF203" unicode="&#xf203;" 
d="M426.816 384c11.6904 0 21.1836 -9.49316 21.1836 -21.1836v-341.633c0 -11.6904 -9.49316 -21.1836 -21.1836 -21.1836h-97.8564v148.672h49.9199l7.4668 57.9629h-57.3867v36.9922c0 16.7891 4.65039 28.2236 28.7148 28.2236l30.6768 0.0214844v51.8398
c-5.31152 0.704102 -23.5303 2.2832 -44.7139 2.2832c-44.2461 0 -74.5391 -27.0088 -74.5391 -76.6084v-42.709h-50.0479v-57.9629h50.0479v-148.715h-183.915c-11.6904 0 -21.1836 9.49316 -21.1836 21.2051v341.611c0 11.6904 9.49316 21.1836 21.1836 21.1836h341.633z
" />
    <glyph glyph-name="uniF413" unicode="&#xf413;" 
d="M42.667 263.104c157.077 0 284.437 -127.359 284.437 -284.437h-71.1035c0 117.653 -95.6797 213.333 -213.333 213.333v71.1035zM42.667 405.333c235.626 0 426.666 -191.04 426.666 -426.666h-71.1035c0 196.053 -159.51 355.562 -355.562 355.562v71.1035zM96 85.333
c29.4824 0 53.333 -23.8926 53.333 -53.333s-23.8506 -53.333 -53.333 -53.333s-53.333 23.8926 -53.333 53.333s23.8506 53.333 53.333 53.333z" />
    <glyph glyph-name="uniF211" unicode="&#xf211;" 
d="M138.667 298.667c58.666 0 106.666 -48 106.666 -106.667s-48 -106.667 -106.666 -106.667c-58.667 0 -106.667 48 -106.667 106.667s48 106.667 106.667 106.667zM373.333 298.667c58.667 0 106.667 -48 106.667 -106.667s-48 -106.667 -106.667 -106.667
c-58.666 0 -106.666 48 -106.666 106.667s48 106.667 106.666 106.667z" />
    <glyph glyph-name="uniF226" unicode="&#xf226;" 
d="M374.891 405.333c33.4297 0 42.3896 -19.0508 35.1572 -54.3145l-14.3994 -71.8506c-11.3711 -57.4717 -24.4697 -123.818 -26.1338 -130.603c-3.07227 -12.2666 -7.76562 -33.1094 -36.9492 -33.1094h-69.5469c-2.77344 0 -2.77344 0 -5.58887 -2.81641
c-1.85645 -1.85547 -109.27 -126.506 -109.27 -126.506c-8.38379 -9.64355 -22.3359 -7.93652 -27.4131 -5.86719c-5.07812 2.02637 -14.0801 8.25586 -14.0801 25.0029v361.558c0 14.8906 9.25879 38.5059 40.6396 38.5059h227.584zM351.894 293.974l9.51465 49.7705
c1.74902 8.23438 -4.54395 14.5703 -11.2646 14.5703h-182.655c-8.27734 0 -13.8242 -7.4668 -13.8242 -13.8242v-282.09c0 -0.896484 0.661133 -1.06738 1.34375 -0.320312c0 0 67.3066 80.7676 74.7734 90.0908c7.4668 9.2793 10.8799 10.7305 22.0371 10.7305h61.4404
c8.38379 0 13.1201 7.04004 13.9736 11.1572c0.874023 4.11719 8.02051 41.4297 9.55664 48.96c1.53613 7.53125 -5.37598 15.2539 -12.4375 15.2539h-75.2637c-9.98438 0 -17.1729 7.06055 -17.1729 17.0234v10.8379c0 10.0049 7.14648 16.7891 17.1094 16.7891h88.6826
c6.25 0 13.0557 5.6748 14.1865 11.0508z" />
    <glyph glyph-name="uniF200" unicode="&#xf200;" 
d="M256 405.333c117.824 0 213.333 -95.5088 213.333 -213.333c0 -94.208 -61.0557 -174.102 -145.749 -202.325c-10.8369 -2.09082 -14.6777 4.52246 -14.6777 10.2607c0 6.95508 0.256836 29.9951 0.256836 58.4756c0 19.9463 -6.82715 32.96 -14.4854 39.5088
c47.5303 5.29102 97.3867 23.3389 97.3867 105.28c0 23.2744 -8.23535 42.3037 -21.8887 57.2158c2.17578 5.37598 9.51465 27.0938 -2.13281 56.4482c0 0 -17.8994 5.73828 -58.624 -21.8672c-17.0459 4.73633 -35.2852 7.08301 -53.4189 7.16797
c-18.1338 -0.0849609 -36.373 -2.43164 -53.4189 -7.18945c-40.7461 27.6055 -58.666 21.8672 -58.666 21.8672c-11.6055 -29.3545 -4.2666 -51.0293 -2.06934 -56.4482c-13.6533 -14.8906 -21.9736 -33.9414 -21.9736 -57.2158
c0 -81.749 49.8135 -100.096 97.1729 -105.451c-6.10059 -5.35449 -11.6045 -14.7197 -13.5459 -28.5225c-12.1387 -5.46094 -43.0723 -14.8477 -62.0801 17.7705c0 0 -11.2646 20.459 -32.6826 21.9736c0 0 -20.8643 0.255859 -1.47266 -12.9707
c0 0 13.9736 -6.57031 23.6807 -31.2529c0 0 12.5225 -41.4297 71.8721 -28.5869c0.106445 -17.7705 0.297852 -31.2109 0.297852 -36.2451c0 -5.6748 -3.88184 -12.2451 -14.5488 -10.3252c-84.7783 28.2236 -145.898 108.159 -145.898 202.432
c0 117.824 95.5088 213.333 213.333 213.333z" />
    <glyph glyph-name="uniF218" unicode="&#xf218;" 
d="M170.667 213.333h141.013c1.28027 -7.4668 2.34668 -14.9326 2.34668 -24.7461c0 -85.334 -57.1729 -145.92 -143.359 -145.92c-82.5605 0 -149.334 66.7734 -149.334 149.333s66.7734 149.333 149.334 149.333c40.3193 0 74.0264 -14.7197 100.053 -39.04
l-40.5332 -39.04c-11.0928 10.667 -30.5068 23.04 -59.5195 23.04c-50.9873 0 -92.5869 -42.2393 -92.5869 -94.293s41.5996 -94.293 92.5869 -94.293c59.0928 0 81.2793 42.4531 84.6934 64.4268h-84.6934v51.1992v0zM490.667 213.333h-42.667v42.667h-42.667v-42.667
h-42.666v-42.666h42.666v-42.667h42.667v42.667h42.667z" />
    <glyph glyph-name="uniF206" unicode="&#xf206;" 
d="M256 405.333c117.824 0 213.333 -95.5088 213.333 -213.333s-95.5088 -213.333 -213.333 -213.333s-213.333 95.5088 -213.333 213.333s95.5088 213.333 213.333 213.333zM215.062 105.6c49.8555 0 82.9434 35.0723 82.9229 84.3955
c0 7.16797 -0.939453 12.2666 -2.15527 17.7061h-80.874v-32.1494v-0.0849609h47.6152c-2.23926 -13.5684 -14.4209 -36.459 -47.5088 -36.459c-28.5869 0 -51.9258 23.7656 -51.9258 52.8857s23.3174 52.8848 51.9258 52.8848c16.1494 0 27.0293 -6.91211 33.2588 -12.7783
l24.5332 23.8506c-14.9336 13.9951 -34.4531 22.5498 -57.792 22.5498c-47.7012 0 -86.4004 -38.6992 -86.4004 -86.4004s38.6992 -86.4004 86.4004 -86.4004zM405.333 176v32h-26.666v26.667h-32v-26.667h-26.667v-32h26.667v-26.667h32v26.667h26.666z" />
    <glyph glyph-name="uniF215" unicode="&#xf215;" 
d="M113.28 384h285.439c27.0938 0 49.2803 -22.1865 49.2803 -49.2803v-285.439c0 -27.0938 -22.1865 -49.2803 -49.2803 -49.2803h-285.439c-27.0938 0 -49.2803 22.1865 -49.2803 49.2803v285.439c0 27.0938 22.1865 49.2803 49.2803 49.2803v0zM343.723 341.333
c-9.51465 0 -17.2803 -7.78613 -17.2803 -17.2793v-41.3867c0 -9.51465 7.78711 -17.2803 17.2803 -17.2803h43.4131c9.51465 0 17.2803 7.78613 17.2803 17.2803v41.3867c0 9.51465 -7.78711 17.2793 -17.2803 17.2793h-43.4131v0zM404.608 221.61h-33.792
c3.19922 -10.4531 4.92773 -21.5039 4.92773 -32.9385c0 -63.8721 -53.4404 -115.647 -119.36 -115.647s-119.359 51.7754 -119.359 115.647c0 11.4561 1.72754 22.5068 4.92773 32.9385h-35.2852v-162.219c0 -8.40527 6.86914 -15.2744 15.2744 -15.2744h267.392
c8.40527 0 15.2754 6.86914 15.2754 15.2744v162.219v0zM256.362 267.562c-42.6025 0 -77.1201 -33.4502 -77.1201 -74.7305s34.5391 -74.7305 77.1201 -74.7305c42.6035 0 77.1201 33.4502 77.1201 74.7305s-34.5166 74.7305 -77.1201 74.7305z" />
    <glyph glyph-name="uniF207" unicode="&#xf207;" 
d="M420.267 384c15.3174 0 27.7334 -12.416 27.7334 -27.7334v-328.533c0 -15.3174 -12.416 -27.7334 -27.7334 -27.7334h-328.533c-15.3174 0 -27.7334 12.416 -27.7334 27.7334v328.533c0 15.3174 12.416 27.7334 27.7334 27.7334h328.533zM177.898 56.7891v183.254
h-57.002v-183.254h57.002zM149.419 265.088c18.2188 0 33.002 14.7842 33.002 33.0244c0 18.2188 -14.7832 33.0234 -33.002 33.0234c-18.3047 0 -33.0459 -14.7842 -33.0459 -33.0234c0 -18.2188 14.7627 -33.0244 33.0459 -33.0244zM391.232 56.7891h0.0205078v100.502
c0 49.3438 -10.666 87.2959 -68.3301 87.2959c-27.7119 0 -46.2939 -15.1895 -53.8887 -29.5898h-0.789062v25.0459h-54.5918v-183.254h56.8965v90.6455c0 23.8936 4.52246 47.0615 34.1543 47.0615c29.2266 0 29.5889 -27.3496 29.5889 -48.5977v-89.1094h56.9395z" />
    <glyph glyph-name="uniF410" unicode="&#xf410;" 
d="M426.667 362.667c23.5732 0 42.666 -19.0938 42.666 -42.667v-256c0 -23.5732 -19.0928 -42.667 -42.666 -42.667h-341.334c-23.5732 0 -42.666 19.0938 -42.666 42.667v256c0 23.5732 19.0928 42.667 42.666 42.667h341.334zM426.667 272.299v47.7012h-341.334v-47.7012
l170.667 -104.149z" />
    <glyph glyph-name="uniF604" unicode="&#xf604;" 
d="M366.741 98.5596c-14.4424 -7.20996 -32.7891 -12.7783 -49.4502 -12.7783c-18.3252 0 -37.7812 0.554688 -54.9766 8.875v-37.7812c0 -48.8535 -21.0986 -78.3154 -72.2129 -78.3154c-14.4434 0 -42.2402 4.45898 -50.5605 17.7715v60.0107
c7.76562 -8.875 19.9893 -14.998 32.2139 -14.998c13.333 0 21.0986 7.76562 21.0986 21.1201v207.744h69.4395v-122.197c11.6484 -3.88281 23.3389 -5.54688 35.542 -5.54688c44.4375 0 81.6641 29.9951 81.6641 76.6719c0 72.7686 -62.7842 101.077 -127.211 101.077
c-60.0107 0 -122.219 -34.9863 -122.219 -101.632c0 -20.5654 4.45898 -37.2266 18.9014 -52.2236l-50.5596 -43.3281c-27.7549 30.5498 -34.4111 54.9756 -34.4111 95.5303c0 105.536 87.7656 165.525 186.069 165.525c99.4346 0 198.869 -51.0928 198.869 -162.197
c0.0214844 -55.5518 -32.7461 -99.9893 -82.1973 -123.328z" />
    <glyph glyph-name="uniF219" unicode="&#xf219;" 
d="M405.333 384c23.5732 0 42.667 -19.0938 42.667 -42.667v-298.666c0 -23.5732 -19.0938 -42.667 -42.667 -42.667h-298.666c-23.5732 0 -42.667 19.0938 -42.667 42.667v298.666c0 23.5732 19.0938 42.667 42.667 42.667h298.666zM318.293 145.259
c27.9043 13.1621 46.4219 38.2715 46.4219 69.6748c0 62.7412 -56.1494 91.6055 -112.32 91.6055c-55.5303 0 -105.109 -33.8779 -105.109 -93.4834c0 -22.9121 3.77637 -36.7139 19.4561 -53.9727l28.5654 24.4688c-8.14941 8.49121 -10.667 17.8984 -10.667 29.5039
c0 37.6533 35.1367 57.4082 69.0352 57.4082c36.3945 0 71.8506 -15.9785 71.8506 -57.0879c0 -26.3682 -21.0137 -43.3066 -46.123 -43.3066c-6.89062 0 -13.4824 0.938477 -20.0742 3.13574v69.0137h-39.2324v-117.333c0 -7.55273 -4.39453 -11.9258 -11.9248 -11.9258
c-6.91211 0 -13.8027 3.45605 -18.1973 8.46973v-33.8994c4.69336 -7.50879 20.373 -10.0264 28.5439 -10.0264c28.8633 0 40.7891 16.6191 40.7891 44.2236v21.334c9.72754 -4.69336 20.7148 -5.01367 31.0615 -5.01367c9.4082 0 19.7549 3.13574 27.9248 7.21094z" />
    <glyph glyph-name="uniF210" unicode="&#xf210;" 
d="M262.165 405.333c-121.002 0 -185.237 -77.8232 -185.237 -162.603c0 -39.3809 21.8672 -88.4482 56.875 -104.063c5.33301 -2.36816 8.12793 -1.34473 9.36523 3.60547c0.938477 3.73242 5.69629 21.9512 7.78711 30.4639
c0.682617 2.73047 0.362305 5.05566 -1.94141 7.72266c-11.5205 13.4395 -20.8008 38.208 -20.8008 61.29c0 59.2432 46.8057 116.565 126.571 116.565c68.9062 0 117.12 -44.9707 117.12 -109.27c0 -72.6826 -38.2725 -123.05 -88.1074 -123.05
c-27.541 0 -48.1484 21.7812 -41.5566 48.5752c7.93555 31.8936 23.2314 66.3896 23.2314 89.4082c0 20.6299 -11.5625 37.8672 -35.4766 37.8672c-28.1387 0 -50.7529 -27.9258 -50.7529 -65.2588c0 -23.7871 8.40625 -39.8721 8.40625 -39.8721
s-27.7764 -112.619 -32.8535 -133.568c-8.64062 -35.541 1.13086 -93.1836 2.00488 -98.2188c0.448242 -2.6875 3.5625 -3.60547 5.33398 -1.34375c2.75195 3.51953 36.2451 51.6055 45.6953 86.4209c3.37109 12.5869 17.4297 63.8936 17.4297 63.8936
c9.17285 -16.7256 35.8613 -30.8477 64.2773 -30.8477c84.5439 0 145.536 74.5381 145.536 167.104c0 88.79 -75.627 155.179 -172.907 155.179z" />
    <glyph glyph-name="uniF209" unicode="&#xf209;" 
d="M256 405.333c117.824 0 213.333 -95.5088 213.333 -213.333s-95.5088 -213.333 -213.333 -213.333c-21.9951 0 -43.2002 3.32812 -63.168 9.49316c8.7041 14.1865 21.6963 37.3975 26.5176 55.9355c2.60254 9.98438 13.29 50.71 13.29 50.71
c6.95508 -13.2695 27.2861 -24.4912 48.8965 -24.4912c64.3408 0 110.698 59.1787 110.698 132.693c0 70.4639 -57.5146 123.2 -131.52 123.2c-92.0537 0 -140.949 -61.8027 -140.949 -129.088c0 -31.2959 16.6611 -70.251 43.3066 -82.6455
c4.03125 -1.87695 6.18652 -1.04492 7.125 2.8584c0.704102 2.96582 4.30957 17.4512 5.95215 24.1924c0.533203 2.1543 0.277344 4.01074 -1.47168 6.12305c-8.81152 10.6875 -15.8721 30.3564 -15.8721 48.6826c0 47.0605 35.626 92.5859 96.3193 92.5859
c52.416 0 89.1094 -35.7119 89.1094 -86.7832c0 -57.707 -29.1621 -97.6855 -67.0713 -97.6855c-20.9502 0 -36.6299 17.3008 -31.5947 38.5488c6.01562 25.3447 17.6641 52.7148 17.6641 71.0186c0 16.3848 -8.79004 30.0586 -26.9873 30.0586
c-21.3975 0 -38.5918 -22.165 -38.5918 -51.8184c0 -18.8799 6.37891 -31.6582 6.37891 -31.6582s-21.1416 -89.4082 -25.0244 -106.048c-4.28809 -18.4326 -2.60254 -44.3311 -0.746094 -61.2061c-79.3604 31.083 -135.595 108.288 -135.595 198.656
c0 117.824 95.5088 213.333 213.333 213.333z" />
    <glyph glyph-name="uniF224" unicode="&#xf224;" 
d="M467.776 358.528c1.55664 -4.35254 2.11133 -8.76855 2.08984 -13.2266v-128.726l-1.47168 -25.6006c-6.16504 -58.2178 -36.3945 -109.099 -83.1572 -144.597c-0.832031 -0.661133 -1.68555 -1.28027 -2.53906 -1.89844l-0.533203 -0.384766
c-24.1494 -17.6426 -51.0713 -29.7383 -80.0635 -36.0742c-0.469727 -0.234375 -0.938477 -0.405273 -1.36523 -0.491211c-1.5791 -0.34082 -3.11523 -0.639648 -4.67188 -0.938477c-12.9502 -2.41016 -26.1123 -3.62598 -39.2324 -3.62598
c-14.208 0 -28.501 1.4502 -42.4746 4.2666c-30.2725 6.10059 -58.3467 18.5166 -83.4131 36.8418l-0.533203 0.384766c-0.853516 0.639648 -1.70703 1.25879 -2.53906 1.89844c-46.7627 35.4775 -76.9922 86.3574 -83.1787 144.598l-1.47168 25.5996v128.747
c0 4.69336 0.852539 9.30078 2.53809 13.7383c5.6748 14.9336 20.2031 24.96 36.1387 24.96h312.576h36.7148h0.212891c16.2139 0 30.8271 -10.2402 36.374 -25.4717zM377.43 224.405c11.6475 11.2002 12.0312 29.6963 0.874023 41.3652
c-11.1787 11.6484 -29.6953 12.0322 -41.3652 0.853516l-80.1064 -76.8213l-80.1279 76.8213c-11.6699 11.2002 -30.1865 10.8164 -41.3652 -0.853516c-11.1787 -11.6689 -10.7949 -30.1865 0.874023 -41.3652l100.374 -96.2559
c5.65332 -5.41895 12.9492 -8.14941 20.2451 -8.14941c7.27441 0 14.5703 2.73047 20.2451 8.14941z" />
    <glyph glyph-name="uniF217" unicode="&#xf217;" 
d="M256 405.333c117.632 0 213.333 -95.7227 213.333 -213.333c0 -117.632 -95.7012 -213.333 -213.333 -213.333c-117.61 0 -213.333 95.7012 -213.333 213.333c0 117.61 95.7227 213.333 213.333 213.333zM277.142 369.493
c-50.2832 2.49609 -100.203 -17.4932 -134.422 -52.416c-34.8584 -34.3467 -51.4346 -84.3301 -45.1621 -131.37c5.58887 -46.9766 33.9619 -90.1123 73.2373 -113.345c38.293 -22.8477 86.9756 -24.8105 126.421 -6.91211
c-11.2207 -3.11426 -23.0186 -4.8418 -35.1787 -4.8418c-72.2559 0 -131.051 58.7939 -131.051 131.05c0 34.2617 13.248 65.4727 34.8379 88.8535c0.234375 0.235352 0.448242 0.448242 0.661133 0.682617c1.10938 1.13086 2.17578 2.26172 3.24219 3.39258
c0.128906 0.0849609 0.213867 0.234375 0.341797 0.298828c30.4854 35.3271 75.499 57.6641 125.781 57.6641c52.6299 0 99.5625 -24.5127 130.006 -62.7207c-4.9707 7.97852 -10.4756 15.6377 -16.5127 22.7627c-32.8535 40.2139 -81.834 65.1094 -132.202 66.9014z
M349.099 187.755c1.04492 -21.5039 -6.03711 -43.542 -19.2217 -61.2051c-13.2266 -17.5791 -32.1699 -30.8701 -53.6318 -37.3555c-17.834 -5.43945 -37.2695 -6.10059 -55.7441 -1.68457c12.8643 -5.16309 26.8799 -8.02148 41.5361 -8.02148
c61.8887 0 112.214 50.3467 112.214 112.213c0 0.192383 -0.0214844 0.405273 -0.0214844 0.640625c-3.26367 33.8984 -21.0137 65.8125 -47.7012 85.5244c-32.7041 24.8965 -79.126 27.8193 -114.112 9.0459c-17.4297 -9.17383 -32.5762 -23.1465 -42.0693 -39.7227
c-9.66406 -16.6396 -13.9307 -36.1172 -12.4375 -54.9766c2.51758 -37.8447 29.6963 -72.6182 64.6611 -82.1973c34.8594 -10.4961 74.6025 4.65137 93.3125 34.0059c19.6475 28.6719 14.9336 69.7812 -8.66113 93.248c-22.4004 24.7891 -62.1445 27.6055 -87.5947 8.76758
c-12.8643 -9.21582 -22.0381 -22.4639 -25.0879 -37.3975c-3.17871 -14.7832 -0.405273 -30.6348 7.27441 -43.3281c7.63672 -12.7998 19.9248 -22.293 33.792 -25.7275c13.8662 -3.58398 28.9492 -1.15234 40.832 6.10156c12.0322 7.25293 20.8428 19.0723 23.3174 32.2988
c2.70898 13.1621 -0.405273 27.2422 -8.1709 37.8232c-7.6377 10.8594 -19.7119 17.4727 -32.3623 18.3262c-12.6084 0.959961 -25.1953 -4.11816 -33.707 -12.9287c-8.72559 -8.57617 -12.416 -21.2266 -10.6455 -32.832
c1.79199 -11.584 9.10938 -22.3145 19.0508 -27.5195c6.31445 -3.49902 13.6748 -4.73633 20.6934 -3.9043c-14.7842 0.362305 -27.1787 10.3037 -31.2959 23.8291c-0.12793 0.192383 -0.255859 0.405273 -0.341797 0.640625
c-4.2666 9.87695 -3.11426 22.4639 3.84082 31.7646c6.7627 9.2373 18.4746 15.1045 30.6553 14.4854c12.1602 -0.383789 24.1494 -7.85059 30.4854 -18.7939c6.52832 -10.9014 7.61621 -25.4082 1.85645 -37.6963c-5.73926 -12.3096 -17.5576 -21.4824 -31.3389 -24.1924
c-13.6748 -2.94336 -29.2266 1.13086 -39.915 11.2861c-10.666 9.77051 -17.1514 24.8105 -16.0635 40.085c0.916992 31.7012 35.9248 56.5332 68.3516 47.8506c32.9395 -7.53027 54.0381 -46.8477 41.3867 -80.5547c-11.584 -33.9844 -53.5254 -53.6963 -89.0234 -39.7441
c-17.6426 6.57129 -32.0859 20.459 -40.4053 37.5254c-8.32031 17.1943 -10.0479 37.7598 -4.2666 56.5977c11.3916 38.4854 53.8447 64.085 94.9541 56.7676c41.749 -6.08008 74.5605 -45.8662 75.6055 -89.0449zM256 -2.41113c76.0107 0 141.888 43.8828 173.846 107.542
c8.87402 20.1807 14.0156 41.8555 14.0156 63.2744c0 75.9463 -58.8164 131.989 -131.712 144.661c36.7783 -15.2529 66.4961 -47.7012 78.9336 -86.3145c16.7041 -48.3623 4.9707 -106.646 -31.7021 -144.981c-35.2852 -38.7842 -91.5195 -58.4746 -144.789 -49.0879
c-53.8242 8.46973 -100.693 47.2109 -123.221 97.1309c-23.2754 49.8555 -21.5254 111.488 6.39941 160.576c27.7979 49.1299 78.4219 84.3945 134.827 94.0586c2.79395 0.511719 5.63184 0.938477 8.46875 1.2793c-100.224 -7.63672 -179.435 -91.5625 -179.435 -193.728
c0 -107.222 87.1895 -194.411 194.368 -194.411z" />
    <glyph glyph-name="uniF469" unicode="&#xf469;" 
d="M192 106.667h128v-42.667h-128v42.667zM469.333 85.333h-64v-64c0 -23.5732 -19.0928 -42.666 -42.666 -42.666h-213.334c-23.5732 0 -42.666 19.0928 -42.666 42.666v64h-64v170.667c0 23.5732 19.0928 42.667 42.666 42.667h21.334v42.666
c0 23.5732 19.0928 42.667 42.666 42.667h213.334c23.5732 0 42.666 -19.0938 42.666 -42.667v-42.666h21.334c23.5732 0 42.666 -19.0938 42.666 -42.667v-170.667zM149.333 298.667h213.334v42.666h-213.334v-42.666zM362.667 149.333h-213.334v-128h213.334v128z
M426.667 224c0 17.6641 -14.3359 32 -32 32s-32 -14.3359 -32 -32s14.3359 -32 32 -32s32 14.3359 32 32z" />
    <glyph glyph-name="uniF222" unicode="&#xf222;" 
d="M469.333 195.926c0 -18.0273 -9.96191 -33.5791 -24.6182 -41.9209c0.704102 -4.43652 1.13086 -8.91699 1.13086 -13.4824c0 -70.2295 -85.5684 -127.359 -190.742 -127.359c-105.173 0 -190.741 57.1299 -190.741 127.359c0 4.86426 0.512695 9.62109 1.30176 14.3359
c-13.7598 8.57617 -22.9971 23.7012 -22.9971 41.0674c0 26.7939 21.7812 48.5752 48.5752 48.5752c12.2881 0 23.2754 -4.82129 31.8301 -12.3945c33.2588 21.3545 77.9521 34.8379 127.359 35.6484l28.8008 91.0508c1.30078 4.13867 5.48242 6.57031 9.8125 5.56738
l74.8379 -17.6211c6.16504 14.165 20.2881 24.1064 36.6934 24.1064c22.0801 0 40.043 -17.9619 40.043 -40.042c0 -22.1016 -17.9629 -40.0645 -40.043 -40.0645c-21.9736 0 -39.8506 17.792 -40.0215 39.7227l-67.8398 15.957l-24.9814 -78.9756
c46.7627 -2.04785 88.875 -15.4668 120.47 -36.0537c8.61816 7.97852 19.9033 13.0986 32.5547 13.0986c26.7939 0 48.5752 -21.7812 48.5752 -48.5752zM400.555 354.262c-12.9492 0 -23.4668 -10.5391 -23.4668 -23.4668c0 -12.9287 10.5176 -23.4668 23.4668 -23.4668
s23.4668 10.5176 23.4668 23.4668s-10.5391 23.4668 -23.4668 23.4668zM59.2422 195.926c0 -9.68555 4.39551 -18.2617 11.2002 -24.0859c7.14648 18.7949 20.502 35.9258 38.6562 50.3467c-5.12012 3.54102 -11.2002 5.73926 -17.877 5.73926
c-17.6426 0 -31.9795 -14.3574 -31.9795 -32zM255.125 29.7383c96.0215 0 174.166 49.6855 174.166 110.784s-78.123 110.784 -174.166 110.784c-96.042 0 -174.165 -49.6855 -174.165 -110.784s78.1436 -110.784 174.165 -110.784zM440.234 170.646
c7.59473 5.84473 12.5234 14.9756 12.502 25.2803c0 17.6426 -14.3574 32 -32 32c-7.10449 0 -13.5469 -2.4541 -18.8379 -6.42188c18.1123 -14.5703 31.3818 -31.8721 38.3359 -50.8584zM191.915 134.314c-16.2139 0 -29.8027 13.1416 -29.8027 29.3545
c0 16.2139 13.5889 29.8027 29.8027 29.8027c16.2129 0 29.3545 -13.5889 29.3545 -29.8027c0 -16.2129 -13.1416 -29.3545 -29.3545 -29.3545zM349.888 163.669c0 -16.2129 -13.1406 -29.3545 -29.3545 -29.3545c-16.2129 0 -29.8447 13.1416 -29.8447 29.3545
c0 16.2139 13.6318 29.8027 29.8447 29.8027c16.2139 0 29.3545 -13.5889 29.3545 -29.8027zM324.886 91.5625c3.24219 -3.24219 3.24219 -8.49023 0 -11.7334c-14.3789 -14.3789 -36.8428 -21.376 -68.6729 -21.376c-0.0849609 0 -0.148438 0.0429688 -0.234375 0.0429688
c-0.0849609 0 -0.149414 -0.0429688 -0.234375 -0.0429688c-31.8291 0 -54.2725 6.99707 -68.6504 21.376c-3.24316 3.24316 -3.24316 8.49121 0 11.7334c3.24219 3.24316 8.51172 3.22168 11.7334 0c11.1143 -11.1143 29.7383 -16.5332 56.9385 -16.5332
c0.0849609 0 0.149414 -0.0429688 0.234375 -0.0429688s0.149414 0.0429688 0.234375 0.0429688c27.2002 0 45.8242 5.39746 56.9385 16.5332c3.22168 3.24316 8.49121 3.24316 11.7129 0z" />
    <glyph glyph-name="uniF220" unicode="&#xf220;" 
d="M457.173 146.112c7.83008 -15.8721 12.2461 -33.5576 12.1816 -52.502c0 -65.1514 -52.8848 -118.059 -118.037 -118.059c-20.2031 0 -39.125 5.16309 -55.7227 14.0371c-12.2031 -2.13281 -24.6611 -3.34863 -37.333 -3.34863
c-112.405 0 -203.563 91.1143 -203.563 203.52c0 14.0801 1.49414 27.7119 4.18164 40.9814c-10.2822 17.4297 -16.2129 37.8877 -16.2129 59.6484c0 65.1943 52.8848 118.059 118.059 118.059c23.125 0 44.6289 -6.61328 62.8691 -18.1123
c11.2217 1.89844 22.8477 3.00781 34.752 3.00781c112.427 0 203.562 -91.1572 203.562 -203.562c0 -14.9971 -1.62109 -29.6533 -4.73633 -43.6689zM362.795 92.501c9.4082 13.4189 14.165 28.6514 14.1865 45.4619c0 14.0801 -2.73047 26.0693 -8.25586 35.8398
c-5.52539 9.74902 -13.2266 17.835 -22.998 24.2129c-9.47168 6.20801 -21.2266 11.627 -34.7305 15.958c-13.3975 4.33008 -28.5654 8.25586 -45.0557 11.7539c-12.9922 3.00879 -22.4854 5.29102 -28.1387 6.93359c-5.56836 1.49316 -10.9658 3.69043 -16.3838 6.37891
c-5.29102 2.55957 -9.30176 5.6748 -12.1816 9.17285c-2.6875 3.37109 -4.05371 7.31738 -4.05371 11.9043c0 7.55176 4.0752 13.8877 12.6084 19.4561c8.78906 5.6748 20.6934 8.68262 35.2852 8.68262c15.6807 0 27.1572 -2.73047 33.9629 -7.89355
c7.04004 -5.22656 13.0986 -12.9707 18.2402 -22.5488c4.47949 -7.57324 8.44727 -12.8643 12.2451 -16.2344c3.96777 -3.54199 9.81348 -5.41895 17.3867 -5.41895c8.44824 0 15.4238 2.98633 21.0137 8.81055c5.56738 5.65332 8.38379 12.2666 8.38379 19.6055
c0 7.57324 -2.19727 15.2959 -6.10156 23.125c-4.18164 7.8291 -10.8369 15.2539 -19.7969 22.2939c-8.89648 6.89062 -20.2461 12.5859 -33.5791 16.7891c-13.4824 4.05273 -29.4189 6.18652 -47.5303 6.18652c-22.8906 0 -42.9014 -3.17871 -59.7764 -9.42969
c-17.0449 -6.37793 -30.4219 -15.5518 -39.5098 -27.4561c-9.17285 -11.9033 -13.7598 -25.7275 -13.7598 -41.1299c0 -16.2354 4.28809 -29.9102 13.0986 -40.875c8.46973 -10.667 20.2881 -19.2852 34.8799 -25.5361c14.1865 -6.10156 32.1924 -11.4346 53.3125 -15.957
c15.5303 -3.2002 27.9678 -6.33594 37.2695 -9.17383c8.89551 -2.73047 16.2559 -6.74121 21.7383 -11.9033c5.35449 -4.99219 7.89355 -11.3496 7.89355 -19.3496c0 -10.2402 -4.88574 -18.5605 -14.998 -25.4512c-10.4102 -7.01855 -24.2344 -10.6025 -41.002 -10.6025
c-12.3096 0 -22.3359 1.72852 -29.6318 5.22656c-7.33887 3.37109 -13.1201 7.87207 -17.0459 13.1201c-4.18164 5.46191 -8.08496 12.4375 -11.7549 20.7148c-3.24219 7.57324 -7.14648 13.4824 -11.9033 17.4082c-5.01367 4.16016 -10.9658 6.20801 -18.0059 6.20801
c-8.46875 0 -15.6367 -2.51758 -21.2051 -7.8291c-5.69629 -5.29102 -8.5332 -11.7549 -8.5332 -19.2432c0 -11.7969 4.33008 -24.2988 13.0127 -36.7568c8.46973 -12.2881 19.8828 -22.3154 33.5156 -29.7393c19.1572 -10.1123 43.6904 -15.2529 72.874 -15.2529
c24.3418 0 45.7812 3.7334 63.5518 11.1572c18.2188 7.48828 31.958 17.9834 41.4727 31.3809z" />
    <glyph glyph-name="uniF515" unicode="&#xf515;" 
d="M256 405.333c118.848 0 213.333 -94.4854 213.333 -213.333s-94.4854 -213.333 -213.333 -213.333s-213.333 94.4854 -213.333 213.333s94.4854 213.333 213.333 213.333zM341.333 91.4346c9.15234 0 15.2324 6.08008 15.2109 12.1816
c0 9.13086 -3.05078 12.1807 -9.15234 15.2314c-36.5645 21.334 -79.2314 33.5146 -124.949 33.5146c-27.4131 0 -51.7969 -6.08008 -76.1807 -12.1807c-6.08008 -3.05078 -12.1816 -6.08008 -12.1816 -15.2324c0 -6.08008 3.0293 -12.1816 12.1816 -12.1816
c0 0 6.10059 3.05078 9.15137 3.05078c21.334 3.05078 45.7178 6.10156 67.0508 6.10156c39.6162 0 79.2324 -9.15234 109.718 -27.4346c3.05078 -3.05078 6.10059 -3.05078 9.15137 -3.05078zM365.718 146.282c9.12988 0 15.2314 9.15234 15.2314 18.2832
s-3.05078 15.2314 -9.15234 18.2822c-42.666 24.3848 -97.5352 39.6162 -152.384 39.6162c-36.5654 0 -60.9492 -6.08008 -85.333 -12.1816c-9.13086 -3.0498 -12.1816 -9.12988 -12.1816 -18.2822s9.13086 -18.2822 18.2832 -21.333
c3.05078 0 6.10059 3.05078 9.15137 3.05078c18.2832 6.10059 42.667 9.12988 70.1016 9.12988c51.8184 0 100.587 -12.1807 134.102 -33.5146c6.08008 0 6.08008 -3.05078 12.1816 -3.05078zM393.152 213.333c9.12988 0 18.2822 9.15234 18.2822 21.334
c0 9.15137 -6.10156 15.2314 -12.2021 18.2822c-48.7686 30.4854 -112.769 42.667 -176.769 42.667c-36.5654 0 -70.0801 -3.0293 -100.565 -12.1816c-9.13086 -3.05078 -15.2314 -9.15234 -15.2314 -21.333c0 -12.1816 9.15137 -21.334 21.333 -21.334
c6.10156 0 9.15234 3.05078 12.1816 3.0293c27.4346 6.10156 54.8477 9.15234 85.333 9.15234c57.9199 0 115.818 -12.1816 155.456 -36.5654c6.08008 -3.05078 9.13086 -3.05078 12.1816 -3.05078z" />
    <glyph glyph-name="uniF605" unicode="&#xf605;" 
d="M445.227 250.219c32.1494 -32.1494 32.1494 -84.2881 0 -116.438l-99.3701 -99.3701c-16.0859 -16.0859 -42.1338 -16.0859 -58.2188 0l128.469 128.469c16.0859 16.0859 16.0859 42.1338 0 58.2188c-16.0635 16.085 -42.1328 16.085 -58.2188 0l-130.986 -130.986
c-8.04297 -8.04297 -21.0771 -8.04297 -29.1201 0c-8.04297 8.02148 -8.04297 21.0557 0 29.0986l131.008 131.008c32.1494 32.1494 84.2881 32.1494 116.438 0zM401.558 206.55c8.02148 -8.02148 8.02148 -21.0781 0 -29.0996l-130.987 -130.986
c-32.1494 -32.1494 -84.2881 -32.1494 -116.437 0c-8.04297 8.02148 -8.04297 21.0557 0 29.0986c8.02051 8.04297 21.0557 8.04297 29.0986 0c16.0635 -16.085 42.1328 -16.085 58.2178 0l130.987 130.987c8.04297 8.04199 21.0771 8.04199 29.1201 0zM357.888 337.558
c8.04297 -8.04297 8.04297 -21.0771 0.0214844 -29.0986c-8.04297 -8.04297 -21.0771 -8.04297 -29.1201 0c-16.085 16.085 -42.1328 16.085 -58.2188 0l-131.008 -130.987c-8.02148 -8.04199 -21.0557 -8.04199 -29.0986 0c-8.04297 8.02148 -8.04297 21.0566 0 29.0986
l130.986 130.987c32.1494 32.1699 84.2881 32.1699 116.438 0zM314.219 293.888c8.04297 -8.04199 8.04297 -21.0771 -0.0214844 -29.0986l-130.986 -131.008c-32.1494 -32.1494 -84.2881 -32.1494 -116.438 0s-32.1494 84.2666 0 116.438l99.3916 99.3496
c16.0645 16.085 42.1338 16.085 58.2188 0l-128.469 -128.47c-16.0859 -16.085 -16.0859 -42.1543 0 -58.2188c16.0635 -16.085 42.1328 -16.085 58.2188 0l130.986 131.008c8.02148 8.04297 21.0557 8.04297 29.0986 0z" />
    <glyph glyph-name="uniF223" unicode="&#xf223;" 
d="M278.57 242.816v25.792c0 12.2666 -10.1328 22.1865 -22.5703 22.1865s-22.5703 -9.91992 -22.5703 -22.1865l-0.107422 -133.611c-0.703125 -51.1572 -43.0498 -92.3301 -95.2529 -92.3301c-52.6934 0 -95.4023 41.9199 -95.4023 93.6953v58.0908h73.002v-57.3867
c0 -12.1807 10.0908 -22.1436 22.5713 -22.1436c12.4795 0 22.5703 9.91992 22.5703 22.1436v135.317c1.85645 50.1338 43.6699 90.2832 95.1895 90.2832c51.6904 0 93.6533 -40.4268 95.1895 -90.8379v-29.6104l-43.4561 -12.7363zM396.331 194.453h73.002v-58.0908
c0 -51.7754 -42.709 -93.6953 -95.4023 -93.6953c-52.373 0 -94.8906 41.4932 -95.3604 92.7998v58.4102l29.1631 -13.333l43.4131 12.7363v-58.8379c0 -12.3086 10.0908 -22.2295 22.6133 -22.2295c12.4805 0 22.5713 9.9209 22.5713 22.2295v60.0107z" />
    <glyph glyph-name="uniF606" unicode="&#xf606;" 
d="M256 405.333c117.824 0 213.333 -95.5088 213.333 -213.333s-95.5088 -213.333 -213.333 -213.333s-213.333 95.5088 -213.333 213.333s95.5088 213.333 213.333 213.333zM321.707 90.5176l38.1006 192.085c0 12.7998 -17.5781 5.07715 -17.5781 5.07715
l-213.974 -83.9248s-10.1123 -3.45605 -9.32227 -9.85645c0.810547 -6.4209 9.06641 -9.34375 9.06641 -9.34375l53.8877 -18.0908s16.2354 -53.2695 19.4346 -63.4023c3.2002 -10.1338 5.76074 -10.3682 5.76074 -10.3682
c2.96484 -1.28027 5.6748 0.767578 5.6748 0.767578l34.7725 31.7021v0l54.208 -41.5791c14.6348 -6.40039 19.9688 6.93359 19.9688 6.93359z" />
    <glyph glyph-name="uniF607" unicode="&#xf607;" 
d="M357.312 76.8857l19.7129 -58.5176c-7.40332 -10.8799 -40.875 -23.5098 -71.0195 -24.0215c-89.3438 -1.51465 -123.199 63.6582 -123.199 109.547v134.016h-41.4941v52.9922c62.208 22.4209 77.1846 78.5488 80.7041 110.528
c0.235352 2.19727 1.96289 3.07129 2.94434 3.07129h60.0957v-104.49h82.0693v-62.0801h-82.3672v-127.68c0.276367 -17.3867 6.63379 -41.3232 39.4658 -40.4482c10.8799 0.277344 25.4727 3.45605 33.0879 7.08301z" />
    <glyph glyph-name="uniF214" unicode="&#xf214;" 
d="M405.333 384c23.5732 0 42.667 -19.0938 42.667 -42.667v-298.666c0 -23.5732 -19.0938 -42.667 -42.667 -42.667h-298.666c-23.5732 0 -42.667 19.0938 -42.667 42.667v298.666c0 23.5732 19.0938 42.667 42.667 42.667h298.666zM286.528 79.6797
c17.5996 0.320312 37.1406 7.68066 41.5146 13.9951l-11.5205 34.1543c-4.45801 -2.13281 -12.9707 -3.96777 -19.3281 -4.13867c-19.1787 -0.511719 -22.8906 13.4619 -23.0605 23.6162v74.5596h48.085v36.2676h-47.915v61.0127h-35.0928
s-1.5791 -0.511719 -1.72852 -1.79199c-2.04785 -18.666 -10.7939 -51.4346 -47.125 -64.5332v-30.9336h24.2344v-78.25c0 -26.7949 19.7549 -64.8535 71.9365 -63.958z" />
    <glyph glyph-name="uniF516" unicode="&#xf516;" 
d="M351.979 275.435v-104.746h-34.9014v104.746h34.9014zM256 275.435v-104.746h-34.9229v104.746h34.9229zM90.1973 380.203h357.803v-244.438l-104.747 -104.704h-78.5273l-52.3525 -52.3945h-52.3945v52.416h-95.9785v279.296zM413.099 153.259v192.043h-288.021
v-253.142h78.5918v-52.3525l52.3311 52.3311h96z" />
    <glyph glyph-name="uniF202" unicode="&#xf202;" 
d="M474.24 321.621c-11.7334 -17.5566 -26.5605 -32.9814 -43.6699 -45.29c0.170898 -3.75488 0.256836 -7.53125 0.256836 -11.3281c0 -115.691 -88.0645 -249.067 -249.067 -249.067c-49.4287 0 -95.4453 14.4854 -134.187 39.3174
c6.84766 -0.810547 13.8242 -1.21582 20.8857 -1.21582c41.002 0 78.7627 13.9951 108.714 37.4619c-38.293 0.724609 -70.6338 26.0264 -81.7705 60.7998c5.35547 -1.02441 10.8379 -1.5791 16.4697 -1.5791c7.97852 0 15.7227 1.06738 23.0615 3.07227
c-40.0645 8.02148 -70.2295 43.4131 -70.2295 85.8242v1.10938c11.8184 -6.5498 25.3008 -10.4961 39.6582 -10.9443c-23.4873 15.7012 -38.9326 42.4746 -38.9326 72.8535c0 16.043 4.33008 31.083 11.8613 44.0107c43.1787 -52.9707 107.669 -87.8086 180.416 -91.4561
c-1.49414 6.39941 -2.26172 13.0771 -2.26172 19.9463c0 48.3418 39.1895 87.5312 87.5303 87.5312c25.1738 0 47.9365 -10.624 63.8721 -27.6484c19.9473 3.92578 38.6777 11.2217 55.5947 21.248c-6.52734 -20.4375 -20.416 -37.5889 -38.4854 -48.4268
c17.707 2.1123 34.582 6.82715 50.2832 13.7812z" />
    <glyph glyph-name="uniF212" unicode="&#xf212;" 
d="M414.678 383.915c46.0371 -1.34473 67.7334 -30.9336 65.0879 -88.7686c-1.98438 -43.2207 -32.4482 -102.336 -91.3496 -177.472c-60.9062 -78.4219 -112.448 -117.675 -154.581 -117.675c-26.1123 0 -48.2139 23.8936 -66.2402 71.6797
c-12.0752 43.7979 -24.1279 87.5732 -36.1602 131.371c-13.3975 47.7441 -27.7969 71.6377 -43.1572 71.6377c-3.34961 0 -15.1045 -6.95508 -35.1572 -20.9072l-21.0986 26.9229c22.1221 19.2637 43.9043 38.5283 65.3867 57.7705
c29.4609 25.2588 51.6055 38.5283 66.3467 39.8936c34.8799 3.32812 56.3193 -20.3311 64.3838 -70.8486c8.7041 -54.5488 14.7197 -88.4688 18.1123 -101.738c10.0479 -45.248 21.1201 -67.8398 33.1729 -67.8398c9.36523 0 23.4453 14.6982 42.2617 44.0322
c18.752 29.333 28.7998 51.7119 30.1436 67.0293c2.64551 25.3438 -7.35938 38.0371 -30.1436 38.0371c-10.752 0 -21.8242 -2.49609 -33.1738 -7.2959c22.0166 71.4668 64.1279 106.154 126.166 104.171z" />
    <glyph glyph-name="uniF608" unicode="&#xf608;" 
d="M259.072 405.333c114.858 0 207.979 -93.1201 207.979 -207.936c0 -114.858 -93.1201 -207.979 -207.979 -207.979c-57.8779 0 -100.182 25.6846 -100.182 25.6846l-113.941 -36.4365l36.3311 110.741s-30.1865 50.9229 -30.1865 107.946
c0 114.858 93.1191 207.979 207.979 207.979zM259.072 22.6562c96.4902 0 174.698 78.2295 174.72 174.677c0 96.4912 -78.208 174.699 -174.698 174.699c-96.4912 0 -174.699 -78.208 -174.699 -174.699c0 -56.4902 34.0479 -103.615 34.0479 -103.615l-21.3115 -63.5947
l65.6855 21.4395s42.7939 -28.9062 96.2559 -28.9062zM361.302 153.387c0 0 4.15918 -0.725586 4.37305 -5.35449c0.234375 -4.62988 3.09277 -18.4746 -9.25879 -31.8086c-12.3311 -13.333 -38.6133 -19.498 -51.0293 -16.0205
c-12.4375 3.47656 -53.5469 14.2285 -80.3623 39.2314c-26.8164 25.0029 -48.5342 51.3281 -57.4082 70.7412c-8.875 19.4131 -8.40527 30.9336 -7.89355 36.3525c0.469727 5.43945 3.32812 30.5918 20.2451 41.4072c0 0 5.63184 3.56348 8.55469 3.56348h16.3633
s4.37305 -0.74707 6.39941 -5.33398c2.00586 -4.58594 15.8086 -37.0557 16.8535 -39.5518c1.02441 -2.51758 3.69043 -8.7041 -0.597656 -14.251c-4.33008 -5.5459 -13.3115 -15.9141 -13.3115 -15.9141s-3.5625 -3.2002 -0.491211 -8.29883
c3.09375 -5.12012 13.9521 -21.9521 28.1602 -34.667c14.1865 -12.7568 31.5732 -22.1221 40.2354 -24.9385c8.66113 -2.8584 10.5596 0.938477 13.8877 5.20508c3.32812 4.24609 13.6533 17.3232 13.6533 17.3232s3.54102 5.22656 10.5596 2.02637
c6.99805 -3.2002 41.0674 -19.7119 41.0674 -19.7119z" />
    <glyph glyph-name="uniF205" unicode="&#xf205;" 
d="M256 405.333c117.632 0 213.333 -95.7012 213.333 -213.333s-95.7012 -213.333 -213.333 -213.333s-213.333 95.7012 -213.333 213.333s95.7012 213.333 213.333 213.333zM64.1924 192c0 -75.9043 44.1172 -141.525 108.117 -172.629l-91.499 250.688
c-10.6455 -23.8506 -16.6182 -50.2402 -16.6182 -78.0586zM256 0.192383c22.3359 0 43.7549 3.86133 63.6797 10.8799c-0.490234 0.832031 -0.981445 1.70605 -1.36523 2.64551l-58.9434 161.515l-57.5576 -167.232c17.1943 -5.05566 35.3701 -7.80762 54.1865 -7.80762z
M282.432 281.941l69.3125 -206.208l19.1357 63.915c8.27734 26.5381 14.5918 45.5889 14.5918 61.9941c0 23.7227 -8.51172 40.1279 -15.8076 52.9072c-9.70703 15.8076 -18.8369 29.1836 -18.8369 44.9912c0 17.6426 13.376 34.0479 32.2129 34.0479
c0.832031 0 1.64258 -0.106445 2.47461 -0.148438c-34.1123 31.2744 -79.5732 50.3672 -129.515 50.3672c-67.0078 0 -125.952 -34.3887 -160.256 -86.4424c4.50098 -0.149414 8.74609 -0.234375 12.3516 -0.234375c20.0537 0 51.1152 2.43164 51.1152 2.43164
c10.3252 0.597656 11.541 -14.5918 1.21582 -15.8076c0 0 -10.3896 -1.21582 -21.9521 -1.81348l69.8457 -207.766l41.9834 125.889l-29.8877 81.877c-10.3252 0.597656 -20.1172 1.81348 -20.1172 1.81348c-10.3252 0.618164 -9.10938 16.4053 1.2373 15.8076
c0 0 31.6797 -2.43164 50.5176 -2.43164c20.0527 0 51.1143 2.43164 51.1143 2.43164c10.3252 0.597656 11.541 -14.5918 1.21582 -15.8076c0 0 -10.4102 -1.21582 -21.9521 -1.81348zM424.299 284.032c0.832031 -6.12305 1.30078 -12.6719 1.30078 -19.7119
c0 -19.4561 -3.64746 -41.3232 -14.5918 -68.6934l-58.5811 -169.387c57.0029 33.2373 95.3604 95.0186 95.3604 165.781c0 33.3438 -8.5127 64.6826 -23.4883 92.0107z" />
    <glyph glyph-name="uniF609" unicode="&#xf609;" 
d="M192 256h128v-128h-128v128zM64 256v128h128v-128h-128zM320 256v128h128v-128h-128zM320 0v128h128v-128h-128zM64 0v128h128v-128h-128z" />
    <glyph glyph-name="uniF213" unicode="&#xf213;" 
d="M465.066 277.312c0 0 4.2666 -34.5381 4.2666 -69.0557v-32.3623c0 -34.5391 -4.2666 -69.0566 -4.2666 -69.0566s-4.16016 -29.3965 -16.96 -42.3467c-16.2344 -16.9805 -34.4102 -17.0664 -42.752 -18.0693c-59.6904 -4.33008 -149.354 -4.45801 -149.354 -4.45801
s-110.934 1.02344 -145.066 4.28809c-9.49316 1.79199 -30.8057 1.2373 -47.04 18.2393c-12.7998 12.9502 -16.96 42.3467 -16.96 42.3467s-4.2666 34.5391 -4.2666 69.0566v32.3623c0 34.5176 4.2666 69.0557 4.2666 69.0557s4.16016 29.3975 16.96 42.3467
c16.2344 16.9814 34.4102 17.0674 42.7305 18.0693c59.7119 4.30957 149.27 4.30957 149.27 4.30957h0.191406s89.5576 0 149.27 -4.30957c8.3418 -0.980469 26.5391 -1.06641 42.752 -18.0693c12.7998 -12.9492 16.96 -42.3467 16.96 -42.3467zM211.946 136.661
l115.265 59.7334l-115.285 60.1602z" />
  </font>
</defs>
</svg>
