<svg fill="none" height="128" viewBox="0 0 128 128" width="128" xmlns="http://www.w3.org/2000/svg" xmlns:xlink="http://www.w3.org/1999/xlink"><clipPath id="a"><path d="m0 0h128v128h-128z"/></clipPath><g clip-path="url(#a)"><rect fill="#2c3338" height="103.619" rx="12.1905" width="103.619" x="12.1904" y="12.1904"/><path d="m42.8145 52.6692c-.0261-.1823-.0391-.3517-.0391-.5079 0-.5471.1302-1.055.3907-1.5239.3386-.6251.8466-1.094 1.5238-1.4065l17.9732-6.4079c.3125-.1042.6381-.1563.9768-.1563l.9768.1563 17.9731 6.4079c.6772.3125 1.1852.7814 1.5238 1.4065.2605.495.3907 1.0029.3907 1.5239 0 .1562-.013.3256-.039.5079 0 .026-.0131.1042-.0391.2344-.2084.9378-.4428 1.8885-.7033 2.8523-.2605.9377-.7294 2.5397-1.4066 4.8058-.6773 2.2662-1.5108 4.5063-2.5006 6.7204-.9638 2.2141-2.1099 4.6105-3.4384 7.1893-1.3024 2.5527-2.9043 5.0663-4.8058 7.5409-1.8755 2.4746-3.8812 4.6756-6.0171 6.6032-.521.5209-1.1722.7814-1.9536.7814-.7294 0-1.3545-.2605-1.8755-.7814-2.6569-2.3704-5.1184-5.2227-7.3846-8.5568-2.2662-3.3342-4.0635-6.4339-5.3919-9.2992-1.3285-2.8652-2.5006-5.7696-3.5165-8.713-.9898-2.9695-1.6541-5.1315-1.9927-6.486-.3126-1.3545-.5209-2.3183-.6251-2.8913zm1.7191.2344c.0521.3386.1563.8596.3126 1.5629.1823.6773.5079 1.8364.9768 3.4774.4689 1.615.9898 3.2821 1.5629 5.0012.5991 1.6932 1.3936 3.6598 2.3834 5.8999 1.0159 2.2141 2.0969 4.337 3.243 6.3688 1.1721 2.0317 2.5787 4.1155 4.2197 6.2515 1.6411 2.1359 3.3733 4.0244 5.1966 5.6654.3647.2605.7684.3908 1.2113.3908.4428 0 .8205-.1303 1.1331-.3908 2.5266-2.2661 4.8579-4.9882 6.9938-8.166 2.162-3.1779 3.8552-6.1083 5.0794-8.7912 1.2503-2.709 2.3574-5.4962 3.3211-8.3615.9638-2.8913 1.589-4.9361 1.8755-6.1343.3126-1.1982.521-2.1229.6251-2.7741.0261-.1302.0391-.2605.0391-.3907.0261-.2865-.0391-.5731-.1953-.8596-.2084-.4168-.521-.7033-.9378-.8596l-17.348-6.2515c-.0781 0-.1823-.013-.3125-.0391-.1303-.026-.2345-.039-.3126-.039l-.547.0781-17.348 6.2515c-.4168.1563-.7294.4428-.9377.8596-.1563.2865-.2475.5861-.2735.8987 0 .1302.013.2474.039.3516zm6.5641 1.5629h6.5641l5.939 15.2381 6.0171-15.2381h6.5641c-.1563.3907-.3647.9638-.6252 1.7192-.2604.7293-.5079 1.3935-.7423 1.9926-.2345.5992-.4819 1.1592-.7424 1.6801-.0521.1042-.1433.1824-.2735.2345-.1042.0521-.2344.1042-.3907.1563-.1563.026-.2735.0521-.3517.0781-.1302.0782-.2474.1693-.3516.2735-.0782.0782-.1563.1954-.2345.3517-.0521.1302-.1041.2344-.1562.3125-.0261.0782-.0782.2214-.1563.4298-.0521.1824-.0912.2996-.1173.3517l-.9377 2.3443c-2.8132 7.1111-4.4802 11.3309-5.0012 12.6593h-4.9231l-2.1099-5.1575c-.2084-.6251-.573-1.5628-1.094-2.8132-.2084-.6251-.573-1.5628-1.094-2.8131l-1.1722-2.8914c-.1042-.2344-.2214-.547-.3516-.9377-.1303-.3907-.2735-.7424-.4298-1.0549-.1302-.3126-.3126-.6122-.547-.8987-.1042-.1042-.2214-.1693-.3517-.1954-.1302-.0521-.2735-.0781-.4298-.0781-.1562 0-.2604-.013-.3125-.0391-.6512-1.5889-1.3806-3.4904-2.1881-5.7045z" fill="#fff"/><path d="m104.678 46.7302c12.904 0 23.365-10.4609 23.365-23.3651s-10.461-23.3651-23.365-23.3651c-12.9046 0-23.3655 10.4609-23.3655 23.3651s10.4609 23.3651 23.3655 23.3651z" fill="#069e08"/><g fill="#fff"><path d="m105.837 19.4412v22.6516l11.682-22.6516z"/><path d="m103.474 27.2443v-22.60709l-11.6378 22.60709z"/></g></g></svg>