<?xml version="1.0" encoding="iso-8859-1"?>
<!-- Generator: Adobe Illustrator 19.1.0, SVG Export Plug-In . SVG Version: 6.00 Build 0)  -->
<svg version="1.1" xmlns="http://www.w3.org/2000/svg" xmlns:xlink="http://www.w3.org/1999/xlink" x="0px" y="0px"
	 viewBox="0 0 24 24" style="enable-background:new 0 0 24 24;" xml:space="preserve">
<g id="link">
	<path d="M17,13H7v-2h10V13z M18,7h-1c-1.631,0-3.065,0.792-3.977,2H17h1c1.103,0,2,0.897,2,2v2c0,1.103-0.897,2-2,2h-1h-3.977
		c0.913,1.208,2.347,2,3.977,2h1c2.209,0,4-1.791,4-4v-2C22,8.791,20.209,7,18,7z M2,11v2c0,2.209,1.791,4,4,4h1
		c1.63,0,3.065-0.792,3.977-2H7H6c-1.103,0-2-0.897-2-2v-2c0-1.103,0.897-2,2-2h1h3.977C10.065,7.792,8.631,7,7,7H6
		C3.791,7,2,8.791,2,11z"/>
</g>
<g id="Layer_1">
</g>
</svg>
