<svg viewBox="0 0 24 24" xmlns="http://www.w3.org/2000/svg">
<path d="M17.696 4C20.069 4 22 5.973 22 8.398v4.357c0 2.04-1.368 3.783-3.261 4.266v4.427l-5.234-4.295h-7.2C3.93 17.153 2 15.18 2 12.755V8.398C2 5.973 3.931 4 6.304 4h11.392ZM7.028 8.515c-.98 0-1.66.562-1.66 1.349-.009.497.322.91.985 1.178l.39.142c.242.097.305.171.305.297 0 .162-.131.251-.442.251s-.76-.135-1.004-.284l-.112.046-.215.868c.359.258.832.364 1.33.364 1.104 0 1.764-.523 1.764-1.333-.008-.574-.305-.956-.954-1.216l-.393-.146c-.266-.108-.341-.181-.341-.287 0-.152.131-.243.387-.243.274 0 .587.093.808.214l.109-.047.214-.837c-.315-.224-.741-.316-1.171-.316Zm10.302 0c-.98 0-1.66.562-1.66 1.349-.008.497.322.91.985 1.178l.39.142c.243.097.305.171.305.297 0 .162-.13.251-.442.251-.311 0-.76-.135-1.004-.284l-.112.046-.215.868c.359.258.832.364 1.33.364 1.104 0 1.764-.523 1.764-1.333-.008-.574-.305-.956-.954-1.216l-.393-.146c-.266-.108-.341-.181-.341-.287 0-.152.131-.243.387-.243.274 0 .587.093.808.214l.109-.047.214-.837c-.316-.224-.741-.316-1.171-.316Zm-3.733 0c-.297 0-.55.066-.78.202l-.144.098a1.823 1.823 0 0 0-.264.247l-.078.095-.027-.077c-.15-.34-.55-.565-1.033-.565l-.169.007a1.363 1.363 0 0 0-.896.42l-.08.09-.038-.363-.075-.067H8.994l-.075.079.024.634c.005.2.008.397.008.604v2.652l.075.075h1.178l.075-.075v-2.269c0-.113.012-.202.042-.274.083-.23.262-.392.496-.392.314 0 .483.267.483.753v2.182l.075.075h1.179l.075-.075v-2.277c0-.097.016-.213.043-.285.077-.224.26-.373.486-.373.33 0 .5.272.5.817v2.118l.074.075h1.179l.075-.075v-2.293c0-1.131-.537-1.763-1.39-1.763Z"/>
</svg>