<svg enable-background="new 0 0 24 24" viewBox="0 0 24 24" xmlns="http://www.w3.org/2000/svg"><path d="m7.799 5.698c.589 0 1.12.051 1.606.156.482.102.894.273 1.241.507.344.235.612.546.804.938.188.387.281.871.281 1.443 0 .619-.141 1.137-.421 1.551-.284.413-.7.751-1.255 1.014.756.218 1.317.601 1.689 1.146.374.549.557 1.205.557 1.975 0 .623-.12 1.161-.359 1.612-.241.457-.569.828-.973 1.114-.408.288-.876.5-1.399.637-.518.14-1.056.209-1.607.209h-5.963v-12.302zm-.35 4.97c.481 0 .878-.114 1.192-.345.311-.228.463-.603.463-1.119 0-.286-.051-.523-.152-.707-.104-.182-.241-.326-.416-.427-.174-.104-.37-.176-.596-.216-.224-.044-.457-.06-.697-.06h-2.534v2.874zm.151 5.237c.267 0 .521-.024.759-.077.243-.053.457-.137.637-.261.182-.12.332-.283.441-.491.11-.206.163-.474.163-.798 0-.633-.18-1.084-.533-1.357-.356-.27-.83-.404-1.413-.404h-2.945v3.388zm8.562-.041c.367.358.897.538 1.583.538.493 0 .92-.125 1.277-.374.354-.248.571-.514.654-.79h2.155c-.347 1.072-.872 1.838-1.589 2.299-.708.463-1.572.693-2.58.693-.701 0-1.332-.113-1.899-.337-.567-.227-1.041-.544-1.439-.958-.389-.415-.689-.907-.904-1.484-.213-.574-.32-1.21-.32-1.899 0-.666.11-1.288.329-1.863.222-.577.529-1.075.933-1.492.406-.42.885-.751 1.444-.994.558-.241 1.175-.363 1.857-.363.754 0 1.414.145 1.98.44.563.291 1.026.686 1.389 1.181.363.493.622 1.057.783 1.69.16.632.217 1.292.171 1.983h-6.428c-.001.706.237 1.372.604 1.73m2.811-4.68c-.291-.321-.783-.496-1.384-.496-.39 0-.714.066-.973.2-.254.132-.461.297-.621.491-.157.197-.265.405-.328.628-.063.217-.101.413-.111.587h3.98c-.058-.625-.271-1.085-.563-1.41zm-3.916-3.446h4.985v-1.214h-4.985z"/></svg>