<?xml version="1.0" encoding="iso-8859-1"?>
<!-- Generator: Adobe Illustrator 19.2.1, SVG Export Plug-In . SVG Version: 6.00 Build 0)  -->
<svg version="1.1" xmlns="http://www.w3.org/2000/svg" xmlns:xlink="http://www.w3.org/1999/xlink" x="0px" y="0px"
	 viewBox="0 0 24 24" style="enable-background:new 0 0 24 24;" xml:space="preserve">
<g id="blogger">
	<path d="M14.722,14.019c0,0.361-0.293,0.654-0.654,0.654H9.977c-0.361,0-0.654-0.293-0.654-0.654s0.293-0.654,0.654-0.654h4.091
		C14.429,13.365,14.722,13.658,14.722,14.019z M9.981,10.698h2.038c0.382,0,0.692-0.31,0.692-0.692c0-0.382-0.31-0.692-0.692-0.692
		H9.981c-0.382,0-0.692,0.31-0.692,0.692C9.289,10.388,9.599,10.698,9.981,10.698z M21,5v14c0,1.105-0.895,2-2,2H5
		c-1.105,0-2-0.895-2-2V5c0-1.105,0.895-2,2-2h14C20.105,3,21,3.895,21,5z M17.544,11.39c0-0.398-0.322-0.72-0.72-0.72h-0.607
		l-0.013,0.001c-0.38,0-0.692-0.295-0.718-0.668l-0.001-0.008c0-1.988-1.611-3.599-3.599-3.599h-1.816
		c-1.988,0-3.599,1.611-3.599,3.599v3.947c0,1.987,1.611,3.599,3.599,3.599h3.874c1.988,0,3.599-1.611,3.599-3.599L17.544,11.39z"/>
</g>
<g id="Layer_1">
</g>
</svg>
