<svg enable-background="new 0 0 24 24" viewBox="0 0 24 24" xmlns="http://www.w3.org/2000/svg"><path d="m14.722 14.019c0 .361-.293.654-.654.654h-4.091c-.361 0-.654-.293-.654-.654s.293-.654.654-.654h4.091c.361 0 .654.293.654.654zm-4.741-3.321h2.038c.382 0 .692-.31.692-.692s-.31-.692-.692-.692h-2.038c-.382 0-.692.31-.692.692s.31.692.692.692zm11.019-5.698v14c0 1.105-.895 2-2 2h-14c-1.105 0-2-.895-2-2v-14c0-1.105.895-2 2-2h14c1.105 0 2 .895 2 2zm-3.456 6.39c0-.398-.322-.72-.72-.72h-.607l-.013.001c-.38 0-.692-.295-.718-.668l-.001-.008c0-1.988-1.611-3.599-3.599-3.599h-1.816c-1.988 0-3.599 1.611-3.599 3.599v3.947c0 1.987 1.611 3.599 3.599 3.599h3.874c1.988 0 3.599-1.611 3.599-3.599z"/></svg>