<svg enable-background="new 0 0 24 24" viewBox="0 0 24 24" xmlns="http://www.w3.org/2000/svg"><path d="m19.779 9.904h-.981l-.021.001c-.614 0-1.117-.476-1.16-1.079l-.001-.013c0-3.21-2.602-5.813-5.813-5.813h-2.932c-3.21 0-5.813 2.602-5.813 5.813v6.375c0 3.21 2.602 5.813 5.813 5.813h6.257c3.21 0 5.813-2.603 5.813-5.813l.002-4.121c-.001-.643-.522-1.163-1.164-1.163zm-11.053-2.191h3.291c.617 0 1.117.5 1.117 1.117s-.5 1.117-1.117 1.117h-3.291c-.617 0-1.117-.5-1.117-1.117-0-.616.5-1.117 1.117-1.117zm6.601 8.657h-6.607c-.584 0-1.057-.473-1.057-1.057s.473-1.057 1.057-1.057h6.607c.584 0 1.057.473 1.057 1.057s-.473 1.057-1.057 1.057z"/></svg>