<svg enable-background="new 0 0 24 24" viewBox="0 0 24 24" xmlns="http://www.w3.org/2000/svg"><path d="m22.016 8.84c-.002-.013-.005-.025-.007-.037-.005-.025-.008-.048-.015-.072-.003-.015-.01-.028-.013-.042-.008-.02-.015-.04-.023-.062-.007-.015-.013-.028-.02-.042-.008-.02-.018-.037-.03-.057-.007-.013-.017-.027-.025-.038-.012-.018-.023-.035-.035-.052-.01-.013-.02-.025-.03-.037-.015-.017-.028-.032-.043-.045-.01-.012-.022-.023-.035-.035-.015-.015-.032-.028-.048-.04-.012-.01-.025-.02-.037-.03-.005-.003-.01-.008-.015-.012l-9.161-6.096c-.289-.192-.666-.192-.955 0l-9.165 6.094c-.005.003-.01.008-.015.012l-.038.028c-.017.013-.033.027-.048.04-.012.014-.024.025-.036.035-.015.015-.028.03-.042.047-.012.013-.022.023-.03.037-.011.017-.025.035-.035.052-.008.013-.016.026-.025.038-.011.022-.021.039-.03.059-.006.015-.013.028-.02.041-.008.022-.015.044-.021.064-.005.013-.01.027-.013.042-.007.023-.011.046-.016.071-.001.014-.005.025-.006.037-.006.039-.009.075-.009.114v6.093c0 .037.003.075.008.112.002.012.005.025.007.038.005.023.008.047.015.072.003.015.008.028.013.04.007.022.013.042.022.063.007.015.013.028.02.04.008.02.018.038.03.058.007.013.015.027.025.038.012.018.023.035.035.052.01.013.02.025.03.037.013.015.028.032.042.045l.035.035c.015.013.032.028.048.04l.038.03c.005.003.01.007.013.01l9.163 6.095c.149.101.314.148.481.148s.332-.047.478-.144l9.163-6.095.015-.01c.013-.01.027-.02.037-.03.018-.013.035-.028.048-.04s.025-.023.035-.035c.017-.015.03-.032.043-.045.01-.013.02-.025.03-.037.013-.018.025-.035.035-.052.008-.013.018-.027.025-.038.012-.02.022-.038.03-.058.007-.013.013-.027.02-.04.008-.022.015-.042.023-.063.003-.013.01-.027.013-.04.007-.025.01-.048.015-.072.002-.013.005-.027.007-.037.003-.042.007-.079.007-.117v-6.093c.001-.039-.002-.075-.008-.114zm-9.154-4.376 6.751 4.49-3.016 2.013-3.735-2.492zm-1.724 0v4.009l-3.735 2.494-3.014-2.013zm-7.439 6.098 2.154 1.438-2.155 1.438v-2.876zm7.439 8.974-6.749-4.491 3.015-2.011 3.735 2.492v4.01zm.862-5.501-3.047-2.035 3.047-2.034 3.047 2.034zm.862 5.501v-4.009l3.735-2.492 3.016 2.011zm7.441-6.098-2.156-1.438 2.156-1.438z"/></svg>