<svg viewBox="0 0 24 24" width="24" height="24" xmlns="http://www.w3.org/2000/svg">
	<path d="M20.129 3.662c.222-1.287.548-2.096.909-2.098h.001c.673.002 1.219 2.809 1.219 6.274s-.546 6.274-1.22 6.274c-.276 0-.531-.477-.736-1.276-.324 2.926-.997 4.937-1.776 4.937-.603 0-1.144-1.208-1.507-3.114-.248 3.624-.872 6.195-1.602 6.195-.458 0-.875-1.019-1.184-2.678C13.861 21.6 13.003 24 12.002 24s-1.861-2.399-2.231-5.824c-.307 1.659-.724 2.678-1.184 2.678-.73 0-1.352-2.571-1.602-6.195-.363 1.905-.903 3.114-1.507 3.114-.778 0-1.452-2.011-1.776-4.937-.204.802-.46 1.276-.736 1.276-.674 0-1.22-2.809-1.22-6.274s.546-6.274 1.22-6.274c.362 0 .685.812.91 2.098.357-2.22.94-3.662 1.6-3.662.784 0 1.463 2.04 1.784 5.002.314-2.156.791-3.53 1.325-3.53.749 0 1.385 2.703 1.621 6.474.443-1.933 1.085-3.146 1.795-3.146s1.352 1.214 1.795 3.146c.237-3.771.872-6.474 1.621-6.474.533 0 1.009 1.374 1.325 3.53.321-2.962 1-5.002 1.784-5.002.658 0 1.244 1.443 1.603 3.662M0 7.221c0-1.549.31-2.805.692-2.805s.692 1.256.692 2.805-.31 2.805-.692 2.805S0 8.77 0 7.221m22.616 0c0-1.549.31-2.805.692-2.805S24 5.672 24 7.221s-.31 2.805-.692 2.805-.692-1.256-.692-2.805"/>
</svg>
