<svg xmlns="http://www.w3.org/2000/svg" viewBox="0 0 24 24" width="24" height="24">
	<path d="M20.33 4.523A20 20 0 0 0 15.379 3a14 14 0 0 0-.634 1.289 18.4 18.4 0 0 0-5.495 0A14 14 0 0 0 8.615 3 20 20 0 0 0 3.66 4.527C.527 9.163-.323 13.684.102 18.141a20 20 0 0 0 6.073 3.049 14.7 14.7 0 0 0 1.301-2.097 13 13 0 0 1-2.048-.978q.258-.189.502-.378a14.27 14.27 0 0 0 12.142 0q.247.202.502.378a13 13 0 0 1-2.052.98 14.5 14.5 0 0 0 1.301 2.095 19.9 19.9 0 0 0 6.076-3.047c.498-5.168-.851-9.648-3.568-13.62M8.013 15.4c-1.183 0-2.161-1.074-2.161-2.395S6.796 10.6 8.01 10.6s2.183 1.083 2.163 2.405S9.22 15.4 8.013 15.4m7.974 0c-1.186 0-2.16-1.074-2.16-2.395s.944-2.405 2.16-2.405 2.178 1.083 2.157 2.405-.951 2.395-2.158 2.395"/>
</svg>
