<svg enable-background="new 0 0 24 24" viewBox="0 0 24 24" xmlns="http://www.w3.org/2000/svg"><path d="m12 22c-5.514 0-10-4.486-10-10s4.486-10 10-10 10 4.486 10 10-4.486 10-10 10zm8.434-8.631c-.292-.092-2.644-.794-5.32-.365 1.117 3.07 1.572 5.57 1.659 6.09 1.916-1.296 3.28-3.349 3.661-5.725zm-5.098 6.507c-.127-.749-.623-3.361-1.822-6.477-.019.006-.038.013-.056.019-4.818 1.679-6.547 5.02-6.701 5.334 1.448 1.129 3.268 1.803 5.243 1.803 1.183-0 2.311-.242 3.336-.679zm-9.682-2.152c.193-.331 2.538-4.213 6.943-5.637.111-.036.224-.07.337-.102-.214-.485-.448-.971-.692-1.45-4.266 1.277-8.405 1.223-8.778 1.216-.003.087-.004.174-.004.261-.002 2.195.83 4.198 2.194 5.712zm-2.015-7.46c.382.005 3.901.02 7.897-1.041-1.415-2.516-2.942-4.631-3.167-4.94-2.39 1.127-4.176 3.33-4.73 5.981zm6.359-6.555c.236.316 1.787 2.429 3.187 5 3.037-1.138 4.323-2.867 4.477-3.085-1.508-1.338-3.492-2.153-5.662-2.153-.689 0-1.359.083-2.002.238zm8.614 2.903c-.18.243-1.612 2.078-4.77 3.367.199.407.389.821.567 1.237.063.148.124.295.184.441 2.842-.357 5.666.215 5.948.275-.019-2.016-.74-3.867-1.929-5.32z"/></svg>