<?xml version="1.0" encoding="iso-8859-1"?>
<!-- Generator: Adobe Illustrator 19.2.1, SVG Export Plug-In . SVG Version: 6.00 Build 0)  -->
<svg version="1.1" xmlns="http://www.w3.org/2000/svg" xmlns:xlink="http://www.w3.org/1999/xlink" x="0px" y="0px"
	 viewBox="0 0 24 24" style="enable-background:new 0 0 24 24;" xml:space="preserve">
<g id="eventbrite">
	<path style="fill-rule:evenodd;clip-rule:evenodd;" d="M18.041,3.931L5.959,3C4.325,3,3,4.325,3,5.959v12.083
		C3,19.675,4.325,21,5.959,21l12.083-0.931C19.699,19.983,21,18.744,21,17.11V6.89C21,5.256,19.741,4.027,18.041,3.931z
		 M16.933,8.17c-0.082,0.215-0.192,0.432-0.378,0.551c-0.188,0.122-0.489,0.132-0.799,0.132c-1.521,0-3.062-0.048-4.607-0.048
		c-0.152,0.708-0.304,1.416-0.451,2.128c0.932-0.004,1.873,0.005,2.81,0.005c0.726,0,1.462-0.069,1.586,0.525
		c0.04,0.189-0.001,0.426-0.052,0.615c-0.105,0.38-0.258,0.676-0.625,0.783c-0.185,0.054-0.408,0.058-0.646,0.058
		c-1.145,0-2.345,0.017-3.493,0.02c-0.169,0.772-0.328,1.553-0.489,2.333c1.57-0.005,3.067-0.041,4.633-0.058
		c0.627-0.007,1.085,0.194,1.009,0.85c-0.031,0.262-0.098,0.497-0.211,0.725c-0.102,0.208-0.248,0.376-0.488,0.452
		c-0.237,0.075-0.541,0.064-0.862,0.078c-0.304,0.014-0.614,0.008-0.924,0.016c-0.309,0.009-0.619,0.022-0.919,0.022
		c-1.253,0-2.429,0.08-3.683,0.073c-0.603-0.004-1.014-0.249-1.124-0.757c-0.059-0.273-0.018-0.58,0.036-0.841
		c0.541-2.592,1.083-5.176,1.629-7.763c0.056-0.265,0.114-0.511,0.225-0.714C9.279,7.051,9.534,6.834,9.9,6.735
		c0.368-0.099,0.883-0.047,1.344-0.047c0.305,0,0.612,0.008,0.914,0.016c0.925,0.026,1.817,0.03,2.747,0.053
		c0.304,0.007,0.615,0.016,0.915,0.016c0.621,0,1.17,0.073,1.245,0.614C17.104,7.675,17.014,7.954,16.933,8.17z"/>
</g>
<g id="Layer_1">
</g>
</svg>
