<svg enable-background="new 0 0 24 24" viewBox="0 0 24 24" xmlns="http://www.w3.org/2000/svg"><path clip-rule="evenodd" d="m18.041 3.931-12.082-.931c-1.634 0-2.959 1.325-2.959 2.959v12.083c0 1.633 1.325 2.958 2.959 2.958l12.083-.931c1.657-.086 2.958-1.325 2.958-2.959v-10.22c0-1.634-1.259-2.863-2.959-2.959zm-1.108 4.239c-.082.215-.192.432-.378.551-.188.122-.489.132-.799.132-1.521 0-3.062-.048-4.607-.048-.152.708-.304 1.416-.451 2.128.932-.004 1.873.005 2.81.005.726 0 1.462-.069 1.586.525.04.189-.001.426-.052.615-.105.38-.258.676-.625.783-.185.054-.408.058-.646.058-1.145 0-2.345.017-3.493.02-.169.772-.328 1.553-.489 2.333 1.57-.005 3.067-.041 4.633-.058.627-.007 1.085.194 1.009.85-.031.262-.098.497-.211.725-.102.208-.248.376-.488.452-.237.075-.541.064-.862.078-.304.014-.614.008-.924.016-.309.009-.619.022-.919.022-1.253 0-2.429.08-3.683.073-.603-.004-1.014-.249-1.124-.757-.059-.273-.018-.58.036-.841.541-2.592 1.083-5.176 1.629-7.763.056-.265.114-.511.225-.714.169-.304.424-.521.79-.62.368-.099.883-.047 1.344-.047.305 0 .612.008.914.016.925.026 1.817.03 2.747.053.304.007.615.016.915.016.621 0 1.17.073 1.245.614.039.288-.051.567-.132.783z" fill-rule="evenodd"/></svg>