<svg viewBox="0 0 743 743" fill="none" xmlns="http://www.w3.org/2000/svg">
<path d="M181.131 275.137C174.564 287.714 164.273 297.956 151.666 304.465L313.424 466.854L352.422 447.09L181.131 275.137ZM394.494 489.324L355.496 509.088L437.459 591.371C444.027 578.792 454.32 568.548 466.93 562.039L394.494 489.324Z" fill="black"/>
<path d="M581.646 339.391L490.07 385.801L496.822 428.99L600.438 376.477C590.504 366.345 583.942 353.393 581.646 339.391ZM436.908 412.742L220.383 522.477C230.318 532.609 236.882 545.562 239.178 559.566L443.66 455.934L436.908 412.742Z" fill="black"/>
<path d="M367.275 142.438L262.795 346.408L293.643 377.375L404.266 161.418C390.275 159.051 377.357 152.423 367.275 142.438ZM235.621 399.459L182.699 502.773C196.688 505.14 209.605 511.768 219.686 521.752L266.467 430.424L235.621 399.459Z" fill="black"/>
<path d="M150.768 304.918C140.111 310.253 128.253 312.732 116.352 312.113C114.125 311.989 111.905 311.757 109.701 311.418L140.604 509.08C151.26 503.745 163.118 501.266 175.02 501.885C177.245 502.009 179.463 502.241 181.666 502.58L150.768 304.918Z" fill="black"/>
<path d="M239.342 560.545C240.049 565.134 240.291 569.784 240.062 574.422C239.535 583.885 237.061 593.138 232.795 601.602L430.424 633.314C429.716 628.724 429.474 624.074 429.701 619.436C430.229 609.973 432.704 600.721 436.971 592.258L239.342 560.545Z" fill="black"/>
<path d="M601.133 377.199L509.914 555.281C523.906 557.648 536.826 564.277 546.908 574.264L638.125 396.184C624.133 393.816 611.214 387.186 601.133 377.199Z" fill="black"/>
<path d="M476.723 125.33C470.155 137.909 459.862 148.153 447.252 154.662L588.518 296.473C595.085 283.894 605.377 273.65 617.986 267.141L476.723 125.33Z" fill="black"/>
<path d="M347.787 104.631L169.211 195.129C179.145 205.261 185.708 218.213 188.004 232.215L366.578 141.713C356.646 131.582 350.083 118.632 347.787 104.631Z" fill="black"/>
<path d="M446.926 154.826C436.127 160.357 424.06 162.938 411.943 162.309C409.925 162.186 407.914 161.975 405.914 161.676L421.732 262.967L464.895 269.893L446.926 154.826ZM430.926 321.854L468.326 561.336C478.856 556.173 490.529 553.783 502.24 554.393C504.655 554.53 507.06 554.794 509.447 555.184L474.09 328.777L430.926 321.854Z" fill="black"/>
<path d="M188.131 232.975C188.865 237.635 189.119 242.358 188.889 247.07C188.368 256.459 185.932 265.641 181.729 274.053L283.098 290.334L303.021 251.426L188.131 232.975ZM361.867 260.875L341.941 299.787L581.455 338.254C580.767 333.716 580.534 329.12 580.76 324.535C581.293 315.017 583.795 305.712 588.109 297.211L361.867 260.875Z" fill="black"/>
<path d="M412.284 156.054C446.822 157.936 476.345 131.462 478.227 96.9238C480.108 62.3857 453.635 32.862 419.096 30.9807C384.558 29.0994 355.035 55.573 353.153 90.1111C351.272 124.649 377.746 154.173 412.284 156.054Z" fill="black" fill-opacity="0.995968"/>
<path d="M646.144 390.82C680.682 392.701 710.206 366.227 712.087 331.689C713.969 297.151 687.495 267.628 652.957 265.746C618.419 263.865 588.895 290.339 587.014 324.877C585.132 359.415 611.606 388.938 646.144 390.82Z" fill="black" fill-opacity="0.995968"/>
<path d="M495.086 685.719C529.624 687.6 559.148 661.127 561.029 626.589C562.91 592.051 536.437 562.527 501.899 560.646C467.361 558.764 437.837 585.238 435.956 619.776C434.074 654.314 460.548 683.838 495.086 685.719Z" fill="black" fill-opacity="0.995968"/>
<path d="M167.866 633.211C202.404 635.093 231.928 608.619 233.809 574.081C235.691 539.543 209.217 510.019 174.679 508.138C140.141 506.257 110.617 532.73 108.736 567.268C106.855 601.806 133.328 631.33 167.866 633.211Z" fill="black" fill-opacity="0.995968"/>
<path d="M116.692 305.86C151.23 307.742 180.754 281.268 182.635 246.73C184.516 212.192 158.043 182.668 123.504 180.787C88.9663 178.906 59.4426 205.379 57.5613 239.917C55.68 274.455 82.1536 303.979 116.692 305.86Z" fill="black" fill-opacity="0.995968"/>
</svg>
