<svg fill="none" viewBox="0 0 743 743" xmlns="http://www.w3.org/2000/svg"><g fill="#000"><path d="m181.131 275.137c-6.567 12.577-16.858 22.819-29.465 29.328l161.758 162.389 38.998-19.764zm213.363 214.187-38.998 19.764 81.963 82.283c6.568-12.579 16.861-22.823 29.471-29.332z"/><path d="m581.646 339.391-91.576 46.41 6.752 43.189 103.616-52.513c-9.934-10.132-16.496-23.084-18.792-37.086zm-144.738 73.351-216.525 109.735c9.935 10.132 16.499 23.085 18.795 37.089l204.482-103.632z"/><path d="m367.275 142.438-104.48 203.97 30.848 30.967 110.623-215.957c-13.991-2.367-26.909-8.995-36.991-18.98zm-131.654 257.021-52.922 103.314c13.989 2.367 26.906 8.995 36.987 18.979l46.781-91.328z"/><path d="m150.768 304.918c-10.657 5.335-22.515 7.814-34.416 7.195-2.227-.124-4.447-.356-6.651-.695l30.903 197.662c10.656-5.335 22.514-7.814 34.416-7.195 2.225.124 4.443.356 6.646.695z"/><path d="m239.342 560.545c.707 4.589.949 9.239.72 13.877-.527 9.463-3.001 18.716-7.267 27.18l197.629 31.712c-.708-4.59-.95-9.24-.723-13.878.528-9.463 3.003-18.715 7.27-27.178z"/><path d="m601.133 377.199-91.219 178.082c13.992 2.367 26.912 8.996 36.994 18.983l91.217-178.08c-13.992-2.368-26.911-8.998-36.992-18.985z"/><path d="m476.723 125.33c-6.568 12.579-16.861 22.823-29.471 29.332l141.266 141.811c6.567-12.579 16.859-22.823 29.468-29.332z"/><path d="m347.787 104.631-178.576 90.498c9.934 10.132 16.497 23.084 18.793 37.086l178.574-90.502c-9.932-10.131-16.495-23.081-18.791-37.082z"/><path d="m446.926 154.826c-10.799 5.531-22.866 8.112-34.983 7.483-2.018-.123-4.029-.334-6.029-.633l15.818 101.291 43.163 6.926zm-16 167.028 37.4 239.482c10.53-5.163 22.203-7.553 33.914-6.943 2.415.137 4.82.401 7.207.791l-35.357-226.407z"/><path d="m188.131 232.975c.734 4.66.988 9.383.758 14.095-.521 9.389-2.957 18.571-7.16 26.983l101.369 16.281 19.923-38.908zm173.736 27.9-19.926 38.912 239.514 38.467c-.688-4.538-.921-9.134-.695-13.719.533-9.518 3.035-18.823 7.349-27.324z"/><g fill-opacity=".995968"><path d="m412.284 156.054c34.538 1.882 64.061-24.592 65.943-59.1302 1.881-34.5381-24.592-64.0618-59.131-65.9431-34.538-1.8813-64.061 24.5923-65.943 59.1304-1.881 34.5379 24.593 64.0619 59.131 65.9429z"/><path d="m646.144 390.82c34.538 1.881 64.062-24.593 65.943-59.131 1.882-34.538-24.592-64.061-59.13-65.943-34.538-1.881-64.062 24.593-65.943 59.131-1.882 34.538 24.592 64.061 59.13 65.943z"/><path d="m495.086 685.719c34.538 1.881 64.062-24.592 65.943-59.13s-24.592-64.062-59.13-65.943c-34.538-1.882-64.062 24.592-65.943 59.13-1.882 34.538 24.592 64.062 59.13 65.943z"/><path d="m167.866 633.211c34.538 1.882 64.062-24.592 65.943-59.13 1.882-34.538-24.592-64.062-59.13-65.943s-64.062 24.592-65.943 59.13 24.592 64.062 59.13 65.943z"/><path d="m116.692 305.86c34.538 1.882 64.062-24.592 65.943-59.13s-24.592-64.062-59.131-65.943c-34.5377-1.881-64.0614 24.592-65.9427 59.13s24.5923 64.062 59.1307 65.943z"/></g></g></svg>