<svg enable-background="new 0 0 24 24" viewBox="0 0 24 24" xmlns="http://www.w3.org/2000/svg"><path d="m17.573 2s-9.197 0-10.668 0-1.905 1.107-1.905 1.805 0 16.948 0 16.948c0 .785.422 1.077.66 1.172.238.097.892.177 1.285-.275 0 0 5.035-5.843 5.122-5.93.132-.132.132-.132.262-.132h3.26c1.368 0 1.588-.977 1.732-1.552.078-.318.692-3.428 1.225-6.122l.675-3.368c.339-1.653-.081-2.546-1.648-2.546zm-1.078 5.22c-.053.252-.372.518-.665.518s-4.157 0-4.157 0c-.467 0-.802.318-.802.787v.508c0 .467.337.798.805.798h3.528s.655.362.583.715-.407 2.102-.448 2.295c-.04.193-.262.523-.655.523-.33 0-2.88 0-2.88 0-.523 0-.683.068-1.033.503-.35.437-3.505 4.223-3.505 4.223-.032.035-.063.027-.063-.015v-13.223c0-.298.26-.648.648-.648h8.562c.315 0 .61.297.528.683z"/></svg>