<svg xmlns="http://www.w3.org/2000/svg" viewBox="0 0 24 24" width="24" height="24">
	<path d="M23.519 10.947 13.053.482a1.543 1.543 0 0 0-2.183 0L8.696 2.656l2.756 2.756a1.83 1.83 0 0 1 1.886.439 1.84 1.84 0 0 1 .436 1.898l2.656 2.657a1.83 1.83 0 0 1 1.899.436 1.837 1.837 0 0 1 0 2.597 1.84 1.84 0 0 1-2.599 0 1.84 1.84 0 0 1-.4-1.998l-2.478-2.477v6.521a1.837 1.837 0 0 1 .485 2.945 1.837 1.837 0 0 1-2.597 0 1.837 1.837 0 0 1 0-2.598 1.8 1.8 0 0 1 .602-.401V8.85a1.8 1.8 0 0 1-.602-.4 1.84 1.84 0 0 1-.395-2.009L7.628 3.723.452 10.898a1.544 1.544 0 0 0 0 2.184l10.467 10.467a1.544 1.544 0 0 0 2.183 0l10.417-10.418a1.546 1.546 0 0 0 0-2.184"/>
</svg>
