<svg enable-background="new 0 0 24 24" viewBox="0 0 24 24" xmlns="http://www.w3.org/2000/svg"><path d="m12 2c-5.523 0-10 4.477-10 10s4.477 10 10 10 10-4.477 10-10-4.477-10-10-10zm-1.919 14.05c-2.236 0-4.05-1.814-4.05-4.05s1.814-4.05 4.05-4.05c1.094 0 2.009.401 2.709 1.057l-1.15 1.118c-.292-.275-.802-.599-1.559-.599-1.341 0-2.434 1.114-2.434 2.479s1.094 2.479 2.434 2.479c1.551 0 2.122-1.073 2.227-1.709h-2.232v-.004-1.507h3.791c.057.255.101.494.101.83.001 2.312-1.55 3.956-3.887 3.956zm8.919-3.3h-1.25v1.25h-1.5v-1.25h-1.25v-1.5h1.25v-1.25h1.5v1.25h1.25z"/></svg>