<svg enable-background="new 0 0 24 24" viewBox="0 0 24 24" xmlns="http://www.w3.org/2000/svg"><path d="m12 4.622c2.403 0 2.688.009 3.637.052.877.04 1.354.187 1.671.31.42.163.72.358 1.035.673s.51.615.673 1.035c.123.317.27.794.31 1.671.043.949.052 1.234.052 3.637s-.009 2.688-.052 3.637c-.04.877-.187 1.354-.31 1.671-.163.42-.358.72-.673 1.035s-.615.51-1.035.673c-.317.123-.794.27-1.671.31-.949.043-1.233.052-3.637.052s-2.688-.009-3.637-.052c-.877-.04-1.354-.187-1.671-.31-.42-.163-.72-.358-1.035-.673s-.51-.615-.673-1.035c-.123-.317-.27-.794-.31-1.671-.043-.949-.052-1.234-.052-3.637s.009-2.688.052-3.637c.04-.877.187-1.354.31-1.671.163-.42.358-.72.673-1.035s.615-.51 1.035-.673c.317-.123.794-.27 1.671-.31.949-.043 1.234-.052 3.637-.052m0-1.622c-2.444 0-2.751.01-3.711.054-.958.044-1.612.196-2.184.418-.592.23-1.094.538-1.594 1.039-.5.5-.808 1.002-1.038 1.594-.223.572-.375 1.226-.419 2.184-.044.96-.054 1.267-.054 3.711s.01 2.751.054 3.711c.044.958.196 1.612.418 2.185.23.592.538 1.094 1.038 1.594s1.002.808 1.594 1.038c.572.222 1.227.375 2.185.418.96.044 1.267.054 3.711.054s2.751-.01 3.711-.054c.958-.044 1.612-.196 2.185-.418.592-.23 1.094-.538 1.594-1.038s.808-1.002 1.038-1.594c.222-.572.375-1.227.418-2.185.044-.96.054-1.267.054-3.711s-.01-2.751-.054-3.711c-.044-.958-.196-1.612-.418-2.185-.23-.592-.538-1.094-1.038-1.594s-1.002-.808-1.594-1.038c-.572-.222-1.227-.375-2.185-.418-.96-.044-1.267-.054-3.711-.054zm0 4.378c-2.552 0-4.622 2.069-4.622 4.622s2.07 4.622 4.622 4.622 4.622-2.069 4.622-4.622-2.07-4.622-4.622-4.622zm0 7.622c-1.657 0-3-1.343-3-3s1.343-3 3-3 3 1.343 3 3-1.343 3-3 3zm4.804-8.884c-.596 0-1.08.484-1.08 1.08s.484 1.08 1.08 1.08 1.08-.484 1.08-1.08-.483-1.08-1.08-1.08z"/></svg>