<?xml version="1.0" encoding="iso-8859-1"?>
<!-- Generator: Adobe Illustrator 23.0.4, SVG Export Plug-In . SVG Version: 6.00 Build 0)  -->
<svg version="1.1" xmlns="http://www.w3.org/2000/svg" xmlns:xlink="http://www.w3.org/1999/xlink" x="0px" y="0px"
	 viewBox="0 0 24 24" style="enable-background:new 0 0 24 24;" xml:space="preserve">
	<path id="transmitter" style="fill-rule:evenodd;clip-rule:evenodd;" d="M8.522,17.424l0.027,0.027
		c1.076-1.076,1.854-0.993,3.154,0.306l2.053,2.053c2.136,2.136,4.131,2.028,6.515-0.356L21,18.726l-1.548-1.548l-0.373,0.373
		c-1.349,1.349-2.293,1.366-3.585,0.075l-2.409-2.409c-1.242-1.242-2.475-1.366-3.659-0.381l-0.232-0.232
		c1.01-1.225,0.911-2.368-0.29-3.568L6.744,8.874C5.427,7.557,5.436,6.638,6.802,5.272L7.174,4.9l-1.54-1.54L4.906,4.089
		c-2.393,2.393-2.525,4.346-0.439,6.433l1.78,1.78c1.3,1.3,1.383,2.095,0.315,3.163l0.008,0.008
		c-0.476,0.543-0.455,1.371,0.063,1.889C7.151,17.879,7.978,17.9,8.522,17.424z"/>
	<circle id="Oval-1" style="fill-rule:evenodd;clip-rule:evenodd;" cx="13.089" cy="10.905" r="1.383"/>
	<circle id="Oval-2" style="fill-rule:evenodd;clip-rule:evenodd;" cx="16.349" cy="7.644" r="1.383"/>
	<circle id="Oval-3" style="fill-rule:evenodd;clip-rule:evenodd;" cx="19.61" cy="4.383" r="1.383"/>
</svg>