<svg enable-background="new 0 0 24 24" viewBox="0 0 24 24" xmlns="http://www.w3.org/2000/svg"><g clip-rule="evenodd" fill-rule="evenodd"><path d="m8.522 17.424.027.027c1.076-1.076 1.854-.993 3.154.306l2.053 2.053c2.136 2.136 4.131 2.028 6.515-.356l.729-.728-1.548-1.548-.373.373c-1.349 1.349-2.293 1.366-3.585.075l-2.409-2.409c-1.242-1.242-2.475-1.366-3.659-.381l-.232-.232c1.01-1.225.911-2.368-.29-3.568l-2.16-2.162c-1.317-1.317-1.308-2.236.058-3.602l.372-.372-1.54-1.54-.728.729c-2.393 2.393-2.525 4.346-.439 6.433l1.78 1.78c1.3 1.3 1.383 2.095.315 3.163l.008.008c-.476.543-.455 1.371.063 1.889.518.517 1.345.538 1.889.062z"/><circle cx="13.089" cy="10.905" r="1.383"/><circle cx="16.349" cy="7.644" r="1.383"/><circle cx="19.61" cy="4.383" r="1.383"/></g></svg>