<svg xmlns="http://www.w3.org/2000/svg" viewBox="0 0 24 24" width="24" height="24">
	<path d="M14.255 9.572v3.333c0 .084-.066.15-.15.15h-.534a.16.16 0 0 1-.122-.061l-1.528-2.063v1.978c0 .084-.066.15-.15.15h-.534a.15.15 0 0 1-.15-.15V9.576c0-.084.066-.15.15-.15h.529a.14.14 0 0 1 .122.066l1.528 2.063V9.577c0-.084.066-.15.15-.15h.534a.15.15 0 0 1 .155.145m-3.844-.15h-.534a.15.15 0 0 0-.15.15v3.333c0 .084.066.15.15.15h.534c.084 0 .15-.066.15-.15V9.572c0-.08-.066-.15-.15-.15m-1.289 2.794H7.664V9.572a.15.15 0 0 0-.15-.15H6.98a.15.15 0 0 0-.15.15v3.333q0 .062.042.103a.16.16 0 0 0 .103.042h2.142c.084 0 .15-.066.15-.15v-.534a.15.15 0 0 0-.145-.15m7.945-2.794h-2.142c-.08 0-.15.066-.15.15v3.333c0 .08.066.15.15.15h2.142c.084 0 .15-.066.15-.15v-.534a.15.15 0 0 0-.15-.15h-1.458v-.563h1.458c.084 0 .15-.066.15-.15v-.539a.15.15 0 0 0-.15-.15h-1.458v-.563h1.458c.084 0 .15-.066.15-.15v-.534c-.005-.08-.07-.15-.15-.15M22.5 5.33v13.373c-.005 2.1-1.725 3.802-3.83 3.797H5.297c-2.1-.005-3.802-1.73-3.797-3.83V5.297c.005-2.1 1.73-3.802 3.83-3.797h13.373c2.1.005 3.802 1.725 3.797 3.83m-2.888 5.747c0-3.422-3.431-6.206-7.645-6.206s-7.645 2.784-7.645 6.206c0 3.066 2.719 5.634 6.394 6.122.895.192.792.52.591 1.725-.033.192-.155.755.661.413s4.402-2.592 6.009-4.439c1.106-1.219 1.636-2.452 1.636-3.82"/>
</svg>
