<svg enable-background="new 0 0 24 24" viewBox="0 0 24 24" xmlns="http://www.w3.org/2000/svg"><path d="m19.7 3h-15.4c-.718 0-1.3.582-1.3 1.3v15.4c0 .718.582 1.3 1.3 1.3h15.4c.718 0 1.3-.582 1.3-1.3v-15.4c0-.718-.582-1.3-1.3-1.3zm-11.361 15.338h-2.672v-8.59h2.672zm-1.335-9.764c-.857 0-1.549-.694-1.549-1.548 0-.855.691-1.548 1.549-1.548.854 0 1.547.694 1.547 1.548 0 .855-.693 1.548-1.547 1.548zm11.335 9.764h-2.669v-4.177c0-.996-.017-2.278-1.387-2.278-1.389 0-1.601 1.086-1.601 2.206v4.249h-2.667v-8.59h2.559v1.174h.037c.356-.675 1.227-1.387 2.526-1.387 2.703 0 3.203 1.779 3.203 4.092v4.711z"/></svg>