<?xml version="1.0" encoding="UTF-8"?>
<svg version="1.1" xmlns="http://www.w3.org/2000/svg" xmlns:xlink="http://www.w3.org/1999/xlink" x="0px" y="0px"
	 viewBox="0 0 24 24" style="enable-background:new 0 0 24 24;" xml:space="preserve"><g id="mastodon">
	<path id="path2" style="display:inline;fill:#000000" d="M 11.972656 2.3515625 C 9.5046587 2.3725625 7.1310455 2.6384381 5.7480469 3.2734375 C 5.7480469 3.2734375 3.0058594 4.5015042 3.0058594 8.6875 C 3.0058594 9.646499 2.9875782 10.792814 3.0175781 12.007812 C 3.117578 16.101808 3.7677382 20.13572 7.5527344 21.136719 C 9.2977326 21.598718 10.796907 21.696859 12.003906 21.630859 C 14.192904 21.508859 15.419922 20.849609 15.419922 20.849609 L 15.347656 19.261719 C 15.347656 19.261719 13.783342 19.753359 12.027344 19.693359 C 10.287345 19.633359 8.4519216 19.505138 8.1699219 17.369141 C 8.1439219 17.181141 8.1308594 16.982484 8.1308594 16.771484 C 8.1308594 16.771484 9.8389084 17.187109 12.003906 17.287109 C 13.327905 17.347109 14.567126 17.210547 15.828125 17.060547 C 18.246123 16.771547 20.352188 15.280921 20.617188 13.919922 C 21.034187 11.775924 20.998047 8.6875 20.998047 8.6875 C 20.998047 4.5015042 18.257812 3.2734375 18.257812 3.2734375 C 16.874814 2.6384381 14.498248 2.3725625 12.03125 2.3515625 L 11.972656 2.3515625 z M 9.1796875 5.6210938 C 10.207686 5.6210938 10.984047 6.0166414 11.498047 6.8066406 L 12 7.6464844 L 12.5 6.8066406 C 13.013999 6.0166414 13.792314 5.6210937 14.820312 5.6210938 C 15.708312 5.6210938 16.424704 5.9339694 16.970703 6.5429688 C 17.500703 7.1519681 17.763672 7.9767198 17.763672 9.0117188 L 17.763672 14.080078 L 15.755859 14.080078 L 15.755859 9.1601562 C 15.755859 8.1231573 15.318312 7.5976563 14.445312 7.5976562 C 13.480313 7.5976562 12.998047 8.2200794 12.998047 9.4550781 L 12.998047 12.148438 L 11.001953 12.148438 L 11.001953 9.4550781 C 11.001953 8.2200794 10.517733 7.5976563 9.5527344 7.5976562 C 8.6797352 7.5976562 8.2441406 8.1231573 8.2441406 9.1601562 L 8.2441406 14.080078 L 6.2363281 14.080078 L 6.2363281 9.0117188 C 6.2363281 7.9767198 6.4992974 7.1519681 7.0292969 6.5429688 C 7.5762963 5.9339694 8.2916884 5.6210938 9.1796875 5.6210938 z " />
</g>
</svg>
