<svg enable-background="new 0 0 24 24" viewBox="0 0 24 24" xmlns="http://www.w3.org/2000/svg"><path d="m11.972656 2.3515625c-2.4679973.021-4.8416105.2868756-6.2246091.921875 0 0-2.7421875 1.2280667-2.7421875 5.4140625 0 .958999-.0182812 2.105314.0117187 3.320312.0999999 4.093996.7501601 8.127908 4.5351563 9.128907 1.7449982.461999 3.2441726.56014 4.4511716.49414 2.188998-.122 3.416016-.78125 3.416016-.78125l-.072266-1.58789s-1.564314.49164-3.320312.43164c-1.739999-.06-3.5754224-.188221-3.8574221-2.324218-.026-.188-.0390625-.386657-.0390625-.597657 0 0 1.708049.415625 3.8730466.515625 1.323999.06 2.56322-.076562 3.824219-.226562 2.417998-.289 4.524063-1.779626 4.789063-3.140625.416999-2.143998.380859-5.232422.380859-5.232422 0-4.1859958-2.740235-5.4140625-2.740235-5.4140625-1.382998-.6349994-3.759564-.900875-6.226562-.921875zm-2.7929685 3.2695313c1.0279985 0 1.8043595.3955476 2.3183595 1.1855468l.501953.8398438.5-.8398438c.513999-.7899992 1.292314-1.1855469 2.320312-1.1855468.888 0 1.604392.3128756 2.150391.921875.53.6089993.792969 1.433751.792969 2.46875v5.0683592h-2.007813v-4.9199218c0-1.0369989-.437547-1.5624999-1.310547-1.5625-.964999 0-1.447265.6224232-1.447265 1.8574219v2.6933599h-1.996094v-2.6933599c0-1.2349987-.48422-1.8574218-1.4492186-1.8574219-.8729992 0-1.3085938.5255011-1.3085938 1.5625v4.9199218h-2.0078125v-5.0683592c0-1.034999.2629693-1.8597507.7929688-2.46875.5469994-.6089994 1.2623915-.921875 2.1503906-.921875z"/></svg>