<svg fill="none" height="24" viewBox="0 0 24 24" width="24" xmlns="http://www.w3.org/2000/svg"><path d="m3 3v18h18v-18zm15 4.26-1 .93c-.0414.03056-.0735.07193-.0929.11955-.0194.04763-.0253.09968-.0171.15045v6.8c-.0094.0508-.0041.1033.0154.1511.0195.0479.0523.0891.0946.1189l.94.93v.2h-4.75v-.2l1-1c.09-.1.09-.12.09-.27v-5.45l-2.71 6.9h-.37l-3.2-6.9v4.62c-.01279.097-.0042.1955.02516.2888.02937.0933.07881.1791.14484.2512l1.27 1.54v.2h-3.58v-.2l1.27-1.54c.06785-.0709.11848-.1565.14796-.2502.02947-.0936.03702-.1928.02204-.2898v-5.36c.00483-.07438-.00703-.14891-.03471-.21812s-.07049-.13135-.12529-.18188l-1.14-1.34v-.2h3.52l2.71 5.94 2.38-5.94h3.39z" fill="#000"/></svg>