<svg height="24" viewBox="0 0 24 24" width="24" xmlns="http://www.w3.org/2000/svg"><path d="m7.42273124 6c3.27104436 0 5.92253006 2.68644025 5.92253006 6.0001012 0 3.313661-2.6516869 5.9998988-5.92253006 5.9998988-3.27084312 0-5.92273124-2.6868452-5.92273124-5.9998988 0-3.31305357 2.6516869-6.0001012 5.92273124-6.0001012zm9.45817966.35147036c1.6355221 0 2.9613656 2.528724 2.9613656 5.64863084h.0002012c0 3.1190971-1.3258435 5.6486309-2.9613656 5.6486309-1.6355222 0-2.9613656-2.5295338-2.9613656-5.6486309 0-3.119097 1.3256422-5.64863084 2.9611644-5.64863084zm4.5775706.58834844c.5750888 0 1.0415185 2.26552614 1.0415185 5.0602824 0 2.7939465-.4662285 5.0602825-1.0415185 5.0602825-.5752901 0-1.0413174-2.2657286-1.0413174-5.0602825 0-2.7945538.4662285-5.0602824 1.0413174-5.0602824z"/></svg>