<?xml version="1.0" encoding="UTF-8"?>
<svg width="24px" height="24px" viewBox="0 0 24 24" version="1.1" xmlns="http://www.w3.org/2000/svg" xmlns:xlink="http://www.w3.org/1999/xlink">
    <title>medium-alt</title>
    <g id="medium-alt" stroke="none" stroke-width="1" fill="none" fill-rule="evenodd">
        <path d="M7.42273124,6 C10.6937756,6 13.3452613,8.68644025 13.3452613,12.0001012 C13.3452613,15.3137622 10.6935744,18 7.42273124,18 C4.15188812,18 1.5,15.3131548 1.5,12.0001012 C1.5,8.68704763 4.1516869,6 7.42273124,6 Z M16.8809109,6.35147036 C18.516433,6.35147036 19.8422765,8.88019436 19.8422765,12.0001012 L19.8424777,12.0001012 C19.8424777,15.1191983 18.5166342,17.6487321 16.8811121,17.6487321 C15.2455899,17.6487321 13.9197465,15.1191983 13.9197465,12.0001012 C13.9197465,8.8810042 15.2453887,6.35147036 16.8809109,6.35147036 Z M21.4584815,6.9398188 C22.0335703,6.9398188 22.5,9.20534494 22.5,12.0001012 C22.5,14.7940477 22.0337715,17.0603837 21.4584815,17.0603837 C20.8831914,17.0603837 20.4171641,14.7946551 20.4171641,12.0001012 C20.4171641,9.2055474 20.8833926,6.9398188 21.4584815,6.9398188 Z" id="medium" fill="#000000" fill-rule="nonzero"></path>
    </g>
</svg>