<svg xmlns="http://www.w3.org/2000/svg" viewBox="0 0 24 24" width="24" height="24">
	<path d="M12.026.375C5.462.375.375 5.172.375 11.652c0 3.389 1.393 6.318 3.66 8.341.391.352.311.556.377 2.73a.934.934 0 0 0 1.307.823c2.48-1.092 2.512-1.178 2.933-1.064 7.185 1.977 14.973-2.621 14.973-10.83 0-6.48-5.035-11.277-11.599-11.277m6.996 8.678L15.6 14.47a1.75 1.75 0 0 1-2.527.465l-2.723-2.038a.7.7 0 0 0-.844 0l-3.674 2.786c-.49.372-1.133-.216-.802-.735l3.422-5.417a1.75 1.75 0 0 1 2.527-.465l2.722 2.037a.7.7 0 0 0 .844 0L18.22 8.32c.489-.374 1.132.213.801.732"/>
</svg>
