<svg enable-background="new 0 0 24 24" viewBox="0 0 24 24" xmlns="http://www.w3.org/2000/svg"><path d="m19.641 17.086c1.294-1.522 2.067-3.438 2.067-5.521 0-4.957-4.371-8.972-9.763-8.972s-9.763 4.015-9.763 8.972 4.371 8.972 9.763 8.972c1.187.002 2.366-.197 3.486-.59.13-.045.275.001.356.112.816 1.101 2.09 1.876 3.506 2.191.105.022.207-.046.229-.15.012-.056-.002-.114-.037-.159-1.117-1.449-1.049-3.487.162-4.858zm-3.065-6.575-2.514 1.909.912 3.022c.046.151-.04.31-.191.356-.084.025-.174.011-.246-.039l-2.592-1.802-2.592 1.802c-.129.09-.307.058-.397-.071-.05-.072-.064-.162-.039-.246l.912-3.022-2.515-1.909c-.126-.095-.15-.275-.055-.4.053-.07.135-.111.222-.113l3.155-.066 1.038-2.981c.052-.149.215-.227.364-.175.082.029.147.093.175.175l1.038 2.981 3.155.066c.158.001.284.13.283.288-.001.088-.043.171-.113.225z"/></svg>