<?xml version="1.0" encoding="iso-8859-1"?>
<!-- Generator: Adobe Illustrator 23.0.4, SVG Export Plug-In . SVG Version: 6.00 Build 0)  -->
<svg version="1.1" xmlns="http://www.w3.org/2000/svg" xmlns:xlink="http://www.w3.org/1999/xlink" x="0px" y="0px"
	 viewBox="0 0 24 24" style="enable-background:new 0 0 24 24;" xml:space="preserve">
<g id="Artwork">
	<g id="Layer_1_1_">
	</g>
	<g id="Layer_1_2_">
	</g>
	<path d="M19.641,17.086c1.294-1.522,2.067-3.438,2.067-5.521c0-4.957-4.371-8.972-9.763-8.972s-9.763,4.015-9.763,8.972
		s4.371,8.972,9.763,8.972c1.187,0.002,2.366-0.197,3.486-0.59c0.13-0.045,0.275,0.001,0.356,0.112
		c0.816,1.101,2.09,1.876,3.506,2.191c0.105,0.022,0.207-0.046,0.229-0.15c0.012-0.056-0.002-0.114-0.037-0.159
		c-1.117-1.449-1.049-3.487,0.162-4.858L19.641,17.086z M16.576,10.511l-2.514,1.909l0.912,3.022c0.046,0.151-0.04,0.31-0.191,0.356
		c-0.084,0.025-0.174,0.011-0.246-0.039l-2.592-1.802l-2.592,1.802c-0.129,0.09-0.307,0.058-0.397-0.071
		c-0.05-0.072-0.064-0.162-0.039-0.246l0.912-3.022l-2.515-1.909c-0.126-0.095-0.15-0.275-0.055-0.4
		C7.312,10.041,7.394,10,7.481,9.998l3.155-0.066l1.038-2.981c0.052-0.149,0.215-0.227,0.364-0.175
		c0.082,0.029,0.147,0.093,0.175,0.175l1.038,2.981l3.155,0.066c0.158,0.001,0.284,0.13,0.283,0.288
		C16.688,10.374,16.646,10.457,16.576,10.511z"/>
</g>
<g id="Layer_1">
</g>
</svg>
