<svg clip-rule="evenodd" stroke-linecap="round" stroke-linejoin="round" stroke-miterlimit="10" viewBox="0 0 130 130" xmlns="http://www.w3.org/2000/svg"><path d="m64.25 3.53125c-31.1441.33639-57.59617 24.21945-60.46875 55.90625-3.064084 33.7993 21.85695 63.6855 55.65625 66.7505 33.7993 3.064 63.6855-21.857 66.7505-55.6568 3.064-33.7993-21.857-63.68587-55.6568-66.74995-2.1124-.1915-4.2049-.27243-6.2812-.25zm3.9375 34.90625c14.28 0 25.3125 10.1425 25.3125 23.0625v27c0 .6848-.5652 1.25-1.25 1.25h-11.3438c-.6825-.0054-1.2445-.5674-1.25-1.25v-25.125c0-5.58-4.3087-11.9375-11.4687-11.9375-7.47 0-11.4687 6.3575-11.4687 11.9375v25.125c-.0001.6848-.5652 1.25-1.25 1.25h-11.3438c-.6793 0-1.2188-.5707-1.2188-1.25v-24.3438c.0006-.7399-.5292-1.3637-1.25-1.5312-13.13-2.93-15.115-10.285-15.375-21.125-.0053-.3323.1419-.6694.375-.9062.2332-.2369.5427-.3751.875-.375l11.6876.0624c.6598.0099 1.1871.5284 1.2187 1.1876.13 4.4399.4375 9.4062 4.4375 9.4062.83 0 1.4425-1.1787 1.8125-1.7188 4.41-6.48 12.28-10.7187 21.5-10.7187z"/></svg>