<svg enable-background="new 0 0 24 24" viewBox="0 0 24 24" xmlns="http://www.w3.org/2000/svg"><path d="m21.927 4.194c-.26-.714-.945-1.194-1.705-1.194h-.01-1.721-14.652c-.747 0-1.428.47-1.694 1.17-.079.208-.119.424-.119.644v6.035l.069 1.2c.29 2.73 1.707 5.115 3.899 6.778.039.03.079.059.119.089l.025.018c1.175.859 2.491 1.441 3.91 1.727.655.132 1.325.2 1.991.2.615 0 1.232-.057 1.839-.17.073-.014.145-.028.219-.044.02-.004.042-.012.064-.023 1.359-.297 2.621-.864 3.753-1.691l.025-.018c.04-.029.08-.058.119-.089 2.192-1.664 3.609-4.049 3.898-6.778l.069-1.2v-6.034c.001-.209-.025-.416-.098-.62zm-4.235 6.287-4.704 4.512c-.266.254-.608.382-.949.382-.342 0-.684-.128-.949-.382l-4.705-4.512c-.547-.524-.565-1.392-.041-1.939s1.392-.565 1.939-.04l3.756 3.601 3.755-3.601c.547-.524 1.415-.506 1.939.04.523.547.505 1.414-.041 1.939z"/></svg>