<svg enable-background="new 0 0 24 24" viewBox="0 0 24 24" xmlns="http://www.w3.org/2000/svg"><path d="m12 2c-5.513 0-10 4.487-10 10 0 5.514 4.487 10 10 10 5.514 0 10-4.486 10-10 0-5.513-4.486-10-10-10zm.991 1.68c2.361.084 4.657 1.251 6.197 3.136.283.334.541.693.774 1.067-1.427-1.791-3.627-2.94-6.094-2.94-2.357 0-4.467 1.047-5.896 2.703-.006.003-.01.01-.016.014-.05.053-.1.106-.152.159-.01.011-.02.021-.031.032-1.012 1.096-1.633 2.559-1.633 4.165 0 3.387 2.756 6.143 6.143 6.143.57 0 1.123-.081 1.649-.227-1.849.839-4.131.747-5.926-.324-1.841-1.089-3.171-3.111-3.433-5.313-.294-2.205.483-4.548 2.117-6.158 1.604-1.637 3.944-2.574 6.301-2.457zm3.373 8.519c-.049-2.024-1.587-3.889-3.544-4.174-1.927-.343-3.917.857-4.451 2.661-.271.883-.19 1.847.2 2.653.39.8 1.067 1.451 1.894 1.759 1.664.654 3.63-.27 4.173-1.863.593-1.58-.396-3.423-1.94-3.776-1.52-.407-3.161.757-3.204 2.243-.051.716.253 1.421.753 1.879.501.476 1.23.667 1.871.529.646-.127 1.2-.557 1.469-1.134.27-.576.219-1.256-.087-1.767-.297-.513-.859-.863-1.429-.881-.571-.029-1.12.246-1.437.679-.326.436-.38 1.026-.18 1.489.004.011.01.021.016.03.193.634.774 1.1 1.467 1.117-.329.039-.674-.019-.97-.183-.466-.244-.809-.747-.893-1.29-.083-.544.09-1.137.499-1.539.399-.413.989-.651 1.58-.606.593.04 1.159.35 1.517.859.364.496.51 1.156.383 1.773-.116.62-.529 1.174-1.093 1.514-.557.34-1.264.454-1.914.286-.65-.161-1.226-.606-1.584-1.206-.36-.595-.49-1.338-.341-2.031.143-.7.573-1.321 1.176-1.753 1.193-.883 3.056-.751 4.106.411 1.106 1.1 1.327 3.027.406 4.371-.877 1.376-2.74 2.086-4.374 1.594-1.639-.449-2.913-2.079-3.031-3.853-.07-.884.13-1.797.583-2.577.445-.777 1.155-1.432 1.972-1.862 1.64-.88 3.816-.743 5.349.424 1.251.924 2.083 2.42 2.236 4.009 0 .011.001.021.001.03 0 2.9-2.359 5.26-5.26 5.26-.687 0-1.344-.134-1.947-.376.866.207 1.777.176 2.613-.079 1.006-.304 1.894-.927 2.514-1.751.618-.828.95-1.861.901-2.869zm-4.364 8.914c-5.024 0-9.111-4.087-9.111-9.113 0-4.789 3.713-8.723 8.411-9.081-.133.016-.266.036-.397.06-2.644.453-5.017 2.106-6.32 4.409-1.309 2.301-1.391 5.19-.3 7.527 1.056 2.34 3.253 4.156 5.776 4.553 2.497.44 5.133-.483 6.787-2.301 1.719-1.797 2.269-4.529 1.486-6.796-.583-1.81-1.976-3.331-3.7-4.046 3.417.594 6.174 3.221 6.174 6.781 0 1.004-.241 2.02-.657 2.966-1.498 2.984-4.586 5.041-8.149 5.041z"/></svg>