<?xml version="1.0" encoding="iso-8859-1"?>
<!-- Generator: Adobe Illustrator 19.2.1, SVG Export Plug-In . SVG Version: 6.00 Build 0)  -->
<svg version="1.1" xmlns="http://www.w3.org/2000/svg" xmlns:xlink="http://www.w3.org/1999/xlink" x="0px" y="0px"
	 viewBox="0 0 24 24" style="enable-background:new 0 0 24 24;" xml:space="preserve">
<g id="polldaddy">
	<path d="M12,2C6.487,2,2,6.487,2,12c0,5.514,4.487,10,10,10c5.514,0,10-4.486,10-10C22,6.487,17.514,2,12,2z M12.991,3.68
		c2.361,0.084,4.657,1.251,6.197,3.136c0.283,0.334,0.541,0.693,0.774,1.067c-1.427-1.791-3.627-2.94-6.094-2.94
		c-2.357,0-4.467,1.047-5.896,2.703c-0.006,0.003-0.01,0.01-0.016,0.014C7.906,7.713,7.856,7.766,7.804,7.819
		C7.794,7.83,7.784,7.84,7.773,7.851C6.761,8.947,6.14,10.41,6.14,12.016c0,3.387,2.756,6.143,6.143,6.143
		c0.57,0,1.123-0.081,1.649-0.227c-1.849,0.839-4.131,0.747-5.926-0.324c-1.841-1.089-3.171-3.111-3.433-5.313
		C4.279,10.09,5.056,7.747,6.69,6.137C8.294,4.5,10.634,3.563,12.991,3.68z M16.364,12.199c-0.049-2.024-1.587-3.889-3.544-4.174
		c-1.927-0.343-3.917,0.857-4.451,2.661c-0.271,0.883-0.19,1.847,0.2,2.653c0.39,0.8,1.067,1.451,1.894,1.759
		c1.664,0.654,3.63-0.27,4.173-1.863c0.593-1.58-0.396-3.423-1.94-3.776c-1.52-0.407-3.161,0.757-3.204,2.243
		c-0.051,0.716,0.253,1.421,0.753,1.879c0.501,0.476,1.23,0.667,1.871,0.529c0.646-0.127,1.2-0.557,1.469-1.134
		c0.27-0.576,0.219-1.256-0.087-1.767c-0.297-0.513-0.859-0.863-1.429-0.881c-0.571-0.029-1.12,0.246-1.437,0.679
		c-0.326,0.436-0.38,1.026-0.18,1.489c0.004,0.011,0.01,0.021,0.016,0.03c0.193,0.634,0.774,1.1,1.467,1.117
		c-0.329,0.039-0.674-0.019-0.97-0.183c-0.466-0.244-0.809-0.747-0.893-1.29c-0.083-0.544,0.09-1.137,0.499-1.539
		c0.399-0.413,0.989-0.651,1.58-0.606c0.593,0.04,1.159,0.35,1.517,0.859c0.364,0.496,0.51,1.156,0.383,1.773
		c-0.116,0.62-0.529,1.174-1.093,1.514c-0.557,0.34-1.264,0.454-1.914,0.286c-0.65-0.161-1.226-0.606-1.584-1.206
		C9.1,12.656,8.97,11.913,9.119,11.22c0.143-0.7,0.573-1.321,1.176-1.753c1.193-0.883,3.056-0.751,4.106,0.411
		c1.106,1.1,1.327,3.027,0.406,4.371c-0.877,1.376-2.74,2.086-4.374,1.594c-1.639-0.449-2.913-2.079-3.031-3.853
		c-0.07-0.884,0.13-1.797,0.583-2.577C8.43,8.636,9.14,7.981,9.957,7.551c1.64-0.88,3.816-0.743,5.349,0.424
		c1.251,0.924,2.083,2.42,2.236,4.009c0,0.011,0.001,0.021,0.001,0.03c0,2.9-2.359,5.26-5.26,5.26c-0.687,0-1.344-0.134-1.947-0.376
		c0.866,0.207,1.777,0.176,2.613-0.079c1.006-0.304,1.894-0.927,2.514-1.751C16.081,14.24,16.413,13.207,16.364,12.199z M12,21.113
		c-5.024,0-9.111-4.087-9.111-9.113c0-4.789,3.713-8.723,8.411-9.081c-0.133,0.016-0.266,0.036-0.397,0.06
		c-2.644,0.453-5.017,2.106-6.32,4.409c-1.309,2.301-1.391,5.19-0.3,7.527c1.056,2.34,3.253,4.156,5.776,4.553
		c2.497,0.44,5.133-0.483,6.787-2.301c1.719-1.797,2.269-4.529,1.486-6.796c-0.583-1.81-1.976-3.331-3.7-4.046
		c3.417,0.594,6.174,3.221,6.174,6.781c0,1.004-0.241,2.02-0.657,2.966C18.651,19.056,15.563,21.113,12,21.113z"/>
</g>
<g id="Layer_1">
</g>
</svg>
