<svg xmlns="http://www.w3.org/2000/svg" viewBox="0 0 24 24">
	<path d="M47.736 16.521c-.41-.81-.898-1.631-1.846-1.631a1 1 0 0 0-.527.107l-.322-.644a2.93 2.93 0 0 1 1.836-.595c1.26 0 1.914.605 2.431 1.397a6.8 6.8 0 0 0 .449-2.675c0-2.773-.869-4.199-2.929-4.199-1.992 0-2.851 1.465-2.851 4.199s.859 4.17 2.851 4.17a4 4 0 0 0 .869-.107zm.498.966a6 6 0 0 1-1.367.185 5.27 5.27 0 0 1-5.263-5.204c0-3.114 2.558-5.233 5.263-5.233s5.282 2.109 5.282 5.233a5.08 5.08 0 0 1-1.992 4.072c.381.566.781.956 1.319.956.595 0 .839-.459.878-.82h.781c.049.488-.195 2.48-2.373 2.48-1.319 0-2.012-.761-2.529-1.66zm5.624-2.646v-3.563c0-.371-.146-.586-.615-.586h-.498v-.956h3.251v5.048c0 .849.459 1.231 1.161 1.231a1.56 1.56 0 0 0 1.465-.839V11.28c0-.371-.146-.586-.615-.586h-.527v-.957h3.28v5.302c0 .527.195.732.8.732h.107v.976l-2.929.468V16.21h-.057a3.12 3.12 0 0 1-2.509 1.152c-1.28 0-2.304-.644-2.304-2.558zm12.059 1.611c1.152 0 1.592-1.005 1.611-3.027.02-1.982-.459-2.929-1.611-2.929-1.005 0-1.641.956-1.641 2.929 0 2.021.625 3.027 1.641 3.027m0 .956a3.906 3.906 0 0 1-3.974-3.974c0-2.334 1.836-3.886 3.974-3.886 2.226 0 4.004 1.582 4.004 3.886a3.867 3.867 0 0 1-4.004 3.974m4.072-.146v-.956h.312c.781 0 .859-.224.859-.908v-4.121c0-.371-.215-.586-.732-.586h-.42v-.955h2.968l.146 1.553h.108c.371-1.113 1.221-1.699 2.051-1.699.693 0 1.221.39 1.221 1.181 0 .547-.264 1.093-1.005 1.093-.664 0-.8-.449-1.358-.449-.488 0-.869.468-.869 1.152v2.783c0 .673.166.908.937.908h.439v.956h-4.658zm9.901-1.093c.956 0 1.338-.898 1.338-1.797v-1.211c-.732.722-2.304.742-2.304 2.021 0 .625.371.986.966.986m1.387 0c-.39.752-1.191 1.26-2.314 1.26-1.309 0-2.148-.732-2.148-1.914 0-2.451 3.417-1.797 4.423-3.427v-.185c0-1.25-.488-1.445-1.035-1.445-1.524 0-.83 1.631-2.226 1.631-.673 0-.937-.371-.937-.859 0-.927 1.093-1.67 3.173-1.67 1.963 0 3.163.537 3.163 2.49v3.114q-.02.742.595.742a1 1 0 0 0 .449-.127l.254.615c-.205.312-.752.869-1.836.869-.908 0-1.465-.42-1.543-1.113h-.01zm-68.554 2.558c-.83-1.641-1.807-3.3-3.711-3.3a2.9 2.9 0 0 0-1.093.215l-.644-1.299a5.66 5.66 0 0 1 3.662-1.211c2.548 0 3.857 1.231 4.892 2.792q.917-2.012.908-5.38c0-5.585-1.748-8.417-5.829-8.417-4.033 0-5.76 2.87-5.76 8.417s1.738 8.397 5.76 8.397a5.9 5.9 0 0 0 1.748-.224zm.996 1.953a9.8 9.8 0 0 1-2.744.371C5.614 21.041.371 16.764.371 10.545.371 4.277 5.614 0 10.965 0c5.448 0 10.642 4.248 10.642 10.545a10.25 10.25 0 0 1-4.013 8.201c.732 1.152 1.563 1.914 2.665 1.914 1.201 0 1.689-.927 1.768-1.66h1.572c.088.966-.4 4.999-4.775 4.999-2.646 0-4.052-1.543-5.106-3.339z"/>
</svg>
