<svg enable-background="new 0 0 24 24" viewBox="0 0 24 24" xmlns="http://www.w3.org/2000/svg"><path d="m22 11.816c0-1.256-1.021-2.277-2.277-2.277-.593 0-1.122.24-1.526.614-1.481-.965-3.455-1.594-5.647-1.69l1.171-3.702 3.18.748c.008 1.028.846 1.862 1.876 1.862 1.035 0 1.877-.842 1.877-1.878 0-1.035-.842-1.877-1.877-1.877-.769 0-1.431.466-1.72 1.13l-3.508-.826c-.203-.047-.399.067-.46.261l-1.35 4.268c-2.316.038-4.411.67-5.97 1.671-.401-.355-.916-.581-1.492-.581-1.256 0-2.277 1.021-2.277 2.277 0 .814.433 1.523 1.078 1.925-.037.221-.061.444-.061.672 0 3.292 4.011 5.97 8.941 5.97s8.941-2.678 8.941-5.97c0-.214-.02-.424-.053-.632.687-.391 1.154-1.12 1.154-1.965zm-3.224-7.422c.606 0 1.1.493 1.1 1.1s-.493 1.1-1.1 1.1-1.1-.494-1.1-1.1.493-1.1 1.1-1.1zm-15.999 7.422c0-.827.672-1.5 1.499-1.5.313 0 .598.103.838.269-.851.676-1.477 1.479-1.812 2.36-.319-.273-.525-.675-.525-1.129zm9.182 7.79c-4.501 0-8.164-2.329-8.164-5.193s3.662-5.193 8.164-5.193 8.164 2.329 8.164 5.193-3.663 5.193-8.164 5.193zm8.677-6.605c-.326-.89-.948-1.701-1.797-2.384.248-.186.55-.301.883-.301.827 0 1.5.673 1.5 1.5.001.483-.23.911-.586 1.185zm-11.64 1.703c-.76 0-1.397-.616-1.397-1.376s.637-1.397 1.397-1.397 1.376.637 1.376 1.397-.616 1.376-1.376 1.376zm7.405-1.376c0 .76-.616 1.376-1.376 1.376s-1.399-.616-1.399-1.376.639-1.397 1.399-1.397 1.376.637 1.376 1.397zm-1.172 3.38c.152.152.152.398 0 .55-.674.674-1.727 1.002-3.219 1.002-.004 0-.007-.002-.011-.002s-.007.002-.011.002c-1.492 0-2.544-.328-3.218-1.002-.152-.152-.152-.398 0-.55s.399-.151.55 0c.521.521 1.394.775 2.669.775.004 0 .007.002.011.002s.007-.002.011-.002c1.275 0 2.148-.253 2.669-.775.151-.152.398-.152.549 0z"/></svg>