<?xml version="1.0" encoding="iso-8859-1"?>
<!-- Generator: Adobe Illustrator 19.2.1, SVG Export Plug-In . SVG Version: 6.00 Build 0)  -->
<svg version="1.1" xmlns="http://www.w3.org/2000/svg" xmlns:xlink="http://www.w3.org/1999/xlink" x="0px" y="0px"
	 viewBox="0 0 24 24" style="enable-background:new 0 0 24 24;" xml:space="preserve">
<g id="share">
	<g id="share_1_">
		<path d="M18,16c-0.788,0-1.499,0.31-2.034,0.807L8.91,12.7C8.96,12.47,9,12.24,9,12s-0.04-0.47-0.09-0.7l7.05-4.11
			C16.5,7.69,17.21,8,18,8c1.66,0,3-1.34,3-3s-1.34-3-3-3s-3,1.34-3,3c0,0.24,0.04,0.47,0.09,0.7L8.04,9.81C7.5,9.31,6.79,9,6,9
			c-1.66,0-3,1.34-3,3s1.34,3,3,3c0.79,0,1.5-0.31,2.04-0.81l7.048,4.118C15.035,18.531,15,18.761,15,19c0,1.657,1.343,3,3,3
			s3-1.343,3-3S19.657,16,18,16z"/>
	</g>
	<g id="Layer_1_1_">
	</g>
</g>
<g id="Layer_1">
</g>
</svg>
