<svg enable-background="new 0 0 24 24" viewBox="0 0 24 24" xmlns="http://www.w3.org/2000/svg"><path d="m10.113 2.699c.033-.006.067-.013.1-.02.033.017.066.033.098.051zm-7.393 7.524c-.006.034-.011.069-.017.103.018.032.033.064.051.095zm18.555 3.548c.007-.035.011-.071.018-.106-.018-.031-.033-.064-.052-.095zm-7.712 7.428c.032.019.065.035.096.053.036-.006.071-.011.105-.017zm8.437-4.813c0 1.494-.581 2.898-1.637 3.953-1.056 1.057-2.459 1.637-3.953 1.637-.967 0-1.914-.251-2.75-.725.036-.006.071-.011.105-.017l-.202-.035c.032.019.065.035.096.053-.543.096-1.099.147-1.654.147-1.275 0-2.512-.25-3.676-.743-1.125-.474-2.135-1.156-3.002-2.023s-1.548-1.877-2.023-3.002c-.493-1.164-.743-2.401-.743-3.676 0-.546.049-1.093.142-1.628.018.032.033.064.051.095l-.034-.199c-.006.034-.011.069-.017.103-.459-.826-.703-1.76-.703-2.711 0-1.493.582-2.898 1.637-3.953 1.056-1.056 2.46-1.638 3.953-1.638.915 0 1.818.228 2.622.655-.033.007-.067.013-.1.02l.199.031c-.032-.018-.066-.034-.098-.051.002 0 .003-.001.004-.001.586-.112 1.187-.169 1.788-.169 1.275 0 2.512.249 3.676.742 1.124.476 2.135 1.156 3.002 2.024.868.867 1.548 1.877 2.024 3.002.493 1.164.743 2.401.743 3.676 0 .575-.054 1.15-.157 1.712-.018-.031-.033-.064-.052-.095l.034.201c.007-.035.011-.071.018-.106.461.829.707 1.767.707 2.721zm-5.183-2.248c0-1.331-.613-2.743-3.033-3.282l-2.209-.49c-.84-.192-1.807-.444-1.807-1.237 0-.794.679-1.348 1.903-1.348 2.468 0 2.243 1.696 3.468 1.696.645 0 1.209-.379 1.209-1.031 0-1.521-2.435-2.663-4.5-2.663-2.242 0-4.63.952-4.63 3.488 0 1.221.436 2.521 2.839 3.123l2.984.745c.903.223 1.129.731 1.129 1.189 0 .762-.758 1.507-2.129 1.507-2.679 0-2.307-2.062-3.743-2.062-.645 0-1.113.444-1.113 1.078 0 1.236 1.501 2.886 4.856 2.886 3.195 0 4.776-1.538 4.776-3.599z"/></svg>