<svg xmlns="http://www.w3.org/2000/svg" viewBox="0 0 24 24" width="24" height="24">
	<path d="M11.989 1.728c3.221.001 5.904 2.683 5.908 5.912q.002 1.133.067 2.094a.737.737 0 0 0 .902.669l1.009-.237a.6.6 0 0 1 .129-.015c.256 0 .492.175.55.434a.74.74 0 0 1-.479.861l-1.532.618a.823.823 0 0 0-.485.98c1.229 4.543 4.661 4.071 4.661 4.662 0 .743-2.587.848-2.821 1.082s-.01 1.368-.532 1.588a1.1 1.1 0 0 1-.409.056c-.393 0-.95-.077-1.536-.077-.509 0-1.04.058-1.507.273-1.239.572-2.433 1.641-3.914 1.641S9.325 21.2 8.086 20.628c-.467-.216-.998-.273-1.507-.273-.586 0-1.143.077-1.536.077-.17 0-.31-.014-.409-.056-.522-.22-.299-1.354-.532-1.588s-2.821-.337-2.821-1.08c0-.592 3.432-.119 4.661-4.662a.824.824 0 0 0-.486-.98l-1.532-.618a.74.74 0 0 1-.479-.861.56.56 0 0 1 .679-.419l1.009.237q.086.02.169.02a.737.737 0 0 0 .733-.689q.065-.961.067-2.094c.004-3.229 2.666-5.91 5.887-5.912m0-1.281c-.961 0-1.898.194-2.784.574A7.2 7.2 0 0 0 6.93 2.572a7.2 7.2 0 0 0-1.539 2.282A7.1 7.1 0 0 0 4.82 7.64a33 33 0 0 1-.029 1.369l-.375-.088a2 2 0 0 0-.421-.049 1.86 1.86 0 0 0-1.135.389 1.84 1.84 0 0 0-.666 1.049 2.024 2.024 0 0 0 1.271 2.335l1.124.454c-.744 2.285-2.117 2.723-3.041 3.018a5 5 0 0 0-.659.246C.087 16.76 0 17.436 0 17.708c0 .521.247.996.694 1.339.223.17.499.311.844.43.47.162 1.016.265 1.459.347.021.164.053.341.106.518.22.738.684 1.069 1.034 1.217.332.14.676.156.905.156.224 0 .462-.018.713-.036.269-.02.548-.041.823-.041.426 0 .743.051.97.155.311.144.64.337.989.542.972.571 2.073 1.217 3.462 1.217s2.49-.647 3.462-1.217c.349-.205.679-.399.989-.542.226-.105.544-.155.97-.155.275 0 .554.021.823.041.251.019.488.036.713.036.229 0 .573-.016.905-.156.35-.147.814-.478 1.034-1.217.053-.178.084-.354.106-.518.443-.082.989-.185 1.459-.347.345-.119.621-.259.844-.43.448-.342.694-.818.694-1.339 0-.272-.087-.948-.891-1.347a5 5 0 0 0-.659-.246c-.924-.295-2.297-.733-3.041-3.018l1.124-.454a2.025 2.025 0 0 0 1.271-2.335 1.83 1.83 0 0 0-.666-1.049 1.86 1.86 0 0 0-1.556-.34l-.375.088a33 33 0 0 1-.029-1.369 7.1 7.1 0 0 0-.575-2.789c-.365-.853-.886-1.62-1.547-2.282s-1.428-1.182-2.28-1.547a7.1 7.1 0 0 0-2.786-.574"/>
</svg>
