<svg viewBox="0 0 24 24" xmlns="http://www.w3.org/2000/svg">
	<path d="M23.587 13.923a3.303 3.303 0 0 1-3.344 3.117h-8.037a.674.674 0 0 1-.667-.67V7.717a.74.74 0 0 1 .444-.705s.739-.512 2.296-.512a5.27 5.27 0 0 1 2.702.742 5.35 5.35 0 0 1 2.516 3.485 3.1 3.1 0 0 1 .852-.116 3.217 3.217 0 0 1 3.237 3.312m-13.05-5.659c.242 2.935.419 5.612 0 8.538a.261.261 0 0 1-.519 0c-.39-2.901-.221-5.628 0-8.538a.26.26 0 0 1 .398-.25.26.26 0 0 1 .12.25zm-1.627 8.541a.273.273 0 0 1-.541 0 32.7 32.7 0 0 1 0-7.533.274.274 0 0 1 .544 0 29.4 29.4 0 0 1-.003 7.533m-1.63-7.788c.264 2.69.384 5.099-.003 7.782a.262.262 0 0 1-.522 0c-.374-2.649-.249-5.127 0-7.782a.264.264 0 0 1 .525 0m-1.631 7.792a.268.268 0 0 1-.532 0 27.6 27.6 0 0 1 0-7.034.27.27 0 1 1 .541 0 25.8 25.8 0 0 1-.01 7.034zm-1.63-5.276c.412 1.824.227 3.435-.015 5.294a.255.255 0 0 1-.504 0c-.22-1.834-.402-3.482-.015-5.295a.268.268 0 0 1 .535 0m-1.626-.277c.378 1.869.254 3.451-.01 5.325-.031.277-.506.28-.531 0-.239-1.846-.352-3.476-.01-5.325a.277.277 0 0 1 .551 0m-1.643.907c.396 1.239.261 2.246-.016 3.517a.258.258 0 0 1-.514 0c-.239-1.246-.336-2.274-.021-3.517a.276.276 0 0 1 .55 0z"/>
</svg>
