<svg enable-background="new 0 0 24 24" viewBox="0 0 24 24" xmlns="http://www.w3.org/2000/svg"><path d="m12 2c-5.523 0-10 4.477-10 10s4.477 10 10 10 10-4.477 10-10-4.477-10-10-10m4.586 14.424c-.18.295-.563.387-.857.207-2.348-1.435-5.304-1.76-8.785-.964-.335.077-.67-.133-.746-.469-.077-.335.132-.67.469-.746 3.809-.871 7.077-.496 9.713 1.115.293.179.386.563.206.857m1.224-2.724c-.226.367-.706.482-1.072.257-2.687-1.652-6.785-2.131-9.965-1.166-.413.126-.848-.107-.973-.518-.125-.413.108-.848.52-.973 3.632-1.102 8.147-.568 11.234 1.328.366.226.481.707.256 1.072m.105-2.835c-3.223-1.914-8.54-2.09-11.618-1.156-.493.15-1.016-.129-1.166-.623-.149-.495.129-1.017.624-1.167 3.532-1.072 9.404-.865 13.115 1.338.445.264.59.838.327 1.282-.264.444-.838.59-1.282.326"/></svg>