<?xml version="1.0" encoding="iso-8859-1"?>
<!-- Generator: Adobe Illustrator 19.2.1, SVG Export Plug-In . SVG Version: 6.00 Build 0)  -->
<svg version="1.1" xmlns="http://www.w3.org/2000/svg" xmlns:xlink="http://www.w3.org/1999/xlink" x="0px" y="0px"
	 viewBox="0 0 24 24" style="enable-background:new 0 0 24 24;" xml:space="preserve">
<g id="squarespace">
	<path d="M20.87,9.271c-1.507-1.507-3.951-1.507-5.458,0l-6.141,6.141c-0.377,0.377-0.377,0.988,0,1.364
		c0.377,0.377,0.988,0.377,1.365,0l6.14-6.14c0.754-0.754,1.976-0.754,2.729,0c0.754,0.754,0.754,1.975,0,2.729l-6.022,6.022
		c0.754,0.754,1.975,0.754,2.729,0l4.658-4.658C22.377,13.222,22.377,10.778,20.87,9.271z M18.823,11.318
		c-0.377-0.377-0.988-0.377-1.365,0l-6.14,6.14c-0.754,0.754-1.976,0.754-2.729,0c-0.377-0.377-0.988-0.377-1.364,0
		c-0.377,0.377-0.377,0.988,0,1.364c1.507,1.507,3.951,1.507,5.458,0l6.14-6.14C19.199,12.306,19.199,11.694,18.823,11.318z
		 M16.776,5.177c-1.507-1.508-3.951-1.508-5.458,0l-6.14,6.14c-0.377,0.377-0.377,0.988,0,1.364c0.377,0.377,0.988,0.377,1.364,0
		l6.141-6.14c0.754-0.754,1.975-0.754,2.729,0c0.377,0.377,0.988,0.377,1.365,0C17.153,6.165,17.153,5.554,16.776,5.177z
		 M14.729,7.224c-0.377-0.377-0.988-0.377-1.364,0l-6.14,6.141c-0.754,0.754-1.976,0.754-2.729,0c-0.754-0.753-0.754-1.975,0-2.729
		l6.022-6.022c-0.754-0.754-1.976-0.754-2.729,0L3.13,9.271c-1.507,1.508-1.507,3.951,0,5.458c1.507,1.507,3.951,1.507,5.458,0
		l6.14-6.141C15.106,8.212,15.106,7.601,14.729,7.224z"/>
</g>
<g id="Layer_1">
</g>
</svg>
