<svg enable-background="new 0 0 24 24" viewBox="0 0 24 24" xmlns="http://www.w3.org/2000/svg"><path d="m20.87 9.271c-1.507-1.507-3.951-1.507-5.458 0l-6.141 6.141c-.377.377-.377.988 0 1.364.377.377.988.377 1.365 0l6.14-6.14c.754-.754 1.976-.754 2.729 0 .754.754.754 1.975 0 2.729l-6.022 6.022c.754.754 1.975.754 2.729 0l4.658-4.658c1.507-1.507 1.507-3.951 0-5.458zm-2.047 2.047c-.377-.377-.988-.377-1.365 0l-6.14 6.14c-.754.754-1.976.754-2.729 0-.377-.377-.988-.377-1.364 0-.377.377-.377.988 0 1.364 1.507 1.507 3.951 1.507 5.458 0l6.14-6.14c.376-.376.376-.988-0-1.364zm-2.047-6.141c-1.507-1.508-3.951-1.508-5.458 0l-6.14 6.14c-.377.377-.377.988 0 1.364.377.377.988.377 1.364 0l6.141-6.14c.754-.754 1.975-.754 2.729 0 .377.377.988.377 1.365 0 .376-.376.376-.987-.001-1.364zm-2.047 2.047c-.377-.377-.988-.377-1.364 0l-6.14 6.141c-.754.754-1.976.754-2.729 0-.754-.753-.754-1.975 0-2.729l6.022-6.022c-.754-.754-1.976-.754-2.729 0l-4.659 4.657c-1.507 1.508-1.507 3.951 0 5.458s3.951 1.507 5.458 0l6.14-6.141c.378-.376.378-.987.001-1.364z"/></svg>