<svg enable-background="new 0 0 24 24" viewBox="0 0 24 24" xmlns="http://www.w3.org/2000/svg"><path d="m12 4.294c-2.469 0-4.471 2.002-4.471 4.471v6.353c0 .585-.474 1.059-1.059 1.059s-1.059-.474-1.059-1.059v-2.824h-3.411v2.941c0 2.469 2.002 4.471 4.471 4.471s4.471-2.002 4.471-4.471v-6.47c0-.585.474-1.059 1.059-1.059s1.059.474 1.059 1.059v1.294l1.412.647 2-.647v-1.294c-.001-2.469-2.003-4.471-4.472-4.471zm1.059 8.059v2.882c0 2.469 2.002 4.471 4.471 4.471s4.47-2.002 4.47-4.471v-2.824h-3.412v2.824c0 .585-.474 1.059-1.059 1.059s-1.059-.474-1.059-1.059v-2.882l-2 .647z"/></svg>