<svg viewBox="0 0 192 192" xmlns="http://www.w3.org/2000/svg"><path d="m141.537 88.9883c-.827-.3964-1.667-.7779-2.518-1.1432-1.482-27.3069-16.403-42.9401-41.4571-43.1001-.1135-.0007-.2264-.0007-.3399-.0007-14.9856 0-27.4489 6.3966-35.12 18.0364l13.779 9.4521c5.7306-8.6945 14.7242-10.548 21.3476-10.548.0765 0 .1533 0 .229.0007 8.2494.0526 14.4744 2.4511 18.5034 7.1285 2.932 3.4053 4.893 8.111 5.864 14.0498-7.314-1.2431-15.224-1.6253-23.68-1.1405-23.8203 1.3721-39.1339 15.2646-38.1054 34.5687.5219 9.792 5.4001 18.216 13.7354 23.719 7.0474 4.652 16.124 6.927 25.5573 6.412 12.4577-.683 22.2307-5.436 29.0487-14.127 5.178-6.6 8.453-15.153 9.899-25.93 5.937 3.583 10.337 8.298 12.767 13.966 4.132 9.635 4.373 25.468-8.546 38.376-11.319 11.308-24.925 16.2-45.4875 16.351-22.8093-.169-40.0597-7.484-51.2754-21.742-10.5026-13.351-15.9304-32.635-16.1329-57.317.2025-24.6822 5.6303-43.9664 16.1329-57.3173 11.2157-14.2578 28.4658-21.5727 51.2751-21.7422 22.9748.1708 40.5258 7.5209 52.1708 21.8475 5.71 7.0256 10.015 15.8608 12.853 26.1623l16.147-4.3081c-3.44-12.68-8.853-23.6065-16.219-32.6682-14.929-18.36732-36.763-27.778852-64.8955-27.974h-.1126c-28.0753.19447-49.6648 9.6418-64.1686 28.0793-12.9064 16.4071-19.5639 39.2364-19.7876 67.8532l-.0007.0675.0007.0675c.2237 28.6165 6.8812 51.4465 19.7876 67.8535 14.5038 18.437 36.0933 27.885 64.1686 28.079h.1126c24.9605-.173 42.5545-6.708 57.0485-21.189 18.963-18.945 18.392-42.692 12.142-57.27-4.484-10.454-13.033-18.9448-24.723-24.5527zm-43.0965 40.5187c-10.44.588-21.2861-4.098-21.8209-14.135-.3964-7.442 5.2962-15.746 22.4616-16.7352 1.9658-.1134 3.8948-.1688 5.7898-.1688 6.235 0 12.068.6057 17.371 1.765-1.978 24.702-13.58 28.713-23.8015 29.274z"/></svg>