<?xml version="1.0" encoding="UTF-8" ?>
<svg width="24" height="24" viewBox="0 0 24 24" fill="none" xmlns="http://www.w3.org/2000/svg">
	<path id="path349" style="fill:#000000" d="M 5 3 C 3.8954311 3 3 3.8954311 3 5 L 3 19 C 3 20.104599 3.8954311 21 5 21 L 19 21 C 20.104599 21 21 20.104599 21 19 L 21 5 C 21 3.8954311 20.104599 3 19 3 L 5 3 z M 12.53125 6 L 14.583984 6 C 14.583984 6 14.469797 8.6353027 17.433594 8.8203125 L 17.433594 10.859375 C 17.433594 10.859375 15.852183 10.958593 14.583984 9.9902344 L 14.605469 14.197266 C 14.605469 14.949465 14.382743 15.685148 13.964844 16.310547 C 13.547044 16.935946 12.952712 17.423038 12.257812 17.710938 C 11.562913 17.998737 10.798246 18.074534 10.060547 17.927734 C 9.3227876 17.781035 8.6451707 17.418618 8.1132812 16.886719 C 7.5814018 16.354919 7.2190455 15.677152 7.0722656 14.939453 C 6.9254858 14.201754 7.0012628 13.437087 7.2890625 12.742188 C 7.5768522 12.047188 8.0640838 11.453156 8.6894531 11.035156 C 9.3148225 10.617257 10.050635 10.394631 10.802734 10.394531 L 11.335938 10.394531 L 11.335938 12.476562 C 10.988138 12.368163 10.614731 12.372181 10.269531 12.488281 C 9.9242816 12.604481 9.6255223 12.8284 9.4140625 13.125 C 9.2026127 13.4215 9.0890969 13.776425 9.0917969 14.140625 C 9.0944869 14.504825 9.2138677 14.858944 9.4296875 15.152344 C 9.6454973 15.445743 9.9480622 15.664291 10.294922 15.775391 C 10.641822 15.886391 11.015228 15.884984 11.361328 15.771484 C 11.707428 15.657984 12.008956 15.437478 12.222656 15.142578 C 12.436356 14.847578 12.550681 14.493106 12.550781 14.128906 L 12.53125 6 z " />
</svg>
