<svg fill="none" height="24" viewBox="0 0 24 24" width="24" xmlns="http://www.w3.org/2000/svg"><path d="m5 3c-1.1045689 0-2 .8954311-2 2v14c0 1.104599.8954311 2 2 2h14c1.104599 0 2-.895401 2-2v-14c0-1.1045689-.895401-2-2-2zm7.53125 3h2.052734s-.114187 2.6353027 2.84961 2.8203125v2.0390625s-1.581411.099218-2.84961-.8691406l.021485 4.2070316c0 .752199-.222726 1.487882-.640625 2.113281-.4178.625399-1.012132 1.112491-1.707032 1.400391-.694899.287799-1.459566.363596-2.197265.216796-.7377594-.146699-1.4153763-.509116-1.9472658-1.041015-.5318794-.5318-.8942357-1.209567-1.0410156-1.947266-.1467798-.737699-.0710028-1.502366.2167969-2.197265.2877897-.695.7750213-1.289032 1.4003906-1.707032.6253694-.417899 1.3611819-.640525 2.1132809-.640625h.533204v2.082031c-.3478-.108399-.721207-.104381-1.066407.011719-.3452494.1162-.6440087.340119-.8554685.636719-.2114498.2965-.3249656.651425-.3222656 1.015625.00269.3642.1220708.718319.3378906 1.011719.2158098.293399.5183747.511947.8652345.623047.3469.111.720306.109593 1.066406-.003907s.647628-.334006.861328-.628906c.2137-.295.328025-.649472.328125-1.013672z" fill="#000"/></svg>