<svg fill="none" height="24" viewBox="0 0 24 24" width="24" xmlns="http://www.w3.org/2000/svg"><path d="m12.22 2h3.42s-.1898 4.39351 4.7498 4.70186v3.39624s-2.6361.1655-4.7498-1.44853l.0369 7.01193c0 1.2536-.3717 2.4791-1.0682 3.5214-.6964 1.0424-1.6863 1.8548-2.8445 2.3346-1.1582.4797-2.43258.6053-3.66211.3607-1.22952-.2445-2.35893-.8481-3.2454-1.7345s-1.49019-2.0158-1.73483-3.2453c-.24463-1.2295-.11919-2.5039.36047-3.6621s1.29199-2.1482 2.33427-2.8447c1.04228-.69658 2.2677-1.06842 3.52131-1.06853h.88919v3.40003.0723c-.57953-.1807-1.20132-.1737-1.77667.0198-.57535.1936-1.07487.564-1.42729 1.0582-.35243.4943-.53976 1.0872-.53528 1.6943.00449.607.20056 1.1971.56025 1.6861.3597.489.86463.8519 1.44278 1.037.57814.185 1.19997.1828 1.77671-.0065.5768-.1892 1.0791-.5558 1.4353-1.0474.3561-.4915.5479-1.0831.548-1.6901z" fill="#000"/></svg>