<svg enable-background="new 0 0 24 24" viewBox="0 0 24 24" xmlns="http://www.w3.org/2000/svg"><path d="m21.01 9.859c.236-1.002.985-2.003.985-2.003l-3.341-.002c-1.875-1.211-4.152-1.854-6.675-1.854-2.616 0-4.979.659-6.844 1.877l-3.135.003s.74.988.98 1.983c-.611.831-.977 1.852-.977 2.961 0 2.761 2.247 5.003 5.009 5.003 1.578 0 2.985-.732 3.904-1.875l1.065 1.592 1.076-1.606c.483.615 1.106 1.112 1.838 1.448 1.216.559 2.576.614 3.831.151 2.591-.956 3.92-3.842 2.963-6.431-.169-.458-.401-.875-.679-1.247zm-13.998 6.96c-2.204 0-3.998-1.793-3.998-3.995 0-2.205 1.794-3.997 3.998-3.997 2.203 0 3.996 1.793 3.996 3.997-.001 2.202-1.794 3.995-3.996 3.995zm4.987-4.36c-.185-2.558-2.296-4.587-4.889-4.638 1.434-.613 3.081-.947 4.867-.947 1.798 0 3.421.324 4.853.966-.525.016-1.056.111-1.576.302-1.255.465-2.254 1.389-2.814 2.604-.252.549-.395 1.129-.441 1.713zm6.288 4.134c-1.001.369-2.087.326-3.058-.122-.97-.446-1.707-1.244-2.075-2.245v-.001c-.37-1.001-.328-2.087.118-3.056.447-.969 1.244-1.707 2.246-2.077.452-.167.916-.246 1.372-.247 1.63-.003 3.166.997 3.763 2.613.762 2.065-.298 4.369-2.366 5.135z"/><path d="m6.949 10.307c-1.365 0-2.475 1.11-2.475 2.472 0 1.363 1.11 2.474 2.475 2.474 1.362 0 2.47-1.11 2.47-2.474 0-1.363-1.108-2.472-2.47-2.472zm0 4.094c-.896 0-1.624-.729-1.624-1.623 0-.893.729-1.62 1.624-1.62.892 0 1.618.727 1.618 1.62 0 .895-.726 1.623-1.618 1.623z"/><path d="m16.981 10.307c-1.364 0-2.474 1.11-2.474 2.472 0 1.363 1.11 2.474 2.474 2.474 1.363 0 2.472-1.11 2.472-2.474-0-1.363-1.109-2.472-2.472-2.472zm0 4.094c-.894 0-1.622-.729-1.622-1.623 0-.893.728-1.62 1.622-1.62.893 0 1.62.727 1.62 1.62-0 .895-.727 1.623-1.62 1.623z"/><path d="m7.778 12.778c0 .458-.373.833-.832.833-.461 0-.832-.374-.832-.833 0-.46.372-.832.832-.832.458 0 .832.373.832.832"/><path d="m16.981 11.947c-.461 0-.831.372-.831.832 0 .458.37.833.831.833.459 0 .831-.374.831-.833 0-.46-.371-.832-.831-.832z"/></svg>