<?xml version="1.0" encoding="iso-8859-1"?>
<!-- Generator: Adobe Illustrator 19.2.1, SVG Export Plug-In . SVG Version: 6.00 Build 0)  -->
<svg version="1.1" xmlns="http://www.w3.org/2000/svg" xmlns:xlink="http://www.w3.org/1999/xlink" x="0px" y="0px"
	 viewBox="0 0 24 24" style="enable-background:new 0 0 24 24;" xml:space="preserve">
<g id="tumblr">
	<path d="M19,3H5C3.895,3,3,3.895,3,5v14c0,1.105,0.895,2,2,2h14c1.105,0,2-0.895,2-2V5C21,3.895,20.105,3,19,3z M13.431,17.265
		c-2.446,0.042-3.372-1.742-3.372-2.998v-3.668H8.923v-1.45c1.703-0.614,2.113-2.15,2.209-3.025c0.007-0.06,0.054-0.084,0.081-0.084
		s1.645,0,1.645,0v2.86h2.246v1.7h-2.254v3.495c0.008,0.476,0.182,1.131,1.081,1.107c0.298-0.008,0.697-0.094,0.906-0.194
		l0.54,1.601C15.172,16.905,14.256,17.25,13.431,17.265z"/>
</g>
<g id="Layer_1">
</g>
</svg>
