<?xml version="1.0" encoding="iso-8859-1"?>
<!-- Generator: Adobe Illustrator 19.2.1, SVG Export Plug-In . SVG Version: 6.00 Build 0)  -->
<svg version="1.1" xmlns="http://www.w3.org/2000/svg" xmlns:xlink="http://www.w3.org/1999/xlink" x="0px" y="0px"
	 viewBox="0 0 24 24" style="enable-background:new 0 0 24 24;" xml:space="preserve">
<g id="twitter">
	<path d="M19,3H5C3.895,3,3,3.895,3,5v14c0,1.105,0.895,2,2,2h14c1.105,0,2-0.895,2-2V5C21,3.895,20.105,3,19,3z M16.466,9.71
		c0.004,0.099,0.007,0.198,0.007,0.298c0,3.045-2.318,6.556-6.556,6.556c-1.301,0-2.512-0.381-3.532-1.035
		c0.18,0.021,0.364,0.032,0.55,0.032c1.079,0,2.073-0.368,2.862-0.986c-1.008-0.019-1.859-0.685-2.152-1.6
		c0.141,0.027,0.285,0.041,0.433,0.041c0.21,0,0.414-0.028,0.607-0.081c-1.054-0.212-1.848-1.143-1.848-2.259
		c0-0.01,0-0.019,0-0.029c0.311,0.173,0.666,0.276,1.044,0.288c-0.618-0.413-1.025-1.118-1.025-1.918
		c0-0.422,0.114-0.818,0.312-1.158c1.136,1.394,2.834,2.311,4.749,2.407c-0.039-0.169-0.06-0.344-0.06-0.525
		c0-1.272,1.032-2.304,2.304-2.304c0.663,0,1.261,0.28,1.682,0.728c0.525-0.103,1.018-0.295,1.463-0.559
		c-0.172,0.538-0.537,0.99-1.013,1.275c0.466-0.056,0.91-0.18,1.323-0.363C17.306,8.979,16.916,9.385,16.466,9.71z"/>
</g>
<g id="Layer_1">
</g>
</svg>
