<svg enable-background="new 0 0 24 24" viewBox="0 0 24 24" xmlns="http://www.w3.org/2000/svg"><path d="m19 3h-14c-1.105 0-2 .895-2 2v14c0 1.105.895 2 2 2h14c1.105 0 2-.895 2-2v-14c0-1.105-.895-2-2-2zm-2.534 6.71c.004.099.007.198.007.298 0 3.045-2.318 6.556-6.556 6.556-1.301 0-2.512-.381-3.532-1.035.18.021.364.032.55.032 1.079 0 2.073-.368 2.862-.986-1.008-.019-1.859-.685-2.152-1.6.141.027.285.041.433.041.21 0 .414-.028.607-.081-1.054-.212-1.848-1.143-1.848-2.259 0-.01 0-.019 0-.029.311.173.666.276 1.044.288-.618-.413-1.025-1.118-1.025-1.918 0-.422.114-.818.312-1.158 1.136 1.394 2.834 2.311 4.749 2.407-.039-.169-.06-.344-.06-.525 0-1.272 1.032-2.304 2.304-2.304.663 0 1.261.28 1.682.728.525-.103 1.018-.295 1.463-.559-.172.538-.537.99-1.013 1.275.466-.056.91-.18 1.323-.363-.31.461-.7.867-1.15 1.192z"/></svg>