<svg enable-background="new 0 0 24 24" viewBox="0 0 24 24" xmlns="http://www.w3.org/2000/svg"><path d="m2.048 22 1.406-5.136c-.867-1.503-1.324-3.208-1.323-4.955.002-5.463 4.448-9.909 9.911-9.909 2.651.001 5.14 1.033 7.011 2.906s2.901 4.363 2.9 7.011c-.002 5.464-4.448 9.91-9.91 9.91h-.004c-1.659-.001-3.288-.417-4.736-1.206zm5.497-3.172.301.179c1.265.751 2.714 1.148 4.193 1.148h.003c4.54 0 8.235-3.695 8.237-8.237.001-2.201-.855-4.271-2.41-5.828s-3.623-2.415-5.824-2.416c-4.544 0-8.239 3.695-8.241 8.237-.001 1.556.435 3.072 1.259 4.384l.196.312-.832 3.04zm9.49-4.554c-.062-.103-.227-.165-.475-.289s-1.465-.723-1.692-.806-.392-.124-.557.124-.64.806-.784.971-.289.186-.536.062c-.248-.124-1.046-.385-1.991-1.229-.736-.657-1.233-1.468-1.378-1.715-.144-.248-.015-.382.109-.505.111-.111.248-.289.371-.434.124-.145.165-.248.248-.413s.041-.31-.021-.434-.557-1.343-.763-1.839c-.202-.483-.407-.417-.559-.425-.144-.007-.31-.009-.475-.009s-.433.062-.66.31c-.226.248-.866.847-.866 2.066s.887 2.396 1.011 2.562c.124.165 1.746 2.666 4.23 3.739.591.255 1.052.408 1.412.522.593.189 1.133.162 1.56.098.476-.071 1.465-.599 1.671-1.177.206-.58.206-1.075.145-1.179z"/></svg>