<?xml version="1.0" encoding="iso-8859-1"?>
<!-- Generator: Adobe Illustrator 19.2.1, SVG Export Plug-In . SVG Version: 6.00 Build 0)  -->
<svg version="1.1" xmlns="http://www.w3.org/2000/svg" xmlns:xlink="http://www.w3.org/1999/xlink" x="0px" y="0px"
	 viewBox="0 0 24 24" style="enable-background:new 0 0 24 24;" xml:space="preserve">
<g id="whatsapp">
	<path d="M2.048,22l1.406-5.136c-0.867-1.503-1.324-3.208-1.323-4.955C2.133,6.446,6.579,2,12.042,2
		c2.651,0.001,5.14,1.033,7.011,2.906c1.871,1.873,2.901,4.363,2.9,7.011c-0.002,5.464-4.448,9.91-9.91,9.91c0,0,0,0,0,0h-0.004
		c-1.659-0.001-3.288-0.417-4.736-1.206L2.048,22z M7.545,18.828l0.301,0.179c1.265,0.751,2.714,1.148,4.193,1.148h0.003
		c4.54,0,8.235-3.695,8.237-8.237c0.001-2.201-0.855-4.271-2.41-5.828c-1.555-1.557-3.623-2.415-5.824-2.416
		c-4.544,0-8.239,3.695-8.241,8.237c-0.001,1.556,0.435,3.072,1.259,4.384l0.196,0.312l-0.832,3.04L7.545,18.828z M17.035,14.274
		c-0.062-0.103-0.227-0.165-0.475-0.289c-0.248-0.124-1.465-0.723-1.692-0.806c-0.227-0.083-0.392-0.124-0.557,0.124
		c-0.165,0.248-0.64,0.806-0.784,0.971c-0.144,0.165-0.289,0.186-0.536,0.062c-0.248-0.124-1.046-0.385-1.991-1.229
		c-0.736-0.657-1.233-1.468-1.378-1.715c-0.144-0.248-0.015-0.382,0.109-0.505c0.111-0.111,0.248-0.289,0.371-0.434
		c0.124-0.145,0.165-0.248,0.248-0.413c0.083-0.165,0.041-0.31-0.021-0.434c-0.062-0.124-0.557-1.343-0.763-1.839
		C9.364,7.284,9.159,7.35,9.007,7.342c-0.144-0.007-0.31-0.009-0.475-0.009c-0.165,0-0.433,0.062-0.66,0.31
		C7.646,7.891,7.006,8.49,7.006,9.709c0,1.219,0.887,2.396,1.011,2.562c0.124,0.165,1.746,2.666,4.23,3.739
		c0.591,0.255,1.052,0.408,1.412,0.522c0.593,0.189,1.133,0.162,1.56,0.098c0.476-0.071,1.465-0.599,1.671-1.177
		C17.096,14.873,17.096,14.378,17.035,14.274z"/>
</g>
<g id="Layer_1">
</g>
</svg>
