<svg enable-background="new 0 0 24 24" viewBox="0 0 24 24" xmlns="http://www.w3.org/2000/svg"><path d="m12.158 12.786-2.698 7.839c.806.237 1.657.366 2.54.366 1.047 0 2.051-.181 2.986-.51-.024-.038-.046-.079-.065-.124zm-9.149-.786c0 3.559 2.068 6.634 5.067 8.092l-4.288-11.751c-.499 1.118-.779 2.355-.779 3.659zm15.06-.454c0-1.112-.399-1.881-.741-2.48-.456-.741-.883-1.368-.883-2.109 0-.826.627-1.596 1.51-1.596.04 0 .078.005.116.007-1.599-1.464-3.731-2.359-6.071-2.359-3.141 0-5.904 1.612-7.512 4.052.211.007.41.011.579.011.94 0 2.396-.114 2.396-.114.484-.028.541.684.057.741 0 0-.487.057-1.029.085l3.274 9.739 1.968-5.901-1.401-3.838c-.484-.028-.943-.085-.943-.085-.485-.029-.428-.769.057-.741 0 0 1.484.114 2.368.114.94 0 2.397-.114 2.397-.114.485-.028.542.684.057.741 0 0-.488.057-1.029.085l3.249 9.665.897-2.996c.456-1.169.684-2.137.684-2.907zm1.82-3.86c.039.286.06.593.06.924 0 .912-.171 1.938-.684 3.22l-2.746 7.94c2.673-1.558 4.47-4.454 4.47-7.771.002-1.563-.398-3.032-1.1-4.313zm-7.889 14.314c-5.514 0-10-4.486-10-10s4.486-10 10-10 10 4.486 10 10-4.486 10-10 10z"/></svg>