<svg enable-background="new 0 0 24 24" viewBox="0 0 24 24" xmlns="http://www.w3.org/2000/svg"><path d="m21.8 8.001s-.195-1.378-.795-1.985c-.76-.797-1.613-.801-2.004-.847-2.799-.202-6.997-.202-6.997-.202h-.009s-4.198 0-6.997.202c-.39.047-1.242.051-2.003.847-.6.607-.795 1.985-.795 1.985s-.2 1.619-.2 3.237v1.517c0 1.618.2 3.237.2 3.237s.195 1.378.795 1.985c.761.797 1.76.771 2.205.855 1.6.153 6.8.201 6.8.201s4.203-.006 7.001-.209c.391-.047 1.243-.051 2.004-.847.6-.607.795-1.985.795-1.985s.2-1.618.2-3.237v-1.517c-0-1.618-.2-3.237-.2-3.237zm-11.865 6.593-.001-5.62 5.404 2.82z"/></svg>