<svg enable-background="new 0 0 42 28.9" viewBox="0 0 42 28.9" xmlns="http://www.w3.org/2000/svg"><path clip-rule="evenodd" d="m10.2 8.7c-.1 0-.3 0-.4 0-5.4 0-9.8 4.5-9.8 10.1s4.4 10.1 9.8 10.1h.1 23.7c4.6 0 8.4-3.9 8.4-8.7 0-4.3-3-7.9-7-8.5v-.1c0-6.4-5.6-11.6-12.6-11.6-5.9 0-10.8 3.7-12.2 8.7zm20.8 6.3v-3.4-.1c0-3.9-3.5-7.6-8.7-7.6-4.3 0-7.5 2.7-8.4 5.8l-.8 3-3.1-.1c-.1 0-.2 0-.2 0-3.1 0-5.9 2.6-5.9 6.2 0 3.5 2.7 6.2 5.9 6.2h.1 23.7c2.4 0 4.5-2 4.5-4.7 0-2.4-1.7-4.3-3.7-4.7z" fill-rule="evenodd"/></svg>