<?xml version="1.0" encoding="utf-8"?>
<!-- Generator: Adobe Illustrator 27.0.1, SVG Export Plug-In . SVG Version: 6.00 Build 0)  -->
<svg version="1.1" id="Layer_1" xmlns="http://www.w3.org/2000/svg" xmlns:xlink="http://www.w3.org/1999/xlink" x="0px" y="0px"
	 viewBox="0 0 42 28.9" style="enable-background:new 0 0 42 28.9;" xml:space="preserve">
<style type="text/css">
	.st0{fill-rule:evenodd;clip-rule:evenodd;}
</style>
<path class="st0" d="M10.2,8.7c-0.1,0-0.3,0-0.4,0C4.4,8.7,0,13.2,0,18.8s4.4,10.1,9.8,10.1l0.1,0h23.7l0,0c4.6,0,8.4-3.9,8.4-8.7
	c0-4.3-3-7.9-7-8.5l0-0.1C35,5.2,29.4,0,22.4,0C16.5,0,11.6,3.7,10.2,8.7L10.2,8.7z M31,15l0-3.4l0-0.1c0-3.9-3.5-7.6-8.7-7.6
	c-4.3,0-7.5,2.7-8.4,5.8l-0.8,3L10,12.6c-0.1,0-0.2,0-0.2,0c-3.1,0-5.9,2.6-5.9,6.2c0,3.5,2.7,6.2,5.9,6.2l0.1,0h23.7l0,0
	c2.4,0,4.5-2,4.5-4.7c0-2.4-1.7-4.3-3.7-4.7L31,15z"/>
</svg>
