<svg enable-background="new 0 0 36 36" viewBox="0 0 36 36" xmlns="http://www.w3.org/2000/svg" xmlns:xlink="http://www.w3.org/1999/xlink"><clipPath id="a"><path d="m0 0h36v36h-36z"/></clipPath><mask id="b" height="36" maskUnits="userSpaceOnUse" width="36" x="0" y="0"><circle cx="18" cy="18" fill="#f6f7f7" r="18"/></mask><circle cx="18" cy="18" fill="#fff" r="17" stroke="#fff" stroke-width="2"/><g clip-path="url(#a)"><g mask="url(#b)"><circle cx="18" cy="18" fill="#f0f2eb" r="18"/><path clip-rule="evenodd" d="m12.7 23c-1.2-1.3-2-3.1-2-5 0-4 3.3-7.3 7.3-7.3s7.3 3.3 7.3 7.3c0 1.9-.7 3.7-2 5v-.5c0-1.7-1.4-3.1-3.1-3.1h-4.5c-1.7 0-3.1 1.4-3.1 3.1v.5zm1.6 1.3c1.1.6 2.3 1 3.7 1s2.6-.4 3.7-1v-1.8c0-.8-.6-1.4-1.4-1.4h-4.5c-.8 0-1.4.6-1.4 1.4v1.8zm-5.3-6.3c0-5 4-9 9-9s9 4 9 9-4 9-9 9-9-4-9-9zm11.2-2.2c0 1.2-1 2.2-2.2 2.2s-2.2-1-2.2-2.2 1-2.2 2.2-2.2 2.2.9 2.2 2.2z" fill="#646970" fill-rule="evenodd"/></g></g></svg>