<svg fill="none" height="442" viewBox="0 0 534 442" width="534" xmlns="http://www.w3.org/2000/svg" xmlns:xlink="http://www.w3.org/1999/xlink"><filter id="a" color-interpolation-filters="sRGB" filterUnits="userSpaceOnUse" height="361.231" width="411.113" x="97.5022" y="44.6668"><feFlood flood-opacity="0" result="BackgroundImageFix"/><feColorMatrix in="SourceAlpha" type="matrix" values="0 0 0 0 0 0 0 0 0 0 0 0 0 0 0 0 0 0 127 0"/><feOffset dy="4.44002"/><feGaussianBlur stdDeviation="22.2001"/><feColorMatrix type="matrix" values="0 0 0 0 0.0980392 0 0 0 0 0.117647 0 0 0 0 0.137255 0 0 0 0.1 0"/><feBlend in2="BackgroundImageFix" mode="normal" result="effect1_dropShadow"/><feBlend in="SourceGraphic" in2="effect1_dropShadow" mode="normal" result="shape"/></filter><path d="m0 0h534v442h-534z" fill="#1381d8"/><g filter="url(#a)"><rect fill="#fff" height="272.431" rx="3.83705" width="322.312" x="141.902" y="84.627"/></g><rect height="23.9816" rx="2.39816" stroke="#1e1e1e" stroke-width="2.87779" width="23.9816" x="381.24" y="287.92"/><path d="m389.395 305.666v-11.511l9.592 5.756z" fill="#1e1e1e"/><rect height="23.9816" rx="2.39816" stroke="#1e1e1e" stroke-width="2.87779" width="23.9816" x="289.15" y="287.92"/><path d="m306.897 301.829-3.837-4.796-3.837 4.796v-13.43h7.674z" fill="#1e1e1e" stroke="#1e1e1e" stroke-width="1.91853"/><circle cx="209.051" cy="299.911" r="13.9093" stroke="#1e1e1e" stroke-width="2.87779"/><path d="m206.177 298.666 8.538-5.727-2.779 9.071-8.549 5.666z" fill="#1e1e1e"/><path d="m370.207 184.799h46.0446v46.0446h-46.0446z" fill="#fff"/><path d="m406.61 196.606v17.71l-6.641 6.641" stroke="#1e1e1e" stroke-width="3.32053"/><path d="m395.539 196.606h11.0684v11.0684h-11.0684z" fill="#1e1e1e"/><path d="m388.899 196.606v17.71l-6.641 6.641" stroke="#1e1e1e" stroke-width="3.32053"/><path d="m377.832 196.606h11.0684v11.0684h-11.0684z" fill="#1e1e1e"/><g stroke="#1e1e1e"><rect height="23.9816" rx="2.39816" stroke-width="2.87779" width="23.9816" x="289.15" y="195.83"/><path d="m289.629 215.495 7.15-4.597c.682-.439 1.567-.401 2.209.094l3.17 2.446c.741.572 1.788.525 2.475-.111l8.018-7.425" stroke-linecap="round" stroke-linejoin="bevel" stroke-width="2.87779"/><path d="m214.647 223.173v-28.991" stroke-width="2.87779"/><path d="m206.12 223.173v-28.991" stroke-width="2.87779"/><path d="m221.203 193.912h-17.053" stroke-width="2.87779"/><path d="m203.562 201.852v7.811c-3.699-.677-6.502-3.917-6.502-7.811s2.803-7.133 6.502-7.81z" fill="#1e1e1e" stroke-width="2.87779"/></g><rect fill="#fff" height="61.3929" rx="3.83705" width="61.3929" x="61.3242" y="84.6299"/><path d="m91.5432 105.733v21.104m-11.0315-11.031h21.1043" stroke="#3e58e1" stroke-width="2.87779"/><rect height="44.1261" rx="2.87779" stroke="#3e58e1" stroke-width="1.91853" width="278.186" x="163.967" y="108.609"/><path d="m404.742 142.184 7.674-6.715" stroke="#1e1e1e" stroke-width="2.87779"/><circle cx="419.13" cy="129.713" r="9.113" stroke="#1e1e1e" stroke-width="2.87779"/></svg>