<svg fill="none" height="95" viewBox="0 0 209 95" width="209" xmlns="http://www.w3.org/2000/svg" xmlns:xlink="http://www.w3.org/1999/xlink"><clipPath id="a"><path d="m0 0h209v95h-209z"/></clipPath><g clip-path="url(#a)"><path d="m0 0h209v95h-209z" fill="#fff"/><path d="m77.7799 74.5478s2.2549-2.5185.9095-7.2849l45.5416-32.6334c9.44-6.8292 16.42-12.3631 22.832-16.7377l17.353-12.81847s3.889 5.22067-1.393 9.16977c-5.281 3.9533-85.2431 60.3047-85.2431 60.3047z" fill="#dcdcde"/><path clip-rule="evenodd" d="m79.7894 71.024 83.0346-57.4906c2.965-2.0531 3.664-6.14179 1.55-9.06393-2.114-2.92213-6.216-3.536853-9.094-1.36273l-80.5818 60.87986zm-.3304 1.9316 84.162-58.2712c3.61-2.4996 4.462-7.47777 1.888-11.03554-2.574-3.5577713-7.569-4.306214-11.073-1.65916l-81.6759 61.7065z" fill="#02395c" fill-rule="evenodd"/><path d="m73.9493 63.3164 3.9579 4.4586-11.1057 10.9635c-1.6295.4466-5.0172.5545-5.5328-2.5871-.5155-3.1417 8.2389-9.8657 12.6806-12.835z" fill="#fff"/><path d="m63.8361 78.6872c7.9685-5.1791 12.2376-10.0737 13.3761-11.8737 3.6571 2.6261 3.6647 5.403 3.2114 6.4632-5.5958 5.2199-12.8717 7.8477-15.8101 8.5092z" fill="#dcdcde"/><path d="m50.4718 92.0167c8.7725-7.5534 9.7034-13.8314 8.7793-16.4313l1.8842-1.3631 1.8647 2.6965 2.564 3.425-13.2639 12.613z" fill="#dcdcde"/><g fill="#02395c"><path clip-rule="evenodd" d="m74.8536 64.378c-1.0021-.6361-1.5687-.6047-1.8121-.4879-2.5976 1.247-5.56 4.0189-7.9542 6.6183-1.1761 1.2769-2.1788 2.4716-2.8873 3.3471-.1817.2245-.3439.4278-.4843.6056l4.0633 5.6166c.213-.0778.4567-.1682.7269-.2705 1.0532-.3991 2.5017-.9776 4.0825-1.695 3.218-1.4607 6.7775-3.4072 8.7741-5.4846.1872-.1948.3942-.7233.1035-1.8743-.2736-1.0832-.9158-2.3668-1.7834-3.566-.8675-1.1992-1.8858-2.2106-2.829-2.8093zm-9.5952 17.3685s10.7184-3.5759 15.1135-8.1488c2.7967-2.9099-4.2979-12.7162-7.9362-10.9697-5.7177 2.7447-12.4681 11.8054-12.4681 11.8054z" fill-rule="evenodd"/><path clip-rule="evenodd" d="m151.47 13.7614c-.58-.7512-1.652-.8981-2.383-.3573l-.003.0026h-.001l-10.999 8.0334c-.724.5387-.87 1.5636-.301 2.3063.579.75 1.648.8974 2.383.356l.002-.0016 11-8.0335c.725-.5395.87-1.5673.302-2.3059zm-3.214-1.4841c1.36-1.0046 3.29-.7091 4.322.6294l.001.0007c1.038 1.3488.788 3.272-.579 4.2858l-.004.0031v-.0001l-11 8.0335c0 .0003 0 .0006-.001.0009-1.361 1.0017-3.288.7097-4.321-.6299l-.002-.0018c-1.035-1.3504-.788-3.2702.58-4.2846l.004-.0031 10.998-8.0325c.001-.0005.001-.0009.002-.0014z" fill-rule="evenodd"/><path clip-rule="evenodd" d="m60.8791 74.507c.189.3372.0689.7638-.2683.9529l-14.7376 8.2629c.362 2.7184-.4346 5.6811-2.9336 9.4108-.2152.3211-.65.407-.9712.1918s-.4071-.65-.1919-.9711c2.5296-3.7754 3.0845-6.4991 2.6405-8.8747-.0552-.295.0839-.5924.3457-.7392l15.1634-8.5017c.3373-.189.7639-.0689.953.2683z" fill-rule="evenodd"/><path clip-rule="evenodd" d="m65.4739 80.8581c-.2611-.2851-.7039-.3045-.989-.0433l-12.4588 11.4127c-2.4687-1.1943-5.5319-1.3646-9.8562-.1578-.3723.1039-.59.49-.4861.8624.104.3723.4901.59.8624.486 4.3772-1.2214 7.1379-.8964 9.2553.2686.2629.1447.5889.1056.8102-.0971l12.8189-11.7425c.285-.2611.3044-.7039.0433-.989z" fill-rule="evenodd"/><path d="m53.5337 83.7948c.3132-.2266.7508-.1563.9774.1569s.1564.7508-.1568.9774l-10.2085 7.3855c-.3133.2266-.7509.1564-.9775-.1568s-.1564-.7508.1569-.9774z"/></g></g></svg>