<svg fill="none" height="442" viewBox="0 0 534 442" width="534" xmlns="http://www.w3.org/2000/svg"><path d="m0 0h534v442h-534z" fill="#1381d8"/><path d="m76 60.377h381.368v381.368h-381.368z" fill="#fff"/><g fill="#e2e4e7"><path d="m98.9531 81.5635h337.228v42.3743h-337.228z"/><path d="m118.375 378.184h296.62v63.5614h-296.62z"/><path d="m139.562 293.434h105.936v63.5614h-105.936z"/><path d="m287.871 293.434h105.936v63.5614h-105.936z"/><path d="m76 145.124h381.368v127.123h-381.368z"/></g><rect height="22.0699" rx="2.20699" stroke="#1e1e1e" stroke-width="2.64839" width="22.0699" x="181.496" y="314.181"/><path d="m181.938 332.278 6.579-4.231c.628-.404 1.443-.369 2.034.088l2.916 2.25c.683.527 1.646.483 2.279-.102l7.379-6.833" stroke="#1e1e1e" stroke-linecap="round" stroke-linejoin="bevel" stroke-width="2.64839"/><rect height="22.0699" rx="2.20699" stroke="#1e1e1e" stroke-width="2.64839" width="22.0699" x="329.805" y="314.181"/><path d="m330.246 332.278 6.58-4.231c.628-.404 1.442-.369 2.033.088l2.917 2.25c.683.527 1.646.483 2.278-.102l7.379-6.833" stroke="#1e1e1e" stroke-linecap="round" stroke-linejoin="bevel" stroke-width="2.64839"/><rect height="22.0699" rx="2.20699" stroke="#1e1e1e" stroke-width="2.64839" width="22.0699" x="255.648" y="197.651"/><path d="m263.152 213.983v-10.593l8.828 5.296z" fill="#1e1e1e"/><path d="m271.832 424.089v-26.68" stroke="#1e1e1e" stroke-width="2.64839"/><path d="m263.984 424.089v-26.68" stroke="#1e1e1e" stroke-width="2.64839"/><path d="m277.867 397.162h-15.694" stroke="#1e1e1e" stroke-width="2.64839"/><path d="m261.632 404.471v7.188c-3.404-.623-5.984-3.605-5.984-7.188 0-3.584 2.58-6.565 5.984-7.188z" fill="#1e1e1e" stroke="#1e1e1e" stroke-width="2.64839"/><circle cx="266.683" cy="102.751" r="12.8006" stroke="#1e1e1e" stroke-width="2.64839"/><path d="m264.042 101.604 7.858-5.2702-2.558 8.3482-7.867 5.214z" fill="#1e1e1e"/></svg>