<svg fill="none" height="85" viewBox="0 0 158 85" width="158" xmlns="http://www.w3.org/2000/svg" xmlns:xlink="http://www.w3.org/1999/xlink"><clipPath id="a"><path d="m0 0h145v40h-145z" transform="matrix(.99026807 -.1391731 .1391731 .99026807 8.26501 20.1801)"/></clipPath><g clip-path="url(#a)"><path d="m63.6725 29.3457 10.4459 1.2286 3.3591 19.6055 20.7774-12.1472 3.3611.3326s30.027-29.17233 28.742-28.78027z" fill="#dcdcde"/><g stroke="#02395c" stroke-linecap="round" stroke-linejoin="round" stroke-miterlimit="10" stroke-width="1.5"><path d="m75.3439 34.0189 37.6001 6.7241 38.464-40.146192-99.2432 29.271592 16.6434 2.9751"/><path d="m98.4081 38.1433-20.7774 12.1472-2.2868-16.2716"/><path d="m68.8086 32.8435 61.0674-22.87002-54.5318 24.04542"/><path d="m77.6309 50.2905-8.8224-17.447"/></g></g><path d="m8.60233 83.8353c-.32463.0013-.68644-.1502-1.01027-.423s-.58478-.646-.72864-1.042c-.19107-.591-.21443-1.1652-.06636-1.631.15767-.5705.36227-1.1075.61189-1.606.26069-.605.64224-1.4806.98084-2.0194.40918-.6519 2.90051-4.1823 3.30621-4.6346.6022-.6717 2.346-2.1851 2.6872-2.4488.2452-.1745.4905-.3489.7598-.5406-1.2026-1.4269-1.1881-2.7084-1.0466-3.6776.1274-.871.6267-1.4277 1.0608-2.0722.7782-1.1337 1.6587-2.1612 2.6342-3.0739 2.9714-2.9028 6.5552-4.9447 9.8629-7.3944.7089-.5295 1.4732-.9852 2.2238-1.4562 1.758-1.1053 3.5202-2.1995 5.2865-3.2827.5124-.3141 4.8973-2.5987 5.4224-2.8045.6433-.2521 3.2977-1.3349 3.9534-1.5539.8414-.2922 3.4348-1.0715 3.8642-1.1798s.9186-.1837 1.3709-.2873c.3752-.0823 1.9997-.3946 2.4319-.4714.289-.0461.5679-.1103.8569-.1564.774-.1312 1.564-.24 2.3502-.3462.085-.0143.286-.0189.4756-.0237.151-.008.3195.0446.4806.1499s.3062.2577.4138.4347c.458.7735-.3987 1.1228-.5112 1.1693-.3731.0999-.7631.1642-1.1669.1925-.2552.0346-.5102.0105-.746.0566-.8943.1746-1.7802.3727-2.6837.554-.6811.1321-6.0828 1.6758-6.6326 1.8823s-6.0112 2.5983-6.872 3.0009c-.0706.0502-.1532.0796-.2258.127-2.3596 1.4816-4.7769 2.8782-7.0888 4.4307-3.5352 2.3724-7.0365 4.8017-10.5038 7.288-3.0561 2.6735-4.4568 4.9287-4.7372 5.7618-.1884.3605-.0102 1.7358.5357 1.6496l.4774-.3397c1.7333-1.2331 3.4069-2.558 5.2295-3.6617.9785-.5912 2.2086-.8286 3.7182-.0438 1.0007.5216 1.6636 1.4849 2.1047 2.455.5079 1.1071.3331 2.0413-.3487 2.5893-1.9493 1.5588-3.0573 1.7555-3.7028 1.8748-.7011.1582-1.4362.2405-2.1977.246-.8701-.03-1.7619-.136-2.6682-.317-.5306-.1008-1.0972-.3859-1.6429-.5473-.1712-.0322-.3256.001-.4393.0944-.6272.4713-1.2583.9371-1.8518 1.4559-.4401.3844-.8446.8148-1.251 1.2424-.3201.3368-.8343.904-1.1406 1.2562-.3062.3521-.6202.7014-.8997 1.0597-.4345.5692-.8689 1.1384-1.2645 1.7387-.44066.6785-.87536 1.3654-1.23413 2.1157-.2924.6718-.54541 1.3756-.75801 2.1085-.01563.0489-.02039.1051-.01399.1652.01518.2469.11939.5149.29011.746.13142.1487.23397.3238.29503.504.06108.1802.07801.3575.04873.5101-.0231.0626-.06252.1113-.11484.1419s-.11595.0423-.18537.034zm9.74547-14.4855c.2428.0797.4842.1446.7232.1945.7758.1111 3.4688.1168 3.9898-.0357.7247-.2016 1.4009-.4973 2.0191-.8826.3247-.1785.6259-.3928.901-.641.1769-.1867.2501-.4794.2037-.8152-.0463-.3359-.2085-.6879-.4515-.9805-.297-.3467-.571-.4329-1.0924-.4815-.6848-.0384-1.3111.1009-1.8361.4083-1.428.9111-4.3074 3.0897-4.4469 3.2476z" fill="#02395c"/></svg>