<svg fill="none" height="442" viewBox="0 0 534 442" width="534" xmlns="http://www.w3.org/2000/svg"><path d="m0 0h534v442h-534z" fill="#1381d8"/><path d="m76 62.9764c0-1.6439 1.5792-2.9764 3.5276-2.9764h373.9234c1.95 0 3.528 1.3325 3.528 2.9764v378.0026h-380.979z" fill="#fff"/><g fill="#e2e4e7"><path d="m295.979 95.0693h-35.069v12.7527h35.069z"/><path d="m340.613 95.0693h-35.069v12.7527h35.069z"/><path d="m385.247 95.0693h-35.07v12.7527h35.07z"/><path d="m429.88 95.0693h-36.663v12.7527h36.663z"/></g><path d="m115.851 115.792c7.924 0 14.347-6.423 14.347-14.346 0-7.9237-6.423-14.3469-14.347-14.3469-7.923 0-14.346 6.4232-14.346 14.3469 0 7.923 6.423 14.346 14.346 14.346z" fill="#1e1e1e"/><path d="m456.979 144.485h-380.979v200.851h380.979z" fill="#e2e4e7"/><path d="m248.158 374.029h-172.158v66.95h172.158z" fill="#e2e4e7"/><path d="m334.237 257.663h-205.633v25.505h205.633z" fill="#fff"/><path d="m192.366 294.326h-63.762v14.347h63.762z" fill="#fff"/><path d="m405.969 386.781h-135.494v12.753h135.494z" fill="#e2e4e7"/><path d="m405.969 407.504h-135.494v12.752h135.494z" fill="#e2e4e7"/><path d="m338.71 428.227h-68.235v12.752h68.235z" fill="#e2e4e7"/></svg>