<svg fill="none" height="442" viewBox="0 0 534 442" width="534" xmlns="http://www.w3.org/2000/svg" xmlns:xlink="http://www.w3.org/1999/xlink"><mask id="a" height="44" maskUnits="userSpaceOnUse" width="34" x="249" y="207"><path clip-rule="evenodd" d="m276.415 221.708h2.084c2.291 0 4.166 1.875 4.166 4.167v20.833c0 2.292-1.875 4.167-4.166 4.167h-25c-2.292 0-4.167-1.875-4.167-4.167v-20.833c0-2.292 1.875-4.167 4.167-4.167h2.083v-4.166c0-5.75 4.667-10.417 10.417-10.417s10.416 4.667 10.416 10.417zm-10.416-10.416c-3.459 0-6.25 2.791-6.25 6.25v4.166h12.5v-4.166c0-3.459-2.792-6.25-6.25-6.25zm-12.5 35.416v-20.833h25v20.833zm16.666-10.416c0 2.291-1.875 4.166-4.166 4.166-2.292 0-4.167-1.875-4.167-4.166 0-2.292 1.875-4.167 4.167-4.167 2.291 0 4.166 1.875 4.166 4.167z" fill="#fff" fill-rule="evenodd"/></mask><mask id="b" height="44" maskUnits="userSpaceOnUse" width="34" x="249" y="186"><path clip-rule="evenodd" d="m276.415 200.708h2.084c2.291 0 4.166 1.875 4.166 4.167v20.833c0 2.292-1.875 4.167-4.166 4.167h-25c-2.292 0-4.167-1.875-4.167-4.167v-20.833c0-2.292 1.875-4.167 4.167-4.167h2.083v-4.166c0-5.75 4.667-10.417 10.417-10.417s10.416 4.667 10.416 10.417zm-10.416-10.416c-3.459 0-6.25 2.791-6.25 6.25v4.166h12.5v-4.166c0-3.459-2.792-6.25-6.25-6.25zm-12.5 35.416v-20.833h25v20.833zm16.666-10.416c0 2.291-1.875 4.166-4.166 4.166-2.292 0-4.167-1.875-4.167-4.166 0-2.292 1.875-4.167 4.167-4.167 2.291 0 4.166 1.875 4.166 4.167z" fill="#fff" fill-rule="evenodd"/></mask><path d="m0 0h534v442h-534z" fill="#1381d8"/><path d="m76 82h381v278h-381z" fill="#e2e4e7"/><path d="m98.9531 103.563h337.228v42.3743h-337.228z" fill="#fff"/><path d="m140 315h105v45h-105z" fill="#fff"/><path d="m288 315h106v45h-106z" fill="#fff"/><path d="m76 167.124h381.368v127.123h-381.368z" fill="#fff"/><g mask="url(#a)"><path d="m241 204h50v50h-50z" fill="#1e1e1e"/></g><path d="m76 61h381v381h-381z" fill="#e2e4e7"/><g fill="#fff"><path d="m98.9531 82.5635h337.228v42.3743h-337.228z"/><path d="m140 294h105v64h-105z"/><path d="m118 378h296.62v63.5614h-296.62z"/><path d="m288 294h106v64h-106z"/><path d="m76 146.124h381.368v127.123h-381.368z"/></g><g mask="url(#b)"><path d="m241 183h50v50h-50z" fill="#1e1e1e"/></g></svg>