<svg fill="none" height="109" viewBox="0 0 93 109" width="93" xmlns="http://www.w3.org/2000/svg" xmlns:xlink="http://www.w3.org/1999/xlink"><linearGradient id="a"><stop offset="0" stop-color="#e9e9e9"/><stop offset="1" stop-color="#efefef"/></linearGradient><linearGradient id="b" gradientUnits="userSpaceOnUse" x1="5.04633" x2="67.2737" xlink:href="#a" y1="61.0719" y2="60.9564"/><linearGradient id="c" gradientUnits="userSpaceOnUse" x1="64.7084" x2="81.9054" xlink:href="#a" y1="96.5632" y2="85.3644"/><clipPath id="d"><path d="m.5 0h92v109h-92z"/></clipPath><g clip-path="url(#d)"><path d="m8.30613 31.4346c-.13939 2.5316-2.64848 47.3271-3.20606 57.5942-.06969.9142.90606 1.758 2.09091 1.758h60.14852z" fill="url(#b)"/><path d="m23.6394 35.7236s.2091 5.6962 11.6394 6.0478 22.5121.4219 22.5121.4219l-.1394-5.6961s-.7666-.422-3.6242-.3516c-2.8576.0703-30.3879-.422-30.3879-.422z" fill="#8bbece"/><path d="m79.6062 23.0661-21.6061-.4923v-4.2193l29.203.4219z" fill="#003b62"/><path d="m53.1213 22.5738-22.4425-.3516v-3.8677h22.4425z" fill="#003b62"/><path d="m18.1334 17.7217c.0697.4922 7.8758 4.5006 7.8758 4.5006v-4.2897z" fill="#003b62"/><path d="m31.9333 8.93101c.2091-.14065 3.0667-1.89871 7.0394-2.18 0 0 3.1364-2.67226 8.8516-1.75807 5.7151.9142 10.803 5.13356 9.8969 12.58776v.8439l3.9031.0703s.6969-13.0097-13.1031-14.62712c-12.6151-1.61742-16.5879 5.06323-16.5879 5.06323z" fill="#003b62"/><path d="m31.585 15.0493s2.6484 2.6723 3.6939 2.9536v-6.3994z" fill="#003b62"/><path d="m77.0273 94.654s.7667.211 3.7637-1.5471c2.9273-1.758 7.3879-4.2896 7.3879-4.2896l-5.7152-67.3691-4.6697 2.6723.1394 68.9161c0-.0703.1394 1.1252-.9061 1.6174z" fill="#8bbece"/><g stroke-linecap="round" stroke-linejoin="round" stroke-miterlimit="10" stroke-width="1.8"><path d="m85.9486 89.9428-2.3-50.9838" stroke="#003b62"/><path d="m91.8728 86.1444c0 .2813-.1394.5626-.4182.7033l-12.4758 7.2432c-.697.4219-1.5333.6329-2.3697.6329h-3.4151 3.0666c.9061 0 1.6031-.5626 1.6031-1.2658l-.1394-69.4084 9.4091-5.3445z" stroke="#003b62"/><path d="m77.794 24.1203.1394 69.4083c0 .7033-.7667 1.2659-1.6031 1.2659h-3.0666l-69.97579-.8439c-.83637 0-1.53334-.5626-1.46364-1.2658l4.87879-69.6194z" stroke="#003b62"/><path d="m26.0788 17.9317v.4922 4.9226l-19.3758-.2813 11.4303-5.3445z" stroke="#003b62"/><path d="m52.9819 18.2832c.1394.4923.1394.9846.1394 1.5471v3.9381l-22.5122-.2813v-4.8522c0-.211 0-.422 0-.6329z" stroke="#003b62"/><path d="m87.203 18.7754-9.4091 5.3446-20.0727-.2813v-3.6568c0-.6329-.0697-1.1955-.1394-1.7581z" stroke="#003b62"/><path d="m57.7213 20.1121v3.6568l-4.6-.0703v-3.9381c0-.4923-.0697-1.0548-.1394-1.5471-.9061-4.2897-5.5061-7.7355-11.0818-8.0168-2.3697-.1406-4.6.3516-6.4121 1.2658-2.7182 1.3362-4.5303 3.7271-4.7394 6.4697v.6329 4.8523l-4.6-.0704v-4.9225c0-.1407 0-.3516 0-.4923.1394-3.5161 2.1606-6.6103 5.2969-8.64967 2.0909-1.40645 4.7394-2.32064 7.597-2.53161.9061-.07032 1.8818-.14065 2.8576-.07032 8.0151.42193 14.6363 5.4852 15.6818 11.6735.0697.5626.1394 1.1955.1394 1.7581z" stroke="#003b62"/><path d="m35.4182 11.5322c-.0697.3516-.1394.7033-.2091 1.0549v.6329 4.8522l-4.5303-.0703c.2091-2.8129 2.0212-5.1335 4.7394-6.4697z" stroke="#003b62"/><path d="m62.3212 14.697v3.6568l-4.6-.0703v-3.9381c0-.4923-.0697-1.0549-.1394-1.5471-.9061-4.28969-5.5061-7.73549-11.0818-8.01678-2.8576-.14065-5.5061.56258-7.4576 1.89871-2.9273.28129-5.5061 1.19548-7.597 2.53161 2.0212-4.9929 8.0152-8.438711 15.1243-8.01678 8.0151.42194 14.6363 5.48516 15.6818 11.67354 0 .6329.0697 1.2658.0697 1.8284z" stroke="#003b62"/><path d="m56.397 44.2327-32.6181-.5626c-.5576 0-.9758-.3516-.9758-.8439l.3485-6.4696c0-.422.4879-.7736 1.0454-.7736l32.6182.5626c.5576 0 .9758.3516.9758.8439l-.3485 6.4696c0 .422-.4879.7736-1.0455.7736z" stroke="#003b62"/><path d="m88.9455 91.2779-26.903-17.6509 5.3666 31.926 6.9-7.946 6.6213 10.197 4.6697-3.165-6.6213-10.1262z" fill="#fff" stroke="#003c65"/></g><path d="m85.2516 90.5046-21.0485-14.0645c-.209-.1407-.4878.0703-.4181.2813l4.3909 25.0346c.0697.211.3485.281.4879.141l5.5757-6.1885 6.6909 10.3375c.0697.141.2788.141.3485.07l2.7182-1.758c.1394-.07.1394-.281.0697-.351l-6.6909-10.3379 7.806-2.6723c.2091-.0703.2788-.3516.0697-.4922z" fill="url(#c)"/></g></svg>