<svg fill="none" height="100" viewBox="0 0 158 100" width="158" xmlns="http://www.w3.org/2000/svg" xmlns:xlink="http://www.w3.org/1999/xlink"><clipPath id="a"><path d="m0 0h158v99.224h-158z"/></clipPath><g clip-path="url(#a)"><path d="m152.277 29.685c-.186.1282-.331.2277-.433.5359l.063.1896c.299.0998.481.0419.668-.018.05-.0159.1-.032.154-.0453.126-.0632.237-.1106.347-.158.111-.0474.221-.0948.348-.158.252-.1263.505-.2528.695-.3792.047-.0355.092-.0666.135-.0961.187-.1282.331-.2277.434-.5359l-.063-.1895c-.3-.0999-.481-.042-.669.0179-.05.0159-.1.032-.153.0452-.126.0632-.237.1106-.348.158-.11.0474-.221.0948-.347.158-.253.1264-.506.2529-.695.3793-.048.0355-.093.0665-.136.0961z" fill="#f2d76b"/><path d="m12.0849 88.6941.5688-1.0744c.0632-.1896-.1264-.3792-.316-.316l-1.0744.632-.948-.8848c-.1264-.1264-.37922 0-.37922.1896l.25282 1.264-1.07442.5688c-.1896.1264-.1264.3792.0632.3792l1.20082.1264.2528 1.3272c.0632.1896.316.2528.4424.0632l.5056-1.2008 1.3272.1896c.1896 0 .316-.2528.1896-.3792z" fill="#004e6e"/><path d="m44.3001 17.2532.4424-.8216c.0632-.1264-.0632-.316-.2528-.1896l-.8216.4424-.6952-.632c-.1264-.1264-.316 0-.2528.1264l.1896.948-.8216.4424c-.1264.0632-.1264.316.0632.316l.8848.0632.1896 1.0112c0 .1896.2528.1896.316.0632l.3792-.948 1.0112.1264c.1896 0 .2528-.1896.1264-.316z" fill="#f0c930"/><path d="m148.019 68.2138.569-1.1376c.126-.1896-.126-.3792-.316-.316l-1.138.632-.948-.8848c-.189-.1264-.379 0-.379.1896l.253 1.264-1.074.632c-.19.1264-.127.3792.063.4424l1.201.1264.252 1.3272c.064.1896.316.2528.443.0632l.569-1.264 1.327.1896c.189 0 .316-.2528.189-.3792z" fill="#8c8f94"/><path d="m151.053 49.0366c.524 0 .948-.4244.948-.948 0-.5235-.424-.948-.948-.948-.523 0-.948.4245-.948.948 0 .5236.425.948.948.948z" fill="#d48fc8"/><g fill="#3895ba"><path d="m37.8116 54.2753c-.1755 1.1295-.3526 2.2699-.127 3.511 0 0 0 .0632.0632.1264.1264.0632.1896 0 .2528-.0632.6729-1.0654.898-2.2303 1.1168-3.3622.0278-.1439.0555-.2873.084-.4299.1264-.632.2528-1.2798.3792-1.9275.1264-.6478.2528-1.2956.3792-1.9276.2238-1.1189.398-2.2872.5666-3.4175.0219-.1466.0436-.2926.0654-.4378.0204-.1357.0415-.2714.0626-.4073.1755-1.1296.3527-2.27.127-3.5111 0-.0631 0-.1264-.0632-.1264-.1264-.0631-.1896 0-.2528.0633-.6729 1.0653-.898 2.2302-1.1168 3.3621-.0278.1439-.0555.2873-.084.4299-.1264.632-.2528 1.2798-.3792 1.9276s-.2528 1.2956-.3792 1.9276c-.2237 1.1187-.398 2.287-.5665 3.4171-.0219.1467-.0437.2928-.0655.4381-.0204.1357-.0415.2715-.0626.4074z"/><path d="m39.3525 34.3921c-.1197.7413-.2402 1.4876.1017 2.2853 0 .0633.0632.0633.0632.0633.0632.0632.1896.0632.2528 0 .5762-.6915.7322-1.383.8989-2.1223.0161-.0716.0324-.1436.0491-.2162.0948-.4108.1738-.8058.2528-1.2008s.158-.79.2528-1.2008c.1264-.7584.2528-1.58.3792-2.4016.0125-.0808.0255-.1617.0386-.2426.1196-.7413.2401-1.4876-.1018-2.2854l-.0632-.0632c-.0632-.0632-.1896-.0632-.2528 0-.5762.6915-.7321 1.383-.8989 2.1223-.0161.0716-.0324.1436-.0491.2162-.0948.4108-.1738.8058-.2528 1.2008-.079.3949-.158.7899-.2528 1.2007-.1264.7584-.2528 1.58-.3792 2.4015-.0124.0809-.0255.1619-.0385.2428z"/><path d="m46.2445 37.5817c-.2266.7616-.4461 1.4997-.2807 2.3822 0 .0316 0 .0474.0079.0552.0079.008.0237.008.0553.008.0632.0631.1896.0631.2528 0 .6592-.6043.9365-1.3519 1.2052-2.0767.0404-.109.0807-.2175.122-.3249.2409-.5221.4308-1.0696.6183-1.6102.1077-.3103.2145-.6183.3297-.9178.1264-.4424.2528-.869.3792-1.2957.1264-.4266.2528-.8532.3792-1.2956.0322-.1126.0654-.2242.0985-.3354.2266-.7616.4462-1.4997.2807-2.3822l-.0632-.0632c-.0632-.0632-.1896-.0632-.2528 0-.6592.6043-.9364 1.3519-1.2052 2.0767-.0404.109-.0807.2175-.122.3249-.2409.5221-.4308 1.0696-.6183 1.6102-.1076.3103-.2145.6183-.3297.9178-.1264.4425-.2528.869-.3792 1.2956-.1264.4267-.2528.8532-.3792 1.2957-.0322.1126-.0654.2242-.0985.3354z"/><path d="m54.9793 42.0747c-.294.5201-.5987 1.0589-.4835 1.8076.0632.1264.1896.1895.2528.1895.687-.2862 1.011-.7799 1.3478-1.2932.035-.0533.0701-.1068.1058-.1603.3792-.5688.7584-1.1377 1.0744-1.7065.158-.2844.316-.5846.474-.8848s.316-.6004.474-.8847c.0281-.0506.0566-.1011.0853-.1518.2941-.5201.5987-1.0588.4835-1.8075v-.0631c-.0632-.1264-.1264-.1897-.2528-.1264-.687.2862-1.011.7799-1.3478 1.2931-.035.0534-.0701.1069-.1058.1604-.3791.5688-.7584 1.1377-1.0744 1.7065-.158.2844-.316.5846-.474.8848s-.316.6004-.474.8847c-.028.0506-.0566.1011-.0853.1517z"/><path d="m46.2218 50.1587c-.3884.7001-.7723 1.3918-.8268 2.3188 0 0 .0632.0631 0 .1264.0632.0631.1896.1264.2528.0631.8204-.4922 1.2621-1.1737 1.6938-1.8397.0672-.1037.1341-.2069.2022-.3091.444-.6412.8109-1.2439 1.191-1.8683.1069-.1756.2148-.3529.3258-.5332.5056-.8216.948-1.6433 1.3904-2.4648.0607-.1128.1226-.2244.1844-.3357.3885-.7001.7723-1.3918.8268-2.3187v-.1265c-.0632-.0632-.1896-.1263-.2528-.0632-.8203.4923-1.2621 1.1738-1.6938 1.8398-.0672.1037-.1341.2069-.2022.309-.4439.6413-.8109 1.2441-1.191 1.8685-.1069.1755-.2148.3528-.3258.5331-.5056.8217-.948 1.6432-1.3904 2.4649-.0607.1127-.1226.2243-.1844.3356z"/><path d="m42.1567 59.4669c-.4839.5063-.9805 1.0259-1.1857 1.7953v.0633c0 .0632.0632.1264.1896.1264.948-.2528 1.58-.8216 2.212-1.3904.6952-.5688 1.3272-1.1376 1.9592-1.7065.2131-.213.4261-.4189.6367-.6224.4142-.4002.8191-.7914 1.1961-1.2104.1072-.119.2188-.2358.3311-.3534.4839-.5063.9805-1.0259 1.1857-1.7953v-.0632c0-.0632-.0632-.1265-.1896-.1265-.948.2528-1.58.8216-2.212 1.3904-.6951.5688-1.3271 1.1376-1.9591 1.7063-.213.2131-.4262.4191-.6368.6226-.4142.4002-.819.7914-1.1961 1.2104-.1071.119-.2188.2358-.3311.3534z"/><path d="m59.2816 58.7811c-.4715.2367-.9525.4782-1.3098 1.0908 0 .1264.0632.2528.1264.316.8216.1896 1.4536-.0632 2.0856-.316l1.896-.7584c.316-.158.6162-.3002.9164-.4424s.6004-.2844.9164-.4424c.1094-.0608.2212-.1169.3335-.1733.4714-.2367.9524-.4782 1.3097-1.0907v-.0632c.0632-.1264 0-.2528-.1264-.2528-.8216-.1896-1.4536.0632-2.0856.316l-1.896.7583c-.316.1581-.6162.3003-.9164.4425s-.6004.2844-.9164.4424c-.1094.0607-.2211.1168-.3334.1732z"/><path d="m62.3498 65.5515c-.8273-.0188-1.6546-.0376-2.482.3244 0 0-.0632-.0001-.0632.0631-.0632.1265 0 .1897.0632.2528.7772.4664 1.597.5504 2.4243.6352.1818.0186.364.0373.5461.06 1.0112.1265 2.0224.1897 3.0336.2529 1.0111.0631 2.0225.1264 3.0336.1264.1839 0 .3677.0041.5516.0083.8273.0188 1.6547.0376 2.482-.3244 0 0 .0632 0 .0632-.0632.0632-.0631 0-.1896-.0632-.2528-.7772-.4663-1.5969-.5503-2.4243-.6351-.1818-.0186-.3639-.0373-.5461-.0601-1.0112-.1263-2.0224-.1895-3.0336-.2528-1.0112-.0632-2.0224-.1263-3.0336-.1263-.1838 0-.3677-.0042-.5516-.0084z"/><path d="m43.2545 64.0862c-.7407-.0626-1.4864-.1257-2.2835.2728 0 0 0 .0632-.0632.0632-.0632.0633 0 .1896.0632.2528.7303.5056 1.4606.6118 2.1909.7179.0913.0132.1826.0265.2739.0406.4159.0594.8178.1048 1.2123.1494.4449.0503.8803.0996 1.3157.1666.2642.0203.5349.0471.8079.0742.5761.0572 1.1627.1153 1.7201.1153.0815.0063.1629.0132.2445.0201.7407.0626 1.4864.1257 2.2835-.2729l.0632-.0632c.0632-.0631 0-.1896-.0632-.2528-.7303-.5056-1.4606-.6117-2.1909-.7178-.0913-.0132-.1826-.0265-.2739-.0405-.4159-.0595-.8179-.1049-1.2124-.1495-.4448-.0503-.8802-.0996-1.3156-.1665-.2642-.0204-.5349-.0472-.8079-.0743-.5761-.0572-1.1627-.1154-1.7201-.1154-.0815-.0062-.163-.0131-.2445-.02z"/><path d="m51.6885 56.4763c-.7171.4292-1.4423.8632-1.9327 1.6259-.0316.0317-.0474.0475-.0474.0633s.0158.0316.0474.0632c0 .1264.0632.1896.1896.1896.8595 0 1.5573-.3236 2.255-.6472.1744-.0809.3489-.1618.5258-.2376.8216-.3792 1.7064-.8216 2.528-1.264s1.6432-.8848 2.4648-1.3904c.1133-.0698.2278-.1383.3425-.207.7171-.4291 1.4424-.8631 1.9327-1.6258v-.1265c0-.1264-.0632-.1895-.1896-.1895-.8595 0-1.5572.3235-2.255.6471-.1744.0809-.3488.1618-.5258.2377-.8216.3792-1.7064.8215-2.528 1.264-.8216.4423-1.6432.8848-2.4648 1.3904-.1133.0697-.2278.1382-.3425.2068z"/><path d="m42.0889 67.3346c-.7-.3884-1.3917-.7722-2.3187-.8267h-.1264c-.0632.0632-.1264.1895-.0632.2528.4922.8203 1.1737 1.262 1.8398 1.6938.1036.0671.2069.1341.309.2021.3792.2528.7742.5056 1.1692.7585.395.2528.79.5056 1.1692.7584.2194.1279.444.2611.6724.3966.5613.3329 1.1452.6793 1.7292.9938.1128.0607.2243.1226.3357.1844.7.3884 1.3918.7722 2.3187.8268h.1264c.0632-.0633.1264-.1897.0632-.2528-.4922-.8204-1.1737-1.2621-1.8398-1.6939-.1036-.0671-.2069-.1341-.309-.2022-.3792-.2528-.7742-.5056-1.1692-.7584-.395-.2527-.79-.5055-1.1692-.7583-.2193-.128-.4438-.2612-.6722-.3966-.5613-.3329-1.1454-.6794-1.7294-.9938-.1127-.0608-.2243-.1227-.3357-.1845z"/><path d="m61.0433 71.5852c-.6534-.1813-1.3613-.3777-2.1235-.0846-.1264.1265-.1264.2528-.0632.3161.4613.5637 1.0473.7534 1.6231.9399.1343.0434.2679.0867.3993.1345.1926.0642.3812.1284.5667.1915.5449.1856 1.0635.3622 1.5821.5037.6952.1895 1.4536.3791 2.1488.5056.0502.0137.1008.0277.1517.0418.6534.1813 1.3613.3777 2.1235.0845 0-.0632.0632-.0631.0632-.0631.0632-.0632.0632-.1897 0-.2529-.4613-.5638-1.0473-.7535-1.6231-.9399-.1342-.0434-.2679-.0867-.3993-.1344-.1927-.0643-.3812-.1285-.5668-.1917-.5448-.1855-1.0634-.3621-1.582-.5035-.6952-.1897-1.4536-.3793-2.1488-.5057-.0502-.0137-.1008-.0277-.1517-.0418z"/><path d="m57.4038 75.0386c-1.0441-.5732-2.098-1.1518-3.3504-1.4523 0 0-.0632 0-.1264.0632s-.0632.1896 0 .2527c.9171 1.0251 2.0185 1.7277 3.1075 2.4225.1867.1192.3731.2381.5581.3584.6636.4108 1.3115.8058 1.9593 1.2008s1.2955.79 1.9591 1.2007l3.9816 2.2752c.2752.1442.5477.2938.8208.4437 1.0442.5732 2.098 1.1518 3.3504 1.4524 0 0 .0632 0 .1264-.0633.0632-.0632.0632-.1895 0-.2528-.9171-1.025-2.0184-1.7276-3.1074-2.4224-.1868-.1192-.3732-.2381-.5582-.3584-.6637-.4108-1.3116-.8059-1.9595-1.2009-.6477-.395-1.2954-.7899-1.9589-1.2006l-3.9816-2.2753c-.2752-.1441-.5476-.2937-.8208-.4436z"/><path d="m61.0936 82.3754c-.5348-.4386-1.026-.8414-1.8578-.9524h-.0632c-.1264.0633-.1264.1264-.1264.2528.2051.7179.6598 1.1445 1.1278 1.5837.1089.1021.2185.205.3258.3124.5688.5687 1.1376 1.0743 1.7064 1.5799.1968.1575.3875.315.5759.4705.4165.3439.8217.6785 1.2569.9832.0775.0619.153.1239.2278.1852.5348.4386 1.026.8414 1.8578.9523h.0632c.1264-.0632.1264-.1264.1264-.2528-.2051-.7178-.6597-1.1444-1.1278-1.5836-.1088-.1021-.2184-.205-.3258-.3124-.5688-.5687-1.1376-1.0743-1.7064-1.5799-.1968-.1575-.3875-.3149-.5759-.4705-.4165-.3439-.8217-.6785-1.2569-.9831-.0775-.062-.153-.124-.2278-.1853z"/><path d="m45.0269 74.496c-.3383-.4184-.6721-.8312-1.3383-1.0362-.1896 0-.2528.0632-.2528.1897 0 .8292.3331 1.3254.6871 1.8527.0237.0353.0475.0708.0713.1065l1.1376 1.7063c.1121.1495.2242.3045.338.4618.271.3747.5512.7621.8628 1.1183.0837.0956.1628.1934.2417.291.3383.4184.6721.8312 1.3383 1.0361h.0632c.0632 0 .1896-.0632.1896-.1895 0-.8293-.3331-1.3255-.6871-1.8528-.0237-.0353-.0475-.0708-.0713-.1065l-1.1376-1.7063c-.1121-.1495-.2242-.3045-.3379-.4618-.271-.3746-.5513-.7621-.8629-1.1183-.0837-.0956-.1628-.1934-.2417-.291z"/><path d="m50.4947 86.2441c-.324-.6695-.6561-1.3558-1.3709-1.8506-.0632 0-.0632-.0001-.0632-.0633-.0632 0-.1896.0632-.1896.1897-.1103.8825.1645 1.5725.4463 2.28.0411.1031.0823.2066.1225.3111.158.4108.3318.8058.5056 1.2008s.3476.79.5056 1.2008c.1896.3792.3792.7742.5688 1.1693.1896.395.3792.7899.5688 1.1692.0493.0985.0975.1981.1459.2981.324.6695.6561 1.3558 1.3709 1.8506 0 .0316 0 .0474.0079.0554.0079.0078.0237.0078.0553.0078.0632 0 .1896-.0631.1896-.1895.1103-.8826-.1645-1.5726-.4463-2.2801-.0411-.1031-.0823-.2066-.1225-.3112-.158-.4108-.3318-.8058-.5056-1.2008s-.3476-.79-.5056-1.2007c-.1896-.3793-.3792-.7742-.5688-1.1692s-.3792-.7901-.5688-1.1692c-.0493-.0986-.0975-.1982-.1459-.2982z"/><path d="m41.7926 83.635c-.1264-1.1375-.2528-2.2752-.8848-3.4128 0 0 0-.0632-.1264-.0632-.0632 0-.1896.0633-.1896.1265-.3087.9774-.2404 1.913-.1703 2.8749.016.2198.0322.4409.0439.6643.0632 1.2008.1896 2.4015.316 3.5392.0115.1029.0229.2064.0344.3103.1154 1.0441.2356 2.131.408 3.1657.1264 1.1375.2528 2.2752.8848 3.4128.0316 0 .0474.0158.0632.0316.0158.0157.0316.0315.0632.0315.0632 0 .1896-.0631.1896-.1263.3087-.9775.2405-1.9131.1703-2.875-.016-.2198-.0321-.4409-.0439-.6643-.0632-1.2008-.1896-2.4016-.316-3.5392-.0114-.1029-.0229-.2064-.0344-.3103-.1154-1.0441-.2356-2.131-.408-3.1657z"/><path d="m37.8755 70.8939c.0057-.6825.0113-1.3651-.4437-2.0477-.1264-.1264-.2528-.1264-.316 0-.4499.6186-.4994 1.2873-.5494 1.9614-.0062.0835-.0124.1671-.0194.2507-.0632.6951-.1264 1.4535-.1264 2.2119v2.212c0 .0759-.0006.1517-.0013.2276-.0056.6825-.0113 1.3651.4437 2.0477l.0632.0631c.0632.0633.1896 0 .2528-.0631.4499-.6186.4995-1.2873.5495-1.9614.0061-.0835.0123-.1671.0193-.2507.0632-.6951.1264-1.4535.1264-2.2119v-2.212c0-.0759.0006-.1517.0013-.2276z"/><path d="m36.6115 90.1004c.0057-.5119.0113-1.0238-.4437-1.5357-.1264-.0633-.2528-.0633-.316 0-.45.45-.4995.9501-.5495 1.4557-.0062.0624-.0123.1249-.0193.1874-.0632.5056-.1264 1.0744-.1264 1.6433-.0419.3349-.0283.6975-.0143 1.0696.0071.1895.0143.3815.0143.5735 0 .0569-.0006.1138-.0013.1707-.0056.5119-.0113 1.0238.4437 1.5358.1264.0632.2528.0632.316 0 .45-.4501.4995-.9502.5495-1.4558.0062-.0624.0124-.1249.0193-.1875.0632-.5056.1264-1.0744.1264-1.6432.0419-.3349.0283-.6975.0143-1.0696-.0071-.1895-.0143-.3815-.0143-.5736 0-.0568.0006-.1137.0013-.1706z"/><path d="m33.2224 83.196c.2239-.809.445-1.6077.291-2.5314 0-.0632 0-.0632-.0632-.1264s-.1896-.0632-.2528 0c-.6656.6656-.9579 1.4556-1.2465 2.2356-.0676.1829-.1351.3652-.2071.5452-.304.76-.5673 1.5605-.8226 2.3365-.0632.1921-.1259.3827-.1886.5707-.0612.1959-.1224.3895-.1832.5816-.2529.7993-.4978 1.5735-.7016 2.3888-.0475.1902-.0995.3781-.1514.5655-.2239.809-.4449 1.6077-.291 2.5313 0 .0633.0632.1265.0632.1265.0632.0631.1896.0631.2528 0 .6656-.6656.9579-1.4556 1.2465-2.2357.0676-.1828.1351-.3651.2071-.5452.304-.7598.5673-1.5603.8226-2.3363.0632-.1921.1259-.3827.1886-.5709.0612-.1959.1224-.3894.1832-.5815.2529-.7993.4978-1.5735.7016-2.3888.0475-.1902.0996-.3781.1514-.5655z"/><path d="m33.4136 70.5453c.2707-.5605.5221-1.0811.4158-1.8255-.0632-.1263-.1896-.1895-.2528-.1263-.7493.3458-1.0781.9019-1.4178 1.4765-.0327.0554-.0656.111-.099.1666-.3792.5689-.7584 1.2009-1.0744 1.8329l-.948 1.896c-.0502.1103-.1019.2175-.153.3233-.2707.5605-.5221 1.0811-.4158 1.8255v.0632c.0632.0632.1264.1263.2528.0632.7493-.3459 1.0781-.902 1.4178-1.4766.0328-.0554.0656-.111.099-.1666.3792-.5689.7584-1.2008 1.0744-1.8329l.948-1.8959c.0502-.1104.102-.2176.153-.3234z"/><path d="m25.1389 85.3272c.5229-1.0927 1.0549-2.2045 1.1697-3.525 0-.0632 0-.1264-.0632-.1264-.0632-.0632-.1896-.0632-.2528 0-.9727.9155-1.531 1.9864-2.0969 3.072-.0592.1135-.1185.2272-.1783.3409-.4635.8005-.8708 1.601-1.278 2.4015-.2037.4003-.4073.8006-.618 1.2008-.2844.6004-.5688 1.2166-.8532 1.8328-.2844.6163-.5688 1.2325-.8532 1.8329-.0521.11-.1048.22-.1575.3302-.5229 1.0927-1.0549 2.2045-1.1697 3.525 0 .0268 0 .0423.0049.056.0065.0186.022.034.0583.0703.0632.0633.1896.0633.2528 0 .9727-.9154 1.531-1.9863 2.0969-3.0719.0592-.1135.1185-.2272.1783-.3408.4635-.8006.8708-1.6011 1.278-2.4016.2037-.4003.4073-.8006.618-1.2008.2844-.6004.5688-1.2166.8532-1.8328s.5688-1.2324.8532-1.8328c.0521-.1101.1048-.2201.1575-.3303z"/><path d="m20.4824 80.6939c.3907-.4858.7786-.968.8334-1.7357 0-.1896-.1264-.2527-.2528-.1895-.7042.1625-1.1299.6036-1.5555 1.0447-.0709.0735-.1419.147-.2141.2193-.5056.5056-1.0112 1.0112-1.4536 1.5799-.4424.5056-.8848 1.0744-1.3271 1.6432-.0586.0753-.1183.1495-.1779.2237-.3907.4857-.7786.9679-.8334 1.7355v.0633c.0632.0631.1264.1263.2528.1263.7042-.1625 1.1299-.6036 1.5555-1.0447.0709-.0735.1419-.147.2141-.2193.5056-.5056 1.0112-1.0112 1.4536-1.5799.4424-.5056.8848-1.0744 1.3272-1.6433.0586-.0752.1182-.1494.1778-.2235z"/><path d="m26.0041 69.3394c.5767-.2903 1.1565-.5821 1.5685-1.2515 0 0 .0632 0 0-.0632 0-.0633-.0632-.1897-.1896-.1897-.8421-.1203-1.5125.1602-2.2291.46-.0363.0152-.0727.0304-.1093.0457-.3475.1579-.7109.3159-1.0742.4739-.3635.158-.7269.316-1.0746.4741-.6952.316-1.3904.6951-2.0856 1.0743-.1287.0703-.2597.1362-.3908.2021-.5766.2903-1.1564.5821-1.5684 1.2516v.0632c0 .0631.0632.1896.1896.1896.8421.1203 1.5125-.1602 2.2291-.46.0363-.0152.0727-.0304.1093-.0456.3477-.1581.7111-.3161 1.0746-.4741.3633-.158.7267-.316 1.0742-.4739.7584-.316 1.4536-.6321 2.0856-1.0744.1288-.0703.2597-.1362.3907-.2021z"/><path d="m14.0372 75.4471c.8833-.4496 1.7441-.8877 2.4754-1.6713.0364-.0363.0518-.0517.0584-.0703.0048-.0137.0048-.0292.0048-.056 0-.1265-.0632-.1897-.1896-.1897-1.19.0567-2.1767.469-3.1424.8725-.1114.0466-.2225.093-.3336.1387-.2409.0993-.485.1985-.7309.2984-.8505.3456-1.722.6998-2.55549 1.0921l-3.2232 1.5168c-.18641.0986-.37281.1935-.55822.2879-.88328.4496-1.74409.8877-2.47538 1.6712-.0632.0633-.0632.0633-.0632.1265 0 .1263.0632.1896.1896.1896 1.18996-.0567 2.17671-.469 3.14244-.8725.11137-.0466.22246-.093.33356-.1387.24091-.0992.485-.1984.73085-.2984.85054-.3456 1.72206-.6998 2.55554-1.0921l3.2232-1.5168c.1864-.0986.3728-.1935.5582-.2879z"/><path d="m12.7608 69.026c1.2114-.3547 2.3778-.6963 3.499-1.4438.0632 0 .0632-.0631.0632-.1264.0632-.1263-.0632-.1895-.1264-.1895-1.2842-.1028-2.4432.1702-3.6127.4458-.2693.0634-.5392.127-.8113.1861-.7269.1897-1.4379.3635-2.14897.5373-.71094.1738-1.42188.3476-2.14862.5371-1.45346.3792-2.90734.7585-4.2976 1.2009-.2256.0686-.44968.1342-.67223.1994-1.21143.3547-2.377756.6963-3.498974 1.4438 0 0-.063196.0631-.063196.1263-.0632.1265.063196.1897.126396.1897 1.284231.1027 2.443204-.1704 3.612664-.4459.26934-.0634.53923-.127.81134-.1862.72674-.1895 1.43768-.3633 2.14863-.5371.71105-.1738 1.42211-.3476 2.14897-.5373 1.4536-.3791 2.90719-.7583 4.29759-1.2008.2256-.0686.4497-.1342.6722-.1994z"/><path d="m13.7352 62.4083c.6576.0188 1.2961.037 2.019-.3244 0 0 0-.0632.0632-.0632.0632-.0632 0-.1896-.0632-.2528-.6333-.5278-1.3107-.6149-1.9954-.7028-.1352-.0174-.2707-.0348-.4062-.0556-.7584-.1264-1.58-.2528-2.4016-.316s-1.64319-.1264-2.46479-.1264c-.15035 0-.29858-.0043-.44585-.0085-.65754-.0188-1.29606-.037-2.01895.3244l-.0632.0633c-.0632.0631 0 .1895.0632.2528.63334.5277 1.31076.6148 1.99544.7027.1352.0174.27068.0348.40616.0557.7584.1264 1.57999.2528 2.40159.316s1.6432.1264 2.4648.1264c.1503 0 .2986.0042.4458.0084z"/><path d="m28.1571 64.7622c.8251.062 1.6125.1211 2.4491-.2135l.0632-.0632c.0632-.0632 0-.1896-.0632-.2528-.7963-.5689-1.5926-.6769-2.389-.785-.0884-.012-.1769-.024-.2654-.0367l-2.6544-.3791c-.8297-.1186-1.715-.1815-2.5516-.241-.0556-.004-.1109-.0079-.166-.0119-.1114-.0074-.2219-.0157-.3317-.0239-.8251-.062-1.6125-.1211-2.4491.2136l-.0632.0632c-.0632.0632 0 .1896.0632.2528.7963.5688 1.5927.6768 2.389.7849.0885.012.1769.024.2654.0366l2.6544.3793c.8296.1185 1.7148.1814 2.5514.2409.0556.004.111.0079.1662.0119.1114.0074.2219.0157.3317.0239z"/><path d="m28.0424 59.9593c.8569.4626 1.734.9362 2.8166 1.0502 0 0 .0632-.0632.1264 0 .1264-.0632.1264-.1896.0632-.2528-.6952-1.0112-1.6432-1.58-2.5912-2.1488-.948-.632-1.896-1.2009-2.844-1.7697s-1.9592-1.1376-2.9072-1.6432c-.0933-.0497-.1866-.1001-.2802-.1506-.8569-.4626-1.734-.9362-2.8166-1.0501-.0391-.0391-.054-.0299-.0746-.0171-.0127.0078-.0277.0171-.0518.0171-.1264.0632-.1264.1895-.0632.2528.6952 1.0112 1.6432 1.5799 2.5912 2.1488.948.6319 1.896 1.2007 2.844 1.7695s1.9592 1.1377 2.9072 1.6433c.0933.0497.1866.1001.2802.1506z"/><path d="m10.3333 55.4416c.763.2765 1.5227.5517 2.4505.4486.0316 0 .0474-.0157.0632-.0315.0158-.0159.0316-.0317.0632-.0317.0632-.0631.0632-.1896 0-.2528-.6008-.6508-1.3205-.9844-2.0336-1.3148-.1871-.0867-.3737-.1732-.5576-.2651-.94799-.4424-1.83279-.8217-2.78079-1.2009-.8848-.3792-1.8328-.7584-2.7808-1.0743-.1748-.0583-.34745-.1209-.51993-.1834-.76296-.2765-1.52263-.5517-2.45047-.4486-.0632 0-.1264.0631-.1264.0631-.0632.0633-.0632.1897 0 .2528.60078.6509 1.32055.9845 2.03363 1.3149.18707.0867.37368.1732.55757.2652.948.4423 1.8328.8215 2.7808 1.2007.8848.3792 1.8328.7585 2.7808 1.0745.17479.0582.34739.1208.51989.1833z"/><path d="m14.5774 51.2663c.7951.5171 1.6113 1.0479 2.6304 1.2744h.0632c.0632-.0632.1264-.1896.0632-.2529-.5277-.9381-1.3274-1.5499-2.0963-2.138-.0599-.0458-.1195-.0915-.1789-.1371-.4108-.316-.8374-.632-1.264-.948s-.8532-.632-1.264-.948c-.8216-.632-1.7064-1.2641-2.59119-1.8328-.16842-.1083-.33455-.2212-.501-.3342-.70803-.481-1.42194-.9659-2.343-1.1195h-.1264c-.0632.0633-.1264.1896-.0632.2528.52771.9382 1.32742 1.55 2.0963 2.1381.05987.0458.11955.0915.1789.1371.4108.316.83739.632 1.26399.9481.4266.3159.8532.6319 1.264.9479.8216.632 1.7064 1.264 2.5912 1.8329.0922.0592.1843.1191.2768.1792z"/><path d="m24.6377 50.0798c.4913.7247.9786 1.4436 1.7973 1.9552h.1264c.0632 0 .1264-.0631.1264-.1895-.1022-.9708-.5348-1.7351-.964-2.4932-.1017-.1796-.2031-.3589-.3-.5404-.3665-.6873-.7663-1.3414-1.1752-2.0104-.1551-.2538-.3116-.5097-.468-.7705-.5688-.948-1.1376-1.8328-1.7696-2.7176-.1203-.1684-.236-.3391-.3515-.5095-.4913-.7247-.9786-1.4436-1.7973-1.9552h-.1264c-.0632 0-.1264.0631-.1264.1895.1022.9708.5348 1.7351.964 2.4932.1017.1796.2032.3589.3.5404.3666.6873.7663 1.3414 1.1752 2.0104.1551.2538.3116.5097.468.7704.5688.9481 1.1376 1.8329 1.7696 2.7177.1203.1684.236.3391.3515.5095z"/><path d="m33.6413 58.6712c-.8012-.5724-1.1879-1.3002-1.5823-2.0427l-.0007-.0013c-.0409-.077-.0818-.1541-.1234-.2312l-1.3272-2.4649c-.3372-.6262-.6377-1.2892-.9295-1.9329-.091-.2008-.1811-.3997-.2713-.5951-.0535-.1249-.1084-.2487-.163-.372-.3323-.7499-.6586-1.4861-.6586-2.4087 0-.1265.0632-.1896.1896-.1896.0632 0 .0632 0 .1264.0631.8013.5724 1.1879 1.3002 1.5824 2.0427.0411.0774.0823.155.124.2325l1.3272 2.4649c.1896.4106.3949.8371.6003 1.2636.2054.4266.4109.8535.6005 1.2644.0536.1249.1084.2487.1631.372.3323.7499.6585 1.4861.6585 2.4088 0 .1264-.0632.1895-.1896.1895-.0632-.0632-.0632-.0631-.1264-.0631z"/><path d="m29.5333 44.8304c-.8655-.8115-1.407-1.8082-1.9413-2.792-.0899-.1654-.1797-.3307-.2707-.4945-.475-.855-.9144-1.7458-1.3448-2.6186-.1422-.2884-.2835-.5749-.4248-.8573-.1393-.2941-.2785-.5843-.4169-.8727-.4266-.889-.8445-1.7598-1.2263-2.6665-.1011-.2402-.2073-.4778-.3134-.7155-.4247-.9505-.8494-1.901-.9506-3.0133 0-.0632.0632-.1896.1264-.1896s.1264 0 .1264.0632c.8656.8114 1.407 1.8081 1.9414 2.7919.0899.1655.1796.3306.2706.4944.4751.8551.9144 1.7459 1.3449 2.6188.1422.2883.2835.5748.4247.8573.1392.2938.2785.584.4167.8721.4267.8891.8447 1.7603 1.2265 2.6671.1011.2401.2073.4777.3135.7154.4247.9505.8494 1.901.9505 3.0133 0 .0633-.0632.1897-.1264.1897 0-.0633-.0632-.0632-.1264-.0632z"/><path d="m33.0084 40.8489c-.4611-.6148-.5484-1.2712-.6323-1.9017-.0196-.1473-.039-.2931-.0629-.4367-.1264-.8216-.1896-1.58-.2528-2.4016s-.0632-1.58-.0632-2.4016c0-.1507-.0043-.2993-.0085-.4465-.0187-.6554-.0368-1.2843.3245-1.9551.0632-.0632.1896-.1264.2528-.0632l.0632.0632c.4611.6148.5484 1.2711.6323 1.9017.0196.1472.039.2931.0629.4367.1264.8216.1896 1.58.2528 2.4016s.0632 1.58.0632 2.4016c0 .1507.0042.2993.0085.4466.0187.6554.0367 1.2841-.3245 1.955-.0632.1264-.1896.1264-.316 0z"/></g><path d="m73.5769 94.9335c-.3792.1896-.7584.3792-.948 1.0112l.1264.316c.461.2561.7975.1386 1.144.0175.081-.0283.1626-.0568.2464-.0807.3792-.1264.8216-.316 1.2008-.5056s.7584-.3792 1.1376-.632c.3792-.1896.7584-.3792.948-1.0112l-.1264-.316c-.461-.2561-.7975-.1386-1.144-.0176-.081.0283-.1626.0568-.2464.0808-.3792.1264-.8216.316-1.2008.5056s-.7584.3792-1.1376.632z" fill="#f2d76b"/><path d="m20.448 26.2759c.5236 0 .948-.4245.948-.948 0-.5236-.4244-.948-.948-.948s-.948.4244-.948.948c0 .5235.4244.948.948.948z" fill="#d48fc8"/><path d="m136.54 26.3766c.569-1.0112 1.454-1.58 2.275-2.1488.822-.632 1.707-1.2008 2.528-1.8328l2.655-1.7064c.885-.5688 1.706-1.1376 2.907-1.3272.126 0 .19.0632.19.1264v.1264c-.569 1.0112-1.454 1.58-2.276 2.1488-.821.632-1.706 1.2008-2.528 1.8328l-2.654 1.7064c-.885.5688-1.706 1.1376-2.907 1.3272-.127 0-.19-.0632-.19-.1264zm-14.157 8.532c.569-1.0112 1.454-1.5168 2.212-2.1488.822-.632 1.644-1.2008 2.465-1.7696.822-.5688 1.707-1.1376 2.591-1.6432.885-.5056 1.707-1.1376 2.844-1.264.127 0 .19.0632.19.1264v.1264c-.569 1.0112-1.454 1.5168-2.212 2.1488-.822.632-1.643 1.2008-2.465 1.7696-.821.5688-1.706 1.1376-2.591 1.6432s-1.706 1.1376-2.844 1.264c-.126 0-.19-.0632-.19-.1264-.063-.0632-.063-.1264 0-.1264zm17.317-2.844c.569-.632 1.327-.7584 1.959-.948.696-.1896 1.391-.3792 2.086-.5056l2.086-.3792c.695-.1264 1.39-.2528 2.212.0632.126.0632.126.1896.126.2528 0 0 0 .0632-.063.0632-.569.632-1.327.7584-1.959.948-.696.1896-1.391.3792-2.086.5056l-2.086.3792c-.695.1264-1.39.2528-2.212-.0632-.126 0-.126-.1264-.063-.316 0 .0632-.063.0632 0 0zm-14.22 5.2456c1.075-.3792 2.023-.2528 3.034-.1896s2.022.1896 3.033.2528c1.012.1264 2.023.2528 2.971.3792 1.011.1264 2.022.1896 2.97.8216.063.0632.127.1896.063.2528 0 .0632-.063.0632-.063.0632-1.074.3792-2.022.2528-3.033.1896-1.012-.0632-2.023-.1896-3.034-.2528-1.011-.1264-2.022-.2528-2.97-.3792-1.012-.1264-2.023-.1896-2.971-.8216-.063-.0632-.126-.1896-.063-.2528zm16.053-.4424c.758-.3792 1.39-.2528 2.086-.1896.695.0632 1.327.1264 2.022.1896.632.1264 1.327.2528 1.959.3792s1.327.1896 1.896.8216c.063.0632.063.1896 0 .2528h-.063c-.758.3792-1.39.2528-2.086.1896-.695-.0632-1.327-.1264-2.022-.1896-.632-.1264-1.327-.2528-1.959-.3792s-1.327-.1896-1.896-.8216c-.063 0-.063-.1264.063-.2528-.063.0632-.063.0632 0 0zm-2.591 6.1936c.885-.1896 1.517.1264 2.275.316.695.2528 1.39.4424 2.086.7584.695.2528 1.39.5688 2.022.8848.695.316 1.39.5688 1.896 1.264.063.0632.063.1896-.063.2528h-.063c-.885.1896-1.517-.1264-2.276-.316-.695-.2528-1.39-.4424-2.085-.7584-.695-.2528-1.391-.5688-2.023-.8848-.695-.316-1.39-.5688-1.896-1.264-.063 0-.063-.1264.127-.2528-.063.0632-.063.0632 0 0zm-10.997-.3792c.948.0632 1.517.5056 2.149.948s1.264.8216 1.896 1.3272c.632.4424 1.201.948 1.833 1.4536.568.5056 1.2.8848 1.516 1.7696.064.1264 0 .1896-.126.2528h-.063c-.948-.0632-1.517-.5056-2.149-.948s-1.264-.8216-1.896-1.3272c-.632-.4424-1.201-.948-1.833-1.4536-.569-.5056-1.201-.8848-1.517-1.7696-.063-.1264 0-.1896.127-.2528zm7.015 11.1864c.695.0632.948.4424 1.264.7584s.632.6952.885 1.0112c.316.3792.569.7584.822 1.1376.252.3792.568.6952.442 1.3904 0 .1264-.126.1896-.253.1896-.695-.0632-.948-.4424-1.264-.7584s-.632-.6952-.885-1.0112c-.316-.3792-.568-.7584-.821-1.1376s-.569-.6952-.443-1.3904c0-.1264.127-.1896.253-.1896zm-11.629-.316c.696.316.822.8848 1.075 1.3272.253.5056.442 1.0112.695 1.5168.19.5056.379 1.0112.506 1.58.126.5056.379 1.0112.126 1.7064-.063.1264-.19.1896-.253.1264-.695-.316-.821-.8848-1.074-1.3272-.253-.5056-.443-1.0112-.695-1.5168-.19-.5056-.38-1.0112-.506-1.58-.126-.5056-.379-1.0112-.126-1.7064 0-.1264.126-.1896.252-.1264zm3.603-5.5616c.758.316 1.074.948 1.453 1.5168.38.5688.759 1.1376 1.075 1.7064s.632 1.2008.948 1.7696c.316.632.695 1.2008.569 2.0224 0 .1264-.127.1896-.253.1896h-.063c-.759-.316-1.075-.948-1.454-1.5168s-.758-1.1376-1.074-1.7064-.632-1.2008-.948-1.7696c-.316-.632-.696-1.2008-.569-2.0224.063-.1264.189-.2528.316-.1896zm-6.067-7.0784c.695.4424.884 1.1376 1.137 1.7064l.759 1.896c.189.632.442 1.264.568 1.896.19.632.443 1.264.19 2.0856-.063.1264-.126.1896-.253.1264h-.063c-.695-.4424-.885-1.1376-1.138-1.7064l-.758-1.896c-.19-.632-.442-1.264-.569-1.896-.189-.632-.442-1.264-.189-2.0856.063-.1264.189-.1896.316-.1264 0-.0632 0-.0632 0 0zm-3.476-.948c.126.8848-.253 1.58-.569 2.2752l-.948 2.0856c-.316.6952-.695 1.3904-1.075 2.0224-.379.6952-.695 1.3904-1.453 1.8328-.063.0632-.19 0-.253-.0632v-.0632c-.126-.8848.253-1.58.569-2.2752l.948-2.0856c.316-.6952.695-1.3904 1.074-2.0224.379-.6952.695-1.3904 1.454-1.8328.063-.0632.189 0 .253.0632zm-.759 14.2832c.316.6952.127 1.264 0 1.896-.126.5688-.253 1.2008-.379 1.7696s-.316 1.1376-.569 1.7696c-.189.5688-.316 1.2008-.948 1.6432-.063.0632-.253.0632-.316-.0632-.316-.6952-.126-1.264 0-1.896.127-.5688.253-1.2008.379-1.7696.127-.5688.316-1.1376.569-1.7696.19-.5688.316-1.2008.948-1.6432.127-.0632.253-.0632.316.0632zm-4.297-2.7176c0 1.1376-.506 2.0856-.885 3.0336s-.822 1.896-1.264 2.844c-.443.948-.948 1.8328-1.391 2.7808-.505.8848-.884 1.896-1.832 2.5912-.064.0632-.19.0632-.253 0 0-.0632-.063-.0632-.063-.1264 0-1.1376.505-2.0856.884-3.0336.38-.948.822-1.896 1.264-2.844.443-.948.948-1.8328 1.391-2.7808.505-.8848.885-1.896 1.833-2.5912.063-.0632.189-.0632.252 0 .064.0632.064.0632.064.1264zm-3.729-4.74c-.063.7584-.506 1.2008-.885 1.6432s-.758.8848-1.201 1.3272c-.379.4424-.821.8216-1.264 1.264-.442.3792-.821.8848-1.58.948-.126 0-.189-.0632-.253-.1896.064-.7584.506-1.2008.885-1.6432s.759-.8848 1.201-1.3272c.379-.4424.822-.8216 1.264-1.264.442-.3792.822-.8848 1.58-.948.19 0 .253.0632.253.1896zm-3.539-5.6248c-.696.8848-1.644 1.2008-2.528 1.6432-.885.4424-1.77.8216-2.6548 1.264-.8848.3792-1.8328.7584-2.7176 1.0744-.948.316-1.8328.7584-2.9072.6952-.1264 0-.1896-.0632-.1896-.1896 0-.0632 0-.0632.0632-.1264.6952-.8848 1.6432-1.2008 2.528-1.6432s1.7696-.8216 2.6544-1.264c.8846-.3792 1.8326-.7584 2.7176-1.0744.948-.316 1.833-.7584 2.907-.6952.127 0 .19.0632.19.1896 0 .0632 0 .1264-.063.1264zm10.428-3.476c-.38.6952-1.012.8848-1.58 1.1376-.569.2528-1.138.5056-1.707.6952s-1.137.3792-1.769.5688c-.569.1896-1.138.4424-1.896.1264-.127-.0632-.19-.1264-.127-.2528v-.0632c.379-.6952 1.011-.8848 1.58-1.1376s1.138-.5056 1.707-.6952c.568-.1896 1.137-.3792 1.769-.5688.569-.1896 1.138-.4424 1.896-.1264.127.0632.19.1896.127.316zm-12.072-4.1712c-1.074.2528-2.022 0-2.97-.1896s-1.896-.3792-2.844-.632l-2.844-.7584c-.948-.2528-1.896-.4424-2.7176-1.2008-.0632-.0632-.0632-.1896 0-.2528l.0632-.0632c1.0744-.2528 2.0224 0 2.9704.1896s1.896.3792 2.844.632l2.844.7584c.948.2528 1.896.4424 2.718 1.2008.063.0632.063.1896 0 .2528zm9.796 1.9592c-.695.3792-1.264.1896-1.832.0632-.569-.1264-1.138-.1896-1.707-.3792-.569-.1264-1.137-.316-1.706-.5056s-1.138-.316-1.58-.948c-.063-.1264-.063-.2528.063-.316.695-.3792 1.264-.1896 1.833-.0632s1.137.1896 1.706.3792c.569.1264 1.138.316 1.707.5056.568.1896 1.137.316 1.58.948.126.0632.063.1896-.064.316zm-11.692-8.0896c-.758.1896-1.264-.1264-1.7692-.3792-.5056-.2528-1.0744-.5056-1.58-.7584s-1.0112-.5688-1.5168-.8848-1.0112-.5688-1.264-1.264c-.0632-.1264 0-.2528.1264-.2528.7584-.1896 1.264.1264 1.7696.3792s1.0744.5056 1.58.7584 1.0112.5688 1.517.8848c.505.316 1.011.5688 1.264 1.264.063.0632 0 .1896-.127.2528zm15.295 4.8032c-.948-.1896-1.517-.7584-2.149-1.264s-1.264-1.0744-1.833-1.58c-.569-.5688-1.201-1.1376-1.769-1.7064-.569-.5688-1.201-1.0744-1.454-2.0224 0-.1264.063-.1896.126-.2528h.064c.948.1896 1.516.7584 2.148 1.264s1.264 1.0744 1.833 1.58c.569.5688 1.201 1.1376 1.77 1.7064s1.201 1.0744 1.453 2.0224c0 .1264-.063.1896-.126.2528zm-9.227-6.8888c-.948-.1896-1.517-.7584-2.149-1.3272-.632-.5056-1.201-1.0744-1.833-1.6432-.569-.5688-1.138-1.1376-1.706-1.7696-.569-.5688-1.201-1.1376-1.391-2.0856 0-.1264.063-.1896.127-.2528h.063c.948.1896 1.517.7584 2.149 1.3272.632.5056 1.2 1.0744 1.832 1.6432.569.5688 1.138 1.1376 1.707 1.7696.569.5688 1.201 1.1376 1.39 2.0856 0 .1264-.063.1896-.126.2528zm4.803-6.5728c-.885-.6952-1.327-1.58-1.77-2.4648-.505-.8848-.948-1.7696-1.39-2.6544-.443-.8848-.885-1.8328-1.264-2.7176-.379-.94802-.885-1.83282-.885-2.90722 0-.1264.063-.1896.19-.1896.063 0 .063 0 .126.0632.885.6952 1.327 1.58 1.77 2.46482.505.8848.948 1.7696 1.39 2.6544s.885 1.8328 1.264 2.7176c.379.948.885 1.8328.885 2.9072 0 .1264-.063.1896-.19.1896-.063 0-.126 0-.126-.0632zm5.751 9.3536c-.695-.632-.822-1.4536-1.074-2.212-.253-.7584-.443-1.5168-.632-2.2752-.19-.7584-.316-1.5168-.506-2.3384-.126-.7584-.379-1.5168-.063-2.4016.063-.1264.126-.1264.253-.1264 0 0 .063 0 .063.0632.695.632.821 1.4536 1.074 2.212s.443 1.5168.632 2.2752c.19.7584.316 1.5168.506 2.3384.126.7584.379 1.5168.063 2.4016-.063.1264-.126.1264-.253.1264 0-.0632-.063-.0632-.063-.0632zm2.402-13.904c-.506-.6952-.506-1.3272-.506-2.0224-.063-.6952-.063-1.3272-.063-2.0224 0-.69522 0-1.32722.063-2.02242s0-1.3272.506-2.0224c.063-.0632.189-.1264.252-.0632l.064.0632c.505.6952.505 1.3272.505 2.0224.063.6952.063 1.3272.063 2.02242 0 .6952 0 1.3272-.063 2.0224s0 1.3272-.505 2.0224c-.064.0632-.19.0632-.316 0 .063 0 .063 0 0 0zm-.38 16.5584c-.189-.8848.127-1.4536.38-2.1488.252-.632.505-1.3272.821-1.9592l.948-1.896c.316-.632.569-1.264 1.327-1.7064.064-.0632.19 0 .253.0632v.0632c.19.8848-.126 1.4536-.379 2.1488-.253.632-.506 1.3272-.822 1.9592l-.948 1.896c-.316.632-.568 1.264-1.327 1.7064-.063 0-.189 0-.253-.1264zm5.372-12.956c-.252-.632-.063-.948.064-1.3904.126-.3792.316-.8216.505-1.2008.19-.3792.379-.7584.632-1.1376s.379-.7584 1.011-.948c.127 0 .253 0 .316.1264.253.632.064.948-.063 1.3904-.126.3792-.316.8216-.505 1.2008-.19.3792-.38.7584-.632 1.1376-.253.3792-.38.7584-1.012.948-.126.0632-.252 0-.316-.1264zm1.075 6.3832c-.127-.8216.253-1.3272.569-1.896s.568-1.0744.948-1.6432c.316-.5056.695-1.0744 1.074-1.58s.632-1.0744 1.39-1.3272c.127-.0632.253 0 .253.1264v.0632c.127.8216-.253 1.3272-.569 1.896s-.568 1.0744-.948 1.6432c-.316.5056-.695 1.0744-1.074 1.58s-.632 1.0744-1.39 1.3272c-.127 0-.19-.0632-.253-.1896zm6.636-5.372c.189-.8848.695-1.3904 1.201-1.896.505-.5688 1.011-1.0744 1.516-1.58.506-.5056 1.075-1.0112 1.644-1.5168.568-.5056 1.074-1.0112 1.959-1.2008.126 0 .189.0632.253.1264v.0632c-.19.8848-.696 1.3904-1.201 1.896-.506.5688-1.011 1.0744-1.517 1.58s-1.074 1.0112-1.643 1.5168-1.075 1.0112-1.959 1.2008c-.127 0-.19-.0632-.253-.1264z" fill="#c475bd"/><circle cx="80" cy="50" fill="#fff" r="35"/><path clip-rule="evenodd" d="m80 82.8125c18.1218 0 32.812-14.6907 32.812-32.8125 0-7.3882-1.348-14.2061-5.468-19.6907-5.987-7.968-16.6104-13.1218-27.344-13.1218-8.1426 0-14.4987 2.9659-20.2344 7.8764-7.0295 6.018-12.5781 14.9568-12.5781 24.9361 0 8.6705 2.2692 16.5555 7.762 22.4219 5.9874 6.3946 15.5992 10.3906 25.0505 10.3906zm0 2.1875c19.33 0 35-15.67 35-35s-15.67-35-35-35-35 15.67-35 35 15.67 35 35 35z" fill="#c475bd" fill-rule="evenodd"/><path clip-rule="evenodd" d="m70 33.5521-.25 22.4479.25 10 18-10 9.6702-6zm-1.0176-1.8047c.6031-.3383 1.3421-.3291 1.9366.0243l19.081 11.7283 8.8096 4.8506c.5807.3452.9404.9701.9404 1.6494s-.3597 1.3042-.9404 1.6494l-27.8906 16.5789c-.5945.3534-1.3335.3626-1.9366.0243-.6041-.3389-.9824-.9769-.9824-1.6737l.25-23.0789-.25-10.0789c0-.6968.3783-1.3348.9824-1.6737z" fill="#6aafcb" fill-rule="evenodd"/><path d="m150.861 3.04976-1.012 2.0856 1.77 1.6432c.316.2528.063.7584-.316.6952l-2.465-.316-1.011 2.2752c-.126.3792-.695.316-.758-.0632l-.443-2.4648-2.212-.1896c-.442-.0632-.569-.5688-.189-.7584l2.022-1.1376-.442-2.3384c-.064-.3792.379-.632.695-.3792l1.769 1.58 2.023-1.1376c.379-.2528.758.1264.569.5056z" fill="#004e6e"/></g></svg>