<svg fill="none" height="32" viewBox="0 0 33 32" width="33" xmlns="http://www.w3.org/2000/svg" xmlns:xlink="http://www.w3.org/1999/xlink"><mask id="a" height="20" maskUnits="userSpaceOnUse" width="15" x="9" y="6"><path clip-rule="evenodd" d="m16.5002 13.5002v-2.5c-2.7584 0-5 2.2416-5 5 0 .8416.2083 1.6416.5833 2.3333l-1.2167 1.2167c-.65-1.025-1.0333-2.2417-1.0333-3.55 0-3.6834 2.9833-6.6667 6.6667-6.6667v-2.5l3.3333 3.3333zm4.4166.1666 1.2167-1.2166c.65 1.025 1.0333 2.2416 1.0333 3.55 0 3.6833-2.9833 6.6666-6.6666 6.6666v2.5l-3.3334-3.3333 3.3334-3.3333v2.5c2.7583 0 5-2.2417 5-5 0-.8417-.2167-1.6334-.5834-2.3334z" fill="#fff" fill-rule="evenodd"/></mask><rect fill="#008710" height="32" rx="4" width="32" x=".5"/><g mask="url(#a)"><path d="m6.5 6h20v20h-20z" fill="#fff"/></g></svg>