<svg fill="none" height="196" width="536" xmlns="http://www.w3.org/2000/svg" xmlns:xlink="http://www.w3.org/1999/xlink"><filter id="a" color-interpolation-filters="sRGB" filterUnits="userSpaceOnUse" height="196" width="536" x="0" y="0"><feFlood flood-opacity="0" result="BackgroundImageFix"/><feColorMatrix in="SourceAlpha" values="0 0 0 0 0 0 0 0 0 0 0 0 0 0 0 0 0 0 127 0"/><feOffset/><feGaussianBlur stdDeviation="20"/><feColorMatrix values="0 0 0 0 0 0 0 0 0 0 0 0 0 0 0 0 0 0 0.08 0"/><feBlend in2="BackgroundImageFix" result="effect3_dropShadow"/><feBlend in="SourceGraphic" in2="effect3_dropShadow" result="shape"/></filter><g filter="url(#a)"><rect fill="#fff" height="116" rx="8" width="456" x="40" y="40"/></g><path d="m475.35 62.04a7.49 7.49 0 0 0 -7.35-6.04c-2.89 0-5.4 1.64-6.65 4.04a5.994 5.994 0 0 0 -5.35 5.96c0 3.31 2.69 6 6 6h13c2.76 0 5-2.24 5-5 0-2.64-2.05-4.78-4.65-4.96z" fill="#e9eff5"/><circle cx="100" cy="98" fill="#f7a8c3" r="36"/><path d="m160 84a6 6 0 0 1 6-6h174a6 6 0 1 1 0 12h-174a6 6 0 0 1 -6-6zm0 28a6 6 0 0 1 6-6h276a6 6 0 1 1 0 12h-276a6 6 0 0 1 -6-6z" fill="#e9eff5"/></svg>