<svg xmlns="http://www.w3.org/2000/svg" width="536" height="196" fill="none" class="backup__animation-el-3"><g filter="url(#filter3_d)"><rect width="456" height="116" x="40" y="40" fill="#fff" rx="8"/></g><path fill="#E9EFF5" d="M475.35 62.04A7.49 7.49 0 00468 56c-2.89 0-5.4 1.64-6.65 4.04A5.994 5.994 0 00456 66c0 3.31 2.69 6 6 6h13c2.76 0 5-2.24 5-5 0-2.64-2.05-4.78-4.65-4.96z"/><circle cx="100" cy="98" r="36" fill="#F7A8C3"/><path fill="#E9EFF5" d="M160 84a6 6 0 016-6h174a6 6 0 110 12H166a6 6 0 01-6-6zM160 112a6 6 0 016-6h276a6 6 0 110 12H166a6 6 0 01-6-6z"/><defs><filter id="filter3_d" width="536" height="196" x="0" y="0" color-interpolation-filters="sRGB" filterUnits="userSpaceOnUse"><feFlood flood-opacity="0" result="BackgroundImageFix"/><feColorMatrix in="SourceAlpha" values="0 0 0 0 0 0 0 0 0 0 0 0 0 0 0 0 0 0 127 0"/><feOffset/><feGaussianBlur stdDeviation="20"/><feColorMatrix values="0 0 0 0 0 0 0 0 0 0 0 0 0 0 0 0 0 0 0.08 0"/><feBlend in2="BackgroundImageFix" result="effect3_dropShadow"/><feBlend in="SourceGraphic" in2="effect3_dropShadow" result="shape"/></filter></defs></svg>