<svg fill="none" height="32" viewBox="0 0 32 32" width="32" xmlns="http://www.w3.org/2000/svg" xmlns:xlink="http://www.w3.org/1999/xlink"><mask id="a" height="14" maskUnits="userSpaceOnUse" width="20" x="6" y="9"><path clip-rule="evenodd" d="m22.125 14.3668c-.5667-2.875-3.0917-5.0333-6.125-5.0333-2.4083 0-4.5 1.3667-5.5417 3.3667-2.5083.2666-4.4583 2.3916-4.4583 4.9666 0 2.7584 2.24167 5 5 5h10.8333c2.3 0 4.1667-1.8666 4.1667-4.1666 0-2.2-1.7083-3.9834-3.875-4.1334zm-.2917 6.6334h-10.8333c-1.84167 0-3.33333-1.4917-3.33333-3.3334 0-1.7083 1.275-3.1333 2.96663-3.3083l.8917-.0917.4167-.7916c.7916-1.525 2.3416-2.475 4.0583-2.475 2.1833 0 4.0667 1.55 4.4917 3.6916l.25 1.25 1.275.0917c1.3.0833 2.3166 1.175 2.3166 2.4667 0 1.375-1.125 2.5-2.5 2.5zm-9.2416-4.925 1.7416 1.7416 3.8334-3.8333 1.175 1.175-5.0084 5.0083-2.9166-2.9166z" fill="#fff" fill-rule="evenodd"/></mask><rect fill="#008710" height="32" rx="4" width="32"/><g mask="url(#a)"><path d="m6 6h20v20h-20z" fill="#fff"/></g></svg>