<svg fill="none" height="32" viewBox="0 0 33 32" width="33" xmlns="http://www.w3.org/2000/svg" xmlns:xlink="http://www.w3.org/1999/xlink"><mask id="a" height="18" maskUnits="userSpaceOnUse" width="17" x="8" y="7"><path clip-rule="evenodd" d="m16.4998 7.6665c-4.6 0-8.3333 3.7333-8.3333 8.3333s3.7333 8.3334 8.3333 8.3334 8.3334-3.7334 8.3334-8.3334-3.7334-8.3333-8.3334-8.3333zm0 15c-3.675 0-6.66663-2.9917-6.66663-6.6667s2.99163-6.66663 6.66663-6.66663 6.6667 2.99163 6.6667 6.66663-2.9917 6.6667-6.6667 6.6667zm-5-5c0-.9205.7462-1.6667 1.6667-1.6667s1.6667.7462 1.6667 1.6667-.7462 1.6667-1.6667 1.6667-1.6667-.7462-1.6667-1.6667zm5-6.6667c-.9204 0-1.6666.7462-1.6666 1.6667s.7462 1.6667 1.6666 1.6667c.9205 0 1.6667-.7462 1.6667-1.6667s-.7462-1.6667-1.6667-1.6667zm1.6667 6.6667c0-.9205.7462-1.6667 1.6667-1.6667.9204 0 1.6666.7462 1.6666 1.6667s-.7462 1.6667-1.6666 1.6667c-.9205 0-1.6667-.7462-1.6667-1.6667z" fill="#fff" fill-rule="evenodd"/></mask><rect fill="#008710" height="32" rx="4" width="32" x=".5"/><g mask="url(#a)"><path d="m6.5 6h20v20h-20z" fill="#fff"/></g></svg>