<svg fill="none" height="32" viewBox="0 0 32 32" width="32" xmlns="http://www.w3.org/2000/svg" xmlns:xlink="http://www.w3.org/1999/xlink"><mask id="a" height="16" maskUnits="userSpaceOnUse" width="18" x="6" y="8"><path clip-rule="evenodd" d="m8.75 16c0-4.1417 3.3583-7.5 7.5-7.5s7.5 3.3583 7.5 7.5-3.3583 7.5-7.5 7.5c-2.075 0-3.9417-.8417-5.3-2.2l1.1833-1.1833c1.05 1.0583 2.5084 1.7166 4.1167 1.7166 3.225 0 5.8333-2.6083 5.8333-5.8333s-2.6083-5.8333-5.8333-5.8333-5.8333 2.6083-5.8333 5.8333h2.5l-3.3667 3.3583-.05833-.1166-3.24167-3.2417zm6.6667.8333v-4.1666h1.25v3.4583l2.9333 1.7417-.6417 1.0666z" fill="#fff" fill-rule="evenodd"/></mask><rect fill="#008710" height="32" rx="4" width="32"/><g mask="url(#a)"><path d="m5 6h20v20h-20z" fill="#fff"/></g></svg>