<svg viewBox="0 0 480 480" xmlns="http://www.w3.org/2000/svg" width="2500" height="2500"><path d="M252.1 447.56S387.8 188.22 387.35 187.9c.44.32-145.7-.23-146.15-.54.45.3-1.2-161.78-1.2-161.78s-24.73.55-25.16.24c.43.3-130.88 262.4-131.32 262.1.44.3 131.75-.25 131.32-.56.43.3 9.23 156.9 8.8 156.6.43.3 28.45 3.6 28.45 3.6z" fill="#fff"/><path d="M240 0C107.63 0 0 107.63 0 240s107.63 240 240 240 240-107.63 240-240S372.37 0 240 0zm-12.37 279.85H108.1L227.62 47.18v232.67zm24.28 152.52V199.7h119.55L251.9 432.36z" fill="#069e08"/></svg>
