<svg width="24" height="24" fill="none" xmlns="http://www.w3.org/2000/svg"><path d="M14.5 7L8 13.5c-.167-1.167 1-5.167 1.5-6 .365-.608 1-1.5 2.5-2.5s5-2 5-2c0 1-1 2.5-2.5 4z" fill="#069E08"></path><path d="M7 16l1-2.5m0 0L14.5 7C16 5.5 17 4 17 3c0 0-3.5 1-5 2S9.865 6.892 9.5 7.5c-.5.833-1.667 4.833-1.5 6z" stroke="#069E08" stroke-width="1.5" stroke-linecap="round"></path><path d="M17.743 3.1a.75.75 0 10-1.486-.2l1.486.2zm-1.486-.2c-.089.662-.131 1.443-.17 2.235-.04.804-.075 1.63-.146 2.423-.072.795-.176 1.525-.344 2.134-.17.62-.386 1.036-.627 1.278l1.06 1.06c.509-.508.814-1.216 1.013-1.94.203-.735.317-1.568.392-2.398.074-.831.111-1.694.15-2.483.04-.802.08-1.52.158-2.11l-1.486-.198zm-1.287 8.07c-.276.275-.767.574-1.435.866-.653.287-1.415.541-2.175.754-.758.213-1.502.38-2.114.493-.63.117-1.071.167-1.246.167v1.5c.325 0 .885-.075 1.52-.192a26.28 26.28 0 002.245-.523 18.402 18.402 0 002.372-.825c.722-.316 1.419-.705 1.893-1.18l-1.06-1.06z" fill="#069E08"></path><path stroke="#069E08" stroke-width="1.5" d="M6 19.25h8"></path></svg>