<svg width="24" height="24" fill="none" xmlns="http://www.w3.org/2000/svg"><path fill-rule="evenodd" clip-rule="evenodd" d="M19.293 13.758a7.503 7.503 0 01-14.168 1.243l3.67-2.177 3.456 1.217a.75.75 0 00.686-.098l2.887-2.073.08.04c.296.145.703.349 1.15.58.78.406 1.64.877 2.239 1.268zm.206-1.635a37.63 37.63 0 00-1.754-.964 63.44 63.44 0 00-1.538-.771l-.099-.048-.026-.012-.01-.005a.75.75 0 00-.76.068l-2.932 2.105-3.417-1.203a.75.75 0 00-.631.062l-3.675 2.18A7.5 7.5 0 1119.5 12.123zM21 12a9 9 0 11-18 0 9 9 0 0118 0z" fill="#069E08"></path></svg>